# https://github.com/mikedh/trimesh

o convex_0
v -0.17794900 -0.27866400 -1.06704900
v 0.38301400 -0.27866100 -0.03658500
v 0.38301400 -0.30304900 -0.03658500
v 0.38301400 -0.27256200 -1.06704900
v -0.16570400 -0.27256200 -0.03658500
v -0.17794900 -0.30304900 -1.06704900
v -0.17794900 -0.30304900 -0.03658500
v 0.38301400 -0.30304900 -1.06704900
v -0.16570400 -0.27256200 -1.06704900
v -0.17794900 -0.27866400 -0.03658500
v 0.38301400 -0.27256200 -1.04253800
v -0.15351400 -0.27256200 -0.03658500
v 0.38301400 -0.27256200 1.06704900
v 0.38301400 -0.30304900 1.06704900
v -0.17794900 -0.30304900 1.06704900
v -0.16570400 -0.27256200 1.06704900
v 0.38301400 -0.27866400 -0.03658500
v -0.17794900 -0.27866400 1.06704900
v 0.38301400 -0.27256200 1.04263400
v -0.14746200 0.28229700 -0.00609700
v -0.16575500 -0.06524900 -1.06704900
v -0.17794900 0.28229700 -1.06704900
v -0.14746200 0.30059600 -1.06704900
v -0.17794900 0.30059600 -0.00609700
v -0.15356200 -0.06524900 -0.00609700
v -0.14746200 -0.06524900 -1.06704900
v -0.16575500 -0.06524900 -0.00609700
v -0.14746200 0.30059600 -0.00609700
v -0.17794900 0.30059600 -1.06704900
v -0.17794900 0.28229700 -0.00609700
v -0.14746200 0.30059600 1.06694400
v -0.16575500 -0.06524900 -0.00599200
v -0.17794900 0.28229700 -0.00599200
v -0.16575500 -0.06524900 1.06694400
v -0.17794900 0.30059600 1.06694400
v -0.14746200 0.30059600 -0.00599200
v -0.14746200 -0.06524900 1.06694400
v -0.15356200 -0.06524900 -0.00599200
v -0.17794900 0.30059600 -0.00599200
v -0.17794900 0.28229700 1.06694400
v -0.14746200 0.28229700 -0.00599200
v -0.16570000 -0.27256200 -1.03656200
v 0.38296000 -0.06527000 -1.04266200
v 0.38296000 -0.06527000 -1.06704900
v -0.16570000 -0.06527000 -1.03656200
v -0.16570000 -0.06527000 -1.06704900
v 0.38296000 -0.27256200 -1.06704900
v -0.16570000 -0.27256200 -1.06704900
v 0.38296000 -0.27256200 -1.04266200
v -0.15355900 -0.18106100 -0.03658500
v -0.16575400 -0.27256200 -1.03656200
v -0.16575400 -0.06527000 -1.03656200
v -0.15355900 -0.27256200 -1.03656200
v -0.16575400 -0.27256200 -0.03658500
v -0.15356000 -0.06527000 -0.03658500
v -0.15356000 -0.06527000 -1.03656200
v -0.16575400 -0.06527000 -0.03658500
v -0.15355900 -0.27256200 -0.03658500
v -0.14746200 -0.06527000 1.06704900
v -0.16575200 -0.27256200 -0.03658500
v -0.16575200 -0.06527000 -0.03658500
v -0.16575200 -0.27256200 1.06704900
v -0.15356000 -0.27256200 -0.03658500
v -0.16575200 -0.06527000 1.06704900
v -0.14746200 -0.27256200 1.06704900
v 0.38301400 0.30059600 1.03656200
v -0.14746200 -0.27256200 1.04266100
v 0.38301400 -0.27256200 1.04266100
v -0.14746200 0.30059600 1.06704900
v 0.38301400 0.30059600 1.06704900
v -0.14746200 0.30059600 1.03656200
v -0.14746200 0.28225000 1.03656200
v 0.38301400 0.30059600 -1.03656200
v 0.38301400 0.28229700 -1.03656200
v 0.38301400 -0.06524900 -1.06704900
v 0.38301400 0.30059600 -1.06704900
v -0.14746200 0.30059600 -1.03656200
v -0.14746200 -0.06524900 -1.04266200
v 0.38301400 -0.06524900 -1.04266200
v -0.14746200 0.28230600 -1.03656200
v 0.38301400 0.30059400 1.03656200
v -0.14746200 0.30059400 1.03656200
v 0.38301400 0.28230600 1.03656200
v 0.38301400 0.30059400 -1.03656200
v -0.14746200 0.28230600 1.03656200
v -0.14746200 0.30059400 -1.03656200
v 0.38301400 0.28230600 -1.03656200
f 2 11 12
f 2 3 4
f 3 2 5
f 1 4 6
f 3 5 7
f 6 3 7
f 1 6 7
f 4 3 8
f 3 6 8
f 6 4 8
f 4 1 9
f 1 5 9
f 5 4 9
f 5 1 10
f 1 7 10
f 7 5 10
f 2 4 11
f 4 5 11
f 11 5 12
f 5 2 12
f 17 12 19
f 14 13 15
f 13 14 3
f 14 15 3
f 15 13 16
f 3 10 17
f 13 3 17
f 15 10 7
f 10 3 7
f 3 15 7
f 16 13 12
f 17 10 12
f 10 15 18
f 16 10 18
f 15 16 18
f 10 16 5
f 16 12 5
f 12 10 5
f 13 17 19
f 12 13 19
f 27 24 30
f 21 22 23
f 20 24 25
f 21 23 26
f 23 20 26
f 25 21 26
f 20 25 26
f 22 21 27
f 21 25 27
f 25 24 27
f 20 23 28
f 24 20 28
f 23 24 28
f 23 22 29
f 24 23 29
f 22 24 29
f 24 22 30
f 22 27 30
f 37 38 41
f 33 32 34
f 34 31 35
f 32 33 36
f 35 31 36
f 36 31 37
f 34 32 37
f 31 34 37
f 32 36 38
f 37 32 38
f 33 35 39
f 36 33 39
f 35 36 39
f 33 34 40
f 34 35 40
f 35 33 40
f 36 37 41
f 38 36 41
f 42 47 49
f 43 44 45
f 42 43 45
f 42 45 46
f 45 44 46
f 46 44 47
f 44 43 47
f 47 42 48
f 42 46 48
f 46 47 48
f 43 42 49
f 47 43 49
f 54 53 58
f 51 52 53
f 52 51 54
f 51 53 54
f 54 50 55
f 53 52 56
f 50 53 56
f 52 55 56
f 55 50 56
f 52 54 57
f 55 52 57
f 54 55 57
f 53 50 58
f 50 54 58
f 63 61 55
f 61 60 62
f 60 61 63
f 62 60 63
f 59 61 64
f 61 62 64
f 62 59 64
f 59 62 65
f 63 59 65
f 62 63 65
f 61 59 55
f 59 63 55
f 71 66 72
f 68 66 13
f 67 68 13
f 66 69 70
f 13 66 70
f 69 13 70
f 67 69 71
f 69 66 71
f 69 67 65
f 13 69 65
f 67 13 65
f 66 68 72
f 68 67 72
f 67 71 72
f 78 75 79
f 73 74 75
f 75 26 76
f 73 75 76
f 73 76 77
f 74 73 77
f 74 77 78
f 26 75 78
f 77 26 78
f 76 26 23
f 77 76 23
f 26 77 23
f 75 74 79
f 74 78 79
f 84 83 87
f 81 82 83
f 82 81 84
f 81 83 84
f 82 80 85
f 83 82 85
f 80 83 85
f 80 82 86
f 84 80 86
f 82 84 86
f 83 80 87
f 80 84 87

