# https://github.com/mikedh/trimesh

o convex_0
v -0.15685800 -0.15514000 0.45914200
v 0.15724600 -0.14999400 0.45914200
v 0.15724600 -0.14999400 0.45742600
v 0.15377200 -0.15685800 0.45914200
v -0.15510600 -0.14999400 0.46085800
v -0.15685800 -0.14999400 0.45742600
v -0.15510600 -0.15685800 0.45742600
v 0.15377200 -0.15514000 0.46085800
v 0.00620100 0.03366400 0.46085800
v -0.14999300 -0.14999300 0.45914200
v 0.00620100 -0.14999300 0.45914200
v -0.14999300 -0.14999300 0.46085800
v -0.14999300 0.03366400 0.45914200
v -0.14999300 0.03366400 0.46085800
v 0.00620100 0.03366400 0.45914200
v 0.00620100 -0.14999300 0.46085800
v -0.14999400 0.15550200 0.46085800
v -0.15685800 -0.14999300 0.45570900
v -0.15685800 -0.14999300 0.45914100
v -0.14999400 -0.14999300 0.45914100
v -0.15342600 0.15724600 0.45742600
v -0.15685800 0.15378800 0.45914100
v -0.14999400 0.15724600 0.45742600
v -0.15514000 -0.14999300 0.46085800
v -0.14998700 0.15209700 -0.00085800
v 0.15038100 0.15724600 0.45742500
v 0.15038100 0.15552900 0.45742500
v 0.15038100 0.15209700 -0.00085800
v -0.14998700 0.15724600 0.00089100
v -0.14998700 0.15552900 0.45742500
v 0.15038100 0.15724600 0.00089100
v -0.14998700 0.15724600 0.45742500
v 0.15378800 0.03366400 0.45742600
v 0.15378800 0.15724600 0.45914200
v 0.15378800 0.15552800 0.46085800
v -0.14999300 0.15724600 0.45742600
v 0.15550200 0.03366400 0.46085800
v -0.14999300 0.15552800 0.46085800
v 0.15724600 0.15381100 0.45742600
v -0.14999400 0.15724600 0.45742500
v -0.15514100 0.15038100 -0.00085800
v -0.15171000 0.15038100 -0.00085800
v -0.15685800 0.15038100 0.45742500
v -0.15514100 0.15724600 0.00259600
v -0.14999400 0.15724600 0.00089100
v -0.15685800 0.15553000 0.45742500
v -0.15685800 0.15381300 0.00089100
v -0.14999400 0.15553000 0.45742500
v 0.15724600 0.15038100 0.45742500
v 0.15209700 -0.14999300 -0.00085800
v 0.15552900 -0.14999300 -0.00085800
v 0.15724600 -0.14999300 0.45742500
v 0.15724600 0.15038100 0.00093600
v 0.15209700 0.15038100 0.00089100
v 0.15552900 -0.14999300 0.45742500
v 0.15724600 -0.14999300 0.00089100
v 0.15552900 0.15038100 0.45742500
v 0.15552900 0.15038100 -0.00085800
v 0.15551600 0.03366400 0.46085800
v 0.15380100 -0.14999300 0.45742600
v 0.15724600 0.03366400 0.45742600
v 0.15551600 -0.14999300 0.46085800
v 0.15038100 -0.15514100 -0.00085800
v 0.15724600 -0.14999400 0.45742500
v 0.15724600 -0.15514100 0.45742500
v 0.15038100 -0.15514100 0.45742500
v 0.15553000 -0.15685800 0.00259600
v 0.15209800 -0.14999400 -0.00085800
v 0.15724600 -0.14999400 0.00089100
v 0.15038100 -0.15685800 0.45742500
v 0.15038100 0.15209800 -0.00085800
v 0.15724600 0.15381300 0.45742500
v 0.15381300 0.15724600 0.00089100
v 0.15724600 0.15038100 0.00089100
v 0.15553000 0.15038100 0.45742500
v 0.15724600 0.15381300 0.00089100
v 0.15381300 0.15724600 0.45742500
v -0.15514100 0.15038100 0.45742500
v -0.15514100 -0.14999300 -0.00085800
v -0.15685800 0.00960300 0.00089100
v -0.15170900 0.15038100 -0.00085800
v -0.15514100 -0.14996300 0.45563100
v -0.15170900 -0.14999300 0.00089100
v -0.15685800 -0.14996300 0.45563100
v -0.15685800 0.15038100 0.00089100
v -0.15685800 -0.14996300 0.00093600
v -0.15514100 -0.14999400 -0.00085800
v -0.14999400 -0.15514100 0.45742500
v -0.14999400 -0.15685800 0.45742500
v -0.15685800 -0.15514100 0.45742500
v -0.15514100 -0.15685800 0.00089100
v -0.14999400 -0.15514100 -0.00085800
v -0.15685800 -0.14999400 0.45742500
v -0.15171000 -0.14999400 0.00089100
v -0.15685800 -0.15514100 0.00089100
v -0.14998700 -0.15514100 -0.00085800
v -0.14998700 -0.15685800 0.45742500
v -0.14998700 -0.15170900 0.00089100
v 0.15038100 -0.15685800 0.00089100
v 0.15038100 -0.15170900 -0.00085800
v -0.14998700 -0.15514100 0.45742500
v -0.14998700 -0.15685800 0.00089100
f 2 5 8
f 3 2 4
f 2 3 5
f 1 5 6
f 5 3 6
f 3 4 7
f 4 1 7
f 6 3 7
f 1 6 7
f 4 2 8
f 1 4 8
f 5 1 8
f 9 12 16
f 10 11 12
f 11 10 13
f 10 12 13
f 12 9 14
f 9 13 14
f 13 12 14
f 9 11 15
f 13 9 15
f 11 13 15
f 11 9 16
f 12 11 16
f 22 19 24
f 19 18 20
f 21 18 22
f 18 19 22
f 17 21 22
f 20 18 23
f 17 20 23
f 21 17 23
f 18 21 23
f 19 20 24
f 20 17 24
f 17 22 24
f 29 30 32
f 26 27 28
f 27 25 28
f 28 25 29
f 25 27 30
f 27 26 30
f 29 25 30
f 26 28 31
f 28 29 31
f 29 26 31
f 26 29 32
f 30 26 32
f 14 36 13
f 35 14 37
f 14 33 37
f 35 34 38
f 14 35 38
f 36 14 38
f 34 36 38
f 34 35 39
f 33 36 39
f 36 34 39
f 37 33 39
f 35 37 39
f 33 14 13
f 36 33 13
f 42 45 48
f 41 42 43
f 42 41 45
f 44 40 45
f 43 40 46
f 40 44 46
f 46 44 47
f 41 43 47
f 45 41 47
f 44 45 47
f 43 46 47
f 43 42 48
f 40 43 48
f 45 40 48
f 53 56 58
f 50 51 52
f 49 52 53
f 49 53 54
f 50 52 55
f 52 49 55
f 54 50 55
f 52 51 56
f 53 52 56
f 49 54 57
f 55 49 57
f 54 55 57
f 51 50 58
f 54 53 58
f 50 54 58
f 56 51 58
f 9 11 16
f 60 11 15
f 15 59 61
f 60 15 61
f 60 61 62
f 11 60 62
f 61 59 62
f 62 59 9
f 15 11 9
f 59 15 9
f 11 62 16
f 62 9 16
f 67 65 70
f 65 64 66
f 66 64 68
f 63 66 68
f 64 65 69
f 67 63 69
f 65 67 69
f 68 64 69
f 63 68 69
f 65 66 70
f 66 63 70
f 63 67 70
f 72 73 77
f 49 72 26
f 72 49 74
f 71 26 31
f 73 71 31
f 26 73 31
f 49 26 75
f 26 71 75
f 71 74 75
f 74 49 75
f 71 73 76
f 73 72 76
f 72 74 76
f 74 71 76
f 26 72 77
f 73 26 77
f 79 84 86
f 79 81 83
f 81 78 83
f 78 82 83
f 82 78 84
f 79 83 84
f 83 82 84
f 79 80 85
f 81 79 85
f 78 81 85
f 80 84 85
f 85 84 43
f 84 78 43
f 78 85 43
f 80 79 86
f 84 80 86
f 90 93 95
f 89 88 90
f 89 90 91
f 89 91 92
f 88 89 92
f 91 87 92
f 90 88 93
f 88 92 94
f 92 87 94
f 93 88 94
f 87 93 94
f 87 91 95
f 91 90 95
f 93 87 95
f 96 99 102
f 70 66 97
f 96 97 98
f 66 70 99
f 70 97 99
f 99 96 100
f 96 98 100
f 98 66 100
f 66 99 100
f 97 66 101
f 98 97 101
f 66 98 101
f 97 96 102
f 99 97 102

