# https://github.com/mikedh/trimesh

o convex_0
v 0.28440300 -0.53716200 0.05878400
v -0.29111000 -0.54121600 -0.00202700
v -0.29111000 -0.54121600 0.05878400
v -0.29111000 -0.53310800 -0.00202700
v 0.28440300 -0.54121600 -0.00202700
v -0.29111000 -0.53310800 0.05878400
v 0.28440300 -0.54121600 0.05878400
v 0.28440300 -0.53716200 -0.00202700
v -0.29121600 -0.53310800 -0.00202700
v -0.28716200 0.53310800 0.05878400
v -0.28716200 0.53310800 -0.00202700
v -0.29121600 0.53310800 0.05878400
v -0.28716200 -0.53310800 0.05878400
v -0.29121600 0.53310800 -0.00202700
v -0.28716200 -0.53310800 -0.00202700
v -0.29121600 -0.53310800 0.05878400
v 0.02495200 0.20067600 0.38310800
v -0.28308600 0.19662200 0.05880400
v -0.34391900 0.19662200 0.07912000
v 0.28445900 0.19256800 0.37498100
v 0.28445900 0.20067600 0.05883500
v 0.28445900 0.19256800 0.05883500
v -0.28308600 0.19256800 0.38310800
v -0.34391900 0.20067600 0.36682300
v -0.34391900 0.20067600 0.07912000
v -0.28308600 0.19256800 0.07102500
v 0.28445900 0.20067600 0.37498100
v -0.34391900 0.19662200 0.36682300
v -0.28308600 0.20067600 0.05880400
v -0.28308600 0.20067600 0.38310800
v 0.28440300 0.53716200 0.05878400
v -0.29111000 0.53310800 -0.00202700
v -0.29111000 0.54121600 -0.00202700
v -0.29111000 0.53310800 0.05878400
v -0.29111000 0.54121600 0.05878400
v 0.28440300 0.54121600 -0.00202700
v 0.28440300 0.53716200 -0.00202700
v 0.28440300 0.54121600 0.05878400
v 0.28445900 0.00607000 0.38310800
v 0.02500000 0.00607000 0.37905400
v 0.02505100 -0.20067600 0.37500100
v 0.28445900 0.20063800 0.37500100
v 0.27630700 -0.20067600 0.37500100
v 0.02505100 -0.20067600 0.38310800
v 0.02500000 0.20063800 0.38310800
v 0.02500000 0.20063800 0.37500100
v 0.27630700 -0.20067600 0.38310800
v 0.28445900 0.20063800 0.38310800
v 0.28445900 -0.54116700 -0.00202700
v 0.29256800 0.54116000 0.05878400
v 0.29256800 0.54116000 -0.00202700
v 0.28445900 0.54116000 0.05878400
v 0.29256800 -0.54116700 0.05878400
v 0.28445900 -0.54116700 0.05878400
v 0.29256800 -0.54116700 -0.00202700
v 0.28445900 0.54116000 -0.00202700
v 0.02503000 -0.19662200 0.22500000
v 0.02503000 -0.20067600 0.05878400
v 0.02503000 -0.19662200 0.05878400
v -0.28310800 -0.19256800 0.07097000
v -0.28310800 -0.20067600 0.20471100
v 0.27632700 -0.19256800 0.07095400
v 0.27632700 -0.20067600 0.22500000
v -0.28310800 -0.20067600 0.05880000
v 0.27632700 -0.20067600 0.05878400
v -0.28310800 -0.19662200 0.20471100
v 0.27632700 -0.19662200 0.22500000
v -0.34391900 -0.20067600 0.07905400
v -0.28310800 -0.19662200 0.34256800
v -0.28310800 -0.20067600 0.34256800
v -0.28310800 -0.19662200 0.07905400
v -0.34391900 -0.19662200 0.34256800
v -0.34391900 -0.19662200 0.07905400
v -0.28310800 -0.20067600 0.07905400
v -0.34391900 -0.20067600 0.34256800
v -0.35202700 -0.60200800 0.39527000
v 0.02500000 -0.41150500 0.40337800
v 0.02500000 -0.41150500 0.39932400
v -0.35202700 -0.41150500 0.40337800
v 0.02500000 -0.60200800 0.40337800
v -0.35202700 -0.41150500 0.39527000
v 0.02500000 -0.60200800 0.39527000
v -0.35202700 -0.60200800 0.40337800
v 0.02500000 0.60202700 0.40337800
v -0.35202700 -0.41148600 0.39527000
v -0.34793100 -0.41148600 0.39527000
v -0.35202700 -0.41148600 0.40337800
v -0.35202700 0.60202700 0.39527000
v 0.02500000 -0.41148600 0.39932400
v 0.02500000 0.60202700 0.39527000
v -0.35202700 0.60202700 0.40337800
v 0.02500000 -0.41148600 0.40337800
v 0.35337800 0.48445900 0.40337800
v 0.02500000 -0.60202700 0.39527000
v 0.02500000 -0.60202700 0.40337800
v 0.35337800 -0.60202700 0.39527000
v 0.02500000 0.48445900 0.39932400
v 0.35337800 0.48445900 0.39527000
v 0.35337800 -0.60202700 0.40337800
v 0.02500000 0.48445900 0.40337800
v 0.02500000 0.59796500 0.39527000
v 0.35337800 0.60202700 0.40337800
v 0.35337800 0.60202700 0.39527000
v -0.28311500 0.20055100 0.06689100
v -0.35202000 0.24921800 0.05878500
v -0.35201400 -0.60200800 0.05878600
v -0.35202000 0.24921800 0.06689100
v -0.28716300 0.53310800 0.05878500
v -0.28311500 -0.60200800 0.06689100
v -0.28311500 -0.60200800 0.05878600
v -0.35201400 -0.60200800 0.06689100
v -0.35202000 0.53310800 0.06689100
v -0.35202000 0.53310800 0.05878500
v -0.28716300 0.53310800 0.06283800
v -0.28310800 -0.60202700 0.05878500
v 0.28851300 -0.53716800 0.06283800
v 0.28851300 -0.59795700 0.06689100
v -0.28310800 -0.53716800 0.06283800
v -0.28310800 -0.60202700 0.06689100
v 0.28851300 -0.60202700 0.05878500
v 0.28851300 -0.53716800 0.05878500
v -0.28310800 -0.53716800 0.05878500
v 0.28851300 -0.59797300 0.39527000
v -0.28310800 -0.60202700 0.06695600
v -0.28310800 -0.60202700 0.39527000
v 0.28851300 -0.60202700 0.06695600
v -0.28310800 -0.59797300 0.06695600
v -0.28310800 -0.59797300 0.39527000
v 0.28851300 -0.60202700 0.39527000
v 0.28851300 -0.59797300 0.06695600
v 0.28851300 -0.60202700 0.05885000
v 0.35337800 -0.59391900 0.39527000
v 0.35337800 -0.59391900 0.05885000
v 0.28851300 -0.59391900 0.05885000
v 0.35337800 -0.60202700 0.05885000
v -0.34391900 0.53312200 0.05878500
v 0.28445900 0.60202700 0.06689100
v 0.28445900 0.60202700 0.05878500
v -0.34391900 0.60201400 0.06689100
v 0.28445900 0.53716200 0.06283800
v -0.34391900 0.60201400 0.05878500
v -0.34391900 0.53312200 0.06283800
v 0.28445900 0.53716200 0.05878500
v 0.28445900 0.60202700 0.39527000
v -0.34391900 0.59797300 0.06695600
v -0.34391900 0.59797300 0.39527000
v 0.28445900 0.59797300 0.06695600
v -0.34391900 0.60202700 0.06695600
v 0.28445900 0.60202700 0.06695600
v 0.28445900 0.59797300 0.39527000
v -0.34391900 0.60202700 0.39527000
v 0.35337800 0.48437600 0.06689100
v 0.28446600 0.53717200 0.05878500
v 0.28446600 0.53717200 0.06283800
v 0.28851300 -0.59391900 0.05878500
v 0.35336500 0.60202700 0.05878500
v 0.35337800 -0.59391900 0.06689100
v 0.28446600 0.60202700 0.06689100
v 0.35337800 -0.59391900 0.05878500
v 0.28851300 -0.59391900 0.06283800
v 0.35336500 0.60202700 0.06689100
v 0.28446600 0.60202700 0.05878500
v -0.35202000 -0.59391900 0.06695600
v -0.35202000 -0.60202700 0.39527000
v -0.35202000 -0.60202700 0.06695600
v -0.35202000 -0.59391900 0.39527000
v -0.35202700 -0.41143900 0.06689200
v -0.34797300 -0.41147800 0.39527000
v -0.35202700 -0.41147800 0.39527000
v -0.34392000 -0.19664300 0.37498800
v -0.34797300 -0.59388300 0.06695600
v -0.35202700 -0.19664300 0.06689200
v -0.34392000 -0.19664300 0.06689200
v -0.35202700 -0.19664300 0.37498800
v -0.35202700 -0.59388300 0.39527000
v -0.34797300 -0.59388300 0.39527000
v -0.35202700 -0.59388300 0.06695600
v -0.28310800 0.09527000 0.37904900
v -0.34391900 -0.20067600 0.34257100
v -0.34391900 -0.20067600 0.38310400
v -0.28310800 -0.20067600 0.34257100
v -0.28310800 -0.20067600 0.38310400
v -0.34391900 0.09527000 0.38310400
v -0.34391900 0.09527000 0.37904900
v -0.28310800 0.09527000 0.38310400
v -0.35202700 -0.41148600 0.37500000
v -0.34797300 0.11148600 0.39526600
v -0.34392000 0.11148600 0.38311000
v -0.34797300 -0.41148600 0.39526600
v -0.35202700 0.11148600 0.37905700
v -0.34392000 -0.20062800 0.37500000
v -0.35202700 -0.41148600 0.39526600
v -0.35202700 0.11148600 0.39526600
v -0.34797300 0.53310800 0.39527000
v -0.35202700 0.24932400 0.06695600
v -0.34797300 0.24932400 0.06695600
v -0.35202700 0.53310800 0.06695600
v -0.35202700 0.24932400 0.39527000
v -0.34797300 0.53310800 0.06695600
v -0.34797300 0.24932400 0.39527000
v -0.35202700 0.53310800 0.39527000
v -0.34392000 0.59796700 0.39527000
v -0.35202700 0.53311500 0.05885000
v -0.35202700 0.60202000 0.05885000
v -0.35202700 0.53311500 0.39527000
v -0.34392000 0.53311500 0.05885000
v -0.34392000 0.60202000 0.05885000
v -0.35202700 0.60202000 0.39527000
v -0.34797300 0.53311500 0.39527000
v 0.27635100 -0.19659500 0.05884500
v 0.28445900 0.00607000 0.38306100
v 0.28445900 0.19256800 0.37499800
v 0.28445900 -0.20067600 0.05884500
v 0.27635100 -0.20067600 0.38306100
v 0.27635100 0.19256800 0.07100200
v 0.28445900 0.19256800 0.05884500
v 0.28445900 -0.20067600 0.38306100
v 0.27635100 0.00607000 0.38306100
v 0.28040500 0.19256800 0.37499800
v -0.28310800 0.20066500 0.07905300
v -0.34391900 -0.20067600 0.06689300
v -0.28310800 -0.20067600 0.06689300
v -0.34391900 -0.20067600 0.07905300
v -0.34391900 0.20066500 0.06689300
v -0.28310800 -0.20067600 0.07905300
v -0.28310800 0.20066500 0.06689300
v -0.34391900 0.20066500 0.07905300
v -0.28310800 0.20066500 0.36689200
v -0.34391900 0.09528100 0.37905100
v -0.34391900 0.09528100 0.38310600
v -0.28310800 0.09528100 0.37905100
v -0.34391900 0.20066500 0.38310600
v -0.28310800 0.20066500 0.38310600
v -0.34391900 0.19661100 0.36689200
v 0.34932400 -0.59391900 0.06695600
v 0.35337800 0.59391900 0.39527000
v 0.35337800 0.59391900 0.06695600
v 0.34932400 0.59391900 0.39527000
v 0.34932400 0.59391900 0.06695600
v 0.35337800 -0.59391900 0.06695600
v 0.34932400 -0.59391900 0.39527000
v 0.02500000 0.19256800 0.38310700
v -0.28310800 -0.19256800 0.37905400
v 0.02500000 -0.19256800 0.37905400
v -0.28310800 -0.19256800 0.38310700
v -0.28310800 0.19256800 0.37905400
v 0.02500000 -0.19256800 0.38310700
v 0.02500000 0.19256800 0.37905400
v -0.28310800 0.19256800 0.38310700
v 0.28446600 0.59797300 0.06695600
v 0.35337200 0.60202700 0.39527000
v 0.35337200 0.59391900 0.39527000
v 0.35337200 0.60202700 0.06695600
v 0.28446600 0.60202700 0.39527000
v 0.35337200 0.59391900 0.06695600
v 0.28446600 0.60202700 0.06695600
v 0.28446600 0.59797300 0.39527000
v 0.27632700 -0.19662200 0.37497300
v -0.28310800 -0.20067600 0.20474700
v -0.28310800 -0.19662200 0.20474700
v -0.28310800 -0.20067600 0.38309100
v -0.28310800 -0.19256800 0.38309100
v 0.27632700 -0.20067600 0.22503300
v 0.27632700 -0.19662200 0.22503300
v 0.27632700 -0.20067600 0.37497300
v 0.02497500 -0.19256800 0.38309100
v 0.02497500 -0.19662200 0.20474700
v -0.28310800 -0.19256800 0.07094600
v 0.27632700 0.19256800 0.07500000
v 0.27632700 -0.19256800 0.07500000
v 0.27632700 0.19256800 0.07094600
v -0.28310800 0.19256800 0.07500000
v 0.27632700 -0.19256800 0.07094600
v -0.28310800 -0.19256800 0.07500000
v -0.28310800 0.19256800 0.07094600
v -0.35202700 0.11148600 0.37900700
v -0.35202700 0.19659600 0.06695600
v -0.34392000 0.11148600 0.37900700
v -0.34392000 0.20067100 0.06695600
v -0.34392000 0.20067100 0.38305700
f 5 4 8
f 2 3 4
f 3 2 5
f 2 4 5
f 3 1 6
f 4 3 6
f 1 4 6
f 1 3 7
f 5 1 7
f 3 5 7
f 4 1 8
f 1 5 8
f 13 12 16
f 10 11 12
f 11 10 13
f 10 12 13
f 11 9 14
f 12 11 14
f 9 12 14
f 9 11 15
f 13 9 15
f 11 13 15
f 12 9 16
f 9 13 16
f 17 24 30
f 18 21 22
f 21 20 22
f 22 20 23
f 20 17 23
f 17 21 24
f 24 21 25
f 18 19 25
f 19 24 25
f 19 18 26
f 18 22 26
f 22 23 26
f 23 19 26
f 17 20 27
f 21 17 27
f 20 21 27
f 19 23 28
f 24 19 28
f 23 24 28
f 21 18 29
f 25 21 29
f 18 25 29
f 23 17 30
f 24 23 30
f 31 36 38
f 33 32 34
f 32 31 34
f 34 31 35
f 33 34 35
f 33 35 36
f 32 33 36
f 36 31 37
f 31 32 37
f 32 36 37
f 35 31 38
f 36 35 38
f 42 45 48
f 42 39 43
f 41 42 43
f 41 43 44
f 40 41 44
f 44 39 45
f 40 44 45
f 45 42 46
f 41 40 46
f 42 41 46
f 40 45 46
f 43 39 47
f 44 43 47
f 39 44 47
f 39 42 48
f 45 39 48
f 49 52 56
f 50 51 52
f 51 50 53
f 50 52 53
f 52 49 54
f 49 53 54
f 53 52 54
f 49 51 55
f 53 49 55
f 51 53 55
f 51 49 56
f 52 51 56
f 63 62 67
f 59 60 62
f 57 61 63
f 61 58 63
f 59 58 64
f 60 59 64
f 61 60 64
f 58 61 64
f 58 59 65
f 59 62 65
f 63 58 65
f 62 63 65
f 57 60 66
f 61 57 66
f 60 61 66
f 60 57 67
f 62 60 67
f 57 63 67
f 70 72 75
f 69 70 71
f 70 69 72
f 69 71 72
f 71 68 73
f 68 72 73
f 72 71 73
f 70 68 74
f 71 70 74
f 68 71 74
f 68 70 75
f 72 68 75
f 80 79 83
f 77 78 79
f 78 77 80
f 77 79 80
f 79 78 81
f 76 79 81
f 80 76 82
f 78 80 82
f 76 81 82
f 81 78 82
f 79 76 83
f 76 80 83
f 89 84 92
f 85 86 87
f 86 85 88
f 85 87 88
f 87 86 89
f 88 84 90
f 86 88 90
f 89 86 90
f 84 89 90
f 87 84 91
f 84 88 91
f 88 87 91
f 84 87 92
f 87 89 92
f 97 95 100
f 95 94 96
f 94 95 97
f 94 97 98
f 96 94 98
f 93 96 98
f 97 93 98
f 93 95 99
f 95 96 99
f 96 93 99
f 95 93 100
f 93 97 100
f 84 97 100
f 102 93 103
f 103 101 84
f 93 102 84
f 102 103 84
f 84 101 97
f 103 93 98
f 101 103 98
f 93 97 98
f 97 101 98
f 93 84 100
f 97 93 100
f 108 112 114
f 105 106 107
f 104 107 109
f 106 105 110
f 108 104 110
f 105 108 110
f 109 106 110
f 104 109 110
f 107 106 111
f 106 109 111
f 109 107 111
f 105 107 112
f 107 104 112
f 112 108 113
f 108 105 113
f 105 112 113
f 104 108 114
f 112 104 114
f 121 115 122
f 117 116 118
f 118 115 119
f 117 118 119
f 117 119 120
f 116 117 120
f 119 115 120
f 120 115 121
f 118 116 121
f 116 120 121
f 118 121 122
f 115 118 122
f 126 127 130
f 125 124 126
f 124 125 127
f 126 124 127
f 125 123 128
f 123 127 128
f 127 125 128
f 123 125 129
f 125 126 129
f 126 123 129
f 123 126 130
f 127 123 130
f 96 123 129
f 132 96 133
f 96 132 123
f 123 132 134
f 132 133 134
f 133 131 134
f 131 123 134
f 96 131 135
f 133 96 135
f 131 133 135
f 131 96 129
f 123 131 129
f 138 140 143
f 137 138 139
f 138 137 140
f 138 136 141
f 139 138 141
f 136 139 141
f 137 139 142
f 139 136 142
f 136 140 142
f 140 137 142
f 136 138 143
f 140 136 143
f 148 146 151
f 146 145 147
f 145 146 148
f 147 145 148
f 144 147 149
f 148 144 149
f 147 148 149
f 144 146 150
f 146 147 150
f 147 144 150
f 146 144 151
f 144 148 151
f 158 156 162
f 154 153 155
f 155 153 156
f 153 154 158
f 157 152 158
f 156 152 159
f 155 156 159
f 152 157 159
f 157 155 159
f 154 155 160
f 155 157 160
f 158 154 160
f 157 158 160
f 152 156 161
f 158 152 161
f 156 158 161
f 156 153 162
f 153 158 162
f 165 127 124
f 128 125 127
f 163 128 127
f 125 128 164
f 125 164 165
f 163 127 165
f 164 163 165
f 128 163 166
f 163 164 166
f 164 128 166
f 127 125 124
f 125 165 124
f 171 175 177
f 169 168 170
f 167 169 172
f 171 167 173
f 170 171 173
f 167 172 173
f 172 170 173
f 169 170 174
f 172 169 174
f 170 172 174
f 169 167 175
f 168 169 175
f 175 171 176
f 170 168 176
f 171 170 176
f 168 175 176
f 167 171 177
f 175 167 177
f 178 183 185
f 180 179 181
f 179 178 181
f 181 178 182
f 180 181 182
f 180 182 183
f 179 180 183
f 183 178 184
f 178 179 184
f 179 183 184
f 182 178 185
f 183 182 185
f 192 187 193
f 188 187 189
f 187 188 190
f 188 189 191
f 189 186 191
f 186 190 191
f 190 188 191
f 189 187 192
f 186 189 192
f 190 186 192
f 190 192 193
f 187 190 193
f 197 198 201
f 196 195 197
f 195 196 198
f 197 195 198
f 194 196 199
f 196 197 199
f 197 194 199
f 196 194 200
f 194 198 200
f 198 196 200
f 194 197 201
f 198 194 201
f 205 206 209
f 204 203 205
f 203 204 206
f 205 203 206
f 202 206 207
f 206 204 207
f 204 205 208
f 205 202 208
f 202 207 208
f 207 204 208
f 202 205 209
f 206 202 209
f 218 212 219
f 212 211 213
f 210 213 214
f 210 214 215
f 212 213 216
f 213 210 216
f 215 212 216
f 210 215 216
f 213 211 217
f 214 213 217
f 211 214 217
f 211 212 218
f 214 211 218
f 215 214 218
f 215 218 219
f 212 215 219
f 224 223 227
f 221 222 223
f 222 221 224
f 221 223 224
f 222 220 225
f 223 222 225
f 220 223 225
f 220 222 226
f 224 220 226
f 222 224 226
f 223 220 227
f 220 224 227
f 229 232 234
f 230 229 231
f 229 230 232
f 232 230 233
f 230 231 233
f 231 228 233
f 228 232 233
f 231 229 234
f 228 231 234
f 232 228 234
f 132 238 241
f 236 237 238
f 237 236 132
f 236 238 132
f 237 235 239
f 238 237 239
f 235 238 239
f 235 237 240
f 132 235 240
f 237 132 240
f 238 235 241
f 235 132 241
f 246 245 249
f 243 244 245
f 244 243 246
f 243 245 246
f 244 242 247
f 245 244 247
f 242 245 247
f 242 244 248
f 246 242 248
f 244 246 248
f 245 242 249
f 242 246 249
f 252 254 257
f 251 252 253
f 252 251 254
f 251 253 254
f 252 250 255
f 253 252 255
f 250 253 255
f 253 250 256
f 250 254 256
f 254 253 256
f 250 252 257
f 254 250 257
f 266 264 267
f 260 259 261
f 260 261 262
f 261 259 263
f 258 263 264
f 263 258 265
f 261 263 265
f 262 261 266
f 260 262 266
f 258 264 266
f 265 258 266
f 261 265 266
f 259 260 267
f 263 259 267
f 264 263 267
f 260 266 267
f 272 271 275
f 269 270 271
f 270 269 272
f 269 271 272
f 270 268 273
f 271 270 273
f 268 271 273
f 268 270 274
f 272 268 274
f 270 272 274
f 271 268 275
f 268 272 275
f 195 200 196
f 276 277 278
f 200 276 278
f 278 277 279
f 279 277 195
f 277 276 195
f 200 195 198
f 276 200 198
f 195 276 198
f 200 278 280
f 279 200 280
f 278 279 280
f 200 279 196
f 279 195 196

