# https://github.com/mikedh/trimesh
mtllib material.mtl
usemtl material_0
v -0.24000000 0.10000000 -0.25000000
v -0.24000000 0.10000000 -0.25000000
v -0.24000000 0.10000000 -0.25000000
v -0.24000000 0.10000000 -0.24000000
v -0.24000000 0.10000000 -0.24000000
v -0.24000000 0.10000000 -0.24000000
v -0.24000000 -0.10000000 -0.24000000
v -0.24000000 -0.10000000 -0.24000000
v -0.24000000 -0.10000000 -0.24000000
v -0.24000000 -0.10000000 -0.25000000
v -0.24000000 -0.10000000 -0.25000000
v -0.24000000 -0.10000000 -0.25000000
v -0.23040000 -0.09000000 -0.24000000
v -0.23040000 -0.09000000 -0.24000000
v 0.24000000 0.10000000 -0.25000000
v 0.24000000 0.10000000 -0.25000000
v 0.24000000 0.10000000 -0.25000000
v 0.24000000 0.10000000 -0.24000000
v 0.24000000 0.10000000 -0.24000000
v 0.24000000 0.10000000 -0.24000000
v 0.24000000 -0.10000000 -0.25000000
v 0.24000000 -0.10000000 -0.25000000
v 0.24000000 -0.10000000 -0.25000000
v 0.24000000 -0.10000000 -0.24000000
v 0.24000000 -0.10000000 -0.24000000
v 0.24000000 -0.10000000 -0.24000000
v 0.23040000 -0.09000000 -0.24000000
v 0.23040000 -0.09000000 -0.24000000
v 0.23040000 0.10000000 -0.24000000
v 0.23040000 0.10000000 -0.24000000
v 0.23040000 0.10000000 -0.24000000
v -0.23040000 0.10000000 -0.24000000
v -0.23040000 0.10000000 -0.24000000
v -0.23040000 0.10000000 -0.24000000
v -0.25000000 0.10000000 0.25000000
v -0.25000000 0.10000000 0.25000000
v -0.25000000 0.10000000 0.25000000
v -0.24000000 0.10000000 0.25000000
v -0.24000000 0.10000000 0.25000000
v -0.24000000 0.10000000 0.25000000
v -0.24000000 -0.10000000 0.25000000
v -0.24000000 -0.10000000 0.25000000
v -0.24000000 -0.10000000 0.25000000
v -0.25000000 -0.10000000 0.25000000
v -0.25000000 -0.10000000 0.25000000
v -0.25000000 -0.10000000 0.25000000
v -0.24000000 -0.09000000 0.24000000
v -0.24000000 -0.09000000 0.24000000
v -0.25000000 0.10000000 -0.25000000
v -0.25000000 0.10000000 -0.25000000
v -0.25000000 0.10000000 -0.25000000
v -0.24000000 0.10000000 -0.25000000
v -0.24000000 0.10000000 -0.25000000
v -0.24000000 0.10000000 -0.25000000
v -0.25000000 -0.10000000 -0.25000000
v -0.25000000 -0.10000000 -0.25000000
v -0.25000000 -0.10000000 -0.25000000
v -0.24000000 -0.10000000 -0.25000000
v -0.24000000 -0.10000000 -0.25000000
v -0.24000000 -0.10000000 -0.25000000
v -0.24000000 -0.09000000 -0.24000000
v -0.24000000 -0.09000000 -0.24000000
v -0.24000000 0.10000000 -0.24000000
v -0.24000000 0.10000000 -0.24000000
v -0.24000000 0.10000000 -0.24000000
v -0.24000000 0.10000000 0.24000000
v -0.24000000 0.10000000 0.24000000
v -0.24000000 0.10000000 0.24000000
v 0.25000000 0.10000000 -0.25000000
v 0.25000000 0.10000000 -0.25000000
v 0.25000000 0.10000000 -0.25000000
v 0.24000000 0.10000000 -0.25000000
v 0.24000000 0.10000000 -0.25000000
v 0.24000000 0.10000000 -0.25000000
v 0.24000000 -0.10000000 -0.25000000
v 0.24000000 -0.10000000 -0.25000000
v 0.24000000 -0.10000000 -0.25000000
v 0.25000000 -0.10000000 -0.25000000
v 0.25000000 -0.10000000 -0.25000000
v 0.25000000 -0.10000000 -0.25000000
v 0.24000000 -0.09000000 -0.24000000
v 0.24000000 -0.09000000 -0.24000000
v 0.25000000 0.10000000 0.25000000
v 0.25000000 0.10000000 0.25000000
v 0.25000000 0.10000000 0.25000000
v 0.24000000 0.10000000 0.25000000
v 0.24000000 0.10000000 0.25000000
v 0.24000000 0.10000000 0.25000000
v 0.25000000 -0.10000000 0.25000000
v 0.25000000 -0.10000000 0.25000000
v 0.25000000 -0.10000000 0.25000000
v 0.24000000 -0.10000000 0.25000000
v 0.24000000 -0.10000000 0.25000000
v 0.24000000 -0.10000000 0.25000000
v 0.24000000 -0.09000000 0.24000000
v 0.24000000 -0.09000000 0.24000000
v 0.24000000 0.10000000 0.24000000
v 0.24000000 0.10000000 0.24000000
v 0.24000000 0.10000000 0.24000000
v 0.24000000 0.10000000 -0.24000000
v 0.24000000 0.10000000 -0.24000000
v 0.24000000 0.10000000 -0.24000000
v 0.24000000 0.10000000 0.25000000
v 0.24000000 0.10000000 0.25000000
v 0.24000000 0.10000000 0.25000000
v 0.24000000 0.10000000 0.24000000
v 0.24000000 0.10000000 0.24000000
v 0.24000000 0.10000000 0.24000000
v 0.24000000 -0.10000000 0.24000000
v 0.24000000 -0.10000000 0.24000000
v 0.24000000 -0.10000000 0.24000000
v 0.24000000 -0.10000000 0.25000000
v 0.24000000 -0.10000000 0.25000000
v 0.24000000 -0.10000000 0.25000000
v 0.23040000 -0.09000000 0.24000000
v 0.23040000 -0.09000000 0.24000000
v -0.24000000 0.10000000 0.25000000
v -0.24000000 0.10000000 0.25000000
v -0.24000000 0.10000000 0.25000000
v -0.24000000 0.10000000 0.24000000
v -0.24000000 0.10000000 0.24000000
v -0.24000000 0.10000000 0.24000000
v -0.24000000 -0.10000000 0.25000000
v -0.24000000 -0.10000000 0.25000000
v -0.24000000 -0.10000000 0.25000000
v -0.24000000 -0.10000000 0.24000000
v -0.24000000 -0.10000000 0.24000000
v -0.24000000 -0.10000000 0.24000000
v -0.23040000 -0.09000000 0.24000000
v -0.23040000 -0.09000000 0.24000000
v -0.23040000 0.10000000 0.24000000
v -0.23040000 0.10000000 0.24000000
v -0.23040000 0.10000000 0.24000000
v 0.23040000 0.10000000 0.24000000
v 0.23040000 0.10000000 0.24000000
v 0.23040000 0.10000000 0.24000000
v 0.25000000 -0.10000000 -0.25000000
v 0.25000000 -0.10000000 -0.25000000
v 0.25000000 -0.10000000 -0.25000000
v 0.24000000 -0.09000000 -0.24000000
v 0.24000000 -0.09000000 -0.24000000
v 0.24000000 -0.09000000 -0.24000000
v 0.25000000 -0.10000000 0.25000000
v 0.25000000 -0.10000000 0.25000000
v 0.25000000 -0.10000000 0.25000000
v 0.24000000 -0.09000000 0.24000000
v 0.24000000 -0.09000000 0.24000000
v 0.24000000 -0.09000000 0.24000000
v -0.25000000 -0.10000000 -0.25000000
v -0.25000000 -0.10000000 -0.25000000
v -0.25000000 -0.10000000 -0.25000000
v -0.24000000 -0.09000000 -0.24000000
v -0.24000000 -0.09000000 -0.24000000
v -0.24000000 -0.09000000 -0.24000000
v -0.25000000 -0.10000000 0.25000000
v -0.25000000 -0.10000000 0.25000000
v -0.25000000 -0.10000000 0.25000000
v -0.24000000 -0.09000000 0.24000000
v -0.24000000 -0.09000000 0.24000000
v -0.24000000 -0.09000000 0.24000000
vt 0.62500000 0.75000000
vt 0.62500000 0.75000000
vt 0.62500000 0.75000000
vt 0.62500000 0.74500000
vt 0.62500000 0.74500000
vt 0.62500000 0.75000000
vt 0.37500000 0.74500000
vt 0.37500000 0.74500000
vt 0.37500000 0.75000000
vt 0.37500000 0.75000000
vt 0.37500000 0.75000000
vt 0.37500000 0.75000000
vt 0.37500000 0.75000000
vt 0.38750000 0.75500000
vt 0.87500000 0.75000000
vt 0.62500000 1.00000000
vt 0.62500000 0.00000000
vt 0.62500000 1.00000000
vt 0.62500000 0.00500000
vt 0.87500000 0.74500000
vt 0.37500000 1.00000000
vt 0.12500000 0.75000000
vt 0.37500000 0.00000000
vt 0.37500000 0.00500000
vt 0.12500000 0.74500000
vt 0.37500000 1.00000000
vt 0.37500000 1.00000000
vt 0.38750000 0.99500000
vt 0.61250000 1.00000000
vt 0.87000000 0.74500000
vt 0.62500000 0.99500000
vt 0.63000000 0.74500000
vt 0.61250000 0.75000000
vt 0.62500000 0.75500000
vt 0.62500000 0.75000000
vt 0.62500000 0.75000000
vt 0.62500000 0.75000000
vt 0.62500000 0.74500000
vt 0.62500000 0.74500000
vt 0.62500000 0.75000000
vt 0.37500000 0.74500000
vt 0.37500000 0.74500000
vt 0.37500000 0.75000000
vt 0.37500000 0.75000000
vt 0.37500000 0.75000000
vt 0.37500000 0.75000000
vt 0.37500000 0.75000000
vt 0.38750000 0.75500000
vt 0.87500000 0.75000000
vt 0.62500000 1.00000000
vt 0.62500000 0.00000000
vt 0.62500000 1.00000000
vt 0.62500000 0.00500000
vt 0.87500000 0.74500000
vt 0.37500000 1.00000000
vt 0.12500000 0.75000000
vt 0.37500000 0.00000000
vt 0.37500000 0.00500000
vt 0.12500000 0.74500000
vt 0.37500000 1.00000000
vt 0.37500000 1.00000000
vt 0.38750000 0.99500000
vt 0.61250000 1.00000000
vt 0.87000000 0.74500000
vt 0.62500000 0.99500000
vt 0.63000000 0.74500000
vt 0.61250000 0.75000000
vt 0.62500000 0.75500000
vt 0.62500000 0.75000000
vt 0.62500000 0.75000000
vt 0.62500000 0.75000000
vt 0.62500000 0.74500000
vt 0.62500000 0.74500000
vt 0.62500000 0.75000000
vt 0.37500000 0.74500000
vt 0.37500000 0.74500000
vt 0.37500000 0.75000000
vt 0.37500000 0.75000000
vt 0.37500000 0.75000000
vt 0.37500000 0.75000000
vt 0.37500000 0.75000000
vt 0.38750000 0.75500000
vt 0.87500000 0.75000000
vt 0.62500000 1.00000000
vt 0.62500000 0.00000000
vt 0.62500000 1.00000000
vt 0.62500000 0.00500000
vt 0.87500000 0.74500000
vt 0.37500000 1.00000000
vt 0.12500000 0.75000000
vt 0.37500000 0.00000000
vt 0.37500000 0.00500000
vt 0.12500000 0.74500000
vt 0.37500000 1.00000000
vt 0.37500000 1.00000000
vt 0.38750000 0.99500000
vt 0.61250000 1.00000000
vt 0.87000000 0.74500000
vt 0.62500000 0.99500000
vt 0.63000000 0.74500000
vt 0.61250000 0.75000000
vt 0.62500000 0.75500000
vt 0.62500000 0.75000000
vt 0.62500000 0.75000000
vt 0.62500000 0.75000000
vt 0.62500000 0.74500000
vt 0.62500000 0.74500000
vt 0.62500000 0.75000000
vt 0.37500000 0.74500000
vt 0.37500000 0.74500000
vt 0.37500000 0.75000000
vt 0.37500000 0.75000000
vt 0.37500000 0.75000000
vt 0.37500000 0.75000000
vt 0.37500000 0.75000000
vt 0.38750000 0.75500000
vt 0.87500000 0.75000000
vt 0.62500000 1.00000000
vt 0.62500000 0.00000000
vt 0.62500000 1.00000000
vt 0.62500000 0.00500000
vt 0.87500000 0.74500000
vt 0.37500000 1.00000000
vt 0.12500000 0.75000000
vt 0.37500000 0.00000000
vt 0.37500000 0.00500000
vt 0.12500000 0.74500000
vt 0.37500000 1.00000000
vt 0.37500000 1.00000000
vt 0.38750000 0.99500000
vt 0.61250000 1.00000000
vt 0.87000000 0.74500000
vt 0.62500000 0.99500000
vt 0.63000000 0.74500000
vt 0.61250000 0.75000000
vt 0.62500000 0.75500000
vt 0.37500000 0.50000000
vt 0.37500000 0.50000000
vt 0.37500000 0.50000000
vt 0.37500000 0.50000000
vt 0.37500000 0.50000000
vt 0.37500000 0.50000000
vt 0.37500000 0.75000000
vt 0.37500000 0.75000000
vt 0.37500000 0.75000000
vt 0.37500000 0.75000000
vt 0.37500000 0.75000000
vt 0.37500000 0.75000000
vt 0.12500000 0.50000000
vt 0.12500000 0.50000000
vt 0.12500000 0.50000000
vt 0.12500000 0.50000000
vt 0.12500000 0.50000000
vt 0.12500000 0.50000000
vt 0.12500000 0.75000000
vt 0.12500000 0.75000000
vt 0.12500000 0.75000000
vt 0.12500000 0.75000000
vt 0.12500000 0.75000000
vt 0.12500000 0.75000000
f 20/20 15/15 1/1
f 20/20 1/1 32/32
f 20/20 32/32 30/30
f 1/1 4/4 32/32
f 12/12 2/2 16/16
f 16/16 21/21 12/12
f 24/24 23/23 17/17
f 17/17 19/19 24/24
f 8/8 10/10 22/22
f 22/22 25/25 8/8
f 5/5 3/3 11/11
f 11/11 7/7 5/5
f 29/29 33/33 13/13
f 13/13 27/27 29/29
f 28/28 14/14 34/34
f 28/28 34/34 6/6
f 28/28 6/6 9/9
f 28/28 9/9 26/26
f 28/28 26/26 18/18
f 28/28 18/18 31/31
f 54/54 49/49 35/35
f 54/54 35/35 66/66
f 54/54 66/66 64/64
f 35/35 38/38 66/66
f 46/46 36/36 50/50
f 50/50 55/55 46/46
f 58/58 57/57 51/51
f 51/51 53/53 58/58
f 42/42 44/44 56/56
f 56/56 59/59 42/42
f 39/39 37/37 45/45
f 45/45 41/41 39/39
f 63/63 67/67 47/47
f 47/47 61/61 63/63
f 62/62 48/48 68/68
f 62/62 68/68 40/40
f 62/62 40/40 43/43
f 62/62 43/43 60/60
f 62/62 60/60 52/52
f 62/62 52/52 65/65
f 88/88 83/83 69/69
f 88/88 69/69 100/100
f 88/88 100/100 98/98
f 69/69 72/72 100/100
f 80/80 70/70 84/84
f 84/84 89/89 80/80
f 92/92 91/91 85/85
f 85/85 87/87 92/92
f 76/76 78/78 90/90
f 90/90 93/93 76/76
f 73/73 71/71 79/79
f 79/79 75/75 73/73
f 97/97 101/101 81/81
f 81/81 95/95 97/97
f 96/96 82/82 102/102
f 96/96 102/102 74/74
f 96/96 74/74 77/77
f 96/96 77/77 94/94
f 96/96 94/94 86/86
f 96/96 86/86 99/99
f 122/122 117/117 103/103
f 122/122 103/103 134/134
f 122/122 134/134 132/132
f 103/103 106/106 134/134
f 114/114 104/104 118/118
f 118/118 123/123 114/114
f 126/126 125/125 119/119
f 119/119 121/121 126/126
f 110/110 112/112 124/124
f 124/124 127/127 110/110
f 107/107 105/105 113/113
f 113/113 109/109 107/107
f 131/131 135/135 115/115
f 115/115 129/129 131/131
f 130/130 116/116 136/136
f 130/130 136/136 108/108
f 130/130 108/108 111/111
f 130/130 111/111 128/128
f 130/130 128/128 120/120
f 130/130 120/120 133/133
f 151/151 137/137 144/144
f 146/146 143/143 138/138
f 153/153 141/141 139/139
f 152/152 158/158 148/148
f 154/154 150/150 157/157
f 155/155 145/145 147/147
f 144/144 156/156 151/151
f 138/138 140/140 146/146
f 139/139 149/149 153/153
f 148/148 142/142 152/152
f 157/157 159/159 154/154
f 147/147 160/160 155/155

