# https://github.com/mikedh/trimesh

o convex_0
v 0.96464500 0.33524400 0.38275900
v 0.80013600 0.43646000 0.39541200
v 0.80013600 0.43646000 0.38275900
v 0.00316300 0.43010600 0.39541200
v 0.99643900 0.24666200 0.39541200
v 0.00316300 0.43010600 0.38275900
v 0.99002200 0.24666200 0.38275900
v 0.92682400 0.39215000 0.39541200
v 0.00316300 0.43646000 0.39541200
v -0.95214500 -0.40495600 0.28787400
v -0.82562000 -0.29109800 0.38275900
v -0.82562000 -0.31009000 0.38275900
v -0.82562000 -0.41761300 0.28154300
v -0.97113200 -0.29109800 0.28154300
v -0.93314400 -0.30376900 0.35744500
v -0.84460700 -0.39231300 0.34479300
v -0.91418600 -0.36701200 0.34479300
v -0.82562000 -0.41761300 0.31950900
v -0.95214500 -0.29109800 0.33846200
v -0.90153800 -0.42393400 0.28154300
v -0.95846900 -0.37965600 0.30685700
v -0.82562000 -0.29109800 0.37641800
v -0.92049600 -0.40495600 0.31317800
v 0.92684100 -0.33539100 0.35112300
v 0.84461300 -0.43028300 0.26888000
v 0.84461300 -0.43028300 0.28786400
v 0.84461300 -0.29109800 0.37008500
v 0.97744600 -0.29109800 0.26888000
v 0.95846200 -0.40495600 0.27522300
v 0.85094600 -0.39863400 0.33846000
v 0.95214300 -0.29109800 0.33846000
v 0.86991600 -0.29744700 0.38275900
v 0.95214300 -0.39231300 0.30684700
v -0.83828900 0.42380700 0.39541200
v -1.05336200 -0.14556700 0.38275900
v -1.05336200 -0.14556700 0.39541200
v -0.89521500 -0.20868400 0.39541200
v -0.83828900 0.41742600 0.38275900
v -0.99641500 0.25928600 0.38275900
v -0.92054100 -0.25300500 0.38275900
v -0.95845700 0.34778800 0.39541200
v -1.01538300 -0.27832100 0.39541200
v -1.04068800 0.10107600 0.39541200
v -1.02803600 -0.26569800 0.38275900
v -0.92683600 0.39210900 0.38275900
v -0.89521500 -0.20868400 0.38275900
v -1.05336200 0.01257300 0.38275900
v 0.65480300 0.18339900 0.66113500
v 0.81929400 0.25931500 0.70541400
v 0.81929400 0.25298500 0.71174200
v 0.81296600 0.13911000 0.62949600
v 0.81929400 0.17075000 0.69908600
v 0.65480300 0.25931500 0.69908600
v 0.69278600 0.18339900 0.62949600
v 0.65480300 0.22767600 0.70541400
v 0.81296600 0.13911000 0.66747100
v 0.66113000 0.17075000 0.62949600
v 0.81929400 0.25931500 0.69908600
v 0.66113000 0.20235400 0.69275800
v 0.78131100 0.16441900 0.62949600
v -0.80026300 0.43646000 0.44605100
v -0.84457300 0.42380800 0.38277300
v -0.84457300 0.41748000 0.42074000
v 0.00316300 0.43013200 0.38277300
v 0.00316300 0.42381200 0.52193200
v -0.84457300 0.41748000 0.52193200
v 0.00316300 0.43646000 0.49660600
v -0.81924100 0.43012800 0.52193200
v -0.80026300 0.43646000 0.38277300
v 0.00316300 0.43646000 0.38277300
v -0.74332900 0.43646000 0.49660600
v 0.00316300 0.42381200 0.49028500
v 0.00316300 0.43012800 0.52193200
v 1.04704300 0.06313600 0.39541200
v 0.98378500 -0.28477200 0.38275900
v 0.98378500 -0.28477200 0.39541200
v 0.99011400 0.24666200 0.38275900
v 1.05337800 -0.14556700 0.38275900
v 0.99011400 0.24666200 0.39541200
v 1.04072100 -0.23415700 0.39541200
v 1.04072100 0.10105900 0.38275900
v -0.93317100 -0.31009900 -0.00316300
v -0.90155600 -0.42395700 0.15493000
v -0.89522100 -0.42395700 0.15493000
v -0.96480100 -0.29109800 0.28153300
v -0.97112000 -0.39230300 0.10443400
v -0.89522100 -0.41129000 0.28153300
v -0.89522100 -0.31641900 -0.00316300
v -0.95847300 -0.40495700 0.27515200
v -0.97745600 -0.29109800 0.04750000
v -0.90787600 -0.39230300 0.04750000
v -0.97745600 -0.30377800 0.28153300
v -0.95847300 -0.36067500 0.02852200
v -0.93317100 -0.29111100 -0.00316300
v -0.93317100 -0.42395700 0.23719600
v -0.97745600 -0.37331600 0.09178200
v -0.97112000 -0.39230300 0.22454400
v -0.89522100 -0.34806000 0.00319100
v -0.94581000 -0.40495700 0.09810800
v 1.00909700 -0.29108500 0.26253600
v 1.04072500 -0.22150600 0.38275900
v 1.03438600 -0.22150600 0.38275900
v 1.00276500 -0.22150600 0.05378300
v 0.96480600 -0.27212000 0.38269000
v 0.96480600 -0.29109800 0.02853900
v 1.03438600 -0.23417000 0.16138400
v 1.02806200 -0.27210600 0.35741000
v 0.96480600 -0.26579100 0.02853900
v 0.97114500 -0.29109800 0.33840800
v 0.99644100 -0.22150600 0.07282100
v 1.00909700 -0.28476300 0.38275900
v 1.02806200 -0.27210600 0.24353300
v 0.97746100 -0.29109800 0.04754200
v 1.02173800 -0.22150600 0.07909700
v 0.73686000 -0.41762200 0.33213400
v -0.00309900 -0.42395000 0.26889600
v -0.00309900 -0.41762200 0.26889600
v -0.82562000 -0.40498400 0.33213400
v 0.84460000 -0.39232800 0.32580000
v -0.73063200 -0.43660600 0.28786400
v 0.76220100 -0.43660600 0.26889600
v -0.82562000 -0.39232800 0.32580800
v 0.71151900 -0.39232800 0.35111000
v -0.71788000 -0.42395000 0.32580800
v 0.62928300 -0.43660600 0.29420600
v -0.82562000 -0.42395000 0.28153900
v 0.84460000 -0.42395000 0.26889600
v 0.11706700 -0.39866500 0.35111000
v 0.57255200 -0.41762200 0.33845900
v -0.00309900 -0.39232800 0.31948300
v 0.84460000 -0.42395000 0.30685600
v -0.73063200 -0.43660600 0.28153900
v 0.71789500 -0.43026900 0.31315000
v -0.71788000 -0.43027300 0.31315800
v -0.82562000 -0.39232800 0.33213400
v 0.80650700 -0.39866500 0.34477600
v -0.73684500 -0.41762200 0.33213400
v 0.96480200 -0.31008600 0.01585000
v 0.90786600 -0.42395700 0.17397400
v 0.91419500 -0.42395700 0.17397400
v 0.97113000 -0.29111100 0.26888000
v 0.90786600 -0.31008600 -0.00313700
v 0.97113000 -0.38598200 0.07909400
v 0.90786600 -0.42395700 0.26888000
v 0.96480200 -0.39863600 0.26251600
v 0.90786600 -0.38598200 0.04114800
v 0.97745900 -0.29109800 0.04745900
v 0.97745900 -0.34172700 0.24989400
v 0.93317300 -0.29109800 -0.00313700
v 0.95215200 -0.34174000 0.00951200
v 0.90786600 -0.41129000 0.26888000
v 0.95847300 -0.41129000 0.16766300
v 0.97745900 -0.36700800 0.07275600
v 0.93317300 -0.40495700 0.08543200
v 1.05337800 -0.00638300 0.27518900
v 0.99644400 0.25931500 0.38275900
v 0.99644400 0.25931500 0.37634900
v 0.97113200 0.24661000 0.11074200
v 1.02173100 0.14542400 0.09806200
v 1.03440300 -0.03170800 0.11706800
v 1.04704200 -0.03170800 0.38275900
v 1.04071400 0.10115500 0.38275900
v 0.98379600 0.24661000 0.38275900
v 0.98379600 0.25931500 0.10441600
v 1.04071400 0.04421000 0.09806200
v 1.04071400 -0.03170800 0.09806200
v 1.00909100 0.21498900 0.24988600
v 1.04071400 0.08850700 0.22466500
v 0.97113200 0.25931500 0.09806200
v 1.05337800 -0.03170800 0.38275900
v 1.04704200 -0.03170800 0.11074200
v 1.02805900 0.15177700 0.26883600
v -0.95846800 0.32891700 0.18034800
v -0.92685600 0.27196800 0.00320000
v -0.92685600 0.27831500 0.00320000
v -0.90153900 0.39217300 0.38275900
v -0.98376900 0.27196800 0.38275900
v -0.90153900 0.37950600 0.13606100
v -0.90153900 0.28462200 0.00955400
v -0.94581400 0.36686600 0.38275900
v -0.97112300 0.27831500 0.08545800
v -0.92052900 0.34787800 0.07278900
v -0.92052900 0.39217300 0.28783200
v -0.97745000 0.27196800 0.38275900
v -0.98376900 0.29095600 0.33208200
v -0.98376900 0.27196800 0.19925900
v -0.93318300 0.36051900 0.15504600
v -0.90787500 0.40482700 0.38275900
v -0.90153900 0.32891700 0.02853900
v 0.04112300 -0.29109800 0.37643400
v 0.85092700 -0.25946500 0.38275900
v 0.85092700 -0.25946500 0.37643400
v 0.04112300 -0.25946500 0.38275900
v 0.85092700 -0.29109800 0.38275900
v 0.85092700 -0.29109800 0.37643400
v 0.04112300 -0.25946500 0.37643400
v 0.04112300 -0.29109800 0.38275900
v -0.86320900 -0.25942200 0.38275900
v 0.33857000 0.18339600 0.38908500
v 0.49637900 0.17703300 0.39541200
v 0.98378500 -0.28473500 0.38275900
v -0.76848700 -0.23410900 0.39541200
v -0.74328900 0.15808300 0.38275900
v 0.98378500 -0.28473500 0.39541200
v 0.78735100 0.14540300 0.38275900
v -0.78117800 0.14540300 0.39541200
v -0.77474100 -0.29109800 0.38908500
v 0.81273300 0.12645300 0.39541200
v -0.89521300 -0.16453200 0.39541200
v -0.83801100 0.08214300 0.38275900
v -0.49645900 0.17703300 0.39541200
v -0.33846600 0.18339600 0.38275900
v -0.77474100 -0.29109800 0.38275900
v 0.65455600 0.17071600 0.38275900
v 0.77466000 -0.29109800 0.38908500
v 0.83167800 0.10109300 0.38275900
v -0.89521300 -0.16453200 0.38275900
v -0.83175800 0.09473000 0.39541200
v 0.73695500 0.15799000 0.39541200
v 0.94583600 0.34786800 0.59784200
v 0.98377300 0.25931500 0.39543300
v 0.97744900 0.26564700 0.39543300
v 0.97111700 0.25931500 0.61051600
v 0.91419300 0.35420900 0.60415800
v 0.94583600 0.36054100 0.39543300
v 0.99011200 0.27198800 0.52823900
v 0.97111700 0.32258100 0.39543300
v 0.93951200 0.34786800 0.39543300
v 0.94583600 0.36054100 0.55354500
v 0.98377300 0.25931500 0.60415800
v 0.83817600 0.43013000 0.48397300
v 0.00316300 0.43013000 0.39541200
v 0.00316300 0.42381000 0.52193200
v 0.84460000 0.41748000 0.42073800
v 0.80663000 0.43646000 0.39541200
v 0.00316300 0.43646000 0.49661800
v 0.84460000 0.41748000 0.52193200
v 0.74329200 0.43646000 0.49661800
v 0.81923200 0.43013000 0.52193200
v 0.84460000 0.42381000 0.39541200
v 0.00316300 0.42381000 0.49028900
v 0.00316300 0.43013000 0.52193200
v -1.02806800 -0.09495000 0.02214300
v -1.03439300 0.05050700 0.15500200
v -1.00276500 0.05050700 0.01582600
v -1.03439300 0.05050700 0.05378600
v -1.04071800 -0.10759600 0.15500200
v -1.00909800 -0.10759600 0.02214300
v -1.04705100 -0.10759600 0.11071000
v -1.04705100 0.01888300 0.15500200
v -1.01542300 0.03786000 0.00316300
v 0.90786600 -0.31640500 0.00949000
v -0.89521300 -0.32273000 -0.00316300
v -0.89521300 -0.32273000 0.00949000
v -0.89521300 -0.31640500 -0.00316300
v 0.90786600 -0.32273000 -0.00316300
v -0.89521300 -0.31640500 0.00949000
v 0.90786600 -0.32273000 0.00949000
v 0.90786600 -0.31640500 -0.00316300
v -0.49663700 -0.43661000 0.19294000
v -0.89521300 -0.40498200 0.07912200
v -0.89521300 -0.39865000 0.07912200
v -0.89521300 -0.41763000 0.28153300
v -0.49663700 -0.40498200 0.08544300
v -0.88253300 -0.43027800 0.19294000
v -0.49663700 -0.43027800 0.28153300
v -0.68012400 -0.41763000 0.07912200
v -0.74968700 -0.43661000 0.28153300
v -0.49663700 -0.41763000 0.07912200
v -0.74968700 -0.43027800 0.14237200
v -0.76228900 -0.43661000 0.19926100
v -0.84453300 -0.41763000 0.28153300
v -0.88253300 -0.39865000 0.09808500
v -0.89521300 -0.43027800 0.24986900
v -0.83193100 -0.41763000 0.09176400
v -0.49663700 -0.43661000 0.28153300
v -0.71162900 -0.39864300 0.35113000
v -0.00318500 -0.29109800 0.37641200
v -0.00318500 -0.29109800 0.37009800
v -0.82562000 -0.29109800 0.37641700
v -0.00318500 -0.38597200 0.32583100
v 0.12969500 -0.36066900 0.37008700
v -0.82562000 -0.38599700 0.33215000
v -0.80654400 -0.31641500 0.38275300
v -0.06013300 -0.41128900 0.33848600
v 0.00308000 -0.29111100 0.36376200
v 0.12969500 -0.29111100 0.38274200
v -0.57239100 -0.41763000 0.33215000
v 0.12333700 -0.38597200 0.33848600
v -0.63560400 -0.34804800 0.37641700
v 0.12969500 -0.31643900 0.38274200
v -0.26894500 -0.39231400 0.35744900
v -0.81290300 -0.40496000 0.33848000
v -0.82562000 -0.29109800 0.38275300
v 0.12969500 -0.38597200 0.35743800
v -0.35123500 -0.41130100 0.34479900
v -0.81290300 -0.36701000 0.36377400
v 0.42083400 0.37952100 0.68010200
v 0.84460000 0.39850000 0.62950700
v 0.84460000 0.39850000 0.61051600
v 0.84460000 0.32258100 0.68010200
v 0.00316300 0.39216100 0.64215500
v 0.00316300 0.36054100 0.68010200
v 0.72426600 0.39850000 0.65479700
v 0.00316300 0.39850000 0.65479700
v 0.83183400 0.32258100 0.67377400
v 0.81923200 0.35422400 0.68010200
v 0.83817600 0.39216100 0.61051600
v 0.00316300 0.37952100 0.68010200
v 0.00316300 0.36054100 0.67377400
v 0.69906200 0.37318200 0.68010200
v 1.03439800 -0.16459000 0.57250500
v 1.02807200 -0.24681200 0.39537200
v 1.02807200 -0.22150300 0.16135000
v 1.05337800 -0.15187200 0.28783500
v 1.04072500 -0.03170800 0.16135000
v 1.02807200 -0.09498000 0.61682100
v 1.05337800 -0.03170800 0.38275500
v 1.05337800 -0.11397200 0.49666700
v 1.04072500 -0.23411600 0.40807800
v 1.04072500 -0.20882800 0.16135000
v 1.05337800 -0.04438300 0.19933500
v 1.04704600 -0.09498000 0.57250500
v 1.02807200 -0.19617300 0.16135000
v 1.04704600 -0.16452700 0.16135000
v 1.04704600 -0.18351900 0.47134300
v 0.30684000 -0.43661000 0.26886000
v -0.00316300 -0.39866000 0.06642900
v 0.00949100 -0.40497700 0.07279000
v 0.30684000 -0.39866000 0.06642900
v -0.00316300 -0.41763000 0.26886000
v 0.12337500 -0.43027800 0.17396600
v 0.30684000 -0.42395200 0.11705700
v -0.00316300 -0.38599700 0.07911100
v 0.26250600 -0.42395200 0.26886000
v 0.00949100 -0.43027800 0.21823300
v 0.30684000 -0.41130400 0.06642900
v 0.07276000 -0.41763000 0.10441500
v 0.00949100 -0.43027800 0.26886000
v 0.27519000 -0.43661000 0.21823300
v 0.89522600 -0.16458600 0.38275900
v 0.85092700 -0.29109800 0.37642800
v 0.86360100 -0.29109800 0.37010100
v 0.96480600 -0.27844500 0.38275900
v 0.91417600 -0.15824000 0.34480700
v 0.96480600 -0.28475200 0.34480700
v 0.88257400 -0.15824000 0.34480700
v 0.85725900 -0.15824000 0.38275900
v 0.92683900 -0.29109800 0.34480700
v -1.01541400 -0.18987100 0.02848200
v -1.04070800 -0.10764300 0.15498600
v -0.95215000 -0.11396400 0.15497100
v -0.97744400 -0.29109800 0.15497100
v -0.90154800 -0.12028500 0.00318400
v -0.93319400 -0.29109800 -0.00314800
v -0.90787200 -0.20881600 0.15497100
v -1.01541400 -0.10764300 0.00316900
v -1.02806100 -0.24045800 0.13600500
v -0.95847400 -0.29109800 0.00318400
v -1.04070800 -0.12662400 0.07277600
v -1.04070800 -0.20251300 0.15498600
v -0.97743000 -0.29109800 0.04746300
v -0.90154800 -0.15826500 0.02846700
v -1.02806100 -0.21515500 0.08539400
v -0.97112100 -0.11396400 -0.00314800
v -0.92053300 -0.23413700 0.15497100
v 0.91419300 0.08218100 0.26257400
v 0.85726800 -0.01270700 0.38275900
v 0.85092700 -0.01270700 0.38275900
v 0.89520600 -0.15824000 0.21828400
v 0.91419300 -0.15824000 0.35109100
v 0.85092700 0.17707000 0.31947100
v 0.85092700 -0.15190500 0.37641600
v 0.85092700 0.01256600 0.26257400
v 0.90153500 0.13909500 0.30684800
v 0.88888300 -0.14557100 0.38275900
v 0.88256000 -0.15190500 0.22461100
v 0.85726800 0.14539600 0.34478000
v 0.91419300 -0.05068200 0.28155600
v 0.91419300 0.11375600 0.28788300
v 0.85726800 -0.03801300 0.24992000
v 0.26888300 -0.39232400 0.35745300
v 0.84460000 -0.29110800 0.38275900
v 0.84460000 -0.30377000 0.38275900
v 0.84460000 -0.39232400 0.33214600
v 0.12969500 -0.29110800 0.37642200
v 0.12969500 -0.37966200 0.34479900
v 0.12969500 -0.31642200 0.38275900
v 0.74327100 -0.36067900 0.37010600
v 0.83823200 -0.37966200 0.33214600
v 0.84460000 -0.29743900 0.37010600
v 0.79386600 -0.39232400 0.35112600
v 0.12969500 -0.36067900 0.37010600
v 0.63571300 -0.34802700 0.37642200
v 0.12969500 -0.39232400 0.34479900
v 0.12969500 -0.29110800 0.38275900
v -0.85092700 0.10113900 0.28155200
v -0.75602800 0.15169300 0.38275600
v -0.75602800 0.15800400 0.37642200
v -0.84458200 -0.12657800 0.37642200
v -0.85092700 0.15175800 0.34477600
v -0.76869800 0.19603300 0.26257500
v -0.75602800 0.05048900 0.37642200
v -0.85092700 0.02524400 0.38275600
v -0.84459100 0.17072300 0.24359900
v -0.84459100 0.05052100 0.27521700
v -0.82560400 0.18972100 0.32579900
v -0.85092700 -0.12657800 0.38275600
v -0.82559500 0.11376200 0.38275600
v -0.76869800 0.19603300 0.33212000
v -0.00323500 -0.29109800 0.36377900
v 0.00942600 -0.13293300 0.38275900
v 0.04112300 -0.25945300 0.38275900
v -0.85092700 -0.29109800 0.38275900
v -0.85092700 -0.25945300 0.37642900
v 0.00942600 -0.13293300 0.37642900
v -0.85092700 -0.25945300 0.38275900
v -0.85092700 -0.29109800 0.37642900
v -0.87621200 0.34155100 0.02214600
v -0.76235400 0.39850000 0.10438900
v -0.76235400 0.39217100 0.10438900
v -0.76235400 0.32258900 -0.00316300
v -0.88886900 0.27196800 0.00949100
v -0.90153900 0.35419700 0.10438900
v -0.81930400 0.39217100 0.07908000
v -0.76235400 0.30993100 0.00949100
v -0.90153900 0.30360100 0.00316400
v -0.76235400 0.35419700 0.01581800
v -0.88886900 0.37951300 0.09806200
v -0.86989000 0.27196800 0.00949100
v -0.84459000 0.33523400 0.00316400
v -0.87621200 0.39218400 0.11708500
v -0.76235400 0.43646000 0.38275900
v -0.80032500 0.43646000 0.38275900
v -0.88886900 0.39850000 0.38275900
v -0.76235400 0.39218400 0.10441600
v -0.89519000 0.36054100 0.12340600
v -0.76870300 0.42380400 0.19931300
v -0.88253400 0.41748000 0.31314600
v -0.90153900 0.41114900 0.38275900
v -0.76235400 0.43012800 0.38275900
v -0.82562500 0.42380400 0.23094500
v -0.90153900 0.37319600 0.10441600
v -0.76235400 0.40481700 0.10441600
v -0.25624900 0.32891200 -0.00316300
v 0.04112300 0.37319400 0.04744900
v 0.04112300 0.36053600 0.04744900
v -0.76235400 0.37319400 0.04744900
v -0.76235400 0.31625500 0.00949000
v -0.76235400 0.34157000 0.00316800
v 0.04112300 0.32259200 0.00949000
v 0.04112300 0.35421000 0.01581600
v -0.76235400 0.36053600 0.04744900
v -0.76235400 0.37319400 0.04111800
v -0.76235400 0.31625500 -0.00316300
v 0.04112300 0.32259200 -0.00316300
v -0.24995700 0.31625500 0.00949000
v 0.04112300 0.34157000 0.00316800
v 0.04112300 0.39850000 0.08540500
v -0.76235400 0.36686700 0.04744900
v -0.76235400 0.37319600 0.04744900
v -0.76235400 0.39850000 0.11071500
v 0.04112300 0.36686700 0.06011400
v 0.04112300 0.39217100 0.11071500
v -0.76235400 0.36686700 0.06011400
v 0.04112300 0.37319600 0.04744900
v -0.76235400 0.39850000 0.08540500
v -0.76235400 0.39217100 0.11071500
v -0.76235400 0.38584500 0.06011400
v 0.04112300 0.39850000 0.11071500
v 0.04112300 0.38584500 0.06011400
v 0.78118300 0.42380700 0.20560200
v 0.04107100 0.39217400 0.08540900
v 0.04107100 0.39850300 0.08540900
v -0.76220300 0.41747800 0.21824500
v 0.78118300 0.41115200 0.21193700
v -0.73062200 0.41747800 0.15500200
v 0.76229500 0.39850300 0.08540900
v -0.76220300 0.39850300 0.13603700
v 0.78118300 0.39217400 0.11704400
v -0.76220300 0.40483200 0.10440100
v 0.73056300 0.41747800 0.15500200
v -0.73696900 0.42380700 0.19293100
v -0.76220300 0.41115200 0.20558800
v 0.78118300 0.42380700 0.22459400
v -0.76220300 0.42380700 0.21824500
v 0.04107100 0.41747800 0.22459400
v -0.76220300 0.39850300 0.10440100
v 0.76864200 0.40482900 0.10440100
v 0.76229500 0.39217400 0.08540900
v 0.04107100 0.39217400 0.11075000
v 0.73691000 0.42380700 0.19295900
v 0.78118300 0.43646000 0.33212500
v -0.76220300 0.41748000 0.21828400
v -0.76220300 0.41748000 0.25626300
v -0.76220300 0.43646000 0.31947100
v -0.76220300 0.43012800 0.38275900
v 0.78118300 0.41748000 0.26257400
v 0.75579800 0.43012800 0.24359200
v 0.78118300 0.43012800 0.38274300
v -0.75585700 0.43012800 0.24360900
v -0.76220300 0.43646000 0.38275900
v 0.77483700 0.42381200 0.34478000
v 0.78118300 0.41748000 0.22461100
v 0.78118300 0.43646000 0.38274300
v 0.04107100 0.42381200 0.21828400
v 0.73056300 0.43646000 0.30683200
v -0.76220300 0.42381200 0.33210900
v -0.76220300 0.42381200 0.21828400
v -0.73062200 0.43646000 0.30681600
v 0.78118300 0.42381200 0.22461100
v 0.24994100 0.31625500 -0.00316300
v 0.78133400 0.33523400 0.00949000
v 0.78133400 0.33523400 0.00316300
v 0.78133400 0.30992800 -0.00316300
v 0.04112300 0.32258100 0.00949000
v 0.78133400 0.30992800 0.00949000
v 0.04112300 0.32890800 -0.00316300
v 0.77488600 0.38583700 0.06009700
v 0.04112300 0.33523400 0.00316300
v 0.04112300 0.33523400 0.01583400
v 0.04112300 0.39217400 0.09172700
v 0.78133400 0.38583700 0.09806200
v 0.04112300 0.37319000 0.04112800
v 0.78133400 0.34157200 0.02847600
v 0.77488600 0.35421800 0.01583400
v 0.04112300 0.38583700 0.09172700
v 0.04112300 0.39217400 0.07274900
v 0.78133400 0.39217400 0.07274900
v 0.04112300 0.34157200 0.00316300
v 0.78133400 0.39217400 0.09806200
v 1.00909200 -0.18353100 0.01584100
v 1.04705100 -0.03170800 0.16131300
v 1.04705100 -0.03170800 0.10438100
v 1.00909200 -0.03170800 0.01584100
v 1.02174500 -0.22150600 0.15498200
v 1.04072500 -0.20251900 0.14865100
v 0.99643900 -0.21517100 0.06644200
v 1.03439800 -0.10765700 0.04113300
v 1.04072500 -0.03170800 0.16131300
v 1.02174500 -0.22150600 0.07277300
v 1.02174500 -0.03170800 0.00951000
v 0.99643900 -0.14555700 0.00319400
v 1.04705100 -0.15822700 0.16131300
v 1.04072500 -0.15189200 0.08540300
v 0.96480600 -0.22781600 0.07275600
v 0.95847800 -0.29109800 0.29416300
v 0.96480600 -0.29109800 0.29416300
v 0.92053500 -0.15824000 0.34478200
v 0.90787100 -0.19621400 0.07912000
v 0.96480600 -0.15824000 0.20565300
v 0.88256000 -0.15824000 0.34478200
v 0.93316600 -0.29109800 0.34478200
v 0.96480600 -0.27211100 0.34478200
v 0.90787100 -0.17724000 0.07275600
v 0.95214200 -0.25312400 0.11072700
v 0.88888800 -0.18988100 0.31312200
v 0.88888800 -0.15824000 0.21193800
v 0.96480600 -0.15824000 0.16765600
v 0.87621800 0.38583000 0.09806200
v 0.78133400 0.30994300 -0.00316300
v 0.78133400 0.30994300 0.00949100
v 0.90154000 0.25931500 -0.00316300
v 0.86357000 0.32890800 0.00316400
v 0.78133400 0.39215100 0.10438900
v 0.78133400 0.37317300 0.04113800
v 0.90154000 0.35420800 0.10438900
v 0.88886700 0.25931500 0.00949100
v 0.90154000 0.34787300 0.04745400
v 0.83829500 0.37950800 0.06008800
v 0.80033700 0.41114900 0.13604800
v 0.90154000 0.41114900 0.38275900
v 0.90154000 0.39850000 0.38275900
v 0.78133400 0.43646000 0.38275900
v 0.88886700 0.36054100 0.11076400
v 0.87621800 0.41114900 0.22462400
v 0.78133400 0.39218400 0.11708500
v 0.89520900 0.37952100 0.10441600
v 0.79400700 0.42380400 0.38275900
v 0.83196500 0.43012800 0.30679800
v 0.78133400 0.43012800 0.25620200
v 0.94582600 0.34788100 0.17404800
v 0.92686500 0.25931500 0.00316300
v 0.90154000 0.28464000 0.00316300
v 0.98377400 0.25931500 0.38275900
v 0.90154000 0.40482700 0.38275900
v 0.97744500 0.26565400 0.08542900
v 0.90787700 0.36051500 0.07907500
v 0.96480400 0.33521900 0.38275900
v 0.90154000 0.39216400 0.38275900
v 0.92052700 0.39216400 0.28782300
v 0.99011200 0.26565400 0.22461900
v 0.94581700 0.30362700 0.04749200
v 0.90154000 0.37951600 0.13603700
v 0.96478700 0.25931500 0.04113800
v 0.97745400 0.26565400 0.38275900
v 0.99011200 0.27197800 0.38275900
v 0.90787700 0.30362700 0.00316300
v 0.95847500 0.33521900 0.21826500
v -0.93949000 -0.29109800 0.35113000
v -0.86360100 -0.17722000 0.38275900
v -0.85092700 -0.25312000 0.38275900
v -0.96480500 -0.27842400 0.38275900
v -0.92050700 -0.17722000 0.34480700
v -0.85092700 -0.29109800 0.37642800
v -0.88889400 -0.18989400 0.34480700
v -0.96480500 -0.27211500 0.34480700
v -0.89522500 -0.17722000 0.38275900
v -0.92683800 -0.29109800 0.34480700
v -1.04704100 -0.10764300 0.55986800
v -1.01542800 -0.28477200 0.23731200
v -1.00910000 -0.28477200 0.23731200
v -1.04704100 -0.11395400 0.15504600
v -1.02174700 -0.10764300 0.61682100
v -1.04071800 -0.23412600 0.40808200
v -1.00910000 -0.24678300 0.15504600
v -1.02174700 -0.22781500 0.50295900
v -1.04704100 -0.18991300 0.19934300
v -1.00910000 -0.28477200 0.37011300
v -1.05337800 -0.14561400 0.41441000
v -1.04071800 -0.11395400 0.15504600
v -1.03439000 -0.23414400 0.16137400
v -1.04071800 -0.18356700 0.52822700
v -1.05337300 -0.11395400 0.21832800
v -1.03439000 -0.25944000 0.26890800
v -1.02807900 -0.26576900 0.40175400
v -0.95216100 -0.15824400 0.61046800
v -1.01540300 -0.27844500 0.39548100
v -1.02173300 -0.27210600 0.39548100
v -0.90154400 -0.20251400 0.39543300
v -1.02173300 -0.10763500 0.61046800
v -0.90154400 -0.09497400 0.60414100
v -0.93317100 -0.24680100 0.46505100
v -1.01540300 -0.21515700 0.54087400
v -0.90154400 -0.17092300 0.54722500
v -1.02173300 -0.25312300 0.39548100
v -0.95849100 -0.27844500 0.40178400
v -0.97114000 -0.23414000 0.52189400
v -1.00274300 -0.11397500 0.63577400
v -0.92052300 -0.14560100 0.61051600
v -0.90787400 -0.23414000 0.39543300
v -1.02173300 -0.16458400 0.59148800
v -0.95216100 -0.10763500 0.64212500
v -0.99642400 -0.26578400 0.45872400
v -0.93950100 -0.20881700 0.54722500
v -1.04072200 0.07579500 0.56620200
v -1.04704600 -0.11395400 0.15504600
v -1.04704600 0.02521200 0.15504600
v -1.01541800 0.13276900 0.54721300
v -1.03439800 -0.10761200 0.58519100
v -1.05337800 -0.10129600 0.50291800
v -1.02807700 0.05684400 0.15504600
v -1.03439800 0.13276900 0.40809700
v -1.05337800 0.01260300 0.39538200
v -1.04072200 -0.11395400 0.15504600
v -1.05337400 -0.11395400 0.21833000
v -1.02174600 0.13911000 0.58519100
v -1.04705000 -0.01268900 0.58519100
v -1.02807700 0.08216100 0.15504600
v -1.04072200 0.08216100 0.19302500
v -1.02174600 0.13911000 0.39538200
v -1.01541800 0.12011000 0.57251800
v -1.04705000 0.06316100 0.48397100
v -1.05337400 -0.04432200 0.19934100
v -1.02805900 -0.04434900 0.64846300
v -0.95215200 0.13911000 0.69907700
v -0.95215200 0.13911000 0.69274600
v -0.95215200 -0.10762700 0.63583500
v -1.02173000 0.13911000 0.58522100
v -1.04071600 -0.10762700 0.58522100
v -1.00908200 0.11379900 0.66744500
v -0.97114600 0.01885700 0.69274600
v -1.04071600 0.03784100 0.60420300
v -1.01541100 -0.10762700 0.63583500
v -1.01541100 0.13911000 0.58522100
v -0.95215200 -0.05067700 0.67376500
v -1.02805900 -0.10762700 0.58522100
v -0.99643400 0.03153700 0.68641600
v -1.01541100 0.13911000 0.63583500
v -0.83193400 0.10747100 0.59150500
v -0.74337500 0.13911000 0.47768900
v -0.74970200 0.13911000 0.50297500
v -0.83827200 0.05686400 0.61051600
v -0.83827200 0.05686400 0.39543300
v -0.80030900 0.13278200 0.39543300
v -0.81296300 0.13911000 0.61051600
v -0.74337500 0.13278200 0.42707700
v -0.82560700 0.10747100 0.39543300
v -0.85092700 0.06952800 0.61051600
v -0.78766500 0.13278200 0.60415800
v -0.82560700 0.05686400 0.43973000
v -0.76236700 0.13911000 0.39543300
v -0.89518300 0.06314300 0.70540600
v -0.95215200 -0.14558700 0.61052600
v -0.95215200 -0.14558700 0.61685700
v -0.95213700 0.13911000 0.69275300
v -0.80031400 0.13911000 0.61052600
v -0.83830300 0.13275600 0.69908500
v -0.90152900 -0.11392900 0.61685700
v -0.95213700 -0.05066900 0.67377900
v -0.83195700 0.11377800 0.61052600
v -0.90152900 -0.05699500 0.66112700
v -0.92050900 0.13911000 0.71173700
v -0.81297700 0.13275600 0.66112700
v -0.95213700 0.03786700 0.69908500
v -0.95215200 -0.13290700 0.61052600
v 0.26260000 0.19604900 0.61682300
v -0.57255700 0.16441600 0.54093200
v -0.57255700 0.16441600 0.57889900
v 0.55990400 0.16441600 0.54093200
v 0.55990400 0.17707100 0.62948700
v -0.55980900 0.18971700 0.62948700
v -0.16761600 0.18339400 0.54726900
v 0.45226700 0.17707100 0.54093200
v -0.57255700 0.17707100 0.62948700
v 0.55990400 0.18971700 0.62948700
v 0.55990400 0.16441600 0.57257200
v -0.35739400 0.19604900 0.62315100
v -0.45228200 0.17707100 0.54093200
v -0.55980900 0.17074900 0.61049500
v 0.16760000 0.18339400 0.54726900
v 0.35737800 0.19604900 0.62948700
v -0.12338600 0.19604900 0.61049500
v -0.95215800 0.33520300 0.60414100
v -1.02806000 0.13911000 0.39548100
v -1.02806000 0.15811900 0.39548100
v -0.93951900 0.34786100 0.39543300
v -0.99642900 0.14546100 0.64212500
v -0.91420700 0.35419000 0.61051600
v -1.02172900 0.15811900 0.58516100
v -0.97112800 0.32256600 0.39543300
v -1.01539900 0.15179000 0.39548100
v -0.99010900 0.27197700 0.52822100
v -0.98379000 0.24033200 0.64212500
v -0.94583900 0.36054100 0.55352700
v -1.01539900 0.13911000 0.62944800
v -0.94583900 0.36054100 0.39543300
v -1.01539900 0.20235700 0.49035700
v -0.85094400 0.37317300 0.66112600
v -1.00907500 0.13911000 0.64215200
v -1.00907500 0.13911000 0.64849300
v -0.87623900 0.13911000 0.71172500
v -0.84461600 0.39216000 0.61052600
v -0.94581300 0.29093000 0.66743700
v -0.93946900 0.34786500 0.61052600
v -0.93319000 0.19607200 0.70540400
v -0.84461600 0.27196800 0.70541400
v -0.97743600 0.13911000 0.69274200
v -0.97745200 0.27196800 0.61052600
v -0.99642000 0.13911000 0.64215200
v -0.87623900 0.13911000 0.70540400
v -0.90156700 0.30362200 0.68642000
v -0.90156700 0.37949300 0.62951000
v -0.97110800 0.24034000 0.66745700
v 0.96480600 -0.13296300 0.14237300
v 0.96480600 -0.26579200 0.02849400
v 0.96480600 -0.18985700 0.00319800
v 0.99643900 -0.26579200 0.16764000
v 0.98378400 -0.03170800 -0.00316300
v 0.96480600 -0.24679700 0.30051300
v 0.99643900 -0.18353300 0.00319800
v 0.97746100 -0.22150000 0.26252400
v 0.96480600 -0.12029100 -0.00316300
v 0.97113800 -0.26579200 0.30051300
v 0.97746100 -0.03170800 0.00950000
v 0.99643900 -0.24679700 0.07908700
v 0.96478600 -0.01265000 0.68641700
v 0.79398800 0.13276500 0.60421100
v 0.79398800 0.13276500 0.61053700
v 0.92051700 -0.14555000 0.60421100
v 0.97113200 0.13911000 0.68641700
v 0.83829100 0.13276500 0.69906900
v 0.97113200 -0.13923300 0.60421100
v 0.88887200 -0.03800200 0.66111300
v 0.81299200 0.13911000 0.60421100
v 0.89520100 0.09478100 0.71173100
v 0.97113200 -0.11391100 0.64216700
v 0.95214500 0.13911000 0.70539500
v 0.91418800 -0.04434700 0.67376500
v 0.88256000 -0.08230200 0.61053700
v 0.81299200 0.13276500 0.66111300
v 0.97113200 0.06317200 0.69906900
v 0.86359000 0.13911000 0.71173100
v -0.75602800 0.15174300 0.38275600
v 0.04112300 0.19604900 0.36378300
v 0.04112300 0.18970000 0.37642600
v 0.01576300 0.08217800 0.37642600
v -0.75602800 0.13275100 0.35745700
v -0.75602800 0.05686400 0.38275600
v 0.04112300 0.08851300 0.38275600
v -0.64842500 0.18336500 0.35745700
v 0.00312300 0.15175700 0.35745700
v -0.43969600 0.18336500 0.38275600
v 0.00312300 0.08851300 0.37010600
v -0.75602800 0.05686400 0.37642600
v 0.04112300 0.18337900 0.38275600
v 0.04112300 0.19604900 0.35745700
v -0.30681100 0.19604900 0.36378300
v 0.98379000 -0.15826200 0.61048000
v 0.97113200 -0.27844500 0.39541200
v 1.01540800 -0.27844500 0.39541200
v 1.02173400 -0.09497400 0.60416400
v 1.01540800 -0.21515700 0.54090500
v 0.97113200 -0.09497400 0.63579400
v 1.02807200 -0.24047900 0.39541200
v 0.97113200 -0.23414000 0.52193200
v 1.02807200 -0.13294000 0.61048000
v 1.02807200 -0.24047900 0.47769400
v 0.99644700 -0.26576600 0.45869700
v 0.97113200 -0.26576600 0.40177800
v 0.80661900 0.41115500 0.62314800
v 0.67379900 0.42380400 0.52194400
v 0.68013500 0.39850000 0.62314800
v 0.84458400 0.41115500 0.52828500
v 0.67379900 0.43013300 0.55992200
v 0.81295400 0.43013300 0.52194400
v 0.84458400 0.39850000 0.62314800
v 0.67379900 0.41115500 0.63580800
v 0.77498900 0.42380400 0.59152300
v 0.84458400 0.41747800 0.58519400
v 1.05337800 0.01260500 0.39541200
v 1.02174600 0.13911000 0.59151700
v 1.01541800 0.13911000 0.59151700
v 1.03439800 -0.09497400 0.59151700
v 1.02174600 0.12011500 0.39541200
v 1.04705000 -0.09497400 0.39541200
v 1.04705000 -0.01269200 0.58518300
v 1.03439800 0.13274000 0.47135100
v 1.05337800 -0.09497400 0.50294700
v 1.04705000 0.03787800 0.55354800
v 1.02807400 0.13911000 0.39541200
v 1.03438900 -0.08860400 0.62317400
v 0.97746100 0.13911000 0.69276200
v 0.97113200 0.13911000 0.69276200
v 1.02173900 0.13911000 0.59153600
v 0.97113200 -0.09497400 0.64214900
v 1.02173900 -0.01901600 0.66112400
v 1.02806800 -0.09497400 0.59153600
v 1.02806800 0.08217000 0.63582800
v 0.97746100 -0.02536300 0.68009900
v 1.00908300 0.13911000 0.59787800
v 1.04072500 0.04420200 0.59153600
v 1.00277400 0.13911000 0.66745600
v 1.01541800 -0.09497400 0.64214900
v 0.97113200 0.13911000 0.68009900
v 0.83828100 0.16441900 0.71173500
v 0.96480600 0.25931500 0.66114000
v 0.96480600 0.25298500 0.66746100
v 0.81929400 0.25298500 0.71173500
v 0.81929400 0.13911000 0.65481200
v 0.96480600 0.13911000 0.69907900
v 0.95846700 0.25931500 0.64214900
v 0.90786000 0.25931500 0.69907900
v 0.81929400 0.25931500 0.69907900
v 0.92049400 0.13911000 0.71173500
v 0.96480600 0.13911000 0.68643000
v 0.96480600 0.24665500 0.64214900
v 0.82563200 0.13911000 0.68643000
v 0.98379300 0.21502700 0.66109700
v 1.02173600 0.13911000 0.39541200
v 1.01540700 0.15177100 0.39541200
v 0.96480600 0.13911000 0.69273300
v 0.98379300 0.25931500 0.39541200
v 1.02807200 0.14544000 0.55356000
v 0.97114100 0.25931500 0.64843700
v 0.99643900 0.25931500 0.48403200
v 1.02807200 0.15810100 0.39541200
v 1.00909100 0.13911000 0.64843700
v 0.99011600 0.24665500 0.61048700
v 0.96480600 0.25931500 0.62314700
v 0.99643900 0.25931500 0.39541200
v 0.96480600 0.13911000 0.68007300
v 0.93949200 0.34155700 0.62950300
v 0.84461300 0.25931500 0.69907100
v 0.84461300 0.25931500 0.70541500
v 0.84461300 0.40482700 0.61686100
v 0.97111400 0.25931500 0.61051600
v 0.92684100 0.27831600 0.68642800
v 0.85726500 0.35419100 0.67377600
v 0.84461300 0.39216400 0.61051600
v 0.95846200 0.25931500 0.66744100
v 0.90155100 0.38582600 0.61051600
v 0.91418900 0.34788100 0.65480700
v 0.85085800 -0.40497300 0.06642700
v -0.89521300 -0.34805400 0.00316300
v -0.89521300 -0.33540700 0.00316300
v -0.89521300 -0.39231800 0.07908200
v 0.90786600 -0.33538400 0.00949500
v -0.68006500 -0.39863400 0.04112300
v 0.69907200 -0.36070100 0.00316300
v 0.90786600 -0.38598000 0.06642700
v -0.83802800 -0.41129600 0.07908200
v -0.00302700 -0.33538400 0.01583400
v 0.78749600 -0.40497300 0.05376400
v -0.00302700 -0.39231800 0.07908200
v -0.69895000 -0.36070800 0.00316300
v 0.90786600 -0.34804600 0.00316300
v 0.74955000 -0.39231800 0.03479900
v -0.89521300 -0.33540700 0.00949500
v -0.77484300 -0.41129600 0.06641900
v -0.16116800 -0.41129600 0.07908200
v -0.87597500 -0.38598000 0.03481400
v 0.90786600 -0.33538400 0.00316300
v 0.90786600 -0.39231800 0.04744700
v 0.01581700 0.05052400 0.38275900
v -0.01581600 0.05052400 0.37643400
v -0.00948400 -0.13293300 0.37643400
v 0.01581700 0.08217100 0.37643400
v -0.01581600 0.08217100 0.38275900
v -0.22463700 -0.43660300 0.25620700
v -0.49663700 -0.41762100 0.07910200
v -0.49663700 -0.40498600 0.07910200
v -0.00316300 -0.39232400 0.07910200
v -0.49663700 -0.43027900 0.28153300
v -0.03480200 -0.41763400 0.28153300
v -0.01581900 -0.42395000 0.15500200
v -0.49663700 -0.43660300 0.19297100
v -0.01581900 -0.43027900 0.28153300
v -0.07909700 -0.41130600 0.07910200
v -0.33839300 -0.42395400 0.28153300
v -0.25618000 -0.43027400 0.15500200
v -0.00949100 -0.39232400 0.09174600
v -0.49663700 -0.43660300 0.28153300
v -0.00949100 -0.43027900 0.21827700
v -0.00316300 -0.41763400 0.28153300
v -0.47765400 -0.40498600 0.09174600
v -0.00316300 -0.41130600 0.09808700
v 0.92051900 0.10115000 0.26255000
v 0.95847400 -0.15824000 0.15502500
v 0.95214300 -0.10761100 0.07275600
v 0.91419300 -0.15824000 0.31948600
v 0.94582100 -0.15189200 0.28151100
v 0.95847400 0.01888500 0.09806300
v 0.91419300 0.08848100 0.24356300
v 0.96480600 -0.15189200 0.19297300
v 0.94582100 0.02520700 0.08542300
v 0.96480600 -0.11393300 0.07275600
v 0.92051900 0.10115000 0.27516500
v 0.91419300 -0.00640400 0.24988300
v 0.92051900 -0.14557000 0.33847300
v 0.95214300 0.04419900 0.14235800
v -0.68645500 0.41115500 0.63580800
v -0.84458300 0.41747800 0.52194400
v -0.84458300 0.41115500 0.52828500
v -0.67378200 0.42380400 0.52194400
v -0.68013500 0.39850000 0.62314800
v -0.84458300 0.39850000 0.62314800
v -0.77498200 0.43013300 0.55359200
v -0.82559100 0.41747800 0.59785300
v -0.67378200 0.42380400 0.59785300
v -0.88888600 -0.17722200 0.34479200
v -0.97745200 -0.29109800 0.15504600
v -1.00909100 -0.27843600 0.19299100
v -0.97113300 -0.14558700 0.15504600
v -1.00909100 -0.27211200 0.38275900
v -0.93317500 -0.29109800 0.34479200
v -0.90155900 -0.20254600 0.16768700
v -0.92684400 -0.17722200 0.33843800
v -1.00909100 -0.25312500 0.15504600
v -1.00909100 -0.29109800 0.33210700
v -0.89522800 -0.17722200 0.19299100
v -0.92052600 -0.23415300 0.15500200
v -0.97113300 -0.28476000 0.38275900
v -0.88888600 -0.18989800 0.34479200
v 0.81285300 -0.43661000 0.23089500
v 0.30684000 -0.41130200 0.06645300
v 0.30684000 -0.39865700 0.06645300
v 0.90786600 -0.39232400 0.08543500
v 0.86344800 -0.41762700 0.26886000
v 0.68642300 -0.42395200 0.10441800
v 0.88880500 -0.40498200 0.06645300
v 0.31966500 -0.43027200 0.14866400
v 0.30684000 -0.43027700 0.26886000
v 0.88239200 -0.43027700 0.26886000
v 0.90786600 -0.42395200 0.16132600
v 0.64200500 -0.43661000 0.18662900
v 0.30684000 -0.39865700 0.07277400
v 0.90786600 -0.41762700 0.26886000
v 0.83815100 -0.42395200 0.12340000
v 0.90786600 -0.39232400 0.06645300
v 0.30684000 -0.43661000 0.21195200
v 0.77490600 -0.41130200 0.06645300
v 0.78755500 -0.43661000 0.26886000
v -0.95215600 -0.09497000 0.03479900
v -0.93950300 0.05053800 0.15498600
v -0.93950300 0.05053800 0.12967300
v -0.98378100 0.05053800 0.00950100
v -0.95848400 -0.11395400 0.15498600
v -0.98378100 -0.11395400 -0.00316300
v -0.95215600 -0.06965900 0.01581800
v -0.97745200 0.05053800 -0.00316300
v -0.95215600 0.02521000 0.15498600
v -0.94583200 -0.09497000 0.15498600
v -0.95848400 -0.11395400 0.00950100
v -0.91420900 0.25298100 -0.00316300
v -1.02174500 0.05053800 0.02214100
v -1.02174500 0.05053800 0.03479600
v -0.95847400 0.26563900 0.02846800
v -0.88256000 0.26563900 0.00949200
v -0.99009600 0.16439600 0.00316500
v -0.93950900 0.26563900 0.03479600
v -1.00907400 0.14547400 0.03479600
v -0.97745200 0.05053800 0.00949200
v -1.00276900 0.24032300 0.38275900
v -1.02804500 0.05053800 0.03483000
v -1.02804500 0.06321800 0.03483000
v -0.94582600 0.25926700 0.03483000
v -1.02805400 0.09484100 0.38275900
v -0.98380000 0.25298100 0.08544400
v -0.97747400 0.27196800 0.38275900
v -1.04071500 0.08851200 0.22461600
v -1.01541100 0.05053800 0.04113200
v -1.02173700 0.15178100 0.11705300
v -1.04071500 0.08218300 0.38275900
v -0.98380000 0.27196800 0.16136500
v -0.95848700 0.27196800 0.03483000
v -1.02805400 0.15811000 0.37005400
v -1.00908500 0.16439600 0.04746700
v -1.04072400 0.05053800 0.11705300
v -1.00908500 0.20867800 0.19300800
v -0.97747400 0.26559600 0.38275900
v -0.14876600 0.21501300 0.34478200
v -0.76868100 0.19603400 0.26255400
v -0.76868100 0.14543700 0.35110800
v 0.00936300 0.17075300 0.35110800
v 0.04098900 0.22767100 0.26889800
v -0.68006500 0.20237200 0.33213900
v -0.44592300 0.22767100 0.27522400
v 0.00936300 0.23400900 0.32580400
v -0.73063500 0.17707300 0.35745300
v 0.04098900 0.19604300 0.35744300
v 0.04098900 0.22135100 0.26889800
v -0.75599900 0.20869300 0.26255400
v -0.76868100 0.19603400 0.33213900
v -0.72437300 0.14543700 0.35745300
v -0.45226400 0.19604300 0.35744300
v -0.62949500 0.22135100 0.27522400
v 0.04098900 0.17707300 0.35744300
v -0.72437300 0.14543700 0.35110800
v 0.73072200 0.17706700 0.34480700
v 0.07912700 0.20870300 0.35113300
v 0.07912700 0.20870300 0.34480700
v 0.04112300 0.09484500 0.37642500
v 0.67375000 0.17074500 0.38275500
v 0.73072200 0.06951700 0.38275500
v 0.04112300 0.18338900 0.38275500
v 0.69899600 0.15808900 0.34480700
v 0.04112300 0.18971000 0.34480700
v 0.73072200 0.06951700 0.37642500
v 0.04112300 0.09484500 0.38275500
v 0.54090700 0.19603200 0.35113300
v 0.43951900 0.18338900 0.38275500
v 0.73072200 0.15808900 0.38275500
v 0.61677900 0.20236700 0.33846100
v 0.04112300 0.22134500 0.26888800
v 0.04112300 0.21501900 0.28154200
v 0.73072200 0.19605800 0.27521900
v 0.65471500 0.17074300 0.34479200
v 0.04112300 0.22768200 0.33213700
v 0.62946900 0.22134500 0.26888800
v 0.04112300 0.19605800 0.34479200
v 0.73072200 0.18340600 0.34479200
v 0.72437700 0.17074300 0.33213700
v 0.14878800 0.21501900 0.34479200
v 0.44599900 0.22768200 0.27521900
v 0.04112300 0.19605800 0.33213700
v 0.04112300 0.22768200 0.26888800
v 0.71168600 0.21501900 0.26888800
v 0.68002800 0.20236700 0.33213700
v 0.20562500 0.22134500 0.33846100
v 0.84459700 0.05681500 0.38275900
v 0.74973600 0.15803000 0.38275900
v 0.73705200 0.16436400 0.37642500
v 0.84459700 0.17703200 0.24359700
v 0.84459700 -0.12657800 0.37642500
v 0.73072200 0.20236800 0.26889300
v 0.85092700 0.17703200 0.32579200
v 0.73072200 0.06314900 0.38275900
v 0.85092700 0.05051400 0.27522700
v 0.85092700 -0.12657800 0.38275900
v 0.78768300 0.19600200 0.33212600
v 0.82560600 0.11375700 0.38275900
v 0.73072200 0.19600200 0.33212600
v 0.75604300 0.20870300 0.26258600
v 0.73705200 0.20236800 0.26258600
v -0.90153900 0.01888000 0.28151000
v -0.90153900 -0.16455700 0.36375900
v -0.90787500 -0.16455700 0.36375900
v -0.95847000 -0.15822500 0.15500200
v -0.92052700 0.10113100 0.27517600
v -0.96480500 -0.17085800 0.22462100
v -0.94581800 0.05047800 0.15500200
v -0.90153900 0.12645700 0.30049400
v -0.94581800 -0.10124100 0.15500200
v -0.93317200 -0.17722000 0.32579200
v -0.93317200 0.05047800 0.16135700
v -0.90153900 -0.17722000 0.35108900
v -0.95214700 0.01888000 0.16135700
v -0.90787500 0.12645700 0.30049400
v -0.96480500 -0.17722000 0.18665400
v -0.90153900 -0.02538100 0.28784500
v 0.93949600 -0.29109800 -0.00315600
v 0.95847000 -0.00007500 0.07275600
v 0.95847000 -0.00007500 0.06641700
v 0.90154000 -0.12031900 0.01582900
v 0.90787500 -0.18985500 0.07275600
v 0.96480600 -0.23415300 0.07275600
v 0.96480600 -0.12661400 -0.00315600
v 0.96480600 -0.29109800 0.03480000
v 0.90154000 -0.12031900 0.00317500
v 0.96480600 -0.08234600 0.00949900
v 0.93317300 -0.29109800 0.00949900
v 1.02172400 0.12645200 0.06009500
v 0.89521300 0.25296300 -0.00315600
v 0.89521300 0.25296300 0.00950600
v 0.97745500 -0.03170800 -0.00313700
v 1.03438600 -0.03170800 0.09806200
v 0.97113100 0.25931500 0.09806200
v 1.00275200 0.12012800 0.00318500
v 0.95848300 0.25931500 0.02214800
v 1.02804800 -0.03170800 0.02216800
v 1.04072500 0.03791400 0.09806200
v 0.97745500 -0.03170800 0.00951600
v 0.99644200 0.22128500 0.09806200
v 0.99011800 0.21498900 0.04114200
v 0.95215900 0.24663900 0.00317500
v 1.02804800 0.06321100 0.03482000
v 0.67371700 0.41747800 0.61684300
v -0.67371600 0.42380400 0.52194400
v -0.67371600 0.39850000 0.62948900
v -0.67371600 0.42380400 0.59785600
v 0.67371700 0.42380400 0.52194400
v 0.66092300 0.39850000 0.64847600
v 0.67371700 0.43013300 0.55991800
v -0.66105400 0.40482900 0.64847600
v -0.67371600 0.43013300 0.52194400
v 0.67371700 0.39850000 0.62948900
v 0.64826100 0.41747800 0.62314700
v 0.67371700 0.43013300 0.52194400
v -0.67371600 0.43013300 0.55991800
v 0.66092300 0.40482900 0.64847600
v -0.64839200 0.41747800 0.62314700
v -0.66105400 0.39850000 0.64847600
v 0.67371700 0.42380400 0.59785600
v 0.84460000 0.41114100 0.60415800
v 0.94582600 0.36687600 0.50297500
v 0.93316300 0.37953300 0.52823900
v 0.84460000 0.43013300 0.39543300
v 0.93316300 0.36054100 0.39543300
v 0.85093200 0.39217600 0.61051600
v 0.90153500 0.41114100 0.39543300
v 0.92684100 0.36054100 0.61051600
v 0.89521300 0.40481900 0.55988200
v 0.84460000 0.41747600 0.39543300
v 0.90785600 0.36054100 0.60415800
v 0.86358500 0.42379800 0.49665900
v -0.90153900 -0.18354500 0.49665900
v -0.84460900 0.05686400 0.61051600
v -0.83828100 0.05686400 0.60415800
v -0.84460900 0.05051800 0.39543300
v -0.90153900 -0.08231500 0.61051600
v -0.86990000 -0.13293000 0.39543300
v -0.90153900 -0.18354500 0.39543300
v -0.83195400 0.03787700 0.40808600
v -0.88254900 -0.11394300 0.57253600
v -0.83195400 0.05051800 0.55988200
v -0.88254900 -0.17087800 0.44604600
v -0.85725800 0.04419700 0.59784200
v -0.89520500 -0.10762200 0.61051600
v -0.89520500 -0.20885300 0.39543300
v -0.73072000 0.13911000 0.52192800
v -0.77496200 0.13911000 0.39541200
v -0.81296700 0.13911000 0.62312700
v -0.57255700 0.18339600 0.60415600
v -0.72439000 0.17706300 0.62312700
v -0.57255700 0.17073800 0.39541200
v -0.57888700 0.15176800 0.47136300
v -0.57255700 0.17706300 0.62947300
v -0.72439000 0.15809300 0.39541200
v -0.78129200 0.16441300 0.62947300
v -0.57255700 0.15809300 0.54089800
v -0.57255700 0.15809300 0.39541200
v -0.66748800 0.18339600 0.62312700
v -0.79397600 0.13911000 0.62947300
v -0.73072000 0.13911000 0.40178100
v -0.77496200 0.14544300 0.39541200
v -0.79397700 0.13911000 0.63582400
v -0.65480200 0.25931500 0.70541400
v -0.65480200 0.25931500 0.69908600
v -0.87623300 0.25931500 0.69275800
v -0.87623300 0.13911000 0.71174200
v -0.65480200 0.17708000 0.62949600
v -0.66115300 0.20235400 0.69275800
v -0.81296400 0.14544000 0.62949600
v -0.83823700 0.25298500 0.71174200
v -0.69279800 0.18339900 0.62949600
v -0.66115300 0.25298500 0.71174200
v -0.85724600 0.13911000 0.71174200
v -0.65480200 0.17708000 0.64848000
v -0.55349300 0.17708600 0.63583400
v 0.00316300 0.25929900 0.70540000
v 0.00316300 0.24032700 0.70540000
v -0.65480200 0.25929900 0.70540000
v 0.00316300 0.19605700 0.62949600
v -0.64211400 0.18973100 0.67377500
v -0.61673900 0.18973100 0.62949600
v 0.00316300 0.20871100 0.68009900
v -0.65480200 0.21503700 0.69907700
v -0.65480200 0.25929900 0.69907700
v 0.00316300 0.18973100 0.64215800
v -0.65480200 0.17708600 0.62949600
v 0.00316300 0.25929900 0.69907700
v -0.45862300 0.19605700 0.62949600
v -0.65480200 0.22767400 0.70540000
v 0.42699300 0.17707000 0.54089500
v -0.57255700 0.15809000 0.39544100
v -0.57255700 0.15809000 0.53455900
v 0.55990400 0.15809000 0.39544100
v -0.42689700 0.17707000 0.39544100
v 0.55990400 0.15809000 0.53455900
v -0.42689700 0.17707000 0.54089500
v 0.42699300 0.17707000 0.39544100
v -0.57255700 0.17073800 0.54089500
v 0.55990400 0.17073800 0.54089500
v -0.57255700 0.17073800 0.39544100
v 0.55990400 0.17073800 0.39544100
v -0.92683100 0.39217600 0.45238300
v -0.84460000 0.40481900 0.61051600
v -0.84460000 0.39849800 0.61051600
v -0.84460000 0.41747600 0.39543300
v -0.93316200 0.36054100 0.39543300
v -0.92683100 0.36054100 0.61051600
v -0.88256000 0.41747600 0.50297500
v -0.85094100 0.43013300 0.39543300
v -0.90153400 0.39849800 0.57885200
v -0.94582600 0.36687600 0.39543300
v -0.90786600 0.36054100 0.60415800
v -0.90153400 0.41114100 0.39543300
v -0.84460000 0.42379800 0.53457600
v -0.93948400 0.36687600 0.55988200
v -0.84460000 0.32258100 0.68010200
v 0.00316300 0.39850000 0.64215500
v -0.84460000 0.39850000 0.61051600
v -0.72435600 0.37952100 0.67377400
v -0.78759000 0.39850000 0.64847000
v -0.83190300 0.32258100 0.67377400
v -0.42071800 0.37952100 0.68010200
v -0.83821000 0.39216100 0.61051600
v -0.84460000 0.34790000 0.68010200
v -0.30686400 0.39216100 0.66744600
v -0.84460000 0.26564200 0.69276400
v 0.59145200 0.36686700 0.68644400
v 0.61030200 0.34153700 0.69908700
v 0.84460000 0.26564200 0.69276400
v -0.73679300 0.27199100 0.71174200
v -0.71166000 0.36054000 0.68010900
v 0.76854000 0.25931500 0.71174200
v 0.84460000 0.30994400 0.68010900
v -0.58500300 0.32257700 0.70540600
v -0.84460000 0.30994400 0.68010900
v 0.17394700 0.29095100 0.71174200
v 0.80028700 0.34788600 0.68010900
v -0.59145100 0.36686700 0.68644400
v -0.84460000 0.25931500 0.70540600
v -0.76854000 0.34153700 0.69276400
v 0.82542000 0.30994400 0.69908700
v 0.58500300 0.32257700 0.70540600
v 0.84460000 0.25931500 0.69908700
v 0.59145200 0.36686700 0.68010900
v -0.76854000 0.25931500 0.71174200
v -0.61046700 0.34153700 0.69908700
v -0.90153900 -0.17083900 0.19931400
v -0.85092700 -0.01268000 0.38275900
v -0.85092700 0.14537500 0.34477700
v -0.90153900 0.13903000 0.30683100
v -0.90153900 -0.17715000 0.37008000
v -0.85092700 -0.15187100 0.37640200
v -0.85092700 0.01256500 0.26256400
v -0.85725300 0.17065400 0.31317000
v -0.88888600 -0.17083900 0.21195700
v -0.89520800 -0.16452800 0.38275900
v -0.86358000 -0.17715000 0.38275900
v -0.90153900 0.13268400 0.29418800
v -0.87623300 0.14537500 0.33215200
v -0.85725300 -0.03802800 0.24990300
v 0.90786600 -0.17088200 0.54721900
v 0.83195500 0.10111900 0.60419000
v 0.82562900 0.10111900 0.60419000
v 0.82562900 0.10111900 0.39543300
v 0.86990100 -0.13295400 0.42708500
v 0.90786600 -0.10127900 0.59781400
v 0.90786600 -0.20249400 0.39543300
v 0.81296700 0.09480300 0.55984700
v 0.81296700 0.09480300 0.39543300
v 0.88255300 -0.09496300 0.59781400
v 0.83828100 0.07582400 0.39543300
v 0.88887900 -0.17088200 0.49666400
v 0.90153100 -0.22150600 0.39543300
v 0.85092300 0.06316000 0.60419000
v 0.96479700 -0.19619900 0.57253700
v 0.95847400 -0.27844500 0.39543300
v 0.97113200 -0.27844500 0.39543300
v 0.90786600 -0.11395400 0.59783500
v 0.91420200 -0.19619900 0.53457000
v 0.90786600 -0.21515100 0.39543300
v 0.97113200 -0.15192100 0.59783500
v 0.90786600 -0.13928100 0.60419000
v 0.93317600 -0.24679000 0.46503200
v 0.97113200 -0.26578900 0.39543300
v 0.90786600 -0.23415000 0.40176700
v 0.97113200 -0.22782200 0.52825600
v 0.91420200 -0.21515100 0.39543300
v 0.63579400 0.18340400 0.66113600
v 0.65480300 0.25929900 0.70540000
v 0.65480300 0.22767400 0.70540000
v 0.45866000 0.19605700 0.62949600
v 0.00316300 0.18973100 0.62949600
v 0.65480300 0.17708600 0.62949600
v 0.65480300 0.25929900 0.69907700
v 0.00316300 0.22767400 0.69907700
v 0.55357400 0.20871100 0.69275300
v 0.00316300 0.20238400 0.63583400
v 0.61672200 0.18973100 0.62949600
v 0.65480300 0.18973100 0.67377500
v 0.75603300 0.13911000 0.40176700
v 0.83194700 0.10747800 0.60419000
v 0.83194700 0.10115000 0.60419000
v 0.82560900 0.10747800 0.39543300
v 0.80664000 0.13911000 0.60419000
v 0.74337500 0.13277800 0.47768100
v 0.80664000 0.10115000 0.40810200
v 0.78766100 0.13911000 0.39543300
v 0.81296000 0.10115000 0.58518600
v 0.78766100 0.13911000 0.60419000
v 0.75599300 0.17073800 0.62947300
v 0.55990400 0.15809300 0.39541200
v 0.59158600 0.15176800 0.42075200
v 0.77499300 0.14544300 0.39541200
v 0.79396800 0.13911000 0.62947300
v 0.55990400 0.17706300 0.62947300
v 0.58524500 0.17073800 0.39541200
v 0.55990400 0.15809300 0.53457500
v 0.66746100 0.18339600 0.62312700
v 0.71806900 0.13911000 0.42707500
v 0.72436000 0.15809300 0.39541200
v 0.55990400 0.18339600 0.59783300
v 0.81296700 0.14544300 0.62312700
v 0.77499300 0.13911000 0.39541200
v 0.57890300 0.15176800 0.47136300
f 6 4 9
f 2 4 5
f 3 1 6
f 1 5 7
f 5 4 7
f 6 1 7
f 4 6 7
f 1 3 8
f 3 2 8
f 5 1 8
f 2 5 8
f 2 3 9
f 4 2 9
f 3 6 9
f 17 21 23
f 11 12 13
f 12 11 15
f 12 15 17
f 16 12 17
f 13 12 18
f 12 16 18
f 11 14 19
f 15 11 19
f 10 14 20
f 14 13 20
f 13 18 20
f 14 10 21
f 17 15 21
f 19 14 21
f 15 19 21
f 11 13 22
f 13 14 22
f 14 11 22
f 16 17 23
f 18 16 23
f 10 20 23
f 20 18 23
f 21 10 23
f 28 31 33
f 25 26 27
f 25 27 28
f 25 28 29
f 26 25 29
f 27 26 30
f 28 27 31
f 27 30 32
f 30 24 32
f 24 31 32
f 31 27 32
f 29 28 33
f 26 29 33
f 30 26 33
f 24 30 33
f 31 24 33
f 43 39 47
f 34 36 37
f 34 37 38
f 38 35 39
f 35 38 40
f 36 34 41
f 37 36 42
f 40 37 42
f 36 41 43
f 41 39 43
f 36 35 44
f 35 40 44
f 42 36 44
f 40 42 44
f 34 38 45
f 38 39 45
f 41 34 45
f 39 41 45
f 38 37 46
f 37 40 46
f 40 38 46
f 35 36 47
f 39 35 47
f 36 43 47
f 54 58 60
f 49 50 52
f 50 49 53
f 52 50 55
f 50 53 55
f 53 48 55
f 51 52 56
f 48 53 57
f 54 51 57
f 53 54 57
f 56 48 57
f 51 56 57
f 52 51 58
f 49 52 58
f 53 49 58
f 54 53 58
f 55 48 59
f 52 55 59
f 48 56 59
f 56 52 59
f 51 54 60
f 58 51 60
f 67 68 73
f 63 62 64
f 63 65 66
f 62 63 66
f 65 64 67
f 61 62 68
f 66 65 68
f 62 66 68
f 62 61 69
f 64 62 69
f 61 67 69
f 69 67 70
f 67 64 70
f 64 69 70
f 67 61 71
f 68 67 71
f 61 68 71
f 63 64 72
f 64 65 72
f 65 63 72
f 65 67 73
f 68 65 73
f 77 79 81
f 75 76 77
f 75 77 78
f 76 74 79
f 77 76 79
f 74 76 80
f 76 75 80
f 78 74 80
f 75 78 80
f 74 78 81
f 78 77 81
f 79 74 81
f 95 86 99
f 85 87 88
f 87 84 88
f 84 83 91
f 87 85 92
f 89 87 92
f 85 90 92
f 90 82 93
f 85 88 94
f 88 82 94
f 82 90 94
f 90 85 94
f 83 84 95
f 84 87 95
f 89 86 95
f 87 89 95
f 92 90 96
f 90 93 96
f 93 86 96
f 86 89 97
f 89 92 97
f 96 86 97
f 92 96 97
f 82 88 98
f 88 84 98
f 84 91 98
f 93 82 98
f 91 93 98
f 91 83 99
f 86 93 99
f 93 91 99
f 83 95 99
f 106 113 114
f 102 101 103
f 103 105 108
f 105 104 108
f 104 105 109
f 102 103 110
f 104 102 110
f 103 108 110
f 108 104 110
f 101 102 111
f 102 104 111
f 100 107 111
f 107 101 111
f 109 100 111
f 104 109 111
f 106 101 112
f 107 100 112
f 101 107 112
f 100 109 113
f 109 105 113
f 112 100 113
f 106 112 113
f 103 101 114
f 105 103 114
f 101 106 114
f 113 105 114
f 129 128 137
f 116 117 121
f 119 122 123
f 120 121 125
f 117 116 126
f 118 122 126
f 122 117 126
f 117 119 127
f 121 117 127
f 123 128 129
f 119 117 130
f 122 119 130
f 117 122 130
f 127 119 131
f 121 127 131
f 116 121 132
f 121 120 132
f 126 116 132
f 120 126 132
f 125 121 133
f 115 129 133
f 131 115 133
f 121 131 133
f 124 118 134
f 120 125 134
f 126 120 134
f 118 126 134
f 129 124 134
f 125 133 134
f 133 129 134
f 122 118 135
f 123 122 135
f 118 128 135
f 128 123 135
f 119 123 136
f 129 115 136
f 123 129 136
f 115 131 136
f 131 119 136
f 118 124 137
f 128 118 137
f 124 129 137
f 143 152 154
f 139 140 144
f 142 139 144
f 141 144 145
f 139 142 146
f 141 145 148
f 147 141 148
f 142 141 149
f 147 138 149
f 141 147 149
f 146 142 150
f 143 146 150
f 149 138 150
f 142 149 150
f 141 142 151
f 144 141 151
f 142 144 151
f 144 140 152
f 143 145 152
f 145 144 152
f 145 143 153
f 138 147 153
f 147 148 153
f 148 145 153
f 150 138 153
f 143 150 153
f 140 139 154
f 139 146 154
f 146 143 154
f 152 140 154
f 168 159 172
f 156 161 162
f 158 160 163
f 161 156 163
f 160 161 163
f 156 157 164
f 161 160 166
f 159 165 166
f 164 157 167
f 159 164 167
f 162 155 168
f 165 159 168
f 155 165 168
f 160 158 169
f 163 156 169
f 158 163 169
f 156 164 169
f 164 159 169
f 166 160 169
f 159 166 169
f 155 162 170
f 162 161 170
f 161 166 170
f 170 166 171
f 165 155 171
f 166 165 171
f 155 170 171
f 157 156 172
f 156 162 172
f 167 157 172
f 159 167 172
f 162 168 172
f 175 182 189
f 178 176 179
f 174 175 179
f 177 176 180
f 175 174 181
f 175 181 182
f 173 180 183
f 176 177 184
f 177 174 184
f 179 176 184
f 174 179 184
f 180 173 185
f 177 180 185
f 174 177 186
f 181 174 186
f 173 181 186
f 185 173 186
f 177 185 186
f 181 173 187
f 178 182 187
f 182 181 187
f 183 178 187
f 173 183 187
f 176 178 188
f 180 176 188
f 178 183 188
f 183 180 188
f 178 179 189
f 179 175 189
f 182 178 189
f 194 193 197
f 191 192 193
f 192 191 194
f 191 193 194
f 190 192 195
f 194 190 195
f 192 194 195
f 192 190 196
f 193 192 196
f 190 193 196
f 193 190 197
f 190 194 197
f 205 214 219
f 201 198 203
f 200 202 204
f 201 203 205
f 202 200 206
f 204 202 207
f 200 204 208
f 202 206 209
f 198 207 209
f 207 202 209
f 203 198 210
f 206 203 210
f 200 199 211
f 206 200 211
f 203 206 211
f 205 203 212
f 211 199 212
f 203 211 212
f 198 201 213
f 207 198 213
f 199 200 214
f 212 199 214
f 205 212 214
f 201 204 215
f 204 207 215
f 213 201 215
f 207 213 215
f 204 201 216
f 201 205 216
f 208 204 216
f 205 208 216
f 198 209 217
f 210 198 217
f 209 210 217
f 209 206 218
f 206 210 218
f 210 209 218
f 200 208 219
f 208 205 219
f 214 200 219
f 221 226 230
f 222 221 223
f 223 220 224
f 222 223 224
f 221 222 225
f 221 225 227
f 226 221 227
f 222 224 228
f 225 222 228
f 224 225 228
f 224 220 229
f 225 224 229
f 220 226 229
f 227 225 229
f 226 227 229
f 223 221 230
f 220 223 230
f 226 220 230
f 233 239 242
f 9 232 233
f 232 9 235
f 235 9 236
f 9 233 236
f 233 234 237
f 235 236 238
f 238 236 239
f 231 235 239
f 237 231 239
f 233 237 239
f 235 238 239
f 234 232 240
f 232 235 240
f 235 231 240
f 231 237 240
f 237 234 240
f 233 232 241
f 234 233 241
f 232 234 241
f 236 233 242
f 239 236 242
f 245 248 251
f 244 245 246
f 244 247 248
f 245 244 248
f 246 243 249
f 248 247 249
f 243 248 249
f 244 246 250
f 247 244 250
f 246 249 250
f 249 247 250
f 246 245 251
f 243 246 251
f 248 243 251
f 256 255 259
f 253 254 255
f 254 253 256
f 253 255 256
f 254 252 257
f 255 254 257
f 252 255 257
f 252 254 258
f 256 252 258
f 254 256 258
f 255 252 259
f 252 256 259
f 266 268 276
f 262 261 263
f 260 264 266
f 261 262 267
f 266 263 268
f 264 260 269
f 262 264 269
f 267 262 269
f 267 269 270
f 269 260 270
f 260 268 271
f 265 270 271
f 270 260 271
f 263 266 272
f 266 264 272
f 262 263 273
f 264 262 273
f 263 272 273
f 272 264 273
f 263 261 274
f 261 265 274
f 268 263 274
f 271 268 274
f 265 271 274
f 265 261 275
f 261 267 275
f 267 270 275
f 270 265 275
f 260 266 276
f 268 260 276
f 284 294 297
f 278 279 280
f 280 279 286
f 283 280 286
f 281 283 286
f 279 278 287
f 286 279 287
f 283 281 288
f 281 285 288
f 285 281 289
f 281 286 289
f 286 287 289
f 282 287 291
f 287 284 291
f 290 282 291
f 284 290 291
f 290 277 292
f 282 290 292
f 288 277 293
f 283 288 293
f 278 280 294
f 280 283 294
f 287 278 294
f 284 287 294
f 287 282 295
f 285 289 295
f 289 287 295
f 282 292 295
f 295 292 296
f 277 288 296
f 288 285 296
f 292 277 296
f 285 295 296
f 277 290 297
f 290 284 297
f 283 293 297
f 293 277 297
f 294 283 297
f 307 304 311
f 300 299 301
f 301 298 303
f 299 300 304
f 300 302 305
f 302 303 305
f 304 300 305
f 298 304 305
f 301 303 306
f 301 299 307
f 298 301 307
f 299 304 307
f 300 301 308
f 302 300 308
f 301 306 308
f 306 302 308
f 303 298 309
f 298 305 309
f 305 303 309
f 303 302 310
f 302 306 310
f 306 303 310
f 304 298 311
f 298 307 311
f 319 323 326
f 313 312 317
f 314 313 317
f 316 317 318
f 315 318 319
f 312 313 320
f 313 314 321
f 314 316 321
f 315 320 321
f 320 313 321
f 318 315 322
f 316 318 322
f 317 312 323
f 318 317 323
f 319 318 323
f 316 314 324
f 314 317 324
f 317 316 324
f 315 321 325
f 321 316 325
f 322 315 325
f 316 322 325
f 315 319 326
f 320 315 326
f 312 320 326
f 323 312 326
f 327 339 340
f 330 327 333
f 330 328 334
f 328 331 334
f 334 331 335
f 327 330 335
f 331 327 335
f 330 334 335
f 328 329 336
f 331 328 336
f 329 328 337
f 328 330 337
f 330 333 337
f 337 333 338
f 333 332 338
f 336 329 338
f 332 336 338
f 329 337 338
f 327 331 339
f 331 336 339
f 339 336 340
f 333 327 340
f 332 333 340
f 336 332 340
f 347 346 349
f 341 344 345
f 345 344 346
f 343 342 347
f 345 346 347
f 342 344 348
f 344 341 348
f 341 345 348
f 347 342 348
f 345 347 348
f 342 343 349
f 344 342 349
f 346 344 349
f 343 347 349
f 361 353 366
f 352 351 356
f 354 352 356
f 351 352 357
f 352 354 357
f 355 353 359
f 350 357 359
f 357 355 359
f 351 357 360
f 357 350 360
f 356 351 361
f 358 353 361
f 351 360 361
f 353 358 362
f 359 353 362
f 350 359 362
f 355 354 363
f 354 356 363
f 356 355 363
f 360 350 364
f 358 361 364
f 361 360 364
f 350 362 364
f 362 358 364
f 354 355 365
f 357 354 365
f 355 357 365
f 353 355 366
f 355 356 366
f 356 361 366
f 377 373 381
f 370 371 373
f 369 372 373
f 372 367 374
f 373 372 374
f 368 369 376
f 369 373 376
f 373 371 376
f 371 375 376
f 375 368 376
f 370 373 377
f 369 368 378
f 372 369 378
f 368 375 378
f 375 372 378
f 370 367 379
f 367 371 379
f 371 370 379
f 371 367 380
f 367 372 380
f 375 371 380
f 372 375 380
f 367 370 381
f 374 367 381
f 373 374 381
f 370 377 381
f 388 383 396
f 383 384 385
f 386 387 388
f 384 383 388
f 387 386 390
f 383 385 391
f 386 383 391
f 385 390 391
f 390 386 391
f 385 384 392
f 382 385 392
f 384 389 392
f 389 382 392
f 388 387 393
f 384 388 394
f 389 384 394
f 382 389 394
f 393 382 394
f 388 393 394
f 385 382 395
f 390 385 395
f 387 390 395
f 382 393 395
f 393 387 395
f 383 386 396
f 386 388 396
f 402 407 410
f 399 398 403
f 402 399 403
f 400 402 403
f 401 397 404
f 397 401 405
f 405 402 406
f 402 400 406
f 397 405 406
f 398 399 407
f 401 398 407
f 405 401 407
f 402 405 407
f 403 398 408
f 400 403 408
f 398 404 408
f 404 397 408
f 397 406 408
f 406 400 408
f 398 401 409
f 404 398 409
f 401 404 409
f 399 402 410
f 407 399 410
f 414 415 418
f 413 412 414
f 415 412 416
f 413 411 416
f 412 413 416
f 411 415 416
f 411 413 197
f 413 414 197
f 414 411 197
f 414 412 417
f 415 414 417
f 412 415 417
f 411 414 418
f 415 411 418
f 425 428 431
f 420 421 422
f 421 420 424
f 422 421 426
f 422 423 427
f 423 424 427
f 420 422 428
f 425 420 428
f 424 420 429
f 425 419 429
f 420 425 429
f 419 427 429
f 427 424 429
f 423 422 430
f 421 424 430
f 424 423 430
f 426 421 430
f 422 426 430
f 419 425 431
f 427 419 431
f 422 427 431
f 428 422 431
f 436 443 444
f 433 434 435
f 434 433 438
f 435 434 440
f 437 435 440
f 434 439 440
f 433 435 441
f 436 433 441
f 435 437 441
f 437 436 441
f 434 438 442
f 439 434 442
f 432 439 442
f 436 437 443
f 439 432 443
f 437 440 443
f 440 439 443
f 433 436 444
f 438 433 444
f 432 442 444
f 442 438 444
f 443 432 444
f 452 456 458
f 447 446 448
f 449 448 450
f 446 447 451
f 446 451 452
f 447 448 453
f 448 449 453
f 449 447 453
f 448 446 454
f 450 448 454
f 446 452 454
f 452 450 454
f 450 445 455
f 449 450 455
f 452 451 456
f 455 445 456
f 447 449 457
f 451 447 457
f 449 455 457
f 456 451 457
f 455 456 457
f 445 450 458
f 450 452 458
f 456 445 458
f 466 469 471
f 461 460 462
f 463 459 464
f 463 464 465
f 462 460 465
f 460 463 465
f 460 461 466
f 459 463 466
f 463 460 466
f 461 462 467
f 462 459 467
f 464 462 468
f 465 464 468
f 462 465 468
f 466 461 469
f 467 459 469
f 461 467 469
f 459 462 470
f 464 459 470
f 462 464 470
f 459 466 471
f 469 459 471
f 482 483 492
f 473 474 478
f 472 476 480
f 474 473 481
f 478 474 481
f 479 475 481
f 481 477 482
f 477 481 483
f 482 477 483
f 475 479 484
f 480 476 484
f 476 472 485
f 472 483 485
f 485 483 486
f 481 475 486
f 483 481 486
f 475 484 487
f 484 476 487
f 476 485 487
f 485 486 487
f 486 475 487
f 473 479 488
f 481 473 488
f 479 481 488
f 472 480 489
f 480 478 489
f 478 481 489
f 482 472 489
f 481 482 489
f 473 478 490
f 480 473 490
f 478 480 490
f 479 473 491
f 473 480 491
f 484 479 491
f 480 484 491
f 472 482 492
f 483 472 492
f 504 506 511
f 494 495 496
f 496 495 497
f 495 494 498
f 498 493 500
f 493 496 502
f 496 497 502
f 497 500 502
f 495 498 503
f 500 497 503
f 498 500 503
f 498 494 504
f 493 498 504
f 500 493 505
f 493 502 505
f 502 500 505
f 504 494 506
f 496 493 507
f 493 499 507
f 497 495 508
f 495 503 508
f 503 497 508
f 494 496 509
f 496 501 509
f 501 499 509
f 506 494 509
f 499 506 509
f 501 496 510
f 499 501 510
f 496 507 510
f 507 499 510
f 499 493 511
f 493 504 511
f 506 499 511
f 516 513 518
f 514 513 515
f 513 516 517
f 515 513 517
f 512 515 517
f 516 512 517
f 513 514 518
f 514 515 518
f 515 512 518
f 512 516 518
f 523 529 531
f 520 521 522
f 521 520 514
f 520 522 524
f 523 521 525
f 521 514 525
f 514 523 525
f 524 519 526
f 522 521 527
f 523 522 527
f 521 523 527
f 519 524 528
f 524 522 528
f 523 514 529
f 514 526 529
f 526 519 529
f 519 528 529
f 528 522 529
f 514 520 530
f 520 524 530
f 526 514 530
f 524 526 530
f 522 523 531
f 529 522 531
f 544 537 545
f 533 534 535
f 533 535 540
f 535 538 540
f 538 536 540
f 537 536 541
f 538 532 541
f 536 538 541
f 532 539 541
f 535 534 542
f 534 539 542
f 539 532 542
f 538 535 543
f 532 538 543
f 535 542 543
f 542 532 543
f 534 533 544
f 536 537 544
f 533 540 544
f 540 536 544
f 539 534 545
f 537 541 545
f 541 539 545
f 534 544 545
f 555 558 559
f 548 546 551
f 549 551 552
f 549 552 553
f 547 548 553
f 548 551 554
f 551 549 554
f 549 553 554
f 553 548 554
f 546 550 555
f 546 548 556
f 548 547 556
f 550 546 556
f 547 553 556
f 553 550 556
f 553 552 557
f 550 553 557
f 552 551 558
f 555 550 558
f 550 557 558
f 557 552 558
f 551 546 559
f 546 555 559
f 558 551 559
f 560 569 570
f 563 561 564
f 561 562 565
f 564 561 566
f 561 565 566
f 560 565 567
f 567 565 568
f 562 561 568
f 561 563 568
f 565 562 568
f 563 567 568
f 563 564 569
f 560 567 569
f 567 563 569
f 565 560 570
f 566 565 570
f 564 566 570
f 569 564 570
f 580 571 581
f 573 572 574
f 575 577 578
f 572 573 578
f 573 575 578
f 576 572 578
f 571 576 578
f 577 571 578
f 573 574 579
f 575 573 579
f 574 577 579
f 577 575 579
f 574 572 580
f 572 576 580
f 576 571 580
f 577 574 581
f 571 577 581
f 574 580 581
f 589 592 599
f 584 583 585
f 586 585 589
f 585 586 590
f 586 584 590
f 586 589 591
f 582 587 593
f 588 582 593
f 584 586 594
f 588 584 594
f 582 588 594
f 591 582 594
f 586 591 594
f 585 583 595
f 587 592 595
f 592 585 595
f 593 587 595
f 584 585 596
f 590 584 596
f 585 590 596
f 589 585 597
f 585 592 597
f 592 589 597
f 583 584 598
f 584 588 598
f 588 593 598
f 595 583 598
f 593 595 598
f 587 582 599
f 582 591 599
f 591 589 599
f 592 587 599
f 600 607 609
f 602 601 603
f 602 603 605
f 603 600 605
f 601 602 606
f 604 601 606
f 602 605 606
f 604 606 607
f 600 603 607
f 603 604 607
f 603 601 608
f 604 603 608
f 601 604 608
f 605 600 609
f 606 605 609
f 607 606 609
f 625 611 626
f 612 611 616
f 611 612 619
f 612 616 619
f 616 614 619
f 614 617 619
f 618 615 620
f 613 610 621
f 610 614 621
f 616 613 621
f 614 616 621
f 616 611 622
f 613 616 622
f 618 613 622
f 614 610 623
f 617 614 623
f 610 620 623
f 620 615 623
f 610 613 624
f 613 618 624
f 620 610 624
f 618 620 624
f 615 618 625
f 622 611 625
f 618 622 625
f 611 619 626
f 619 617 626
f 617 623 626
f 623 615 626
f 615 625 626
f 640 627 645
f 630 631 632
f 629 628 634
f 630 632 635
f 631 630 636
f 629 631 636
f 627 634 638
f 635 632 640
f 628 629 641
f 630 635 641
f 635 633 641
f 629 636 641
f 636 630 641
f 637 628 641
f 633 637 641
f 631 629 642
f 629 634 642
f 634 627 642
f 627 639 642
f 639 631 642
f 632 631 643
f 639 627 643
f 631 639 643
f 640 632 643
f 627 640 643
f 634 628 644
f 628 637 644
f 637 633 644
f 638 634 644
f 633 638 644
f 633 635 645
f 627 638 645
f 638 633 645
f 635 640 645
f 656 654 664
f 647 648 652
f 647 652 655
f 650 651 656
f 651 654 656
f 655 650 656
f 647 655 656
f 653 646 657
f 651 650 658
f 654 651 658
f 657 646 658
f 650 657 658
f 652 648 659
f 649 652 659
f 648 654 660
f 659 648 660
f 657 649 661
f 653 657 661
f 649 659 661
f 660 653 661
f 659 660 661
f 652 649 662
f 650 655 662
f 655 652 662
f 657 650 662
f 649 657 662
f 646 653 663
f 654 658 663
f 658 646 663
f 653 660 663
f 660 654 663
f 648 647 664
f 654 648 664
f 647 656 664
f 673 671 679
f 667 666 668
f 666 667 669
f 670 665 673
f 669 670 673
f 665 671 673
f 665 670 674
f 670 668 674
f 667 668 675
f 669 667 675
f 670 669 675
f 668 666 676
f 666 672 676
f 674 668 676
f 672 674 676
f 668 670 677
f 675 668 677
f 670 675 677
f 666 671 678
f 671 665 678
f 672 666 678
f 665 674 678
f 674 672 678
f 666 669 679
f 671 666 679
f 669 673 679
f 687 684 692
f 681 682 683
f 682 681 686
f 681 683 687
f 685 684 688
f 680 686 688
f 686 685 688
f 684 683 689
f 683 686 689
f 686 680 689
f 680 688 689
f 688 684 689
f 683 682 690
f 682 686 690
f 686 683 690
f 683 684 691
f 687 683 691
f 684 687 691
f 684 685 692
f 686 681 692
f 685 686 692
f 681 687 692
f 696 701 706
f 695 694 699
f 694 697 699
f 696 697 701
f 697 694 701
f 698 693 702
f 695 699 702
f 700 695 702
f 693 700 702
f 697 696 703
f 693 698 703
f 698 697 703
f 697 698 704
f 699 697 704
f 698 702 704
f 702 699 704
f 696 695 705
f 695 700 705
f 700 693 705
f 703 696 705
f 693 703 705
f 694 695 706
f 695 696 706
f 701 694 706
f 721 713 723
f 709 708 710
f 710 708 714
f 708 709 715
f 711 712 715
f 712 708 715
f 711 710 716
f 712 711 716
f 710 714 716
f 709 710 717
f 710 711 717
f 708 712 719
f 714 708 719
f 713 714 719
f 718 713 719
f 712 718 719
f 715 709 720
f 711 715 720
f 709 717 720
f 717 711 720
f 707 714 721
f 714 713 721
f 714 707 722
f 712 716 722
f 716 714 722
f 707 718 722
f 718 712 722
f 718 707 723
f 713 718 723
f 707 721 723
f 733 731 738
f 726 725 730
f 725 726 731
f 727 725 731
f 725 727 732
f 728 725 732
f 727 729 732
f 729 728 732
f 729 724 734
f 728 729 734
f 724 733 734
f 733 730 734
f 724 729 735
f 733 724 735
f 731 733 735
f 725 728 736
f 730 725 736
f 728 734 736
f 734 730 736
f 729 727 737
f 727 731 737
f 735 729 737
f 731 735 737
f 726 730 738
f 731 726 738
f 730 733 738
f 744 749 754
f 741 740 742
f 743 739 747
f 746 742 747
f 741 742 748
f 742 746 748
f 740 741 749
f 744 745 749
f 745 743 749
f 742 740 750
f 740 749 750
f 749 743 750
f 743 747 751
f 747 742 751
f 742 750 751
f 750 743 751
f 744 746 752
f 746 747 752
f 747 739 752
f 739 743 753
f 745 744 753
f 743 745 753
f 752 739 753
f 744 752 753
f 746 744 754
f 741 748 754
f 748 746 754
f 749 741 754
f 761 758 766
f 757 756 755
f 755 756 760
f 756 757 761
f 759 758 761
f 758 759 762
f 757 755 763
f 761 757 763
f 759 761 763
f 756 758 764
f 760 756 764
f 758 762 764
f 762 760 764
f 755 760 765
f 762 759 765
f 760 762 765
f 763 755 765
f 759 763 765
f 758 756 766
f 756 761 766
f 775 781 783
f 770 768 773
f 768 769 775
f 773 768 775
f 771 773 775
f 770 773 777
f 773 771 777
f 771 775 778
f 774 770 779
f 772 774 779
f 767 776 779
f 776 772 779
f 777 767 779
f 770 777 779
f 769 768 780
f 768 770 780
f 770 774 780
f 780 774 781
f 774 772 781
f 775 769 781
f 769 780 781
f 776 767 782
f 767 777 782
f 777 771 782
f 771 778 782
f 778 776 782
f 772 776 783
f 778 775 783
f 776 778 783
f 781 772 783
f 797 791 798
f 784 788 789
f 785 786 790
f 784 789 790
f 789 787 790
f 788 784 791
f 788 791 792
f 784 790 793
f 791 784 793
f 790 787 794
f 788 792 794
f 787 789 795
f 789 788 795
f 794 787 795
f 788 794 795
f 790 786 796
f 786 793 796
f 793 790 796
f 785 790 797
f 792 791 797
f 790 794 797
f 794 792 797
f 786 785 798
f 793 786 798
f 791 793 798
f 785 797 798
f 805 800 810
f 804 802 805
f 801 800 805
f 803 799 806
f 804 800 806
f 799 804 806
f 799 803 807
f 804 799 807
f 802 804 807
f 805 802 807
f 805 807 808
f 801 805 808
f 807 803 808
f 808 803 809
f 800 801 809
f 806 800 809
f 803 806 809
f 801 808 809
f 800 804 810
f 804 805 810
f 819 811 820
f 813 812 814
f 812 815 816
f 814 812 816
f 813 814 817
f 812 813 818
f 815 812 818
f 817 811 818
f 813 817 818
f 816 815 819
f 818 811 819
f 815 818 819
f 814 816 820
f 811 817 820
f 817 814 820
f 816 819 820
f 828 821 831
f 822 823 824
f 824 823 825
f 825 821 826
f 824 825 826
f 822 824 827
f 826 821 829
f 824 826 829
f 827 824 829
f 827 829 830
f 822 827 830
f 828 822 830
f 821 828 830
f 829 821 830
f 823 822 831
f 821 825 831
f 825 823 831
f 822 828 831
f 841 836 845
f 834 833 835
f 837 832 839
f 833 834 840
f 834 836 840
f 837 833 840
f 834 835 841
f 835 838 841
f 838 836 841
f 832 838 842
f 838 835 842
f 835 839 842
f 839 832 842
f 835 833 843
f 833 837 843
f 839 835 843
f 837 839 843
f 832 837 844
f 838 832 844
f 836 838 844
f 840 836 844
f 837 840 844
f 836 834 845
f 834 841 845
f 850 855 858
f 847 848 851
f 848 847 853
f 851 848 853
f 847 852 853
f 853 852 854
f 850 849 854
f 852 850 854
f 849 853 854
f 849 846 855
f 850 851 855
f 851 853 855
f 853 849 855
f 847 851 856
f 851 850 856
f 852 847 857
f 850 852 857
f 847 856 857
f 856 850 857
f 846 849 858
f 849 850 858
f 855 846 858
f 870 863 872
f 860 861 863
f 862 859 865
f 863 865 866
f 860 863 867
f 864 860 867
f 866 864 867
f 862 860 868
f 859 862 868
f 860 864 868
f 868 864 869
f 865 859 869
f 864 866 869
f 866 865 869
f 859 868 869
f 865 863 870
f 862 865 870
f 863 866 871
f 867 863 871
f 866 867 871
f 861 860 872
f 860 862 872
f 863 861 872
f 862 870 872
f 882 876 883
f 874 875 876
f 875 874 877
f 876 875 879
f 875 878 879
f 874 876 880
f 877 874 880
f 877 873 881
f 875 877 881
f 878 875 881
f 873 877 882
f 880 876 882
f 877 880 882
f 876 879 883
f 879 878 883
f 881 873 883
f 878 881 883
f 873 882 883
f 898 897 904
f 886 885 887
f 885 886 890
f 891 888 893
f 884 891 895
f 887 892 895
f 893 887 895
f 891 893 895
f 885 890 896
f 890 886 897
f 888 891 897
f 894 889 898
f 889 896 898
f 896 890 898
f 890 897 898
f 886 887 899
f 893 886 899
f 887 893 899
f 889 894 900
f 900 894 901
f 894 884 901
f 884 895 901
f 895 892 901
f 892 900 901
f 887 885 902
f 892 887 902
f 885 896 902
f 896 889 902
f 889 900 902
f 900 892 902
f 886 893 903
f 893 888 903
f 897 886 903
f 888 897 903
f 891 884 904
f 884 894 904
f 897 891 904
f 894 898 904
f 908 906 909
f 907 906 908
f 905 907 908
f 905 908 909
f 907 905 909
f 906 907 909
f 925 924 927
f 911 912 913
f 912 911 914
f 914 911 917
f 915 914 918
f 911 913 919
f 914 915 920
f 910 917 921
f 917 911 921
f 911 919 921
f 919 916 921
f 913 912 922
f 920 915 922
f 917 910 923
f 914 917 923
f 910 918 923
f 918 914 923
f 918 910 924
f 910 921 924
f 921 916 924
f 915 918 925
f 913 922 925
f 922 915 925
f 918 924 925
f 912 914 926
f 914 920 926
f 922 912 926
f 920 922 926
f 919 913 927
f 916 919 927
f 924 916 927
f 913 925 927
f 938 935 941
f 930 929 931
f 931 929 932
f 932 929 935
f 934 928 936
f 929 930 937
f 935 929 937
f 933 935 937
f 936 933 937
f 930 936 937
f 934 931 938
f 928 934 938
f 932 935 938
f 930 931 939
f 931 934 939
f 936 930 939
f 934 936 939
f 931 932 940
f 938 931 940
f 932 938 940
f 935 933 941
f 936 928 941
f 933 936 941
f 928 938 941
f 949 942 950
f 944 943 945
f 944 945 946
f 944 946 947
f 943 944 947
f 946 942 947
f 945 943 948
f 943 947 949
f 947 942 949
f 948 943 949
f 948 949 950
f 942 946 950
f 946 945 950
f 945 948 950
f 963 956 964
f 951 954 958
f 955 951 958
f 954 955 958
f 952 953 959
f 955 954 959
f 953 955 959
f 953 952 960
f 955 953 960
f 952 956 960
f 954 951 961
f 957 954 961
f 956 952 962
f 954 957 962
f 957 956 962
f 952 959 962
f 959 954 962
f 951 955 963
f 955 960 963
f 960 956 963
f 956 957 964
f 961 951 964
f 957 961 964
f 951 963 964
f 974 327 983
f 967 966 327
f 966 967 971
f 966 970 972
f 967 327 973
f 327 969 973
f 969 327 974
f 974 965 975
f 965 327 976
f 972 970 976
f 968 967 977
f 969 968 977
f 967 973 977
f 973 969 977
f 968 969 978
f 969 974 978
f 975 968 978
f 974 975 978
f 975 965 979
f 971 975 979
f 965 976 979
f 976 970 979
f 967 968 980
f 971 967 980
f 968 975 980
f 975 971 980
f 327 966 981
f 966 972 981
f 976 327 981
f 972 976 981
f 970 966 982
f 966 971 982
f 979 970 982
f 971 979 982
f 327 965 983
f 965 974 983
f 984 993 994
f 985 986 987
f 988 987 989
f 986 984 990
f 987 986 991
f 989 987 991
f 986 990 991
f 985 987 992
f 987 988 992
f 988 985 992
f 984 986 993
f 986 985 993
f 985 988 993
f 993 988 994
f 988 989 994
f 990 984 994
f 989 991 994
f 991 990 994
f 991 999 1003
f 995 998 999
f 997 996 991
f 995 999 991
f 995 991 1000
f 998 995 1000
f 991 996 1000
f 999 998 1001
f 997 999 1001
f 996 997 1002
f 1000 996 1002
f 998 1000 1002
f 997 1001 1002
f 1001 998 1002
f 999 997 1003
f 997 991 1003
f 1010 1008 1021
f 1005 1006 1007
f 1004 1008 1010
f 1005 1007 1012
f 1007 1008 1012
f 1008 1004 1014
f 1012 1008 1014
f 1004 1010 1015
f 1007 1006 1016
f 1010 1007 1016
f 1009 1015 1016
f 1015 1010 1016
f 1013 1011 1017
f 1014 1004 1017
f 1011 1014 1017
f 1013 1009 1018
f 1006 1013 1018
f 1016 1006 1018
f 1009 1016 1018
f 1006 1005 1019
f 1005 1012 1019
f 1013 1006 1019
f 1011 1013 1019
f 1014 1011 1019
f 1012 1014 1019
f 1009 1013 1020
f 1015 1009 1020
f 1004 1015 1020
f 1017 1004 1020
f 1013 1017 1020
f 1008 1007 1021
f 1007 1010 1021
f 1025 1035 1039
f 1026 1028 1029
f 1029 1022 1031
f 1026 1029 1031
f 1025 1023 1032
f 1026 1031 1032
f 1028 1026 1033
f 1032 1023 1033
f 1026 1032 1033
f 1023 1024 1034
f 1024 1030 1034
f 1030 1027 1034
f 1033 1023 1034
f 1030 1024 1035
f 1031 1030 1035
f 1029 1027 1036
f 1022 1029 1036
f 1027 1030 1036
f 1031 1022 1036
f 1030 1031 1036
f 1027 1029 1037
f 1029 1028 1037
f 1028 1033 1037
f 1034 1027 1037
f 1033 1034 1037
f 1025 1032 1038
f 1032 1031 1038
f 1035 1025 1038
f 1031 1035 1038
f 1024 1023 1039
f 1023 1025 1039
f 1035 1024 1039
f 1044 1045 1053
f 1045 1044 1046
f 1042 1040 1047
f 1041 1042 1048
f 1046 1041 1048
f 1043 1046 1048
f 1042 1047 1048
f 1047 1043 1048
f 1040 1045 1049
f 1045 1043 1049
f 1047 1040 1049
f 1043 1047 1049
f 1043 1045 1050
f 1045 1046 1050
f 1046 1043 1050
f 1040 1042 1051
f 1042 1041 1051
f 1044 1040 1051
f 1044 1051 1052
f 1046 1044 1052
f 1041 1046 1052
f 1051 1041 1052
f 1040 1044 1053
f 1045 1040 1053
f 1069 1065 1070
f 1056 1055 1057
f 1055 1056 1059
f 1059 1056 1061
f 1061 1058 1062
f 1056 1057 1063
f 1057 1062 1063
f 1062 1058 1063
f 1059 1061 1064
f 1062 1054 1064
f 1061 1062 1064
f 1058 1061 1066
f 1061 1056 1066
f 1056 1063 1066
f 1063 1058 1066
f 1055 1059 1067
f 1060 1055 1067
f 1059 1065 1067
f 1065 1060 1067
f 1057 1055 1068
f 1055 1060 1068
f 1062 1057 1068
f 1062 1068 1069
f 1054 1062 1069
f 1060 1065 1069
f 1068 1060 1069
f 1064 1054 1070
f 1059 1064 1070
f 1065 1059 1070
f 1054 1069 1070
f 1076 1084 1085
f 1071 1072 1078
f 1072 1073 1078
f 1076 1075 1078
f 1074 1077 1079
f 1079 1077 1080
f 1077 1071 1080
f 1071 1078 1080
f 1078 1075 1080
f 1075 1079 1080
f 1073 1072 1081
f 1072 1077 1081
f 1072 1071 1082
f 1077 1072 1082
f 1071 1077 1082
f 1078 1073 1083
f 1076 1078 1083
f 1073 1081 1083
f 1083 1081 1084
f 1077 1074 1084
f 1081 1077 1084
f 1076 1083 1084
f 1075 1076 1085
f 1079 1075 1085
f 1074 1079 1085
f 1084 1074 1085
f 1097 1094 1101
f 1087 1086 1093
f 1088 1087 1093
f 1089 1092 1094
f 1090 1091 1095
f 1092 1093 1096
f 1093 1086 1096
f 1094 1092 1096
f 1086 1087 1097
f 1087 1088 1097
f 1089 1094 1097
f 1088 1095 1097
f 1091 1090 1098
f 1092 1089 1098
f 1090 1092 1098
f 1092 1090 1099
f 1093 1092 1099
f 1088 1093 1099
f 1095 1088 1099
f 1090 1095 1099
f 1095 1091 1100
f 1089 1097 1100
f 1097 1095 1100
f 1091 1098 1100
f 1098 1089 1100
f 1096 1086 1101
f 1094 1096 1101
f 1086 1097 1101
f 1106 1110 1112
f 1103 1104 1105
f 1103 1105 1106
f 1103 1106 1107
f 1108 1107 1109
f 1107 1106 1109
f 1102 1108 1109
f 1105 1104 1110
f 1106 1105 1110
f 1108 1102 1110
f 1108 1110 1111
f 1104 1103 1111
f 1103 1107 1111
f 1107 1108 1111
f 1110 1104 1111
f 1102 1109 1112
f 1109 1106 1112
f 1110 1102 1112
f 1122 1121 1127
f 1115 1114 1116
f 1115 1117 1118
f 1116 1114 1119
f 1114 1115 1120
f 1115 1118 1120
f 1117 1116 1121
f 1116 1119 1121
f 1118 1117 1122
f 1117 1121 1122
f 1115 1116 1123
f 1116 1117 1123
f 1117 1115 1123
f 1120 1118 1124
f 1118 1122 1124
f 1122 1113 1124
f 1113 1119 1125
f 1120 1124 1125
f 1124 1113 1125
f 1119 1114 1126
f 1114 1120 1126
f 1125 1119 1126
f 1120 1125 1126
f 1119 1113 1127
f 1121 1119 1127
f 1113 1122 1127
f 1131 1138 1144
f 1129 1130 1131
f 1130 1129 1132
f 1128 1132 1134
f 1131 1130 1135
f 1129 1131 1136
f 1132 1129 1136
f 1132 1128 1137
f 1130 1132 1137
f 1133 1130 1137
f 1134 1132 1139
f 1132 1136 1139
f 1136 1134 1139
f 1131 1134 1140
f 1136 1131 1140
f 1134 1136 1140
f 1135 1133 1141
f 1137 1128 1141
f 1133 1137 1141
f 1128 1138 1141
f 1138 1135 1141
f 1131 1135 1142
f 1138 1131 1142
f 1135 1138 1142
f 1130 1133 1143
f 1135 1130 1143
f 1133 1135 1143
f 1134 1131 1144
f 1128 1134 1144
f 1138 1128 1144
f 1153 1151 1156
f 1147 1146 1151
f 1149 1148 1151
f 1146 1149 1151
f 1146 1147 1152
f 1149 1146 1152
f 1145 1150 1152
f 1147 1151 1153
f 1145 1152 1153
f 1152 1147 1153
f 1145 1148 1154
f 1148 1149 1154
f 1149 1150 1154
f 1150 1145 1154
f 1150 1149 1155
f 1149 1152 1155
f 1152 1150 1155
f 1148 1145 1156
f 1151 1148 1156
f 1145 1153 1156
f 1167 1157 1170
f 1158 1159 1160
f 1160 1162 1163
f 1157 1161 1163
f 1161 1160 1163
f 1162 1160 1164
f 1160 1159 1166
f 1164 1160 1166
f 1162 1164 1166
f 1159 1165 1166
f 1165 1157 1167
f 1162 1166 1167
f 1166 1165 1167
f 1158 1160 1168
f 1160 1161 1168
f 1161 1158 1168
f 1159 1158 1169
f 1161 1157 1169
f 1158 1161 1169
f 1157 1165 1169
f 1165 1159 1169
f 1163 1162 1170
f 1157 1163 1170
f 1162 1167 1170
f 1180 1179 1186
f 1173 1172 1171
f 1176 1174 1178
f 1176 1172 1179
f 1175 1179 1180
f 1176 1178 1181
f 1172 1176 1182
f 1181 1177 1182
f 1176 1181 1182
f 1174 1176 1183
f 1178 1174 1183
f 1179 1175 1183
f 1176 1179 1183
f 1180 1178 1183
f 1175 1180 1183
f 1173 1171 1184
f 1171 1177 1184
f 1180 1173 1184
f 1178 1180 1184
f 1177 1181 1184
f 1181 1178 1184
f 1171 1172 1185
f 1177 1171 1185
f 1172 1182 1185
f 1182 1177 1185
f 1172 1173 1186
f 1179 1172 1186
f 1173 1180 1186
f 1193 1198 1199
f 1188 1189 1190
f 1189 1188 1192
f 1187 1191 1194
f 1191 1190 1194
f 1192 1187 1194
f 1188 1190 1195
f 1190 1191 1195
f 1190 1189 1196
f 1189 1192 1196
f 1194 1190 1196
f 1192 1194 1196
f 1193 1188 1197
f 1188 1195 1197
f 1195 1191 1197
f 1191 1187 1198
f 1193 1197 1198
f 1197 1191 1198
f 1192 1188 1199
f 1187 1192 1199
f 1188 1193 1199
f 1198 1187 1199
f 1203 1208 1214
f 1202 1201 1203
f 1201 1202 1204
f 1204 1202 1207
f 1205 1207 1208
f 1207 1202 1208
f 1203 1201 1209
f 1208 1203 1209
f 1205 1200 1210
f 1204 1207 1210
f 1207 1205 1210
f 1200 1205 1211
f 1206 1204 1211
f 1205 1208 1211
f 1209 1206 1211
f 1208 1209 1211
f 1210 1200 1211
f 1204 1210 1211
f 1201 1204 1212
f 1209 1201 1212
f 1204 1209 1212
f 1204 1206 1213
f 1209 1204 1213
f 1206 1209 1213
f 1202 1203 1214
f 1208 1202 1214
f 1222 1224 1226
f 1217 1216 1218
f 1218 1216 1219
f 1217 1218 1220
f 1215 1219 1221
f 1219 1215 1222
f 1218 1219 1222
f 1216 1217 1223
f 1217 1220 1223
f 1215 1221 1223
f 1221 1219 1223
f 1220 1218 1224
f 1222 1215 1224
f 1215 1223 1224
f 1223 1220 1224
f 1219 1216 1225
f 1216 1223 1225
f 1223 1219 1225
f 1218 1222 1226
f 1224 1218 1226
f 1227 1236 1240
f 1228 1229 1230
f 1230 1229 1231
f 1229 1228 1232
f 1230 1231 1234
f 1232 1228 1235
f 1233 1227 1235
f 1231 1232 1236
f 1234 1231 1236
f 1231 1229 1237
f 1229 1232 1237
f 1232 1231 1237
f 1227 1233 1238
f 1233 1234 1238
f 1236 1227 1238
f 1234 1236 1238
f 1228 1230 1239
f 1230 1234 1239
f 1234 1233 1239
f 1235 1228 1239
f 1233 1235 1239
f 1232 1235 1240
f 1235 1227 1240
f 1236 1232 1240
f 1247 309 1250
f 305 1242 1243
f 1242 305 303
f 305 1243 1245
f 303 1241 1246
f 1242 303 302
f 1241 303 1247
f 1243 1242 1248
f 1241 1243 1248
f 1246 1241 1248
f 302 1246 1248
f 1242 302 1248
f 1243 1241 1249
f 1245 1243 1249
f 1244 1245 1249
f 1241 1247 1249
f 1247 1244 1249
f 303 305 309
f 1247 303 309
f 303 1246 310
f 302 303 310
f 1246 302 310
f 305 1245 1250
f 1245 1244 1250
f 1244 1247 1250
f 309 305 1250
f 1263 1265 1271
f 1254 1251 1258
f 1258 1251 1260
f 1256 1258 1260
f 1255 1257 1261
f 1259 1255 1261
f 1252 1253 1262
f 1258 1256 1262
f 1253 1252 1263
f 1260 1251 1264
f 1260 1264 1265
f 1255 1259 1265
f 1256 1260 1265
f 1263 1256 1265
f 1264 1255 1265
f 1262 1253 1266
f 1258 1262 1266
f 1253 1259 1267
f 1261 1257 1267
f 1259 1261 1267
f 1266 1253 1267
f 1257 1266 1267
f 1251 1254 1268
f 1254 1258 1268
f 1264 1251 1268
f 1257 1264 1268
f 1266 1257 1268
f 1258 1266 1268
f 1252 1262 1269
f 1262 1256 1269
f 1263 1252 1269
f 1256 1263 1269
f 1257 1255 1270
f 1255 1264 1270
f 1264 1257 1270
f 1259 1253 1271
f 1253 1263 1271
f 1265 1259 1271
f 1277 1280 1285
f 1275 1272 1276
f 1274 1273 1277
f 1274 1277 1278
f 1274 1278 1279
f 1275 1276 1281
f 1276 1272 1282
f 1277 1273 1282
f 1272 1280 1282
f 1280 1277 1282
f 1273 1281 1282
f 1281 1276 1282
f 1272 1275 1283
f 1278 1272 1283
f 1279 1278 1283
f 1275 1279 1283
f 1273 1274 1284
f 1274 1279 1284
f 1279 1275 1284
f 1281 1273 1284
f 1275 1281 1284
f 1278 1277 1285
f 1272 1278 1285
f 1280 1272 1285
f 1291 1296 1299
f 1288 1287 1289
f 1291 1286 1292
f 1288 1289 1293
f 1290 1293 1294
f 1289 1292 1294
f 1293 1289 1294
f 1286 1291 1295
f 1288 1293 1295
f 1289 1287 1296
f 1292 1289 1296
f 1291 1292 1296
f 1293 1290 1297
f 1286 1295 1297
f 1295 1293 1297
f 1292 1286 1298
f 1290 1294 1298
f 1294 1292 1298
f 1286 1297 1298
f 1297 1290 1298
f 1287 1288 1299
f 1295 1291 1299
f 1288 1295 1299
f 1296 1287 1299
f 1306 1309 1312
f 1302 1301 1305
f 1304 1300 1307
f 1303 1305 1307
f 1306 1303 1307
f 1300 1306 1307
f 1302 1305 1309
f 1306 1302 1309
f 1305 1301 1310
f 1304 1307 1310
f 1307 1305 1310
f 1301 1308 1310
f 1308 1304 1310
f 1301 1302 1311
f 1300 1304 1311
f 1306 1300 1311
f 1302 1306 1311
f 1308 1301 1311
f 1304 1308 1311
f 1305 1303 1312
f 1303 1306 1312
f 1309 1305 1312
f 1315 1321 1324
f 1315 1314 1201
f 1207 1201 1317
f 1314 1315 1318
f 1317 1316 1318
f 1201 1314 1212
f 1317 1201 1212
f 1314 1318 1319
f 1212 1314 1319
f 1315 1201 1320
f 1201 1207 1320
f 1320 1207 1321
f 1315 1320 1321
f 1316 1317 1322
f 1317 1212 1322
f 1319 1316 1322
f 1212 1319 1322
f 1313 1207 1210
f 1207 1317 1210
f 1318 1313 1210
f 1317 1318 1210
f 1318 1316 1323
f 1319 1318 1323
f 1316 1319 1323
f 1207 1313 1324
f 1313 1318 1324
f 1318 1315 1324
f 1321 1207 1324
f 1330 1333 1334
f 1326 1327 1328
f 1327 1326 1329
f 1326 1328 1329
f 1328 1327 1331
f 1325 1328 1331
f 1330 1325 1331
f 1328 1325 1332
f 1325 1329 1332
f 1329 1328 1332
f 1331 1327 1333
f 1330 1331 1333
f 1329 1325 1334
f 1327 1329 1334
f 1325 1330 1334
f 1333 1327 1334
f 1344 1339 1349
f 1339 1335 1340
f 1338 1336 1341
f 1339 1340 1342
f 1340 1336 1342
f 1340 1335 1343
f 1337 1336 1344
f 1335 1338 1345
f 1338 1341 1345
f 1343 1335 1345
f 1341 1343 1345
f 1336 1340 1346
f 1341 1336 1346
f 1340 1343 1346
f 1343 1341 1346
f 1338 1335 1347
f 1335 1339 1347
f 1347 1339 1348
f 1336 1338 1348
f 1344 1336 1348
f 1339 1344 1348
f 1338 1347 1348
f 1336 1337 1349
f 1342 1336 1349
f 1339 1342 1349
f 1337 1344 1349

