# https://github.com/mikedh/trimesh

o convex_0
v -8.85258200 -1.64686800 0.26755000
v -8.88247100 -1.78134400 0.25278700
v -8.86752100 -1.76638900 0.19313000
v -8.82269200 -1.78134400 3.27085400
v -8.88247100 -1.64686800 3.27085400
v -8.88247100 2.59678400 2.47859500
v -8.86752700 2.59725300 3.27085400
v -8.85258300 3.14995500 0.26726300
v -8.85258600 -1.64685400 0.19282900
v -8.88246900 -1.64685400 0.25279800
v -8.88246900 -1.64685400 3.27085400
v -8.88247100 3.15042400 0.25249700
v -8.86752700 -1.64685400 3.27085400
v -8.88247100 3.15042400 3.27055200
v 9.84335600 -1.76638800 0.19313000
v 10.08247200 -1.57213100 3.27085400
v 10.06751600 -1.57213100 3.27085400
v 9.88822500 -1.78131700 3.27085400
v 9.87326800 -1.60204900 3.27085400
v 10.08247200 -1.57213100 0.19313000
v 9.85831200 -1.58710000 0.19313000
v 10.08247200 -1.61699900 0.19313000
v 9.84335600 -1.76638800 3.27085400
v 9.88822500 -1.78131700 0.25278700
v 10.05258600 -1.57213100 0.20789400
v 10.08247100 3.15042400 3.27085400
v 10.08247100 3.15042400 0.19313000
v 10.05258600 3.15042400 0.19313000
v 10.08246800 -1.57213100 0.19313000
v 10.06752800 -1.57213100 3.27085400
v 10.06752800 3.15042400 3.27085400
v 10.08246800 -1.57213100 3.27085400
v -8.86748000 3.15042400 0.19313000
v -8.04556300 3.37459600 3.27085400
v -8.04556300 3.35960900 3.27085400
v -8.88247100 3.19529800 3.27085400
v -8.65817100 3.37459600 0.25278700
v -8.65817100 3.37459600 3.27085400
v -8.62835100 3.16541200 0.19313000
v -8.64326100 3.18033300 3.27085400
v -8.86748000 3.15042400 3.27085400
v -8.88247100 3.19529800 0.25278700
v 9.90317000 3.37459600 3.27085400
v 10.05256500 3.15042400 0.19313000
v 10.08243700 3.15042400 0.19313000
v 9.99280300 3.37459600 0.19313000
v 10.08243700 3.21022000 3.27085400
v 10.02267500 3.37459600 3.27085400
v 9.99280300 3.18033300 0.19313000
v 10.06750100 3.15042400 3.27085400
v 10.02267500 3.37459600 0.19313000
v -5.46030400 -1.79631000 2.31468800
v -7.40274700 -1.87102600 0.71559500
v -7.40274700 -1.79631000 0.71559500
v -7.40274700 -1.87102600 2.31468800
v -5.46030400 -1.87102600 0.71559500
v -5.46030400 -1.87102600 2.31468800
v -5.46030400 -1.79631000 0.71559500
v -7.40274700 -1.79631000 2.31468800
v -1.45490900 -1.79631000 2.31468800
v -3.39773200 -1.87102600 0.71559500
v -3.39773200 -1.79631000 0.71559500
v -3.39773200 -1.87102600 2.31468800
v -1.45490900 -1.87102600 0.71559500
v -1.45490900 -1.87102600 2.31468800
v -1.45490900 -1.79631000 0.71559500
v -3.39773200 -1.79631000 2.31468800
v 9.84152800 -1.76641300 3.27115500
v -8.82086500 -1.78135800 2.34466900
v -8.82086500 -1.78135800 3.27115500
v -8.82086500 -1.76641300 2.34466900
v 9.84152800 -1.78135800 2.34466900
v -8.82086500 -1.76641300 3.27115500
v 9.84152800 -1.78135800 3.27115500
v 9.84152800 -1.76641300 2.34466900
v 3.85029900 -1.75150200 0.26771700
v 0.15912900 -1.76642300 0.19297500
v 0.15912900 -1.75148800 0.19297500
v 0.15912900 -1.76642300 2.47908100
v 3.73070400 -1.88594800 0.23750700
v 3.77514600 -1.73653800 2.47908100
v 0.35351500 -1.88594800 2.43410200
v 3.73070400 -1.88594800 2.43410200
v 0.35351500 -1.88594800 0.23750700
v 0.30907400 -1.73653800 0.19297500
v 0.30907400 -1.73653800 2.47908100
v 3.77514600 -1.73653800 0.19297500
v 3.85029900 -1.78134300 2.47908100
v 7.81086400 -1.79631000 2.31468800
v 5.86804000 -1.87102600 0.71559500
v 5.86804000 -1.79631000 0.71559500
v 7.81086400 -1.87102600 0.71559500
v 5.86804000 -1.87102600 2.31468800
v 5.86804000 -1.79631000 2.31468800
v 7.81086400 -1.79631000 0.71559500
v 7.81086400 -1.87102600 2.31468800
v 9.84335600 -1.76641300 0.68565800
v -8.82233700 -1.76641300 0.19252800
v -8.82233700 -1.78135500 0.25243100
v 9.84335600 -1.78135500 0.25243100
v 9.84335600 -1.75147100 0.19252800
v -8.82233700 -1.76641300 0.68565800
v -8.82233700 -1.78135500 0.68565800
v -8.82233700 -1.75147100 0.26729800
v 9.84335600 -1.78135500 0.68565800
v -6.50474400 3.18031400 3.22633000
v 9.90313500 3.37459600 3.27114600
v 9.90313500 3.35964900 3.27114600
v -8.04556300 3.37459600 3.27114600
v 7.85456600 3.37459600 3.22633000
v 7.85456600 3.18031400 3.27114600
v 7.85456600 3.18031400 3.22633000
v -6.50474400 3.18031400 3.27114600
v -6.50474400 3.37459600 3.22633000
v 7.54185700 3.19529100 3.22602400
v 7.87064300 3.37459600 0.20796800
v 7.87064300 3.16536900 0.20796800
v 7.54185700 3.16536900 0.19312100
v 7.85564500 3.18034000 3.22602400
v 7.85564500 3.37459600 3.22602400
v 7.54185700 3.19529100 0.19312100
v 9.84332500 -1.76641300 2.34441600
v 3.85049300 -1.78135200 0.68603100
v 3.85049300 -1.76641300 0.68603100
v 3.85049300 -1.78135200 2.34441600
v 5.83852200 -1.73652300 2.34441600
v 7.85529600 -1.73652300 0.68603100
v 7.81071300 -1.79630200 0.71606200
v 5.86844000 -1.79630200 2.31422200
v 9.84332500 -1.78134600 0.68603100
v 9.84332500 -1.78134600 2.34441600
v 5.83852200 -1.73652300 0.68603100
v 7.85529600 -1.73652300 2.34441600
v 3.85049300 -1.76641300 2.34441600
v 9.84332500 -1.76641300 0.68603100
v 7.81071300 -1.79630200 2.31422200
v 5.86844000 -1.79630200 0.71606200
v -1.42546400 -1.73652300 2.34441600
v -8.82258400 -1.78134600 0.68603100
v -7.40188700 -1.79630200 0.71606200
v -1.42546400 -1.73652300 0.68603100
v -1.45535500 -1.79630200 2.31422200
v -7.43265700 -1.73652300 2.34441600
v 0.15875400 -1.78134600 0.68603100
v -8.82258400 -1.78134600 2.34441600
v -7.43265700 -1.73652300 0.68603100
v 0.15875400 -1.76641300 2.34441600
v -7.40188700 -1.79630200 2.31422200
v -1.45535500 -1.79630200 0.71606200
v -8.82258400 -1.76641300 0.68603100
v 0.15875400 -1.78134600 2.34441600
v 0.15875400 -1.76641300 0.68603100
v -8.82258400 -1.76641300 2.34441600
v -6.35680100 3.16539000 0.19312100
v -5.87856800 3.37459600 0.20796800
v -5.89354800 3.37459600 3.22602400
v -5.87856800 3.16536900 0.20796800
v -6.35680100 3.18034000 3.22602400
v -5.89354800 3.18034000 3.22602400
v -6.35680100 3.19527000 0.19312100
v -3.77129000 3.16536900 0.19312100
v -3.45757300 3.19529100 3.22602400
v -3.74143600 3.37459600 3.22602400
v -3.45757300 3.19529100 0.25280600
v -3.77129000 3.37459600 0.19312100
v -3.75636300 3.18034000 3.22602400
v -3.45757300 3.16536900 0.19312100
v 4.47817400 3.16536900 0.19312100
v 4.86673900 3.19529100 3.22602400
v 4.50807000 3.37459600 3.22602400
v 4.50807000 3.37459600 0.19312100
v 4.86673900 3.16536900 0.19312100
v 4.49312200 3.18034000 3.22602400
v 4.47817400 3.37459600 3.22602400
v 4.86673900 3.19529100 0.25280600
v -1.02151000 3.16536900 0.19312100
v -0.76744800 3.19529100 3.22602400
v -0.99159200 3.37459600 3.22602400
v -0.76744800 3.19529100 0.25280600
v -1.02151000 3.37459600 0.19312100
v -1.00656400 3.18034000 3.22602400
v -0.76744800 3.16536900 0.19312100
v -0.76741200 3.18034000 0.19312100
v -0.39386500 3.37459600 3.22602400
v -0.42377500 3.37459600 3.22602400
v -0.76741200 3.18034000 3.22602400
v -0.39386500 3.16536900 0.26765200
v -0.39386500 3.37459600 0.19312100
v -0.40882000 3.18034000 3.22602400
v -0.76741200 3.19529100 0.25280600
v -6.49128000 3.37459600 3.22602400
v -6.52119400 3.16536900 0.19312100
v -6.35680100 3.16536900 0.19312100
v -6.52119400 3.37459600 0.19312100
v -6.50624500 3.18034000 3.22602400
v 7.22807800 3.37459600 0.19312100
v 7.54179600 3.19529100 3.22602400
v 7.54179600 3.18034000 3.22602400
v 7.54179600 3.19529100 0.19312100
v 7.22807800 3.16536900 0.26765200
v 7.22807800 3.37459600 3.22602400
v 7.24300500 3.18034000 3.22602400
v 7.25793200 3.37459600 0.19312100
v -3.45751100 3.16536900 0.26765200
v -3.12872600 3.37459600 3.22602400
v -3.15865600 3.37459600 3.22602400
v -3.12872600 3.37459600 0.19312100
v -3.12872600 3.16536900 0.20796800
v -3.14372300 3.18034000 3.22602400
v -3.45751100 3.19529100 3.22602400
v -3.45751100 3.19529100 0.25280600
v 1.72836300 3.16536900 0.19312100
v 2.04211200 3.19529100 3.22602400
v 1.75824800 3.37459600 3.22602400
v 2.04211200 3.19529100 0.25280600
v 1.72836300 3.37459600 0.19312100
v 1.74332100 3.18034000 3.22602400
v 2.04211200 3.16536900 0.19312100
v 2.04217300 3.16536900 0.26765200
v 2.37095800 3.37459600 3.22602400
v 2.34102800 3.37459600 3.22602400
v 2.37095800 3.37459600 0.19312100
v 2.37095800 3.16536900 0.19312100
v 2.35596100 3.18034000 3.22602400
v 2.04217300 3.19529100 3.22602400
v 2.04217300 3.19529100 0.25280600
v 5.10585600 3.37459600 0.20796800
v 5.10585600 3.16536900 0.20796800
v 4.86673900 3.18034000 0.19312100
v 5.09089900 3.18034000 3.22602400
v 5.07596600 3.37459600 3.22602400
f 2 4 5
f 3 2 1
f 2 3 4
f 3 1 4
f 4 1 5
f 1 2 5
f 8 12 14
f 10 9 11
f 6 10 11
f 8 9 12
f 10 6 12
f 9 10 12
f 8 7 13
f 9 8 13
f 11 9 13
f 7 11 13
f 7 8 14
f 11 7 14
f 6 11 14
f 12 6 14
f 15 22 24
f 16 17 18
f 18 17 19
f 17 16 20
f 20 15 21
f 19 17 21
f 17 20 21
f 16 18 22
f 20 16 22
f 15 20 22
f 15 18 23
f 18 19 23
f 21 15 23
f 19 21 23
f 18 15 24
f 22 18 24
f 30 29 32
f 26 27 28
f 25 28 29
f 27 26 29
f 28 27 29
f 25 29 30
f 26 28 31
f 28 25 31
f 30 26 31
f 25 30 31
f 29 26 32
f 26 30 32
f 36 37 42
f 35 34 36
f 34 37 38
f 36 34 38
f 37 36 38
f 34 35 39
f 33 37 39
f 37 34 39
f 35 36 40
f 39 35 40
f 39 40 41
f 36 33 41
f 33 39 41
f 40 36 41
f 33 36 42
f 37 33 42
f 46 48 51
f 45 44 46
f 46 43 48
f 43 47 48
f 46 44 49
f 43 46 49
f 44 45 50
f 47 43 50
f 45 47 50
f 49 44 50
f 43 49 50
f 45 46 51
f 47 45 51
f 48 47 51
f 55 52 59
f 54 53 55
f 53 54 56
f 55 53 56
f 52 55 57
f 56 52 57
f 55 56 57
f 54 52 58
f 52 56 58
f 56 54 58
f 52 54 59
f 54 55 59
f 63 60 67
f 62 61 63
f 61 62 64
f 63 61 64
f 60 63 65
f 64 60 65
f 63 64 65
f 62 60 66
f 60 64 66
f 64 62 66
f 60 62 67
f 62 63 67
f 72 71 75
f 69 70 71
f 70 69 72
f 69 71 72
f 70 68 73
f 71 70 73
f 68 71 73
f 68 70 74
f 72 68 74
f 70 72 74
f 71 68 75
f 68 72 75
f 83 80 88
f 78 77 79
f 79 77 82
f 82 80 83
f 77 80 84
f 80 82 84
f 82 77 84
f 77 78 85
f 81 85 86
f 78 79 86
f 79 81 86
f 85 78 86
f 76 80 87
f 80 77 87
f 81 76 87
f 77 85 87
f 85 81 87
f 80 76 88
f 76 81 88
f 81 79 88
f 79 82 88
f 82 83 88
f 93 92 96
f 90 91 92
f 91 90 93
f 90 92 93
f 89 91 94
f 93 89 94
f 91 93 94
f 91 89 95
f 92 91 95
f 89 92 95
f 92 89 96
f 89 93 96
f 97 103 105
f 99 98 100
f 97 100 101
f 100 98 101
f 98 99 102
f 102 99 103
f 99 100 103
f 97 102 103
f 97 101 104
f 101 98 104
f 98 102 104
f 102 97 104
f 100 97 105
f 103 100 105
f 109 110 114
f 108 107 109
f 107 108 110
f 109 107 110
f 108 109 111
f 106 110 112
f 110 108 112
f 108 111 112
f 111 106 112
f 109 106 113
f 111 109 113
f 106 111 113
f 106 109 114
f 110 106 114
f 115 120 121
f 116 117 118
f 115 118 119
f 117 116 119
f 118 117 119
f 115 119 120
f 119 116 120
f 116 118 121
f 118 115 121
f 120 116 121
f 128 129 137
f 124 123 125
f 125 122 126
f 123 124 127
f 125 123 129
f 123 127 130
f 128 123 130
f 128 130 131
f 122 125 131
f 130 122 131
f 124 126 132
f 127 124 132
f 126 127 132
f 126 122 133
f 127 126 133
f 122 127 133
f 124 125 134
f 125 126 134
f 126 124 134
f 127 122 135
f 130 127 135
f 122 130 135
f 125 129 136
f 129 128 136
f 128 131 136
f 131 125 136
f 123 128 137
f 129 123 137
f 143 150 153
f 138 141 143
f 140 139 144
f 139 141 144
f 139 140 145
f 138 143 145
f 141 139 146
f 143 141 146
f 141 138 147
f 138 145 147
f 140 142 148
f 145 140 148
f 142 145 148
f 142 140 149
f 140 144 149
f 144 142 149
f 139 145 150
f 146 139 150
f 143 146 150
f 142 144 151
f 145 142 151
f 144 147 151
f 147 145 151
f 144 141 152
f 141 147 152
f 147 144 152
f 145 143 153
f 150 145 153
f 158 156 160
f 155 156 157
f 154 155 157
f 154 157 158
f 156 158 159
f 157 156 159
f 158 157 159
f 155 154 160
f 156 155 160
f 154 158 160
f 162 166 167
f 163 162 164
f 163 164 165
f 163 165 166
f 162 163 166
f 165 161 166
f 166 161 167
f 164 162 167
f 161 165 167
f 165 164 167
f 169 172 175
f 170 169 171
f 168 171 172
f 172 169 173
f 169 170 173
f 168 172 173
f 173 170 174
f 170 171 174
f 171 168 174
f 168 173 174
f 171 169 175
f 172 171 175
f 177 181 182
f 178 177 179
f 178 179 180
f 178 180 181
f 177 178 181
f 180 176 181
f 181 176 182
f 179 177 182
f 176 180 182
f 180 179 182
f 185 188 190
f 184 185 186
f 186 183 187
f 184 187 188
f 185 184 188
f 187 183 188
f 184 186 189
f 186 187 189
f 187 184 189
f 186 185 190
f 183 186 190
f 188 183 190
f 195 193 158
f 193 192 194
f 191 193 194
f 191 194 195
f 192 193 195
f 194 192 195
f 193 191 158
f 191 195 158
f 196 201 203
f 197 198 199
f 196 199 200
f 199 198 200
f 198 197 201
f 196 200 201
f 200 198 202
f 198 201 202
f 201 200 202
f 197 199 203
f 199 196 203
f 201 197 203
f 210 206 211
f 206 205 207
f 207 205 208
f 208 205 209
f 205 206 209
f 204 208 209
f 209 206 210
f 204 209 210
f 204 210 211
f 206 207 211
f 208 204 211
f 207 208 211
f 213 217 218
f 214 213 215
f 214 215 216
f 214 216 217
f 213 214 217
f 216 212 217
f 217 212 218
f 215 213 218
f 212 216 218
f 216 215 218
f 225 221 226
f 221 220 222
f 222 220 223
f 223 220 224
f 220 221 224
f 219 223 224
f 224 221 225
f 219 224 225
f 219 225 226
f 221 222 226
f 223 219 226
f 222 223 226
f 230 227 231
f 227 228 229
f 169 229 230
f 228 227 230
f 229 228 230
f 227 229 231
f 229 169 231
f 169 230 231

