# https://github.com/mikedh/trimesh

o convex_0
v -0.32858700 -0.47664800 1.75667100
v 0.16474600 -0.39666700 1.80332800
v 0.16474600 -0.50332300 1.80332800
v -0.32858700 -0.39666700 1.80332800
v 0.16474600 -0.39666700 1.75667100
v 0.16474600 -0.50332300 1.75667100
v -0.32858700 -0.50332300 1.80332800
v -0.32858700 -0.39666700 1.77000200
v -0.32858700 -0.50332300 1.75667100
v -0.30849800 -0.01000000 0.19000000
v 0.11805000 0.01666200 0.18332400
v 0.11805000 0.01666200 0.15000000
v 0.16474600 -0.39666700 0.15000000
v -0.32858700 -0.39666700 0.15000000
v 0.16474600 -0.39666700 0.19000000
v -0.32858700 0.01666200 0.15000000
v -0.32858700 -0.39666700 0.18332400
v 0.16474600 -0.03002800 0.19000000
v 0.16474600 -0.03002800 0.15000000
v -0.32858700 0.01666200 0.18332400
v 0.11805000 0.00998600 0.19000000
v 0.12466500 -0.39666700 0.19000000
v 0.12466500 -0.07669500 1.76333300
v 0.16474600 -0.03000000 1.80332900
v 0.16474600 -0.39666700 1.80332900
v -0.32858700 -0.39666700 1.80332900
v -0.32858700 -0.03000000 1.77000400
v 0.16474600 -0.39666700 1.76333300
v -0.32858700 -0.39666700 1.77000400
v -0.32858700 -0.03000000 1.80332900
v 0.16474600 -0.03000000 1.76333300
v 0.16474600 0.39662500 0.75666600
v 0.11808000 -0.03000000 0.15005900
v 0.11808000 0.39666700 0.15005900
v 0.16474600 -0.03000000 0.15005900
v 0.11808000 -0.00999500 0.75666600
v 0.16474600 -0.03000000 0.75666600
v 0.16474600 0.39662500 0.15005900
v 0.12474900 0.39666700 0.75666600
v 0.12474900 -0.03000000 0.75666600
v 0.11808000 0.39666700 0.18343000
v 0.11808000 0.39666700 1.76993300
v 0.16474600 -0.03000000 1.80333300
v 0.16474600 0.39666700 0.75666600
v 0.11808000 -0.03000000 1.80333300
v 0.16474600 0.39666700 1.80333300
v 0.11808000 0.39666700 1.80333300
v 0.11808000 0.01001000 0.75666600
v 0.11808000 -0.03000000 0.96352000
v 0.12474900 -0.39666700 1.75646200
v 0.11808000 -0.50332300 0.26333300
v 0.11808000 -0.47663800 0.26333300
v 0.16474600 -0.39666700 0.26333300
v 0.16474600 -0.50332300 1.75646200
v 0.11808000 -0.50332300 1.75646200
v 0.16474600 -0.50332300 0.26333300
v 0.16474600 -0.39666700 1.75646200
v 0.11808000 -0.39666700 0.56356700
v 0.12474900 -0.39666700 0.26333300
v 0.11808000 -0.39666700 1.38328900
v -0.07525400 0.47000000 1.66332500
v -0.30858700 0.46333100 1.57666600
v -0.30858700 0.47000000 1.57666600
v -0.30858700 0.47000000 1.63666100
v -0.09526100 0.39666700 1.67666600
v -0.08192300 0.39666700 1.65665900
v -0.09526100 0.47000000 1.67666600
v -0.29524800 0.47000000 1.57666600
v 0.12475200 -0.03000000 1.03666600
v 0.12475200 -0.39666700 0.19000000
v 0.12475200 -0.03000000 0.19000000
v 0.11808800 -0.39666700 0.98329400
v 0.16474600 -0.03000000 1.03666600
v 0.16474600 -0.39666700 1.03666600
v 0.16474600 -0.03000000 0.19000000
v 0.11808800 -0.03000000 0.56335800
v 0.11808800 -0.39666700 0.56335800
v 0.11808800 -0.03000000 0.98329400
v 0.12475200 -0.39666700 1.03666600
v 0.11808000 -0.03000000 1.38333300
v -0.30858700 -0.47000000 1.37000000
v 0.11808000 -0.47000000 1.37000000
v -0.30858700 -0.47000000 1.38333300
v -0.30858700 -0.03000000 1.37000000
v 0.11808000 -0.47000000 1.38333300
v 0.11808000 -0.03000000 1.37000000
v -0.30858700 -0.03000000 1.38333300
v 0.12474900 -0.03000000 1.76333300
v 0.12474900 -0.39666700 1.03666600
v 0.12474900 -0.03000000 1.03666600
v 0.16474600 -0.03003600 1.03666600
v 0.12474900 -0.39666700 1.76333300
v 0.16474600 -0.03003600 1.76333300
v 0.11808000 -0.39666700 1.38342600
v 0.11808000 -0.03000000 1.37005400
v -0.32858700 0.01666700 0.15000000
v 0.11808000 0.39666700 0.18333000
v 0.11808000 0.15667500 0.18333000
v -0.32858700 0.01666700 0.18333000
v -0.32858700 0.39666700 0.18333000
v 0.11808000 0.39666700 0.15000000
v 0.11803600 0.01666700 0.15000000
v -0.32858700 0.39666700 0.15000000
v 0.11803600 0.01666700 0.18333000
v -0.32855800 0.47000100 0.37678600
v 0.06474600 0.50332900 0.96333300
v 0.06474600 0.47667300 0.96333300
v 0.06474600 0.50332900 0.21681300
v -0.32855800 0.50333300 0.96333300
v -0.32855800 0.50333300 0.21681300
v 0.06474600 0.47667300 0.21681300
v -0.32855800 0.47666900 0.96333300
v -0.29523800 0.46333300 0.35676200
v -0.32855800 0.47666900 0.21681300
v -0.30855000 0.46333300 0.41676200
v -0.33525400 0.48333300 0.39673700
v 0.06475600 0.50333300 0.96333300
v 0.12473900 0.39666700 0.19000000
v 0.16473700 0.39666700 0.19000000
v 0.12473900 0.39666700 0.96333300
v 0.16473700 0.50333300 0.19000000
v 0.16473700 0.50333300 0.96333300
v 0.06475600 0.47665600 0.19000000
v 0.16473700 0.39666700 0.96333300
v 0.06475600 0.50333300 0.19000000
v 0.06475600 0.47665600 0.96333300
v 0.16474600 0.50333300 1.80332500
v 0.12474900 0.39666700 0.96348100
v 0.11808000 0.47665600 0.96348100
v 0.11808000 0.39666700 1.80332500
v 0.16474600 0.39666700 0.96348100
v 0.16474600 0.50333300 0.96348100
v 0.11808000 0.50333300 1.80332500
v 0.16474600 0.39666700 1.80332500
v 0.11808000 0.50333300 0.96348100
v -0.32858700 0.39666700 1.76998800
v 0.11808000 0.50333300 1.71667500
v -0.32858700 0.50333300 1.80332500
v -0.32858700 0.50333300 1.71667500
v 0.11808000 0.47665600 1.71667500
v -0.32858700 0.39666700 1.80332500
v 0.11808000 0.39666700 1.76998800
v -0.32858700 0.47665600 1.71667500
v -0.07526100 0.47000000 1.67664000
v -0.32850900 0.47667300 1.57000000
v -0.33525400 0.47667300 1.59667400
v 0.11808000 0.50333300 1.71666600
v 0.11808000 0.47667300 1.57000000
v -0.32850900 0.50333300 1.57000000
v -0.32850900 0.50333300 1.71666600
v 0.11808000 0.50333300 1.57000000
v -0.32850900 0.47667300 1.71666600
v 0.11808000 0.47667300 1.71666600
v -0.30858400 0.47000000 1.57000000
v -0.31524100 0.47000000 1.63668600
v -0.31524500 -0.48999200 -0.00333400
v -0.22859500 -0.40333300 0.14333300
v -0.22859500 -0.48999200 0.14333300
v -0.22859500 -0.40333300 -0.00333400
v -0.31524500 -0.40333300 0.14333300
v -0.31524500 -0.48999200 0.14333300
v -0.22859500 -0.48999200 -0.00333400
v -0.31524500 -0.40333300 -0.00333400
v 0.06475900 -0.48999100 -0.00333400
v 0.05141300 -0.50332300 0.26333300
v 0.05141300 -0.39666700 0.18332800
v 0.15140100 -0.40333800 -0.00333400
v 0.15140100 -0.48999100 -0.00333400
v 0.06475900 -0.40333800 -0.00333400
v 0.16474600 -0.50332300 0.14999400
v 0.05141300 -0.50332300 0.14999400
v 0.12474200 -0.39666700 0.26333300
v 0.16474600 -0.39666700 0.14999400
v 0.05141300 -0.47663800 0.26333300
v -0.33525400 -0.48333300 0.37675100
v 0.11808000 -0.47667300 0.55660300
v 0.11803500 -0.47000100 0.58333700
v -0.32855300 -0.50332900 0.74331500
v 0.11808000 -0.50333300 0.26333300
v 0.11803500 -0.50332900 0.74331500
v -0.32855300 -0.47667300 0.74331500
v -0.30858400 -0.46333300 0.35673600
v -0.32850900 -0.50333300 0.26333300
v 0.11808000 -0.47667300 0.26333300
v 0.11803500 -0.47667300 0.74331500
v -0.32850900 -0.47667300 0.26333300
v -0.30858400 -0.46333300 0.41668700
v -0.33525400 -0.47000500 0.39671900
v -0.32855300 -0.50332900 1.16333300
v 0.11808000 -0.47667300 1.75653700
v -0.29513900 -0.46333300 1.63661800
v -0.32850900 -0.50333300 1.75653700
v 0.11803500 -0.50332900 1.16333300
v 0.11803500 -0.47667300 1.16333300
v 0.11808000 -0.50333300 1.75653700
v -0.32855300 -0.47667300 1.16333300
v -0.32850900 -0.47667300 1.75653700
v 0.11803500 -0.47000100 1.37001100
v -0.30858400 -0.46333300 1.57657200
v -0.33525400 -0.47000500 1.61658300
v 0.11808000 -0.03000000 0.58333300
v -0.30858700 -0.47000000 0.56333500
v 0.11808000 -0.47000000 0.56333500
v -0.30858700 -0.03000000 0.56333500
v -0.30858700 -0.47000000 0.58333300
v 0.11808000 -0.47000000 0.58333300
v 0.11808000 -0.03000000 0.56333500
v -0.30858700 -0.03000000 0.58333300
v 0.11808000 -0.03000000 0.98333100
v -0.30858700 -0.47000000 0.96333300
v 0.11808000 -0.47000000 0.96333300
v -0.30858700 -0.03000000 0.96333300
v -0.30858700 -0.47000000 0.98333100
v 0.11808000 -0.47000000 0.98333100
v 0.11808000 -0.03000000 0.96333300
v -0.30858700 -0.03000000 0.98333100
v 0.11803100 -0.47000000 0.98328000
v -0.32854300 -0.50333000 0.74333300
v -0.32854300 -0.50333000 1.16329200
v 0.11803100 -0.50333000 1.16329200
v -0.32854300 -0.47667200 1.16329200
v 0.11803100 -0.50333000 0.74333300
v -0.32854300 -0.47667200 0.74333300
v 0.11803100 -0.47667200 0.74333300
v 0.11803100 -0.47667200 1.16329200
v -0.30856200 -0.47000000 0.96330200
v -0.30858700 -0.03000000 0.56326600
v 0.11808000 0.01000000 0.75666600
v -0.30858700 0.01000000 0.75666600
v 0.11808000 0.01000000 0.19005500
v 0.11808000 -0.03000000 0.58328900
v -0.30858700 -0.01000000 0.19005500
v -0.30858700 0.01000000 0.19005500
v 0.11808000 -0.01000000 0.19005500
v -0.30858700 -0.01000000 0.75666600
v 0.11808000 -0.01000000 0.75666600
v -0.30858700 -0.03000000 0.58328900
v 0.11808000 -0.03000000 0.56326600
v -0.30858700 -0.03000000 0.96340700
v 0.11808000 0.01000000 1.62333300
v -0.30858700 0.01000000 1.62333300
v 0.11808000 -0.03000000 1.38325200
v -0.30858700 -0.01000000 1.62333300
v 0.11808000 -0.03000000 0.96340700
v -0.30858700 -0.03000000 1.38325200
v 0.11808000 -0.01000000 1.62333300
v 0.11808000 0.01666200 1.80333300
v -0.30851800 -0.00999600 1.62333300
v -0.32858700 -0.02999500 1.76999700
v 0.11808000 -0.02999500 1.76999700
v 0.11808000 0.00999400 1.62333300
v -0.32858700 0.01666200 1.80333300
v -0.30851800 0.00999400 1.62333300
v -0.32858700 -0.02999500 1.80333300
v 0.11808000 -0.00999600 1.62333300
v -0.09528500 0.01666200 1.65666900
v 0.11808000 -0.02999500 1.80333300
v -0.07525400 0.39666700 1.66333500
v -0.09525400 0.01666700 1.65666800
v -0.09525400 0.01666700 1.67666400
v -0.09525400 0.39666700 1.65666800
v -0.07525400 0.01666700 1.67666400
v -0.09525400 0.39666700 1.67666400
v -0.08192400 0.01666700 1.65666800
v -0.07525400 0.39666700 1.67666400
v -0.32858700 0.01666700 1.77000300
v 0.11808000 0.39666700 1.80333000
v 0.11808000 0.15667500 1.80333000
v 0.11808000 0.39666700 1.77000300
v -0.32858700 0.39666700 1.80333000
v -0.32858700 0.39666700 1.77000300
v -0.32858700 0.01666700 1.80333000
v 0.11803600 0.01666700 1.77000300
v 0.11803600 0.01666700 1.80333000
v -0.22859500 0.49000000 0.14333300
v -0.31524500 0.40333300 -0.00333400
v -0.22859500 0.40333300 -0.00333400
v -0.31524500 0.40333300 0.14333300
v -0.31524500 0.49000000 -0.00333400
v -0.22859500 0.49000000 -0.00333400
v -0.22859500 0.40333300 0.14333300
v -0.31524500 0.49000000 0.14333300
v -0.31522700 0.40333900 0.14334700
v 0.06474600 0.50333300 0.21666600
v 0.06474600 0.47665600 0.21666600
v -0.32858700 0.50333300 0.21666600
v 0.06474600 0.50333300 0.15000800
v 0.06474600 0.39666700 0.18332700
v -0.32858700 0.50333300 0.15000800
v -0.32858700 0.39666700 0.18332700
v 0.06474600 0.39666700 0.15000800
v -0.32858700 0.47665600 0.21666600
v -0.22852100 0.48997900 0.14334700
v -0.32858700 0.39666700 0.15000800
v 0.06475500 0.48999000 0.14332800
v 0.06476500 0.39666700 0.14999000
v 0.16473700 0.39666700 0.14999000
v 0.06475500 0.40333900 -0.00333400
v 0.15139700 0.48999000 -0.00333400
v 0.16473700 0.50333300 0.18999500
v 0.06475500 0.48999000 -0.00333400
v 0.15139700 0.40333900 -0.00333400
v 0.06476500 0.39666700 0.18331500
v 0.06476500 0.50333300 0.18999500
v 0.16473700 0.39666700 0.18999500
v 0.16473700 0.50333300 0.14999000
v -0.31523300 -0.47000000 0.14333300
v 0.05137600 -0.39666700 0.18333300
v 0.05137600 -0.47000000 0.18333300
v -0.32858700 -0.39666700 0.18333300
v 0.05137600 -0.39666700 0.15000500
v -0.32858700 -0.47000000 0.18333300
v -0.31523300 -0.40333500 0.14333300
v 0.05137600 -0.47000000 0.15000500
v -0.32858700 -0.39666700 0.15000500
v -0.32858700 0.47666900 0.96339200
v 0.11808000 0.50332800 1.57000000
v -0.32858700 0.50332800 1.57000000
v 0.11808000 0.47666900 1.57000000
v 0.11808000 0.50332800 0.96339200
v -0.32858700 0.47666900 1.57000000
v -0.32858700 0.50332800 0.96339200
v 0.11808000 0.47666900 0.96339200
v 0.05137600 -0.47667200 0.26333300
v -0.31523300 -0.48999600 0.14333300
v -0.32858700 -0.50333000 0.15000500
v 0.05137600 -0.50333000 0.15000500
v -0.32858700 -0.50333000 0.26333300
v -0.32858700 -0.47000000 0.15000500
v 0.05137600 -0.50333000 0.26333300
v -0.32858700 -0.47667200 0.26333300
v 0.05137600 -0.47000000 0.18335300
f 6 7 9
f 3 2 4
f 2 3 5
f 4 2 5
f 1 5 6
f 5 3 6
f 3 4 7
f 4 1 7
f 6 3 7
f 1 4 8
f 5 1 8
f 4 5 8
f 1 6 9
f 7 1 9
f 17 15 22
f 12 13 14
f 14 13 15
f 11 12 16
f 12 14 16
f 16 14 17
f 14 15 17
f 12 11 18
f 10 15 18
f 15 13 18
f 13 12 19
f 12 18 19
f 18 13 19
f 11 16 20
f 16 17 20
f 17 10 20
f 18 11 21
f 10 18 21
f 11 20 21
f 20 10 21
f 15 10 22
f 10 17 22
f 28 23 31
f 25 24 26
f 24 25 28
f 25 26 28
f 27 23 29
f 26 27 29
f 23 28 29
f 28 26 29
f 26 24 30
f 27 26 30
f 24 27 30
f 23 27 31
f 27 24 31
f 24 28 31
f 39 34 41
f 33 34 35
f 34 33 36
f 33 35 37
f 35 32 37
f 32 36 37
f 35 34 38
f 32 35 38
f 36 32 39
f 32 38 39
f 38 34 39
f 36 33 40
f 33 37 40
f 37 36 40
f 34 36 41
f 36 39 41
f 45 36 49
f 40 37 43
f 37 40 44
f 43 37 44
f 40 43 45
f 45 43 46
f 44 42 46
f 43 44 46
f 42 44 39
f 44 40 39
f 45 42 36
f 39 40 36
f 42 45 47
f 45 46 47
f 46 42 47
f 42 39 48
f 36 42 48
f 39 36 48
f 40 45 49
f 36 40 49
f 58 55 60
f 51 52 53
f 51 54 55
f 52 51 55
f 54 50 55
f 51 53 56
f 53 54 56
f 54 51 56
f 53 50 57
f 50 54 57
f 54 53 57
f 50 53 58
f 52 55 58
f 53 52 59
f 52 58 59
f 58 53 59
f 55 50 60
f 50 58 60
f 61 66 68
f 63 62 64
f 61 63 64
f 64 62 65
f 65 62 66
f 61 65 66
f 61 64 67
f 65 61 67
f 64 65 67
f 63 61 68
f 62 63 68
f 66 62 68
f 72 74 79
f 15 70 71
f 70 15 72
f 71 69 73
f 72 15 74
f 15 73 74
f 73 69 74
f 15 71 75
f 73 15 75
f 71 73 75
f 71 70 76
f 69 71 76
f 72 76 77
f 70 72 77
f 76 70 77
f 72 69 78
f 69 76 78
f 76 72 78
f 69 72 79
f 74 69 79
f 84 83 87
f 81 82 83
f 82 81 84
f 81 83 84
f 82 80 85
f 83 82 85
f 80 83 85
f 80 82 86
f 84 80 86
f 82 84 86
f 83 80 87
f 80 84 87
f 89 94 95
f 89 90 74
f 89 74 28
f 90 88 91
f 74 90 91
f 28 74 91
f 28 88 92
f 89 28 92
f 88 28 93
f 91 88 93
f 28 91 93
f 89 92 94
f 92 88 94
f 88 90 95
f 90 89 95
f 94 88 95
f 99 102 104
f 98 97 99
f 96 99 100
f 99 97 100
f 100 97 101
f 97 98 101
f 101 98 102
f 99 96 102
f 96 101 102
f 96 100 103
f 100 101 103
f 101 96 103
f 98 99 104
f 102 98 104
f 110 114 116
f 106 107 108
f 107 106 109
f 106 108 109
f 109 108 110
f 108 107 111
f 110 108 111
f 107 109 112
f 111 107 113
f 110 111 114
f 111 113 114
f 114 113 115
f 112 105 115
f 107 112 115
f 113 107 115
f 105 114 115
f 109 110 116
f 105 112 116
f 112 109 116
f 114 105 116
f 117 123 126
f 118 119 120
f 119 118 121
f 119 121 122
f 117 120 122
f 121 117 122
f 118 120 123
f 121 118 123
f 120 119 124
f 119 122 124
f 122 120 124
f 117 121 125
f 123 117 125
f 121 123 125
f 120 117 126
f 123 120 126
f 133 132 135
f 129 128 130
f 128 129 131
f 130 128 131
f 127 131 132
f 131 129 132
f 129 130 133
f 130 127 133
f 127 132 133
f 127 130 134
f 131 127 134
f 130 131 134
f 132 129 135
f 129 133 135
f 139 140 143
f 133 137 138
f 137 133 130
f 133 138 130
f 138 137 139
f 136 138 139
f 137 130 140
f 139 137 140
f 138 136 141
f 136 130 141
f 130 138 141
f 130 136 142
f 136 140 142
f 140 130 142
f 136 139 143
f 140 136 143
f 154 144 155
f 148 145 149
f 145 146 149
f 147 149 150
f 149 146 150
f 147 148 151
f 148 149 151
f 149 147 151
f 147 150 152
f 150 146 152
f 144 148 153
f 148 147 153
f 152 144 153
f 147 152 153
f 146 145 154
f 148 144 154
f 145 148 154
f 144 152 155
f 152 146 155
f 146 154 155
f 160 159 163
f 157 158 159
f 158 157 160
f 157 159 160
f 156 158 161
f 160 156 161
f 158 160 161
f 158 156 162
f 159 158 162
f 156 159 162
f 159 156 163
f 156 160 163
f 172 166 174
f 56 53 165
f 164 167 168
f 167 164 169
f 53 56 170
f 56 165 170
f 168 167 170
f 164 168 170
f 165 166 171
f 169 164 171
f 166 169 171
f 170 165 171
f 164 170 171
f 165 53 172
f 53 166 172
f 166 53 173
f 169 166 173
f 167 169 173
f 53 170 173
f 170 167 173
f 166 165 174
f 165 172 174
f 181 187 188
f 179 176 180
f 178 179 180
f 178 180 181
f 178 175 183
f 179 178 183
f 177 176 184
f 176 179 184
f 182 177 184
f 179 183 184
f 176 177 185
f 180 176 185
f 181 180 185
f 177 181 185
f 183 175 186
f 182 184 186
f 184 183 186
f 181 177 187
f 177 182 187
f 187 182 188
f 175 178 188
f 178 181 188
f 186 175 188
f 182 186 188
f 191 199 200
f 192 189 193
f 190 193 194
f 193 189 194
f 190 192 195
f 192 193 195
f 193 190 195
f 194 189 196
f 190 191 197
f 192 190 197
f 191 190 198
f 190 194 198
f 194 196 198
f 198 196 199
f 191 198 199
f 189 192 200
f 196 189 200
f 197 191 200
f 192 197 200
f 199 196 200
f 204 205 208
f 203 202 204
f 202 203 205
f 204 202 205
f 203 201 206
f 201 205 206
f 205 203 206
f 201 203 207
f 203 204 207
f 204 201 207
f 201 204 208
f 205 201 208
f 212 213 216
f 211 210 212
f 210 211 213
f 212 210 213
f 211 209 214
f 209 213 214
f 213 211 214
f 209 211 215
f 211 212 215
f 212 209 215
f 209 212 216
f 213 209 216
f 217 224 226
f 219 218 220
f 218 219 221
f 219 220 221
f 220 218 222
f 217 220 222
f 218 221 223
f 222 218 223
f 222 223 224
f 217 222 224
f 220 217 225
f 217 221 225
f 221 220 225
f 221 217 226
f 223 221 226
f 224 223 226
f 234 231 238
f 229 228 230
f 230 228 231
f 227 229 232
f 229 230 233
f 232 229 233
f 230 232 233
f 230 231 234
f 227 232 234
f 232 230 234
f 229 227 235
f 228 229 235
f 235 231 236
f 231 228 236
f 228 235 236
f 227 231 237
f 235 227 237
f 231 235 237
f 231 227 238
f 227 234 238
f 229 236 235
f 241 240 229
f 239 241 229
f 236 240 242
f 241 239 243
f 240 241 243
f 229 240 228
f 236 229 228
f 240 236 228
f 239 236 244
f 236 242 244
f 242 239 244
f 239 242 245
f 243 239 245
f 242 243 245
f 242 240 246
f 240 243 246
f 243 242 246
f 239 229 235
f 236 239 235
f 247 254 257
f 249 248 250
f 247 250 251
f 249 252 253
f 248 249 253
f 251 248 253
f 249 250 254
f 247 252 254
f 252 249 254
f 250 248 255
f 251 250 255
f 248 251 255
f 247 251 256
f 252 247 256
f 253 252 256
f 251 253 256
f 250 247 257
f 254 250 257
f 263 262 265
f 259 260 261
f 260 259 262
f 261 260 263
f 258 261 263
f 260 262 263
f 259 261 264
f 261 258 264
f 258 262 264
f 262 259 264
f 262 258 265
f 258 263 265
f 273 268 274
f 267 268 269
f 268 267 270
f 267 269 270
f 269 266 271
f 266 270 271
f 270 269 271
f 270 266 272
f 268 270 272
f 269 268 273
f 266 269 273
f 272 266 273
f 272 273 274
f 268 272 274
f 279 278 282
f 276 277 278
f 277 276 279
f 276 278 279
f 275 277 280
f 279 275 280
f 277 279 280
f 277 275 281
f 278 277 281
f 275 278 281
f 278 275 282
f 275 279 282
f 291 290 294
f 285 284 286
f 284 285 287
f 286 284 287
f 287 285 288
f 286 287 289
f 288 285 290
f 286 289 290
f 287 288 291
f 288 290 291
f 285 286 292
f 290 285 292
f 286 290 292
f 283 289 293
f 289 287 293
f 291 283 293
f 287 291 293
f 289 283 294
f 290 289 294
f 283 291 294
f 301 304 306
f 297 296 298
f 298 295 301
f 299 298 301
f 297 298 302
f 298 299 302
f 299 297 302
f 296 297 303
f 298 296 303
f 295 298 303
f 301 295 304
f 295 303 304
f 297 300 305
f 303 297 305
f 300 304 305
f 304 303 305
f 297 299 306
f 300 297 306
f 299 301 306
f 304 300 306
f 311 313 315
f 309 308 310
f 308 309 311
f 310 308 311
f 307 309 312
f 309 310 312
f 311 307 313
f 309 307 314
f 307 311 314
f 311 309 314
f 310 311 315
f 307 312 315
f 312 310 315
f 313 307 315
f 320 319 323
f 317 318 319
f 318 317 320
f 317 319 320
f 318 316 321
f 319 318 321
f 316 319 321
f 316 318 322
f 320 316 322
f 318 320 322
f 319 316 323
f 316 320 323
f 331 324 332
f 326 325 327
f 326 327 328
f 326 328 329
f 325 326 329
f 327 325 314
f 324 327 314
f 325 329 314
f 327 324 330
f 324 328 330
f 328 327 330
f 328 324 331
f 329 328 331
f 329 331 332
f 324 314 332
f 314 329 332

