# https://github.com/mikedh/trimesh
mtllib material.mtl

o SM_Kleiderschrank_TürLinks
usemtl material_0
v -0.00635700 0.05171000 0.00754100
v -0.00635700 0.05171000 0.00754100
v -0.00635700 0.05171000 0.00754100
v -0.00635700 -0.05430400 0.00754100
v -0.00635700 -0.05430400 0.00754100
v -0.00635700 -0.05430400 0.00754100
v -0.00635700 0.05171000 -0.00754100
v -0.00635700 0.05171000 -0.00754100
v -0.00635700 0.05171000 -0.00754100
v -0.00635700 -0.05430400 -0.00754100
v -0.00635700 -0.05430400 -0.00754100
v -0.00635700 -0.05430400 -0.00754100
v 0.02719900 0.05171000 0.00754100
v 0.02719900 0.05171000 0.00754100
v 0.02719900 0.05171000 -0.00754100
v 0.02719900 0.05171000 -0.00754100
v 0.02719900 -0.05430400 0.00754100
v 0.02719900 -0.05430400 0.00754100
v 0.02719900 -0.05430400 -0.00754100
v 0.02719900 -0.05430400 -0.00754100
v -0.02084300 0.05171000 -0.00754100
v -0.02084300 0.05171000 -0.00754100
v -0.02084300 0.06629700 0.00754100
v -0.02084300 0.06629700 0.00754100
v -0.02084300 0.06629700 0.00754100
v -0.02084300 0.06629700 -0.00754100
v -0.02084300 0.06629700 -0.00754100
v -0.02084300 0.06629700 -0.00754100
v -0.02084300 0.05171000 0.00754100
v -0.02084300 0.05171000 0.00754100
v -0.02084300 -0.05430400 -0.00754100
v -0.02084300 -0.05430400 -0.00754100
v -0.02084300 -0.05430400 0.00754100
v -0.02084300 -0.05430400 0.00754100
v -0.02084300 -0.06370300 -0.00754100
v -0.02084300 -0.06370300 -0.00754100
v -0.02084300 -0.06370300 -0.00754100
v -0.02084300 -0.06370300 0.00754100
v -0.02084300 -0.06370300 0.00754100
v -0.02084300 -0.06370300 0.00754100
v -0.00635700 -0.06370300 -0.00754100
v -0.00635700 -0.06370300 -0.00754100
v -0.00635700 -0.06370300 0.00754100
v -0.00635700 -0.06370300 0.00754100
v 0.02719900 -0.06370300 0.00754100
v 0.02719900 -0.06370300 0.00754100
v 0.02719900 -0.06370300 -0.00754100
v 0.02719900 -0.06370300 -0.00754100
v -0.00635700 0.06629700 -0.00754100
v -0.00635700 0.06629700 -0.00754100
v -0.00635700 0.06629700 0.00754100
v -0.00635700 0.06629700 0.00754100
v 0.02719900 0.06629700 0.00754100
v 0.02719900 0.06629700 0.00754100
v 0.02719900 0.06629700 -0.00754100
v 0.02719900 0.06629700 -0.00754100
vt 0.56152300 0.74047900
vt -0.10894800 0.74047900
vt 0.56152300 1.10894800
vt 0.43798800 0.74047900
vt 0.43798800 1.10894800
vt 1.10839800 0.74047900
vt -0.10894800 0.72607400
vt 0.56152300 0.72607400
vt 0.43798800 1.10894800
vt 0.56152300 1.10894800
vt 0.43798800 0.72607400
vt 1.10839800 0.72607400
vt -0.06103500 0.74047900
vt 0.56152300 1.06103500
vt 0.43798800 1.06103500
vt -0.06103500 0.72607400
vt 1.06054700 0.74047900
vt 0.43798800 1.06103500
vt 0.56152300 1.06103500
vt 1.06054700 0.72607400
vt 0.43798800 0.72607400
vt 0.43798800 1.12005600
vt 0.57177700 1.12005600
vt 1.11914100 0.74047900
vt 0.42773400 0.74047900
vt 0.42773400 1.12005600
vt 1.11914100 0.72607400
vt 0.42773400 0.72607400
vt 0.56152300 1.12005600
vt 0.43798800 0.74047900
vt 0.56152300 0.72607400
vt 0.56152300 1.12005600
vt 0.56152300 0.74047900
vt 0.43798800 1.12005600
vt -0.12005600 0.72607400
vt 0.57177700 0.72607400
vt 0.57177700 1.12005600
vt -0.12005600 0.74047900
vt 0.57177700 0.74047900
vt 0.42773400 1.12005600
vt 0.57177700 1.10894800
vt -0.10894800 0.72607400
vt -0.10894800 0.74047900
vt 0.42773400 1.10894800
vt 0.42773400 1.06103500
vt -0.06103500 0.74047900
vt -0.06103500 0.72607400
vt 0.57177700 1.06103500
vt 0.42773400 1.10894800
vt 1.10839800 0.72607400
vt 1.10839800 0.74047900
vt 0.57177700 1.10894800
vt 0.57177700 1.06103500
vt 1.06054700 0.74047900
vt 1.06054700 0.72607400
vt 0.42773400 1.06103500
f 1/1 4/4 8/8
f 8/8 4/4 11/11
f 7/7 13/13 2/2
f 13/13 7/7 16/16
f 6/6 17/17 12/12
f 20/20 12/12 17/17
f 21/21 25/25 28/28
f 25/25 21/21 30/30
f 21/21 31/31 30/30
f 30/30 31/31 33/33
f 33/33 31/31 36/36
f 33/33 36/36 39/39
f 38/38 35/35 42/42
f 43/43 38/38 42/42
f 42/42 46/46 43/43
f 46/46 42/42 47/47
f 50/50 27/27 24/24
f 50/50 24/24 51/51
f 51/51 54/54 50/50
f 55/55 50/50 54/54
f 53/53 52/52 14/14
f 3/3 14/14 52/52
f 23/23 29/29 52/52
f 52/52 29/29 3/3
f 34/34 3/3 29/29
f 3/3 34/34 5/5
f 5/5 34/34 40/40
f 5/5 40/40 44/44
f 44/44 45/45 5/5
f 18/18 5/5 45/45
f 41/41 19/19 48/48
f 19/19 41/41 10/10
f 32/32 41/41 37/37
f 32/32 10/10 41/41
f 22/22 10/10 32/32
f 9/9 10/10 22/22
f 26/26 9/9 22/22
f 49/49 9/9 26/26
f 56/56 9/9 49/49
f 9/9 56/56 15/15

