# https://github.com/mikedh/trimesh

o convex_0
v -7.73493300 3.37612800 1.34235700
v -8.64864000 3.36498300 1.15289300
v -8.64864000 3.37612800 1.15289300
v -8.64864000 3.36498300 1.34235700
v -8.40346400 3.34269300 1.15289300
v -7.73493300 3.38727300 1.15289300
v -8.41455600 3.38727300 1.34235700
v -8.51482600 3.34269300 1.34235700
v -8.41455600 3.38727300 1.15289300
v -7.73493300 3.38727300 1.34235700
v -7.73493300 3.37612800 1.15289300
v -8.40346400 3.34269300 1.34235700
v -8.64864000 3.37612800 1.34235700
v -8.51482600 3.34269300 1.15289300
v -7.45625300 3.33156300 1.34235700
v -7.73481100 3.37610900 1.15289300
v -7.73481100 3.38727300 1.15289300
v -7.40052800 3.38727300 1.15289300
v -7.45625300 3.28696800 1.18634900
v -7.73481100 3.38727300 1.34235700
v -7.67908600 3.28696800 1.28660800
v -7.40052800 3.38727300 1.34235700
v -7.67908600 3.30927500 1.16405700
v -7.45625300 3.28696800 1.28660800
v -7.41168600 3.34267800 1.15289300
v -7.72365300 3.34267800 1.34235700
v -7.67908600 3.28696800 1.18634900
v -7.41161100 3.37612800 0.35045700
v -6.75418800 3.38727300 2.22270600
v -7.11070000 3.38727300 2.23395300
v -7.41161100 3.38727300 0.35045700
v -7.41161100 3.37612800 2.23395300
v -6.75418800 3.37612800 0.36170300
v -6.75418800 3.37612800 2.22270600
v -6.75418800 3.38727300 0.36170300
v -7.41161100 3.38727300 2.23395300
v 8.94880400 3.38727300 2.62402600
v 7.84579200 3.36498300 2.36769200
v 7.84579200 3.36498300 2.62402600
v 10.01905600 3.36498300 2.36769200
v 8.91604400 3.38727300 2.36769200
v 10.01905600 3.36498300 2.62402600
v 7.84579200 3.37612800 2.62402600
v 10.01905600 3.37612800 2.36769200
v 7.84579200 3.37612800 2.36769200
v 10.01905600 3.37612800 2.62402600
v -6.73209600 3.38727300 0.36160200
v -8.64872900 3.36498300 0.19442700
v -8.52597900 3.34269300 0.25017900
v -6.49775500 3.36498300 0.19442700
v -6.64282300 3.34269300 0.36160200
v -8.64872900 3.37612800 0.36160200
v -7.57850600 3.38727300 0.19442700
v -8.51482000 3.34269300 0.36160200
v -6.63166400 3.34269300 0.25017900
v -8.41459800 3.38727300 0.32815400
v -6.49775500 3.37612800 0.19442700
v -8.64872900 3.37612800 0.19442700
v -6.49775500 3.37612800 0.36160200
v -8.41459800 3.38727300 0.36160200
v -3.99024400 3.38727300 0.36160200
v -5.90707300 3.36498300 0.19442700
v -5.77289200 3.34269300 0.25016300
v -3.74495300 3.36498300 0.19442700
v -3.90114400 3.34269300 0.36160200
v -5.90707300 3.37612800 0.35044100
v -4.83701800 3.38727300 0.19442700
v -5.77289200 3.34269300 0.35044100
v -3.88992700 3.34269300 0.25017900
v -5.67278600 3.38727300 0.32812100
v -3.74495300 3.37612800 0.19442700
v -5.90707300 3.37612800 0.19442700
v -3.74495300 3.37612800 0.36160200
v -4.36908100 3.38727300 0.36160200
v -2.24043000 3.38727300 0.35044100
v -3.14312600 3.36498300 0.19442700
v -2.69725600 3.34269300 0.25016300
v -3.14312600 3.36498300 0.36160200
v -2.24043000 3.37612800 0.19442700
v -2.24043000 3.34269300 0.33929700
v -2.90905700 3.38727300 0.32815400
v -3.00925900 3.34269300 0.36160200
v -3.14312600 3.37612800 0.19442700
v -2.24043000 3.34269300 0.25016300
v -3.02039200 3.34269300 0.25017900
v -3.14312600 3.37612800 0.36160200
v -2.24043000 3.36498300 0.19442700
v -6.49775500 3.36498300 1.34235700
v -7.03271200 3.37612800 1.15289300
v -7.03271200 3.38727300 1.15289300
v -7.03271200 3.37612800 1.34235700
v -6.74297800 3.34269300 1.15289300
v -6.49775500 3.37612800 1.15289300
v -6.73182500 3.38727300 1.34235700
v -6.74297800 3.34269300 1.34235700
v -6.64270000 3.34269300 1.15289300
v -6.73182500 3.38727300 1.15289300
v -7.03271200 3.38727300 1.34235700
v -6.49775500 3.37612800 1.34235700
v -6.64270000 3.34269300 1.34235700
v 3.25407400 3.37612800 1.34235700
v 2.35133300 3.36498300 1.15289300
v 2.35133300 3.37612800 1.15289300
v 2.35133300 3.36498300 1.34235700
v 2.59663500 3.34269300 1.15289300
v 3.25407400 3.38727300 1.15289300
v 2.58541300 3.38727300 1.34235700
v 2.49625200 3.34269300 1.34235700
v 2.58541300 3.38727300 1.15289300
v 3.25407400 3.38727300 1.34235700
v 3.25407400 3.37612800 1.15289300
v 2.59663500 3.34269300 1.34235700
v 2.35133300 3.37612800 1.34235700
v 2.49625200 3.34269300 1.15289300
v 7.24396500 3.37612800 2.22280800
v 5.08184500 3.36498300 2.22280800
v 5.08184500 3.37612800 2.22280800
v 5.08184500 3.36498300 2.36769200
v 7.10999600 3.34269300 2.33423600
v 6.17369900 3.38727300 2.36769200
v 5.21581300 3.34269300 2.22280800
v 7.09899100 3.34269300 2.22280800
v 7.24396500 3.37612800 2.36769200
v 6.99867300 3.38727300 2.22280800
v 5.20459700 3.34269300 2.33423600
v 5.31613100 3.38727300 2.25626300
v 5.08184500 3.37612800 2.36769200
v 7.24396500 3.36498300 2.36769200
v 5.31613100 3.38727300 2.22280800
v 10.01905600 3.37612800 2.22280800
v 7.84579200 3.36498300 2.22280800
v 7.84579200 3.37612800 2.22280800
v 9.88524800 3.34269300 2.33423600
v 8.94880400 3.38727300 2.36769200
v 7.99087500 3.34269300 2.22280800
v 9.86291200 3.34269300 2.22280800
v 9.77356400 3.38727300 2.22280800
v 7.97981300 3.34269300 2.33423600
v 8.08022200 3.38727300 2.25626300
v 8.08022200 3.38727300 2.22280800
v -7.55660900 3.38727300 2.62402600
v -8.64872900 3.36498300 2.36769200
v -8.64872900 3.36498300 2.62402600
v -6.49775500 3.36498300 2.36769200
v -7.57850600 3.38727300 2.36769200
v -6.49775500 3.36498300 2.62402600
v -8.64872900 3.37612800 2.62402600
v -6.49775500 3.37612800 2.36769200
v -8.64872900 3.37612800 2.36769200
v -6.49775500 3.37612800 2.62402600
v -4.81500700 3.38727300 2.62402600
v -5.90707300 3.36498300 2.36769200
v -5.90707300 3.36498300 2.62402600
v -3.74495300 3.36498300 2.36769200
v -4.83701800 3.38727300 2.36769200
v -3.74495300 3.36498300 2.62402600
v -5.90707300 3.37612800 2.62402600
v -3.74495300 3.37612800 2.36769200
v -5.90707300 3.37612800 2.36769200
v -3.74495300 3.37612800 2.62402600
v -2.06211400 3.38727300 2.62402600
v -3.14312600 3.36498300 2.36769200
v -3.14312600 3.36498300 2.62402600
v -1.01444100 3.36498300 2.36769200
v -2.09545300 3.38727300 2.36769200
v -1.01444100 3.36498300 2.62402600
v -3.14312600 3.37612800 2.62402600
v -1.01444100 3.37612800 2.36769200
v -3.14312600 3.37612800 2.36769200
v -1.01444100 3.37612800 2.62402600
v 0.67933800 3.38727300 2.62402600
v -0.40146900 3.36498300 2.36769200
v -0.40146900 3.36498300 2.62402600
v 1.73836100 3.36498300 2.36769200
v 0.65755400 3.38727300 2.36769200
v 1.73836100 3.36498300 2.62402600
v -0.40146900 3.37612800 2.62402600
v 1.73836100 3.37612800 2.36769200
v -0.40146900 3.37612800 2.36769200
v 1.73836100 3.37612800 2.62402600
v 3.43234900 3.38727300 2.62402600
v 2.35133300 3.36498300 2.36769200
v 2.35133300 3.36498300 2.62402600
v 4.49116300 3.36498300 2.36769200
v 3.41014700 3.38727300 2.36769200
v 4.49116300 3.36498300 2.62402600
v 2.35133300 3.37612800 2.62402600
v 4.49116300 3.37612800 2.36769200
v 2.35133300 3.37612800 2.36769200
v 4.49116300 3.37612800 2.62402600
v 6.17391000 3.38727300 2.62402600
v 5.08184500 3.36498300 2.62402600
v 6.15190000 3.38727300 2.36769200
v 7.24396500 3.36498300 2.62402600
v 5.08184500 3.37612800 2.62402600
v 7.24396500 3.37612800 2.62402600
v 8.78196700 3.35385200 2.70209400
v 9.04944600 3.34269700 2.93605400
v 8.94911500 3.38727300 3.24808200
v 8.94911500 3.38727300 2.62402600
v 8.78196700 3.34269700 3.05853100
v 9.04944600 3.33154800 2.85810800
v 8.96026900 3.36497900 3.24808200
v 8.78196700 3.34269700 2.70209400
v 8.87114400 3.37612300 3.24808200
v 8.96026900 3.36497900 2.62402600
v 8.91570700 3.38727300 2.62402600
v 8.82655600 3.33154800 2.93605400
v 9.04944600 3.33154800 2.93605400
v -8.51504200 3.34269300 0.36160200
v -8.39239600 3.38727300 2.22280800
v -8.41472700 3.38727300 2.22280800
v -8.40358600 3.34269300 2.22280800
v -8.64872900 3.36497800 2.22280800
v -8.39239600 3.38727300 0.36160200
v -8.40361200 3.34269300 0.36160200
v -8.64872900 3.37612800 2.22280800
v -8.51504200 3.34269300 2.22280800
v -8.64872900 3.36498300 0.36160200
v -8.39239600 3.37612800 0.36160200
v -8.41475200 3.38727300 0.36160200
v -8.39239600 3.37612800 0.36170300
v -7.72379200 3.38727300 1.15282300
v -7.72385700 3.38727300 2.23395300
v -7.72379200 3.37612800 1.15282300
v -8.39239600 3.37612800 2.22270600
v -8.39239600 3.38727300 0.36170300
v -8.39239600 3.38727300 2.22270600
v -7.72379200 3.37612800 0.35045700
v -7.72385700 3.37612800 2.23395300
v -7.72379200 3.38727300 0.35045700
v 3.49938800 3.37612800 2.70204000
v 2.58537700 3.34269300 2.62402600
v 2.58537700 3.34269300 2.70204000
v 4.24597400 3.34269300 2.62402600
v 2.58537700 3.37612800 2.62402600
v 4.24597400 3.34269300 2.70204000
v 4.24597400 3.37612800 2.62402600
v 2.58537700 3.35384600 2.70204000
v 4.24597400 3.35384600 2.70204000
v -1.14818000 3.34269300 3.05860100
v -2.05092100 3.36497800 2.62415300
v -2.05092100 3.37612800 2.62415300
v -2.05092100 3.36497800 3.05860100
v -1.24856300 3.38727300 3.05864400
v -1.14818000 3.37612800 2.70211900
v -2.01743000 3.34269300 2.62415300
v -1.14818000 3.34269300 2.70211900
v -2.01743000 3.34269300 3.05860100
v -1.93940400 3.38727300 3.05864400
v -1.24856300 3.38727300 2.70207700
v -1.93940400 3.38727300 2.70211900
v -1.14818000 3.37612800 3.05860100
v -1.93940400 3.37612800 2.62415300
v -2.05092100 3.37612800 3.05860100
v -5.76222000 3.34269300 0.35045700
v -5.65073900 3.38727300 2.22280800
v -5.67307000 3.38727300 2.22280800
v -5.76222000 3.34269300 2.22280800
v -5.90707300 3.37612800 0.35045700
v -5.65073900 3.38727300 0.35045700
v -5.90707300 3.36497800 2.22280800
v -5.66193000 3.34269300 0.35045700
v -5.66193000 3.34269300 2.22280800
v -5.90707300 3.37612800 2.22280800
v -5.90707300 3.36498300 0.35045700
v -5.65073900 3.37612800 2.22280800
v -5.67307000 3.38727300 0.35045700
v -5.65067400 3.37612800 0.35045700
v -4.99331600 3.38727300 2.23395300
v -4.99331600 3.37612800 2.23395300
v -5.65073900 3.38727300 2.22270600
v -5.04898600 3.38727300 0.35045700
v -5.65073900 3.37612800 2.22270600
v -5.04898600 3.37612800 0.35045700
v -5.65067400 3.38727300 0.35045700
v -4.99331600 3.38727300 1.34235200
v -4.99331600 3.37612800 1.34235200
v -4.99317400 3.37612800 1.34235700
v -4.66998300 3.38727300 2.23395300
v -4.66998300 3.34269300 2.23395300
v -4.66998300 3.38727300 1.34235700
v -4.99317400 3.38727300 2.23395300
v -4.98200600 3.34269300 1.34235700
v -4.98200600 3.34269300 2.23395300
v -4.66998300 3.34269300 1.34235700
v -4.99317400 3.38727300 1.34235700
v -3.14312600 3.36498100 2.62402600
v -2.90908200 3.35384600 3.05861600
v -2.90908200 3.34269300 3.05861600
v -3.14312600 3.36498100 3.13664300
v -2.90908200 3.37612800 2.62407600
v -3.02053700 3.34269300 2.62407600
v -3.02053700 3.37612800 3.13664300
v -2.90908200 3.34269300 2.62407600
v -3.02053700 3.34269300 3.05861600
v -3.14312600 3.37612800 3.13664300
v -2.88679200 3.38727300 2.22280800
v -2.88679200 3.37612800 2.22280800
v -3.14312600 3.36497800 2.22280800
v -2.89795800 3.34269300 0.36160200
v -2.90909800 3.38727300 0.36160200
v -3.00943900 3.34269300 2.22280800
v -3.14312600 3.37612800 2.22280800
v -2.89795800 3.34269300 2.22280800
v -3.00943900 3.34269300 0.36160200
v -2.88679200 3.38727300 1.34230600
v -2.89795800 3.38727300 0.36160200
v -2.90909800 3.38727300 2.22280800
v -2.89787300 3.37612800 0.36170300
v -2.24044900 3.38727300 2.23395300
v -2.54135500 3.38727300 2.23395300
v -2.24044900 3.38727300 0.35045700
v -2.24044900 3.37612800 2.23395300
v -2.88673700 3.38727300 2.22270600
v -2.24044900 3.37612800 0.35045700
v -2.89787300 3.38727300 0.36170300
v -2.88673700 3.37612800 2.22270600
v -3.99015500 3.38727300 2.90263700
v -4.68111500 3.34269300 2.70206000
v -4.75903200 3.34269300 2.70214500
v -4.68111500 3.34269300 3.13665100
v -3.88996400 3.34269300 2.70210300
v -4.68111500 3.38727300 2.70206000
v -4.79257800 3.37612800 3.13665100
v -3.88996400 3.34269300 3.05858900
v -3.99015500 3.38727300 3.05863200
v -3.87869200 3.37612800 2.70210300
v -4.68111500 3.38727300 3.05863200
v -3.87869200 3.37612800 3.05858900
v -4.79257800 3.37612800 2.70214500
v -3.99024400 3.38727300 2.70210300
v -4.75903200 3.34269300 3.13665100
v 4.24596400 3.38727300 3.05864400
v 4.24596400 3.34269300 2.62415300
v 3.56621000 3.34269300 2.70207700
v 4.35742300 3.34269300 3.05860100
v 4.35742300 3.37612800 2.62415300
v 3.56613200 3.38727300 3.05864400
v 3.56621000 3.38727300 2.70207700
v 3.56613200 3.34269300 3.05864400
v 4.24596400 3.38727300 2.70211900
v 4.35742300 3.37612800 3.05860100
v 4.35742300 3.34269300 2.62415300
v 1.35947000 3.34269300 0.25015600
v 1.73832400 3.37612800 1.15289300
v 1.49318500 3.38727300 1.15289300
v 1.73832400 3.37612800 0.19442700
v 1.59348100 3.34269300 1.15289300
v 1.35947000 3.38727300 0.32830900
v 1.35947000 3.37612800 1.15289300
v 1.60460900 3.34269300 0.25015600
v 1.48202100 3.34269300 1.15289300
v 1.73832400 3.36497800 1.15289300
v 1.35947000 3.37612800 0.19442700
v 1.73832400 3.36497800 0.19442700
v 1.35947000 3.38727300 1.15289300
v 1.49318500 3.38727300 0.32830900
v 0.83568200 3.37612800 1.15282300
v 1.47082000 3.38727300 2.22270600
v 1.47082000 3.37612800 2.22270600
v 1.35939900 3.38727300 0.35045700
v 0.83574500 3.38727300 2.23395300
v 1.35939900 3.37612800 0.35045700
v 0.83568200 3.38727300 0.35045700
v 0.83574500 3.37612800 2.23395300
v 0.83568200 3.37612800 0.35045700
v 1.47082000 3.38727300 1.34235200
v 1.47082000 3.37612800 1.34235200
v -3.74495300 3.36498300 1.34235700
v -4.66998300 3.37612800 1.15289300
v -4.66998300 3.38727300 1.15289300
v -4.66998300 3.37612800 1.34235700
v -4.00138300 3.34269300 1.15289300
v -3.99015500 3.38727300 1.15289300
v -3.99015500 3.38727300 1.34235700
v -4.00138300 3.34269300 1.34235700
v -3.74495300 3.37612800 1.15289300
v -3.90105600 3.34269300 1.15289300
v -3.74495300 3.37612800 1.34235700
v -3.90105600 3.34269300 1.34235700
v -1.01444100 3.36498300 1.34235700
v -1.92832700 3.37612800 1.15289300
v -1.92832700 3.38727300 1.15289300
v -1.92832700 3.37612800 1.34235700
v -1.25964100 3.34269300 1.15289300
v -1.24863800 3.38727300 1.15289300
v -1.24863800 3.38727300 1.34235700
v -1.25964100 3.34269300 1.34235700
v -1.01444100 3.37612800 1.15289300
v -1.92832700 3.38727300 1.34235700
v -1.15936000 3.34269300 1.15289300
v -1.01444100 3.37612800 1.34235700
v -1.15936000 3.34269300 1.34235700
v 0.50127200 3.37612800 1.34235700
v -0.40146900 3.36498300 1.15289300
v -0.40146900 3.37612800 1.15289300
v -0.40146900 3.36498300 1.34235700
v -0.16738900 3.34269300 1.15289300
v 0.50127200 3.38727300 1.15289300
v -0.17852300 3.38727300 1.34235700
v -0.26768400 3.34269300 1.34235700
v -0.17852300 3.38727300 1.15289300
v 0.50127200 3.38727300 1.34235700
v 0.50127200 3.37612800 1.15289300
v -0.16738900 3.34269300 1.34235700
v -0.40146900 3.37612800 1.34235700
v -0.26768400 3.34269300 1.15289300
v 3.53266500 3.33156300 1.34235700
v 3.25410600 3.37610900 1.15289300
v 3.25410600 3.38727300 1.15289300
v 3.58838900 3.38727300 1.15289300
v 3.53266500 3.28696800 1.18634900
v 3.25410600 3.38727300 1.34235700
v 3.30983100 3.28696800 1.28660800
v 3.58838900 3.38727300 1.34235700
v 3.30983100 3.30927500 1.16405700
v 3.53266500 3.28696800 1.28660800
v 3.57723100 3.34267800 1.15289300
v 3.26526500 3.34267800 1.34235700
v 3.30983100 3.28696800 1.18634900
v 4.49116300 3.36498300 1.34235700
v 3.58842200 3.37612800 1.15289300
v 3.58842200 3.38727300 1.15289300
v 3.58842200 3.37612800 1.34235700
v 4.23481500 3.34269300 1.15289300
v 4.24586100 3.38727300 1.15289300
v 4.24586100 3.38727300 1.34235700
v 4.23481500 3.34269300 1.34235700
v 4.49116300 3.37612800 1.15289300
v 3.58842200 3.38727300 1.34235700
v 4.33511000 3.34269300 1.15289300
v 4.49116300 3.37612800 1.34235700
v 4.33511000 3.34269300 1.34235700
v 7.24396500 3.36498300 1.34235700
v 6.34122400 3.37612800 1.15289300
v 6.34122400 3.38727300 1.15289300
v 6.34122400 3.37612800 1.34235700
v 6.98752800 3.34269300 1.15289300
v 6.99875100 3.38727300 1.15289300
v 6.99875100 3.38727300 1.34235700
v 6.98752800 3.34269300 1.34235700
v 7.24396500 3.37612800 1.15289300
v 6.34122400 3.38727300 1.34235700
v 7.09904500 3.34269300 1.15289300
v 7.24396500 3.37612800 1.34235700
v 7.09904500 3.34269300 1.34235700
v 10.01905600 3.36498300 1.34235700
v 9.09402600 3.37612800 1.15289300
v 9.09402600 3.38727300 1.15289300
v 9.09402600 3.37612800 1.34235700
v 9.76262700 3.34269300 1.15289300
v 9.77376400 3.38727300 1.15289300
v 9.77376400 3.38727300 1.34235700
v 9.76262700 3.34269300 1.34235700
v 10.01905600 3.37612800 1.15289300
v 9.09402600 3.38727300 1.34235700
v 9.86295300 3.34269300 1.15289300
v 10.01905600 3.37612800 1.34235700
v 9.86295300 3.34269300 1.34235700
v -6.49775500 3.37612800 2.22280800
v -8.64872900 3.36498300 2.22280800
v -7.57892700 3.38727300 2.36769200
v -6.63166400 3.34269300 2.33423600
v -8.52576900 3.34269300 2.33423600
v -6.64282300 3.34269300 2.22280800
v -8.41438800 3.38727300 2.22280800
v -8.51482000 3.34269300 2.22280800
v -6.73188600 3.38727300 2.25626300
v -6.73188600 3.38727300 2.22280800
v -3.87869200 3.37612800 2.22280800
v -5.90707300 3.36498300 2.22280800
v -3.89001000 3.34269300 2.33423600
v -4.81465400 3.38727300 2.36769200
v -5.76193300 3.34269300 2.22280800
v -3.90112800 3.34269300 2.22280800
v -3.87869200 3.37612800 2.36769200
v -5.77325000 3.34269300 2.33423600
v -3.99027700 3.38727300 2.22280800
v -5.67278400 3.38727300 2.25626300
v -3.87869200 3.36498300 2.36769200
v -5.67278400 3.38727300 2.22280800
v -1.30433100 3.38727300 2.25626300
v -3.14282800 3.36498300 2.22280800
v -3.14282800 3.37612800 2.22280800
v -3.14282800 3.36498300 2.36769200
v -1.30433100 3.34269300 2.24513000
v -1.30433100 3.36498300 2.36769200
v -3.02026100 3.34269300 2.33423600
v -2.09552300 3.38727300 2.36769200
v -3.00928300 3.34269300 2.22280800
v -2.90903400 3.38727300 2.22280800
v -1.30433100 3.34269300 2.33425100
v -1.30433100 3.38727300 2.23395500
v -3.14282800 3.37612800 2.36769200
v -1.30433100 3.37612800 2.36769200
v 5.33824400 3.37612800 0.36170300
v 6.00681000 3.38727300 2.23395300
v 5.61683500 3.38727300 2.23395300
v 6.00681000 3.38727300 0.35045700
v 6.00681000 3.37612800 2.23395300
v 6.00681000 3.37612800 0.35045700
v 5.33824400 3.38727300 0.36170300
v 5.33824400 3.37612800 2.22270600
v 5.33824400 3.38727300 2.22270600
v 3.38781300 3.37612800 3.05860900
v 2.60784100 3.34269300 2.70206000
v 2.58537700 3.34269300 2.90262100
v 2.60784100 3.38727300 2.70206000
v 3.35435200 3.34269300 2.70209500
v 2.58537700 3.38727300 3.05864400
v 3.35435200 3.34269300 3.05860900
v 3.27627600 3.38727300 2.70206000
v 2.58537700 3.34269300 3.05864400
v 3.27635500 3.38727300 3.05864400
v 3.38781300 3.37612800 2.70209500
v 0.81343100 3.38727300 3.05864400
v 1.49315000 3.34269300 2.62415300
v 1.49315000 3.37612800 2.62415300
v 1.60453700 3.34269300 3.05860100
v 0.73540100 3.34269300 2.70211900
v 0.73540100 3.34269300 3.05860100
v 1.49315000 3.38727300 3.05864400
v 0.81351600 3.38727300 2.70207700
v 1.60453700 3.37612800 2.62415300
v 1.49315000 3.38727300 2.70211900
v 0.73540100 3.37612800 2.70211900
v 1.60453700 3.34269300 2.62415300
v 1.60453700 3.37612800 3.05860100
v 0.73540100 3.37612800 3.05860100
v 8.10225300 3.37612800 0.35045700
v 8.77075700 3.38727300 2.23395300
v 8.77075700 3.37612800 2.23395300
v 8.10225300 3.37612800 2.22270600
v 8.73731500 3.38727300 0.35045700
v 8.10225300 3.38727300 2.22270600
v 8.73731500 3.37612800 0.35045700
v 8.10225300 3.38727300 0.35045700
v 8.77075700 3.38727300 1.34235200
v 6.01802100 3.35385200 2.70209400
v 6.27435400 3.34269700 2.93605400
v 6.17401400 3.38727300 3.24808200
v 6.17401400 3.38727300 2.62402600
v 6.01802100 3.34269700 3.05853100
v 6.27435400 3.33154800 2.85810800
v 6.19632000 3.36497900 3.24808200
v 6.09605500 3.37612300 3.24808200
v 6.01802100 3.34269700 2.70209400
v 6.19632000 3.36497900 2.62402600
v 6.05146700 3.33154800 2.93605400
v 6.27435400 3.33154800 2.93605400
v 6.08491400 3.37612300 2.70209400
v 9.77386800 3.38727300 2.90262100
v 8.96028700 3.36497800 2.70209500
v 8.96028700 3.37612800 2.70209500
v 8.96028700 3.37612800 3.05860900
v 9.77386800 3.34269300 3.05864400
v 9.77378800 3.34269300 2.70209500
v 8.99381400 3.34269300 3.05860900
v 9.77378800 3.38727300 2.70209500
v 9.07178000 3.38727300 3.05864400
v 8.99381400 3.34269300 2.70209500
v 9.77386800 3.38727300 3.05864400
v 9.07178000 3.38727300 2.70209500
v -7.63452200 3.36497900 2.62402600
v -7.45622000 3.34269700 2.93605400
v -7.55656400 3.38727300 3.24808200
v -7.67911900 3.33154800 2.93605400
v -7.55656400 3.38727300 2.62402600
v -7.63452200 3.37612300 3.24808200
v -7.45622000 3.33154800 2.93605400
v -7.53424400 3.36497900 3.24808200
v -7.45622000 3.33154800 2.85810800
v -7.63452200 3.37612300 2.62402600
v -7.67911900 3.33154800 2.85810800
v -7.53424400 3.36497900 2.62402600
v -4.88172100 3.36497900 2.62402600
v -4.71456300 3.34269700 2.93605400
v -4.81487500 3.38727300 3.24808200
v -4.93744000 3.33154800 2.93605400
v -4.81487500 3.38727300 2.62402600
v -4.88172100 3.37612300 3.24808200
v -4.71456300 3.33154800 2.93605400
v -4.79257900 3.36497900 3.24808200
v -4.71456300 3.33154800 2.85810800
v -4.88172100 3.37612300 2.62402600
v -4.93744000 3.33154800 2.85810800
v -4.79257900 3.36497900 2.62402600
v -4.93744000 3.34269700 2.93605400
v -1.96176100 3.34269300 2.93608400
v -2.18466000 3.33154800 2.85807000
v -2.18466000 3.34269300 2.85807000
v -1.96176100 3.33154800 2.85807000
v -2.18466000 3.33154800 2.93608400
v 0.52356200 3.34269300 2.70212500
v 0.77989600 3.34269300 2.93608400
v 0.63501800 3.37612800 3.13665100
v 0.63501800 3.37612800 2.70212500
v 0.52356200 3.34269300 3.13665100
v 0.52356200 3.37612800 3.13665100
v 0.77989600 3.33154800 2.85811200
v 0.55700900 3.33154800 2.93608400
v 0.60157100 3.34269300 3.13665100
v 0.59043000 3.37612800 2.70212500
v 0.77989600 3.33154800 2.93608400
v 0.60157100 3.34269300 2.70212500
v 3.38783300 3.37612300 2.62402600
v 3.56613200 3.35385200 3.05853100
v 3.49923900 3.37612300 3.05853100
v 3.30979800 3.33154800 2.93605400
v 3.56613200 3.34269700 2.70209400
v 3.41013900 3.38727300 3.24808200
v 3.43242000 3.38727300 2.62402600
v 3.56613200 3.34269700 3.05853100
v 3.38783300 3.36497900 3.24808200
v 3.53268500 3.33154800 2.93605400
v 3.30979800 3.33154800 2.85810800
v 3.56613200 3.35385200 2.70209400
v 3.30979800 3.34269700 2.93605400
v 3.48809800 3.37612300 3.24808200
v 3.38783300 3.36497900 2.62402600
v -3.87869200 3.35384600 2.70204000
v -5.77333300 3.34269300 2.62402600
v -5.77333300 3.34269300 2.70204000
v -5.77333300 3.37612800 2.62402600
v -3.89000500 3.34269300 2.62402600
v -3.87869200 3.37612800 2.70204000
v -3.87869200 3.37612800 2.62402600
v -5.77333300 3.37612800 2.70204000
v -3.89000500 3.34269300 2.70204000
v 0.72417100 3.36498300 1.34235700
v 0.83562000 3.38727300 2.23395300
v 0.83562000 3.37612800 2.23395300
v 0.72417100 3.36498300 2.23395300
v 0.82447100 3.34269300 1.34235700
v 0.83562000 3.38727300 1.34235700
v 0.73532000 3.34269300 2.23395300
v 0.82447100 3.34269300 2.23395300
v 0.72417100 3.37612800 2.23395300
v 0.73532000 3.34269300 1.34235700
v 0.72417100 3.37612800 1.34235700
v 0.81331100 3.38727300 1.34235700
v -7.71293800 3.38727300 3.05860900
v -8.64863000 3.36498300 2.62402600
v -8.64863000 3.37612800 2.62402600
v -8.64863000 3.36498300 3.13664300
v -7.63471500 3.34269300 2.70211000
v -8.52593600 3.34269300 3.13664300
v -7.63471500 3.34269300 3.13664300
v -7.71283800 3.38727300 2.70206000
v -8.52613400 3.34269300 2.62407600
v -8.41455800 3.38727300 3.05860900
v -7.63471500 3.37612800 3.13664300
v -8.41455800 3.38727300 2.70206000
v -8.64863000 3.37612800 3.13664300
v -7.63471500 3.37612800 2.70211000
v -8.41465700 3.37612800 2.62407600
v -6.74289800 3.34269300 0.36160200
v -6.73175700 3.38727300 2.22280800
v -6.73175700 3.38727300 0.36160200
v -6.49775500 3.36498300 0.36160200
v -6.64260700 3.34269300 2.22280800
v -6.74289800 3.34269300 2.22280800
v -6.64260700 3.34269300 0.36160200
v -6.75408900 3.38727300 2.22280800
v -6.49775500 3.36497800 2.22280800
v -6.75408900 3.37612800 0.36160200
v -6.75408900 3.38727300 0.36160200
v -4.66985500 3.37612800 0.35045700
v -4.01243200 3.38727300 2.22270600
v -4.19078700 3.38727300 2.23395300
v -4.01243200 3.37612800 2.22270600
v -4.01243200 3.38727300 0.36170300
v -4.66998300 3.37612800 2.23395300
v -4.66985500 3.38727300 0.35045700
v -4.01243200 3.37612800 0.36170300
v -4.88174600 3.37612800 3.05860900
v -5.67295100 3.34269300 2.70209500
v -5.67295100 3.34269300 3.05864400
v -5.67295100 3.38727300 2.70209500
v -4.88174600 3.34269300 2.70209500
v -5.67295100 3.38727300 3.05864400
v -4.97089700 3.38727300 2.70209500
v -4.88174600 3.34269300 3.05860900
v -4.97105200 3.38727300 3.05864400
v -4.88174600 3.37612800 2.70209500
v -4.01243200 3.37612800 0.36160200
v -3.74495300 3.37612800 1.15273800
v -3.74495300 3.36498300 1.15273800
v -3.90094700 3.34269300 0.36160200
v -4.00125200 3.34269300 1.15273800
v -4.01243200 3.38727300 1.15273800
v -4.00125200 3.34269300 0.36160200
v -3.99012400 3.38727300 0.36160200
v -3.90094700 3.34269300 1.15273800
v -3.74495300 3.36498300 0.36160200
v -1.14818000 3.36498300 0.19442700
v -1.01444100 3.37612800 3.24808200
v -1.14818000 3.37612800 3.24808200
v -1.01444100 3.37612800 0.19442700
v -1.01444100 3.36498300 3.24808200
v -1.14818000 3.36498300 3.24808200
v -1.14818000 3.37612800 0.19442700
v -1.01444100 3.36498300 0.19442700
v -0.40146900 3.36498300 0.19471500
v -0.27887400 3.37612800 3.13635500
v -0.40146900 3.37612800 3.13635500
v -0.27887400 3.36498300 3.13635500
v -0.27887400 3.37612800 0.19471500
v -0.27887400 3.36498300 0.19471500
v -0.40146900 3.37612800 0.19471500
v -0.40146900 3.36498300 3.13635500
v 4.17910400 3.34269300 0.25015600
v 4.35742300 3.37612800 1.15289300
v 4.24597400 3.38727300 1.15289300
v 4.35742300 3.37612800 0.19442700
v 4.33513400 3.34269300 1.15289300
v 4.17910400 3.38727300 0.32830900
v 4.17910400 3.37612800 1.15289300
v 4.35742300 3.34269300 0.25015600
v 4.23485500 3.34269300 1.15289300
v 4.17910400 3.37612800 0.19442700
v 4.17910400 3.38727300 1.15289300
v 4.24597400 3.38727300 0.32830900
v 4.35742300 3.36498300 0.19442700
v 4.49116300 3.36498300 1.15289300
v 4.49116300 3.37612800 0.19442700
v 4.49116300 3.36498300 0.19442700
v 4.35742300 3.36498300 1.15289300
v -4.99327600 3.37612800 1.34235700
v -5.90698300 3.36498300 1.15289300
v -5.90698300 3.37612800 1.15289300
v -5.90698300 3.36498300 1.34235700
v -5.66180700 3.34269300 1.15289300
v -4.99327600 3.38727300 1.15289300
v -5.67289900 3.38727300 1.34235700
v -5.76207800 3.34269300 1.34235700
v -5.67289900 3.38727300 1.15289300
v -4.99327600 3.38727300 1.34235700
v -4.99327600 3.37612800 1.15289300
v -5.66180700 3.34269300 1.34235700
v -5.90698300 3.37612800 1.34235700
v -5.76207800 3.34269300 1.15289300
v -4.71461900 3.33156300 1.34235700
v -4.99312400 3.37610900 1.15289300
v -4.99312400 3.38727300 1.15289300
v -4.66998300 3.34267800 1.15289300
v -4.93741600 3.28696800 1.18634900
v -4.99312400 3.38727300 1.34235700
v -4.71461900 3.28696800 1.28660800
v -4.93741600 3.28696800 1.28660800
v -4.71461900 3.28696800 1.18634900
v -4.98198900 3.34267800 1.34235700
v -4.98198900 3.34267800 1.15289300
v -4.66998300 3.34267800 1.34235700
v -2.25153000 3.37612800 1.34235700
v -3.14312600 3.36498300 1.15289300
v -3.14312600 3.37612800 1.15289300
v -3.14312600 3.36498300 1.34235700
v -2.89788500 3.34269300 1.15289300
v -2.25153000 3.38727300 1.15289300
v -2.90905600 3.38727300 1.34235700
v -3.00924700 3.34269300 1.34235700
v -2.90905600 3.38727300 1.15289300
v -2.25153000 3.38727300 1.34235700
v -2.25153000 3.37612800 1.15289300
v -2.89788500 3.34269300 1.34235700
v -3.14312600 3.37612800 1.34235700
v -3.00924700 3.34269300 1.15289300
v -1.96179800 3.33156300 1.34235700
v -2.25153000 3.37610900 1.15289300
v -1.92832700 3.34267800 1.15289300
v -2.18461800 3.28696800 1.18634900
v -1.97296600 3.28696800 1.28660800
v -2.18461800 3.29813200 1.30890000
v -1.97296600 3.28696800 1.18634900
v -2.24036200 3.34267800 1.34235700
v -2.24036200 3.34267800 1.15289300
v -1.92832700 3.34267800 1.34235700
v 0.77986300 3.33156300 1.34235700
v 0.50130500 3.37610900 1.15289300
v 0.50130500 3.38727300 1.15289300
v 0.83558800 3.38727300 1.15289300
v 0.77986300 3.28696800 1.18634900
v 0.50130500 3.38727300 1.34235700
v 0.55702900 3.28696800 1.28660800
v 0.83558800 3.38727300 1.34235700
v 0.55702900 3.30927500 1.16405700
v 0.77986300 3.28696800 1.28660800
v 0.82443000 3.34267800 1.15289300
v 0.51246300 3.34267800 1.34235700
v 0.55702900 3.28696800 1.18634900
v 1.73836100 3.36498300 1.34235700
v 0.83562000 3.37612800 1.15289300
v 0.83562000 3.38727300 1.15289300
v 0.83562000 3.37612800 1.34235700
v 1.48201300 3.34269300 1.15289300
v 1.49305900 3.38727300 1.15289300
v 1.49305900 3.38727300 1.34235700
v 1.48201300 3.34269300 1.34235700
v 1.73836100 3.37612800 1.15289300
v 1.59335300 3.34269300 1.15289300
v 1.73836100 3.37612800 1.34235700
v 1.59335300 3.34269300 1.34235700
v 5.99573100 3.37612800 1.34235700
v 5.08184500 3.36498300 1.15289300
v 5.08184500 3.37612800 1.15289300
v 5.08184500 3.36498300 1.34235700
v 5.32713400 3.34269300 1.15289300
v 5.99573100 3.38727300 1.15289300
v 5.31604200 3.38727300 1.34235700
v 5.21567200 3.34269300 1.34235700
v 5.31604200 3.38727300 1.15289300
v 5.99573100 3.38727300 1.34235700
v 5.99573100 3.37612800 1.15289300
v 5.32713400 3.34269300 1.34235700
v 5.08184500 3.37612800 1.34235700
v 5.21567200 3.34269300 1.15289300
v 6.27433000 3.33156300 1.34235700
v 5.99573100 3.37610900 1.15289300
v 6.27433000 3.28696800 1.18634900
v 6.05149800 3.28696800 1.28660800
v 6.05149800 3.30927500 1.16405700
v 6.27433000 3.28696800 1.28660800
v 6.00692500 3.34267800 1.34235700
v 6.31890400 3.34267800 1.15289300
v 6.05149800 3.28696800 1.18634900
v 8.75967700 3.37612800 1.34235700
v 7.84579200 3.36498300 1.15289300
v 7.84579200 3.37612800 1.15289300
v 7.84579200 3.36498300 1.34235700
v 8.09108100 3.34269300 1.15289300
v 8.75967700 3.38727300 1.15289300
v 8.07989900 3.38727300 1.34235700
v 7.99071100 3.34269300 1.34235700
v 8.07989900 3.38727300 1.15289300
v 8.75967700 3.38727300 1.34235700
v 8.75967700 3.37612800 1.15289300
v 8.09108100 3.34269300 1.34235700
v 7.84579200 3.37612800 1.34235700
v 7.99071100 3.34269300 1.15289300
v 9.04939400 3.33156300 1.34235700
v 8.75971000 3.37610900 1.15289300
v 8.75971000 3.38727300 1.15289300
v 9.09399300 3.38727300 1.15289300
v 9.04939400 3.28696800 1.18634900
v 8.75971000 3.38727300 1.34235700
v 8.82659300 3.28696800 1.28660800
v 9.09399300 3.38727300 1.34235700
v 8.82659300 3.30927500 1.16405700
v 9.04939400 3.28696800 1.28660800
v 8.77086800 3.34267800 1.34235700
v 9.08283500 3.34267800 1.15289300
v 8.82659300 3.28696800 1.18634900
v 8.78196700 3.34269300 2.90261300
v 7.84579200 3.36498300 3.13664300
v 8.78196700 3.38727300 3.05861600
v 8.78187600 3.38727300 2.70210300
v 7.97967500 3.34269300 2.62417600
v 8.07992700 3.38727300 3.05861600
v 8.78196700 3.34269300 3.05861600
v 7.97967500 3.34269300 3.05856600
v 8.78187600 3.34269300 2.70210300
v 8.07992700 3.38727300 2.70215300
v 7.84579200 3.37612800 3.13664300
v 8.07992700 3.37612800 2.62417600
v 7.96840400 3.37612800 3.13664300
v 2.75258400 3.37612800 0.36160200
v 2.47392700 3.36498300 0.19442700
v 2.48515300 3.34269300 0.25017900
v 3.25407400 3.36498300 0.19442700
v 3.25407400 3.34269300 0.33929700
v 3.25407400 3.38727300 0.35044100
v 2.49630200 3.34269300 0.36160200
v 2.58542100 3.38727300 0.32815400
v 3.25407400 3.37612800 0.19442700
v 3.25407400 3.34269300 0.25016300
v 2.47392700 3.37612800 0.19442700
v 2.47392700 3.37612800 0.36160200
v -6.63149400 3.37612800 3.13669300
v -7.42262900 3.34269300 2.70206000
v -7.50074400 3.34269300 2.70210300
v -7.42262900 3.38727300 2.70206000
v -7.53414600 3.37612800 3.13660800
v -6.63149400 3.34269300 2.70210300
v -7.42254100 3.34269300 3.13669300
v -6.73196600 3.38727300 2.70206000
v -6.63149400 3.34269300 3.13669300
v -7.42262900 3.38727300 3.05862400
v -6.73187700 3.38727300 3.05862400
v -7.53414600 3.37612800 2.70210300
v -6.63149400 3.37612800 2.70210300
v -7.50074400 3.34269300 3.13660800
v 8.73738800 3.36498300 0.19442700
v 9.12746100 3.38727300 1.15289300
v 8.73738800 3.38727300 1.15289300
v 9.08282500 3.34269300 1.15289300
v 9.12746100 3.38727300 0.32830900
v 9.12746100 3.34269300 0.25015600
v 8.77087400 3.34269300 1.15289300
v 8.73738800 3.34269300 0.25015600
v 8.73738800 3.38727300 0.32830900
v 8.94911000 3.38727300 0.19442700
v 9.12746100 3.37612800 0.19442700
v 9.12746100 3.37612800 1.15289300
v 7.11022500 3.37612800 3.13669300
v 5.20443900 3.34269300 3.05867900
v 5.20443900 3.34269300 3.13669300
v 5.20443900 3.37612800 3.05867900
v 7.11022500 3.34269300 3.05867900
v 7.11022500 3.37612800 3.05867900
v 7.11022500 3.34269300 3.13669300
v 5.20443900 3.37612800 3.13669300
v -3.87869200 3.36498300 1.34235700
v -3.74495300 3.37612800 3.13664300
v -3.87869200 3.37612800 3.13664300
v -3.74495300 3.36498300 3.13664300
v -3.87869200 3.36498300 3.13664300
v -3.87869200 3.37612800 1.34235700
v 7.11022500 3.36498300 2.62402600
v 7.24396500 3.37612800 3.13664300
v 7.24396500 3.36498300 3.13664300
v 7.11022500 3.37612800 3.13664300
v 7.11022500 3.37612800 2.62402600
v 7.11022500 3.36498300 3.13664300
v -1.14818000 3.37612800 2.70204000
v -2.90908200 3.34269300 2.62402600
v -2.90908200 3.34269300 2.70204000
v -2.90908200 3.37612800 2.62402600
v -1.14818000 3.34269300 2.62402600
v -1.14818000 3.34269300 2.70204000
v -1.14818000 3.37612800 2.62402600
v -2.15118400 3.37612800 2.70204000
v -2.90908200 3.35384600 2.70204000
v -1.27076200 3.37612800 0.36179800
v -1.14818000 3.37612800 2.36749600
v -1.24847800 3.38727300 2.25615500
v -1.30421000 3.34269300 2.33411300
v -1.15933000 3.34269300 0.36179800
v -1.14818000 3.37612800 0.36179800
v -1.14818000 3.34269300 2.33411300
v -1.25961200 3.34269300 0.36179800
v -1.30421000 3.38727300 1.34245700
v -1.30421000 3.37612800 2.36749600
v -1.24846300 3.38727300 0.36179800
v -1.30421000 3.37612800 1.34245700
v -1.30421000 3.38727300 2.25615500
v 8.77082200 3.34269300 1.34235700
v 9.09402600 3.38727300 2.23395300
v 9.09402600 3.37612800 2.23395300
v 8.77082200 3.38727300 2.23395300
v 9.08285800 3.34269300 2.23395300
v 8.77082200 3.38727300 1.34235700
v 9.08285800 3.34269300 1.34235700
v 8.77082200 3.34269300 2.23395300
v -0.26772600 3.34269300 1.34235700
v -0.03368600 3.37612800 2.36769200
v -0.03368600 3.36498300 2.36769200
v -0.03368600 3.38727300 1.34235700
v -0.03368600 3.34269300 2.33417000
v -0.27885000 3.34269300 2.33417000
v -0.17858800 3.38727300 2.25618600
v -0.16742800 3.34269300 1.34235700
v -0.40146900 3.36497800 1.34235700
v -0.40146900 3.36497800 2.36769200
v -0.03368600 3.37612800 1.34235700
v -0.03368600 3.38727300 2.25618600
v -0.17858800 3.38727300 1.34235700
v -5.90707300 3.36498100 2.62402600
v -5.67302900 3.37612800 3.13665100
v -5.67302900 3.34269300 3.13665100
v -5.90707300 3.36498100 3.13660100
v -5.67302900 3.34269300 2.70210400
v -5.77335000 3.37612800 2.62402600
v -5.77335000 3.34269300 3.13665100
v -5.90707300 3.37612800 3.13660100
v -5.77335000 3.34269300 2.70210400
v -5.67302900 3.35384600 2.70210400
v 4.20133400 3.38727300 2.25626000
v 2.35133300 3.36498300 2.23395300
v 2.35133300 3.37612800 2.23395300
v 4.20133400 3.34269300 2.24511900
v 4.20133400 3.36498300 2.36769200
v 2.48515800 3.34269300 2.33425700
v 2.48515800 3.34269300 2.23395300
v 4.20133400 3.34269300 2.33425700
v 2.58566200 3.38727300 2.23395300
v 4.20133400 3.38727300 2.23395300
v 4.20133400 3.37612800 2.36769200
v 5.21555700 3.34269300 0.36160200
v 5.33817900 3.38727300 2.22280800
v 5.31584700 3.38727300 2.22280800
v 5.21550700 3.34269300 2.22280800
v 5.08184500 3.37612800 0.36160200
v 5.33817900 3.38727300 0.36160200
v 5.32698800 3.34269300 2.22280800
v 5.08184500 3.36497800 2.22280800
v 5.32698800 3.34269300 0.36160200
v 5.08184500 3.36498300 0.36160200
v 5.33817900 3.37612800 2.22280800
v 5.31584700 3.38727300 0.36160200
v 2.35133300 3.36498300 0.19442700
v 2.47392700 3.37612800 1.15289300
v 2.47392700 3.36498300 1.15289300
v 2.35133300 3.37612800 0.19442700
v -1.14818000 3.37612800 3.13669300
v -3.02053100 3.34269300 3.05867900
v -3.02053100 3.34269300 3.13669300
v -3.02053100 3.37612800 3.05867900
v -1.14818000 3.34269300 3.05867900
v -1.14818000 3.37612800 3.05867900
v -1.14818000 3.34269300 3.13669300
v -3.02053100 3.37612800 3.13669300
v 6.31902800 3.37612800 1.34231300
v 6.97642200 3.38727300 2.22277300
v 6.61989100 3.38727300 2.23395300
v 6.50842700 3.38727300 0.36160200
v 6.97642200 3.37612800 0.36160200
v 6.97642200 3.37612800 2.22277300
v 6.97642200 3.38727300 0.36160200
v 6.31902800 3.38727300 2.23395300
v 6.31902800 3.37612800 2.23395300
v 6.50842700 3.37612800 0.36160200
v 6.31902800 3.38727300 1.34231300
v 7.99064500 3.34269300 0.35045700
v 8.10212600 3.38727300 2.22280800
v 8.07979400 3.38727300 2.22280800
v 8.10212600 3.38727300 0.35045700
v 7.84579200 3.37612800 0.35045700
v 8.09093500 3.34269300 2.22280800
v 7.84579200 3.36497800 2.22280800
v 8.09091000 3.34269300 0.35045700
v 7.99064500 3.34269300 2.22280800
v 7.84579200 3.36498300 0.35045700
v 8.10212600 3.37612800 0.35045700
v 8.07976900 3.38727300 0.35045700
v 3.57726900 3.34269300 1.34235700
v 3.58840300 3.37612800 2.36769200
v 3.43242100 3.38727300 2.36769200
v 3.58840300 3.38727300 1.34235700
v 3.38782900 3.37612800 1.34235700
v 3.48810600 3.34269300 2.33417000
v 3.58840300 3.34269300 2.33417000
v 3.38782900 3.36498300 2.36769200
v 3.48810600 3.34269300 1.34235700
v 3.41013500 3.38727300 1.34235700
v 3.58840300 3.38727300 2.25618600
v 3.38782900 3.36498300 1.34235700
v 3.38782900 3.37612800 2.36769200
v 4.35742300 3.36498300 2.62402600
v 4.49116300 3.37612800 3.13664300
v 4.49116300 3.36498300 3.13664300
v 4.35742300 3.37612800 3.13664300
v 4.35742300 3.37612800 2.62402600
v 4.35742300 3.36498300 3.13664300
v 9.09408500 3.37612800 1.34231300
v 9.75157800 3.38727300 2.22277300
v 9.39496400 3.38727300 2.23395300
v 9.12748700 3.38727300 0.36160200
v 9.75157800 3.37612800 0.36160200
v 9.75157800 3.37612800 2.22277300
v 9.75157800 3.38727300 0.36160200
v 9.09408500 3.38727300 2.23395300
v 9.12748700 3.37612800 0.36160200
v 9.09408500 3.37612800 2.23395300
v 2.47392700 3.36498300 0.36160200
v 2.60766700 3.38727300 1.15273800
v 2.60766700 3.37612800 1.15273800
v 2.60766700 3.38727300 0.36160200
v 2.59650000 3.34269300 0.36160200
v 2.49623500 3.34269300 1.15273800
v 2.47392700 3.37612800 1.15273800
v 2.59650000 3.34269300 1.15273800
v 2.49623500 3.34269300 0.36160200
v 10.01905600 3.37612800 3.24814300
v -8.64799500 3.36498300 3.13669300
v -8.64799500 3.36498300 3.24814300
v -8.64799500 3.37612800 3.13669300
v 10.01905600 3.36498300 3.13669300
v 10.01905600 3.37612800 3.13669300
v 10.01905600 3.36498300 3.24814300
v -8.64799500 3.37612800 3.24814300
v 6.99876300 3.38727300 2.90263700
v 6.30780200 3.34269300 2.70206000
v 6.22988600 3.34269300 2.70214500
v 6.30780200 3.34269300 3.13665100
v 7.11022500 3.34269300 3.05858900
v 6.30780200 3.38727300 3.05863200
v 6.99867300 3.38727300 2.70210300
v 7.11022500 3.34269300 2.70210300
v 6.30780200 3.38727300 2.70206000
v 7.11022500 3.37612800 3.05858900
v 6.19634000 3.37612800 3.13665100
v 6.99876300 3.38727300 3.05863200
v 6.19634000 3.37612800 2.70214500
v 7.11022500 3.37612800 2.70210300
v 6.22988600 3.34269300 3.13665100
v -5.04887500 3.37612800 0.35045700
v -4.67002100 3.38727300 1.15281400
v -4.67002100 3.34269300 1.15281400
v -4.67002100 3.38727300 0.35045700
v -5.04887500 3.38727300 1.15281400
v -4.98199800 3.34269300 0.35045700
v -4.98199800 3.34269300 1.15281400
v -4.67002100 3.34269300 0.35045700
v -5.04887500 3.38727300 0.35045700
v -5.04887500 3.37612800 1.15281400
v -2.01748600 3.34269300 0.25032700
v -1.91718200 3.38727300 2.23395300
v -1.93950200 3.38727300 2.23395300
v -2.01748600 3.34269300 2.23395300
v -2.05092100 3.37612800 0.19442700
v -1.91718200 3.34269300 0.25032700
v -1.91718200 3.38727300 0.32838600
v -2.05092100 3.37612800 2.23395300
v -1.92833500 3.34269300 2.23395300
v -2.05092100 3.36498300 0.19442700
v -1.91718200 3.37612800 0.19442700
v -2.05092100 3.36498300 2.23395300
v -1.93950200 3.38727300 0.32838600
v -1.14818000 3.36498300 0.36160200
v -1.91718200 3.36498300 0.19442700
v -1.91718200 3.34269300 0.25016300
v -1.91718200 3.38727300 0.35044100
v -1.15939600 3.34269300 0.36160200
v -1.14818000 3.34269300 0.25017900
v -1.91718200 3.34269300 0.33929700
v -1.24852100 3.38727300 0.36160200
v -1.24852100 3.38727300 0.32815400
v -1.91718200 3.37612800 0.35045700
v -1.27077500 3.38727300 1.15282300
v -1.30424700 3.38727300 2.23395300
v -1.27077500 3.37612800 1.15282300
v -1.91718200 3.37612800 2.23395300
v -1.91718200 3.38727300 0.35045700
v -1.27077500 3.37612800 0.36170300
v -1.30424700 3.37612800 2.23395300
v -1.27077500 3.38727300 0.36170300
v 9.76278400 3.34269300 0.36160200
v 9.77391100 3.38727300 2.22280800
v 9.76275800 3.34269300 2.22280800
v 10.01905600 3.36498300 0.36160200
v 9.86308800 3.34269300 2.22280800
v 10.01905600 3.37612800 0.36160200
v 9.86308800 3.34269300 0.36160200
v 10.01905600 3.36497800 2.22280800
v 9.75157800 3.38727300 2.22280800
v 9.77393700 3.38727300 0.36160200
v -0.00016700 3.37612800 0.36160200
v -0.27887400 3.36498300 0.19442700
v -0.27887400 3.34269300 0.25017900
v 1.35937100 3.34269300 0.25016300
v 1.35937100 3.37612800 0.19442700
v 1.35937100 3.34269300 0.33929700
v 1.35937100 3.38727300 0.35044100
v 0.65715100 3.38727300 0.19442700
v -0.26764900 3.34269300 0.36160200
v -0.17848900 3.38727300 0.36160200
v -0.27887400 3.37612800 0.19442700
v 1.35937100 3.36498300 0.19442700
v -0.27887400 3.37612800 0.36160200
v -2.14008100 3.37612800 3.05860900
v -2.90900700 3.34269300 2.70209500
v -2.90908200 3.34269300 2.90262100
v -2.90900700 3.38727300 2.70209500
v -2.14008100 3.34269300 2.70209500
v -2.90908200 3.38727300 3.05864400
v -2.22928000 3.38727300 2.70209500
v -2.14008100 3.34269300 3.05860900
v -2.90908200 3.34269300 3.05864400
v -2.22928000 3.38727300 3.05864400
v -2.14008100 3.37612800 2.70209500
v -3.87869200 3.37612800 3.05867900
v -5.67302900 3.34269300 3.05867900
v -5.67302900 3.34269300 3.13669300
v -5.67302900 3.37612800 3.13669300
v -3.88993300 3.34269300 3.13669300
v -3.87869200 3.37612800 3.13669300
v -3.88993300 3.34269300 3.05867900
v -4.89283700 3.37612800 3.05867900
v -5.67302900 3.35384600 3.05867900
v -0.00018300 3.37612800 0.35045700
v 0.51241700 3.38727300 2.23395300
v 0.51241700 3.37612800 2.23395300
v -0.03362800 3.38727300 2.23395300
v 0.51228600 3.38727300 0.35045700
v -0.15621500 3.38727300 0.36170300
v -0.03362800 3.37612800 2.23395300
v 0.51228600 3.37612800 0.35045700
v -0.15621500 3.37612800 1.15282300
v -0.15621500 3.37612800 0.36170300
v -0.15621500 3.38727300 1.15282300
v 4.17910400 3.37612800 0.35045700
v 3.57727700 3.36498300 0.19442700
v 3.57727700 3.37612800 0.19442700
v 4.17910400 3.36498300 0.19442700
v 3.57727700 3.34269300 0.33930700
v 3.57727700 3.38727300 0.35045700
v 4.17910400 3.34269300 0.25015900
v 4.17910400 3.38727300 0.32814300
v 4.17910400 3.34269300 0.33930700
v 3.57727700 3.34269300 0.25015900
v 3.57727700 3.37612800 0.35045700
v 4.20133400 3.37612800 2.23395300
v 3.58851700 3.38727300 2.23395300
v 4.17909900 3.38727300 0.35045700
v 3.58851700 3.37612800 2.23395300
v 4.17909900 3.37612800 0.35045700
v 4.20133400 3.37612800 1.34235200
v 6.99867300 3.38727300 0.36160200
v 5.08184500 3.36498300 0.19442700
v 5.20459700 3.34269300 0.25017900
v 7.24396500 3.36498300 0.19442700
v 7.09877900 3.34269300 0.36160200
v 6.15168800 3.38727300 0.19442700
v 5.21581300 3.34269300 0.36160200
v 7.10999600 3.34269300 0.25017900
v 5.31613100 3.38727300 0.32815400
v 7.24396500 3.37612800 0.19442700
v 5.08184500 3.37612800 0.19442700
v 7.24396500 3.37612800 0.36160200
v 5.31613100 3.38727300 0.36160200
v 8.73738800 3.37612800 0.35045700
v 7.84579200 3.36498300 0.19442700
v 7.84579200 3.37612800 0.19442700
v 7.97967100 3.34269300 0.35045700
v 8.07994900 3.38727300 0.35045700
v 8.73738800 3.34269300 0.25015900
v 8.73738800 3.38727300 0.32814300
v 8.73738800 3.34269300 0.33930700
v 7.97967100 3.34269300 0.25015900
v 8.73738800 3.37612800 0.19442700
v -0.27887400 3.36498300 0.36160200
v -0.15628000 3.38727300 1.15273800
v -0.15628000 3.37612800 1.15273800
v -0.15628000 3.38727300 0.36160200
v -0.16744000 3.34269300 0.36160200
v -0.26771400 3.34269300 1.15273800
v -0.27887400 3.37612800 1.15273800
v -0.16744000 3.34269300 1.15273800
v -0.26771400 3.34269300 0.36160200
v 6.01802100 3.34269300 2.90261300
v 5.08184500 3.36498300 3.13664300
v 6.01802100 3.38727300 3.05861600
v 6.01792900 3.38727300 2.70210300
v 5.20445700 3.34269300 2.62417600
v 5.31598100 3.38727300 3.05861600
v 6.01802100 3.34269300 3.05861600
v 5.20445700 3.34269300 3.05851600
v 6.01792900 3.34269300 2.70210300
v 5.31598100 3.38727300 2.70210300
v 5.08184500 3.37612800 3.13664300
v 5.30480100 3.37612800 2.62417600
v 5.20445700 3.37612800 3.13664300
v 0.52356200 3.38727300 3.05864400
v -0.27885800 3.34269300 2.70209500
v -0.27885800 3.34269300 3.05860900
v 0.52356200 3.34269300 2.90262100
v -0.17855600 3.38727300 2.70209500
v 0.52348300 3.38727300 2.70209500
v -0.17855600 3.38727300 3.05864400
v 0.52348300 3.34269300 2.70209500
v 0.52356200 3.34269300 3.05864400
v -0.27885800 3.37612800 2.70209500
v -0.27885800 3.37612800 3.05860900
v 2.48507000 3.34269300 2.62412600
v 2.60766700 3.38727300 2.90256300
v 2.47393000 3.37612800 3.13664300
v 2.48507000 3.34269300 3.05861600
v 2.35133300 3.36498300 3.13664300
v 2.58536100 3.34269300 3.05861600
v 2.58536100 3.37612800 2.62412600
v 2.60766700 3.34269300 2.70210300
v 2.35133300 3.37612800 3.13664300
v 2.60766700 3.38727300 2.70210300
v -4.01243200 3.37612800 1.34235700
v -3.87869200 3.36498300 2.22280800
v -3.90100000 3.34269300 1.34235700
v -4.00126500 3.34269300 2.22280800
v -4.01243200 3.38727300 2.22280800
v -4.00126500 3.34269300 1.34235700
v -3.90100000 3.34269300 2.22280800
v -3.99012400 3.38727300 1.34235700
v -7.72369900 3.34269300 1.34235700
v -7.41164000 3.38727300 2.23395300
v -7.41164000 3.34269300 2.23395300
v -7.41164000 3.38727300 1.34235700
v -7.72369900 3.38727300 2.23395300
v -7.72369900 3.34269300 2.23395300
v -7.41164000 3.34269300 1.34235700
v -7.72369900 3.38727300 1.34235700
v 0.63501100 3.36498300 0.35045700
v 0.83562000 3.38727300 1.15281400
v 0.83562000 3.37612800 1.15281400
v 0.63501100 3.36498300 1.15281400
v 0.82444700 3.34269300 0.35045700
v 0.83562000 3.38727300 0.35045700
v 0.65731900 3.38727300 0.35045700
v 0.73531600 3.34269300 1.15281400
v 0.65731900 3.38727300 1.15281400
v 0.82444700 3.34269300 1.15281400
v 0.73531600 3.34269300 0.35045700
v 0.51241700 3.34269300 0.35045700
v 0.63501100 3.37612800 1.15292800
v 0.63501100 3.36498300 1.15292800
v 0.51241700 3.37612800 2.36769200
v 0.51241700 3.38727300 0.35045700
v 0.60155500 3.34269300 2.33412400
v 0.60156700 3.34269300 0.35045700
v 0.51241700 3.34269300 2.33412400
v 0.61271500 3.37612800 2.36769200
v 0.63501100 3.37612800 0.35045700
v 0.52358900 3.38727300 2.25612800
v 6.00687600 3.34269300 1.34235700
v 6.31893400 3.38727300 2.23395300
v 6.31893400 3.34269300 2.23395300
v 6.31893400 3.38727300 1.34235700
v 6.00687600 3.38727300 2.23395300
v 6.00687600 3.34269300 2.23395300
v 6.31893400 3.34269300 1.34235700
v 6.00687600 3.38727300 1.34235700
v 1.47088200 3.37612800 1.34235700
v 1.73836100 3.37612800 2.22280800
v 1.73836100 3.36497800 2.22280800
v 1.48203600 3.34269300 1.34235700
v 1.47088200 3.38727300 2.22280800
v 1.48203600 3.34269300 2.22280800
v 1.59352000 3.34269300 1.34235700
v 1.49319000 3.38727300 1.34235700
v 1.59352000 3.34269300 2.22280800
v 1.73836100 3.36497800 1.34235700
v 1.49317200 3.37612800 2.63519000
v -0.27887400 3.34269300 2.62402600
v -0.27887400 3.34269300 2.70204000
v -0.27887400 3.37612800 2.62402600
v 1.49317200 3.34269300 2.62402600
v 0.74643600 3.37612800 2.70204000
v 1.49317200 3.34269300 2.70204000
v -0.27887400 3.37612800 2.70204000
v 1.49317200 3.37612800 2.62402600
v 1.49317200 3.35384600 2.70204000
v -2.24038500 3.37612800 0.19442700
v -2.06208600 3.38727300 2.23395300
v -2.24038500 3.34269300 2.23395300
v -2.24038500 3.38727300 2.23395300
v -2.14010800 3.34269300 0.25032700
v -2.06208600 3.38727300 0.19442700
v -2.14012600 3.34269300 2.23395300
v -2.24038500 3.34269300 0.25032700
v -2.24038500 3.38727300 0.32838600
v 0.51253400 3.34269300 2.33425100
v 1.11425900 3.37612800 2.22280800
v 1.11425900 3.38727300 2.22280800
v 1.73818800 3.37612800 2.36769200
v -0.03351200 3.37612800 2.36769200
v 1.59335000 3.34269300 2.22280800
v -0.03351200 3.34269300 2.24513000
v -0.03351200 3.38727300 2.23395500
v 1.60427800 3.34269300 2.33423600
v 1.73818800 3.37612800 2.22280800
v -0.03351200 3.36498300 2.36769200
v 1.49291800 3.38727300 2.25626300
v -0.03351200 3.34269300 2.33425100
v 1.73818800 3.36498300 2.36769200
v 2.60766700 3.37612800 0.36170300
v 3.25407400 3.38727300 1.15282300
v 3.23173800 3.38727300 2.23395300
v 3.25407400 3.37612800 1.15282300
v 2.60766700 3.37612800 2.23395300
v 2.60766700 3.38727300 0.36170300
v 2.60766700 3.38727300 2.23395300
v 3.25407400 3.37612800 0.35045700
v 3.23173800 3.37612800 2.23395300
v 3.25407400 3.38727300 0.35045700
v 4.20139400 3.37612800 1.34235700
v 4.49116300 3.36497800 2.36769200
v 4.33518800 3.34269300 1.34235700
v 4.20139400 3.34269300 2.33417000
v 4.20139400 3.38727300 2.25618600
v 4.24598300 3.38727300 1.34235700
v 4.35745400 3.34269300 2.33417000
v 4.23483600 3.34269300 1.34235700
v 4.49116300 3.36497800 1.34235700
v 4.20139400 3.37612800 2.36769200
v 4.20139400 3.38727300 1.34235700
v 4.24598300 3.38727300 2.25618600
v 3.36552300 3.36498300 0.19442700
v 3.57727700 3.38727300 1.15289300
v 3.57727700 3.34269300 1.15289300
v 3.36552300 3.37612800 1.15289300
v 3.57727700 3.38727300 0.32830900
v 3.57727700 3.34269300 0.25015600
v 3.41012900 3.38727300 0.19442700
v 3.48812700 3.34269300 1.15289300
v 3.48812700 3.34269300 0.25015600
v 3.41012900 3.38727300 1.15289300
v 3.36552300 3.36498300 1.15289300
v 3.36552300 3.37612800 0.19442700
v 9.00482300 3.37612800 2.70204000
v 8.07991300 3.34269300 2.62402600
v 8.07991300 3.34269300 2.70204000
v 9.77386800 3.34269300 2.62402600
v 8.07991300 3.37612800 2.62402600
v 9.77386800 3.34269300 2.70204000
v 9.77386800 3.37612800 2.62402600
v 8.07991300 3.35384600 2.70204000
v 9.77386800 3.35384600 2.70204000
v 6.99876700 3.38727300 2.22280800
v 6.98764000 3.34269300 0.36160200
v 6.97648600 3.37612800 0.36160200
v 6.98764000 3.34269300 2.22280800
v 7.00992100 3.35383800 0.36160200
v 7.00992100 3.34269300 2.22280800
v 6.97648600 3.38727300 2.22280800
v 6.99876700 3.38727300 0.36160200
v 6.97648600 3.38727300 0.36160200
v 7.00992100 3.34269300 0.36160200
v 7.08797400 3.37612800 2.22280800
v 7.09910800 3.34269300 2.22280800
v 7.08797400 3.37612800 0.36160200
v 7.24396500 3.36497400 0.36160200
v 7.00992100 3.35384600 2.22280800
v 7.09910800 3.34269300 0.36160200
v 7.24396500 3.36497400 2.22280800
v 7.00992100 3.35384600 0.36160200
v -6.63149400 3.37612800 2.70204000
v -8.41460900 3.34269300 2.62402600
v -8.41460900 3.34269300 2.70204000
v -8.41460900 3.37612800 2.62402600
v -6.63149400 3.34269300 2.62402600
v -6.63149400 3.37612800 2.62402600
v -6.63149400 3.34269300 2.70204000
v -7.64575400 3.37612800 2.70204000
v -8.41460900 3.35384600 2.70204000
v 1.60463500 3.36498300 2.62402600
v 1.73834800 3.37612800 3.13664300
v 1.73834800 3.36498300 3.13664300
v 1.73834800 3.37612800 2.62402600
v 1.60463500 3.37612800 3.13664300
v 1.60463500 3.36498300 3.13664300
v 1.73834800 3.36498300 2.62402600
v 1.60463500 3.37612800 2.62402600
v 1.60453700 3.37612800 3.13669300
v -0.27887400 3.34269300 3.05867900
v -0.27887400 3.34269300 3.13669300
v -0.27887400 3.37612800 3.05867900
v 1.60453700 3.34269300 3.05867900
v 1.60453700 3.37612800 3.05867900
v 1.60453700 3.34269300 3.13669300
v -0.27887400 3.37612800 3.13669300
v 10.01905600 3.37612800 3.13664300
v 10.01905600 3.36498100 3.13664300
v 9.77386800 3.37612800 3.13664300
v 9.77386800 3.34269300 3.13664300
v 9.88532600 3.34269300 2.62402600
v 9.88532600 3.34269300 3.13664300
v 10.01905600 3.36498100 2.62402600
v -6.63149400 3.36498300 2.62402600
v -6.49775500 3.37612800 3.24808200
v -6.49775500 3.36498300 3.24808200
v -6.63149400 3.37612800 3.24808200
v -6.63149400 3.36498300 3.24808200
v 2.35133300 3.36497800 1.34235700
v 2.60766700 3.38727300 1.34235700
v 2.59650100 3.34269300 1.34235700
v 2.49618600 3.34269300 2.23395300
v 2.59650100 3.34269300 2.23395300
v 2.49618600 3.34269300 1.34235700
v 2.35133300 3.36497800 2.23395300
v 2.58536100 3.38727300 1.34235700
v 3.25408200 3.36498300 0.19442700
v 3.38781300 3.37612800 2.36769200
v 3.27638100 3.38727300 2.25600800
v 3.23178400 3.34269300 2.33408000
v 3.35435000 3.34269300 0.25016300
v 3.36551400 3.37612800 0.19442700
v 3.35436500 3.34269300 2.33408000
v 3.23178400 3.38727300 1.34232600
v 3.25408200 3.34269300 0.25016300
v 3.27639600 3.38727300 0.32844800
v 3.23178400 3.37612800 2.36769200
v 3.38781300 3.36498300 1.34232600
v 3.25408200 3.38727300 0.32844800
v 3.38781300 3.37612800 1.34232600
v 3.38781300 3.36498300 2.36769200
v 3.23178400 3.38727300 2.25600800
v -2.14008100 3.37612800 2.62402600
v -2.05092100 3.37612800 3.24808200
v -2.05092100 3.36498300 3.24808200
v -2.05092100 3.37612800 2.62402600
v -2.09550100 3.38727300 3.24808200
v -2.14008100 3.36498300 3.24808200
v -2.05092100 3.36498300 2.62402600
v -2.06206600 3.38727300 2.62402600
v -2.14008100 3.36498300 2.62402600
v -7.72369900 3.34269300 0.35045700
v -7.41164000 3.38727300 1.15281400
v -7.41164000 3.34269300 1.15281400
v -7.41164000 3.38727300 0.35045700
v -7.72369900 3.38727300 1.15281400
v -7.72369900 3.38727300 0.35045700
v -7.41164000 3.34269300 0.35045700
v -7.72369900 3.34269300 1.15281400
v 4.35742300 3.34269300 3.13669300
v 2.47392700 3.35384600 3.05867900
v 2.47392700 3.37612800 3.05867900
v 4.35742300 3.34269300 3.05867900
v 4.35742300 3.37612800 3.05867900
v 2.47392700 3.37612800 3.13669300
v 2.48517400 3.34269300 3.13669300
v 4.35742300 3.37612800 3.13669300
v 2.48517400 3.34269300 3.05867900
v 0.61272100 3.37612800 1.34235700
v 0.73531600 3.37612800 3.24808200
v 0.73531600 3.36498300 3.24808200
v 0.72416800 3.37612800 1.34235700
v 0.65732600 3.38727300 3.24808200
v 0.61272100 3.36498300 2.36759800
v 0.72416800 3.36498300 1.34235700
v 0.67956300 3.38727300 1.34235700
v 0.63501800 3.36498300 3.24808200
v 0.61272100 3.36498300 1.34235700
v 0.61272100 3.37612800 2.36759800
v 0.67958700 3.38727300 3.24808200
v 0.65732600 3.38727300 1.34235700
v 6.00687600 3.34269300 0.35045700
v 6.50839800 3.38727300 1.15281400
v 6.50839800 3.37612800 1.15281400
v 6.00687600 3.34269300 1.15281400
v 6.00687600 3.38727300 1.15281400
v 6.50839800 3.38727300 0.35045700
v 6.31890400 3.34269300 0.35045700
v 6.00687600 3.38727300 0.35045700
v 6.31890400 3.34269300 1.15281400
v 6.50839800 3.37612800 0.35045700
v 7.11022500 3.37612800 2.70204000
v 5.30482100 3.34269300 2.62402600
v 5.30482100 3.34269300 2.70204000
v 5.30482100 3.37612800 2.62402600
v 7.11022500 3.34269300 2.62402600
v 7.11022500 3.34269300 2.70204000
v 6.08487800 3.37612800 2.70204000
v 5.30482100 3.35384600 2.70204000
v 9.77386800 3.34269300 3.13669300
v 7.96838600 3.35384600 3.05867900
v 7.96838600 3.37612800 3.05867900
v 7.96838600 3.35384600 3.13669300
v 9.77386800 3.37612800 3.13669300
v 9.77386800 3.35384600 3.05867900
v 7.96838600 3.37612800 3.13669300
v 7.97969700 3.34269300 3.05867900
v 9.00491200 3.37612800 3.05867900
v 7.97969700 3.34269300 3.13669300
v 9.77386800 3.34269300 3.05867900
v 9.77381500 3.38727300 0.36160200
v 9.12746100 3.36498300 0.19442700
v 9.12746100 3.34269300 0.25017900
v 10.01905600 3.36498300 0.19442700
v 9.86292200 3.34269300 0.36160200
v 9.12746100 3.38727300 0.36160200
v 10.01905600 3.37612800 0.19442700
v 9.12746100 3.34269300 0.33929700
v 9.88526500 3.34269300 0.25017900
v 9.12746100 3.38727300 0.32815400
f 5 8 14
f 3 2 4
f 2 3 5
f 5 3 6
f 4 1 7
f 4 2 8
f 1 4 8
f 6 3 9
f 3 7 9
f 7 6 9
f 1 6 10
f 7 1 10
f 6 7 10
f 1 5 11
f 6 1 11
f 5 6 11
f 5 1 12
f 1 8 12
f 8 5 12
f 3 4 13
f 7 3 13
f 4 7 13
f 2 5 14
f 8 2 14
f 26 16 27
f 16 17 18
f 17 16 20
f 18 17 20
f 18 20 22
f 20 15 22
f 15 21 24
f 21 19 24
f 22 15 24
f 22 24 25
f 16 18 25
f 18 22 25
f 23 16 25
f 19 23 25
f 24 19 25
f 20 16 26
f 15 20 26
f 21 15 26
f 21 26 27
f 19 21 27
f 16 23 27
f 23 19 27
f 32 30 36
f 30 29 31
f 31 28 32
f 28 31 33
f 32 28 33
f 32 33 34
f 29 30 34
f 30 32 34
f 33 29 34
f 31 29 35
f 29 33 35
f 33 31 35
f 30 31 36
f 31 32 36
f 42 44 46
f 39 38 40
f 40 38 41
f 37 39 42
f 39 40 42
f 39 37 43
f 38 39 43
f 37 41 43
f 41 37 44
f 40 41 44
f 42 40 44
f 41 38 45
f 38 43 45
f 43 41 45
f 37 42 46
f 44 37 46
f 47 56 60
f 49 48 50
f 51 47 52
f 50 48 53
f 48 49 54
f 49 51 54
f 51 52 54
f 52 48 54
f 49 50 55
f 50 51 55
f 51 49 55
f 47 53 56
f 53 47 57
f 50 53 57
f 48 52 58
f 53 48 58
f 52 56 58
f 56 53 58
f 47 51 59
f 51 50 59
f 57 47 59
f 50 57 59
f 52 47 60
f 56 52 60
f 61 70 74
f 63 62 64
f 64 62 67
f 62 63 68
f 63 65 68
f 66 62 68
f 63 64 69
f 64 65 69
f 65 63 69
f 61 67 70
f 67 61 71
f 64 67 71
f 62 66 72
f 67 62 72
f 66 70 72
f 70 67 72
f 61 65 73
f 65 64 73
f 71 61 73
f 64 71 73
f 65 61 74
f 68 65 74
f 66 68 74
f 70 66 74
f 79 84 87
f 79 75 80
f 75 79 81
f 77 80 82
f 80 75 82
f 76 78 83
f 79 76 83
f 81 79 83
f 77 76 84
f 80 77 84
f 79 80 84
f 76 77 85
f 78 76 85
f 77 82 85
f 82 78 85
f 75 81 86
f 78 82 86
f 82 75 86
f 83 78 86
f 81 83 86
f 76 79 87
f 84 76 87
f 96 88 100
f 90 89 91
f 89 90 92
f 91 89 92
f 92 90 93
f 91 88 94
f 88 91 95
f 91 92 95
f 95 92 96
f 93 88 96
f 92 93 96
f 93 90 97
f 90 94 97
f 94 93 97
f 90 91 98
f 94 90 98
f 91 94 98
f 88 93 99
f 94 88 99
f 93 94 99
f 88 95 100
f 95 96 100
f 105 108 114
f 103 102 104
f 102 103 105
f 105 103 106
f 104 101 107
f 104 102 108
f 101 104 108
f 106 103 109
f 103 107 109
f 107 106 109
f 101 106 110
f 107 101 110
f 106 107 110
f 101 105 111
f 106 101 111
f 105 106 111
f 105 101 112
f 101 108 112
f 108 105 112
f 103 104 113
f 107 103 113
f 104 107 113
f 102 105 114
f 108 102 114
f 126 124 129
f 115 116 117
f 117 116 118
f 116 115 121
f 119 121 122
f 121 115 122
f 120 118 123
f 120 123 124
f 115 117 124
f 123 115 124
f 118 116 125
f 119 118 125
f 116 121 125
f 121 119 125
f 120 124 126
f 117 118 127
f 118 120 127
f 126 117 127
f 120 126 127
f 118 119 128
f 119 122 128
f 122 115 128
f 115 123 128
f 123 118 128
f 124 117 129
f 117 126 129
f 139 137 140
f 130 131 132
f 132 131 38
f 131 130 135
f 133 135 136
f 135 130 136
f 134 38 44
f 134 44 137
f 130 132 137
f 44 130 137
f 38 131 138
f 133 38 138
f 131 135 138
f 135 133 138
f 134 137 139
f 132 38 45
f 38 134 45
f 139 132 45
f 134 139 45
f 38 133 40
f 133 136 40
f 136 130 40
f 130 44 40
f 44 38 40
f 137 132 140
f 132 139 140
f 146 148 150
f 143 142 144
f 144 142 145
f 141 143 146
f 143 144 146
f 143 141 147
f 142 143 147
f 141 145 147
f 145 141 148
f 144 145 148
f 146 144 148
f 145 142 149
f 142 147 149
f 147 145 149
f 141 146 150
f 148 141 150
f 156 158 160
f 153 152 154
f 154 152 155
f 151 153 156
f 153 154 156
f 153 151 157
f 152 153 157
f 151 155 157
f 155 151 158
f 154 155 158
f 156 154 158
f 155 152 159
f 152 157 159
f 157 155 159
f 151 156 160
f 158 151 160
f 166 168 170
f 163 162 164
f 164 162 165
f 161 163 166
f 163 164 166
f 163 161 167
f 162 163 167
f 161 165 167
f 165 161 168
f 164 165 168
f 166 164 168
f 165 162 169
f 162 167 169
f 167 165 169
f 161 166 170
f 168 161 170
f 176 178 180
f 173 172 174
f 174 172 175
f 171 173 176
f 173 174 176
f 173 171 177
f 172 173 177
f 171 175 177
f 175 171 178
f 174 175 178
f 176 174 178
f 175 172 179
f 172 177 179
f 177 175 179
f 171 176 180
f 178 171 180
f 186 188 190
f 183 182 184
f 184 182 185
f 181 183 186
f 183 184 186
f 183 181 187
f 182 183 187
f 181 185 187
f 185 181 188
f 184 185 188
f 186 184 188
f 185 182 189
f 182 187 189
f 187 185 189
f 181 186 190
f 188 181 190
f 194 123 196
f 192 118 128
f 128 118 193
f 191 192 194
f 192 128 194
f 192 191 195
f 118 192 195
f 191 193 195
f 193 191 123
f 128 193 123
f 194 128 123
f 193 118 127
f 118 195 127
f 195 193 127
f 191 194 196
f 123 191 196
f 208 202 209
f 199 198 200
f 200 198 202
f 198 199 203
f 201 197 204
f 197 201 205
f 203 199 205
f 201 203 205
f 200 202 206
f 202 204 206
f 206 204 207
f 199 200 207
f 204 197 207
f 205 199 207
f 197 205 207
f 200 206 207
f 201 204 208
f 204 202 208
f 202 198 209
f 198 203 209
f 203 201 209
f 201 208 209
f 52 217 221
f 211 212 213
f 213 212 214
f 212 211 215
f 215 210 52
f 213 210 216
f 210 215 216
f 214 212 217
f 52 214 217
f 210 213 218
f 214 210 218
f 213 214 218
f 210 214 219
f 52 210 219
f 214 52 219
f 211 213 220
f 215 211 220
f 213 216 220
f 216 215 220
f 212 215 221
f 215 52 221
f 217 212 221
f 229 227 231
f 223 224 225
f 222 225 226
f 224 223 227
f 222 226 227
f 226 224 228
f 224 227 228
f 227 226 228
f 223 225 229
f 225 222 229
f 222 227 229
f 225 224 230
f 226 225 230
f 224 226 230
f 227 223 231
f 223 229 231
f 238 232 240
f 234 233 235
f 233 234 236
f 235 233 236
f 232 234 237
f 234 235 237
f 237 235 238
f 236 232 238
f 235 236 238
f 234 232 239
f 232 236 239
f 236 234 239
f 232 237 240
f 237 238 240
f 244 250 255
f 243 242 244
f 242 243 247
f 244 242 247
f 246 241 248
f 241 247 248
f 241 245 249
f 247 241 249
f 244 247 249
f 249 245 250
f 244 249 250
f 245 246 251
f 250 245 251
f 250 251 252
f 243 250 252
f 251 243 252
f 245 241 253
f 246 245 253
f 241 246 253
f 247 243 254
f 246 248 254
f 248 247 254
f 243 251 254
f 251 246 254
f 243 244 255
f 250 243 255
f 261 260 268
f 257 258 259
f 258 257 261
f 256 260 261
f 259 258 262
f 256 259 262
f 259 256 263
f 256 261 263
f 257 259 264
f 259 263 264
f 258 260 265
f 262 258 265
f 260 262 265
f 260 256 266
f 256 262 266
f 262 260 266
f 261 257 267
f 263 261 267
f 257 264 267
f 264 263 267
f 260 258 268
f 258 261 268
f 277 271 278
f 271 270 272
f 272 270 273
f 269 271 274
f 271 272 274
f 272 269 274
f 271 269 275
f 269 273 275
f 269 272 276
f 273 269 276
f 272 273 276
f 270 271 277
f 273 270 277
f 275 273 277
f 275 277 278
f 271 275 278
f 283 282 287
f 280 281 282
f 281 280 283
f 280 282 283
f 279 282 284
f 283 279 285
f 281 283 285
f 284 281 285
f 279 284 285
f 282 281 286
f 281 284 286
f 284 282 286
f 282 279 287
f 279 283 287
f 167 291 297
f 289 290 292
f 291 288 293
f 290 289 294
f 291 290 294
f 289 292 294
f 294 292 167
f 288 291 167
f 292 288 167
f 288 292 295
f 292 290 295
f 290 293 295
f 293 288 295
f 290 291 296
f 293 290 296
f 291 293 296
f 291 294 297
f 294 167 297
f 302 304 309
f 299 298 300
f 301 78 302
f 299 300 303
f 300 298 304
f 78 300 304
f 301 299 305
f 299 303 305
f 303 301 305
f 302 78 86
f 78 304 86
f 304 302 86
f 300 78 306
f 78 301 306
f 303 300 306
f 301 303 306
f 298 299 307
f 299 301 307
f 302 298 307
f 302 307 308
f 301 302 308
f 307 301 308
f 298 302 309
f 304 298 309
f 315 310 318
f 312 311 313
f 311 312 314
f 313 311 314
f 312 313 315
f 310 313 316
f 314 310 316
f 313 314 316
f 313 310 317
f 315 313 317
f 310 315 317
f 310 314 318
f 314 312 318
f 312 315 318
f 322 325 333
f 321 320 322
f 322 320 323
f 322 323 326
f 319 324 327
f 323 320 328
f 320 324 328
f 326 323 328
f 319 327 328
f 324 325 329
f 327 324 329
f 325 327 329
f 325 322 330
f 322 326 330
f 327 325 330
f 326 328 330
f 328 327 330
f 320 321 331
f 324 320 331
f 325 324 331
f 321 325 331
f 324 319 332
f 328 324 332
f 319 328 332
f 321 322 333
f 325 321 333
f 335 338 344
f 336 335 337
f 335 336 340
f 338 335 340
f 336 339 340
f 339 334 340
f 336 337 341
f 337 334 341
f 339 336 341
f 334 339 341
f 334 338 342
f 340 334 342
f 338 340 342
f 334 337 343
f 338 334 343
f 337 338 343
f 337 335 344
f 338 337 344
f 348 350 358
f 347 346 348
f 346 347 349
f 349 347 351
f 350 345 351
f 349 345 352
f 345 349 353
f 351 345 353
f 349 351 353
f 348 346 354
f 346 349 354
f 349 352 354
f 345 350 355
f 350 348 355
f 352 345 356
f 348 354 356
f 354 352 356
f 345 355 356
f 355 348 356
f 347 350 357
f 351 347 357
f 350 351 357
f 347 348 358
f 350 347 358
f 368 361 369
f 361 360 363
f 360 362 363
f 361 359 364
f 362 364 365
f 359 363 365
f 363 362 365
f 359 361 366
f 363 359 366
f 361 363 366
f 364 359 367
f 365 364 367
f 359 365 367
f 360 361 368
f 362 360 368
f 364 362 368
f 364 368 369
f 361 364 369
f 377 379 381
f 372 371 373
f 371 372 374
f 373 371 374
f 374 372 375
f 373 370 376
f 375 372 376
f 370 373 377
f 373 374 377
f 374 375 378
f 375 376 378
f 372 373 282
f 376 372 282
f 373 376 282
f 377 374 379
f 378 370 379
f 374 378 379
f 376 370 380
f 370 378 380
f 378 376 380
f 370 377 381
f 379 370 381
f 389 392 394
f 384 383 385
f 383 384 386
f 385 383 386
f 386 384 387
f 385 382 388
f 387 384 388
f 382 385 389
f 385 386 389
f 386 387 390
f 387 388 390
f 384 385 391
f 388 384 391
f 385 388 391
f 389 386 392
f 390 382 392
f 386 390 392
f 388 382 393
f 382 390 393
f 390 388 393
f 382 389 394
f 392 382 394
f 399 402 408
f 397 396 398
f 396 397 399
f 399 397 400
f 398 395 401
f 398 396 402
f 395 398 402
f 400 397 403
f 397 401 403
f 401 400 403
f 395 400 404
f 401 395 404
f 400 401 404
f 395 399 405
f 400 395 405
f 399 400 405
f 399 395 406
f 395 402 406
f 402 399 406
f 397 398 407
f 401 397 407
f 398 401 407
f 396 399 408
f 402 396 408
f 420 410 421
f 410 411 412
f 411 410 414
f 412 411 414
f 412 414 416
f 414 409 416
f 409 415 418
f 415 413 418
f 416 409 418
f 416 418 419
f 410 412 419
f 412 416 419
f 417 410 419
f 413 417 419
f 418 413 419
f 414 410 420
f 409 414 420
f 415 409 420
f 415 420 421
f 413 415 421
f 410 417 421
f 417 413 421
f 429 432 434
f 424 423 425
f 423 424 426
f 425 423 426
f 426 424 427
f 425 422 428
f 427 424 428
f 422 425 429
f 425 426 429
f 426 427 430
f 427 428 430
f 424 425 431
f 428 424 431
f 425 428 431
f 429 426 432
f 430 422 432
f 426 430 432
f 428 422 433
f 422 430 433
f 430 428 433
f 422 429 434
f 432 422 434
f 442 445 447
f 437 436 438
f 436 437 439
f 438 436 439
f 439 437 440
f 438 435 441
f 440 437 441
f 435 438 442
f 438 439 442
f 439 440 443
f 440 441 443
f 437 438 444
f 441 437 444
f 438 441 444
f 442 439 445
f 443 435 445
f 439 443 445
f 441 435 446
f 435 443 446
f 443 441 446
f 435 442 447
f 445 435 447
f 455 458 460
f 450 449 451
f 449 450 452
f 451 449 452
f 452 450 453
f 451 448 454
f 453 450 454
f 448 451 455
f 451 452 455
f 452 453 456
f 453 454 456
f 450 451 457
f 454 450 457
f 451 454 457
f 455 452 458
f 456 448 458
f 452 456 458
f 454 448 459
f 448 456 459
f 456 454 459
f 448 455 460
f 458 448 460
f 467 469 470
f 461 462 217
f 462 461 466
f 464 465 466
f 217 462 149
f 465 464 144
f 466 461 144
f 464 466 144
f 463 149 144
f 461 217 467
f 217 149 467
f 149 463 467
f 465 462 468
f 462 466 468
f 466 465 468
f 467 463 469
f 144 461 148
f 463 144 148
f 461 469 148
f 469 463 148
f 462 465 142
f 149 462 142
f 465 144 142
f 144 149 142
f 461 467 470
f 469 461 470
f 480 479 482
f 471 472 265
f 265 472 152
f 472 471 475
f 473 475 476
f 471 473 476
f 475 471 476
f 474 152 477
f 152 472 478
f 473 152 478
f 472 475 478
f 475 473 478
f 471 265 479
f 477 471 479
f 474 477 479
f 474 479 480
f 265 152 159
f 152 474 159
f 480 265 159
f 474 480 159
f 473 471 481
f 152 473 481
f 471 477 481
f 477 152 481
f 479 265 482
f 265 480 482
f 490 488 496
f 485 484 486
f 487 483 488
f 486 484 489
f 486 488 490
f 484 485 491
f 487 489 491
f 489 484 491
f 490 483 492
f 491 485 492
f 488 486 493
f 487 488 493
f 489 487 493
f 486 489 493
f 483 487 494
f 487 491 494
f 492 483 494
f 491 492 494
f 485 486 495
f 486 490 495
f 492 485 495
f 490 492 495
f 488 483 496
f 483 490 496
f 504 499 505
f 499 498 500
f 498 499 501
f 500 498 501
f 497 500 502
f 501 497 502
f 500 501 502
f 499 500 503
f 500 497 503
f 497 501 504
f 501 499 504
f 503 497 504
f 503 504 505
f 499 503 505
f 513 515 516
f 507 508 509
f 508 507 510
f 509 508 511
f 510 506 512
f 508 510 512
f 507 509 513
f 510 507 513
f 509 511 513
f 511 508 514
f 508 512 514
f 514 512 515
f 512 506 515
f 513 511 515
f 511 514 515
f 506 510 516
f 510 513 516
f 515 506 516
f 527 522 530
f 519 518 521
f 518 520 521
f 520 517 522
f 521 520 522
f 517 520 523
f 517 523 524
f 518 519 525
f 519 524 525
f 524 523 526
f 523 525 526
f 525 524 526
f 519 521 527
f 521 522 527
f 517 524 527
f 524 519 527
f 520 518 528
f 518 525 528
f 525 520 528
f 523 520 529
f 525 523 529
f 520 525 529
f 522 517 530
f 517 527 530
f 537 535 539
f 533 532 534
f 531 533 534
f 532 535 536
f 534 532 536
f 531 534 536
f 533 531 537
f 531 535 537
f 535 531 538
f 536 535 538
f 531 536 538
f 532 533 539
f 535 532 539
f 533 537 539
f 540 547 552
f 542 541 543
f 543 541 545
f 541 542 546
f 540 544 547
f 546 542 547
f 544 546 547
f 540 543 548
f 544 540 548
f 545 548 549
f 543 545 549
f 548 543 549
f 544 548 550
f 548 545 550
f 545 541 551
f 541 546 551
f 546 544 551
f 544 550 551
f 550 545 551
f 542 543 552
f 543 540 552
f 547 542 552
f 561 560 564
f 555 554 556
f 554 555 558
f 553 557 558
f 556 554 559
f 558 557 559
f 553 558 560
f 558 555 560
f 555 556 561
f 556 559 561
f 559 557 561
f 553 560 561
f 554 558 562
f 559 554 562
f 558 559 562
f 557 553 563
f 553 561 563
f 561 557 563
f 560 555 564
f 555 561 564
f 569 573 576
f 567 566 569
f 567 569 570
f 566 567 572
f 567 570 572
f 570 568 572
f 571 566 572
f 568 571 572
f 569 566 573
f 566 571 573
f 571 568 573
f 569 565 574
f 568 570 574
f 570 569 574
f 565 573 575
f 573 568 575
f 574 565 575
f 568 574 575
f 565 569 576
f 573 565 576
f 586 587 589
f 579 578 581
f 579 581 582
f 578 579 584
f 579 582 584
f 582 580 584
f 583 578 584
f 580 583 584
f 581 578 585
f 578 583 585
f 583 580 585
f 581 577 586
f 582 581 586
f 577 585 587
f 585 580 587
f 586 577 587
f 577 581 588
f 585 577 588
f 581 585 588
f 580 582 589
f 582 586 589
f 587 580 589
f 591 593 594
f 591 592 593
f 592 590 593
f 593 590 594
f 590 592 594
f 592 591 594
f 601 595 606
f 597 596 598
f 597 598 600
f 595 599 600
f 599 597 600
f 598 596 601
f 599 595 602
f 595 601 602
f 597 599 603
f 599 602 603
f 598 595 604
f 600 598 604
f 595 600 604
f 596 597 605
f 601 596 605
f 602 601 605
f 597 603 605
f 603 602 605
f 595 598 606
f 598 601 606
f 611 617 621
f 607 612 613
f 612 609 613
f 611 608 614
f 610 614 615
f 614 610 616
f 611 614 616
f 616 610 617
f 611 616 617
f 609 608 618
f 608 611 618
f 613 609 618
f 611 613 618
f 612 607 619
f 615 612 619
f 610 615 619
f 607 617 619
f 617 610 619
f 608 609 620
f 609 612 620
f 614 608 620
f 612 615 620
f 615 614 620
f 607 613 621
f 613 611 621
f 617 607 621
f 624 626 630
f 623 624 625
f 624 623 626
f 623 625 626
f 624 622 627
f 622 626 628
f 626 625 628
f 627 622 628
f 625 627 628
f 625 624 629
f 624 627 629
f 627 625 629
f 622 624 630
f 626 622 630
f 636 641 642
f 633 632 634
f 633 635 636
f 632 633 636
f 635 631 636
f 633 634 637
f 634 631 637
f 637 635 638
f 635 633 638
f 633 637 638
f 634 632 639
f 631 634 639
f 631 635 640
f 637 631 640
f 635 637 640
f 636 631 641
f 631 639 641
f 641 639 642
f 632 636 642
f 639 632 642
f 656 647 657
f 645 644 646
f 648 647 649
f 646 648 649
f 646 644 651
f 647 648 651
f 648 646 651
f 643 650 652
f 646 649 653
f 649 647 653
f 650 643 653
f 643 652 653
f 650 645 654
f 645 652 654
f 652 650 654
f 645 646 655
f 652 645 655
f 646 653 655
f 653 652 655
f 653 647 656
f 650 653 656
f 644 645 657
f 645 650 657
f 651 644 657
f 647 651 657
f 650 656 657
f 660 667 668
f 659 461 660
f 658 660 661
f 461 659 662
f 662 659 663
f 658 662 663
f 660 461 59
f 661 660 59
f 461 661 59
f 658 661 664
f 662 658 664
f 659 660 665
f 663 659 665
f 661 461 666
f 461 662 666
f 664 661 666
f 662 664 666
f 660 658 667
f 658 663 667
f 663 665 667
f 667 665 668
f 665 660 668
f 673 672 676
f 670 671 672
f 671 670 673
f 670 672 673
f 671 673 280
f 672 671 674
f 669 672 674
f 671 280 674
f 280 669 674
f 673 669 675
f 669 280 675
f 280 673 675
f 672 669 676
f 669 673 676
f 681 683 686
f 678 679 680
f 679 678 681
f 678 680 681
f 680 679 682
f 680 682 683
f 681 680 683
f 681 677 684
f 679 681 684
f 682 679 685
f 683 682 685
f 677 683 685
f 684 677 685
f 679 684 685
f 677 681 686
f 683 677 686
f 689 690 696
f 688 689 73
f 687 73 690
f 689 688 691
f 687 691 692
f 691 688 692
f 687 690 693
f 690 691 693
f 691 687 693
f 688 73 694
f 73 687 694
f 687 692 694
f 692 688 694
f 690 689 695
f 689 691 695
f 691 690 695
f 73 689 696
f 690 73 696
f 700 701 704
f 699 698 700
f 698 699 701
f 700 698 701
f 699 697 702
f 697 701 702
f 701 699 702
f 697 699 703
f 699 700 703
f 700 697 703
f 697 700 704
f 701 697 704
f 705 708 712
f 706 707 708
f 707 706 709
f 706 708 709
f 708 705 710
f 705 709 710
f 709 708 710
f 705 707 711
f 709 705 711
f 707 709 711
f 707 705 712
f 708 707 712
f 716 718 724
f 715 714 716
f 714 715 717
f 717 715 719
f 718 713 719
f 716 714 720
f 713 716 720
f 717 713 720
f 714 717 720
f 713 717 721
f 719 713 721
f 717 719 721
f 716 713 722
f 713 718 722
f 718 716 722
f 715 718 723
f 719 715 723
f 718 719 723
f 715 716 724
f 718 715 724
f 714 725 729
f 726 430 714
f 430 726 727
f 714 430 727
f 725 714 716
f 727 725 716
f 714 727 716
f 726 725 728
f 725 727 728
f 727 726 728
f 725 726 729
f 726 714 729
f 734 737 743
f 732 731 733
f 731 732 734
f 734 732 735
f 733 730 736
f 733 731 737
f 730 733 737
f 735 732 738
f 732 736 738
f 736 735 738
f 730 735 739
f 736 730 739
f 735 736 739
f 730 734 740
f 735 730 740
f 734 735 740
f 734 730 741
f 730 737 741
f 737 734 741
f 732 733 742
f 736 732 742
f 733 736 742
f 731 734 743
f 737 731 743
f 744 750 755
f 745 746 747
f 746 745 749
f 749 744 282
f 746 749 282
f 750 744 751
f 748 750 751
f 747 746 372
f 746 282 372
f 282 747 372
f 748 747 752
f 747 750 752
f 750 748 752
f 749 745 753
f 744 749 753
f 751 744 753
f 748 751 753
f 745 747 754
f 747 748 754
f 753 745 754
f 748 753 754
f 282 744 755
f 747 282 755
f 750 747 755
f 760 763 769
f 758 757 759
f 757 758 760
f 760 758 761
f 759 756 762
f 759 757 763
f 756 759 763
f 761 758 764
f 758 762 764
f 762 761 764
f 756 761 765
f 762 756 765
f 761 762 765
f 756 760 766
f 761 756 766
f 760 761 766
f 760 756 767
f 756 763 767
f 763 760 767
f 758 759 768
f 762 758 768
f 759 762 768
f 757 760 769
f 763 757 769
f 770 774 779
f 771 761 772
f 761 771 765
f 765 770 391
f 761 765 391
f 774 770 775
f 773 774 775
f 772 761 384
f 761 391 384
f 391 772 384
f 773 772 776
f 772 774 776
f 774 773 776
f 765 771 777
f 770 765 777
f 775 770 777
f 773 775 777
f 771 772 778
f 772 773 778
f 777 771 778
f 773 777 778
f 391 770 779
f 772 391 779
f 774 772 779
f 791 781 792
f 781 782 783
f 782 781 785
f 783 782 785
f 783 785 787
f 785 780 787
f 780 786 789
f 786 784 789
f 787 780 789
f 787 789 790
f 781 783 790
f 783 787 790
f 788 781 790
f 784 788 790
f 789 784 790
f 785 781 791
f 780 785 791
f 786 780 791
f 786 791 792
f 784 786 792
f 781 788 792
f 788 784 792
f 800 802 804
f 795 794 796
f 794 795 797
f 796 794 797
f 797 795 798
f 796 793 799
f 798 795 799
f 793 796 800
f 796 797 800
f 797 798 801
f 798 799 801
f 795 796 636
f 799 795 636
f 796 799 636
f 800 797 802
f 801 793 802
f 797 801 802
f 799 793 803
f 793 801 803
f 801 799 803
f 793 800 804
f 802 793 804
f 809 812 818
f 807 806 808
f 806 807 809
f 809 807 810
f 808 805 811
f 808 806 812
f 805 808 812
f 810 807 813
f 807 811 813
f 811 810 813
f 805 810 814
f 811 805 814
f 810 811 814
f 805 809 815
f 810 805 815
f 809 810 815
f 809 805 816
f 805 812 816
f 812 809 816
f 807 808 817
f 811 807 817
f 808 811 817
f 806 809 818
f 812 806 818
f 822 825 827
f 820 810 437
f 810 820 814
f 437 810 814
f 437 814 444
f 814 819 444
f 819 822 824
f 822 821 824
f 444 819 824
f 814 820 825
f 819 814 825
f 822 819 825
f 820 437 826
f 437 444 826
f 823 820 826
f 821 823 826
f 824 821 826
f 444 824 826
f 821 822 827
f 820 823 827
f 823 821 827
f 825 820 827
f 832 835 841
f 830 829 831
f 829 830 832
f 832 830 833
f 831 828 834
f 831 829 835
f 828 831 835
f 833 830 836
f 830 834 836
f 834 833 836
f 828 833 837
f 834 828 837
f 833 834 837
f 828 832 838
f 833 828 838
f 832 833 838
f 832 828 839
f 828 835 839
f 835 832 839
f 830 831 840
f 834 830 840
f 831 834 840
f 829 832 841
f 835 829 841
f 848 852 854
f 843 844 845
f 844 843 847
f 845 844 847
f 845 847 849
f 847 842 849
f 842 848 851
f 848 846 851
f 849 842 851
f 847 843 852
f 842 847 852
f 848 842 852
f 843 845 853
f 845 849 853
f 850 843 853
f 846 850 853
f 851 846 853
f 849 851 853
f 846 848 854
f 843 850 854
f 850 846 854
f 852 843 854
f 857 865 867
f 43 39 856
f 857 855 858
f 856 39 859
f 857 858 860
f 855 857 861
f 859 855 861
f 859 861 862
f 856 859 862
f 861 856 862
f 858 855 863
f 855 859 863
f 858 43 864
f 43 860 864
f 860 858 864
f 43 856 865
f 860 43 865
f 857 860 865
f 39 43 866
f 43 858 866
f 859 39 866
f 858 863 866
f 863 859 866
f 861 857 867
f 856 861 867
f 865 856 867
f 875 878 879
f 872 871 873
f 872 873 874
f 870 872 874
f 873 868 874
f 871 869 876
f 873 871 876
f 875 873 876
f 870 869 877
f 869 871 877
f 871 872 877
f 872 870 877
f 876 869 878
f 875 876 878
f 869 870 879
f 868 873 879
f 874 868 879
f 870 874 879
f 873 875 879
f 878 869 879
f 882 886 893
f 882 881 885
f 880 884 886
f 882 885 886
f 881 883 887
f 885 881 887
f 885 880 888
f 880 886 888
f 886 885 888
f 884 880 889
f 883 884 889
f 887 883 889
f 887 889 890
f 889 880 890
f 881 882 891
f 883 881 891
f 884 883 891
f 882 884 891
f 880 885 892
f 885 887 892
f 887 890 892
f 890 880 892
f 884 882 893
f 886 884 893
f 897 899 905
f 895 896 897
f 896 895 898
f 898 895 899
f 897 896 900
f 899 897 900
f 896 894 901
f 894 899 901
f 899 900 901
f 900 896 901
f 894 896 902
f 896 898 902
f 902 898 903
f 894 902 903
f 894 903 904
f 898 899 904
f 899 894 904
f 903 898 904
f 895 897 905
f 899 895 905
f 906 909 913
f 907 908 909
f 908 907 910
f 907 909 910
f 909 906 911
f 906 910 911
f 910 909 911
f 906 908 912
f 910 906 912
f 908 910 912
f 908 906 913
f 909 908 913
f 380 917 370
f 916 915 380
f 915 916 917
f 380 915 917
f 916 914 918
f 914 917 918
f 917 916 918
f 914 916 919
f 916 380 919
f 380 914 919
f 914 380 370
f 917 914 370
f 923 920 925
f 922 921 923
f 921 922 196
f 923 921 196
f 920 923 924
f 196 920 924
f 923 196 924
f 922 920 194
f 920 196 194
f 196 922 194
f 920 922 925
f 922 923 925
f 928 933 934
f 927 928 929
f 928 927 930
f 927 929 930
f 926 928 931
f 930 926 931
f 928 930 931
f 929 926 932
f 926 930 932
f 930 929 932
f 928 926 933
f 926 929 933
f 933 929 934
f 929 928 934
f 943 944 947
f 939 935 940
f 936 938 941
f 938 939 941
f 940 936 941
f 939 940 941
f 935 939 942
f 939 938 942
f 936 937 944
f 938 936 944
f 943 938 944
f 937 936 945
f 936 940 945
f 940 935 945
f 943 937 945
f 935 943 945
f 935 942 946
f 942 938 946
f 938 943 946
f 943 935 946
f 937 943 947
f 944 937 947
f 952 951 955
f 949 950 457
f 950 949 951
f 949 457 951
f 950 951 952
f 457 948 953
f 948 951 953
f 951 457 953
f 457 950 954
f 948 457 954
f 950 952 954
f 952 948 954
f 951 948 955
f 948 952 955
f 407 962 968
f 958 957 179
f 957 958 959
f 959 956 407
f 959 958 960
f 956 960 961
f 179 957 962
f 407 179 962
f 956 959 963
f 960 956 963
f 407 956 964
f 179 407 964
f 956 961 964
f 964 961 965
f 958 179 965
f 960 958 965
f 961 960 965
f 179 964 965
f 959 960 966
f 963 959 966
f 960 963 966
f 957 959 967
f 962 957 967
f 959 962 967
f 959 407 968
f 962 959 968
f 973 974 978
f 970 971 973
f 973 969 974
f 971 970 975
f 972 969 975
f 973 971 975
f 969 972 976
f 970 974 976
f 975 970 976
f 972 975 976
f 969 973 977
f 975 969 977
f 973 975 977
f 974 969 157
f 969 976 157
f 976 974 157
f 970 973 978
f 974 970 978
f 189 983 989
f 981 980 182
f 982 979 983
f 182 980 984
f 983 182 984
f 981 182 189
f 182 983 189
f 980 981 985
f 982 984 985
f 984 980 985
f 982 983 986
f 984 982 986
f 983 984 986
f 189 979 987
f 981 189 987
f 985 981 987
f 985 987 988
f 979 982 988
f 982 985 988
f 987 979 988
f 983 979 989
f 979 189 989
f 995 994 1001
f 991 992 993
f 992 991 995
f 990 994 995
f 991 993 996
f 993 990 996
f 993 992 997
f 990 995 998
f 996 990 998
f 992 994 117
f 997 992 117
f 994 997 117
f 990 993 999
f 994 990 999
f 993 997 999
f 997 994 999
f 995 991 1000
f 991 996 1000
f 998 995 1000
f 996 998 1000
f 994 992 1001
f 992 995 1001
f 103 878 1005
f 1004 1003 103
f 1003 1004 878
f 103 1003 878
f 1002 1004 102
f 1004 103 102
f 103 1002 102
f 1004 1002 869
f 1002 878 869
f 878 1004 869
f 1002 103 1005
f 878 1002 1005
f 1006 1009 1013
f 1007 1008 1009
f 1008 1007 1010
f 1007 1009 1010
f 1009 1006 1011
f 1006 1010 1011
f 1010 1009 1011
f 1006 1008 1012
f 1010 1006 1012
f 1008 1010 1012
f 1008 1006 1013
f 1009 1008 1013
f 1014 1021 1024
f 1016 1015 1017
f 1018 1015 1019
f 1015 1016 1019
f 1014 1018 1019
f 1017 1015 1020
f 1018 1017 1020
f 1015 1018 1020
f 1016 1017 1021
f 1014 1019 1022
f 1019 1016 1022
f 1016 1021 1022
f 1021 1014 1022
f 1014 1017 1023
f 1018 1014 1023
f 1017 1018 1023
f 1017 1014 1024
f 1021 1017 1024
f 1029 132 1036
f 1027 1026 1028
f 1028 1025 1029
f 1026 1027 1030
f 1030 1027 1031
f 1025 1028 1032
f 1030 1025 1032
f 1029 1031 132
f 1031 1027 132
f 1025 1030 1033
f 1031 1025 1033
f 1030 1031 1033
f 1029 1025 1034
f 1025 1031 1034
f 1031 1029 1034
f 1028 1026 1035
f 1026 1030 1035
f 1032 1028 1035
f 1030 1032 1035
f 1027 1028 1036
f 1028 1029 1036
f 132 1027 1036
f 1046 1041 1049
f 1040 1037 1041
f 1042 1037 1043
f 1040 1038 1043
f 1037 1040 1043
f 1038 1039 1044
f 1042 1043 1044
f 1043 1038 1044
f 1041 1037 1045
f 1037 1042 1045
f 1042 1044 1045
f 1039 1040 1046
f 1040 1041 1046
f 1039 1038 1047
f 1040 1039 1047
f 1038 1040 1047
f 1044 1041 1048
f 1041 1045 1048
f 1045 1044 1048
f 1044 1039 1049
f 1041 1044 1049
f 1039 1046 1049
f 1053 1050 1055
f 1052 1051 1053
f 1051 1052 190
f 1053 1051 190
f 1050 1053 1054
f 190 1050 1054
f 1053 190 1054
f 1052 1050 186
f 1050 190 186
f 190 1052 186
f 1050 1052 1055
f 1052 1053 1055
f 1063 1056 1065
f 1058 1057 1059
f 1060 1057 1061
f 1057 1058 1061
f 1056 1060 1061
f 1059 1057 1062
f 1060 1059 1062
f 1057 1060 1062
f 1058 1059 1063
f 1059 1056 1063
f 1056 1059 1064
f 1060 1056 1064
f 1059 1060 1064
f 1056 1061 1065
f 1061 1058 1065
f 1058 1063 1065
f 1072 1069 879
f 1067 1068 1069
f 1066 1069 1070
f 1069 1068 1070
f 1068 1067 1071
f 1066 1071 1072
f 1067 1069 1072
f 1071 1067 1072
f 1070 1068 1073
f 1068 1071 1073
f 1071 1070 1073
f 1066 1070 1074
f 1070 1071 1074
f 1071 1066 1074
f 1069 1066 879
f 1066 1072 879
f 1075 1078 1082
f 1076 1077 1078
f 1077 1076 1079
f 1076 1078 1079
f 1078 1075 1080
f 1075 1079 1080
f 1079 1078 1080
f 1075 1077 1081
f 1079 1075 1081
f 1077 1079 1081
f 1077 1075 1082
f 1078 1077 1082
f 1086 1093 1097
f 1085 1084 1086
f 1086 1084 1087
f 1088 1083 1089
f 1087 1084 1090
f 1088 1089 1091
f 1090 1084 1091
f 1086 1087 1092
f 1087 1090 1092
f 1088 1091 1093
f 1086 1092 1093
f 1093 1092 1094
f 1083 1088 1094
f 1092 1083 1094
f 1088 1093 1094
f 1084 1085 1095
f 1091 1084 1095
f 1085 1093 1095
f 1093 1091 1095
f 1089 1083 1096
f 1091 1089 1096
f 1090 1091 1096
f 1083 1092 1096
f 1092 1090 1096
f 1085 1086 1097
f 1093 1085 1097
f 1104 1102 1107
f 1099 1100 1101
f 1100 1099 1102
f 1099 1101 1102
f 1098 1101 1103
f 1100 1102 1104
f 1103 1100 1104
f 1098 1103 1104
f 1101 1100 1105
f 1100 1103 1105
f 1103 1101 1105
f 1101 1098 1106
f 1098 1102 1106
f 1102 1101 1106
f 1102 1098 1107
f 1098 1104 1107
f 1110 1114 1120
f 1109 1110 1111
f 1111 1108 1113
f 1110 1109 1114
f 1109 1113 1114
f 1111 1110 1115
f 1110 1112 1115
f 1109 1111 1116
f 1113 1109 1116
f 1111 1113 1116
f 1108 1111 1117
f 1113 1108 1117
f 1115 1112 1117
f 1112 1114 1118
f 1114 1113 1118
f 1113 1117 1118
f 1117 1112 1118
f 1111 1115 1119
f 1117 1111 1119
f 1115 1117 1119
f 1112 1110 1120
f 1114 1112 1120
f 703 1118 1129
f 1122 1123 1124
f 703 1121 1126
f 1125 1123 1126
f 1121 1125 1126
f 1124 1123 1127
f 1123 1125 1127
f 1125 1124 1127
f 1121 703 1128
f 1124 1125 1128
f 1125 1121 1128
f 1122 1124 1118
f 703 1122 1118
f 1123 1122 697
f 1122 703 697
f 1126 1123 697
f 703 1126 697
f 1128 703 1129
f 1124 1128 1129
f 1118 1124 1129
f 1136 1135 1138
f 1131 1132 1133
f 1130 1133 1134
f 1132 1131 1135
f 1130 1134 1135
f 1134 1132 1109
f 1132 1135 1109
f 1135 1134 1109
f 1131 1133 1136
f 1133 1130 1136
f 1130 1135 1136
f 1133 1132 1137
f 1134 1133 1137
f 1132 1134 1137
f 1135 1131 1138
f 1131 1136 1138
f 1144 1062 1148
f 130 1140 1141
f 1139 1062 1142
f 130 1141 1143
f 1141 1139 1143
f 130 1142 1144
f 1142 1062 1144
f 1139 1142 1145
f 1143 1139 1145
f 1143 1145 1146
f 1142 130 1146
f 130 1143 1146
f 1145 1142 1146
f 1141 1140 1147
f 1140 1062 1147
f 1147 1062 1060
f 1139 1141 1060
f 1062 1139 1060
f 1141 1147 1060
f 1140 130 1148
f 1062 1140 1148
f 130 1144 1148
f 1159 1151 1161
f 1151 1150 1152
f 1151 1152 1154
f 1152 1153 1154
f 1154 1153 1155
f 1153 1150 1156
f 1155 1153 1156
f 1151 1154 1157
f 1154 1155 1157
f 1155 1149 1157
f 1149 1155 1158
f 1155 1156 1158
f 1157 1149 1158
f 1150 1151 1159
f 1156 1150 1159
f 1158 1156 1159
f 1152 1150 1160
f 1153 1152 1160
f 1150 1153 1160
f 1151 1157 1161
f 1157 1158 1161
f 1158 1159 1161
f 1166 1168 1172
f 1163 1164 1165
f 1164 1163 1166
f 1163 1165 1166
f 1165 1164 1167
f 1165 1167 1168
f 1166 1165 1168
f 1166 1162 1169
f 1164 1166 1169
f 1167 1164 1170
f 1164 1169 1170
f 1168 1167 1171
f 1162 1168 1171
f 1169 1162 1171
f 1167 1170 1171
f 1170 1169 1171
f 1162 1166 1172
f 1168 1162 1172
f 1180 1174 1181
f 1174 1175 1176
f 1175 1174 1177
f 1176 1175 1177
f 1173 1176 1178
f 1177 1173 1178
f 1176 1177 1178
f 1174 1173 1179
f 1173 1177 1179
f 1177 1174 1179
f 1173 1174 1180
f 1176 1173 1180
f 1176 1180 1181
f 1174 1176 1181
f 1190 1185 1192
f 1184 1183 1185
f 1183 1184 1186
f 1185 1183 1186
f 1186 1182 1187
f 1185 1186 1187
f 1182 1184 1188
f 1184 1185 1188
f 1184 1182 1189
f 1182 1186 1189
f 1186 1184 1189
f 1182 1188 1190
f 1188 1185 1190
f 1187 1182 1191
f 1182 1190 1191
f 1190 1187 1191
f 1185 1187 1192
f 1187 1190 1192
f 1200 1196 722
f 1194 1195 1196
f 1195 1194 1197
f 1197 1193 1198
f 1195 1197 1198
f 1194 1196 1199
f 1196 1193 1199
f 1193 1196 1200
f 1198 1193 1200
f 1195 1198 1200
f 1193 1197 1201
f 1199 1193 1201
f 1197 1199 1201
f 1197 1194 1202
f 1194 1199 1202
f 1199 1197 1202
f 1196 1195 722
f 1195 1200 722
f 1208 1206 1209
f 1204 988 1205
f 1205 988 1206
f 1203 1204 1207
f 1204 1205 1207
f 1205 1203 1207
f 1204 1203 1208
f 1203 1206 1208
f 1203 1205 1198
f 1206 1203 1198
f 1205 1206 1198
f 988 1204 1209
f 1206 988 1209
f 1204 1208 1209
f 1210 1218 1222
f 1212 1211 1213
f 1214 1210 994
f 1213 1211 1215
f 1211 1212 1216
f 1212 1214 1216
f 1214 994 1216
f 994 1211 1216
f 1212 1213 1217
f 1213 1214 1217
f 1214 1212 1217
f 1210 1215 1218
f 1215 1210 1219
f 1213 1215 1219
f 1211 994 1220
f 1215 1211 1220
f 994 1218 1220
f 1218 1215 1220
f 1210 1214 1221
f 1214 1213 1221
f 1219 1210 1221
f 1213 1219 1221
f 994 1210 1222
f 1218 994 1222
f 1229 894 1232
f 1224 1225 894
f 1226 1223 1227
f 1224 894 1228
f 894 1223 1228
f 1223 894 1229
f 1225 1227 1229
f 1227 1223 1229
f 1223 1226 1230
f 1228 1223 1230
f 1226 1228 1230
f 1226 1224 1231
f 1224 1228 1231
f 1228 1226 1231
f 1225 1224 1029
f 1224 1226 1029
f 1227 1225 1029
f 1226 1227 1029
f 894 1225 1232
f 1225 1229 1232
f 1239 1236 1161
f 1234 1235 1236
f 1233 1236 1237
f 1236 1235 1237
f 1235 1234 1238
f 1233 1238 1239
f 1234 1236 1239
f 1238 1234 1239
f 1237 1235 1240
f 1235 1238 1240
f 1238 1237 1240
f 1233 1237 1241
f 1237 1238 1241
f 1238 1233 1241
f 1236 1233 1161
f 1233 1239 1161
f 1244 1252 1254
f 195 192 1243
f 1244 1242 1245
f 1243 192 1246
f 1244 1245 1247
f 1242 1244 1248
f 1246 1242 1248
f 1246 1248 1249
f 1243 1246 1249
f 1248 1243 1249
f 1245 1242 1250
f 1242 1246 1250
f 1245 195 1251
f 195 1247 1251
f 1247 1245 1251
f 195 1243 1252
f 1247 195 1252
f 1244 1247 1252
f 192 195 1253
f 195 1245 1253
f 1246 192 1253
f 1245 1250 1253
f 1250 1246 1253
f 1248 1244 1254
f 1243 1248 1254
f 1252 1243 1254
f 1264 1257 1265
f 1257 1256 1258
f 1256 1259 1260
f 1255 1258 1260
f 1259 1255 1260
f 1255 1259 1261
f 1258 1256 1262
f 1256 1260 1262
f 1260 1258 1262
f 1257 1258 1263
f 1258 1255 1263
f 1255 1261 1263
f 1261 1257 1263
f 1256 1257 1264
f 1259 1256 1264
f 1261 1259 1264
f 1261 1264 1265
f 1257 1261 1265
f 1273 1272 1275
f 1266 1269 1270
f 1267 1268 1271
f 1269 1266 1271
f 1268 1270 1271
f 1270 1269 1271
f 1267 1271 1273
f 1271 1266 1273
f 1266 1272 1273
f 1268 1267 1274
f 1267 187 1274
f 1270 1268 1274
f 187 1270 1274
f 1270 187 183
f 1266 1270 183
f 187 1272 183
f 1272 1266 183
f 187 1267 1275
f 1272 187 1275
f 1267 1273 1275
f 1280 471 1283
f 471 1277 919
f 1276 919 1278
f 919 1277 1278
f 1277 471 1279
f 1276 1279 1280
f 1279 471 1280
f 1276 1278 1281
f 1278 1279 1281
f 1279 1276 1281
f 1278 1277 1282
f 1277 1279 1282
f 1279 1278 1282
f 471 919 1283
f 919 1276 1283
f 1276 1280 1283
f 1288 1287 1291
f 1285 1286 1287
f 1286 1285 1288
f 1285 1287 1288
f 1284 1286 1289
f 1288 1284 1289
f 1286 1288 1289
f 1286 1284 1290
f 1287 1286 1290
f 1284 1287 1290
f 1287 1284 1291
f 1284 1288 1291
f 1296 1299 1302
f 1294 1293 1295
f 1294 1296 1297
f 1293 1294 1297
f 1296 1292 1297
f 1297 1292 1298
f 1292 1295 1298
f 1293 1297 1298
f 1294 1295 1299
f 1295 1292 1299
f 1295 1293 1300
f 1293 1298 1300
f 1298 1295 1300
f 1296 1294 1301
f 1294 1299 1301
f 1299 1296 1301
f 1292 1296 1302
f 1299 1292 1302
f 1312 1307 1313
f 1303 1306 1307
f 1303 1307 1309
f 1308 1303 1309
f 1305 1308 1309
f 1306 1303 1310
f 1303 1308 1310
f 1308 1306 1310
f 1305 1304 1311
f 1308 1305 1311
f 1306 1308 1311
f 1304 1305 1312
f 1305 1309 1312
f 1309 1307 1312
f 1307 1306 1313
f 1311 1304 1313
f 1306 1311 1313
f 1304 1312 1313
f 1318 1317 1321
f 1315 1316 1317
f 1316 1315 1318
f 1315 1317 1318
f 1314 1316 1319
f 1318 1314 1319
f 1316 1318 1319
f 1316 1314 1320
f 1317 1316 1320
f 1314 1317 1320
f 1317 1314 1321
f 1314 1318 1321
f 1328 803 1331
f 1323 1324 803
f 1322 803 1325
f 1324 1323 1326
f 1326 1322 1327
f 1322 1325 1327
f 1324 1326 1327
f 1325 803 1328
f 1327 1325 1328
f 1323 803 1329
f 803 1322 1329
f 1326 1323 1329
f 1322 1326 1329
f 1324 1327 1330
f 1328 1324 1330
f 1327 1328 1330
f 803 1324 1331
f 1324 1328 1331
f 1337 1338 1341
f 1333 1334 1335
f 1334 1333 1336
f 1333 1335 1336
f 1332 1335 1337
f 1336 1332 1338
f 1334 1336 1338
f 1337 1334 1338
f 1335 1334 1339
f 1334 1337 1339
f 1337 1335 1339
f 1335 1332 1340
f 1332 1336 1340
f 1336 1335 1340
f 1332 1337 1341
f 1338 1332 1341
f 1348 1346 1119
f 1115 1343 1344
f 1344 1343 1345
f 1342 1344 1345
f 1343 1115 1347
f 1117 1342 1347
f 1115 1117 1347
f 1345 1343 1347
f 1115 1344 1348
f 1344 1346 1348
f 1344 1342 1349
f 1342 1117 1349
f 1346 1344 1349
f 1117 1346 1349
f 1342 1345 1350
f 1347 1342 1350
f 1345 1347 1350
f 1117 1115 1119
f 1346 1117 1119
f 1115 1348 1119
f 1361 1351 1364
f 1352 1353 1356
f 1356 1351 1357
f 1356 1357 1358
f 1353 1352 1358
f 1352 1356 1358
f 1357 1355 1358
f 1351 1356 1359
f 1356 1353 1360
f 1354 1355 1361
f 1355 1357 1361
f 1355 1354 1362
f 1353 1358 1362
f 1358 1355 1362
f 1360 1353 1362
f 1354 1360 1362
f 1357 1351 1363
f 1351 1361 1363
f 1361 1357 1363
f 1351 1359 1364
f 1359 1356 1364
f 1356 1360 1364
f 1360 1354 1364
f 1354 1361 1364
f 1372 1370 1374
f 1366 1367 1368
f 1365 1368 1369
f 1367 1366 1370
f 1365 1369 1370
f 1369 1367 1371
f 1367 1370 1371
f 1370 1369 1371
f 1366 1368 1372
f 1368 1365 1372
f 1365 1370 1372
f 1368 1367 1373
f 1369 1368 1373
f 1367 1369 1373
f 1370 1366 1374
f 1366 1372 1374
f 1380 1379 1386
f 188 1376 433
f 1375 433 1377
f 1375 1378 1379
f 188 433 1380
f 433 1375 1380
f 1376 1378 1381
f 1378 1377 1381
f 1375 1377 1382
f 1377 1378 1382
f 1378 1375 1382
f 433 1376 1383
f 1377 433 1383
f 1376 1381 1383
f 1381 1377 1383
f 1376 188 1384
f 1378 1376 1384
f 1379 1378 1384
f 188 1379 1384
f 1375 1379 1385
f 1380 1375 1385
f 1379 1380 1385
f 1379 188 1386
f 188 1380 1386
f 1393 1387 1398
f 1389 1388 1390
f 1388 1389 1391
f 1391 1389 1392
f 1388 1391 1393
f 1389 1390 1394
f 1392 1389 1394
f 1392 1394 1395
f 1387 1392 1395
f 1394 1387 1395
f 1390 1388 1396
f 1388 1393 1396
f 1393 1390 1396
f 1390 1387 1397
f 1394 1390 1397
f 1387 1394 1397
f 1392 1387 1195
f 1391 1392 1195
f 1393 1391 1195
f 1387 1393 1195
f 1387 1390 1398
f 1390 1393 1398
f 1405 1399 1407
f 1401 1400 1402
f 1400 1401 1403
f 1402 1400 1403
f 1399 1401 1404
f 1401 1402 1404
f 1404 1402 1405
f 1403 1399 1405
f 1402 1403 1405
f 1401 1399 1406
f 1399 1403 1406
f 1403 1401 1406
f 1399 1404 1407
f 1404 1405 1407
f 1412 1413 1417
f 1410 1409 1411
f 1409 1410 1412
f 1411 1409 1413
f 1408 1411 1413
f 1412 1408 1413
f 1410 1411 1414
f 1411 1408 1414
f 1408 1412 1415
f 1412 1410 1415
f 1414 1408 1415
f 1414 1415 1416
f 1410 1414 1416
f 1415 1410 1416
f 1409 1412 1417
f 1413 1409 1417
f 1422 1420 1425
f 1418 115 1221
f 115 1418 1419
f 1418 1221 1420
f 1221 1417 1420
f 1221 115 1421
f 1417 1221 1421
f 1419 1418 1422
f 1418 1420 1422
f 1419 1417 1423
f 1417 1421 1423
f 1421 1419 1423
f 115 1419 1424
f 1421 115 1424
f 1419 1421 1424
f 1417 1419 1413
f 1422 1417 1413
f 1419 1422 1413
f 1420 1417 1425
f 1417 1422 1425
f 1428 1433 1434
f 1427 1428 1429
f 1428 1427 1430
f 1427 1429 1430
f 1429 1426 1431
f 1426 1430 1431
f 1430 1429 1431
f 1426 1428 1432
f 1430 1426 1432
f 1428 1430 1432
f 1428 1426 1433
f 1426 1429 1433
f 1433 1429 1434
f 1429 1428 1434
f 1439 1438 1442
f 1436 1437 1438
f 1437 1436 1439
f 1436 1438 1439
f 1435 1437 1440
f 1439 1435 1440
f 1437 1439 1440
f 1437 1435 1441
f 1438 1437 1441
f 1435 1438 1441
f 1438 1435 1442
f 1435 1439 1442
f 1443 1446 1450
f 1444 1445 1446
f 1445 1444 1447
f 1444 1446 1447
f 1446 1443 1448
f 1443 1447 1448
f 1447 1446 1448
f 1443 1445 1449
f 1447 1443 1449
f 1445 1447 1449
f 1445 1443 1450
f 1446 1445 1450
f 1455 46 1457
f 1451 1452 46
f 1452 1451 1453
f 1451 46 1453
f 46 1402 1405
f 1402 1453 1405
f 1453 46 1405
f 1453 1402 1454
f 1452 1453 1454
f 1402 46 1455
f 1454 1402 1455
f 1454 1455 1456
f 1452 1454 1456
f 1455 1452 1456
f 46 1452 1457
f 1452 1455 1457
f 1461 150 1431
f 1459 1460 150
f 1460 1459 1461
f 1459 150 1461
f 1458 1460 1462
f 1461 1458 1462
f 1460 1461 1462
f 1460 1458 146
f 150 1460 146
f 1458 150 146
f 150 1458 1431
f 1458 1461 1431
f 113 981 1470
f 1371 1369 1464
f 1463 1464 1465
f 1464 1369 1465
f 1369 1371 1466
f 1466 1371 981
f 1465 1369 1467
f 1369 1466 1467
f 1466 1465 1467
f 1464 1463 113
f 1463 981 113
f 1463 1465 1468
f 1465 1466 1468
f 1466 1463 1468
f 1463 1466 1469
f 981 1463 1469
f 1466 981 1469
f 1371 1464 1470
f 981 1371 1470
f 1464 113 1470
f 1478 1481 1486
f 1475 1471 1476
f 1474 1475 1477
f 1471 1475 1479
f 1475 1474 1479
f 1474 1478 1479
f 1478 1471 1479
f 1473 1472 1480
f 1478 1473 1480
f 1472 1473 1481
f 1478 1474 1481
f 1475 1476 1482
f 1477 1475 1482
f 1476 1471 1483
f 1471 1478 1483
f 1480 1476 1483
f 1478 1480 1483
f 1480 1472 1484
f 1476 1480 1484
f 1472 1482 1484
f 1482 1476 1484
f 1474 1477 1485
f 1472 1481 1485
f 1481 1474 1485
f 1482 1472 1485
f 1477 1482 1485
f 1473 1478 1486
f 1481 1473 1486
f 1493 1492 1495
f 1488 1489 1490
f 1489 1488 1491
f 1491 1487 1492
f 1489 1491 1492
f 1490 1489 1493
f 1487 1490 1493
f 1489 1492 1493
f 1488 1490 1494
f 1490 1487 1494
f 1487 1491 1494
f 1491 1488 1494
f 1492 1487 1495
f 1487 1493 1495
f 1498 1500 1503
f 1497 1498 1499
f 1498 1497 1500
f 1497 1499 1500
f 1499 1496 1501
f 1496 1500 1501
f 1500 1499 1501
f 1498 1496 1502
f 1499 1498 1502
f 1496 1499 1502
f 1496 1498 1503
f 1500 1496 1503
f 1507 1510 1512
f 1505 1506 1507
f 1504 1507 1508
f 1507 1506 1508
f 1508 1506 1509
f 1506 1505 1509
f 1504 1509 1510
f 1507 1504 1510
f 1509 1505 1510
f 1504 1508 1511
f 1508 1509 1511
f 1509 1504 1511
f 1505 1507 1512
f 1510 1505 1512
f 1517 1520 1525
f 1514 1515 1516
f 1515 1514 1517
f 1516 1515 1519
f 1513 1516 1519
f 1515 1518 1519
f 1514 1516 1520
f 1516 1513 1520
f 1515 1517 1521
f 1518 1515 1521
f 1518 1513 1522
f 1513 1519 1522
f 1519 1518 1522
f 1517 1513 1523
f 1513 1518 1523
f 1521 1517 1523
f 1518 1521 1523
f 1517 1514 1524
f 1514 1520 1524
f 1520 1517 1524
f 1513 1517 1525
f 1520 1513 1525
f 1532 1531 1535
f 1528 1527 1529
f 1526 1529 1530
f 1529 1527 1530
f 1530 1527 1531
f 1527 1528 1531
f 1529 1526 1532
f 1526 1531 1532
f 1526 1530 1533
f 1530 1531 1533
f 1531 1526 1533
f 1528 1529 1534
f 1532 1528 1534
f 1529 1532 1534
f 1531 1528 1535
f 1528 1532 1535
f 1538 1542 1543
f 1537 1538 1539
f 1538 1537 1540
f 1537 1539 1540
f 1539 1536 924
f 1536 1540 924
f 1540 1539 924
f 1536 1538 1541
f 1540 1536 1541
f 1538 1540 1541
f 1538 1536 1542
f 1536 1539 1542
f 1542 1539 1543
f 1539 1538 1543
f 1551 1549 1554
f 1546 1545 1547
f 1547 1544 1548
f 1545 1546 1549
f 1548 1544 1549
f 1546 1547 1550
f 1547 1548 1550
f 1548 1546 1550
f 1547 1545 1551
f 1545 1549 1551
f 1546 1548 1552
f 1549 1546 1552
f 1548 1549 1552
f 1544 1547 1553
f 1547 1551 1553
f 1551 1544 1553
f 1549 1544 1554
f 1544 1551 1554
f 904 1560 1564
f 1557 1556 1558
f 1556 1557 1560
f 1559 1555 1560
f 1558 1556 1561
f 1557 1559 1562
f 1560 1557 1562
f 1559 1560 1562
f 1555 1559 1144
f 1559 1558 1144
f 1561 1555 1144
f 1558 1561 1144
f 1557 1558 1563
f 1558 1559 1563
f 1559 1557 1563
f 1556 1560 904
f 1561 1556 904
f 1561 904 1564
f 1560 1555 1564
f 1555 1561 1564

