# https://github.com/mikedh/trimesh

o convex_0
v 0.17832500 -0.42781200 -0.07578200
v 0.20359300 0.45005400 0.29690100
v 0.20359300 0.45005400 -0.10106400
v 0.20359300 -0.44992800 0.29690100
v 0.18148600 0.45005400 0.29690100
v 0.20359300 -0.44992800 -0.10106400
v 0.18148600 0.45005400 -0.10106400
v 0.18148400 -0.44992800 0.29690100
v 0.17832500 0.42793800 0.13262800
v 0.18148400 -0.44992800 -0.10106400
v 0.17832500 0.42793800 -0.07578200
v 0.17832500 -0.42781200 0.13262800
v 0.17832500 0.32378800 -0.08209300
v -0.31123400 -0.39313700 0.03790800
v -0.28596700 0.42803300 0.13266200
v -0.28596700 0.42803300 0.10738700
v -0.28596700 -0.42790700 0.13266200
v -0.31123400 0.39326200 0.12632700
v -0.28912600 0.42166500 0.03790800
v -0.30807300 -0.42790700 0.13266200
v -0.28912600 -0.42154000 0.03790800
v -0.31123400 0.39326200 0.03790800
v -0.30807300 0.42803300 0.13266200
v -0.31123400 -0.39313700 0.12632700
v -0.28596700 -0.42790700 0.10738700
v -0.30491500 0.42166500 0.03790800
v -0.30491500 -0.42154000 0.03790800
v -0.31754500 -0.43101800 -0.03788400
v -0.28912700 0.05213000 0.03788600
v -0.28596700 0.05213000 -0.05683400
v -0.28596700 -0.42785000 0.01262600
v -0.28596700 -0.42785000 -0.07577400
v -0.30807300 0.05213000 -0.07577400
v -0.30807300 0.05213000 0.03788600
v -0.31123000 -0.39308900 0.03788600
v -0.30807300 -0.42785000 -0.07577400
v -0.28912700 -0.42151200 0.03788600
v -0.28596700 0.05213000 -0.07577400
v -0.31754500 -0.39942600 -0.05683400
v -0.31754500 -0.40571600 -0.02525300
v -0.30491400 -0.42151200 0.03788600
v -0.30807300 0.42796400 -0.07577400
v -0.28912700 0.42165800 0.03788600
v -0.28596700 0.42796400 0.01262600
v -0.28596700 0.05225100 -0.07577400
v -0.30807300 0.05225100 0.03788600
v -0.30807300 0.05225100 -0.07577400
v -0.31754500 0.42796400 -0.02525300
v -0.28912700 0.05225100 0.03788600
v -0.28596700 0.42796400 -0.07577400
v -0.31123000 0.39324500 0.03788600
v -0.31754500 0.39955100 -0.05683400
v -0.30491400 0.42165800 0.03788600
v -0.28596700 0.05225100 -0.05683400
v -0.31754500 0.43111700 -0.05683400
v 0.17832500 -0.40895700 0.13266200
v 0.10565500 -0.42790700 0.10423600
v -0.28596700 -0.42790700 0.10739700
v 0.17832500 -0.42790700 0.13266200
v 0.17832500 -0.40895700 0.10423600
v -0.28596700 -0.40895700 0.13266200
v -0.28596700 -0.40895700 0.10739700
v 0.17832500 -0.42790700 0.10423600
v 0.17832500 0.42803300 0.13266200
v 0.10565500 0.40908200 0.10423600
v -0.28596700 0.40908200 0.10739700
v 0.17832500 0.40908200 0.13266200
v 0.17832500 0.42803300 0.10423600
v -0.28596700 0.42803300 0.10739700
v -0.28596700 0.40908200 0.13266200
v 0.17832500 0.40908200 0.10423600
v -0.07118200 -0.38684700 -0.07895200
v 0.17832500 0.05217700 -0.05684500
v 0.17832500 -0.38684700 -0.05684500
v -0.28596700 0.05217700 -0.05684500
v 0.17832500 0.02690800 -0.08210800
v -0.28596700 -0.38684700 -0.05684500
v -0.28596700 0.05217700 -0.07579200
v 0.17832500 -0.32367500 -0.08210800
v -0.28596700 -0.38684700 -0.07579200
v 0.17832500 -0.38684700 -0.07579200
v 0.17832500 0.05217700 -0.07579200
v 0.13092400 -0.38684700 -0.07895200
v 0.16882700 0.02690800 -0.08210800
v -0.07118200 0.38379400 -0.07895200
v 0.17832500 0.38697300 -0.05684500
v 0.17832500 0.05221000 -0.05684500
v -0.28596700 0.38697300 -0.05684500
v -0.28596700 0.05221000 -0.07579200
v 0.17832500 0.27007600 -0.08210800
v -0.28596700 0.05221000 -0.05684500
v 0.17832500 0.05221000 -0.07579200
v -0.28596700 0.38697300 -0.07579200
v 0.17832500 0.38697300 -0.07579200
v 0.16882700 0.32375600 -0.08210800
v 0.13092400 0.38697300 -0.07895000
v 0.17832500 -0.41211900 0.01264100
v -0.04914000 -0.40580300 -0.08211300
v -0.04914000 -0.40264500 -0.08211300
v -0.28596700 -0.41211900 0.01264100
v -0.28596700 -0.43106600 -0.07263400
v 0.17832500 -0.43106600 0.00315200
v 0.17832500 -0.43106600 -0.07263400
v -0.28596700 -0.42790200 0.01264100
v -0.28596700 -0.40264500 -0.05683900
v 0.17832500 -0.40264500 -0.02842900
v 0.14987500 -0.40264500 -0.06947100
v -0.28596700 -0.40896100 0.00947800
v -0.28596700 -0.40264500 -0.02842000
v 0.17832500 -0.42790200 0.01264100
v -0.28596700 -0.42790200 -0.07578700
v 0.17832500 -0.42790200 -0.07578700
v -0.28596700 -0.43106600 -0.04105300
v 0.17832500 -0.40896100 0.00947800
v 0.17832500 -0.40264500 -0.05682900
v -0.28596700 -0.42474400 -0.07578700
v 0.17832500 -0.39000800 -0.05369200
v -0.04914000 -0.40264000 -0.08211300
v -0.04914000 -0.39000800 -0.08211300
v -0.28596700 -0.40264000 -0.04737700
v -0.28596700 -0.38684900 -0.07579100
v 0.17832500 -0.40264000 -0.04737700
v 0.17832500 -0.38684900 -0.07579100
v -0.28596700 -0.38684900 -0.05685100
v -0.28596700 -0.39947900 -0.07579100
v 0.17832500 -0.39947900 -0.07579100
v 0.17832500 -0.38684900 -0.05685100
v -0.28596700 -0.39947900 -0.04737700
v 0.13092400 -0.38684900 -0.07895100
v 0.17832500 0.39960400 -0.04737700
v -0.04914000 0.39013400 -0.08211300
v -0.04914000 0.40276500 -0.08211300
v -0.28596700 0.40276500 -0.04737700
v -0.28596700 0.38697300 -0.05685100
v 0.17832500 0.38697300 -0.07579100
v -0.28596700 0.39960400 -0.07579100
v 0.17832500 0.38697300 -0.05685100
v 0.14987500 0.40276500 -0.06947700
v -0.28596700 0.38697300 -0.07579100
v 0.17832500 0.40276500 -0.04737700
v 0.17832500 0.39960400 -0.07579100
v 0.13092400 0.38697300 -0.07895100
v 0.17832500 0.42802700 0.01264100
v -0.28596700 0.40276500 -0.05683900
v -0.28596700 0.43119100 -0.07263400
v -0.28596700 0.40908400 0.00947800
v 0.17832500 0.43119100 -0.07263400
v 0.17832500 0.40276500 -0.02842900
v -0.28596700 0.42802700 0.01264100
v 0.17832500 0.41224200 0.01264100
v 0.10565500 0.43119100 0.00315200
v 0.14987500 0.40276500 -0.06947100
v -0.28596700 0.40276500 -0.02842000
v -0.28596700 0.42802700 -0.07578700
v 0.17832500 0.42802700 -0.07578700
v 0.17832500 0.40908400 0.00947800
v -0.28596700 0.43119100 -0.04105300
v -0.28596700 0.41224200 0.01264100
v 0.17832500 0.40276500 -0.05682900
v 0.17832500 0.43119100 0.00315200
v -0.28596700 0.42487200 -0.07578700
f 11 7 13
f 3 2 4
f 2 3 5
f 4 2 5
f 3 4 6
f 5 3 7
f 3 6 7
f 4 5 8
f 6 4 8
f 5 7 9
f 8 5 9
f 7 6 10
f 8 1 10
f 6 8 10
f 1 9 11
f 9 7 11
f 1 8 12
f 9 1 12
f 8 9 12
f 10 1 13
f 7 10 13
f 1 11 13
f 21 25 27
f 16 15 17
f 17 15 20
f 19 16 21
f 14 19 21
f 14 18 22
f 19 14 22
f 15 16 23
f 20 15 23
f 18 20 23
f 22 18 23
f 18 14 24
f 14 20 24
f 20 18 24
f 16 17 25
f 17 20 25
f 21 16 25
f 16 19 26
f 19 22 26
f 22 23 26
f 23 16 26
f 20 14 27
f 14 21 27
f 25 20 27
f 37 35 41
f 30 29 31
f 31 28 32
f 30 31 32
f 29 30 33
f 29 33 34
f 29 34 35
f 32 28 36
f 33 32 36
f 31 29 37
f 29 35 37
f 30 32 38
f 33 30 38
f 32 33 38
f 34 33 39
f 36 28 39
f 33 36 39
f 28 35 40
f 35 34 40
f 39 28 40
f 34 39 40
f 28 31 41
f 35 28 41
f 31 37 41
f 52 48 55
f 42 45 47
f 45 46 47
f 44 43 49
f 46 45 49
f 43 46 49
f 44 45 50
f 45 42 50
f 46 43 51
f 48 46 51
f 42 47 52
f 47 46 52
f 46 48 52
f 43 44 53
f 44 48 53
f 51 43 53
f 48 51 53
f 45 44 54
f 44 49 54
f 49 45 54
f 48 44 55
f 50 42 55
f 44 50 55
f 42 52 55
f 57 60 63
f 58 57 59
f 56 59 60
f 59 56 61
f 56 60 61
f 61 60 62
f 57 58 62
f 60 57 62
f 58 61 62
f 58 59 17
f 61 58 17
f 59 61 17
f 59 57 63
f 60 59 63
f 68 67 71
f 66 65 67
f 67 64 15
f 64 67 68
f 15 64 68
f 65 66 69
f 66 15 69
f 15 68 69
f 68 65 69
f 66 67 70
f 67 15 70
f 15 66 70
f 67 65 71
f 65 68 71
f 76 79 84
f 74 73 75
f 73 74 76
f 72 74 77
f 74 75 77
f 77 75 78
f 75 73 78
f 76 74 79
f 72 77 80
f 77 78 80
f 78 72 80
f 74 72 81
f 79 74 81
f 73 76 82
f 78 73 82
f 76 78 82
f 72 79 83
f 81 72 83
f 79 81 83
f 72 78 84
f 78 76 84
f 79 72 84
f 95 85 96
f 87 86 88
f 86 87 90
f 87 88 91
f 88 89 91
f 89 87 91
f 87 89 92
f 90 87 92
f 89 90 92
f 88 86 93
f 85 89 93
f 89 88 93
f 86 90 94
f 93 86 94
f 89 85 95
f 90 89 95
f 94 90 95
f 94 95 96
f 85 93 96
f 93 94 96
f 111 105 116
f 102 101 103
f 97 102 103
f 97 100 104
f 100 101 104
f 101 100 105
f 97 103 106
f 99 105 106
f 99 106 107
f 100 97 108
f 105 100 108
f 106 105 109
f 105 108 109
f 102 97 110
f 97 104 110
f 104 102 110
f 99 98 111
f 103 101 111
f 101 105 111
f 98 99 112
f 106 103 112
f 99 107 112
f 111 98 112
f 103 111 112
f 101 102 113
f 104 101 113
f 102 104 113
f 97 106 114
f 108 97 114
f 106 109 114
f 109 108 114
f 107 106 115
f 106 112 115
f 112 107 115
f 105 99 116
f 99 111 116
f 123 126 129
f 119 118 121
f 120 118 122
f 117 122 123
f 121 120 124
f 123 121 124
f 118 120 125
f 120 121 125
f 121 118 125
f 122 118 126
f 123 122 126
f 117 123 127
f 124 117 127
f 123 124 127
f 122 117 128
f 120 122 128
f 117 124 128
f 124 120 128
f 118 119 129
f 119 121 129
f 121 123 129
f 126 118 129
f 132 141 142
f 130 133 134
f 132 131 136
f 133 132 136
f 134 133 136
f 130 134 137
f 135 130 137
f 134 135 137
f 132 133 138
f 135 134 139
f 136 131 139
f 134 136 139
f 133 130 140
f 130 135 140
f 138 133 140
f 138 140 141
f 132 138 141
f 140 135 141
f 141 135 142
f 131 132 142
f 139 131 142
f 135 139 142
f 154 132 161
f 145 144 146
f 144 132 148
f 147 143 148
f 145 146 149
f 148 143 150
f 143 149 150
f 147 145 151
f 149 143 151
f 148 132 152
f 146 144 153
f 144 148 153
f 144 145 154
f 145 147 154
f 154 147 155
f 147 148 155
f 152 132 155
f 132 154 155
f 150 146 156
f 148 150 156
f 146 153 156
f 153 148 156
f 145 149 157
f 151 145 157
f 149 151 157
f 149 146 158
f 146 150 158
f 150 149 158
f 148 152 159
f 155 148 159
f 152 155 159
f 143 147 160
f 151 143 160
f 147 151 160
f 132 144 161
f 144 154 161

