# https://github.com/mikedh/trimesh

o convex_0
v 0.17913600 -0.40927100 -0.33204700
v -0.08063900 -0.45194200 -0.39023600
v -0.32898700 -0.45194200 -0.39022700
v 0.22960300 -0.45194200 -0.29713300
v -0.31734000 -0.40151100 -0.32818200
v 0.22960300 -0.40151100 -0.39023600
v -0.32898700 -0.45194200 -0.32818200
v -0.31734000 -0.40151100 -0.39022700
v 0.22960300 -0.45194200 -0.39023600
v -0.08063900 -0.43254200 -0.29713300
v 0.22960300 -0.43254200 -0.29713300
v 0.19466400 -0.40151100 -0.34754000
v -0.08063900 -0.45194200 -0.29713300
v 0.22963400 0.43253700 0.14510900
v 0.08609900 0.40538600 0.00933300
v 0.08609900 0.40150600 0.01709400
v 0.08609900 0.45193700 0.14510900
v 0.22963400 0.45193700 0.00933300
v 0.22574200 0.40538600 0.00933300
v 0.08609900 0.45193700 0.00933300
v 0.22963400 0.45193700 0.14510900
v 0.08609900 0.43253700 0.14510900
v 0.19472000 0.40150600 0.03649800
v 0.08609900 0.40150600 0.03649800
v -0.30178000 -0.40151100 -0.39023600
v 0.22955100 0.00193700 -0.37084000
v 0.22955100 -0.40151100 -0.37084000
v 0.22955100 0.00193700 -0.39023600
v -0.30178000 0.00193700 -0.37084000
v -0.30178000 0.00193700 -0.39023600
v -0.30178000 -0.40151100 -0.37084000
v 0.22955100 -0.40151100 -0.39023600
v 0.22963400 0.00193700 0.41278100
v 0.14428900 -0.39763200 0.39338400
v 0.14428900 -0.39763200 0.41278100
v 0.14428900 0.00193700 0.39338400
v 0.22963400 -0.39763200 0.39338400
v 0.22963400 -0.39763200 0.41278100
v 0.14428900 0.00193700 0.41278100
v 0.22963400 0.00193700 0.39338400
v -0.22035200 0.00193700 -0.39023600
v 0.22963400 0.40150600 -0.37084000
v 0.22963400 0.00193700 -0.37084000
v 0.22963400 0.40150600 -0.39023600
v -0.22035200 0.40150600 -0.37084000
v 0.22963400 0.00193700 -0.39023600
v -0.22035200 0.00193700 -0.37084000
v -0.22035200 0.40150600 -0.39023600
v -0.22031200 0.45193700 0.00926700
v 0.08605100 0.43254100 -0.32816700
v -0.22031200 0.43254100 -0.32423600
v 0.22958200 0.43254100 0.00933300
v 0.22958200 0.45193700 -0.32816700
v -0.30178000 0.43254100 0.00543400
v -0.30178000 0.45193700 -0.31650500
v 0.22958200 0.45193700 0.00933300
v 0.22958200 0.43254100 -0.32816700
v -0.30178000 0.43254100 -0.31650500
v -0.30178000 0.45193700 0.00543400
v -0.22031200 0.45193700 -0.32423600
v 0.19857600 0.40538600 -0.34370000
v -0.32897600 0.43253700 -0.39023600
v -0.32897600 0.45193700 -0.39023600
v -0.32897600 0.43253700 -0.31652900
v 0.22963400 0.45193700 -0.32817400
v 0.22963400 0.45193700 -0.39022900
v -0.22032700 0.40150600 -0.39023600
v -0.31732900 0.40926600 -0.31652900
v 0.22963400 0.40150600 -0.39022900
v -0.32897600 0.45193700 -0.31652900
v 0.22569700 0.42865700 -0.32817400
v -0.22032700 0.40150600 -0.34756800
v -0.31732900 0.40926600 -0.39023600
v 0.19469300 0.40150600 -0.34757500
v 0.17911000 0.40926600 -0.33206300
v -0.22032700 0.45193700 -0.31652900
v 0.22963400 0.45189300 0.41278100
v 0.08609900 0.43247200 0.38950500
v 0.14429400 0.00198100 0.39338500
v 0.08609900 0.43247200 0.41278100
v 0.22963400 0.45189300 0.38950500
v 0.22963400 0.00198100 0.41278100
v 0.22963400 0.00198100 0.39338500
v 0.14429400 0.00198100 0.41278100
v 0.08609900 0.45189300 0.41278100
v 0.08609900 0.45189300 0.38950500
v -0.31734600 -0.40151100 -0.39022900
v -0.30571300 0.40926500 -0.31652900
v -0.31734600 0.40926500 -0.31652900
v -0.31734600 0.40926500 -0.39023600
v -0.30183200 0.00197200 -0.39023600
v -0.30571300 -0.40151100 -0.32817400
v -0.31734600 -0.40151100 -0.32817400
v -0.30183200 0.40926500 -0.39023600
v -0.30183200 -0.40151100 -0.37082800
v -0.30571300 0.00197200 -0.31652900
v -0.30183200 -0.40151100 -0.39022900
v -0.30183200 0.40926500 -0.37082800
v -0.31734600 0.00197200 -0.31652900
v -0.22423600 -0.39764200 0.41278100
v -0.30183200 -0.45194200 0.34295300
v -0.30183200 -0.43254000 0.34295300
v -0.08073300 -0.45194200 0.34295300
v -0.30183200 -0.45194200 0.41278100
v -0.08073300 -0.45194200 0.41278100
v -0.08073300 -0.43254000 0.34295300
v -0.30183200 -0.39764200 0.39338300
v -0.08073300 -0.43254000 0.41278100
v -0.30183200 -0.39764200 0.41278100
v -0.22423600 -0.39764200 0.39338300
v -0.31734400 -0.39764200 0.41270800
v -0.32898700 -0.45194200 -0.32809500
v -0.30183200 -0.45194200 -0.32809500
v -0.32898700 -0.45194200 0.41270800
v -0.30183200 -0.45194200 0.41270800
v -0.30571500 -0.39764200 -0.32809500
v -0.30183200 -0.39764200 0.41270800
v -0.32898700 -0.43254000 -0.32809500
v -0.31734400 -0.39764200 -0.32809500
v -0.32898700 -0.43254000 0.41270800
v -0.30183200 -0.43254000 -0.32809500
v -0.31346700 -0.39763200 -0.32816700
v -0.30571200 0.39762700 0.38950500
v -0.30571200 0.39762700 -0.31650600
v -0.31734900 0.39762700 0.38950500
v -0.30571400 -0.39763200 0.38950500
v -0.31734900 -0.39755400 0.38950500
v -0.31734900 0.39762700 -0.31650600
v -0.30571400 -0.39763200 -0.32816700
v -0.31734900 -0.39755400 -0.32816700
v -0.30571200 0.00186600 -0.32816700
v -0.31734900 0.00186600 -0.32816700
v -0.22424500 0.39762700 0.41278100
v -0.31734900 -0.39763200 0.38950500
v -0.30571100 -0.39763200 0.38950500
v -0.31734900 -0.39763200 0.41278100
v -0.22424500 -0.39763200 0.39338500
v -0.31734900 0.39762700 0.41278100
v -0.22424500 0.39762700 0.39338500
v -0.22424500 -0.39763200 0.41278100
v 0.17916000 0.41701900 0.31579500
v -0.22036600 0.40539000 0.27312600
v -0.22036600 0.40150600 0.28088600
v -0.22036600 0.42089700 0.31579500
v 0.22575500 0.42866100 0.27312600
v 0.19466200 0.40150600 0.28089000
v -0.22036600 0.42866100 0.27312600
v -0.22036600 0.40927100 0.31967700
v 0.19466200 0.40150600 0.30027500
v -0.09612800 0.42477800 0.30803000
v 0.22575500 0.40539000 0.27312600
v -0.22036600 0.40150600 0.30027900
v 0.22575500 0.42866100 0.28089000
v 0.17916000 0.40927100 0.31579500
v -0.08073300 -0.40151100 0.30027900
v -0.30183200 -0.45194200 0.22657400
v -0.08073300 -0.45194200 0.22657400
v -0.27466800 -0.40151100 0.28090200
v -0.08073300 -0.43254200 0.22657400
v -0.30183200 -0.43254200 0.34295300
v -0.30183200 -0.43254200 0.22657400
v -0.08073300 -0.43254200 0.34295300
v -0.24750400 -0.40927100 0.31966800
v -0.08073300 -0.40151100 0.28090200
v -0.27466800 -0.40151100 0.30027900
v -0.08073300 -0.40927100 0.31966800
v 0.22958200 -0.43254500 0.00543400
v -0.30178000 -0.45194200 -0.32816700
v -0.30178000 -0.43254500 -0.32816700
v -0.30178000 -0.45194200 0.00933300
v 0.22958200 -0.45194200 -0.29711300
v -0.30178000 -0.43254500 0.00933300
v 0.22958200 -0.43254500 -0.29711300
v 0.22958200 -0.45194200 0.00543400
v -0.08068200 -0.43254500 -0.32816700
v -0.08068200 -0.45194200 -0.32816700
v 0.22963400 0.45193700 0.38949100
v -0.22036600 0.43254200 0.05976400
v -0.22036600 0.45193700 0.05976400
v -0.22036600 0.45193700 0.41278100
v 0.22571400 0.42866100 0.27310800
v -0.22036600 0.43254200 0.41278100
v 0.22963400 0.45193700 0.14511500
v 0.08608000 0.43254200 0.05976400
v 0.22963400 0.43254200 0.38949100
v -0.22036600 0.42866100 0.32352500
v 0.08608000 0.45193700 0.05976400
v 0.22963400 0.43254200 0.14511500
v 0.08608000 0.43254200 0.41278100
v 0.08608000 0.45193700 0.41278100
v 0.22183700 0.42866100 0.32352500
v -0.22036600 0.42866100 0.27307400
v -0.08064300 -0.40151100 0.03649200
v -0.08064300 -0.45194200 0.00545300
v -0.30178000 -0.45194200 0.00933400
v 0.22955100 -0.45194200 0.08304000
v 0.22570200 -0.40539100 0.00933400
v -0.30178000 -0.43254200 0.05588100
v -0.27462500 -0.40539100 0.00933400
v 0.22955100 -0.45194200 0.00545300
v 0.22955100 -0.43254200 0.08304000
v -0.08064300 -0.45194200 0.08304000
v -0.24747100 -0.40927100 0.05588100
v 0.19464600 -0.40151100 0.03649200
v -0.30178000 -0.45194200 0.05588100
v -0.08064300 -0.43254200 0.08304000
v -0.27462500 -0.40151100 0.01710300
v 0.22955100 -0.43254200 0.00545300
v -0.27462500 -0.40151100 0.03648500
v 0.17914400 -0.40927100 0.05200100
v 0.22955100 -0.43254500 0.26924600
v -0.30178000 -0.45194200 0.05588400
v -0.30178000 -0.43254500 0.05588400
v 0.22955100 -0.45194200 0.08305600
v -0.30178000 -0.45194200 0.22655700
v 0.22955100 -0.45194200 0.26924600
v 0.22955100 -0.43254500 0.08305600
v -0.30178000 -0.43254500 0.22655700
v -0.08064300 -0.45194200 0.26924600
v -0.08064300 -0.43254500 0.26924600
v -0.08069500 -0.45194200 0.05588400
v -0.08069500 -0.43254500 0.05588400
v 0.22960300 -0.39764200 0.39337500
v -0.08068100 -0.45194200 0.35071200
v -0.08068100 -0.45194200 0.41278100
v 0.22960300 -0.45194200 0.35071200
v 0.22960300 -0.45194200 0.41278100
v -0.08068100 -0.43254000 0.35071200
v 0.14425700 -0.39764200 0.41278100
v -0.08068100 -0.43254000 0.41278100
v 0.22960300 -0.43254000 0.35071200
v 0.22960300 -0.39764200 0.41278100
v 0.14425700 -0.39764200 0.39337500
v -0.27466600 0.40926500 -0.34756400
v -0.30183200 0.00193700 -0.39023600
v -0.22038200 0.00193700 -0.39023600
v -0.22038200 0.40926500 -0.39023600
v -0.22038200 0.00193700 -0.37083800
v -0.22038200 0.40926500 -0.34756400
v -0.30183200 0.00193700 -0.37083800
v -0.30183200 0.40926500 -0.37083800
v -0.27466600 0.40151300 0.28089700
v -0.22038200 0.45193700 0.41278100
v -0.30183200 0.45193700 0.41278100
v -0.30183200 0.45193700 0.19554000
v -0.22038200 0.43253300 0.19554000
v -0.22425700 0.39762700 0.41278100
v -0.30183200 0.39762700 0.41278100
v -0.22038200 0.45193700 0.19554000
v -0.30183200 0.43253300 0.19554000
v -0.22038200 0.40151300 0.28089700
v -0.06902300 0.40926600 0.05587900
v -0.22036600 0.40538600 0.00933300
v -0.22036600 0.45193700 0.00933300
v 0.08609900 0.45193700 0.05976400
v 0.08609900 0.40150600 0.03648300
v -0.22036600 0.40926600 0.05587900
v 0.08609900 0.43253700 0.05976400
v -0.22036600 0.40150600 0.01709300
v -0.22036600 0.40150600 0.03648300
v -0.32898700 0.45193700 0.41271000
v -0.31734400 0.39762700 -0.31645800
v -0.30571500 0.39762700 -0.31645800
v -0.31734400 0.39762700 0.41271000
v -0.30183200 0.45193700 -0.31645800
v -0.30183200 0.45193700 0.41271000
v -0.32898700 0.45193700 -0.31645800
v -0.30183200 0.39762700 0.41271000
v -0.32898700 0.43253300 0.41271000
v -0.32898700 0.43253300 -0.31645800
v -0.30183200 0.43253300 -0.31645800
v 0.19467500 -0.40151100 0.30028400
v -0.08068100 -0.45194200 0.26925400
v -0.08068100 -0.45194200 0.35070400
v 0.22960300 -0.45194200 0.26925400
v -0.08068100 -0.40151100 0.28089500
v 0.22960300 -0.45194200 0.35070400
v -0.08068100 -0.43254200 0.35070400
v 0.22571600 -0.40539100 0.27313700
v 0.22960300 -0.43254200 0.35070400
v -0.08068100 -0.40927100 0.31967400
v -0.08068100 -0.40539100 0.27313700
v 0.22960300 -0.43254200 0.26925400
v -0.08068100 -0.40151100 0.30028400
v -0.27466600 0.40538600 0.00934200
v -0.22038200 0.45193700 0.00545300
v -0.30183200 0.45193700 0.00545300
v -0.22038200 0.40150600 0.03650800
v -0.30183200 0.43253700 0.19554000
v -0.22038200 0.43253700 0.19554000
v -0.30183200 0.43253700 0.00545300
v -0.27466600 0.40150600 0.03650800
v -0.22038200 0.40538600 0.00934200
f 10 7 13
f 3 2 4
f 3 4 7
f 5 3 7
f 2 3 8
f 3 5 8
f 5 6 8
f 6 2 8
f 4 2 9
f 2 6 9
f 6 4 9
f 5 7 10
f 1 5 11
f 4 6 11
f 10 4 11
f 5 10 11
f 5 1 12
f 6 5 12
f 1 11 12
f 11 6 12
f 7 4 13
f 4 10 13
f 16 23 24
f 15 16 17
f 15 18 19
f 16 15 19
f 18 14 19
f 15 17 20
f 17 18 20
f 18 15 20
f 17 14 21
f 14 18 21
f 18 17 21
f 17 16 22
f 14 17 22
f 19 14 23
f 16 19 23
f 14 22 23
f 23 22 24
f 22 16 24
f 25 28 32
f 26 27 28
f 27 26 29
f 26 28 29
f 28 25 30
f 25 29 30
f 29 28 30
f 25 27 31
f 29 25 31
f 27 29 31
f 27 25 32
f 28 27 32
f 37 36 40
f 34 35 36
f 35 34 37
f 34 36 37
f 33 35 38
f 37 33 38
f 35 37 38
f 35 33 39
f 36 35 39
f 33 36 39
f 36 33 40
f 33 37 40
f 45 44 48
f 42 43 44
f 43 42 45
f 42 44 45
f 43 41 46
f 44 43 46
f 41 44 46
f 41 43 47
f 45 41 47
f 43 45 47
f 44 41 48
f 41 45 48
f 51 55 60
f 51 50 52
f 51 52 54
f 52 49 54
f 49 53 55
f 49 52 56
f 53 49 56
f 52 53 56
f 52 50 57
f 53 52 57
f 50 53 57
f 51 54 58
f 55 51 58
f 54 55 58
f 54 49 59
f 49 55 59
f 55 54 59
f 50 51 60
f 53 50 60
f 55 53 60
f 71 65 76
f 63 62 64
f 63 65 66
f 62 63 67
f 63 66 67
f 64 62 68
f 66 65 69
f 67 66 69
f 63 64 70
f 65 63 70
f 64 68 70
f 61 69 71
f 69 65 71
f 68 67 72
f 67 69 72
f 62 67 73
f 68 62 73
f 67 68 73
f 69 61 74
f 68 72 74
f 72 69 74
f 61 71 75
f 71 68 75
f 74 61 75
f 68 74 75
f 65 70 76
f 70 68 76
f 68 71 76
f 78 85 86
f 78 79 80
f 77 80 82
f 81 77 82
f 81 82 83
f 79 78 83
f 78 81 83
f 82 79 83
f 80 79 84
f 79 82 84
f 82 80 84
f 78 80 85
f 80 77 85
f 77 81 85
f 85 81 86
f 81 78 86
f 93 96 99
f 89 88 90
f 87 89 90
f 87 90 91
f 89 87 93
f 87 92 93
f 90 88 94
f 91 90 94
f 91 94 95
f 92 87 95
f 92 95 96
f 88 89 96
f 93 92 96
f 95 88 96
f 87 91 97
f 91 95 97
f 95 87 97
f 94 88 98
f 95 94 98
f 88 95 98
f 89 93 99
f 96 89 99
f 106 107 110
f 101 102 103
f 102 101 104
f 101 103 104
f 100 104 105
f 104 103 105
f 103 102 106
f 105 103 106
f 102 104 107
f 106 102 107
f 100 105 108
f 106 100 108
f 105 106 108
f 104 100 109
f 100 107 109
f 107 104 109
f 100 106 110
f 107 100 110
f 117 113 121
f 112 113 114
f 111 114 115
f 114 113 115
f 113 112 116
f 116 111 117
f 111 115 117
f 115 113 117
f 112 114 118
f 116 112 118
f 116 118 119
f 111 116 119
f 118 111 119
f 114 111 120
f 118 114 120
f 111 118 120
f 113 116 121
f 116 117 121
f 131 130 132
f 123 124 125
f 123 125 126
f 122 126 127
f 126 125 127
f 125 124 128
f 127 125 128
f 126 122 129
f 122 127 130
f 127 128 130
f 129 122 130
f 129 130 131
f 124 123 131
f 123 126 131
f 128 124 131
f 126 129 131
f 128 131 132
f 130 128 132
f 137 133 140
f 134 135 136
f 135 134 125
f 134 136 125
f 136 135 137
f 136 133 138
f 133 125 138
f 125 136 138
f 125 133 139
f 135 125 139
f 137 135 139
f 133 137 139
f 133 136 140
f 136 137 140
f 149 153 154
f 142 143 144
f 142 144 147
f 145 142 147
f 144 143 148
f 141 144 148
f 143 146 149
f 144 141 150
f 147 144 150
f 143 142 151
f 142 145 151
f 146 143 151
f 149 146 151
f 148 143 152
f 143 149 152
f 149 148 152
f 145 147 153
f 150 141 153
f 147 150 153
f 151 145 153
f 149 151 153
f 141 148 154
f 148 149 154
f 153 141 154
f 155 163 166
f 101 156 157
f 101 157 103
f 157 155 103
f 157 156 159
f 155 157 159
f 156 101 160
f 101 103 160
f 159 156 161
f 158 159 161
f 156 160 161
f 160 158 161
f 103 155 162
f 160 103 162
f 160 162 163
f 158 155 164
f 155 159 164
f 159 158 164
f 155 158 165
f 158 160 165
f 160 163 165
f 163 155 165
f 162 155 166
f 163 162 166
f 175 171 176
f 169 168 170
f 170 168 171
f 167 169 172
f 169 170 172
f 170 167 172
f 169 167 173
f 167 171 173
f 167 170 174
f 171 167 174
f 170 171 174
f 168 169 175
f 169 173 175
f 173 171 175
f 171 168 176
f 168 175 176
f 181 186 192
f 179 178 180
f 177 179 180
f 180 178 182
f 179 177 183
f 178 179 184
f 183 177 185
f 182 178 186
f 179 183 187
f 183 184 187
f 184 179 187
f 181 184 188
f 184 183 188
f 185 181 188
f 183 185 188
f 180 182 189
f 185 177 189
f 182 186 189
f 177 180 190
f 189 177 190
f 180 189 190
f 181 185 191
f 186 181 191
f 185 189 191
f 189 186 191
f 184 181 192
f 178 184 192
f 186 178 192
f 204 203 210
f 195 194 196
f 194 195 199
f 196 194 200
f 196 200 201
f 196 201 202
f 195 196 202
f 201 197 204
f 193 203 204
f 198 195 205
f 195 202 205
f 202 198 205
f 202 201 206
f 198 202 206
f 203 198 206
f 201 203 206
f 195 198 207
f 199 195 207
f 197 199 207
f 193 204 207
f 204 197 207
f 194 199 208
f 199 197 208
f 200 194 208
f 197 201 208
f 201 200 208
f 198 203 209
f 203 193 209
f 207 198 209
f 193 207 209
f 203 201 210
f 201 204 210
f 221 213 222
f 213 212 215
f 212 214 215
f 214 211 216
f 215 214 216
f 213 211 217
f 211 214 217
f 211 213 218
f 213 215 218
f 218 215 219
f 216 211 219
f 215 216 219
f 211 218 220
f 218 219 220
f 219 211 220
f 212 213 221
f 214 212 221
f 217 214 221
f 217 221 222
f 213 217 222
f 228 229 233
f 225 224 226
f 226 223 227
f 225 226 227
f 224 225 228
f 226 224 228
f 225 227 229
f 229 228 230
f 228 225 230
f 225 229 230
f 223 226 231
f 228 223 231
f 226 228 231
f 227 223 232
f 223 229 232
f 229 227 232
f 223 228 233
f 229 223 233
f 240 234 241
f 236 235 94
f 94 234 237
f 236 94 237
f 236 237 238
f 235 236 238
f 234 238 239
f 237 234 239
f 238 237 239
f 94 235 240
f 235 238 240
f 238 234 240
f 234 94 241
f 94 240 241
f 247 242 251
f 244 243 245
f 243 244 247
f 247 244 248
f 244 245 248
f 242 247 248
f 245 243 249
f 246 245 249
f 243 246 249
f 246 242 250
f 245 246 250
f 248 245 250
f 242 248 250
f 242 246 251
f 246 243 251
f 243 247 251
f 259 256 260
f 253 254 15
f 255 254 179
f 254 253 179
f 15 254 20
f 255 15 20
f 254 255 20
f 15 255 256
f 179 253 257
f 256 252 257
f 255 179 258
f 252 256 258
f 256 255 258
f 179 257 258
f 257 252 258
f 253 15 259
f 15 256 259
f 257 253 259
f 257 259 260
f 256 257 260
f 265 268 271
f 262 263 264
f 263 262 265
f 261 264 266
f 265 261 266
f 261 265 267
f 265 262 267
f 264 263 268
f 265 266 268
f 266 264 268
f 262 264 269
f 264 261 269
f 261 267 269
f 269 267 270
f 267 262 270
f 262 269 270
f 263 265 271
f 268 263 271
f 276 281 284
f 274 273 275
f 273 274 276
f 274 275 277
f 276 274 278
f 274 277 278
f 276 272 279
f 277 275 280
f 278 277 280
f 279 272 280
f 276 278 281
f 280 272 281
f 278 280 281
f 273 276 282
f 276 279 282
f 282 279 283
f 275 273 283
f 280 275 283
f 279 280 283
f 273 282 283
f 272 276 284
f 281 272 284
f 291 286 293
f 245 249 286
f 245 286 287
f 286 249 288
f 249 245 289
f 245 287 289
f 289 288 290
f 288 249 290
f 249 289 290
f 287 286 291
f 289 287 291
f 289 291 292
f 285 288 292
f 288 289 292
f 291 285 292
f 288 285 293
f 286 288 293
f 285 291 293

