# https://github.com/mikedh/trimesh

o convex_0
v 0.19574200 -0.02724300 -0.09009200
v 0.22310800 0.45008900 0.17139100
v 0.22310800 0.45008900 -0.09314800
v 0.22310800 -0.44995200 0.17139100
v 0.19878500 0.45008900 0.17139100
v 0.22310800 -0.44995200 -0.09314800
v 0.19574200 -0.42863100 0.12576500
v 0.19574200 0.42868000 -0.08097700
v 0.19878500 -0.44986400 -0.09314800
v 0.19878500 -0.44986400 0.17139100
v 0.19574200 0.42868000 0.12576500
v 0.19878500 0.45008900 -0.09314800
v 0.19574200 -0.42863100 -0.08097700
v -0.29380700 -0.39213600 0.05888600
v -0.26644100 -0.41039200 0.12274000
v -0.26644100 -0.41039200 0.09840800
v -0.27252700 0.01527200 0.11665900
v -0.29076200 -0.42562600 0.12274000
v -0.29076200 0.01527200 0.05888600
v -0.27252700 0.01527200 0.05888600
v -0.29076200 0.01527200 0.11665900
v -0.26948700 -0.42256200 0.05888600
v -0.29380700 -0.37081600 0.11665900
v -0.28772100 -0.42256200 0.05888600
v -0.26644100 -0.42562600 0.12274000
v 0.19574200 -0.40738200 0.12578100
v 0.12267700 -0.42562500 0.09537400
v 0.12267700 -0.41042400 0.09537400
v -0.26644100 -0.42562500 0.12273600
v -0.26644100 -0.41042400 0.09841900
v 0.19574200 -0.42866700 0.12578100
v -0.26644100 -0.42562500 0.09841900
v -0.26644100 -0.41042400 0.12273600
v 0.19574200 -0.42866700 0.09841900
v 0.19574200 -0.40738200 0.09841900
v 0.12267700 -0.42866700 0.12578100
v 0.12267700 -0.40738200 0.12578100
v -0.26644100 0.42576300 0.12274000
v -0.29076200 0.42576300 0.12274000
v -0.28772100 0.42266900 0.05888600
v -0.26948700 0.42266900 0.05888600
v -0.29380700 0.39225200 0.05888600
v -0.29380700 0.37099600 0.11665900
v -0.26644100 0.41053500 0.09840800
v 0.19574200 0.42880400 0.12578100
v 0.12267700 0.41056100 0.09537400
v 0.12267700 0.42576200 0.09537400
v -0.26644100 0.41056100 0.12273600
v -0.26644100 0.42576200 0.09841900
v 0.19574200 0.40751900 0.12578100
v -0.26644100 0.41056100 0.09841900
v -0.26644100 0.42576200 0.12273600
v 0.19574200 0.40751900 0.09841900
v 0.19574200 0.42880400 0.09841900
v 0.12267700 0.40751900 0.12578100
v 0.12267700 0.42880400 0.12578100
v -0.26948600 -0.38914600 0.05888600
v -0.29076200 -0.42866700 -0.08097600
v -0.29076200 -0.40129000 -0.08402600
v -0.29380300 -0.37089500 0.05888600
v -0.26644400 -0.36785300 -0.08402600
v -0.26644400 -0.42866700 0.00414700
v -0.28772400 -0.42257700 0.05888600
v -0.26644400 -0.42866700 -0.08097600
v -0.29988900 -0.42866700 -0.03535800
v -0.29076200 -0.36785300 -0.08402600
v -0.27252700 -0.36785300 0.05888600
v -0.29988900 -0.39826000 -0.06575600
v -0.26948600 -0.42257700 0.05888600
v -0.29380300 -0.39218200 0.05888600
v -0.29076500 -0.36785300 -0.08402600
v -0.27252400 0.36799100 0.05888600
v -0.26644400 0.36799100 -0.06575600
v -0.26644400 -0.36785300 -0.06575600
v -0.29076500 -0.36785300 0.05888600
v -0.29076500 0.36799100 -0.08402600
v -0.29076500 0.36799100 0.05888600
v -0.27252600 -0.36785300 0.05888600
v -0.26644400 0.36799100 -0.08402600
v 0.19574200 0.42272300 -0.05666000
v -0.26644100 0.42576300 -0.08098500
v -0.26644100 0.42880400 -0.08098500
v 0.19574200 0.42576300 -0.08098500
v -0.26644100 0.42880400 -0.05666000
v 0.19574200 0.42880400 -0.05666000
v -0.26644100 0.42272300 -0.05666000
v 0.19574200 0.42880400 -0.08098500
v 0.19574200 0.42272300 -0.06578200
v -0.26644100 0.42272300 -0.06578200
v -0.26948600 0.42271400 0.05888600
v -0.29076200 0.36799100 -0.08402600
v -0.29380300 0.37103200 -0.06882000
v -0.29988900 0.42880400 -0.06575600
v -0.26644400 0.42880400 -0.08097600
v -0.27252700 0.36799100 0.05888600
v -0.29380300 0.37103200 0.05888600
v -0.28772400 0.42271400 0.05888600
v -0.26644400 0.42880400 0.00414700
v -0.29988900 0.42880400 -0.03535800
v -0.29988900 0.39839700 -0.06575600
v -0.29076200 0.42880400 -0.08097600
v -0.26948600 0.38928400 0.05888600
v -0.29380300 0.39232000 0.05888600
v -0.26644100 -0.38001600 -0.08402400
v 0.19574200 -0.03946000 -0.06578300
v 0.19574200 -0.38001600 -0.06578300
v 0.19574200 -0.03946000 -0.08402400
v -0.26644100 -0.03946000 -0.06578300
v 0.19574200 -0.38001600 -0.08402400
v -0.26644100 -0.38001600 -0.06578300
v -0.26644100 -0.03946000 -0.08402400
v 0.18660300 -0.02729700 -0.09010700
v 0.19574200 0.38319400 -0.06578600
v 0.16226300 0.38013200 -0.06578400
v 0.19574200 -0.03946000 -0.06578600
v -0.26644100 -0.03946000 -0.06578400
v -0.26644100 0.38319400 -0.08402300
v -0.26644100 -0.03946000 -0.08402300
v 0.19574200 0.38319400 -0.08402600
v -0.26644100 0.38319400 -0.06578400
v 0.19574200 0.02743800 -0.09010700
v 0.19574200 -0.03946000 -0.08402600
v 0.19574200 -0.40434200 -0.02626500
v -0.26644100 -0.42866200 -0.08098500
v 0.12272300 -0.43170800 -0.03841600
v -0.26644100 -0.42866200 0.00415400
v -0.26644100 -0.40434200 -0.06577600
v 0.16832600 -0.40434200 -0.07794300
v 0.19574200 -0.42866200 -0.08098500
v 0.19574200 -0.42866200 0.00415400
v -0.26644100 -0.41042800 0.00415400
v 0.19574200 -0.41042800 0.00415400
v -0.26644100 -0.40434200 -0.02626500
v 0.19574200 -0.43170800 -0.01409700
v 0.19574200 -0.40434200 -0.06577600
v -0.26644100 -0.42562200 -0.08098500
v -0.26644100 -0.40738700 -0.00801300
v 0.19574200 -0.40129900 -0.04754200
v -0.02933300 -0.40433900 -0.09010700
v -0.02933300 -0.38914100 -0.09010700
v -0.26644100 -0.40129900 -0.04754200
v -0.26644100 -0.38001900 -0.06578700
v 0.19574200 -0.38001900 -0.08402000
v -0.26644100 -0.40129900 -0.08402000
v 0.19574200 -0.38001900 -0.06578700
v 0.19574200 -0.40129900 -0.08402000
v -0.26644100 -0.38001900 -0.08402000
v -0.26644100 -0.40433900 -0.04754200
v 0.19574200 -0.40433900 -0.04754200
v 0.14706200 -0.38305900 -0.08706100
v 0.16837100 -0.40433900 -0.07794100
v -0.26644100 -0.40433900 -0.06578700
v 0.19574200 0.41056100 0.00415400
v -0.26644100 0.40143800 -0.05666000
v -0.26644100 0.40143800 -0.04753400
v -0.26644100 0.42880300 -0.05666000
v 0.19574200 0.40143800 -0.05666000
v 0.19574200 0.43184500 -0.03840800
v -0.26644100 0.42880300 0.00415400
v -0.26644100 0.41056100 0.00415400
v 0.19574200 0.42880300 0.00415400
v 0.19574200 0.42880300 -0.05666000
v 0.19574200 0.40448000 -0.02625300
v 0.12272300 0.43184500 -0.01409100
v -0.26644100 0.40752500 -0.00801300
v 0.19574200 0.40143800 -0.04753400
v -0.05358200 0.38319800 -0.08706200
v 0.19574200 0.42271900 -0.05666300
v 0.19574200 0.39840100 -0.05666300
v -0.26644100 0.42271900 -0.05666300
v -0.26644100 0.38319800 -0.06578700
v -0.02933300 0.40447500 -0.09010400
v 0.19574200 0.38319800 -0.08402100
v -0.26644100 0.40144200 -0.08402100
v 0.17746400 0.41967800 -0.07186600
v 0.19574200 0.38319800 -0.06578700
v -0.26644100 0.42271900 -0.06578700
v -0.26644100 0.39840100 -0.05666300
v -0.26644100 0.38319800 -0.08402100
v 0.19574200 0.40144200 -0.08402100
v -0.00806900 0.38927900 -0.09010400
v 0.19574200 0.42271900 -0.06578700
v 0.14706200 0.38319800 -0.08706200
f 9 7 13
f 3 2 4
f 2 3 5
f 4 2 5
f 3 4 6
f 1 7 8
f 3 6 9
f 6 4 9
f 7 9 10
f 4 5 10
f 5 7 10
f 9 4 10
f 7 5 11
f 5 8 11
f 8 7 11
f 5 3 12
f 8 5 12
f 1 8 12
f 9 1 12
f 3 9 12
f 7 1 13
f 1 9 13
f 18 22 25
f 15 16 17
f 17 16 20
f 14 19 20
f 19 17 20
f 15 17 21
f 18 15 21
f 17 19 21
f 14 20 22
f 20 16 22
f 14 18 23
f 19 14 23
f 18 21 23
f 21 19 23
f 18 14 24
f 14 22 24
f 22 18 24
f 16 15 25
f 15 18 25
f 22 16 25
f 33 36 37
f 28 27 30
f 29 30 32
f 30 27 32
f 30 29 33
f 27 28 34
f 26 31 34
f 32 27 34
f 28 30 35
f 26 34 35
f 34 28 35
f 31 26 36
f 29 32 36
f 33 29 36
f 34 31 36
f 32 34 36
f 30 33 37
f 26 35 37
f 35 30 37
f 36 26 37
f 20 41 44
f 39 38 40
f 38 39 17
f 19 40 20
f 17 19 20
f 40 38 41
f 20 40 41
f 19 17 21
f 17 39 21
f 39 40 42
f 40 19 42
f 19 21 43
f 21 39 43
f 39 42 43
f 42 19 43
f 38 17 44
f 17 20 44
f 41 38 44
f 52 55 56
f 47 46 49
f 48 49 51
f 49 46 51
f 49 48 52
f 46 47 53
f 45 50 53
f 51 46 53
f 47 49 54
f 45 53 54
f 53 47 54
f 50 45 55
f 48 51 55
f 52 48 55
f 53 50 55
f 51 53 55
f 49 52 56
f 45 54 56
f 54 49 56
f 55 45 56
f 65 63 70
f 61 57 62
f 57 60 63
f 58 59 64
f 59 61 64
f 62 58 64
f 61 62 64
f 58 62 65
f 62 63 65
f 61 59 66
f 60 57 67
f 57 61 67
f 66 60 67
f 61 66 67
f 59 58 68
f 58 65 68
f 65 60 68
f 60 66 68
f 66 59 68
f 62 57 69
f 57 63 69
f 63 62 69
f 63 60 70
f 60 65 70
f 71 79 61
f 73 72 74
f 71 74 75
f 72 73 76
f 71 75 76
f 75 72 77
f 72 76 77
f 76 75 77
f 74 72 78
f 75 74 78
f 72 75 78
f 73 74 79
f 71 76 79
f 76 73 79
f 74 71 61
f 79 74 61
f 81 88 89
f 81 82 83
f 82 81 84
f 82 84 85
f 80 83 85
f 84 80 85
f 80 84 86
f 84 81 86
f 83 82 87
f 82 85 87
f 85 83 87
f 81 83 88
f 83 80 88
f 80 86 88
f 88 86 89
f 86 81 89
f 99 96 103
f 95 90 96
f 92 91 96
f 91 95 96
f 91 94 79
f 95 91 79
f 96 90 97
f 94 93 98
f 79 94 98
f 97 90 98
f 97 98 99
f 98 93 99
f 96 99 100
f 91 92 100
f 93 91 100
f 92 96 100
f 99 93 100
f 91 93 101
f 93 94 101
f 94 91 101
f 90 95 102
f 95 79 102
f 98 90 102
f 79 98 102
f 96 97 103
f 97 99 103
f 108 107 111
f 105 106 107
f 106 105 108
f 105 107 108
f 106 104 109
f 107 106 109
f 104 107 109
f 104 106 110
f 108 104 110
f 106 108 110
f 107 104 111
f 104 108 111
f 121 115 122
f 113 114 115
f 115 114 116
f 117 112 118
f 115 116 118
f 116 117 118
f 113 115 119
f 117 113 119
f 114 113 120
f 116 114 120
f 117 116 120
f 113 117 120
f 112 117 121
f 119 115 121
f 117 119 121
f 118 112 122
f 115 118 122
f 112 121 122
f 133 131 137
f 124 125 126
f 124 126 127
f 127 123 128
f 125 124 129
f 129 123 130
f 127 126 131
f 126 130 131
f 131 130 132
f 130 123 132
f 123 127 133
f 127 131 133
f 126 125 134
f 125 129 134
f 130 126 134
f 129 130 134
f 128 123 135
f 123 129 135
f 129 128 135
f 124 127 136
f 127 128 136
f 129 124 136
f 128 129 136
f 131 132 137
f 132 123 137
f 123 133 137
f 148 144 152
f 141 138 142
f 140 139 144
f 141 142 144
f 142 138 145
f 138 143 145
f 143 142 145
f 143 138 146
f 142 143 147
f 140 144 147
f 144 142 147
f 138 141 148
f 141 144 148
f 146 138 149
f 148 139 149
f 138 148 149
f 139 140 150
f 146 139 150
f 143 146 150
f 140 147 150
f 147 143 150
f 139 146 151
f 149 139 151
f 146 149 151
f 144 139 152
f 139 148 152
f 163 155 166
f 154 155 156
f 155 154 157
f 154 156 157
f 153 157 158
f 156 155 159
f 153 159 160
f 159 155 160
f 153 158 161
f 159 153 161
f 157 156 162
f 156 158 162
f 158 157 162
f 157 153 163
f 158 156 164
f 156 159 164
f 161 158 164
f 159 161 164
f 153 160 165
f 160 155 165
f 163 153 165
f 155 163 165
f 155 157 166
f 157 163 166
f 181 172 183
f 169 168 170
f 168 169 173
f 171 167 173
f 171 170 174
f 169 171 176
f 173 169 176
f 171 173 176
f 170 168 177
f 174 170 177
f 172 174 177
f 175 172 177
f 169 170 178
f 170 171 178
f 171 169 178
f 167 171 179
f 171 174 179
f 174 172 179
f 168 173 180
f 172 175 180
f 167 179 181
f 179 172 181
f 177 168 182
f 175 177 182
f 168 180 182
f 180 175 182
f 173 167 183
f 180 173 183
f 172 180 183
f 167 181 183

