# https://github.com/mikedh/trimesh

o convex_0
v 0.18573400 -0.40037500 -0.04026600
v 0.21865100 0.44995900 0.08316800
v 0.21865100 0.44995900 -0.04850200
v 0.21865100 -0.44969600 -0.04850200
v 0.21865100 -0.44969600 0.08316800
v 0.18573400 0.42794100 0.04750500
v 0.19670500 -0.44978400 0.08316800
v 0.18573400 0.43067200 -0.03752100
v 0.18573400 -0.42776600 0.04750500
v 0.19670900 0.44987100 0.08316800
v 0.19670500 -0.44978400 -0.04850200
v 0.19670900 0.44987100 -0.04850200
v 0.18573400 0.02466000 -0.04575700
v 0.18573400 -0.43049600 -0.03752100
v 0.18573400 0.40046300 -0.04026600
v -0.27237000 -0.40863100 0.04201700
v -0.29430700 -0.43057700 -0.03752300
v -0.29430700 -0.40041100 -0.04027300
v -0.29705100 -0.38670100 0.04750700
v -0.27237000 -0.38121100 -0.04027300
v -0.27237000 -0.43057700 -0.03752300
v -0.29156700 -0.42783200 0.04750700
v -0.27511400 -0.38121100 0.04750700
v -0.30253800 -0.43057700 0.00087600
v -0.29430700 -0.38121100 -0.04027300
v -0.27237000 -0.42783200 0.04750700
v -0.30253800 -0.40041100 -0.02106900
v -0.29430700 -0.38121100 0.04750700
v -0.30253800 -0.43057700 -0.02106900
v -0.29431200 -0.38120600 -0.04027300
v -0.27511300 0.38412500 0.04750700
v -0.27236800 0.38412500 -0.02106900
v -0.29431200 0.38412500 -0.04027300
v -0.29431200 -0.38120600 0.04750700
v -0.27236800 -0.38120600 -0.04027300
v -0.27511300 -0.38120600 0.04750700
v -0.29431200 0.38412500 0.04750700
v -0.27236800 0.38412500 -0.04027300
v -0.27236800 -0.38120600 -0.02106900
v -0.27236700 -0.38120600 -0.04027100
v 0.18573400 -0.02734300 -0.02107300
v 0.18573400 -0.38120600 -0.02107300
v 0.18573400 -0.02734300 -0.04027100
v -0.27236700 -0.02734300 -0.02107300
v 0.18573400 -0.38120600 -0.04027100
v -0.27236700 -0.38120600 -0.02107300
v -0.27236700 -0.02734300 -0.04027100
v 0.18568900 0.43075200 0.03926700
v -0.27236700 0.42526400 -0.03752700
v -0.27236700 0.40881400 -0.02107100
v -0.27232200 0.42801100 0.04750700
v 0.18568900 0.40332900 0.00635500
v 0.18573400 0.43075500 -0.03752700
v -0.27232200 0.40881700 0.04201400
v 0.18568900 0.41155800 0.04750700
v 0.17474800 0.40881400 -0.02654800
v -0.27236700 0.43075500 -0.03752700
v -0.27232200 0.40332900 -0.01009200
v 0.18568900 0.42801100 0.04750700
v 0.18568900 0.40332900 -0.01009200
v -0.27232200 0.43075200 -0.00186000
v -0.27232200 0.41155800 0.04750700
v -0.27232200 0.40332900 0.00635500
v 0.18568900 0.40881700 0.04201400
v 0.18573400 0.42526400 -0.03752700
v 0.11986200 0.43075200 0.03926700
v 0.18568900 0.40607300 0.02555800
v 0.14456900 -0.02182500 -0.04301600
v 0.18573400 0.38412500 -0.02107100
v 0.18573400 -0.02734300 -0.02107100
v -0.27236700 0.38412500 -0.02107300
v -0.27236700 0.38412500 -0.04027100
v 0.18573400 0.38412500 -0.04027300
v 0.18573400 -0.02456400 -0.04301600
v 0.18573400 0.02481500 -0.04301600
v 0.18573400 -0.02734300 -0.04027300
v -0.27237000 0.42801400 0.04750700
v -0.29430700 0.38412500 -0.04027300
v -0.29705100 0.38686800 -0.02381000
v -0.30253800 0.43075800 -0.02106900
v -0.27237000 0.43075800 -0.03752300
v -0.27511400 0.38412500 0.04750700
v -0.29705100 0.38686800 0.04750700
v -0.27237000 0.38412500 -0.04027300
v -0.29156700 0.42801400 0.04750700
v -0.29430700 0.43075800 -0.03752300
v -0.30253800 0.40058900 0.00909100
v -0.30253800 0.42801400 0.00909100
v -0.30253800 0.40058900 -0.02106900
v 0.18573400 -0.40589500 0.02555700
v -0.27236700 -0.43057900 -0.03753000
v -0.27236700 -0.43057900 -0.00186200
v -0.27236700 -0.40315100 -0.01009400
v 0.18573400 -0.43057900 -0.03753000
v -0.27236700 -0.42783300 0.04750700
v 0.18573400 -0.43057900 0.03927500
v 0.17470300 -0.40589500 -0.02655000
v -0.27236700 -0.41138500 0.04750700
v 0.18573400 -0.41138500 0.04750700
v -0.27236700 -0.40589500 -0.02106500
v 0.18573400 -0.40315100 -0.01009400
v -0.27236700 -0.40315100 0.00635400
v -0.27236700 -0.42509100 -0.03753000
v 0.18573400 -0.42783300 0.04750700
v -0.27236700 -0.40864100 0.04201300
v 0.18573400 -0.42509100 -0.03753000
v 0.18573400 -0.40315100 0.00635400
v 0.18573400 -0.40864100 0.04201300
v 0.11981700 -0.43057900 0.03927500
v 0.18573400 0.40058200 -0.01009800
v -0.03372000 0.38961300 -0.04575900
v -0.03372000 0.40606700 -0.04575900
v -0.27236700 0.40058200 -0.01009800
v 0.18573400 0.38412500 -0.04027200
v 0.18573400 0.40881300 -0.02107300
v -0.27236700 0.38412500 -0.04027200
v -0.27236700 0.40881300 -0.01009800
v 0.18573400 0.38412500 -0.02107300
v -0.27236700 0.40058200 -0.04027200
v 0.18573400 0.40058200 -0.04027200
v 0.18573400 0.40881300 -0.01009800
v -0.27236700 0.40881300 -0.02107300
v 0.14452500 0.38412500 -0.04301200
v 0.17474800 0.40881300 -0.02656400
v -0.00905800 0.40606700 -0.04575900
v 0.18573400 -0.40040600 -0.01009800
v -0.03372000 -0.40589400 -0.04575900
v -0.03372000 -0.38943700 -0.04575900
v -0.27236700 -0.40589400 -0.01009800
v 0.18573400 -0.38120600 -0.04027200
v -0.27236700 -0.38120600 -0.04027200
v 0.16376200 -0.40589400 -0.03204100
v -0.27236700 -0.40040600 -0.04027200
v 0.18573400 -0.40589400 -0.01009800
v 0.18573400 -0.40040600 -0.04027200
v -0.27236700 -0.40040600 -0.01009800
v 0.14452500 -0.38395100 -0.04301200
v -0.27236700 -0.40589400 -0.02107300
v -0.00905800 -0.40589400 -0.04575900
f 13 8 15
f 3 2 4
f 4 2 5
f 4 5 7
f 5 2 7
f 1 6 8
f 6 1 9
f 7 6 9
f 2 3 10
f 7 2 10
f 6 7 10
f 8 6 10
f 3 4 11
f 4 7 11
f 10 3 12
f 8 10 12
f 3 11 12
f 12 11 13
f 1 8 13
f 11 1 13
f 9 1 14
f 7 9 14
f 11 7 14
f 1 11 14
f 8 12 15
f 12 13 15
f 24 27 29
f 18 20 21
f 17 18 21
f 20 16 21
f 19 22 23
f 16 20 23
f 17 21 24
f 22 19 24
f 20 18 25
f 23 20 25
f 21 16 26
f 23 22 26
f 16 23 26
f 24 21 26
f 22 24 26
f 24 19 27
f 25 18 27
f 19 25 27
f 19 23 28
f 25 19 28
f 23 25 28
f 18 17 29
f 17 24 29
f 27 18 29
f 36 35 39
f 31 32 33
f 33 30 34
f 30 33 35
f 34 30 35
f 32 31 36
f 31 34 36
f 34 35 36
f 31 33 37
f 33 34 37
f 34 31 37
f 33 32 38
f 32 35 38
f 35 33 38
f 35 32 39
f 32 36 39
f 44 43 47
f 41 42 43
f 42 41 44
f 41 43 44
f 42 40 45
f 43 42 45
f 40 43 45
f 40 42 46
f 44 40 46
f 42 44 46
f 43 40 47
f 40 44 47
f 52 65 67
f 50 49 56
f 49 50 57
f 50 51 57
f 53 49 57
f 48 53 57
f 50 56 58
f 48 51 59
f 53 48 59
f 51 55 59
f 55 53 59
f 52 58 60
f 58 56 60
f 57 51 61
f 51 50 62
f 50 54 62
f 54 55 62
f 55 51 62
f 54 50 63
f 50 58 63
f 58 52 63
f 55 54 64
f 55 64 65
f 49 53 65
f 53 55 65
f 56 49 65
f 52 60 65
f 60 56 65
f 51 48 66
f 48 57 66
f 61 51 66
f 57 61 66
f 54 63 67
f 63 52 67
f 64 54 67
f 65 64 67
f 47 74 76
f 70 69 71
f 70 71 44
f 71 69 72
f 44 71 72
f 69 70 73
f 72 69 73
f 70 44 47
f 72 68 47
f 44 72 47
f 73 70 74
f 47 68 74
f 68 72 75
f 72 73 75
f 74 68 75
f 73 74 75
f 70 47 76
f 74 70 76
f 87 80 89
f 80 77 81
f 82 77 83
f 79 78 83
f 78 82 83
f 81 77 84
f 78 81 84
f 82 78 84
f 77 82 84
f 77 80 85
f 83 77 85
f 78 80 86
f 80 81 86
f 81 78 86
f 79 83 87
f 85 80 88
f 83 85 88
f 80 87 88
f 87 83 88
f 78 79 89
f 80 78 89
f 79 87 89
f 96 95 109
f 91 92 93
f 92 91 94
f 93 92 95
f 94 90 96
f 92 94 96
f 93 95 98
f 96 90 99
f 98 95 99
f 91 93 100
f 93 97 100
f 90 94 101
f 97 93 101
f 93 98 102
f 101 93 102
f 94 91 103
f 91 100 103
f 100 97 103
f 95 96 104
f 96 99 104
f 99 95 104
f 98 99 105
f 90 102 105
f 102 98 105
f 101 94 106
f 97 101 106
f 94 103 106
f 103 97 106
f 90 101 107
f 102 90 107
f 101 102 107
f 99 90 108
f 90 105 108
f 105 99 108
f 95 92 109
f 92 96 109
f 124 120 125
f 110 113 71
f 110 114 115
f 112 111 116
f 71 113 116
f 114 71 116
f 113 110 117
f 116 113 117
f 110 71 118
f 114 110 118
f 71 114 118
f 112 116 119
f 116 117 119
f 115 114 120
f 110 115 121
f 117 110 121
f 115 117 121
f 117 115 122
f 112 119 122
f 119 117 122
f 116 111 123
f 114 116 123
f 120 114 123
f 115 120 124
f 112 122 124
f 122 115 124
f 111 112 125
f 123 111 125
f 120 123 125
f 112 124 125
f 137 135 139
f 46 130 131
f 128 127 131
f 129 46 131
f 46 126 42
f 126 130 42
f 130 46 42
f 129 127 132
f 131 127 133
f 129 131 133
f 126 129 134
f 130 126 134
f 129 132 134
f 134 132 135
f 130 134 135
f 129 126 136
f 126 46 136
f 46 129 136
f 131 130 137
f 128 131 137
f 130 135 137
f 127 129 138
f 133 127 138
f 129 133 138
f 127 128 139
f 132 127 139
f 135 132 139
f 128 137 139

