# https://github.com/mikedh/trimesh

o convex_0
v -0.43000600 0.28270900 -0.46031500
v -0.44958400 -0.24601400 -1.06732300
v -0.46263800 0.28270900 -1.06732300
v -0.43000600 0.30883200 -1.06732300
v -0.46263800 0.30883200 -0.46031500
v -0.43653300 -0.24601400 -0.46031500
v -0.43000600 -0.24601400 -1.06732300
v -0.44958400 -0.24601400 -0.46031500
v -0.46263800 0.30883200 -1.06732300
v -0.43000600 0.30883200 -0.46031500
v -0.46263800 0.28270900 -0.46031500
v -0.43648400 0.27619800 -0.46025500
v 0.09867800 0.30882900 1.06720500
v -0.46258600 0.30882900 1.06720500
v 0.09867800 0.27619800 1.06720500
v 0.09867800 0.30882900 -0.46025500
v -0.46258600 0.30882900 -0.46025500
v -0.44956300 0.27619800 1.06720500
v 0.09867800 0.27619800 -0.28397500
v 0.09867800 0.28272600 -0.46025500
v -0.46258600 0.28272600 -0.46025500
v -0.46258600 0.28272600 1.06720500
v -0.44956300 0.27619800 -0.46025500
v -0.43000600 -0.24601400 1.06720500
v -0.46263800 -0.29823000 -1.06732300
v -0.46263800 -0.27864400 -1.06732300
v -0.43000600 -0.29823000 -1.06732300
v -0.46263800 -0.29823000 1.06720500
v -0.43000600 -0.29823000 1.06720500
v -0.44958300 -0.24601400 1.06720500
v -0.44958300 -0.24601400 -1.06732300
v -0.46263800 -0.27864400 1.06720500
v 0.06607600 -0.24601400 -1.01509300
v -0.42995100 -0.29823000 -1.06732300
v -0.42995100 -0.29823000 -0.76705300
v 0.09868200 -0.29823000 -1.06732300
v -0.42995100 -0.24601400 -1.06732300
v 0.09868200 -0.27864400 -0.76705300
v -0.42995100 -0.27864400 -0.76705300
v 0.09868200 -0.29823000 -0.76705300
v 0.09868200 -0.24601400 -1.06732300
v -0.41038700 -0.24601400 -1.02161800
v -0.42995100 -0.24601400 1.04762200
v 0.09868200 0.27619400 1.06720500
v 0.09868200 -0.24601400 1.06720500
v 0.09868200 0.27619400 1.04762200
v -0.42995100 0.27619400 1.06720500
v -0.42995100 0.27619400 1.04762200
v -0.42995100 -0.24601400 1.06720500
v 0.09868200 -0.24601400 1.04762200
v 0.11178900 -0.25254600 0.99539600
v -0.43000300 -0.29823000 0.94318000
v -0.43000300 -0.29823000 1.04109400
v 0.09868900 -0.29823000 0.94318000
v 0.09868900 -0.29823000 1.04109400
v 0.08564300 -0.24601400 0.94972600
v -0.43000300 -0.27864400 1.04109400
v -0.43000300 -0.27864400 0.94318000
v 0.09868900 -0.24601400 1.01496700
v 0.09868900 -0.27864400 1.04109400
v 0.09868900 -0.27864400 0.94318000
v 0.09868200 0.25008400 -1.04774000
v 0.09868200 -0.24601400 -1.04774000
v 0.09868200 0.25008400 -1.06732300
v -0.42995100 0.25008400 -1.04774000
v -0.42995100 -0.24601400 -1.04774000
v -0.42995100 0.25008400 -1.06732300
v -0.41036700 -0.27212500 -0.53204400
v 0.09873300 -0.27865200 0.01626000
v 0.09873300 -0.29823500 0.01626000
v 0.09873300 -0.29823500 -0.76705300
v -0.42998200 -0.29823500 0.01626000
v -0.42998200 -0.29823500 -0.76705300
v 0.09873300 -0.27865200 -0.76705300
v -0.42998200 -0.27865200 0.01626000
v 0.09873300 -0.27212500 -0.26444800
v -0.42998200 -0.27865200 -0.76705300
v -0.42998200 -0.27212500 -0.26444800
v 0.09216100 -0.27212500 -0.53204400
v 0.09868200 -0.27865200 0.25775800
v -0.42995100 -0.29823500 0.01628400
v -0.42995100 -0.27865200 0.01628400
v -0.42995100 -0.29823500 0.25775800
v 0.09868200 -0.29823500 0.01628400
v 0.09868200 -0.29823500 0.25775800
v 0.09868200 -0.27865200 0.01628400
v -0.42995100 -0.27865200 0.25775800
v -0.42995100 -0.24601400 0.26430900
v 0.09868200 0.27619400 0.28389200
v 0.09868200 -0.24601400 0.28389200
v 0.09868200 0.27619400 0.26430900
v -0.42995100 0.27619400 0.28389200
v -0.42995100 0.27619400 0.26430900
v -0.42995100 -0.24601400 0.28389200
v 0.09868200 -0.24601400 0.26430900
v 0.09868200 -0.24601400 0.67553400
v -0.42995100 -0.29823000 0.48624800
v -0.42995100 -0.27864400 0.48624800
v -0.42995100 -0.29823000 0.70165900
v 0.09868200 -0.29823000 0.48624800
v 0.09868200 -0.29823000 0.70165900
v -0.42995100 -0.24601400 0.67553400
v 0.09868200 -0.27864400 0.48624800
v -0.42995100 -0.24601400 0.65592400
v -0.42995100 -0.27864400 0.70165900
v 0.09868200 -0.24601400 0.65592400
v 0.09868200 -0.27864400 0.70165900
v -0.42995100 -0.29823000 1.04109400
v 0.09868200 -0.24601400 1.04762700
v 0.09868200 -0.29823000 1.04109400
v 0.09868200 -0.29823000 1.06720500
v -0.42995100 -0.29823000 1.06720500
v -0.42995100 -0.24601400 1.04762700
v -0.42995100 -0.27864400 1.04109400
v 0.09868200 0.30883200 -0.96290200
v -0.42995100 0.25008400 -1.04772700
v -0.42995100 0.30883200 -1.06732300
v -0.42995100 0.28271900 -0.96290200
v 0.09868200 0.30883200 -1.06732300
v 0.06603000 0.25008400 -1.02161900
v -0.42995100 0.30883200 -0.96290200
v 0.09868200 0.28271900 -0.96290200
v -0.39730000 0.25008400 -1.02161900
v 0.09216000 0.25661700 -0.51255500
v -0.42995100 0.28271900 -0.96288100
v -0.39734500 0.25008400 -0.52559300
v -0.42995100 0.30883200 -0.46025500
v 0.09868200 0.30883200 -0.96288100
v 0.09868200 0.30883200 -0.46025500
v 0.09868200 0.28271900 -0.96288100
v -0.42995100 0.30883200 -0.96288100
v 0.06607600 0.25008400 -0.50596200
v -0.42995100 0.28271900 -0.46025500
v 0.09868200 0.28271900 -0.46025500
v 0.06607600 0.25008400 -0.52559300
v -0.39734500 0.25008400 -0.50596200
v -0.41038700 0.25661700 -0.50596200
v -0.43653400 -0.24601400 -0.46025500
v -0.43653400 0.27619400 -0.17956800
v -0.44958600 0.27619400 -0.17956800
v -0.43653400 -0.24601400 -0.17956800
v -0.44958600 0.27619400 -0.46025500
v -0.44958600 -0.24601400 -0.17956800
v -0.43000300 0.27619400 -0.28402900
v -0.44958600 -0.24601400 -0.46025500
v -0.43653400 0.27619400 -0.46025500
v -0.43000300 -0.24601400 -0.26443900
v 0.09868200 0.27619400 -0.26442700
v -0.42995100 -0.27212200 -0.28401000
v 0.09868200 -0.27212200 -0.28401000
v -0.42995100 -0.27212200 -0.26442700
v -0.42995100 0.27619400 -0.28401000
v 0.09868200 -0.27212200 -0.26442700
v 0.09868200 0.27619400 -0.28401000
v -0.42995100 0.27619400 -0.26442700
v -0.43000300 0.27619400 1.06708300
v -0.44305700 -0.24601400 -0.17944600
v -0.44958600 -0.24596300 -0.17944600
v -0.44305700 -0.24601400 1.06708300
v -0.44958600 0.27619400 1.06708300
v -0.43653200 0.27619400 -0.17944600
v -0.43000300 -0.24601400 0.26445300
v -0.44958600 0.27619400 -0.17944600
v -0.43000300 -0.24601400 1.06708300
v -0.44958600 -0.24596300 1.06708300
v -0.43000300 0.27619400 0.26445300
v -0.43653200 -0.24601400 -0.17944600
v 0.05299300 -0.25254400 -0.49290000
v -0.41042000 -0.27212200 -0.53205900
v -0.41042000 -0.27212200 -0.52552500
v -0.41042000 -0.24601700 -0.53205900
v 0.09220600 -0.27212200 -0.53205900
v -0.37770200 -0.26559300 -0.48637500
v 0.09220600 -0.24601700 -0.53205900
v -0.41042000 -0.24601700 -0.50595400
v -0.22759300 -0.27212200 -0.49942500
v 0.06608100 -0.26559300 -0.49942500
v -0.37770200 -0.25254400 -0.48637500
v 0.06608100 -0.24601700 -0.49942500
v -0.42995100 -0.24601400 0.65596600
v 0.09868200 0.27619400 0.67554800
v 0.09868200 -0.24601400 0.67554800
v 0.09868200 0.27619400 0.65596600
v -0.42995100 0.27619400 0.67554800
v -0.42995100 0.27619400 0.65596600
v -0.42995100 -0.24601400 0.67554800
v 0.09868200 -0.24601400 0.65596600
v -0.42995100 -0.29823000 0.25778100
v 0.09868200 -0.24601400 0.28388900
v 0.09868200 -0.24601400 0.26431000
v -0.42995100 -0.24601400 0.28388900
v 0.09868200 -0.29823000 0.29694700
v 0.09868200 -0.29823000 0.25778100
v -0.42995100 -0.29823000 0.29694700
v -0.42995100 -0.24601400 0.26431000
v -0.42995100 -0.27864400 0.29694700
v 0.09868200 -0.27864400 0.25778100
v 0.09868200 -0.27864400 0.29694700
v 0.11178900 -0.25254600 0.32961500
v -0.43000300 -0.29823000 0.29694700
v -0.43000300 -0.29823000 0.48624800
v 0.09868900 -0.29823000 0.29694700
v 0.09868900 -0.29823000 0.48624800
v -0.43000300 -0.27864400 0.48624800
v -0.43000300 -0.27864400 0.29694700
v 0.08564300 -0.24601400 0.37531000
v 0.09868900 -0.27864400 0.48624800
v 0.08564300 -0.24601400 0.31655200
v 0.09868900 -0.27864400 0.29694700
v 0.11178900 -0.29169800 0.36224600
v 0.09868200 -0.27865200 0.94313300
v -0.42995100 -0.29823500 0.70170600
v -0.42995100 -0.27865200 0.70170600
v 0.09868200 -0.29823500 0.70170600
v -0.42995100 -0.29823500 0.94313300
v -0.42995100 -0.27865200 0.94313300
v 0.09868200 -0.27865200 0.70170600
v 0.09868200 -0.29823500 0.94313300
f 8 5 11
f 2 3 4
f 1 5 6
f 2 4 7
f 4 1 7
f 6 2 7
f 1 6 7
f 3 2 8
f 2 6 8
f 6 5 8
f 4 3 9
f 5 4 9
f 3 5 9
f 1 4 10
f 5 1 10
f 4 5 10
f 5 3 11
f 3 8 11
f 18 21 23
f 13 14 15
f 14 13 16
f 13 15 16
f 16 12 17
f 14 16 17
f 15 14 18
f 12 15 18
f 15 12 19
f 16 15 19
f 16 19 20
f 12 16 20
f 19 12 20
f 17 12 21
f 14 17 21
f 21 18 22
f 18 14 22
f 14 21 22
f 12 18 23
f 21 12 23
f 30 26 32
f 25 26 27
f 26 25 28
f 25 27 28
f 27 26 7
f 24 27 7
f 27 24 29
f 24 28 29
f 28 27 29
f 28 24 30
f 24 7 30
f 30 7 31
f 7 26 31
f 26 30 31
f 26 28 32
f 28 30 32
f 37 39 42
f 35 34 36
f 34 35 37
f 36 34 37
f 37 35 39
f 35 38 39
f 38 33 39
f 35 36 40
f 38 35 40
f 36 38 40
f 37 33 41
f 36 37 41
f 38 36 41
f 33 38 41
f 33 37 42
f 39 33 42
f 43 46 50
f 44 45 46
f 45 44 47
f 44 46 47
f 46 43 48
f 43 47 48
f 47 46 48
f 43 45 49
f 47 43 49
f 45 47 49
f 45 43 50
f 46 45 50
f 54 58 61
f 53 52 54
f 54 51 55
f 53 54 55
f 52 53 57
f 53 55 57
f 57 56 58
f 54 52 58
f 52 57 58
f 51 56 59
f 56 57 59
f 59 57 60
f 55 51 60
f 57 55 60
f 51 59 60
f 51 54 61
f 56 51 61
f 58 56 61
f 65 64 67
f 62 63 64
f 63 62 65
f 62 64 65
f 63 37 41
f 64 63 41
f 37 64 41
f 37 63 66
f 65 37 66
f 63 65 66
f 64 37 67
f 37 65 67
f 68 76 79
f 69 70 71
f 70 69 72
f 71 70 72
f 71 72 73
f 69 71 74
f 71 73 74
f 72 69 75
f 73 72 75
f 69 74 76
f 75 69 76
f 68 74 77
f 74 73 77
f 73 75 77
f 77 75 78
f 76 68 78
f 75 76 78
f 68 77 78
f 74 68 79
f 76 74 79
f 83 80 87
f 82 81 83
f 81 82 84
f 83 81 84
f 80 83 85
f 84 80 85
f 83 84 85
f 82 80 86
f 80 84 86
f 84 82 86
f 80 82 87
f 82 83 87
f 88 91 95
f 89 90 91
f 90 89 92
f 89 91 92
f 91 88 93
f 88 92 93
f 92 91 93
f 88 90 94
f 92 88 94
f 90 92 94
f 90 88 95
f 91 90 95
f 105 101 107
f 98 97 99
f 97 98 100
f 99 97 100
f 100 96 101
f 99 100 101
f 98 99 102
f 96 100 103
f 100 98 103
f 102 96 104
f 98 102 104
f 103 98 104
f 99 101 105
f 96 102 105
f 102 99 105
f 96 103 106
f 104 96 106
f 103 104 106
f 101 96 107
f 96 105 107
f 113 109 114
f 109 45 110
f 108 110 111
f 110 45 111
f 111 45 49
f 45 109 49
f 108 111 112
f 111 49 112
f 49 108 112
f 108 49 113
f 49 109 113
f 109 110 114
f 110 108 114
f 108 113 114
f 120 118 123
f 67 116 117
f 116 67 64
f 67 117 64
f 117 116 118
f 117 115 119
f 115 64 119
f 64 117 119
f 116 64 120
f 115 117 121
f 117 118 121
f 118 115 121
f 64 115 122
f 115 118 122
f 120 64 122
f 118 120 122
f 118 116 123
f 116 120 123
f 126 136 137
f 128 127 129
f 128 129 130
f 126 125 130
f 125 128 130
f 125 127 131
f 127 128 131
f 128 125 131
f 127 125 133
f 129 127 133
f 133 132 134
f 130 129 134
f 124 130 134
f 132 124 134
f 129 133 134
f 130 124 135
f 126 130 135
f 132 126 135
f 124 132 135
f 126 132 136
f 132 133 136
f 136 133 137
f 125 126 137
f 133 125 137
f 138 144 147
f 139 140 141
f 140 139 142
f 141 140 143
f 138 141 143
f 140 142 143
f 142 139 144
f 142 138 145
f 138 143 145
f 143 142 145
f 138 142 146
f 144 138 146
f 142 144 146
f 139 141 147
f 141 138 147
f 144 139 147
f 152 151 155
f 149 150 151
f 150 149 152
f 149 151 152
f 150 148 153
f 151 150 153
f 148 151 153
f 148 150 154
f 152 148 154
f 150 152 154
f 151 148 155
f 148 152 155
f 162 157 167
f 158 157 159
f 159 156 160
f 157 158 161
f 160 156 161
f 159 157 162
f 158 160 163
f 161 158 163
f 160 161 163
f 156 159 164
f 162 156 164
f 159 162 164
f 158 159 165
f 159 160 165
f 160 158 165
f 161 156 166
f 156 162 166
f 162 161 166
f 157 161 167
f 161 162 167
f 178 168 179
f 169 170 171
f 170 169 172
f 169 171 172
f 172 171 174
f 171 170 175
f 170 173 175
f 174 171 175
f 170 172 176
f 173 170 176
f 173 176 177
f 168 173 177
f 172 174 177
f 176 172 177
f 173 168 178
f 175 173 178
f 175 178 179
f 174 175 179
f 168 177 179
f 177 174 179
f 180 183 187
f 181 182 183
f 182 181 184
f 181 183 184
f 183 180 185
f 180 184 185
f 184 183 185
f 180 182 186
f 184 180 186
f 182 184 186
f 182 180 187
f 183 182 187
f 196 192 198
f 189 190 191
f 190 189 192
f 192 188 193
f 190 192 193
f 191 188 194
f 188 192 194
f 191 190 195
f 188 191 195
f 189 191 196
f 191 194 196
f 194 192 196
f 193 188 197
f 190 193 197
f 188 195 197
f 195 190 197
f 192 189 198
f 189 196 198
f 207 203 210
f 201 200 202
f 201 202 203
f 201 203 204
f 200 201 204
f 202 200 205
f 200 204 205
f 205 204 206
f 204 203 207
f 199 206 207
f 206 204 207
f 206 199 208
f 205 206 208
f 199 202 209
f 202 205 209
f 208 199 209
f 205 208 209
f 202 199 210
f 203 202 210
f 199 207 210
f 215 214 218
f 212 213 214
f 213 212 215
f 212 214 215
f 211 213 216
f 215 211 216
f 213 215 216
f 213 211 217
f 214 213 217
f 211 214 217
f 214 211 218
f 211 215 218

