# https://github.com/mikedh/trimesh

o convex_0
v 0.18745700 -0.28056400 -0.08408500
v 0.21210400 0.29991900 0.41978400
v 0.21210400 0.29991900 -0.11149100
v 0.21210400 -0.29981900 0.41978400
v 0.19019700 0.29991900 0.41978400
v 0.21210400 -0.29981900 -0.11149100
v 0.19019700 0.29991900 -0.11149100
v 0.19019700 -0.29981900 0.41978400
v 0.18745700 0.27796300 0.12408800
v 0.19019700 -0.29981900 -0.11149100
v 0.18745700 0.28072300 -0.08408500
v 0.18745700 -0.27786300 0.12408800
v -0.30273800 -0.28064900 -0.08409800
v -0.28357200 0.03154300 0.04186700
v -0.28083200 0.03154300 -0.06766800
v -0.28083200 -0.27789900 0.00076900
v -0.30273800 0.03154300 0.04186700
v -0.30547400 -0.24229800 0.04186700
v -0.30273800 0.03154300 -0.08684400
v -0.28083200 -0.28064900 -0.08409800
v -0.31095300 -0.28064900 -0.04849300
v -0.28357200 -0.27239800 0.04186700
v -0.28083200 0.03154300 -0.08684400
v -0.31095300 -0.25051800 -0.06766800
v -0.30273800 -0.25051800 -0.08684400
v -0.29726200 -0.27239800 0.04186700
v -0.31095300 -0.25051800 -0.03754400
v -0.28083200 -0.25051800 -0.08684400
v -0.31095300 0.25060500 -0.06766800
v -0.28357200 0.27250600 0.04186700
v -0.28083200 0.27796900 0.00076900
v -0.28083200 0.03156800 -0.08684400
v -0.30273800 0.03156800 0.04186700
v -0.28357200 0.03156800 0.04186700
v -0.28083200 0.28072500 -0.08409800
v -0.30273800 0.03156800 -0.08684400
v -0.30547400 0.24238600 0.04186700
v -0.31095300 0.27796900 -0.03754400
v -0.30273800 0.28072500 -0.08409800
v -0.29726200 0.27250600 0.04186700
v -0.30273800 0.25060500 -0.08684400
v -0.28083200 0.25060500 -0.08684400
v -0.28083200 0.03156800 -0.06766800
v -0.31095300 0.25060500 -0.03754400
v -0.31095300 0.28072500 -0.04849300
v -0.29726200 -0.27238500 0.04186700
v -0.28083200 -0.25873000 0.12128400
v -0.30273800 -0.25873000 0.12128400
v -0.28357300 0.08631400 0.04186700
v -0.30273800 0.08631400 0.11579600
v -0.30273800 0.08631400 0.04186700
v -0.28357300 0.08631400 0.11579600
v -0.28357300 -0.27238500 0.04186700
v -0.30547900 -0.24229400 0.04186700
v -0.30547900 -0.23676800 0.11579600
v -0.30273800 -0.27791100 0.12128400
v -0.28083200 -0.27791100 0.09663400
v -0.30273600 0.08635100 0.04186700
v -0.28083200 0.27799200 0.12128400
v -0.30273600 0.27799200 0.12128400
v -0.28357500 0.27251400 0.04186700
v -0.28357500 0.08635100 0.11579600
v -0.28357500 0.08635100 0.04186700
v -0.30547900 0.24238400 0.04186700
v -0.30273600 0.08635100 0.11579600
v -0.30547900 0.23690600 0.11579600
v -0.29726200 0.27251400 0.04186700
v -0.28083200 0.27799200 0.09663400
v 0.11347300 -0.25874500 0.12402300
v 0.11347300 -0.27791100 0.09389900
v -0.28083200 -0.27791100 0.09664100
v 0.18745700 -0.27791100 0.12402300
v 0.18745700 -0.25874500 0.09389900
v -0.28083200 -0.25874500 0.12128100
v -0.28083200 -0.27791100 0.12128100
v -0.28083200 -0.25874500 0.09664100
v 0.18745700 -0.27791100 0.09389900
v 0.18745700 -0.25874500 0.12402300
v 0.11347300 0.27800700 0.12402300
v 0.11347300 0.25884500 0.09389900
v -0.28083200 0.25884500 0.09664100
v 0.18745700 0.25884500 0.12402300
v 0.18745700 0.27800700 0.09389900
v -0.28083200 0.27800700 0.12128100
v -0.28083200 0.25884500 0.12128100
v -0.28083200 0.27800700 0.09664100
v 0.18745700 0.27800700 0.12402300
v 0.18745700 0.25884500 0.09389900
v -0.28083200 -0.23135600 -0.08684400
v 0.18741100 0.23145600 -0.06767600
v 0.18745700 0.01509100 -0.06767600
v 0.18741100 0.23145600 -0.08684400
v -0.28078600 0.23145600 -0.06767600
v 0.18745700 -0.23135600 -0.06767600
v 0.18745700 -0.23135600 -0.08684400
v -0.28083200 -0.23135600 -0.06767600
v -0.28078600 0.23145600 -0.08684400
v -0.28083200 0.25884600 -0.00470400
v -0.28083200 0.27526800 -0.08410600
v -0.28083200 0.25610400 -0.06766800
v 0.18745700 0.25336400 -0.05671600
v 0.18741100 0.28075000 -0.00743000
v 0.18741100 0.28075000 -0.08410600
v -0.28083200 0.27800700 0.00078900
v 0.18741100 0.26158600 0.00078900
v -0.28083200 0.28075000 -0.08410600
v 0.16820400 0.25610400 -0.07313600
v -0.28083200 0.25336400 -0.04029600
v 0.18741100 0.25610400 -0.02112400
v 0.18741100 0.27800700 0.00078900
v -0.28083200 0.26158600 0.00078900
v -0.28083200 0.28075000 -0.05124000
v 0.18741100 0.27526800 -0.08410600
v -0.28083200 0.25336400 -0.05671600
v 0.18745700 0.25336400 -0.04029600
v 0.18741100 0.25884600 -0.00470400
v 0.18741100 -0.25600600 -0.02112400
v -0.28083200 -0.28064700 -0.08410600
v -0.28083200 -0.28064700 -0.05124000
v -0.28083200 -0.25326700 -0.05671600
v 0.18741100 -0.28064700 -0.08410600
v -0.28083200 -0.27790500 0.00078900
v 0.18741100 -0.28064700 -0.00743000
v 0.16820400 -0.25600600 -0.07313600
v -0.28083200 -0.26148500 0.00078900
v 0.18741100 -0.26148500 0.00078900
v -0.28083200 -0.25600600 -0.06766800
v 0.18745700 -0.25326700 -0.05671600
v -0.28083200 -0.25326700 -0.04029600
v -0.28083200 -0.27516800 -0.08410600
v 0.18741100 -0.27790500 0.00078900
v -0.28083200 -0.25874600 -0.00470400
v 0.18741100 -0.27516800 -0.08410600
v 0.18745700 -0.25326700 -0.04029600
v 0.18741100 -0.25874600 -0.00470400
v 0.18745700 0.25062400 -0.05672000
v -0.03985800 0.23967300 -0.09231400
v -0.03985800 0.25610300 -0.09231400
v -0.28083200 0.25610300 -0.05672000
v -0.28083200 0.23145600 -0.06767900
v 0.18745700 0.23145600 -0.08684000
v -0.28083200 0.23145600 -0.08684000
v 0.18745700 0.23145600 -0.06767900
v 0.15729500 0.25610300 -0.07862400
v -0.28083200 0.25062400 -0.08684000
v 0.18745700 0.25610300 -0.05672000
v 0.18745700 0.25062400 -0.08684000
v -0.28083200 0.25062400 -0.05672000
v 0.13538400 0.23419700 -0.08957900
v -0.28083200 0.25610300 -0.06767900
v 0.18745700 -0.25052400 -0.05672000
v -0.03985800 -0.25600300 -0.09231400
v -0.03985800 -0.23957300 -0.09231400
v -0.28083200 -0.25600300 -0.05672000
v -0.28083200 -0.23135600 -0.06767900
v 0.18745700 -0.23135600 -0.08684000
v -0.28083200 -0.23135600 -0.08684000
v 0.18745700 -0.23135600 -0.06767900
v 0.15729500 -0.25600300 -0.07862400
v -0.28083200 -0.25052400 -0.08684000
v 0.18745700 -0.25600300 -0.05672000
v 0.18745700 -0.25052400 -0.08684000
v -0.28083200 -0.25052400 -0.05672000
v 0.13538400 -0.23409700 -0.08957900
v -0.28083200 -0.25600300 -0.06767900
f 8 9 12
f 3 2 4
f 2 3 5
f 4 2 5
f 3 4 6
f 5 3 7
f 3 6 7
f 4 5 8
f 6 4 8
f 8 5 9
f 1 7 10
f 7 6 10
f 8 1 10
f 6 8 10
f 7 1 11
f 5 7 11
f 1 9 11
f 9 5 11
f 1 8 12
f 9 1 12
f 25 23 28
f 15 14 16
f 14 15 17
f 14 17 18
f 17 15 19
f 15 16 20
f 20 16 21
f 13 20 21
f 16 14 22
f 14 18 22
f 19 15 23
f 15 20 23
f 17 19 24
f 13 21 24
f 20 13 25
f 19 23 25
f 13 24 25
f 24 19 25
f 18 21 26
f 21 16 26
f 16 22 26
f 22 18 26
f 18 17 27
f 21 18 27
f 17 24 27
f 24 21 27
f 23 20 28
f 20 25 28
f 38 40 45
f 30 33 34
f 31 30 34
f 33 32 34
f 31 32 35
f 33 29 36
f 32 33 36
f 33 30 37
f 30 31 40
f 37 30 40
f 38 37 40
f 32 36 41
f 36 29 41
f 39 35 41
f 29 39 41
f 35 32 42
f 32 41 42
f 41 35 42
f 32 31 43
f 31 34 43
f 34 32 43
f 29 33 44
f 33 37 44
f 37 38 44
f 38 29 44
f 31 35 45
f 29 38 45
f 35 39 45
f 39 29 45
f 40 31 45
f 56 46 57
f 48 47 50
f 49 46 51
f 50 49 51
f 47 49 52
f 49 50 52
f 50 47 52
f 46 49 53
f 51 46 54
f 51 54 55
f 48 50 55
f 50 51 55
f 47 48 56
f 54 46 56
f 55 54 56
f 48 55 56
f 49 47 57
f 46 53 57
f 53 49 57
f 47 56 57
f 61 67 68
f 59 60 62
f 59 62 63
f 58 61 63
f 62 58 63
f 61 58 64
f 58 62 65
f 62 60 65
f 64 58 66
f 60 64 66
f 58 65 66
f 65 60 66
f 64 60 67
f 61 64 67
f 60 59 68
f 59 63 68
f 63 61 68
f 67 60 68
f 72 73 78
f 71 70 72
f 69 73 74
f 71 72 75
f 72 69 75
f 74 71 75
f 69 74 75
f 70 71 76
f 73 70 76
f 71 74 76
f 74 73 76
f 72 70 77
f 73 72 77
f 70 73 77
f 69 72 78
f 73 69 78
f 80 83 88
f 81 80 82
f 79 83 84
f 81 82 85
f 82 79 85
f 84 81 85
f 79 84 85
f 80 81 86
f 83 80 86
f 81 84 86
f 84 83 86
f 79 82 87
f 83 79 87
f 82 83 87
f 82 80 88
f 83 82 88
f 93 92 97
f 90 91 92
f 91 90 93
f 90 92 93
f 91 93 94
f 92 91 95
f 89 92 95
f 91 94 95
f 94 89 95
f 93 89 96
f 89 94 96
f 94 93 96
f 92 89 97
f 89 93 97
f 109 115 116
f 98 99 100
f 102 101 103
f 99 98 104
f 103 99 106
f 102 103 106
f 99 104 106
f 100 99 107
f 98 100 108
f 98 108 109
f 102 104 110
f 104 105 110
f 104 98 111
f 98 105 111
f 105 104 111
f 104 102 112
f 102 106 112
f 106 104 112
f 99 103 113
f 103 101 113
f 107 99 113
f 101 107 113
f 100 107 114
f 107 101 114
f 108 100 114
f 101 108 114
f 101 102 115
f 108 101 115
f 109 108 115
f 102 110 115
f 110 105 115
f 105 98 116
f 98 109 116
f 115 105 116
f 126 134 135
f 118 119 120
f 119 118 121
f 120 119 122
f 119 121 123
f 122 119 123
f 120 122 125
f 125 122 126
f 118 120 127
f 120 124 127
f 123 121 128
f 124 120 128
f 120 125 129
f 128 120 129
f 121 118 130
f 118 127 130
f 127 124 130
f 122 123 131
f 126 122 131
f 125 126 132
f 117 129 132
f 129 125 132
f 128 121 133
f 124 128 133
f 121 130 133
f 130 124 133
f 123 128 134
f 129 117 134
f 128 129 134
f 131 123 134
f 126 131 134
f 117 132 135
f 132 126 135
f 134 117 135
f 145 139 150
f 141 140 142
f 138 137 142
f 140 139 142
f 136 140 143
f 141 136 143
f 140 141 143
f 138 139 144
f 138 142 145
f 142 139 145
f 139 136 146
f 136 141 146
f 144 139 146
f 144 146 147
f 138 144 147
f 146 141 147
f 136 139 148
f 140 136 148
f 139 140 148
f 137 138 149
f 141 142 149
f 142 137 149
f 138 147 149
f 147 141 149
f 139 138 150
f 138 145 150
f 154 160 165
f 155 156 157
f 153 152 157
f 154 155 157
f 155 151 158
f 151 156 158
f 156 155 158
f 154 152 159
f 157 152 160
f 154 157 160
f 151 154 161
f 156 151 161
f 154 159 161
f 161 159 162
f 159 152 162
f 156 161 162
f 154 151 163
f 151 155 163
f 155 154 163
f 152 153 164
f 157 156 164
f 153 157 164
f 162 152 164
f 156 162 164
f 152 154 165
f 160 152 165

