# https://github.com/mikedh/trimesh

o convex_0
v 0.20866500 -0.27793400 -0.09007000
v 0.23233400 0.30062500 0.16499900
v 0.23233400 0.30062500 -0.10062600
v 0.23233400 -0.29900500 0.16499900
v 0.20866500 0.27949400 0.11765200
v 0.23233400 -0.29900500 -0.10062600
v 0.21129700 -0.29900500 0.16499900
v 0.21129700 0.30062500 -0.10062600
v 0.21129700 0.30062500 0.16499900
v 0.20866500 0.27949400 -0.09007000
v 0.20866500 -0.27793400 0.11765200
v 0.21129700 -0.29900500 -0.10062600
v 0.20866500 0.25061600 -0.09269600
v -0.28313200 -0.24111300 0.00194200
v -0.25683700 -0.25953800 0.11503000
v -0.25683700 -0.25953800 0.09135200
v -0.26209900 0.02973900 0.00194200
v -0.28050400 0.02973900 0.10976100
v -0.28313200 -0.24111300 0.10976100
v -0.25946800 -0.27005000 0.00194200
v -0.26209900 0.02973900 0.10976100
v -0.28050400 0.02973900 0.00194200
v -0.27787300 -0.27533600 0.11503000
v -0.27524300 -0.27005000 0.00194200
v -0.25683700 -0.27533600 0.11503000
v -0.25946800 -0.23848500 0.00194200
v -0.27787300 -0.27533600 0.09135200
v -0.25683700 0.27695500 0.11503000
v -0.25683700 0.27695500 0.09135200
v -0.28313200 0.24276200 0.00194200
v -0.28313200 0.23748700 0.10976100
v -0.25946800 0.27168000 0.00194200
v -0.27787300 0.27695500 0.11503000
v -0.27524300 0.27168000 0.00194200
v -0.25683700 0.26115300 0.09135200
v -0.25946800 0.24012400 0.00194200
v 0.20866500 -0.25692800 0.11766000
v 0.13498500 -0.27796400 0.08873100
v -0.25683700 -0.27533400 0.09136100
v 0.13498500 -0.27796400 0.11766000
v -0.25683700 -0.25956000 0.11502900
v 0.13498500 -0.25692800 0.09136100
v -0.25683700 -0.25956000 0.09136100
v -0.25683700 -0.27533400 0.11502900
v 0.20866500 -0.27796400 0.08873100
v 0.20866500 -0.25956000 0.08873100
v 0.20866500 -0.27796400 0.11766000
v 0.13498500 -0.25692800 0.11766000
v 0.20866500 0.25854500 0.11766000
v 0.13498500 0.26117700 0.08873100
v 0.13498500 0.27958500 0.08873100
v -0.25683700 0.26117700 0.11502900
v 0.20866500 0.27958500 0.11766000
v -0.25683700 0.27695300 0.09136100
v -0.25683700 0.27695300 0.11502900
v -0.25683700 0.26117700 0.09136100
v 0.20866500 0.25854500 0.09136100
v 0.20866500 0.27958500 0.08873100
v 0.13498500 0.25854500 0.11766000
v 0.13498500 0.27958500 0.11766000
v -0.25683700 -0.25955400 -0.00595400
v -0.27787200 -0.27796600 -0.09009500
v -0.28050700 -0.24115100 -0.09273600
v -0.28313300 -0.24115100 0.00194200
v -0.25683700 -0.23325600 -0.09273600
v -0.28839700 -0.27796600 -0.04278400
v -0.25683700 -0.27796600 -0.09009500
v -0.25683700 -0.27796600 -0.00595400
v -0.26210100 -0.23325600 0.00194200
v -0.28050700 -0.23325600 -0.09273600
v -0.27524600 -0.27007500 0.00194200
v -0.28839700 -0.24904200 -0.07432100
v -0.28050700 -0.23325600 0.00194200
v -0.28839700 -0.27796600 -0.07432100
v -0.27787200 -0.27796600 -0.00595400
v -0.25683800 -0.23323300 -0.09273600
v -0.26209800 0.23483000 0.00194200
v -0.25420700 0.23487600 -0.07168900
v -0.28050700 0.23483000 -0.09273600
v -0.28050700 -0.23323300 0.00194200
v -0.28050700 -0.23323300 -0.09273600
v -0.26210000 -0.23323300 0.00194200
v -0.28050700 0.23483000 0.00194200
v -0.25420700 0.23487600 -0.09273600
v -0.25420700 0.00082100 -0.07168900
v -0.25683800 -0.23323300 -0.07168900
v -0.25420700 0.00082100 -0.09273600
v -0.25683700 0.00081000 -0.09273400
v 0.20866500 0.23224600 -0.07169900
v 0.20866500 0.23224600 -0.09273400
v 0.20866500 -0.23062600 -0.07169900
v -0.25419500 0.23224600 -0.07169900
v 0.20866500 -0.23062600 -0.09273400
v -0.25683700 -0.23062600 -0.07169900
v -0.25683700 -0.23062600 -0.09273400
v -0.25419500 0.23224600 -0.09273400
v -0.25683700 0.00081000 -0.07169900
v 0.20866500 0.25065200 -0.06380700
v -0.01751600 0.24013600 -0.09799600
v -0.01751600 0.25591400 -0.09799600
v -0.25420700 0.25854500 -0.06380700
v -0.25420700 0.23224600 -0.07170200
v 0.20866500 0.23224600 -0.09273200
v -0.25420700 0.23224600 -0.09273200
v 0.17971300 0.25854500 -0.08484400
v 0.20866500 0.23224600 -0.07170200
v -0.25420700 0.25065200 -0.09273200
v 0.20866500 0.25854500 -0.06380700
v 0.20866500 0.25065200 -0.09273200
v -0.25420700 0.25854500 -0.07432900
v -0.25420700 0.25065200 -0.06380700
v 0.15864400 0.23487900 -0.09536200
v -0.25420700 0.27695500 -0.00332200
v -0.28050500 0.23487600 -0.09273600
v -0.28313300 0.23750600 -0.07432100
v -0.28839700 0.27958500 -0.07432100
v -0.25420700 0.27958500 -0.09009500
v -0.26209900 0.23487600 0.00194200
v -0.28313300 0.23750600 0.00194200
v -0.27787200 0.27958500 -0.00595400
v -0.27787200 0.27958500 -0.09009500
v -0.28839700 0.25066100 -0.07432100
v -0.28839700 0.27958500 -0.04278400
v -0.25420700 0.26117400 -0.00595400
v -0.27524500 0.27169400 0.00194200
v 0.20866500 0.26643900 -0.00331800
v -0.25420700 0.27432300 -0.09010600
v -0.25420700 0.25854700 -0.07433000
v -0.25416200 0.27695400 -0.00331800
v 0.20866500 0.27958400 -0.09010600
v 0.20866500 0.25328500 -0.06380500
v -0.25416200 0.25855300 -0.01646900
v 0.20866500 0.28221500 -0.02436900
v -0.25420700 0.27958400 -0.09010600
v 0.19022400 0.25854700 -0.07958100
v -0.25416200 0.25328500 -0.06380500
v 0.20866500 0.25854700 -0.01646900
v 0.20866500 0.27958100 -0.00596000
v -0.25416200 0.27958100 -0.00596000
v -0.25416200 0.26117800 -0.00596000
v -0.25416200 0.25328500 -0.05064500
v 0.13499300 0.28221500 -0.04538700
v 0.20866500 0.25328500 -0.05064500
v 0.20866500 0.27432300 -0.09010600
v 0.20866500 0.26117800 -0.00596000
v -0.25153400 0.26381100 -0.00331800
v 0.20866500 0.27695400 -0.00331800
v 0.20866500 -0.25692800 -0.01646900
v -0.25683700 -0.27796200 -0.09010600
v -0.25683700 -0.27796200 -0.00596000
v -0.25683700 -0.25166600 -0.06380500
v 0.20866500 -0.27796200 -0.09010600
v 0.20866500 -0.28059600 -0.02436900
v 0.19021100 -0.25693000 -0.07958100
v -0.25683700 -0.25955800 -0.00596000
v 0.20866500 -0.27533400 -0.00331800
v 0.20866500 -0.25167200 -0.05064500
v -0.25683700 -0.27270300 -0.09010600
v 0.20866500 -0.25955800 -0.00596000
v -0.25683700 -0.25166600 -0.05064500
v 0.13503000 -0.28059600 -0.04538700
v 0.20866500 -0.25167200 -0.06380500
v -0.25146100 -0.26219200 -0.00331800
v -0.25683700 -0.25693000 -0.07433000
v 0.20866500 -0.27270300 -0.09010600
v 0.20866500 -0.27796200 -0.00596000
v -0.25683700 -0.27533400 -0.00331800
v -0.25683700 -0.25693300 -0.01646900
v 0.20866500 -0.26482000 -0.00331800
v 0.20866500 -0.24903600 -0.06380700
v -0.01752500 -0.25429500 -0.09799600
v -0.01752500 -0.23851700 -0.09799600
v -0.25683700 -0.25692600 -0.06380700
v -0.25683700 -0.23062600 -0.07170200
v 0.20866500 -0.23062600 -0.09273200
v -0.25683700 -0.23062600 -0.09273200
v 0.17973000 -0.25692600 -0.08484400
v 0.20866500 -0.23062600 -0.07170200
v -0.25683700 -0.24903600 -0.09273200
v 0.20866500 -0.25692600 -0.06380700
v 0.20866500 -0.24903600 -0.09273200
v -0.25683700 -0.25692600 -0.07432900
v -0.25683700 -0.24903600 -0.06380700
v 0.15863300 -0.23325700 -0.09536200
f 12 1 13
f 3 2 4
f 3 4 6
f 6 4 7
f 4 2 7
f 2 3 8
f 3 6 8
f 7 2 9
f 5 7 9
f 2 8 9
f 8 5 9
f 1 5 10
f 5 8 10
f 5 1 11
f 1 7 11
f 7 5 11
f 6 7 12
f 7 1 12
f 8 6 12
f 8 12 13
f 1 10 13
f 10 8 13
f 25 23 27
f 15 16 17
f 18 14 19
f 14 17 20
f 15 17 21
f 17 18 21
f 18 15 21
f 17 14 22
f 14 18 22
f 18 17 22
f 15 18 23
f 18 19 23
f 19 14 23
f 14 20 24
f 16 15 25
f 20 16 25
f 15 23 25
f 17 16 26
f 16 20 26
f 20 17 26
f 23 14 27
f 24 20 27
f 14 24 27
f 20 25 27
f 35 17 36
f 30 22 31
f 22 30 17
f 21 22 17
f 17 30 32
f 31 22 18
f 21 28 18
f 22 21 18
f 28 29 33
f 30 31 33
f 31 18 33
f 18 28 33
f 29 32 34
f 32 30 34
f 33 29 34
f 30 33 34
f 29 28 35
f 28 21 35
f 21 17 35
f 32 29 35
f 32 35 36
f 17 32 36
f 37 42 48
f 39 38 40
f 38 39 43
f 39 41 43
f 41 42 43
f 39 40 44
f 40 41 44
f 41 39 44
f 40 38 45
f 42 37 46
f 38 43 46
f 43 42 46
f 45 38 46
f 37 45 46
f 37 40 47
f 40 45 47
f 45 37 47
f 40 37 48
f 41 40 48
f 42 41 48
f 55 59 60
f 51 50 54
f 54 52 55
f 51 54 55
f 54 50 56
f 52 54 56
f 53 49 57
f 56 50 57
f 50 51 58
f 51 53 58
f 57 50 58
f 53 57 58
f 49 53 59
f 55 52 59
f 52 56 59
f 57 49 59
f 56 57 59
f 53 51 60
f 51 55 60
f 59 53 60
f 68 71 75
f 62 63 67
f 65 61 67
f 63 65 67
f 66 62 67
f 66 67 68
f 67 61 68
f 61 65 69
f 68 61 69
f 69 65 70
f 65 63 70
f 69 64 71
f 68 69 71
f 66 64 72
f 70 63 72
f 70 72 73
f 64 69 73
f 69 70 73
f 72 64 73
f 63 62 74
f 62 66 74
f 72 63 74
f 66 72 74
f 64 66 75
f 66 68 75
f 71 64 75
f 84 85 87
f 79 76 81
f 76 80 81
f 80 79 81
f 80 76 82
f 77 80 82
f 77 78 83
f 78 79 83
f 79 80 83
f 80 77 83
f 79 78 84
f 76 79 84
f 78 77 85
f 77 82 85
f 84 78 85
f 82 76 86
f 76 85 86
f 85 82 86
f 76 84 87
f 85 76 87
f 94 92 97
f 90 89 91
f 89 90 92
f 91 89 92
f 88 90 93
f 90 91 93
f 93 91 94
f 91 92 94
f 88 93 95
f 93 94 95
f 94 88 95
f 90 88 96
f 88 92 96
f 92 90 96
f 92 88 97
f 88 94 97
f 109 103 112
f 103 102 104
f 100 99 104
f 102 101 104
f 98 102 106
f 103 98 106
f 102 103 106
f 100 104 107
f 104 101 107
f 101 98 108
f 98 103 108
f 105 101 108
f 105 108 109
f 100 105 109
f 108 103 109
f 105 100 110
f 101 105 110
f 100 107 110
f 107 101 110
f 98 101 111
f 102 98 111
f 101 102 111
f 99 100 112
f 103 104 112
f 104 99 112
f 100 109 112
f 120 119 125
f 117 113 84
f 114 117 84
f 118 114 84
f 115 114 119
f 114 118 119
f 113 117 120
f 117 116 120
f 114 116 121
f 116 117 121
f 117 114 121
f 114 115 122
f 116 114 122
f 115 119 122
f 122 119 123
f 120 116 123
f 119 120 123
f 116 122 123
f 113 118 124
f 84 113 124
f 118 84 124
f 118 113 125
f 119 118 125
f 113 120 125
f 138 129 147
f 130 126 131
f 126 130 133
f 127 128 134
f 128 129 134
f 130 127 134
f 128 127 135
f 135 131 136
f 128 135 136
f 131 126 137
f 126 133 138
f 138 133 139
f 134 129 139
f 129 138 139
f 129 128 140
f 128 132 140
f 132 137 140
f 132 128 141
f 136 131 141
f 128 136 141
f 137 132 141
f 133 130 142
f 130 134 142
f 139 133 142
f 134 139 142
f 131 137 143
f 141 131 143
f 137 141 143
f 127 130 144
f 130 131 144
f 135 127 144
f 131 135 144
f 137 126 145
f 140 137 145
f 140 145 146
f 126 129 146
f 129 140 146
f 145 126 146
f 129 126 147
f 126 138 147
f 159 163 169
f 149 150 151
f 152 148 153
f 151 150 155
f 153 148 156
f 148 152 157
f 149 151 158
f 152 149 158
f 148 155 159
f 156 148 159
f 151 155 160
f 148 157 160
f 157 151 160
f 150 149 161
f 149 152 161
f 152 153 161
f 153 150 161
f 154 151 162
f 157 152 162
f 151 157 162
f 159 155 163
f 151 154 164
f 158 151 164
f 154 158 164
f 152 158 165
f 158 154 165
f 154 162 165
f 162 152 165
f 150 153 166
f 153 156 166
f 156 150 166
f 155 150 167
f 150 156 167
f 163 155 167
f 156 163 167
f 155 148 168
f 148 160 168
f 160 155 168
f 156 159 169
f 163 156 169
f 175 181 184
f 174 175 176
f 172 171 176
f 173 174 176
f 174 170 178
f 170 175 178
f 175 174 178
f 176 171 179
f 173 176 179
f 170 173 180
f 175 170 180
f 173 177 180
f 180 177 181
f 177 171 181
f 175 180 181
f 171 177 182
f 177 173 182
f 179 171 182
f 173 179 182
f 173 170 183
f 170 174 183
f 174 173 183
f 171 172 184
f 176 175 184
f 172 176 184
f 181 171 184

