# https://github.com/mikedh/trimesh

o convex_0
v 0.19737800 -0.02616800 -0.09026400
v 0.21841600 0.29988300 0.17268300
v 0.20001000 0.29988300 0.17268300
v 0.20001000 -0.29974700 0.17268300
v 0.22104800 -0.29974700 -0.09294200
v 0.22104800 0.29982500 -0.09294200
v 0.22104800 -0.29974700 0.17268300
v 0.19737800 0.27875300 -0.08238600
v 0.20001000 -0.29974700 -0.09294200
v 0.19737800 -0.27867500 0.12533500
v 0.22104800 0.29982500 0.17268300
v 0.19737800 0.27875300 0.12533500
v 0.20001000 0.29988300 -0.09294200
v 0.19737800 -0.27867500 -0.08238600
v -0.29441900 -0.24185500 0.00962600
v -0.26812400 -0.26028000 0.12271400
v -0.26812400 -0.26028000 0.09903600
v -0.27338500 0.02899800 0.00962600
v -0.29179100 0.02899800 0.11744500
v -0.29441900 -0.24185500 0.11744500
v -0.27075500 -0.27079100 0.00962600
v -0.27338500 0.02899800 0.11744500
v -0.29179100 0.02899800 0.00962600
v -0.28916000 -0.27607700 0.12271400
v -0.28652900 -0.27079100 0.00962600
v -0.26812400 -0.27607700 0.12271400
v -0.27075500 -0.23922700 0.00962600
v -0.28916000 -0.27607700 0.09903600
v -0.26812400 0.27621400 0.12271400
v -0.26812400 0.27621400 0.09903600
v -0.29441900 0.24202100 0.00962600
v -0.29441900 0.23674500 0.11744500
v -0.27075500 0.27093800 0.00962600
v -0.28916000 0.27621400 0.12271400
v -0.28652900 0.27093800 0.00962600
v -0.26812400 0.26041200 0.09903600
v -0.27075500 0.23938300 0.00962600
v 0.19737800 -0.25766900 0.12534400
v 0.12369800 -0.27870500 0.09641400
v -0.26812400 -0.27607500 0.09904500
v 0.12369800 -0.27870500 0.12534400
v -0.26812400 -0.26030100 0.12271300
v 0.12369800 -0.25766900 0.09904500
v -0.26812400 -0.26030100 0.09904500
v -0.26812400 -0.27607500 0.12271300
v 0.19737800 -0.27870500 0.09641400
v 0.19737800 -0.26030100 0.09641400
v 0.19737800 -0.27870500 0.12534400
v 0.12369800 -0.25766900 0.12534400
v 0.19737800 0.25780400 0.12534400
v 0.12369800 0.26043600 0.09641400
v 0.12369800 0.27884400 0.09641400
v -0.26812400 0.26043600 0.12271300
v 0.19737800 0.27884400 0.12534400
v -0.26812400 0.27621200 0.09904500
v -0.26812400 0.27621200 0.12271300
v -0.26812400 0.26043600 0.09904500
v 0.19737800 0.25780400 0.09904500
v 0.19737800 0.27884400 0.09641400
v 0.12369800 0.25780400 0.12534400
v 0.12369800 0.27884400 0.12534400
v -0.26812400 -0.26029600 0.00173000
v -0.28915800 -0.27870700 -0.08241100
v -0.29179300 -0.24189300 -0.08505200
v -0.29441900 -0.24189300 0.00962600
v -0.26812400 -0.23399800 -0.08505200
v -0.29968300 -0.27870700 -0.03510000
v -0.26812400 -0.27870700 -0.08241100
v -0.26812400 -0.27870700 0.00173000
v -0.27338800 -0.23399800 0.00962600
v -0.29179300 -0.23399800 -0.08505200
v -0.28653300 -0.27081600 0.00962600
v -0.29968300 -0.24978300 -0.06663800
v -0.29179300 -0.23399800 0.00962600
v -0.29968300 -0.27870700 -0.06663800
v -0.28915800 -0.27870700 0.00173000
v -0.29179300 -0.23395200 -0.08505200
v -0.27338600 0.23408900 0.00962600
v -0.26812400 0.23408900 -0.06400600
v -0.26812400 -0.23395200 -0.06400600
v -0.29179300 -0.23395200 0.00962600
v -0.29179300 0.23408900 -0.08505200
v -0.29179300 0.23408900 0.00962600
v -0.27338600 -0.23395200 0.00962600
v -0.26812400 0.23408900 -0.08505200
v -0.26812400 -0.23395200 -0.08505200
v -0.26812400 -0.23399800 -0.08505100
v 0.19737800 0.02899800 -0.06401300
v 0.19737800 -0.23399800 -0.06401300
v 0.19737800 0.02634600 -0.09030700
v -0.26812400 0.02899800 -0.06401500
v -0.26812400 0.02899800 -0.08505100
v -0.26812400 -0.23399800 -0.06401500
v 0.19737800 -0.23399800 -0.08504800
v 0.18945000 -0.02624800 -0.09030700
v 0.19737800 0.02899800 -0.08504800
v -0.26019500 0.26307000 0.00436600
v -0.26812400 0.27358100 -0.08241700
v -0.26812400 0.25780600 -0.06664200
v 0.19737800 0.25780600 -0.06664200
v 0.19737800 0.28147400 -0.01668400
v 0.19737800 0.25780600 -0.00879300
v -0.26812400 0.27884000 0.00172400
v 0.19737800 0.27884300 -0.08241700
v -0.26812400 0.25254400 -0.04296700
v 0.19737800 0.27621200 0.00436600
v -0.26812400 0.27884300 -0.08241700
v 0.19737800 0.25254400 -0.05611700
v 0.17892400 0.25780600 -0.07189200
v 0.19737800 0.26043600 0.00172400
v -0.26812400 0.25781100 -0.00879300
v -0.26812400 0.25254400 -0.05611700
v 0.12374400 0.28147400 -0.03770900
v 0.19737800 0.25254400 -0.04296700
v 0.19737800 0.27358100 -0.08241700
v 0.19737800 0.27884000 0.00172400
v -0.26812400 0.27621200 0.00436600
v 0.19737800 0.26569800 0.00436600
v -0.26812400 0.26043600 0.00172400
v -0.26812400 0.27621300 0.00436200
v -0.29179300 0.23413400 -0.08505200
v -0.29441900 0.23676500 -0.06663800
v -0.29968300 0.27884400 -0.06663800
v -0.26812400 0.27884400 -0.08241100
v -0.27338800 0.23413400 0.00962600
v -0.29441900 0.23676500 0.00962600
v -0.26812400 0.23413400 -0.08505200
v -0.28915800 0.27884400 0.00173000
v -0.28915800 0.27884400 -0.08241100
v -0.29968300 0.24992000 -0.06663800
v -0.29968300 0.27884400 -0.03510000
v -0.28653300 0.27095300 0.00962600
v -0.27075600 0.23939500 0.00962600
v -0.26811200 0.02899800 -0.08505000
v 0.19737800 0.23150400 -0.06401500
v 0.19737800 0.02899800 -0.06401500
v 0.19737800 0.23150400 -0.08505000
v -0.26811200 0.23150400 -0.06401500
v 0.19737800 0.02899800 -0.08505000
v -0.26811200 0.02899800 -0.06401500
v -0.26811200 0.23150400 -0.08505000
v 0.19737800 -0.25766900 -0.00879300
v -0.26812400 -0.27870300 -0.08241700
v -0.26812400 -0.27870300 0.00172400
v -0.26812400 -0.25240700 -0.05611700
v 0.19737800 -0.27870300 -0.08241700
v 0.19737800 -0.28133700 -0.01668400
v 0.17892400 -0.25767200 -0.07189200
v -0.26812400 -0.26030000 0.00172400
v 0.19737800 -0.27607600 0.00436600
v 0.19737800 -0.25241300 -0.04296700
v -0.26812400 -0.27344500 -0.08241700
v 0.19737800 -0.26030000 0.00172400
v -0.26812400 -0.25240700 -0.04296700
v 0.12374400 -0.28133700 -0.03770900
v 0.19737800 -0.25241300 -0.05611700
v -0.26274700 -0.26293300 0.00436600
v -0.26812400 -0.25767200 -0.06664200
v 0.19737800 -0.27344500 -0.08241700
v 0.19737800 -0.27870300 0.00172400
v -0.26812400 -0.27607600 0.00436600
v -0.26812400 -0.25767500 -0.00879300
v 0.19737800 -0.26556100 0.00436600
v 0.19737800 -0.24977500 -0.05612300
v -0.02881100 -0.25503400 -0.09030900
v -0.02881100 -0.23926100 -0.09030900
v -0.26812400 -0.25766500 -0.05612300
v -0.26812400 -0.23400000 -0.06401700
v 0.19737800 -0.23400000 -0.08504900
v -0.26812400 -0.23400000 -0.08504900
v 0.16844400 -0.25766500 -0.07715800
v 0.19737800 -0.23400000 -0.06401700
v -0.26812400 -0.24977500 -0.08504900
v 0.19737800 -0.25766500 -0.05612300
v 0.19737800 -0.24977500 -0.08504900
v -0.26812400 -0.25766500 -0.06664700
v -0.26812400 -0.24977500 -0.05612300
v 0.14734700 -0.23400000 -0.08767900
v 0.19737800 0.24991400 -0.05612300
v -0.02881100 0.23939500 -0.09030900
v -0.02881100 0.25517300 -0.09030900
v -0.26812400 0.25780400 -0.05612300
v -0.26812400 0.23150400 -0.06401700
v 0.19737800 0.23150400 -0.08504900
v -0.26812400 0.23150400 -0.08504900
v 0.16844400 0.25780400 -0.07715800
v 0.19737800 0.23150400 -0.06401700
v -0.26812400 0.24991400 -0.08504900
v 0.19737800 0.25780400 -0.05612300
v 0.19737800 0.24991400 -0.08504900
v -0.26812400 0.25780400 -0.06664700
v -0.26812400 0.24991400 -0.05612300
v 0.14734700 0.23413800 -0.08767900
f 9 10 14
f 2 3 4
f 2 4 7
f 4 5 7
f 5 6 7
f 5 4 9
f 6 5 9
f 4 3 10
f 8 1 10
f 9 4 10
f 6 2 11
f 2 7 11
f 7 6 11
f 3 8 12
f 10 3 12
f 8 10 12
f 3 2 13
f 2 6 13
f 8 3 13
f 1 8 13
f 9 1 13
f 6 9 13
f 1 9 14
f 10 1 14
f 26 24 28
f 16 17 18
f 19 15 20
f 15 18 21
f 16 18 22
f 18 19 22
f 19 16 22
f 18 15 23
f 15 19 23
f 19 18 23
f 16 19 24
f 19 20 24
f 20 15 24
f 15 21 25
f 17 16 26
f 21 17 26
f 16 24 26
f 18 17 27
f 17 21 27
f 21 18 27
f 24 15 28
f 25 21 28
f 15 25 28
f 21 26 28
f 36 18 37
f 31 23 32
f 23 31 18
f 22 23 18
f 18 31 33
f 32 23 19
f 22 29 19
f 23 22 19
f 29 30 34
f 31 32 34
f 32 19 34
f 19 29 34
f 30 33 35
f 33 31 35
f 34 30 35
f 31 34 35
f 30 29 36
f 29 22 36
f 22 18 36
f 33 30 36
f 33 36 37
f 18 33 37
f 38 43 49
f 40 39 41
f 39 40 44
f 40 42 44
f 42 43 44
f 40 41 45
f 41 42 45
f 42 40 45
f 41 39 46
f 43 38 47
f 39 44 47
f 44 43 47
f 46 39 47
f 38 46 47
f 38 41 48
f 41 46 48
f 46 38 48
f 41 38 49
f 42 41 49
f 43 42 49
f 56 60 61
f 52 51 55
f 55 53 56
f 52 55 56
f 55 51 57
f 53 55 57
f 54 50 58
f 57 51 58
f 51 52 59
f 52 54 59
f 58 51 59
f 54 58 59
f 50 54 60
f 56 53 60
f 53 57 60
f 58 50 60
f 57 58 60
f 54 52 61
f 52 56 61
f 60 54 61
f 69 72 76
f 63 64 68
f 66 62 68
f 64 66 68
f 67 63 68
f 67 68 69
f 68 62 69
f 62 66 70
f 69 62 70
f 70 66 71
f 66 64 71
f 70 65 72
f 69 70 72
f 67 65 73
f 71 64 73
f 71 73 74
f 65 70 74
f 70 71 74
f 73 65 74
f 64 63 75
f 63 67 75
f 73 64 75
f 67 73 75
f 65 67 76
f 67 69 76
f 72 65 76
f 77 85 86
f 79 78 80
f 77 80 81
f 78 79 82
f 77 81 82
f 81 78 83
f 78 82 83
f 82 81 83
f 80 78 84
f 81 80 84
f 78 81 84
f 79 80 85
f 77 82 85
f 82 79 85
f 80 77 86
f 85 80 86
f 90 92 96
f 88 89 90
f 89 88 91
f 91 88 92
f 87 91 92
f 87 89 93
f 91 87 93
f 89 91 93
f 89 87 94
f 90 89 94
f 90 94 95
f 92 90 95
f 87 92 95
f 94 87 95
f 88 90 96
f 92 88 96
f 117 111 119
f 100 101 102
f 98 99 103
f 101 100 104
f 103 99 105
f 102 101 106
f 98 103 107
f 104 98 107
f 100 102 108
f 99 98 109
f 100 108 109
f 102 106 110
f 105 102 111
f 103 105 111
f 105 99 112
f 108 105 112
f 99 109 112
f 109 108 112
f 103 101 113
f 101 104 113
f 107 103 113
f 104 107 113
f 102 105 114
f 108 102 114
f 105 108 114
f 98 104 115
f 104 100 115
f 109 98 115
f 100 109 115
f 101 103 116
f 106 101 116
f 103 106 116
f 97 106 117
f 106 103 117
f 103 111 117
f 106 97 118
f 97 110 118
f 110 106 118
f 110 97 119
f 102 110 119
f 111 102 119
f 97 117 119
f 132 125 133
f 122 121 126
f 121 125 126
f 124 120 127
f 121 124 127
f 125 121 127
f 120 124 128
f 124 123 128
f 121 123 129
f 123 124 129
f 124 121 129
f 121 122 130
f 123 121 130
f 122 126 130
f 130 126 131
f 128 123 131
f 126 128 131
f 123 130 131
f 126 125 132
f 120 128 132
f 128 126 132
f 127 120 133
f 125 127 133
f 120 132 133
f 138 137 141
f 135 136 137
f 136 135 138
f 135 137 138
f 136 134 139
f 137 136 139
f 134 137 139
f 134 136 140
f 138 134 140
f 136 138 140
f 137 134 141
f 134 138 141
f 153 157 163
f 143 144 145
f 146 142 147
f 145 144 149
f 147 142 150
f 142 146 151
f 143 145 152
f 146 143 152
f 142 149 153
f 150 142 153
f 145 149 154
f 142 151 154
f 151 145 154
f 144 143 155
f 143 146 155
f 146 147 155
f 147 144 155
f 148 145 156
f 151 146 156
f 145 151 156
f 153 149 157
f 145 148 158
f 152 145 158
f 148 152 158
f 146 152 159
f 152 148 159
f 148 156 159
f 156 146 159
f 144 147 160
f 147 150 160
f 150 144 160
f 149 144 161
f 144 150 161
f 157 149 161
f 150 157 161
f 149 142 162
f 142 154 162
f 154 149 162
f 150 153 163
f 157 150 163
f 169 175 178
f 168 169 170
f 166 165 170
f 167 168 170
f 168 164 172
f 164 169 172
f 169 168 172
f 170 165 173
f 167 170 173
f 164 167 174
f 169 164 174
f 167 171 174
f 174 171 175
f 171 165 175
f 169 174 175
f 165 171 176
f 171 167 176
f 173 165 176
f 167 173 176
f 167 164 177
f 164 168 177
f 168 167 177
f 165 166 178
f 170 169 178
f 166 170 178
f 175 165 178
f 190 184 193
f 184 183 185
f 181 180 185
f 183 182 185
f 179 183 187
f 184 179 187
f 183 184 187
f 181 185 188
f 185 182 188
f 182 179 189
f 179 184 189
f 186 182 189
f 186 189 190
f 181 186 190
f 189 184 190
f 186 181 191
f 182 186 191
f 181 188 191
f 188 182 191
f 179 182 192
f 183 179 192
f 182 183 192
f 180 181 193
f 184 185 193
f 185 180 193
f 181 190 193

