# https://github.com/mikedh/trimesh

o convex_0
v 0.19041100 -0.02473000 -0.04593900
v 0.21883300 0.29977200 0.08435200
v 0.21883300 0.29977200 -0.04831500
v 0.21883300 -0.29959700 0.08435200
v 0.19041100 0.27601100 0.04879600
v 0.21883300 -0.29959700 -0.04831500
v 0.19751500 -0.29959700 0.08435200
v 0.19041100 -0.28058800 -0.03645900
v 0.19751500 0.29977200 -0.04831500
v 0.19751500 0.29977200 0.08435200
v 0.19041100 -0.27589500 0.04879600
v 0.19041100 0.28076300 -0.03645900
v 0.19751500 -0.29959700 -0.04831500
v 0.19041100 0.24996100 -0.04119900
v 0.19041100 -0.24978700 -0.04119900
v -0.29524700 -0.22852600 -0.03883900
v -0.27629700 0.22633100 0.04644700
v -0.27392600 0.22633100 -0.01987200
v -0.27629700 -0.22852600 0.04644700
v -0.29524700 0.22633100 0.04644700
v -0.29524700 0.22633100 -0.03883900
v -0.27392600 -0.22852600 -0.03883900
v -0.29524700 -0.22852600 0.04644700
v -0.27392600 0.22633100 -0.03883900
v -0.27392600 -0.22852600 -0.01987200
v 0.14772900 -0.02243200 -0.04357700
v 0.19040800 0.02733100 -0.01988900
v 0.14536500 -0.01061100 -0.01988600
v -0.27392600 0.02733100 -0.03883700
v -0.27392600 -0.22852600 -0.01988900
v 0.19040800 -0.22852600 -0.03883700
v -0.27392600 -0.22852600 -0.03883700
v -0.27392600 0.02733100 -0.01988900
v 0.19040800 -0.22852600 -0.01988900
v 0.19040800 0.02495200 -0.04357700
v 0.19040800 0.02733100 -0.03883700
v 0.19040800 -0.02481200 -0.04357700
v 0.14536500 0.02021900 -0.04357700
v 0.16668200 0.25712900 -0.02699200
v 0.19040800 0.28082000 -0.02699200
v 0.19040800 0.27845000 -0.01277900
v -0.27392600 0.28082000 -0.02699200
v -0.27392600 0.25712900 -0.01277900
v -0.27392600 0.27371200 -0.03647000
v 0.19040800 0.25712900 -0.01277900
v -0.27392600 0.27845000 -0.01277900
v 0.19040800 0.28082000 -0.03647000
v -0.27392600 0.25712900 -0.01988700
v 0.19040800 0.27371200 -0.03647000
v -0.27392600 0.28082000 -0.03647000
v -0.27392600 0.02733100 -0.03883900
v 0.19040800 0.22633100 -0.01989000
v 0.19040800 0.02733100 -0.01989000
v -0.27392600 0.22633100 -0.01989000
v 0.19040800 0.22633100 -0.03883900
v -0.27392600 0.02733100 -0.01989000
v 0.19040800 0.02733100 -0.03883900
v -0.27392800 -0.24037100 0.04644600
v -0.29287200 -0.28064200 -0.03646700
v -0.29524000 -0.24273800 -0.03882900
v -0.27392800 -0.22853100 -0.04120800
v -0.29524000 -0.22853100 0.04644600
v -0.27392800 -0.27827000 0.04643700
v -0.30235100 -0.27827000 0.01089800
v -0.27392800 -0.28064200 -0.03646700
v -0.29287200 -0.27590300 0.04881600
v -0.29524000 -0.22853100 -0.03882900
v -0.30235100 -0.24984500 -0.01988300
v -0.27630200 -0.22853100 0.04644600
v -0.30235100 -0.27827000 -0.01987400
v -0.30235100 -0.24984500 0.00853600
v -0.29287200 -0.24984500 -0.04120800
v 0.19040800 0.25002100 -0.01277900
v -0.03235100 0.24054900 -0.04594600
v -0.05594000 0.23344000 -0.04357600
v -0.27392600 0.22633100 -0.01988900
v 0.19040800 0.22633100 -0.01988900
v 0.19040800 0.25002100 -0.04120600
v -0.27392600 0.25002100 -0.04120300
v 0.19040800 0.22633100 -0.03883600
v -0.27392600 0.22633100 -0.03883600
v 0.16431800 0.25712900 -0.03172600
v -0.03235100 0.25476000 -0.04594600
v -0.27392600 0.25002100 -0.01277900
v 0.14300200 0.23344000 -0.04357600
v -0.27392600 0.25712900 -0.01988900
v -0.27392600 0.22870400 -0.04120300
v 0.19040800 0.22870400 -0.04120600
v -0.01098800 0.25476000 -0.04594600
v 0.19038900 -0.25932500 0.04407700
v -0.27392600 -0.27827400 -0.01277900
v -0.27392600 -0.27827400 0.04644600
v -0.27392600 -0.25221900 -0.01277900
v 0.19038900 -0.27827100 -0.01277900
v 0.19038900 -0.25221900 -0.01277900
v 0.19038900 -0.28064200 0.03933200
v -0.27392600 -0.25932800 0.04407700
v 0.19038900 -0.27590300 0.04881600
v -0.27392600 -0.25221900 -0.00093200
v -0.27392600 -0.26879700 0.04881600
v 0.12166900 -0.28064200 0.00617700
v 0.19038900 -0.25221900 -0.00093200
v 0.19038900 -0.26169600 0.04644600
v -0.27392600 -0.27590300 0.04881600
v 0.19038900 -0.26879700 0.04881600
v 0.19038900 -0.28064200 0.00617700
v 0.12166900 -0.28064200 0.03933200
v -0.27392600 -0.26169300 0.04644600
v 0.19038900 -0.27827100 0.04644600
v -0.27392600 -0.25695800 0.02985400
v -0.27392800 0.27844300 0.04643700
v -0.29524000 0.22633100 -0.03882900
v -0.30235100 0.25002200 -0.01988300
v -0.27392800 0.28081700 -0.03646700
v -0.27630200 0.22633100 0.04644600
v -0.30235100 0.27844300 0.01089800
v -0.29524000 0.22633100 0.04644600
v -0.27392800 0.22633100 -0.03882900
v -0.29287200 0.28081700 -0.03646700
v -0.29287200 0.27607500 0.04881600
v -0.30235100 0.27844300 -0.01987400
v -0.29287200 0.25002200 -0.04120800
v -0.27392800 0.24055000 0.04644600
v -0.30235100 0.25002200 0.00853600
v -0.27392800 0.22870500 -0.04120800
v -0.03230500 -0.25458300 -0.04594600
v -0.27392600 -0.25695400 -0.01988900
v -0.27392600 -0.22852600 -0.04120300
v 0.19040800 -0.25695400 -0.01277900
v 0.19040800 -0.22852600 -0.04120600
v 0.19040800 -0.24984200 -0.04120600
v -0.27392600 -0.24984200 -0.01277900
v -0.27392600 -0.24984200 -0.04120300
v 0.16431800 -0.25695400 -0.03172600
v -0.01098800 -0.24037500 -0.04594600
v -0.27392600 -0.25695400 -0.01277900
v 0.19040800 -0.24984200 -0.01277900
v 0.14300200 -0.23326700 -0.04357600
v -0.01098800 -0.25458300 -0.04594600
v 0.19038900 0.26897200 0.04881600
v -0.27392600 0.25239100 -0.01277900
v -0.27392600 0.25239100 -0.00093200
v -0.27392600 0.27844900 -0.01277900
v 0.19038900 0.25239700 -0.01277900
v 0.19038900 0.27844600 -0.01277900
v -0.27392600 0.27844900 0.04644600
v -0.27392600 0.25950300 0.04407700
v 0.19038900 0.28081700 0.03933200
v 0.19038900 0.25950300 0.04407700
v 0.12166900 0.28081700 0.00617700
v 0.19038900 0.25239700 -0.00093200
v 0.19038900 0.27607800 0.04881600
v -0.27392600 0.26897200 0.04881600
v -0.27392600 0.26186800 0.04644600
v -0.27392600 0.27607800 0.04881600
v 0.19038900 0.28081700 0.00617700
v 0.12166900 0.28081700 0.03933200
v 0.19038900 0.27844600 0.04644600
v 0.19038900 0.26187100 0.04644600
v 0.19038900 0.25713200 0.02985400
v -0.27392600 -0.28064500 -0.03647000
v 0.19040800 -0.27827500 -0.01277900
v 0.19040800 -0.27353700 -0.03647000
v -0.27392600 -0.27827500 -0.01277900
v 0.16668200 -0.25695400 -0.02699200
v -0.27392600 -0.27353700 -0.03647000
v 0.19040800 -0.28064500 -0.03647000
v -0.27392600 -0.25695400 -0.01988700
v -0.27392600 -0.28064500 -0.02699200
v 0.19040800 -0.28064500 -0.02699200
f 1 13 15
f 3 2 4
f 3 4 6
f 6 4 7
f 4 2 7
f 5 1 8
f 2 3 9
f 3 6 9
f 7 2 10
f 5 7 10
f 2 9 10
f 7 5 11
f 5 8 11
f 8 7 11
f 1 5 12
f 5 10 12
f 10 9 12
f 6 7 13
f 7 8 13
f 1 9 13
f 9 6 13
f 9 1 14
f 1 12 14
f 12 9 14
f 8 1 15
f 13 8 15
f 19 22 25
f 18 17 19
f 17 18 20
f 19 17 20
f 16 20 21
f 20 18 21
f 19 16 22
f 16 21 22
f 16 19 23
f 20 16 23
f 19 20 23
f 21 18 24
f 18 22 24
f 22 21 24
f 18 19 25
f 22 18 25
f 35 26 38
f 31 30 32
f 30 29 32
f 28 27 33
f 27 29 33
f 29 30 33
f 30 28 33
f 27 28 34
f 28 30 34
f 31 27 34
f 30 31 34
f 27 31 35
f 29 27 36
f 27 35 36
f 35 29 36
f 31 32 37
f 32 26 37
f 26 35 37
f 35 31 37
f 26 32 38
f 32 29 38
f 29 35 38
f 47 44 50
f 41 40 42
f 43 42 44
f 40 41 45
f 43 39 45
f 41 43 45
f 41 42 46
f 42 43 46
f 43 41 46
f 42 40 47
f 40 45 47
f 39 43 48
f 44 39 48
f 43 44 48
f 39 44 49
f 45 39 49
f 44 47 49
f 47 45 49
f 44 42 50
f 42 47 50
f 55 53 57
f 53 52 54
f 52 53 55
f 54 52 55
f 51 54 24
f 55 51 24
f 54 55 24
f 51 53 56
f 53 54 56
f 54 51 56
f 53 51 57
f 51 55 57
f 67 61 72
f 61 58 63
f 59 63 64
f 63 59 65
f 61 63 65
f 63 58 66
f 62 64 66
f 64 63 66
f 62 61 67
f 67 60 68
f 62 67 68
f 58 61 69
f 61 62 69
f 66 58 69
f 62 66 69
f 60 59 70
f 59 64 70
f 68 60 70
f 64 68 70
f 64 62 71
f 62 68 71
f 68 64 71
f 59 60 72
f 65 59 72
f 61 65 72
f 60 67 72
f 78 85 89
f 73 76 77
f 73 77 78
f 76 43 79
f 77 76 80
f 78 77 80
f 76 79 81
f 80 76 81
f 74 79 83
f 43 73 45
f 73 78 45
f 82 43 45
f 78 82 45
f 73 43 84
f 76 73 84
f 43 76 84
f 75 74 85
f 79 43 86
f 43 82 86
f 83 79 86
f 82 83 86
f 74 75 87
f 79 74 87
f 81 79 87
f 78 80 88
f 80 81 88
f 75 85 88
f 85 78 88
f 87 75 88
f 81 87 88
f 82 78 89
f 74 83 89
f 83 82 89
f 85 74 89
f 102 99 110
f 91 92 93
f 91 93 94
f 90 94 95
f 94 93 95
f 94 90 96
f 93 92 97
f 96 90 98
f 95 93 99
f 93 97 99
f 97 92 100
f 92 91 101
f 90 95 102
f 95 99 102
f 98 90 103
f 92 98 104
f 100 92 104
f 98 100 104
f 100 98 105
f 98 103 105
f 91 94 106
f 94 96 106
f 101 91 106
f 96 101 106
f 96 92 107
f 92 101 107
f 101 96 107
f 90 97 108
f 97 100 108
f 103 90 108
f 100 105 108
f 105 103 108
f 92 96 109
f 96 98 109
f 98 92 109
f 97 90 110
f 99 97 110
f 90 102 110
f 122 114 125
f 113 112 117
f 112 115 117
f 114 111 118
f 115 112 118
f 111 114 119
f 116 111 119
f 111 116 120
f 117 115 120
f 116 117 120
f 112 113 121
f 113 116 121
f 116 119 121
f 121 119 122
f 119 114 122
f 112 121 122
f 118 111 123
f 115 118 123
f 111 120 123
f 120 115 123
f 116 113 124
f 113 117 124
f 117 116 124
f 118 112 125
f 114 118 125
f 112 122 125
f 138 131 139
f 128 34 130
f 34 129 130
f 128 127 30
f 34 128 30
f 130 129 131
f 30 127 132
f 34 30 132
f 126 127 133
f 127 128 133
f 128 126 133
f 127 126 134
f 129 127 134
f 131 129 134
f 126 128 135
f 127 129 136
f 129 132 136
f 132 127 136
f 129 34 137
f 34 132 137
f 132 129 137
f 128 130 138
f 130 131 138
f 135 128 138
f 135 138 139
f 134 126 139
f 131 134 139
f 126 135 139
f 151 149 160
f 141 142 143
f 142 141 144
f 141 143 144
f 140 144 145
f 144 143 145
f 143 142 146
f 146 142 147
f 140 145 148
f 144 140 149
f 143 146 150
f 142 144 151
f 144 149 151
f 140 148 152
f 146 147 153
f 140 152 153
f 147 149 154
f 140 153 154
f 153 147 154
f 152 146 155
f 146 153 155
f 153 152 155
f 145 143 156
f 148 145 156
f 143 150 156
f 150 148 156
f 146 148 157
f 150 146 157
f 148 150 157
f 148 146 158
f 146 152 158
f 152 148 158
f 149 140 159
f 140 154 159
f 154 149 159
f 147 142 160
f 149 147 160
f 142 151 160
f 162 169 170
f 162 129 136
f 129 162 163
f 162 136 164
f 136 161 164
f 136 129 165
f 129 163 165
f 165 163 166
f 161 136 166
f 163 161 166
f 161 163 167
f 163 162 167
f 136 165 168
f 165 166 168
f 166 136 168
f 164 161 169
f 162 164 169
f 161 167 169
f 169 167 170
f 167 162 170

