# https://github.com/mikedh/trimesh
v -0.76241600 -0.32706800 0.32538400
v -0.76241600 -0.32706800 0.32538400
v -0.76241600 -0.32706800 0.32538400
v -0.73591300 -0.32706800 -0.36411000
v -0.73591300 -0.32706800 -0.36411000
v -0.73591300 -0.32706800 -0.36411000
v -0.76241600 -0.32706800 -0.36411000
v -0.76241600 -0.32706800 -0.36411000
v -0.76241600 -0.32706800 -0.36411000
v -0.72264300 -0.34032700 0.32538400
v -0.72264300 -0.34032700 0.32538400
v -0.72264300 -0.34032700 0.32538400
v -0.72264300 -0.36684600 0.32538400
v -0.72264300 -0.36684600 0.32538400
v -0.72264300 -0.36684600 0.32538400
v -0.72264300 -0.34032700 -0.36411000
v -0.72264300 -0.34032700 -0.36411000
v -0.72264300 -0.34032700 -0.36411000
v -0.77568100 -0.33590900 -0.36411000
v -0.77568100 -0.33590900 -0.36411000
v -0.77568100 -0.33590900 -0.36411000
v -0.76684000 -0.38010600 -0.36411000
v -0.76684000 -0.38010600 -0.36411000
v -0.76684000 -0.38010600 -0.36411000
v -0.77568100 -0.37126400 0.32538400
v -0.77568100 -0.37126400 0.32538400
v -0.77568100 -0.37126400 0.32538400
v -0.73591300 -0.38010600 -0.36411000
v -0.73591300 -0.38010600 -0.36411000
v -0.73591300 -0.38010600 -0.36411000
v -0.73591300 -0.38010600 0.32538400
v -0.73591300 -0.38010600 0.32538400
v -0.73591300 -0.38010600 0.32538400
v -0.77568100 -0.33590900 0.32538400
v -0.77568100 -0.33590900 0.32538400
v -0.77568100 -0.33590900 0.32538400
v -0.72264300 -0.36684600 -0.36411000
v -0.72264300 -0.36684600 -0.36411000
v -0.72264300 -0.36684600 -0.36411000
v -0.73591300 -0.32706800 0.32538400
v -0.73591300 -0.32706800 0.32538400
v -0.73591300 -0.32706800 0.32538400
v -0.77568100 -0.37126400 -0.36411000
v -0.77568100 -0.37126400 -0.36411000
v -0.77568100 -0.37126400 -0.36411000
v -0.76684000 -0.38010600 0.32538400
v -0.76684000 -0.38010600 0.32538400
v -0.76684000 -0.38010600 0.32538400
v 0.77125200 0.33149100 -0.36411000
v 0.77125200 0.33149100 -0.36411000
v 0.77125200 0.33149100 -0.36411000
v 0.77125200 0.33149100 -0.36411000
v 0.77568100 0.37126400 -0.36411000
v 0.77568100 0.37126400 -0.36411000
v 0.77568100 0.37126400 -0.36411000
v 0.77568100 0.33590900 -0.36411000
v 0.77568100 0.33590900 -0.36411000
v 0.77568100 0.33590900 -0.36411000
v 0.77568100 0.37126400 0.32538400
v 0.77568100 0.37126400 0.32538400
v 0.77568100 0.37126400 0.32538400
v 0.77568100 0.33590900 0.32538400
v 0.77568100 0.33590900 0.32538400
v 0.77568100 0.33590900 0.32538400
v 0.77568100 0.33590900 0.32538400
v 0.72264300 0.36684600 0.32538400
v 0.72264300 0.36684600 0.32538400
v 0.72264300 0.36684600 0.32538400
v 0.72264300 0.34032700 -0.36411000
v 0.72264300 0.34032700 -0.36411000
v 0.72264300 0.34032700 -0.36411000
v 0.73591300 0.38010600 -0.36411000
v 0.73591300 0.38010600 -0.36411000
v 0.73591300 0.38010600 -0.36411000
v 0.73591300 0.32706800 0.32538400
v 0.73591300 0.32706800 0.32538400
v 0.73591300 0.32706800 0.32538400
v 0.76684000 0.38010600 0.32538400
v 0.76684000 0.38010600 0.32538400
v 0.76684000 0.38010600 0.32538400
v 0.73591300 0.32706800 -0.36411000
v 0.73591300 0.32706800 -0.36411000
v 0.73591300 0.32706800 -0.36411000
v 0.73591300 0.32706800 -0.36411000
v 0.73591300 0.38010600 0.32538400
v 0.73591300 0.38010600 0.32538400
v 0.73591300 0.38010600 0.32538400
v 0.72264300 0.36684600 -0.36411000
v 0.72264300 0.36684600 -0.36411000
v 0.72264300 0.36684600 -0.36411000
v 0.72264300 0.34032700 0.32538400
v 0.72264300 0.34032700 0.32538400
v 0.72264300 0.34032700 0.32538400
v 0.76241600 0.32706800 0.32538400
v 0.76241600 0.32706800 0.32538400
v 0.76241600 0.32706800 0.32538400
v 0.76241600 0.32706800 0.32538400
v 0.76684000 0.38010600 -0.36411000
v 0.76684000 0.38010600 -0.36411000
v 0.76684000 0.38010600 -0.36411000
v -0.77125200 0.33149100 0.32538400
v -0.77125200 0.33149100 0.32538400
v -0.77125200 0.33149100 0.32538400
v -0.77125200 0.33149100 0.32538400
v -0.77568100 0.37126400 0.32538400
v -0.77568100 0.37126400 0.32538400
v -0.77568100 0.37126400 0.32538400
v -0.77568100 0.33590900 0.32538400
v -0.77568100 0.33590900 0.32538400
v -0.77568100 0.33590900 0.32538400
v -0.72264300 0.36684600 0.32538400
v -0.72264300 0.36684600 0.32538400
v -0.72264300 0.36684600 0.32538400
v -0.72264300 0.34032700 0.32538400
v -0.72264300 0.34032700 0.32538400
v -0.72264300 0.34032700 0.32538400
v -0.72264300 0.36684600 -0.36411000
v -0.72264300 0.36684600 -0.36411000
v -0.72264300 0.36684600 -0.36411000
v -0.77568100 0.33590900 -0.36411000
v -0.77568100 0.33590900 -0.36411000
v -0.77568100 0.33590900 -0.36411000
v -0.77568100 0.33590900 -0.36411000
v -0.76684000 0.38010600 -0.36411000
v -0.76684000 0.38010600 -0.36411000
v -0.76684000 0.38010600 -0.36411000
v -0.73591300 0.32706800 -0.36411000
v -0.73591300 0.32706800 -0.36411000
v -0.73591300 0.32706800 -0.36411000
v -0.73591300 0.38010600 0.32538400
v -0.73591300 0.38010600 0.32538400
v -0.73591300 0.38010600 0.32538400
v -0.73591300 0.32706800 0.32538400
v -0.73591300 0.32706800 0.32538400
v -0.73591300 0.32706800 0.32538400
v -0.73591300 0.32706800 0.32538400
v -0.73591300 0.38010600 -0.36411000
v -0.73591300 0.38010600 -0.36411000
v -0.73591300 0.38010600 -0.36411000
v -0.72264300 0.34032700 -0.36411000
v -0.72264300 0.34032700 -0.36411000
v -0.72264300 0.34032700 -0.36411000
v -0.76241600 0.32706800 -0.36411000
v -0.76241600 0.32706800 -0.36411000
v -0.76241600 0.32706800 -0.36411000
v -0.76241600 0.32706800 -0.36411000
v -0.77568100 0.37126400 -0.36411000
v -0.77568100 0.37126400 -0.36411000
v -0.77568100 0.37126400 -0.36411000
v -0.76684000 0.38010600 0.32538400
v -0.76684000 0.38010600 0.32538400
v -0.76684000 0.38010600 0.32538400
v -0.80220000 0.40218200 0.32980400
v -0.80220000 0.40218200 0.32980400
v -0.80220000 0.40218200 0.32980400
v -0.80220000 0.40218200 0.32980400
v -0.80220000 0.40218200 0.32980400
v 0.76670400 0.38007200 0.32538400
v 0.76670400 0.38007200 0.32538400
v 0.76670400 0.38007200 0.32538400
v 0.76670400 0.38007200 0.32538400
v -0.76670700 0.38007200 0.32538400
v -0.76670700 0.38007200 0.32538400
v -0.76670700 0.38007200 0.32538400
v 0.80219700 0.17239600 0.36074300
v 0.80219700 0.17239600 0.36074300
v 0.80219700 0.17239600 0.36074300
v 0.80219700 0.40218200 0.36074300
v 0.80219700 0.40218200 0.36074300
v 0.80219700 0.40218200 0.36074300
v -0.80220000 0.40218200 0.36074300
v -0.80220000 0.40218200 0.36074300
v -0.80220000 0.40218200 0.36074300
v -0.80220000 0.17239600 0.36074300
v -0.80220000 0.17239600 0.36074300
v -0.80220000 0.17239600 0.36074300
v -0.80220000 0.17239600 0.32980400
v -0.80220000 0.17239600 0.32980400
v -0.80220000 0.17239600 0.32980400
v -0.80220000 0.17239600 0.32980400
v 0.80219700 0.17239600 0.32980400
v 0.80219700 0.17239600 0.32980400
v 0.80219700 0.17239600 0.32980400
v 0.80219700 0.17239600 0.32980400
v 0.80219700 0.17239600 0.32980400
v -0.77110500 0.33146500 0.32538400
v -0.77110500 0.33146500 0.32538400
v -0.77110500 0.33146500 0.32538400
v -0.77110500 0.33146500 0.32538400
v 0.80219700 0.40218200 0.32980400
v 0.80219700 0.40218200 0.32980400
v 0.80219700 0.40218200 0.32980400
v 0.80219700 0.40218200 0.32980400
v 0.76230700 0.32705600 0.32538400
v 0.76230700 0.32705600 0.32538400
v 0.76230700 0.32705600 0.32538400
v 0.76231000 -0.32706400 0.32538400
v 0.76231000 -0.32706400 0.32538400
v -0.77565900 -0.37121500 0.32538400
v -0.77565900 -0.37121500 0.32538400
v -0.77565900 -0.37121500 0.32538400
v -0.77565900 -0.37121500 0.32538400
v -0.76231000 -0.32706400 0.32538400
v -0.76231000 -0.32706400 0.32538400
v 0.80220000 -0.40220500 0.36074300
v 0.80220000 -0.40220500 0.36074300
v 0.80220000 -0.40220500 0.36074300
v 0.80220000 0.17237400 0.36074300
v 0.80220000 0.17237400 0.36074300
v 0.80220000 0.17237400 0.36074300
v -0.80220000 0.17237400 0.36074300
v -0.80220000 0.17237400 0.36074300
v -0.80220000 0.17237400 0.36074300
v 0.80220000 0.17237400 0.32980400
v 0.80220000 0.17237400 0.32980400
v 0.80220000 0.17237400 0.32980400
v 0.80220000 0.17237400 0.32980400
v 0.80220000 0.17237400 0.32980400
v -0.80220000 -0.40220500 0.36074300
v -0.80220000 -0.40220500 0.36074300
v -0.80220000 -0.40220500 0.36074300
v -0.80220000 0.17237400 0.32980400
v -0.80220000 0.17237400 0.32980400
v -0.80220000 0.17237400 0.32980400
v -0.80220000 0.17237400 0.32980400
v -0.80220000 0.17237400 0.32980400
v -0.80220000 -0.40220500 0.32980400
v -0.80220000 -0.40220500 0.32980400
v -0.80220000 -0.40220500 0.32980400
v -0.80220000 -0.40220500 0.32980400
v -0.80220000 -0.40220500 0.32980400
v 0.76670700 -0.38010100 0.32538400
v 0.76670700 -0.38010100 0.32538400
v 0.76670700 -0.38010100 0.32538400
v 0.76670700 -0.38010100 0.32538400
v 0.76670700 -0.38010100 0.32538400
v 0.80220000 -0.40220500 0.32980400
v 0.80220000 -0.40220500 0.32980400
v 0.80220000 -0.40220500 0.32980400
v 0.80220000 -0.40220500 0.32980400
v 0.76241600 -0.32706800 -0.36411000
v 0.76241600 -0.32706800 -0.36411000
v 0.76241600 -0.32706800 -0.36411000
v 0.73591300 -0.32706800 0.32538400
v 0.73591300 -0.32706800 0.32538400
v 0.73591300 -0.32706800 0.32538400
v 0.76241600 -0.32706800 0.32538400
v 0.76241600 -0.32706800 0.32538400
v 0.76241600 -0.32706800 0.32538400
v 0.77568100 -0.33590900 0.32538400
v 0.77568100 -0.33590900 0.32538400
v 0.77568100 -0.33590900 0.32538400
v 0.77568100 -0.37126400 0.32538400
v 0.77568100 -0.37126400 0.32538400
v 0.77568100 -0.37126400 0.32538400
v 0.77568100 -0.33590900 -0.36411000
v 0.77568100 -0.33590900 -0.36411000
v 0.77568100 -0.33590900 -0.36411000
v 0.72264300 -0.34032700 -0.36411000
v 0.72264300 -0.34032700 -0.36411000
v 0.72264300 -0.34032700 -0.36411000
v 0.76684000 -0.38010600 -0.36411000
v 0.76684000 -0.38010600 -0.36411000
v 0.76684000 -0.38010600 -0.36411000
v 0.72264300 -0.36684600 0.32538400
v 0.72264300 -0.36684600 0.32538400
v 0.72264300 -0.36684600 0.32538400
v 0.73591300 -0.38010600 -0.36411000
v 0.73591300 -0.38010600 -0.36411000
v 0.73591300 -0.38010600 -0.36411000
v 0.73591300 -0.38010600 0.32538400
v 0.73591300 -0.38010600 0.32538400
v 0.73591300 -0.38010600 0.32538400
v 0.72264300 -0.34032700 0.32538400
v 0.72264300 -0.34032700 0.32538400
v 0.72264300 -0.34032700 0.32538400
v 0.72264300 -0.36684600 -0.36411000
v 0.72264300 -0.36684600 -0.36411000
v 0.72264300 -0.36684600 -0.36411000
v 0.73591300 -0.32706800 -0.36411000
v 0.73591300 -0.32706800 -0.36411000
v 0.73591300 -0.32706800 -0.36411000
v 0.77568100 -0.37126400 -0.36411000
v 0.77568100 -0.37126400 -0.36411000
v 0.77568100 -0.37126400 -0.36411000
v 0.76684000 -0.38010600 0.32538400
v 0.76684000 -0.38010600 0.32538400
v 0.76684000 -0.38010600 0.32538400
f 1 6 8
f 12 13 18
f 19 17 22
f 14 11 27
f 27 11 2
f 22 17 29
f 10 16 5
f 17 19 4
f 14 27 31
f 28 15 32
f 23 30 33
f 20 26 35
f 3 21 36
f 27 2 34
f 18 13 38
f 15 28 39
f 29 17 37
f 2 11 41
f 10 5 42
f 6 1 40
f 19 22 44
f 24 25 43
f 26 20 45
f 25 24 48
f 31 27 46
f 23 33 47
f 21 3 9
f 4 19 7
f 49 54 58
f 60 62 53
f 63 59 68
f 54 71 74
f 71 54 49
f 63 68 75
f 61 55 79
f 68 59 80
f 71 49 82
f 76 70 83
f 73 67 85
f 68 80 87
f 78 72 86
f 69 66 89
f 67 73 90
f 74 71 88
f 66 69 93
f 70 76 92
f 75 68 91
f 51 64 94
f 63 75 95
f 81 52 96
f 77 84 97
f 54 74 98
f 79 55 99
f 72 78 100
f 53 62 56
f 65 50 57
f 101 106 108
f 111 115 119
f 116 112 106
f 117 121 125
f 116 106 101
f 121 117 128
f 113 118 131
f 106 112 132
f 116 101 136
f 127 114 135
f 117 125 138
f 131 118 139
f 126 130 137
f 119 115 140
f 114 127 142
f 128 117 141
f 104 122 146
f 121 128 144
f 133 103 143
f 129 134 145
f 120 107 148
f 105 124 149
f 125 121 147
f 124 105 152
f 106 132 150
f 130 126 151
f 107 120 109
f 123 102 110
f 153 159 164
f 167 169 172
f 167 172 175
f 179 166 174
f 173 180 176
f 168 165 181
f 166 179 182
f 171 170 156
f 180 173 154
f 189 178 155
f 168 181 191
f 183 160 193
f 156 170 190
f 159 153 192
f 188 158 195
f 177 187 196
f 161 184 194
f 185 177 196
f 158 188 163
f 186 157 162
f 197 200 203
f 207 210 212
f 208 205 218
f 213 209 217
f 207 212 221
f 213 217 224
f 220 211 225
f 220 225 230
f 206 219 228
f 199 235 229
f 226 202 231
f 227 236 239
f 218 205 238
f 234 214 240
f 206 228 237
f 233 200 197
f 216 232 198
f 223 215 197
f 223 197 203
f 201 222 204
f 241 244 248
f 251 254 258
f 261 256 262
f 253 252 266
f 266 252 246
f 261 262 268
f 265 269 273
f 253 266 271
f 270 263 272
f 250 257 243
f 256 261 242
f 260 267 276
f 245 259 275
f 266 246 274
f 267 260 277
f 261 268 278
f 269 265 279
f 259 245 282
f 242 261 281
f 244 241 280
f 258 254 283
f 262 256 284
f 255 264 285
f 264 255 288
f 253 271 286
f 272 263 287
f 246 252 247
f 250 243 249

