# https://github.com/mikedh/trimesh

o convex_0
v -0.25847700 0.19189300 -0.23872700
v -0.27625500 -0.14003300 -0.97374600
v -0.28811200 0.19189300 -0.97374600
v -0.25847700 0.20969400 -0.97374600
v -0.28811200 0.20969400 -0.23872700
v -0.26440400 -0.14003300 -0.23872700
v -0.25847700 -0.14003300 -0.97374600
v -0.27625500 -0.14003300 -0.23872700
v -0.25847700 0.20969400 -0.23872700
v -0.28811200 0.20969400 -0.97374600
v -0.28811200 0.19189300 -0.23872700
v -0.26440600 -0.14003300 0.33612000
v -0.28811200 -0.19338100 -0.97368600
v -0.28811200 -0.16966800 -0.97368600
v -0.25847700 -0.19338100 -0.97368600
v -0.28811200 -0.19338100 0.33612000
v -0.25847700 -0.14003300 -0.97368600
v -0.25847700 -0.19338100 0.33612000
v -0.27625100 -0.14003300 0.33612000
v -0.27625100 -0.14003300 -0.97368600
v -0.28811200 -0.16966800 0.33612000
v -0.25847700 -0.16966800 0.33612000
v 0.27500800 0.20969400 0.75710600
v -0.24661900 0.19191100 0.27697300
v -0.23472200 0.18598400 0.41923600
v 0.27500800 0.19191100 0.27697300
v -0.24661900 0.20969400 0.27697300
v -0.24661900 0.19191100 0.75710600
v 0.27500800 0.19191100 0.75710600
v -0.24661900 0.20969400 0.75710600
v 0.27500800 0.20969400 0.27697300
v 0.26903400 0.18598400 0.46665700
v 0.26903400 0.18598400 0.41923600
v -0.23472200 0.18598400 0.46665700
v -0.27624900 -0.14003300 1.16012900
v -0.28810300 -0.19338100 0.33624800
v -0.24069600 -0.19338100 0.33624800
v -0.27624400 -0.14003300 0.33624800
v -0.28810700 -0.19338100 1.16012900
v -0.24069600 -0.16966800 0.77488300
v -0.25848200 -0.19338100 1.16012900
v -0.25848200 -0.14003300 1.16012900
v -0.24069600 -0.16966800 0.33624800
v -0.28810700 -0.16966800 0.77488300
v -0.26439900 -0.14003300 0.33624800
v -0.24069600 -0.19338100 0.77488300
v -0.28810300 -0.16966800 0.33624800
v -0.28810700 -0.16966800 1.16012900
v -0.25848200 -0.14003300 0.78077000
v 0.26905100 -0.14597000 0.44294600
v -0.24069100 -0.19338100 0.33624800
v -0.24069100 -0.19338100 0.77488900
v -0.23473500 -0.14003300 0.42517000
v 0.27500800 -0.19338100 0.33624800
v 0.27500800 -0.16966800 0.77488900
v 0.27500800 -0.19338100 0.77488900
v -0.24069100 -0.16966800 0.77488900
v 0.27500800 -0.16966800 0.33624800
v 0.23936900 -0.14003300 0.44891400
v -0.24069100 -0.16966800 0.33624800
v -0.23473500 -0.14003300 0.44891400
v 0.23936900 -0.14003300 0.43109500
v -0.25847600 0.15041800 1.16018200
v -0.27625700 -0.14003300 -0.23872700
v -0.27625700 0.15041800 -0.23872700
v -0.27625700 0.15041800 1.16018200
v -0.27625700 -0.14003300 1.16018200
v -0.26440300 -0.14003300 -0.23872700
v -0.25847600 -0.14003300 1.16018200
v -0.26440300 0.15041800 -0.23872700
v -0.25847600 -0.14003300 0.78074000
v -0.25847600 0.15041800 0.78074000
v 0.23939400 -0.14003300 -0.92631600
v -0.25847400 -0.19338100 -0.97374600
v -0.25847400 -0.19338100 -0.81962900
v 0.27500800 -0.19338100 -0.97374600
v -0.25847400 -0.14003300 -0.97374600
v 0.27500800 -0.19338100 -0.81962900
v -0.25847400 -0.16966800 -0.81962900
v 0.27500800 -0.14003300 -0.97374600
v 0.27500800 -0.16966800 -0.81962900
v -0.23466200 -0.14003300 -0.92631600
v 0.26905500 -0.14597000 -0.22683700
v -0.25847400 -0.19338100 -0.35724700
v -0.25847400 -0.19338100 -0.03722000
v -0.23471400 -0.14003300 -0.24463000
v 0.27500800 -0.19338100 -0.35724700
v 0.27500800 -0.16966800 -0.03722000
v 0.27500800 -0.19338100 -0.03722000
v 0.27500800 -0.16966800 -0.35724700
v -0.25847400 -0.16966800 -0.03722000
v -0.25847400 -0.16966800 -0.35724700
v 0.23939400 -0.14003300 -0.22091600
v 0.23939400 -0.14003300 -0.24463000
v -0.23471400 -0.14003300 -0.22091600
v 0.26900200 0.16228900 -0.22684400
v -0.25847400 0.19190800 -0.25649200
v -0.23461000 0.16228900 -0.25056900
v -0.24656800 0.20969400 -0.08462600
v 0.27500800 0.20969400 -0.25649200
v 0.27500800 0.19190800 -0.08462600
v -0.23471400 0.15634600 -0.22093800
v -0.25847400 0.20969400 -0.25649200
v 0.27500800 0.20969400 -0.08462600
v -0.24656800 0.19190800 -0.08462600
v 0.23939400 0.15634600 -0.24464700
v 0.23939400 0.15634600 -0.22093800
v 0.26905500 0.16228900 -0.25056900
v 0.27500800 0.19190800 -0.25649200
v -0.23461000 0.15634600 -0.24464700
v 0.27500800 -0.14003300 0.80453900
v -0.25847400 -0.19338100 0.77488900
v -0.25847400 -0.16966800 0.77488900
v -0.25847400 -0.19338100 0.89344100
v 0.27500800 -0.19338100 0.89344100
v -0.25847400 -0.16966800 0.89344100
v -0.25847400 -0.14003300 0.78083100
v 0.27500800 -0.16966800 0.89344100
v 0.27500800 -0.14003300 0.78083100
v -0.25847400 -0.14003300 0.80453900
v 0.22163500 0.17412700 0.14656600
v -0.23476400 0.16227900 0.09914500
v -0.23476400 0.15634600 0.11100500
v 0.26908000 0.16227900 0.09914500
v -0.23476400 0.18598400 0.09914500
v -0.20512300 0.18005100 0.14656600
v 0.26908000 0.18598400 0.09914500
v 0.23943900 0.15634600 0.12878300
v -0.20512300 0.16820300 0.14656600
v -0.05095200 0.18598400 0.13470600
v -0.23476400 0.15634600 0.12878300
v 0.23943900 0.18005100 0.14063800
v 0.23943900 0.15634600 0.11100500
v 0.27500100 0.15041800 -0.95003800
v 0.27500100 -0.14003300 -0.95003800
v 0.27500100 0.15041800 -0.97374600
v -0.25847400 0.15041800 -0.95003800
v 0.27500100 -0.14003300 -0.97374600
v -0.25847400 -0.14003300 -0.95003800
v -0.25847400 0.15041800 -0.97374600
v 0.27498900 -0.14003400 -0.65958400
v 0.26315300 -0.16373600 -0.72478800
v 0.26315300 -0.14003400 -0.72478800
v 0.19202200 -0.14003400 -0.67738500
v 0.28686300 -0.16373600 -0.65958400
v 0.20388600 -0.16373600 -0.70698700
v 0.23944200 -0.11632700 -0.70107700
v 0.28686300 -0.15188300 -0.71884600
v 0.19797200 -0.14003400 -0.70698700
v 0.25129700 -0.11632700 -0.67737200
v 0.20388600 -0.16373600 -0.67738500
v 0.27500800 0.20969400 -0.69515000
v -0.25847400 0.15041800 -0.94999300
v -0.25847400 0.20969400 -0.97374600
v 0.27500800 0.15041800 -0.97374600
v -0.25847400 0.19191000 -0.69515000
v 0.27500800 0.20969400 -0.97374600
v 0.27500800 0.19191000 -0.69515000
v -0.25847400 0.20969400 -0.69515000
v 0.27500800 0.15041800 -0.94999300
v -0.24662300 0.20969400 0.75692800
v -0.27624900 0.15041800 -0.23862900
v -0.28810400 0.19191000 -0.23862900
v -0.28811200 0.19191000 1.16016300
v -0.25847800 0.15041800 1.16016300
v -0.24662300 0.19191000 -0.23862900
v -0.28810400 0.20969400 -0.23862900
v -0.28811200 0.20969400 1.16016300
v -0.27624900 0.15041800 1.16016300
v -0.24662300 0.20969400 -0.23862900
v -0.25847800 0.20969400 1.16016300
v -0.26440700 0.15041800 -0.23862900
v -0.24662300 0.19191000 0.75692800
v -0.25847800 0.15041800 0.78075300
v 0.26903400 -0.16374600 -0.56480900
v -0.25847400 -0.19338100 -0.81953900
v -0.25847400 -0.19338100 -0.35727800
v 0.27495900 -0.19338100 -0.35727800
v -0.25847400 -0.16967500 -0.35727800
v 0.27495900 -0.19338100 -0.81953900
v -0.25847400 -0.16967500 -0.81953900
v 0.27495900 -0.16967500 -0.81953900
v 0.27495900 -0.16967500 -0.35727800
v -0.23472000 -0.16374600 -0.57073700
v 0.28686300 -0.16374600 -0.70694900
v -0.06875900 -0.16374600 -0.53516800
v 0.28686300 -0.18744900 -0.67730800
v 0.26310900 -0.16374600 -0.72473300
v 0.26903400 -0.16374600 0.11100200
v -0.25847400 -0.19338100 -0.03718900
v -0.25847400 -0.19338100 0.33624800
v 0.27495900 -0.19338100 0.33624800
v -0.25847400 -0.16967500 0.33624800
v 0.27495900 -0.19338100 -0.03718900
v -0.25847400 -0.16967500 -0.03718900
v 0.27495900 -0.16967500 0.33624800
v 0.27495900 -0.16967500 -0.03718900
v -0.23472000 -0.16374600 0.09919500
v 0.28686300 -0.16374600 0.03990400
v -0.07468400 -0.16374600 0.13476200
v 0.26310900 -0.16374600 0.02213900
v 0.28686300 -0.18744900 0.06954900
v 0.28686300 -0.16374600 1.08901200
v -0.25847400 -0.19338100 1.16012900
v -0.25847400 -0.16374600 1.13642400
v 0.27495900 -0.19338100 1.16012900
v 0.27495900 -0.16967500 0.89344100
v 0.27495900 -0.19338100 0.89344100
v -0.25847400 -0.16967500 0.89344100
v 0.27495900 -0.16374600 1.16012900
v -0.25847400 -0.16374600 1.16012900
v 0.26310900 -0.16374600 1.04160100
v 0.28686300 -0.18744900 1.05938000
v 0.16832300 -0.16373600 0.09911900
v 0.28685100 -0.15188300 0.08136600
v 0.28685100 -0.16373600 0.08136600
v 0.26313600 -0.16373600 0.02208700
v 0.23944500 -0.11632700 0.03987700
v 0.23943300 -0.14596100 0.14060800
v 0.16832300 -0.14003400 0.12875200
v 0.19203800 -0.14003400 0.03987700
v 0.17426300 -0.16373600 0.13471000
v 0.25129000 -0.11632700 0.06358800
v 0.27498200 -0.14003400 0.02208700
v 0.20388400 -0.16373600 0.03987700
v 0.23943300 -0.16373600 0.13471000
v 0.26905300 -0.14596100 0.12283000
v -0.25847400 -0.14003300 0.78081700
v 0.27500100 0.15041800 0.80452700
v 0.27500100 -0.14003300 0.80452700
v 0.27500100 0.15041800 0.78081700
v -0.25847400 0.15041800 0.80452700
v 0.27500100 -0.14003300 0.78081700
v -0.25847400 -0.14003300 0.80452700
v -0.25847400 0.15041800 0.78081700
v 0.19795300 -0.14003400 1.05942000
v 0.28686300 -0.15188300 1.10090600
v 0.27497800 -0.14003400 1.16018200
v 0.18016700 -0.16373600 1.16018200
v 0.23943600 -0.11632700 1.08905800
v 0.27497800 -0.16373600 1.04163000
v 0.18016700 -0.14003400 1.16018200
v 0.27497800 -0.16373600 1.16018200
v 0.26314400 -0.12225900 1.05942000
v 0.20390600 -0.16373600 1.05942000
v 0.23943600 -0.11632700 1.05942000
v 0.27497800 -0.14003400 1.04163000
v -0.25847400 -0.16374100 1.13647100
v 0.27500100 0.15041800 1.16018200
v 0.27500100 -0.14003100 1.16018200
v -0.25847400 -0.16374100 1.16018200
v -0.25847400 0.15041800 1.16018200
v 0.27500100 0.15041800 1.13647100
v -0.25847400 0.15041800 1.13647100
v 0.27500100 -0.14003100 1.13647100
v 0.18011800 -0.16374100 1.16018200
v 0.18011800 -0.16374100 1.13647100
v 0.26905500 0.18598400 -0.52323200
v -0.25847400 0.19191100 -0.69515000
v -0.25847400 0.19191100 -0.25650900
v 0.27500800 0.20969400 -0.25650900
v -0.25847400 0.20969400 -0.25650900
v 0.27500800 0.19191100 -0.25650900
v 0.27500800 0.19191100 -0.69515000
v -0.23466200 0.18598400 -0.57063400
v 0.26905500 0.18598400 -0.57063400
v -0.23466200 0.18598400 -0.52323200
v -0.25847400 0.15041800 1.13647400
v 0.27500800 0.20969400 1.16018200
v 0.27500800 0.20969400 1.13054400
v 0.27500800 0.15041800 1.16018200
v -0.25847400 0.20969400 1.16018200
v -0.25847400 0.20969400 1.13054400
v 0.27500800 0.15041800 1.13647400
v 0.27500800 0.19191000 1.13054400
v -0.25847400 0.19191000 1.13054400
v -0.25847400 0.15041800 0.78082500
v 0.27500800 0.20969400 0.81045500
v -0.25847400 0.20969400 0.81045500
v 0.27500800 0.15041800 0.80451700
v -0.25847400 0.20969400 0.75710600
v 0.27500800 0.15041800 0.78082500
v -0.25847400 0.15041800 0.80451700
v 0.27500800 0.19191000 0.75710600
v -0.25847400 0.19191000 0.75710600
v 0.27500800 0.19191000 0.81045500
v -0.25847400 0.19191000 0.81045500
v 0.22750400 -0.15188700 -0.52918600
v -0.23476400 -0.16374100 -0.57067100
v -0.23476400 -0.16374100 -0.54104000
v -0.23476400 -0.14003300 -0.54104000
v 0.26908000 -0.14596200 -0.57067100
v 0.26908000 -0.16374100 -0.57067100
v -0.23476400 -0.14003300 -0.56473900
v 0.23943900 -0.14003300 -0.54104000
v -0.20512300 -0.14596200 -0.52325500
v 0.23943900 -0.16374100 -0.53511300
v -0.20512300 -0.15781400 -0.52325500
v 0.23943900 -0.14003300 -0.56473900
v -0.23476400 -0.14596200 -0.57067100
v -0.02730800 -0.14596200 0.14656600
v -0.23476400 -0.16374100 0.09914500
v -0.23476400 -0.16374100 0.12878300
v 0.16831100 -0.16374100 0.09914500
v -0.23476400 -0.14003300 0.10507300
v 0.16831100 -0.14003300 0.11100500
v 0.16831100 -0.16374100 0.12878300
v -0.20505400 -0.15781400 0.14656600
v -0.23476400 -0.14003300 0.12878300
v 0.16831100 -0.14596200 0.09914500
v 0.16831100 -0.14003300 0.12878300
v 0.22163500 0.17412700 0.46665500
v -0.23476400 0.16227900 0.41923500
v -0.23476400 0.15634600 0.43109000
v 0.26908000 0.16227900 0.41923500
v -0.23476400 0.18598400 0.41923500
v -0.20512300 0.18005100 0.46665500
v 0.26908000 0.18598400 0.41923500
v 0.23943900 0.15634600 0.44886800
v -0.20512300 0.16820300 0.46665500
v -0.05095200 0.18598400 0.45480000
v -0.23476400 0.15634600 0.44886800
v 0.26908000 0.18598400 0.43109000
v 0.23943900 0.15634600 0.43109000
v -0.24661900 0.19191100 -0.08461000
v -0.23472200 0.18598400 0.09911900
v 0.27500800 0.20969400 -0.08461000
v 0.26903400 0.18598400 0.14651100
v -0.24661900 0.20969400 -0.08461000
v 0.27500800 0.19191100 -0.08461000
v -0.23472200 0.18598400 0.14651100
v 0.26903400 0.18598400 0.09911900
v 0.27500800 0.20969400 1.13051100
v -0.25847400 0.19191100 0.81045500
v -0.25847400 0.19191100 1.13051100
v 0.27500800 0.19191100 0.81045500
v -0.25847400 0.20969400 1.13051100
v 0.27500800 0.19191100 1.13051100
v 0.22750400 0.17412700 -0.52918600
v -0.23476400 0.16227900 -0.57067100
v -0.23476400 0.15634600 -0.56473900
v -0.20512300 0.18005100 -0.52325500
v 0.26908000 0.18598400 -0.57067100
v 0.23943900 0.15634600 -0.54104000
v -0.23476400 0.18598400 -0.57067100
v 0.26908000 0.16227900 -0.57067100
v -0.23476400 0.15634600 -0.54104000
v -0.05095200 0.18598400 -0.53511300
v -0.02727800 0.16820300 -0.52325500
v 0.23943900 0.18005100 -0.53511300
v 0.23943900 0.15634600 -0.56473900
f 8 5 11
f 2 3 4
f 1 5 6
f 2 4 7
f 4 1 7
f 6 2 7
f 1 6 7
f 3 2 8
f 2 6 8
f 6 5 8
f 1 4 9
f 5 1 9
f 4 5 9
f 4 3 10
f 5 4 10
f 3 5 10
f 5 3 11
f 3 8 11
f 12 18 22
f 13 14 15
f 14 13 16
f 13 15 16
f 15 14 17
f 15 17 18
f 12 16 18
f 16 15 18
f 16 12 19
f 12 17 19
f 19 17 20
f 17 14 20
f 14 19 20
f 14 16 21
f 16 19 21
f 19 14 21
f 17 12 22
f 18 17 22
f 32 28 34
f 25 24 26
f 26 24 27
f 27 24 28
f 24 25 28
f 23 28 29
f 26 23 29
f 23 27 30
f 27 28 30
f 28 23 30
f 23 26 31
f 27 23 31
f 26 27 31
f 29 28 32
f 26 29 32
f 25 26 33
f 32 25 33
f 26 32 33
f 28 25 34
f 25 32 34
f 43 45 49
f 37 36 38
f 36 37 39
f 35 39 41
f 39 37 41
f 41 40 42
f 38 35 42
f 35 41 42
f 37 38 43
f 40 37 43
f 42 40 43
f 35 38 44
f 36 39 44
f 38 42 45
f 43 38 45
f 37 40 46
f 41 37 46
f 40 41 46
f 38 36 47
f 36 44 47
f 44 38 47
f 39 35 48
f 35 44 48
f 44 39 48
f 42 43 49
f 45 42 49
f 53 59 62
f 52 51 54
f 54 55 56
f 52 54 56
f 55 52 56
f 51 52 57
f 52 55 57
f 54 51 58
f 50 55 58
f 55 54 58
f 55 50 59
f 57 55 59
f 51 57 60
f 57 53 60
f 58 51 60
f 53 58 60
f 53 57 61
f 59 53 61
f 57 59 61
f 58 53 62
f 50 58 62
f 59 50 62
f 63 71 72
f 65 64 66
f 63 65 66
f 63 66 67
f 66 64 67
f 67 64 68
f 64 65 68
f 63 67 69
f 67 68 69
f 65 63 70
f 68 65 70
f 68 70 71
f 63 69 71
f 69 68 71
f 70 63 72
f 71 70 72
f 77 79 82
f 75 74 76
f 74 75 77
f 76 74 77
f 75 76 78
f 77 75 79
f 75 78 79
f 77 73 80
f 76 77 80
f 78 76 80
f 78 80 81
f 73 79 81
f 79 78 81
f 80 73 81
f 73 77 82
f 79 73 82
f 91 93 95
f 85 84 87
f 87 88 89
f 85 87 89
f 88 85 89
f 87 84 90
f 83 88 90
f 88 87 90
f 84 85 91
f 85 88 91
f 90 84 92
f 86 90 92
f 84 91 92
f 91 86 92
f 88 83 93
f 91 88 93
f 90 86 94
f 83 90 94
f 93 83 94
f 86 93 94
f 86 91 95
f 93 86 95
f 106 102 110
f 97 99 103
f 99 100 103
f 100 97 103
f 100 99 104
f 99 101 104
f 101 100 104
f 99 97 105
f 101 99 105
f 97 102 105
f 102 101 105
f 102 106 107
f 96 101 107
f 101 102 107
f 98 97 108
f 101 96 108
f 106 98 108
f 107 106 108
f 96 107 108
f 97 100 109
f 100 101 109
f 108 97 109
f 101 108 109
f 97 98 110
f 102 97 110
f 98 106 110
f 113 119 55
f 113 112 114
f 112 113 56
f 114 112 56
f 56 111 115
f 114 56 115
f 113 114 116
f 114 115 116
f 113 116 117
f 115 111 118
f 111 116 118
f 116 115 118
f 111 56 119
f 117 111 119
f 113 117 119
f 116 111 120
f 111 117 120
f 117 116 120
f 56 113 55
f 119 56 55
f 128 123 133
f 123 122 124
f 122 123 125
f 124 122 125
f 124 125 127
f 121 126 129
f 128 121 129
f 125 126 130
f 127 125 130
f 125 123 131
f 126 125 131
f 123 128 131
f 129 126 131
f 128 129 131
f 126 121 132
f 124 127 132
f 128 124 132
f 121 128 132
f 130 126 132
f 127 130 132
f 123 124 133
f 124 128 133
f 137 136 140
f 134 135 136
f 135 134 137
f 134 136 137
f 135 77 138
f 136 135 138
f 77 136 138
f 77 135 139
f 137 77 139
f 135 137 139
f 136 77 140
f 77 137 140
f 144 146 151
f 142 145 146
f 143 147 148
f 142 143 148
f 141 145 148
f 145 142 148
f 143 142 149
f 142 146 149
f 146 144 149
f 144 147 149
f 147 143 149
f 144 141 150
f 147 144 150
f 148 147 150
f 141 148 150
f 141 144 151
f 145 141 151
f 146 145 151
f 158 153 160
f 140 153 154
f 153 140 155
f 140 154 155
f 154 153 156
f 154 152 157
f 152 155 157
f 155 154 157
f 155 152 158
f 156 153 158
f 152 156 158
f 152 154 159
f 154 156 159
f 156 152 159
f 153 155 160
f 155 158 160
f 172 166 174
f 163 162 164
f 162 163 166
f 166 163 167
f 163 164 167
f 161 167 168
f 164 165 168
f 167 164 168
f 164 162 169
f 165 164 169
f 162 165 169
f 161 166 170
f 166 167 170
f 167 161 170
f 165 161 171
f 161 168 171
f 168 165 171
f 165 162 172
f 162 166 172
f 161 165 173
f 165 166 173
f 166 161 173
f 166 165 174
f 165 172 174
f 184 185 188
f 177 176 178
f 176 177 179
f 177 178 179
f 178 176 180
f 176 179 181
f 180 176 181
f 180 181 182
f 179 178 183
f 181 179 184
f 180 182 185
f 175 183 185
f 184 175 185
f 183 175 186
f 179 183 186
f 175 184 186
f 184 179 186
f 178 180 187
f 183 178 187
f 180 185 187
f 185 183 187
f 182 181 188
f 181 184 188
f 185 182 188
f 199 196 202
f 191 190 192
f 190 191 193
f 191 192 193
f 192 190 194
f 190 193 195
f 194 190 195
f 193 192 196
f 194 195 197
f 195 193 198
f 189 196 199
f 194 197 199
f 198 189 199
f 196 189 200
f 193 196 200
f 189 198 200
f 198 193 200
f 197 195 201
f 195 198 201
f 199 197 201
f 198 199 201
f 192 194 202
f 196 192 202
f 194 199 202
f 208 207 213
f 114 204 205
f 204 114 206
f 206 114 208
f 114 207 208
f 114 205 209
f 207 114 209
f 203 205 210
f 206 203 210
f 204 206 210
f 205 204 211
f 204 210 211
f 210 205 211
f 205 203 212
f 203 207 212
f 209 205 212
f 207 209 212
f 203 206 213
f 207 203 213
f 206 208 213
f 219 226 227
f 216 214 217
f 214 220 221
f 220 218 221
f 214 216 222
f 220 214 222
f 219 220 222
f 218 220 223
f 220 219 223
f 215 216 224
f 216 217 224
f 217 221 224
f 221 218 224
f 223 215 224
f 218 223 224
f 217 214 225
f 214 221 225
f 221 217 225
f 222 216 226
f 219 222 226
f 216 215 227
f 215 223 227
f 223 219 227
f 226 216 227
f 232 231 235
f 229 230 231
f 230 229 232
f 229 231 232
f 230 228 233
f 231 230 233
f 228 231 233
f 228 230 234
f 232 228 234
f 230 232 234
f 231 228 235
f 228 232 235
f 236 246 247
f 239 238 242
f 236 239 242
f 238 240 242
f 237 238 243
f 238 239 243
f 241 237 243
f 239 241 243
f 238 237 244
f 240 238 244
f 239 236 245
f 241 239 245
f 236 241 245
f 236 242 246
f 242 240 246
f 240 244 246
f 246 244 247
f 237 241 247
f 241 236 247
f 244 237 247
f 256 248 257
f 250 249 251
f 248 251 252
f 251 249 252
f 252 249 253
f 249 250 253
f 248 252 254
f 252 253 254
f 253 248 254
f 248 253 255
f 253 250 255
f 250 251 256
f 251 248 256
f 255 250 256
f 255 256 257
f 248 255 257
f 260 265 267
f 159 259 260
f 159 261 152
f 259 159 152
f 159 260 262
f 260 261 262
f 261 159 262
f 260 258 263
f 261 260 263
f 152 261 263
f 152 263 264
f 259 152 264
f 263 258 264
f 260 259 265
f 259 264 265
f 264 258 266
f 258 265 266
f 265 264 266
f 258 260 267
f 265 258 267
f 273 275 276
f 270 269 271
f 269 270 272
f 271 269 272
f 268 272 273
f 272 270 273
f 268 271 252
f 272 268 252
f 271 272 252
f 270 271 274
f 271 268 274
f 273 270 275
f 274 268 275
f 270 274 275
f 268 273 276
f 275 268 276
f 286 279 287
f 278 23 279
f 23 278 280
f 279 23 281
f 277 279 281
f 280 277 282
f 23 280 282
f 279 277 283
f 277 280 283
f 281 23 284
f 282 277 284
f 23 282 284
f 277 281 285
f 284 277 285
f 281 284 285
f 278 279 286
f 280 278 286
f 283 280 286
f 283 286 287
f 279 283 287
f 294 292 300
f 289 290 291
f 289 292 293
f 290 289 293
f 289 291 294
f 294 291 295
f 291 290 296
f 288 295 296
f 295 291 296
f 293 292 297
f 290 293 297
f 292 295 297
f 295 288 297
f 288 296 298
f 296 290 298
f 290 297 298
f 297 288 298
f 292 294 299
f 295 292 299
f 294 295 299
f 292 289 300
f 289 294 300
f 306 309 311
f 303 302 304
f 302 303 305
f 303 304 307
f 304 306 307
f 307 301 308
f 303 307 308
f 305 303 309
f 306 305 309
f 308 301 309
f 303 308 309
f 304 302 310
f 302 305 310
f 306 304 310
f 305 306 310
f 301 307 311
f 307 306 311
f 309 301 311
f 319 314 324
f 314 313 315
f 313 314 316
f 315 313 316
f 315 316 318
f 312 317 320
f 319 312 320
f 317 312 321
f 316 317 321
f 318 316 321
f 316 314 322
f 317 316 322
f 314 319 322
f 320 317 322
f 319 320 322
f 315 318 323
f 319 315 323
f 312 319 323
f 321 312 323
f 318 321 323
f 314 315 324
f 315 319 324
f 330 328 332
f 27 31 327
f 325 27 329
f 27 327 329
f 327 325 329
f 325 326 24
f 27 325 24
f 31 27 24
f 326 325 330
f 327 31 330
f 325 327 330
f 328 330 26
f 31 24 26
f 24 328 26
f 330 31 26
f 326 328 331
f 24 326 331
f 328 24 331
f 328 326 332
f 326 330 332
f 335 336 338
f 279 334 335
f 334 279 336
f 335 334 336
f 333 279 337
f 279 335 337
f 335 333 337
f 279 333 278
f 333 336 278
f 336 279 278
f 333 335 338
f 336 333 338
f 346 344 351
f 340 341 345
f 343 340 345
f 341 340 346
f 340 343 346
f 341 344 347
f 345 341 347
f 342 345 347
f 345 342 348
f 343 345 348
f 339 342 349
f 344 339 349
f 347 344 349
f 342 347 349
f 342 339 350
f 339 344 350
f 346 343 350
f 344 346 350
f 348 342 350
f 343 348 350
f 344 341 351
f 341 346 351

