# https://github.com/mikedh/trimesh

o convex_0
v -0.28016800 -0.17130400 -0.01452100
v -0.26350500 -0.16086600 0.10420900
v -0.28433200 -0.16086600 0.10420900
v -0.26558800 -0.01299800 -0.01452100
v -0.28433200 -0.01299800 0.09795600
v -0.28433200 -0.01299800 -0.01452100
v -0.26558800 -0.01299800 0.09795600
v -0.26559100 -0.17130400 -0.01452100
v -0.28641600 -0.14213300 -0.01452100
v -0.28433200 -0.17755400 0.10210500
v -0.26350500 -0.17755400 0.07919800
v -0.28641600 -0.12129000 0.09587600
v -0.26350500 -0.17546000 0.10420900
v -0.28433200 -0.17755400 0.07919800
v -0.28641600 -0.14213300 0.09587600
v -0.28641600 -0.12129000 -0.01452100
v -0.26350500 -0.17546900 0.10420900
v 0.13225400 -0.17755200 0.07713000
v 0.13225400 -0.15880700 0.07713000
v 0.19266900 -0.17755200 0.10420900
v 0.19266900 -0.15880700 0.10420900
v -0.26350500 -0.16089200 0.07921300
v -0.26350500 -0.17755400 0.07921300
v -0.26350500 -0.16089200 0.10420900
v 0.19266900 -0.17755200 0.07713000
v 0.19266900 -0.15880700 0.07713000
v -0.26350500 -0.17755400 0.10212000
v 0.19266900 -0.16089200 -0.01869300
v 0.20724700 -0.18172000 -0.07284500
v 0.19266900 -0.17963400 -0.07284500
v 0.21141600 -0.15047500 -0.07284500
v 0.21141600 -0.18172000 -0.01035500
v 0.21141600 -0.15047500 -0.01035500
v 0.19266900 -0.15256100 -0.07284500
v 0.19266900 -0.17754800 -0.01660700
v 0.20308200 -0.15047500 -0.01035500
v 0.21141600 -0.18172000 -0.07284500
v -0.28224800 0.14946800 -0.10409000
v -0.26558900 0.17028900 -0.01452100
v -0.26350800 0.17651700 -0.01660800
v -0.26350800 -0.01299800 -0.10409000
v -0.29266700 0.17863700 -0.05410700
v -0.28433200 -0.01299800 -0.10409000
v -0.26350800 0.17863700 -0.10200300
v -0.26558900 -0.01299800 -0.01452100
v -0.28641500 0.14322100 -0.01452100
v -0.29266700 0.17863700 -0.08533600
v -0.29266700 0.14946800 -0.05618400
v -0.28224800 0.17863700 -0.02078100
v -0.28224800 0.17863700 -0.10200300
v -0.26350800 -0.01299800 -0.08533600
v -0.29266700 0.14946800 -0.08533600
v -0.28433200 0.14113900 -0.10409000
v -0.26350800 0.14946800 -0.10409000
v -0.26350500 0.17655400 0.10420900
v -0.28433200 0.17655400 0.10420900
v -0.26558800 0.17030100 -0.01452100
v -0.26559100 -0.01299800 0.09795600
v -0.26559100 -0.01299800 -0.01452100
v -0.28641600 0.14321200 -0.01452100
v -0.28641600 0.12239400 0.09587600
v -0.28016800 0.17028300 -0.01452100
v -0.26350500 0.17655400 0.07919800
v -0.26350500 0.15987300 0.10420900
v -0.28433200 0.17655400 0.07919800
v -0.28641600 0.14321200 0.09587600
v -0.28641600 0.12239400 -0.01452100
v -0.26350500 0.17655200 0.10420900
v 0.13225400 0.15989000 0.07713000
v 0.13225400 0.17863700 0.07713000
v 0.19266900 0.15989000 0.10420900
v -0.26350500 0.15989000 0.07921300
v 0.19266900 0.17863700 0.10420900
v -0.26350500 0.15989000 0.10420900
v -0.26350500 0.17655200 0.07921300
v 0.19266900 0.15989000 0.07713000
v 0.19266900 0.17863700 0.07713000
v 0.10518400 0.16406100 -0.01660400
v -0.26350500 0.17446700 -0.08742600
v -0.26350500 0.15155800 -0.08533900
v -0.26350500 0.17655400 -0.01660400
v 0.10518400 0.17863700 -0.08742600
v 0.10518400 0.15155800 -0.08533900
v -0.26350500 0.15989200 -0.01869100
v 0.10518400 0.17863700 -0.02077100
v -0.26350500 0.17863700 -0.08742600
v 0.10518400 0.15989200 -0.01869100
v 0.10518400 0.15155800 -0.07284000
v -0.26350500 0.17863700 -0.02077100
v -0.26350500 0.15155800 -0.07284000
v -0.00106300 0.15155800 -0.08742600
v 0.10518400 0.17655100 -0.01660400
v -0.26350500 0.16406100 -0.01660400
v -0.26351100 -0.16089400 -0.01869500
v -0.28224900 -0.17963700 -0.10200300
v -0.28224900 -0.15047900 -0.10409000
v -0.29266700 -0.16505300 -0.05410700
v -0.26351100 -0.15047900 -0.10409000
v -0.26767500 -0.14423300 -0.01452100
v -0.26351100 -0.17755100 -0.01660800
v -0.26351100 -0.17963700 -0.10200300
v -0.28224900 -0.17755100 -0.01660800
v -0.29266700 -0.15047900 -0.05618400
v -0.29266700 -0.17963700 -0.08533600
v -0.28224900 -0.14423300 -0.10409000
v -0.26351100 -0.14423300 -0.10409000
v -0.28224900 -0.15672800 -0.01660800
v -0.29266700 -0.15047900 -0.08533600
v -0.29266700 -0.17963700 -0.05410700
v -0.28641600 -0.14212000 -0.08741400
v -0.26559100 -0.01302400 -0.01452100
v -0.26350700 -0.01302400 -0.08533600
v -0.26350700 -0.14421300 -0.08325800
v -0.28433200 -0.01302400 -0.10409000
v -0.28641600 -0.14212000 -0.01452100
v -0.28433200 -0.01302400 -0.01452100
v -0.26559100 -0.14421300 -0.01452100
v -0.26350700 -0.14421300 -0.10409000
v -0.26350700 -0.01302400 -0.10409000
v -0.28224900 -0.14421300 -0.10409000
v -0.28641600 -0.12130200 -0.01452100
v -0.28433200 -0.14212000 -0.10409000
v -0.02188400 -0.14214300 -0.11033900
v 0.13018000 -0.01299800 -0.08534300
v 0.13018000 -0.14214300 -0.08534300
v -0.26350500 -0.01299800 -0.08534300
v 0.13018000 -0.01299800 -0.10408700
v -0.26350500 -0.14214300 -0.08534300
v -0.26350500 -0.01299800 -0.10408700
v -0.26350500 -0.14214300 -0.10408700
v 0.11973700 -0.14214300 -0.10617000
v 0.13018000 -0.14214300 -0.10408700
v -0.00107400 -0.14005700 -0.11033900
v 0.13018000 -0.14214700 -0.10409000
v 0.19266900 -0.16296900 -0.01660400
v 0.19266900 -0.17754900 -0.01660400
v 0.19266900 -0.14214700 -0.10409000
v 0.13018000 -0.17963300 -0.10200000
v 0.13018000 -0.16088800 -0.01869400
v 0.19266900 -0.17963300 -0.10200000
v 0.13018000 -0.17963300 -0.02493700
v 0.19266900 -0.14214700 -0.08325500
v 0.13018000 -0.14214700 -0.08325500
v 0.13018000 -0.17754900 -0.01660400
v 0.19266900 -0.17963300 -0.02493700
v 0.19266900 -0.15881100 -0.02493700
v 0.19266900 -0.01299800 -0.10825500
v 0.13018000 -0.14214300 -0.10408600
v 0.13643100 -0.14214300 -0.10825500
v 0.19266900 -0.14214300 -0.08534300
v 0.19266900 -0.01299800 -0.08534300
v 0.19266900 -0.12962800 -0.11242200
v 0.13018000 -0.01299800 -0.10408600
v 0.18432600 -0.11713800 -0.11242200
v 0.19266900 -0.14214300 -0.10408600
v 0.21141600 -0.11506400 0.06463200
v 0.20724900 -0.18171300 -0.01035500
v 0.19475200 -0.11924600 -0.01035500
v 0.19475200 -0.11924600 0.06463200
v 0.21141600 -0.18171300 0.06463200
v 0.21141600 -0.11506400 -0.01035500
v 0.21141600 -0.18171300 -0.01035500
v 0.20724900 -0.18171300 0.06463200
v 0.19475200 -0.11506400 -0.01035500
v 0.19475200 -0.11506400 0.06463200
v 0.19683500 -0.11298100 0.06671500
v 0.20933300 0.11198100 0.08754500
v 0.20933300 0.11198100 0.06671500
v 0.19683500 0.11198100 0.08754500
v 0.20933300 -0.11298100 0.08754500
v 0.19683500 0.11198100 0.06671500
v 0.20933300 -0.11298100 0.06671500
v 0.19683500 -0.11298100 0.08754500
v -0.26350500 -0.01299800 -0.10408800
v 0.10517900 0.13489400 -0.08534500
v 0.10517900 -0.01299800 -0.08534500
v 0.10517900 0.13489400 -0.10408800
v -0.26350500 0.13489400 -0.08534500
v 0.10517900 -0.01299800 -0.10408800
v -0.26350500 -0.01299800 -0.08534500
v -0.26350500 0.13489400 -0.10408800
v 0.19266900 0.14114300 -0.10408600
v 0.10518400 -0.01299800 -0.10408600
v 0.18432800 -0.01299800 -0.10825500
v 0.10518400 0.14114300 -0.08534300
v 0.11352500 0.14114300 -0.10616900
v 0.10518400 -0.01299800 -0.08534300
v 0.19266900 0.14114300 -0.08534300
v 0.19266900 0.12863500 -0.11242200
v 0.10518400 0.14114300 -0.10408600
v 0.18432800 0.11614200 -0.11242200
v 0.19266900 -0.01297300 -0.11241400
v 0.21141600 -0.01300900 -0.07284900
v 0.20724500 -0.01300900 -0.07284900
v 0.20724500 0.18276700 -0.07492900
v 0.21141600 0.18276700 -0.11241400
v 0.21141600 -0.18166800 -0.11241000
v 0.19266900 -0.17959800 -0.07284900
v 0.19266900 0.17859300 -0.07492900
v 0.21141600 -0.18166800 -0.07284900
v 0.19266900 0.12860500 -0.11241400
v 0.19266900 -0.17959800 -0.10199900
v 0.21141600 0.18276700 -0.07492900
v 0.19266900 0.17859300 -0.10200300
v 0.19266900 -0.12961100 -0.11241000
v -0.26350500 0.17447100 -0.10200700
v -0.26350500 0.17863700 -0.10200700
v 0.10518400 0.17447100 -0.10200700
v -0.26350500 0.17447100 -0.08742600
v 0.10518400 0.17863700 -0.10200700
v 0.10518400 0.17447100 -0.08742600
v 0.13018000 -0.15881000 -0.02494700
v -0.26350500 -0.17963700 -0.10200700
v -0.26350500 -0.17963700 -0.04785300
v -0.26350500 -0.15672400 -0.08532900
v 0.13018000 -0.17963700 -0.10200700
v 0.13018000 -0.17755100 -0.01661300
v -0.26350500 -0.16089400 -0.01870300
v 0.13018000 -0.15672400 -0.08532900
v -0.26350500 -0.17755100 -0.01661300
v -0.26350500 -0.15672400 -0.03952700
v 0.13018000 -0.16297700 -0.01661300
v -0.26350500 -0.17546800 -0.10200700
v 0.13018000 -0.17963700 -0.04785300
v 0.13018000 -0.15672400 -0.03952700
v 0.13018000 -0.17546800 -0.10200700
v -0.26350500 -0.16297700 -0.01661300
v -0.26350500 -0.15881000 -0.02494700
v 0.13018000 -0.15463900 -0.05202100
v -0.02192200 -0.15463900 -0.11033900
v -0.26350500 -0.15672100 -0.08533300
v -0.26350500 -0.14214300 -0.08324900
v 0.13018000 -0.14214300 -0.10408200
v -0.26350500 -0.15672100 -0.05201500
v -0.26350500 -0.14214300 -0.10408200
v 0.13018000 -0.15672100 -0.08533900
v 0.13018000 -0.14214300 -0.08325500
v -0.26350500 -0.15047300 -0.10408200
v -0.00107400 -0.14214300 -0.11033900
v 0.13018000 -0.15672100 -0.05202100
v -0.26350500 -0.15463900 -0.05201500
v 0.13018000 -0.15047300 -0.10408200
v -0.00107400 -0.15463900 -0.11033900
v 0.20725100 -0.15047500 -0.07284500
v 0.21141600 0.14947500 0.00630800
v 0.20516700 0.14947500 0.00630800
v 0.21141600 0.14947500 -0.07492800
v 0.21141600 -0.15047500 -0.02494200
v 0.20725200 0.14947500 -0.07492800
v 0.20725100 -0.15047500 -0.02494200
v 0.20516700 -0.01297800 -0.01870000
v 0.20516700 0.11403700 0.00630800
v 0.20516700 0.13696700 -0.02285900
v 0.21141600 0.11403700 0.00630800
v -0.02187600 0.15155800 -0.11033800
v -0.00105300 0.15572400 -0.10617300
v -0.00105300 0.15572400 -0.11033800
v -0.02187600 0.15572400 -0.10617300
v -0.00105300 0.15155800 -0.10617300
v 0.19266900 -0.17754200 0.07713100
v 0.21141600 -0.11507400 0.10837500
v 0.21141600 -0.11507400 0.06463200
v 0.21141600 -0.18171300 0.10837500
v 0.19475600 -0.11507400 0.10837500
v 0.19475600 -0.11507400 0.06463200
v 0.19475600 -0.18171300 0.10837500
v 0.19266900 -0.15879800 0.10420400
v 0.19475600 -0.13590300 0.06463200
v 0.19266900 0.15155800 -0.07701400
v -0.02193300 0.14114500 -0.11033900
v -0.02193300 0.15155800 -0.11033900
v -0.26350500 0.15155800 -0.07701100
v -0.26350500 0.13489400 -0.08534300
v 0.10515000 0.13489400 -0.10408200
v 0.10515000 0.13489400 -0.08535000
v 0.19266900 0.14947200 -0.10408200
v -0.26350500 0.14947500 -0.10408800
v 0.19266900 0.14114300 -0.10408200
v 0.19266900 0.14947200 -0.07701400
v 0.19266900 0.14114300 -0.08326500
v -0.02608500 0.13489400 -0.10825100
v 0.17391500 0.15155800 -0.09783800
v -0.26350500 0.14947500 -0.07701100
v -0.26350500 0.15155800 -0.08534300
v 0.20933000 -0.01299800 -0.01244100
v 0.19475200 -0.14005900 -0.01452200
v 0.19475200 -0.14005900 -0.01035500
v 0.21141600 -0.15047500 -0.02493600
v 0.19475200 -0.01299800 -0.02285100
v 0.21141600 -0.01299800 -0.02493600
v 0.19475200 -0.01299800 -0.01244100
v 0.19475200 -0.13380200 -0.02285100
v 0.19266900 0.16406100 -0.01661300
v 0.10518400 0.17446800 -0.10200700
v 0.10518400 0.17863600 -0.10200700
v 0.19266900 0.17446800 -0.10200700
v 0.16141200 0.15155800 -0.09782700
v 0.10518400 0.15989300 -0.01870300
v 0.13018100 0.18072000 -0.02911900
v 0.19266900 0.18072000 -0.02911900
v 0.10518400 0.15155800 -0.08532900
v 0.19266900 0.15155800 -0.07283200
v 0.10518400 0.17654900 -0.01661300
v 0.19266900 0.17863600 -0.10200700
v 0.19266900 0.15989300 -0.01870300
v 0.19266900 0.17654900 -0.01661300
v 0.10518400 0.15155800 -0.07283200
v 0.13018100 0.18072000 -0.05827700
v 0.19266900 0.15155800 -0.08532900
v 0.10518400 0.17863600 -0.02078400
v 0.19266900 0.17863700 -0.02077600
v 0.20724700 0.14947500 -0.07492800
v 0.19266900 0.15156300 -0.07492800
v 0.20308200 0.14947500 0.00630800
v 0.21141600 0.18280300 -0.07492800
v 0.21141600 0.18280300 0.00630800
v 0.19266900 0.17863700 -0.07492800
v 0.19266900 0.15989200 -0.01870000
v 0.20724700 0.18280300 0.00630800
v 0.19266900 0.18071500 -0.05826100
v 0.21141600 0.18280300 0.10837500
v 0.19683700 0.11198100 0.06670300
v 0.19475400 0.11407500 0.00630800
v 0.19266900 0.17863000 0.10420900
v 0.21141600 0.11407500 0.10837500
v 0.21141600 0.11407500 0.00630800
v 0.19475600 0.11407500 0.10837500
v 0.19266900 0.17863000 0.07713400
v 0.19475600 0.18280300 0.10837500
v 0.19266900 0.15988400 0.10420900
v 0.19891900 -0.01299800 -0.02285300
v 0.20516600 0.14947500 0.00630800
v 0.20516600 0.14947500 -0.01452100
v 0.19475300 0.13905800 -0.01035300
v 0.19475300 0.11405700 0.00630800
v 0.20516600 -0.01299800 -0.01243400
v 0.19475300 -0.01299800 -0.01243400
v 0.19475300 0.13280800 -0.02285300
v 0.20516600 0.13697500 -0.02285300
v 0.20516600 0.11405700 0.00630800
v 0.19475300 -0.01299800 -0.02285300
v 0.20516600 -0.01299800 -0.01868300
f 9 12 16
f 3 2 5
f 4 1 6
f 5 4 6
f 2 4 7
f 4 5 7
f 5 2 7
f 1 4 8
f 6 1 9
f 4 2 11
f 1 8 11
f 8 4 11
f 3 5 12
f 5 6 12
f 2 3 13
f 3 10 13
f 11 2 13
f 10 11 13
f 9 1 14
f 10 9 14
f 1 11 14
f 11 10 14
f 10 3 15
f 9 10 15
f 3 12 15
f 12 9 15
f 6 9 16
f 12 6 16
f 23 20 27
f 17 20 21
f 19 18 22
f 17 22 23
f 22 18 23
f 17 21 24
f 21 19 24
f 19 22 24
f 22 17 24
f 18 19 25
f 21 20 25
f 23 18 25
f 20 23 25
f 19 21 26
f 25 19 26
f 21 25 26
f 20 17 27
f 17 23 27
f 32 29 37
f 29 30 31
f 30 29 32
f 32 31 33
f 30 28 34
f 31 30 34
f 28 30 35
f 30 32 35
f 33 31 36
f 32 33 36
f 34 28 36
f 31 34 36
f 28 35 36
f 35 32 36
f 29 31 37
f 31 32 37
f 38 44 54
f 38 41 43
f 41 6 43
f 40 41 44
f 40 39 45
f 6 41 45
f 39 6 45
f 6 39 46
f 42 44 47
f 43 6 48
f 6 46 48
f 46 42 48
f 42 47 48
f 39 40 49
f 40 44 49
f 44 42 49
f 46 39 49
f 42 46 49
f 44 38 50
f 47 44 50
f 41 40 51
f 40 45 51
f 45 41 51
f 47 43 52
f 43 48 52
f 48 47 52
f 38 43 53
f 43 47 53
f 50 38 53
f 47 50 53
f 41 38 54
f 44 41 54
f 61 60 67
f 6 57 59
f 58 6 59
f 6 58 5
f 57 6 60
f 6 5 61
f 5 56 61
f 57 60 62
f 56 55 63
f 59 57 63
f 55 56 64
f 58 59 64
f 56 5 64
f 5 58 64
f 63 55 64
f 59 63 64
f 60 56 65
f 57 62 65
f 62 60 65
f 56 63 65
f 63 57 65
f 56 60 66
f 61 56 66
f 60 61 66
f 60 6 67
f 6 61 67
f 76 70 77
f 70 69 72
f 69 71 72
f 70 68 73
f 68 71 73
f 71 68 74
f 68 72 74
f 72 71 74
f 68 70 75
f 72 68 75
f 70 72 75
f 69 70 76
f 71 69 76
f 73 71 76
f 73 76 77
f 70 73 77
f 84 78 93
f 79 80 81
f 82 78 83
f 81 80 84
f 78 82 85
f 85 82 86
f 79 81 86
f 82 79 86
f 83 78 87
f 78 84 87
f 87 84 88
f 80 83 88
f 83 87 88
f 81 85 89
f 85 86 89
f 86 81 89
f 84 80 90
f 88 84 90
f 80 88 90
f 80 79 91
f 79 82 91
f 82 83 91
f 83 80 91
f 81 78 92
f 78 85 92
f 85 81 92
f 78 81 93
f 81 84 93
f 97 104 109
f 95 96 98
f 98 94 100
f 94 99 100
f 95 98 101
f 98 100 101
f 100 99 102
f 96 95 104
f 95 101 104
f 97 103 104
f 98 96 105
f 103 99 105
f 96 104 105
f 105 99 106
f 94 98 106
f 99 94 106
f 98 105 106
f 97 102 107
f 102 99 107
f 103 97 107
f 99 103 107
f 104 103 108
f 103 105 108
f 105 104 108
f 101 100 109
f 102 97 109
f 100 102 109
f 104 101 109
f 114 120 122
f 112 111 113
f 111 112 114
f 111 114 116
f 115 111 116
f 113 111 117
f 111 115 117
f 112 113 118
f 113 117 118
f 114 112 119
f 112 118 119
f 118 114 119
f 115 110 120
f 117 115 120
f 114 118 120
f 118 117 120
f 114 110 121
f 110 115 121
f 116 114 121
f 115 116 121
f 110 114 122
f 120 110 122
f 127 131 133
f 125 124 126
f 124 125 127
f 126 124 127
f 123 125 128
f 125 126 128
f 128 126 129
f 126 127 129
f 123 128 130
f 128 129 130
f 129 123 130
f 125 123 131
f 131 127 132
f 127 125 132
f 125 131 132
f 123 129 133
f 129 127 133
f 131 123 133
f 142 143 146
f 135 136 137
f 134 137 138
f 134 138 139
f 137 136 140
f 138 137 140
f 138 140 141
f 139 138 141
f 135 137 142
f 137 134 142
f 134 139 143
f 142 134 143
f 136 135 144
f 135 139 144
f 141 136 144
f 139 141 144
f 140 136 145
f 141 140 145
f 136 141 145
f 139 135 146
f 135 142 146
f 143 139 146
f 152 150 155
f 148 149 150
f 150 147 151
f 147 124 151
f 124 150 151
f 147 150 152
f 149 148 153
f 124 147 153
f 148 124 153
f 148 150 125
f 150 124 125
f 124 148 125
f 147 152 154
f 152 149 154
f 149 153 154
f 153 147 154
f 150 149 155
f 149 152 155
f 156 164 165
f 158 157 159
f 156 159 160
f 157 158 161
f 156 160 161
f 160 157 162
f 157 161 162
f 161 160 162
f 159 157 163
f 160 159 163
f 157 160 163
f 158 159 164
f 156 161 164
f 161 158 164
f 159 156 165
f 164 159 165
f 170 169 173
f 167 168 169
f 168 167 170
f 167 169 170
f 168 166 171
f 169 168 171
f 166 169 171
f 166 168 172
f 170 166 172
f 168 170 172
f 169 166 173
f 166 170 173
f 178 177 181
f 175 176 177
f 176 175 178
f 175 177 178
f 176 174 179
f 177 176 179
f 174 177 179
f 174 176 180
f 178 174 180
f 176 178 180
f 177 174 181
f 174 178 181
f 189 147 191
f 183 184 151
f 185 182 186
f 183 151 187
f 151 185 187
f 185 183 187
f 151 182 188
f 182 185 188
f 185 151 188
f 182 151 189
f 186 182 189
f 151 184 147
f 189 151 147
f 183 185 190
f 186 183 190
f 185 186 190
f 184 183 191
f 183 186 191
f 186 189 191
f 147 184 191
f 197 202 205
f 194 193 195
f 196 193 197
f 192 196 197
f 193 194 198
f 194 195 199
f 198 194 199
f 192 198 199
f 197 193 200
f 193 198 200
f 198 197 200
f 196 192 201
f 192 199 201
f 198 192 202
f 197 198 202
f 195 193 203
f 196 195 203
f 193 196 203
f 195 196 204
f 199 195 204
f 196 201 204
f 201 199 204
f 192 197 205
f 202 192 205
f 209 208 211
f 206 207 208
f 207 206 209
f 206 208 209
f 82 207 86
f 209 82 86
f 207 209 86
f 207 82 210
f 208 207 210
f 82 208 210
f 208 82 211
f 82 209 211
f 212 221 228
f 213 214 215
f 214 213 216
f 216 212 217
f 215 214 218
f 212 216 219
f 214 217 220
f 218 214 220
f 215 218 221
f 219 215 221
f 217 212 222
f 212 218 222
f 220 217 222
f 213 215 223
f 216 213 223
f 215 219 223
f 214 216 224
f 217 214 224
f 216 217 224
f 212 219 225
f 221 212 225
f 219 221 225
f 219 216 226
f 216 223 226
f 223 219 226
f 218 220 227
f 222 218 227
f 220 222 227
f 218 212 228
f 221 218 228
f 242 236 243
f 232 231 234
f 231 232 235
f 232 233 235
f 231 230 236
f 233 229 236
f 234 231 236
f 232 229 237
f 229 233 237
f 233 232 237
f 230 231 238
f 231 235 238
f 235 230 238
f 230 235 239
f 235 233 239
f 229 234 240
f 236 229 240
f 234 236 240
f 229 232 241
f 234 229 241
f 232 234 241
f 233 236 242
f 239 233 242
f 239 242 243
f 236 230 243
f 230 239 243
f 252 248 254
f 246 245 247
f 247 245 248
f 246 247 249
f 247 244 249
f 244 247 31
f 248 244 31
f 247 248 31
f 244 248 250
f 244 250 251
f 251 250 252
f 245 246 252
f 250 248 252
f 246 251 252
f 249 244 253
f 246 249 253
f 244 251 253
f 251 246 253
f 248 245 254
f 245 252 254
f 256 258 259
f 256 257 258
f 257 255 258
f 258 255 259
f 255 257 259
f 257 256 259
f 265 160 268
f 262 261 263
f 261 262 264
f 263 261 264
f 262 263 160
f 264 262 265
f 262 160 265
f 263 264 266
f 260 160 266
f 160 263 266
f 265 260 267
f 264 265 267
f 260 266 267
f 266 264 267
f 160 260 268
f 260 265 268
f 277 272 284
f 269 271 272
f 274 273 181
f 271 270 181
f 273 272 181
f 273 274 275
f 270 271 276
f 271 181 277
f 181 272 277
f 275 274 278
f 276 269 278
f 270 276 278
f 269 272 279
f 273 275 279
f 278 269 279
f 278 279 280
f 275 278 280
f 279 275 280
f 274 181 281
f 181 270 281
f 270 278 281
f 278 274 281
f 271 269 282
f 269 276 282
f 276 271 282
f 272 273 283
f 279 272 283
f 273 279 283
f 272 271 284
f 271 277 284
f 289 288 292
f 287 286 33
f 285 287 33
f 33 286 288
f 286 287 289
f 285 33 290
f 33 288 290
f 288 289 290
f 289 285 290
f 287 285 291
f 285 289 291
f 289 287 291
f 288 286 292
f 286 289 292
f 303 306 310
f 294 295 296
f 294 296 297
f 295 294 298
f 293 296 300
f 294 297 301
f 298 294 301
f 296 293 302
f 301 297 302
f 298 293 303
f 295 298 303
f 296 295 304
f 300 296 304
f 293 298 305
f 298 302 305
f 302 293 305
f 293 300 306
f 303 293 306
f 298 301 307
f 302 298 307
f 301 302 307
f 295 299 308
f 299 300 308
f 304 295 308
f 300 304 308
f 297 296 309
f 296 302 309
f 302 297 309
f 299 295 310
f 300 299 310
f 295 303 310
f 306 300 310
f 319 315 320
f 313 312 314
f 312 313 315
f 314 312 245
f 315 316 245
f 316 314 245
f 313 311 317
f 315 313 317
f 312 315 247
f 245 312 247
f 315 245 247
f 311 313 318
f 313 314 318
f 314 311 318
f 311 314 319
f 316 315 319
f 314 316 319
f 317 311 320
f 315 317 320
f 311 319 320
f 324 328 330
f 316 321 325
f 322 323 326
f 323 316 326
f 316 325 326
f 325 322 326
f 323 322 327
f 322 325 327
f 325 321 327
f 321 316 319
f 316 323 319
f 323 328 319
f 319 328 329
f 324 327 329
f 327 321 329
f 328 324 329
f 321 319 329
f 323 327 330
f 327 324 330
f 328 323 330
f 339 336 342
f 332 333 334
f 332 334 335
f 333 332 336
f 335 334 337
f 336 335 337
f 331 336 337
f 334 333 338
f 337 334 338
f 333 336 339
f 331 338 339
f 338 333 339
f 332 335 340
f 336 332 340
f 335 336 340
f 331 337 341
f 338 331 341
f 337 338 341
f 336 331 342
f 331 339 342

