# https://github.com/mikedh/trimesh

o convex_0
v 0.24630500 -0.14876600 -0.03936800
v 0.27333100 0.08096900 -0.01620400
v 0.27333100 0.08096900 -0.04709400
v 0.27526100 -0.18161500 -0.01620400
v 0.24630500 0.08096900 -0.02006900
v 0.27526100 -0.18161500 -0.04709400
v 0.24630500 -0.17966200 -0.01620400
v 0.24823600 0.08096900 -0.04323000
v 0.24823600 -0.12946300 -0.04709400
v 0.24630500 -0.17966200 -0.03743900
v 0.25595800 0.08096900 -0.04709400
v 0.24630500 0.08096900 -0.03743900
v 0.27526100 -0.11594300 -0.04709400
v 0.27526100 -0.11594300 -0.01620400
v 0.24630500 -0.14491100 -0.01620400
v 0.26947000 -0.18161500 -0.04709400
v -0.21514900 -0.13527700 -0.03937400
v -0.20356700 0.13503100 0.04751100
v -0.20163600 0.13503100 -0.02005900
v -0.22094400 0.13503100 -0.03743500
v -0.22094400 -0.13527700 0.04751100
v -0.20356700 -0.13527700 0.04751100
v -0.22094400 0.13503100 0.04751100
v -0.20163600 -0.13527700 -0.03937400
v -0.22094400 -0.13527700 -0.03743500
v -0.20163600 0.13503100 -0.03937400
v -0.20163600 -0.13527700 -0.02005900
v -0.21514900 0.13503100 -0.03937400
v -0.20163600 -0.12947400 -0.03937300
v 0.24630300 0.00373900 -0.02006600
v 0.24630300 -0.14106900 -0.02006600
v 0.21539100 -0.13525800 -0.04323100
v -0.20163600 0.00373900 -0.02006800
v -0.20163600 0.00373900 -0.03744100
v -0.20163600 -0.14106900 -0.02006800
v 0.24630300 0.00373900 -0.03743900
v 0.01851900 -0.14106900 -0.04323100
v 0.24630300 -0.14106900 -0.03937100
v -0.20163600 -0.14106900 -0.03937300
v 0.01851900 -0.13525800 -0.04323100
v 0.21539100 -0.14106900 -0.04323100
v -0.20163800 0.17750200 0.04944200
v -0.22866300 0.15047700 -0.02005900
v -0.21900900 0.17557500 -0.03744300
v -0.20163800 0.15047700 -0.02005900
v -0.21900900 0.15627200 0.04750300
v -0.22866300 0.17943900 0.01082200
v -0.20163800 0.17943900 -0.03744300
v -0.20163800 0.15047700 0.04750300
v -0.21900900 0.17750200 0.04944200
v -0.22866300 0.15047700 0.00889100
v -0.22866300 0.17943900 -0.02005900
v -0.21707800 0.15047700 0.04750300
v -0.20163800 0.17943900 0.02046600
v -0.20162700 0.12921600 -0.03937300
v 0.24630300 0.14082300 -0.02006600
v 0.21539100 0.14082300 -0.04323100
v -0.20162700 0.14082300 -0.02006800
v -0.20162700 0.00373900 -0.03744100
v -0.20162700 0.00373900 -0.02006800
v 0.01852300 0.14082300 -0.04323100
v 0.24630300 0.14082300 -0.03937100
v -0.20162700 0.14082300 -0.03937300
v 0.01852300 0.13502600 -0.04323100
v 0.21539100 0.13502600 -0.04323100
v 0.24630500 -0.17002700 0.04943100
v 0.26946800 -0.18161500 -0.01619700
v 0.24630500 -0.17968300 -0.01619700
v 0.27525800 -0.14493100 -0.01619700
v 0.27525800 -0.18161500 0.05522700
v 0.25788900 -0.14493100 0.05522700
v 0.24630500 -0.14686300 -0.01619700
v 0.27525800 -0.14493100 0.05522700
v 0.25788900 -0.18161500 0.05522700
v 0.27525800 -0.18161500 -0.01619700
v 0.24630500 -0.16038200 0.04750200
v 0.24630500 -0.17968300 0.03978300
v 0.26753900 0.17943900 -0.01041600
v 0.24630500 0.17943900 -0.01041600
v 0.24630500 0.17943900 -0.03743900
v 0.26753900 0.12924000 -0.04709300
v 0.26753900 0.08096900 -0.02007000
v 0.24630500 0.08096900 -0.02007000
v 0.26753900 0.17943900 -0.03743900
v 0.26753900 0.08096900 -0.04709300
v 0.24823600 0.12924000 -0.04709300
v 0.24630500 0.15046500 -0.01041600
v 0.26753900 0.15046500 -0.01041600
v 0.25595800 0.08096900 -0.04709300
v 0.26754200 0.08096900 -0.02007000
v 0.27526400 0.18136900 -0.01041600
v 0.27526400 0.18136900 -0.04709300
v 0.26754200 0.17943300 -0.03743900
v 0.27333300 0.08096900 -0.04709300
v 0.27526400 0.11573000 -0.01041600
v 0.26754200 0.17943300 -0.01041600
v 0.26754200 0.08096900 -0.04709300
v 0.27333300 0.08096900 -0.01041600
v 0.26947300 0.18136900 -0.04709300
v 0.27526400 0.11573000 -0.04709300
v 0.27140300 0.08096900 -0.01041600
v 0.24630500 0.17750500 0.04943800
v 0.27139800 0.15047700 -0.01041200
v 0.24630500 0.15240900 -0.01041200
v 0.27525800 0.18136900 -0.01041200
v 0.27525800 0.15047700 0.05523400
v 0.27525800 0.18136900 0.05523400
v 0.24630500 0.17943700 -0.01041200
v 0.25788900 0.15047700 0.05523400
v 0.24630500 0.16013500 0.04751000
v 0.25788900 0.18136900 0.05523400
v 0.27525800 0.15047700 -0.01041200
v -0.22094100 -0.14107200 -0.03743500
v -0.20163600 -0.13913800 0.04751100
v -0.20163600 -0.15072300 0.04751100
v -0.22287400 -0.14300000 0.04751100
v -0.21901200 -0.14878900 -0.03937400
v -0.22094100 -0.13527700 0.04751100
v -0.20163600 -0.14878900 -0.03937400
v -0.22094100 -0.13527700 -0.03743500
v -0.21708000 -0.15072300 0.04751100
v -0.20356900 -0.13527700 0.04751100
v -0.21901200 -0.15072300 -0.02005900
v -0.22287400 -0.14300000 -0.02199000
v -0.20163600 -0.15072300 -0.02005900
v 0.24630300 -0.16038000 0.04750300
v -0.20163600 -0.17968400 -0.03744300
v -0.20163600 -0.17968400 0.00695200
v -0.20163600 -0.15651500 -0.02005900
v 0.24630300 -0.17968400 -0.03744300
v 0.24630300 -0.15651500 -0.02585100
v -0.20163600 -0.17775200 0.04944200
v 0.24630300 -0.17968400 0.03978000
v -0.20163600 -0.16038000 0.04750300
v 0.24630300 -0.15651500 0.02432700
v 0.24630300 -0.17775200 0.04944200
v -0.20163600 -0.15651500 0.02432700
v -0.20163600 -0.17582000 -0.03744300
v 0.24630300 -0.17582000 -0.03744300
v 0.24630300 -0.17002800 0.04944200
v -0.20163600 -0.17002800 0.04944200
v 0.19412500 -0.17968400 0.03978000
v -0.21901200 0.14082600 -0.03937400
v -0.20163600 0.15047700 0.04751100
v -0.21708000 0.15047700 0.04751100
v -0.20356900 0.13503100 0.04751100
v -0.20163600 0.15047700 -0.03743500
v -0.22094100 0.13503100 0.04751100
v -0.21901200 0.15047700 -0.03743500
v -0.22094100 0.13503100 -0.03743500
v -0.22287400 0.14275400 0.04751100
v -0.22287400 0.13696200 -0.02199000
v -0.20163600 0.13889200 0.04751100
v 0.24630300 0.15433700 0.00889600
v 0.04162600 0.14661900 -0.04516100
v 0.04162600 0.15433700 -0.04516100
v -0.20163600 0.15626900 0.00889600
v -0.20163600 0.14082300 -0.01813300
v 0.24630300 0.14082300 -0.03937200
v 0.23854200 0.15626900 -0.03164700
v -0.20163600 0.14082300 -0.03937200
v -0.20163600 0.15626900 -0.02005900
v 0.24630300 0.14082300 -0.01813300
v -0.20163600 0.15047400 -0.03744100
v 0.24630300 0.15626900 0.00889600
v -0.20163600 0.15433700 0.00889600
v 0.24630300 0.14854600 -0.03937200
v 0.06284800 0.14082300 -0.04322900
v 0.06284800 0.15433700 -0.04516100
v -0.20163600 0.14854600 -0.03937200
v 0.24630300 0.16978200 0.04944200
v -0.20163600 0.17557400 -0.03744300
v -0.20163600 0.17750600 0.04944200
v 0.24630300 0.17943900 -0.03744300
v 0.24630300 0.15626900 -0.02585100
v -0.20163600 0.16013400 0.04750300
v 0.24630300 0.15626900 0.02239700
v 0.24630300 0.17943900 0.03978000
v -0.20163600 0.17943900 -0.03744300
v 0.24630300 0.16013400 0.04750300
v -0.20163600 0.15626900 0.02239700
v -0.20163600 0.17943900 0.02046600
v 0.24630300 0.17750600 0.04944200
v 0.24630300 0.17557400 -0.03744300
v -0.20163600 0.16978200 0.04944200
v 0.19412500 0.17943900 0.03978000
v 0.27526400 -0.14493100 -0.01620400
v 0.27333300 0.08096900 0.04171900
v 0.27140300 0.08096900 0.04171900
v 0.27333300 0.08096900 -0.01620400
v 0.27140300 -0.14493100 0.04171900
v 0.27140300 -0.14493100 -0.01620400
v 0.27526400 -0.14493100 0.04171900
v 0.27140300 0.08096900 -0.01620400
v 0.27526400 -0.11596300 -0.01620400
v 0.27526400 -0.11596300 0.04171900
v 0.27526400 0.15047700 0.04171900
v 0.25788700 -0.14493100 0.05137100
v 0.25788700 -0.14493100 0.05523400
v 0.27526400 -0.14493100 0.05523400
v 0.25788700 0.15047700 0.05523400
v 0.25788700 -0.13524400 0.04365300
v 0.27526400 0.15047700 0.05523400
v 0.25788700 0.13694400 0.04365300
v 0.27140100 0.15047700 0.04171900
v 0.27140100 -0.14493100 0.04171900
v 0.27333300 0.08096900 -0.01041200
v 0.27140300 0.15047700 0.04171900
v 0.27140300 0.15047700 -0.01041200
v 0.27526400 0.15047700 -0.01041200
v 0.27526400 0.11572300 0.04171900
v 0.27140300 0.08096900 -0.01041200
v 0.27526400 0.11572300 -0.01041200
v 0.24628700 -0.14107100 -0.01813800
v 0.04161700 -0.15458200 -0.04516600
v -0.20163600 -0.15651400 -0.02006700
v -0.20163600 -0.14107100 -0.03936900
v 0.24628700 -0.15651400 -0.01041200
v -0.20163600 -0.14107100 -0.01813800
v 0.24628700 -0.14107100 -0.03937300
v -0.20163600 -0.15072200 -0.01041200
v 0.23852600 -0.15651400 -0.03164700
v -0.20163600 -0.14879300 -0.03936900
v -0.20163600 -0.15651400 -0.01041200
v 0.04161700 -0.14107100 -0.04323000
v 0.24628700 -0.15072200 -0.01041200
v 0.24628700 -0.14879300 -0.03937300
v 0.06283800 -0.14686400 -0.04516600
v 0.06283800 -0.15458200 -0.04516600
v -0.21900900 -0.17002900 0.04944200
v -0.21900900 -0.17968400 -0.03744300
v -0.20163800 -0.17968400 -0.03744300
v -0.20163800 -0.15072300 -0.02005900
v -0.22866300 -0.15072300 -0.02005900
v -0.20163800 -0.15072300 0.04750300
v -0.20163800 -0.17774800 0.04944200
v -0.22866300 -0.17968400 0.01082200
v -0.22866300 -0.15072300 0.00889100
v -0.21707800 -0.15072300 0.04750300
v -0.22866300 -0.17968400 -0.02005900
v -0.21900900 -0.17774800 0.04944200
v -0.21900900 -0.17582000 -0.03744300
v -0.20163800 -0.17968400 0.00695200
v 0.24630300 -0.15458500 0.01082600
v -0.20163600 -0.15651500 -0.01041200
v -0.20163600 -0.15265400 -0.01041200
v 0.24630300 -0.15651500 -0.01041200
v -0.20163600 -0.15651500 0.01082600
v 0.24630300 -0.15265400 -0.01041200
v -0.20163600 -0.15265400 -0.00075800
v 0.24630300 -0.15651500 0.01082600
v -0.20163600 -0.15458500 0.01082600
v 0.24630300 -0.15265400 -0.00075800
f 10 9 16
f 2 3 5
f 4 2 7
f 5 1 7
f 5 3 8
f 3 6 9
f 7 1 10
f 1 9 10
f 8 3 11
f 3 9 11
f 9 8 11
f 1 5 12
f 5 8 12
f 9 1 12
f 8 9 12
f 3 2 13
f 6 3 13
f 4 6 13
f 2 4 14
f 13 2 14
f 4 13 14
f 2 5 15
f 7 2 15
f 5 7 15
f 6 4 16
f 4 7 16
f 9 6 16
f 7 10 16
f 26 17 28
f 18 19 20
f 18 21 22
f 19 18 22
f 21 17 22
f 18 20 23
f 20 21 23
f 21 18 23
f 22 17 24
f 20 17 25
f 17 21 25
f 21 20 25
f 20 19 26
f 19 24 26
f 24 17 26
f 19 22 27
f 24 19 27
f 22 24 27
f 17 20 28
f 20 26 28
f 38 37 41
f 31 30 33
f 33 30 34
f 29 33 34
f 33 29 35
f 31 33 35
f 30 31 36
f 34 30 36
f 32 34 36
f 31 35 37
f 36 31 38
f 32 36 38
f 31 37 38
f 35 29 39
f 29 37 39
f 37 35 39
f 34 32 40
f 29 34 40
f 32 37 40
f 37 29 40
f 37 32 41
f 32 38 41
f 50 42 54
f 43 44 45
f 45 44 48
f 42 45 48
f 43 45 49
f 45 42 49
f 49 42 50
f 47 43 51
f 43 49 51
f 46 50 51
f 50 47 51
f 44 43 52
f 43 47 52
f 48 44 52
f 47 48 52
f 50 46 53
f 49 50 53
f 51 49 53
f 46 51 53
f 48 47 54
f 42 48 54
f 47 50 54
f 64 57 65
f 30 56 58
f 56 57 58
f 58 55 59
f 56 30 36
f 30 59 36
f 30 58 60
f 59 30 60
f 58 59 60
f 58 57 61
f 57 56 62
f 56 36 62
f 55 58 63
f 61 55 63
f 58 61 63
f 59 55 64
f 55 61 64
f 61 57 64
f 36 59 65
f 57 62 65
f 62 36 65
f 59 64 65
f 68 74 77
f 67 68 69
f 68 66 72
f 69 68 72
f 71 69 72
f 70 69 73
f 69 71 73
f 71 70 73
f 68 67 74
f 67 70 74
f 71 66 74
f 70 71 74
f 67 69 75
f 69 70 75
f 70 67 75
f 66 71 76
f 72 66 76
f 71 72 76
f 66 68 77
f 74 66 77
f 86 85 89
f 79 78 80
f 81 78 82
f 79 80 83
f 8 82 83
f 80 78 84
f 81 80 84
f 78 81 84
f 81 82 85
f 82 8 85
f 80 81 86
f 81 85 86
f 78 79 87
f 79 83 87
f 83 82 87
f 82 78 88
f 78 87 88
f 87 82 88
f 83 80 12
f 8 83 12
f 86 8 12
f 80 86 12
f 85 8 89
f 8 86 89
f 98 96 101
f 92 91 95
f 93 90 96
f 95 91 96
f 90 93 97
f 94 90 97
f 92 94 97
f 90 94 98
f 94 95 98
f 95 96 98
f 91 92 99
f 96 91 99
f 93 96 99
f 92 97 99
f 97 93 99
f 94 92 100
f 92 95 100
f 95 94 100
f 96 90 101
f 90 98 101
f 106 103 112
f 103 104 105
f 106 105 107
f 104 102 108
f 105 104 108
f 104 103 109
f 103 106 109
f 106 107 109
f 102 104 110
f 109 102 110
f 104 109 110
f 107 105 111
f 108 102 111
f 105 108 111
f 102 109 111
f 109 107 111
f 103 105 112
f 105 106 112
f 123 119 125
f 115 114 116
f 114 115 24
f 116 114 118
f 24 115 119
f 117 24 119
f 117 113 120
f 24 117 120
f 116 118 120
f 118 24 120
f 115 116 121
f 114 24 122
f 118 114 122
f 24 118 122
f 117 119 123
f 115 121 123
f 121 116 123
f 113 117 124
f 120 113 124
f 116 120 124
f 123 116 124
f 117 123 124
f 119 115 125
f 115 123 125
f 133 132 142
f 127 128 129
f 128 127 130
f 126 130 131
f 129 128 132
f 130 126 133
f 128 130 133
f 129 132 134
f 131 129 135
f 126 131 135
f 134 126 135
f 133 126 136
f 132 133 136
f 129 134 137
f 135 129 137
f 134 135 137
f 127 129 138
f 130 127 138
f 129 131 138
f 138 131 139
f 131 130 139
f 130 138 139
f 126 134 140
f 136 126 140
f 132 136 140
f 134 132 141
f 140 134 141
f 132 140 141
f 132 128 142
f 128 133 142
f 146 26 153
f 144 145 146
f 145 144 147
f 147 144 26
f 143 147 26
f 146 145 148
f 26 146 148
f 147 143 149
f 145 147 149
f 143 26 150
f 26 148 150
f 149 143 150
f 148 145 151
f 145 149 151
f 150 148 152
f 149 150 152
f 148 151 152
f 151 149 152
f 144 146 153
f 26 144 153
f 161 164 170
f 156 155 161
f 158 157 161
f 159 158 161
f 160 156 162
f 157 160 162
f 161 157 162
f 154 158 163
f 159 154 163
f 158 159 163
f 162 156 164
f 161 162 164
f 157 154 165
f 154 159 165
f 160 157 165
f 154 157 166
f 158 154 166
f 157 158 166
f 165 159 167
f 160 165 167
f 155 159 168
f 161 155 168
f 159 161 168
f 155 156 169
f 159 155 169
f 156 160 169
f 167 159 169
f 160 167 169
f 156 161 170
f 164 156 170
f 178 182 186
f 172 162 173
f 162 172 175
f 174 171 175
f 173 162 176
f 175 171 177
f 162 175 177
f 171 174 178
f 178 174 179
f 172 173 179
f 174 172 179
f 171 176 180
f 177 171 180
f 176 177 180
f 176 162 181
f 177 176 181
f 162 177 181
f 178 179 182
f 179 173 182
f 173 171 183
f 171 178 183
f 178 173 183
f 172 174 184
f 175 172 184
f 174 175 184
f 171 173 185
f 173 176 185
f 176 171 185
f 173 178 186
f 182 173 186
f 195 188 196
f 189 188 190
f 188 189 191
f 191 189 192
f 190 187 192
f 187 191 192
f 191 187 193
f 188 191 193
f 189 190 194
f 192 189 194
f 190 192 194
f 190 188 195
f 187 190 195
f 193 187 195
f 193 195 196
f 188 193 196
f 202 205 206
f 199 198 200
f 198 199 201
f 199 200 201
f 198 201 202
f 200 198 193
f 197 200 193
f 200 197 203
f 197 201 203
f 201 200 203
f 202 201 204
f 202 204 205
f 201 197 205
f 197 193 205
f 204 201 205
f 205 193 206
f 198 202 206
f 193 198 206
f 211 189 188
f 208 197 209
f 197 208 189
f 208 209 189
f 209 197 210
f 207 209 210
f 197 189 211
f 210 197 211
f 209 207 212
f 207 189 212
f 189 209 212
f 207 210 213
f 211 207 213
f 210 211 213
f 189 207 188
f 207 211 188
f 215 228 229
f 217 216 219
f 214 217 219
f 217 214 220
f 214 218 220
f 219 216 221
f 214 219 221
f 216 215 222
f 218 216 222
f 215 216 223
f 216 217 223
f 217 215 223
f 216 218 224
f 218 221 224
f 221 216 224
f 217 220 225
f 218 214 226
f 214 221 226
f 221 218 226
f 220 218 227
f 218 222 227
f 215 217 228
f 217 225 228
f 225 220 228
f 220 227 228
f 228 227 229
f 222 215 229
f 227 222 229
f 236 237 243
f 232 233 235
f 233 234 235
f 235 230 236
f 232 235 236
f 231 232 237
f 235 234 238
f 237 230 238
f 234 237 238
f 230 235 239
f 238 230 239
f 235 238 239
f 234 231 240
f 231 237 240
f 237 234 240
f 236 230 241
f 230 237 241
f 237 236 241
f 232 231 242
f 233 232 242
f 234 233 242
f 231 234 242
f 232 236 243
f 237 232 243
f 249 250 253
f 245 246 247
f 246 245 248
f 245 247 248
f 247 246 249
f 244 247 249
f 246 248 250
f 249 246 250
f 247 244 251
f 244 248 251
f 248 247 251
f 248 244 252
f 244 250 252
f 250 248 252
f 244 249 253
f 250 244 253

