# https://github.com/mikedh/trimesh

o convex_0
v 0.20771300 -0.07016300 -0.01418900
v 0.17210900 -0.27958500 -0.03513100
v 0.20561300 -0.28169700 -0.04560500
v 0.19095900 -0.07016300 -0.04560500
v 0.20980900 -0.28169700 -0.01418900
v 0.17210900 -0.07016300 -0.01838000
v 0.17210900 -0.27958500 -0.01418900
v 0.20771300 -0.07016300 -0.04560500
v 0.17210900 -0.07016300 -0.03722500
v 0.18258200 -0.22931100 -0.04560500
v 0.20980900 -0.28169700 -0.04560500
v 0.20980900 -0.21467100 -0.04560500
v 0.17210900 -0.24399100 -0.01418900
v 0.20980900 -0.21467100 -0.01418900
v 0.17210900 -0.25024500 -0.03722500
v 0.20980900 0.28169700 -0.01628300
v 0.17210900 -0.07016300 -0.03722700
v 0.17210900 -0.07016300 -0.01837900
v 0.17210900 0.27959600 -0.01628300
v 0.20561600 0.28169700 -0.04560500
v 0.20771300 -0.07016300 -0.01628300
v 0.18258600 0.22927600 -0.04560500
v 0.17210900 0.27959600 -0.03513200
v 0.20980900 0.28169700 -0.04560500
v 0.17210900 -0.01150800 -0.03931900
v 0.20980900 0.21467300 -0.04560500
v 0.18049000 -0.01150800 -0.04351000
v 0.17210900 0.25025200 -0.03722700
v 0.20980900 0.21467300 -0.01628300
v 0.17210900 0.24184800 -0.01628300
v -0.18812600 -0.23143200 -0.02046700
v -0.16928000 0.00104700 0.04864300
v -0.18603100 0.00104700 0.04864300
v -0.18603100 0.00104700 -0.03722700
v -0.16718400 -0.23143200 -0.03722700
v -0.16928200 -0.23143200 0.04864300
v -0.16718400 0.00104700 -0.03722700
v -0.18812600 -0.23143200 0.04864300
v -0.18603100 -0.23143200 -0.03722700
v -0.16718400 -0.23143200 -0.01837400
v -0.16718400 0.00104700 -0.01837400
v -0.18812600 -0.22091800 0.04864300
v 0.17210900 0.23138600 -0.01837800
v -0.16718400 -0.23138600 -0.03722700
v 0.17210900 -0.23138600 -0.03722700
v -0.16718400 -0.23138600 -0.01837800
v -0.16718400 0.23138600 -0.03722700
v 0.17210900 -0.23138600 -0.01837800
v 0.17210900 0.23138600 -0.03722700
v -0.16718400 0.23138600 -0.01837800
v -0.16928000 0.23143200 0.04864300
v -0.16718400 0.23143200 -0.01837400
v -0.18812600 0.23143200 -0.02046700
v -0.18812600 0.23143200 0.04864300
v -0.16928200 0.00104700 0.04864300
v -0.16718400 0.23143200 -0.03722700
v -0.18603100 0.23143200 -0.03722700
v -0.18812600 0.22092300 0.04864300
v 0.17209300 0.26704000 0.05073800
v -0.16509000 0.27541000 -0.03513300
v -0.16509000 0.25865900 -0.01837200
v -0.16509000 0.27750600 0.05073800
v 0.17209300 0.27960300 -0.03513300
v 0.17209300 0.25865900 -0.01837200
v -0.16509000 0.25865900 0.04026400
v 0.17209300 0.27960300 0.04026400
v -0.16509000 0.27960300 -0.03513300
v 0.17209300 0.25865900 0.04026400
v -0.16509000 0.26075600 0.04862800
v -0.16509000 0.27960300 0.02140200
v 0.17209300 0.27750600 0.05073800
v 0.17209300 0.27541000 -0.03513300
v 0.17209300 0.26075600 0.04862800
v -0.15878600 0.26494400 0.05073800
v 0.17210900 -0.27959900 -0.01418900
v 0.20980900 -0.24609600 0.05702100
v 0.19304800 -0.24609600 0.05702100
v 0.20980900 -0.28169700 0.05702100
v 0.20980900 -0.24609600 -0.01418900
v 0.17210900 -0.24819000 -0.01418900
v 0.17210900 -0.27750500 0.05072700
v 0.17210900 -0.26075700 0.04863500
v 0.19304800 -0.28169700 0.05702100
v 0.17210900 -0.27959900 0.04025700
v 0.17210900 0.27750600 0.05073500
v 0.20561300 0.24190400 -0.01628300
v 0.17210900 0.24399900 -0.01628300
v 0.20980900 0.24190400 0.05702100
v 0.20980900 0.28169700 0.05702100
v 0.17210900 0.27960200 -0.01628300
v 0.19304800 0.24190400 0.05702100
v 0.17210900 0.26076000 0.04863300
v 0.20980900 0.24190400 -0.01628300
v 0.19304800 0.28169700 0.05702100
v 0.17210900 0.27960200 0.04025200
v -0.18184100 -0.23981100 0.05073800
v -0.18393600 -0.27959800 -0.03512600
v -0.18602800 -0.24190400 -0.03722700
v -0.16509000 -0.23143200 -0.03722700
v -0.16509000 -0.27750500 0.05073800
v -0.19440800 -0.27959800 0.01301500
v -0.16509000 -0.27959800 -0.03512600
v -0.16928300 -0.23143200 0.04863700
v -0.18812300 -0.23143200 0.04863700
v -0.18393600 -0.27750500 0.05073800
v -0.19440800 -0.25028300 -0.01836200
v -0.18602800 -0.23143200 -0.03722700
v -0.19440800 -0.27959800 -0.01837000
v -0.16718800 -0.23981100 0.05073800
v -0.19440800 -0.25028300 0.01094000
v -0.16509000 -0.27959800 0.02140200
v -0.16509000 -0.26075600 0.04861900
v -0.18812300 -0.23143200 -0.02046300
v 0.17210800 -0.23143200 -0.01838100
v 0.01916900 -0.25237600 -0.04351100
v -0.16505700 -0.25237600 -0.01837800
v -0.16505700 -0.23143200 -0.03722600
v 0.17210800 -0.25237600 -0.01000000
v 0.14903900 -0.23352900 -0.04141500
v -0.16505700 -0.23143200 -0.01837800
v 0.17210800 -0.25027800 -0.03722600
v -0.16505700 -0.25027800 -0.03722600
v -0.16505700 -0.25027800 -0.01000000
v 0.17210800 -0.23143200 -0.03722600
v -0.04779500 -0.23352900 -0.04141500
v 0.17210800 -0.25237600 -0.03094100
v 0.17210800 -0.25027800 -0.01000000
v -0.16505700 -0.25237600 -0.01000000
v 0.04012700 -0.23981000 -0.04351100
v 0.14903900 -0.24190400 -0.04141500
v 0.04012700 -0.25237600 -0.04351100
v -0.16509000 0.27750400 0.05073800
v -0.16509000 0.23143200 -0.03722700
v -0.18393600 0.27960300 -0.03512600
v -0.18812300 0.23143200 0.04863700
v -0.19440800 0.27960300 0.01301500
v -0.16509000 0.27960300 -0.03512600
v -0.16928300 0.23143200 0.04863700
v -0.19440800 0.25028300 -0.01836200
v -0.18393600 0.27750400 0.05073800
v -0.19440800 0.27960300 -0.01837000
v -0.16718500 0.23981100 0.05073800
v -0.19440800 0.25028300 0.01094000
v -0.16509000 0.26075100 0.04861900
v -0.18812300 0.23143200 -0.02045400
v 0.17210800 0.25027800 -0.01000000
v 0.01916900 0.23981200 -0.04351100
v -0.04779500 0.23352900 -0.04141500
v -0.16505700 0.25237600 -0.01000000
v 0.17210800 0.23143200 -0.01838100
v 0.04012700 0.25237600 -0.04351100
v -0.16505700 0.23143200 -0.01837800
v -0.16505700 0.25027800 -0.03722600
v 0.17210800 0.23143200 -0.03722600
v 0.17210800 0.25237600 -0.03094100
v -0.16505700 0.23143200 -0.03722600
v 0.14903900 0.24190400 -0.04141500
v 0.17210800 0.25237600 -0.01000000
v 0.17210800 0.25027800 -0.03722600
v 0.14903900 0.23352900 -0.04141500
v -0.16505700 0.25027800 -0.01000000
v -0.16505700 0.25237600 -0.01837800
v 0.01916900 0.25237600 -0.04351100
v 0.20980900 -0.24609200 -0.01418900
v 0.20771400 -0.07016300 0.04236000
v 0.20562000 -0.07016300 0.04236000
v 0.20771400 -0.07016300 -0.01418900
v 0.20562000 -0.24609200 0.04236000
v 0.20562000 -0.24609200 -0.01418900
v 0.20980900 -0.24609200 0.04236000
v 0.20562000 -0.07016300 -0.01418900
v 0.20980900 -0.21466400 0.04236000
v 0.20980900 -0.21466400 -0.01418900
v 0.20771400 -0.07016300 0.05492600
v 0.19305300 -0.24609200 0.05283200
v 0.19305300 -0.24609200 0.05702100
v 0.19305300 -0.07016300 0.04445500
v 0.20980900 -0.24609200 0.05702100
v 0.19305300 -0.07016300 0.05492600
v 0.19305300 -0.23560500 0.04445500
v 0.20980900 -0.21466400 0.05702100
v 0.20771400 -0.07016300 -0.01628300
v 0.20980900 0.24190400 0.04236000
v 0.20562000 0.24190400 0.04236000
v 0.20562000 0.24190400 -0.01628300
v 0.20562000 -0.07016300 -0.01628300
v 0.20980900 0.21465600 0.04236000
v 0.20980900 0.21465600 -0.01628300
v 0.19305300 0.24190400 0.05702100
v 0.19305300 0.23561100 0.04445500
v 0.20980900 0.21465600 0.05702100
v 0.17207600 -0.25656300 0.02560500
v 0.01918500 -0.25447100 -0.04351100
v -0.16505700 -0.25865900 -0.01837700
v -0.16505700 -0.25237600 0.00046500
v -0.16505700 -0.25865900 0.02560500
v 0.17207600 -0.25865900 -0.01837700
v 0.17207600 -0.25237600 -0.03094000
v 0.17207600 -0.25237600 0.00046500
v -0.16505700 -0.25237600 -0.01837700
v 0.17207600 -0.25865900 0.02560500
v -0.16505700 -0.25656300 0.02560500
v 0.01918500 -0.25237600 -0.04351100
v 0.17207600 -0.25656300 -0.03094000
v 0.17207600 0.25656300 0.02560500
v 0.01918500 0.25237600 -0.04351100
v -0.16505700 0.25237600 -0.01837700
v -0.16505700 0.25865900 -0.01837700
v 0.17207600 0.25865900 -0.01837700
v -0.16505700 0.25865900 0.02560500
v 0.17207600 0.25237600 0.00046500
v -0.16505700 0.25237600 0.00046500
v 0.17207600 0.25865900 0.02560500
v 0.17207600 0.25237600 -0.03094000
v 0.04014000 0.25447100 -0.04351100
v -0.16505700 0.25656300 0.02560500
v 0.17207600 0.25656300 -0.03094000
v 0.17209300 -0.26075600 0.04862800
v -0.16509000 -0.27960100 -0.03513300
v -0.16509000 -0.27960100 0.02140200
v -0.16509000 -0.25866100 -0.01837200
v 0.17209300 -0.27960100 -0.03513300
v 0.17209300 -0.27750600 0.05073800
v -0.16509000 -0.26075600 0.04862800
v 0.17209300 -0.25866100 -0.01837200
v -0.16509000 -0.27750600 0.05073800
v -0.16509000 -0.25866100 0.04026400
v 0.17209300 -0.27960100 0.04026400
v 0.17209300 -0.27541100 -0.03513300
v 0.17209300 -0.25866100 0.04026400
v -0.16509000 -0.27541100 -0.03513300
v -0.15878600 -0.26494400 0.05073800
v 0.17209300 -0.26703900 0.05073800
f 9 10 15
f 1 4 6
f 2 3 7
f 5 1 7
f 3 5 7
f 6 2 7
f 3 4 8
f 4 1 8
f 2 6 9
f 6 4 9
f 3 2 10
f 4 3 10
f 9 4 10
f 5 3 11
f 3 8 11
f 11 8 12
f 8 1 12
f 5 11 12
f 1 6 13
f 7 1 13
f 6 7 13
f 1 5 14
f 12 1 14
f 5 12 14
f 2 9 15
f 10 2 15
f 21 19 30
f 17 18 19
f 19 16 20
f 18 17 8
f 18 8 21
f 16 19 21
f 20 8 22
f 17 19 23
f 19 20 23
f 20 22 23
f 20 16 24
f 8 20 24
f 8 17 4
f 22 8 4
f 17 23 25
f 21 8 26
f 24 16 26
f 8 24 26
f 4 17 27
f 22 4 27
f 25 22 27
f 17 25 27
f 23 22 28
f 22 25 28
f 25 23 28
f 16 21 29
f 21 26 29
f 26 16 29
f 19 18 30
f 18 21 30
f 38 33 42
f 33 32 34
f 32 33 36
f 31 35 36
f 34 32 37
f 35 34 37
f 31 36 38
f 36 33 38
f 31 34 39
f 35 31 39
f 34 35 39
f 32 36 40
f 36 35 40
f 35 37 40
f 40 37 41
f 37 32 41
f 32 40 41
f 33 34 42
f 34 31 42
f 31 38 42
f 47 46 50
f 44 45 46
f 45 44 47
f 44 46 47
f 45 43 48
f 46 45 48
f 43 46 48
f 43 45 49
f 47 43 49
f 45 47 49
f 46 43 50
f 43 47 50
f 33 54 58
f 51 52 53
f 52 51 41
f 33 34 41
f 51 53 54
f 33 51 54
f 51 33 55
f 41 51 55
f 33 41 55
f 53 52 56
f 52 41 56
f 56 41 37
f 41 34 37
f 34 56 37
f 34 53 57
f 53 56 57
f 56 34 57
f 53 34 58
f 34 33 58
f 54 53 58
f 73 59 74
f 60 61 62
f 61 60 64
f 63 59 64
f 61 64 65
f 62 61 65
f 59 63 66
f 66 63 67
f 60 62 67
f 63 60 67
f 64 59 68
f 65 64 68
f 65 68 69
f 62 65 69
f 62 66 70
f 66 67 70
f 67 62 70
f 62 59 71
f 59 66 71
f 66 62 71
f 60 63 72
f 64 60 72
f 63 64 72
f 68 59 73
f 69 68 73
f 69 73 74
f 59 62 74
f 62 69 74
f 75 83 84
f 76 77 78
f 77 76 79
f 76 78 79
f 75 79 5
f 79 78 5
f 79 75 80
f 77 79 80
f 80 75 81
f 80 81 82
f 77 80 82
f 81 77 82
f 78 77 83
f 75 5 83
f 5 78 83
f 77 81 83
f 83 81 84
f 81 75 84
f 94 90 95
f 86 87 16
f 88 16 89
f 87 85 90
f 16 87 90
f 87 86 91
f 86 88 91
f 88 89 91
f 85 87 92
f 91 85 92
f 87 91 92
f 86 16 93
f 16 88 93
f 88 86 93
f 89 16 94
f 16 90 94
f 85 91 94
f 91 89 94
f 90 85 95
f 85 94 95
f 107 106 113
f 97 98 102
f 98 99 102
f 99 100 102
f 101 97 102
f 96 103 104
f 103 99 104
f 100 96 105
f 96 104 105
f 104 101 105
f 99 98 107
f 104 99 107
f 98 97 108
f 97 101 108
f 101 106 108
f 106 107 108
f 107 98 108
f 96 100 109
f 103 96 109
f 99 103 109
f 101 104 110
f 106 101 110
f 104 106 110
f 102 100 111
f 101 102 111
f 100 105 111
f 105 101 111
f 100 99 112
f 109 100 112
f 99 109 112
f 106 104 113
f 104 107 113
f 130 121 131
f 116 115 118
f 117 116 120
f 114 117 120
f 114 118 121
f 115 116 122
f 116 117 122
f 120 116 123
f 117 114 124
f 119 117 124
f 114 121 124
f 121 119 124
f 117 119 125
f 115 122 125
f 122 117 125
f 118 115 126
f 121 118 126
f 118 114 127
f 114 120 127
f 123 118 127
f 120 123 127
f 116 118 128
f 118 123 128
f 123 116 128
f 115 125 129
f 125 119 129
f 119 121 130
f 129 119 130
f 129 130 131
f 126 115 131
f 121 126 131
f 115 129 131
f 135 139 145
f 133 57 134
f 57 133 135
f 132 133 137
f 133 134 137
f 134 136 137
f 135 133 138
f 136 135 140
f 134 57 141
f 136 134 141
f 57 139 141
f 139 136 141
f 138 133 142
f 135 138 142
f 132 140 142
f 140 135 142
f 135 136 143
f 139 135 143
f 136 139 143
f 132 137 70
f 137 136 70
f 140 132 70
f 136 140 70
f 133 132 144
f 132 142 144
f 142 133 144
f 57 135 145
f 139 57 145
f 162 151 163
f 150 146 152
f 152 149 153
f 146 150 154
f 150 152 154
f 151 149 155
f 146 154 155
f 153 148 156
f 152 153 156
f 148 154 156
f 154 152 156
f 149 146 158
f 146 155 158
f 155 149 158
f 151 155 159
f 155 154 159
f 157 151 159
f 154 157 159
f 148 147 160
f 147 151 160
f 154 148 160
f 151 157 160
f 157 154 160
f 146 149 161
f 149 152 161
f 152 146 161
f 149 151 162
f 153 149 162
f 153 162 163
f 147 148 163
f 151 147 163
f 148 153 163
f 172 164 173
f 166 165 167
f 165 166 168
f 168 166 169
f 167 164 169
f 164 168 169
f 168 164 170
f 165 168 170
f 166 167 171
f 169 166 171
f 167 169 171
f 167 165 172
f 165 170 172
f 170 164 172
f 164 167 173
f 167 172 173
f 180 177 168
f 176 175 170
f 175 176 177
f 176 170 178
f 177 174 165
f 174 177 179
f 177 176 179
f 175 177 180
f 176 178 181
f 178 170 181
f 165 174 181
f 170 165 181
f 174 179 181
f 179 176 181
f 170 175 168
f 165 170 168
f 177 165 168
f 175 180 168
f 187 182 188
f 184 183 93
f 93 182 185
f 184 93 185
f 184 185 166
f 183 184 166
f 166 182 165
f 183 166 165
f 185 182 186
f 166 185 186
f 182 166 186
f 93 183 187
f 165 182 187
f 183 165 187
f 182 93 188
f 93 187 188
f 174 187 191
f 166 177 184
f 88 184 189
f 177 166 174
f 184 177 190
f 189 184 190
f 177 189 190
f 189 177 179
f 177 174 179
f 166 184 187
f 184 88 187
f 187 174 165
f 174 166 165
f 166 187 165
f 88 189 191
f 189 179 191
f 179 174 191
f 187 88 191
f 193 198 204
f 195 194 196
f 196 194 197
f 194 193 197
f 192 197 198
f 198 195 199
f 195 192 199
f 192 198 199
f 193 194 200
f 194 195 200
f 195 198 200
f 192 196 201
f 196 197 201
f 197 192 201
f 192 195 202
f 196 192 202
f 195 196 202
f 198 193 203
f 193 200 203
f 200 198 203
f 197 193 204
f 198 197 204
f 214 215 217
f 206 207 208
f 208 207 210
f 209 208 210
f 207 206 211
f 209 205 211
f 210 207 212
f 207 211 212
f 211 205 212
f 205 209 213
f 210 205 213
f 209 210 213
f 211 206 214
f 209 211 214
f 206 208 215
f 208 209 215
f 214 206 215
f 205 210 216
f 212 205 216
f 210 212 216
f 209 214 217
f 215 209 217
f 232 223 233
f 219 220 221
f 220 219 222
f 222 218 223
f 221 220 224
f 218 222 225
f 224 220 226
f 221 224 227
f 224 218 227
f 225 221 227
f 220 222 228
f 222 223 228
f 226 220 228
f 223 226 228
f 222 219 229
f 221 225 229
f 225 222 229
f 218 225 230
f 227 218 230
f 225 227 230
f 219 221 231
f 229 219 231
f 221 229 231
f 218 224 232
f 226 223 232
f 224 226 232
f 223 218 233
f 218 232 233

