# https://github.com/mikedh/trimesh

o convex_0
v 0.18851800 0.27718200 0.13024100
v 0.19146300 -0.29990700 -0.10533100
v 0.18851800 -0.27921100 -0.07877400
v 0.21207400 -0.29990700 0.69261400
v 0.21207400 0.30075900 -0.10533100
v 0.19146300 0.30075900 0.69261400
v 0.19146300 -0.29990700 0.69261400
v 0.21207400 -0.29990700 -0.10533100
v 0.21207400 0.30075900 0.69261400
v 0.19146300 0.30075900 -0.10533100
v 0.18851800 0.28012200 -0.07877400
v 0.18851800 -0.27633000 0.13024100
v 0.18851800 -0.17325900 -0.08471000
v -0.30320100 -0.24394200 0.07722500
v -0.27670700 -0.25865600 0.12728000
v -0.27670700 -0.25865600 0.10372200
v -0.28259700 -0.07322500 0.12139100
v -0.30025500 -0.27633200 0.12728000
v -0.30025500 -0.07322500 0.07722500
v -0.28259700 -0.07322500 0.07722500
v -0.30025500 -0.07322500 0.12139100
v -0.27965300 -0.27042700 0.07722500
v -0.30320100 -0.22038100 0.12139100
v -0.29731100 -0.27042700 0.07722500
v -0.27670700 -0.27633200 0.12728000
v 0.18851800 -0.25868700 0.13022500
v -0.27670400 -0.27634900 0.10078000
v -0.27670400 -0.26163200 0.10078000
v 0.18851800 -0.27929400 0.10078000
v -0.27670400 -0.27634900 0.12727900
v 0.18851800 -0.25868700 0.10078000
v -0.27670400 -0.25868700 0.12727900
v 0.18851800 -0.27929400 0.12727900
v -0.27670400 -0.25868700 0.10372600
v 0.11488200 -0.27634900 0.13022500
v -0.30025500 -0.07318500 0.07722500
v -0.27670700 0.27720400 0.12728000
v -0.30025500 0.27720400 0.12728000
v -0.27965300 0.27130400 0.07722500
v -0.28259700 -0.07318500 0.12139100
v -0.30320100 0.24184200 0.07722500
v -0.30025500 -0.07318500 0.12139100
v -0.28259700 -0.07318500 0.07722500
v -0.30320100 0.22122900 0.12139100
v -0.27670700 0.25950600 0.10078300
v -0.29731100 0.27130400 0.07722500
v 0.18851800 0.27720400 0.13022500
v -0.27670400 0.25953700 0.10078000
v -0.27670400 0.25953700 0.12727900
v -0.27670400 0.27720400 0.10078000
v 0.18851800 0.25953700 0.10078000
v 0.18851800 0.27720400 0.10078000
v 0.18851800 0.25953700 0.13022500
v -0.27670400 0.27720400 0.12727900
v -0.27670400 -0.25867700 0.00360700
v -0.30025700 -0.27929000 -0.07880300
v -0.30025700 -0.24984700 -0.08176000
v -0.30320200 -0.22041600 0.07720900
v -0.27670400 -0.21746300 -0.08176000
v -0.27964900 -0.27045400 0.07720900
v -0.28259500 -0.21746300 0.07720900
v -0.27670400 -0.27929000 -0.07880300
v -0.30909300 -0.27929000 -0.03170100
v -0.30025700 -0.21746300 -0.08176000
v -0.29731500 -0.27045400 0.07720900
v -0.30909300 -0.24984700 -0.06114200
v -0.27670400 -0.27929000 0.00360700
v -0.27964900 -0.23808200 0.07720900
v -0.30026000 -0.21744300 -0.08176000
v -0.28259600 0.21831500 0.07720900
v -0.27670500 0.21831500 -0.06114200
v -0.28259600 -0.21744300 0.07720900
v -0.30026000 0.21831500 0.07720900
v -0.30026000 0.21831500 -0.08176000
v -0.27670500 -0.21744300 -0.08176000
v -0.30026000 -0.21744300 0.07720900
v -0.27670500 0.21831500 -0.08176000
v -0.27670500 -0.21744300 -0.06114200
v 0.18851800 0.27720300 0.00655800
v -0.03821800 0.24776000 -0.08766400
v -0.03821800 0.25659600 -0.08766400
v -0.27670400 0.27720300 0.00655800
v -0.27670400 0.28014800 -0.07881900
v -0.27670400 0.24187000 -0.05820600
v 0.18851800 0.28014800 -0.07882800
v 0.18851800 0.24187000 -0.05821500
v 0.18851800 0.25954400 0.00655800
v -0.27670400 0.25954400 0.00655800
v -0.27670400 0.24187000 -0.08177100
v 0.18851800 0.24187000 -0.08177100
v 0.18851800 0.28014800 -0.00227800
v -0.27670400 0.28014800 -0.00228700
v -0.27964900 0.27131100 0.07720900
v -0.30025700 0.21831500 -0.08176000
v -0.30320200 0.22126200 -0.06408300
v -0.30909300 0.28014800 -0.06114200
v -0.27670400 0.28014800 -0.07880300
v -0.28259500 0.21831500 0.07720900
v -0.30320200 0.22126200 0.07720900
v -0.27670400 0.21831500 -0.08176000
v -0.29731500 0.27131100 0.07720900
v -0.27670400 0.28014800 -0.00227500
v -0.30909300 0.25069600 -0.06114200
v -0.30909300 0.28014800 -0.03170100
v -0.30025700 0.28014800 -0.07880300
v -0.27964900 0.23893600 0.07720900
v 0.18851800 -0.25869200 0.00360700
v -0.03821800 -0.25574400 -0.08766400
v -0.27670400 -0.27929600 -0.07881900
v -0.27670400 -0.24101800 -0.05820600
v -0.27670400 -0.27635100 0.00655800
v 0.18851800 -0.27929600 -0.07882800
v 0.18851800 -0.24101800 -0.08177100
v 0.18851800 -0.27929600 0.00360700
v -0.27670400 -0.25869200 0.00360700
v -0.27670400 -0.24101800 -0.08177100
v 0.18851800 -0.24101800 -0.05821500
v -0.27670400 -0.27929600 0.00360700
v 0.18851800 -0.26162200 0.00655800
v -0.03821800 -0.24690800 -0.08766400
v 0.18851800 -0.27635100 0.00655800
v -0.27670400 -0.26162200 0.00655800
v -0.06175500 -0.24101800 -0.08472000
v 0.18851800 0.01220400 -0.06116400
v 0.18851800 -0.24101800 -0.06116400
v -0.27669200 0.01220400 -0.06116400
v 0.18851800 0.01220400 -0.08177500
v -0.27669200 -0.24101800 -0.06116400
v -0.27669200 0.01220400 -0.08177500
v 0.18851800 -0.24101800 -0.08177500
v -0.27669200 -0.24101800 -0.08177500
v 0.18851800 -0.12025700 -0.08472000
v 0.13551300 -0.24101800 -0.08472000
v 0.14138600 0.12413700 -0.08472000
v 0.18851800 0.24187000 -0.06116400
v -0.27670400 0.24187000 -0.06116400
v -0.27670400 0.01220400 -0.08177500
v -0.27670400 0.24187000 -0.08177500
v -0.27670400 0.01220400 -0.06116400
v 0.18851800 0.24187000 -0.08177500
v -0.06176200 0.24187000 -0.08472000
v 0.18851800 0.17411200 -0.08472000
v 0.13551100 0.24187000 -0.08472000
f 3 11 13
f 3 2 7
f 2 4 7
f 6 1 7
f 4 6 7
f 4 2 8
f 5 4 8
f 2 5 8
f 4 5 9
f 6 4 9
f 5 6 9
f 5 2 10
f 6 5 10
f 6 10 11
f 3 1 11
f 1 6 11
f 1 3 12
f 7 1 12
f 3 7 12
f 2 3 13
f 10 2 13
f 11 10 13
f 18 22 25
f 15 16 17
f 17 16 20
f 14 19 20
f 19 17 20
f 15 17 21
f 18 15 21
f 17 19 21
f 14 20 22
f 20 16 22
f 14 18 23
f 19 14 23
f 18 21 23
f 21 19 23
f 18 14 24
f 14 22 24
f 22 18 24
f 16 15 25
f 15 18 25
f 22 16 25
f 30 33 35
f 27 28 29
f 28 27 30
f 27 29 30
f 29 28 31
f 26 29 31
f 28 30 32
f 26 31 32
f 29 26 33
f 30 29 33
f 31 28 34
f 28 32 34
f 32 31 34
f 26 32 35
f 32 30 35
f 33 26 35
f 39 41 46
f 38 37 39
f 37 38 40
f 39 36 41
f 36 40 42
f 40 38 42
f 36 39 43
f 40 36 43
f 41 36 44
f 38 41 44
f 36 42 44
f 42 38 44
f 39 37 45
f 37 40 45
f 43 39 45
f 40 43 45
f 38 39 46
f 41 38 46
f 47 50 54
f 48 49 50
f 49 48 51
f 48 50 51
f 50 47 52
f 47 51 52
f 51 50 52
f 47 49 53
f 51 47 53
f 49 51 53
f 49 47 54
f 50 49 54
f 61 60 68
f 58 60 61
f 56 57 62
f 59 55 62
f 57 59 62
f 56 62 63
f 59 57 64
f 61 59 64
f 58 61 64
f 60 58 65
f 58 63 65
f 57 56 66
f 56 63 66
f 63 58 66
f 58 64 66
f 64 57 66
f 55 60 67
f 62 55 67
f 63 62 67
f 60 65 67
f 65 63 67
f 55 59 68
f 60 55 68
f 59 61 68
f 72 75 78
f 71 70 72
f 70 71 73
f 72 70 73
f 69 73 74
f 73 71 74
f 72 69 75
f 69 74 75
f 69 72 76
f 73 69 76
f 72 73 76
f 74 71 77
f 71 75 77
f 75 74 77
f 71 72 78
f 75 71 78
f 91 83 92
f 82 83 84
f 81 83 85
f 85 79 86
f 79 82 87
f 84 86 87
f 86 79 87
f 82 84 88
f 87 82 88
f 84 87 88
f 81 80 89
f 83 81 89
f 84 83 89
f 86 84 89
f 86 89 90
f 80 81 90
f 81 85 90
f 85 86 90
f 89 80 90
f 82 79 91
f 79 85 91
f 85 83 91
f 83 82 92
f 82 91 92
f 100 102 106
f 98 93 99
f 95 94 99
f 94 98 99
f 94 97 100
f 98 94 100
f 99 93 101
f 97 96 102
f 100 97 102
f 101 93 102
f 94 95 103
f 96 94 103
f 95 99 103
f 103 99 104
f 99 101 104
f 102 96 104
f 101 102 104
f 96 103 104
f 94 96 105
f 96 97 105
f 97 94 105
f 93 98 106
f 98 100 106
f 102 93 106
f 119 115 122
f 110 109 111
f 109 108 112
f 107 112 113
f 112 108 113
f 109 112 114
f 112 107 114
f 107 110 115
f 110 111 115
f 108 109 116
f 109 110 116
f 110 113 116
f 110 107 117
f 107 113 117
f 113 110 117
f 111 109 118
f 114 111 118
f 109 114 118
f 114 107 119
f 107 115 119
f 113 108 120
f 108 116 120
f 116 113 120
f 111 114 121
f 114 119 121
f 119 111 121
f 115 111 122
f 111 119 122
f 123 132 133
f 125 124 126
f 124 125 127
f 126 124 127
f 123 125 128
f 125 126 128
f 128 126 129
f 126 127 129
f 125 123 130
f 127 125 130
f 123 128 131
f 128 129 131
f 129 123 131
f 123 129 132
f 129 127 132
f 127 130 132
f 132 130 133
f 130 123 133
f 142 141 143
f 124 135 136
f 136 135 138
f 137 136 138
f 124 136 139
f 136 137 139
f 137 124 139
f 135 124 140
f 138 135 140
f 137 134 127
f 124 137 127
f 140 124 127
f 134 137 141
f 137 138 141
f 138 140 141
f 127 134 142
f 140 127 142
f 134 141 142
f 141 140 143
f 140 142 143

