# https://github.com/mikedh/trimesh

o convex_0
v -0.22310200 -0.24811200 -0.00178900
v 0.30645300 0.24929600 0.01610300
v 0.30645300 0.03097400 0.01610300
v 0.30645300 0.24929600 -0.00178900
v -0.21594900 0.24929600 0.01610300
v 0.30634900 -0.24811200 0.01610300
v 0.30634900 -0.24811200 -0.00178900
v -0.22310200 -0.24811200 0.01610300
v -0.21594900 0.24929600 -0.00178900
v -0.22310200 0.03097400 0.01610300
v -0.22310200 0.03097400 -0.00178900
v -0.24105300 0.03100900 -0.00178900
v -0.21600500 0.30297300 0.05904500
v -0.25178900 0.30297300 0.05904500
v -0.21600500 0.30297300 -0.00178900
v -0.22674100 0.03100900 0.05904500
v -0.25178900 0.30297300 -0.00178900
v -0.21600500 0.03100900 -0.00178900
v -0.24105300 0.03100900 0.05904500
v -0.21600500 0.03100900 0.01611100
v -0.25178900 0.28146300 0.05904500
v -0.14443500 -0.25885600 0.05903500
v -0.25178900 -0.30178400 -0.00178300
v -0.25178900 -0.30178400 0.06620200
v -0.24105000 -0.24811200 -0.00178300
v -0.14443500 -0.30178400 -0.00178300
v -0.24105000 -0.24811200 0.06620200
v -0.14443500 -0.24811200 -0.00178300
v -0.14443500 -0.30178400 0.06620200
v -0.14443500 -0.24811200 0.03756700
v -0.25177900 -0.28389900 0.06620200
v -0.14444000 -0.28389900 0.79978900
v -0.14802300 -0.28031800 0.79978900
v -0.25177900 -0.30178500 0.79978900
v -0.14444000 -0.30178500 0.06620200
v -0.24105000 -0.28031800 0.79978900
v -0.14444000 -0.28389900 0.06620200
v -0.14444000 -0.30178500 0.79978900
v -0.25177900 -0.30178500 0.06620200
v -0.24105000 -0.28031800 0.06620200
v -0.25177900 -0.28389900 0.79978900
v -0.22672800 -0.28031800 0.06620200
v 0.30640900 -0.24811200 0.01610500
v -0.14439100 -0.30178400 -0.00178900
v -0.14439100 -0.30178400 0.14492800
v -0.14439100 -0.24811200 -0.00178900
v 0.30640900 -0.30178400 -0.00178900
v 0.30640900 -0.28389000 0.14492800
v -0.14439100 -0.24811200 0.03757600
v 0.30640900 -0.30178400 0.14492800
v -0.14439100 -0.28389000 0.14492800
v 0.30640900 -0.24811200 -0.00178900
v 0.27065900 -0.24811200 0.03757600
v 0.06317000 -0.25885200 0.44909900
v -0.09791500 -0.28031800 0.40258800
v -0.09791500 -0.28031800 0.40616200
v 0.30287400 -0.28031800 0.40258800
v -0.08716500 -0.24811500 0.40974100
v 0.30287400 -0.25527400 0.40258800
v 0.25634600 -0.26600100 0.44551500
v -0.06923700 -0.26957900 0.44551500
v 0.27066500 -0.24811500 0.42762100
v -0.08716500 -0.24811500 0.42762100
v 0.03814000 -0.27673400 0.43477900
v -0.09791500 -0.25527400 0.40258800
v 0.27066500 -0.24811500 0.40974100
v -0.06923700 -0.25885200 0.44909900
v 0.30287400 -0.25527400 0.42047700
v 0.27423500 -0.27315700 0.43120000
v 0.25634600 -0.25885200 0.44551500
v 0.27418300 0.25645700 0.04830200
v -0.21600500 0.24929600 -0.00178900
v -0.21600500 0.24929600 0.01611100
v 0.30645300 0.30297300 -0.00178900
v 0.30645300 0.30297300 0.05904500
v -0.16946600 0.25645700 0.05904500
v 0.27065400 0.24929600 0.04114500
v 0.30282200 0.27792100 0.05904500
v -0.19805400 0.24929600 0.04114500
v 0.25628400 0.26003600 0.05546600
v -0.21600500 0.28149900 0.05904500
v 0.00584600 0.25645700 0.05904500
v -0.24104000 0.27792400 0.05904500
v -0.14444100 0.30297300 0.79978900
v -0.25178900 0.30297300 0.79978900
v -0.14444100 0.30297300 0.05904500
v -0.14802400 0.27792400 0.79978900
v -0.25178900 0.28150400 0.79978900
v -0.14444100 0.28150400 0.05904500
v -0.24104000 0.27792400 0.79978900
v -0.25178900 0.28150400 0.05904500
v -0.14444100 0.28150400 0.79978900
v -0.22673900 0.27792400 0.05904500
v 0.06317000 0.27076400 0.44193600
v -0.09791500 0.25645600 0.40258800
v -0.09791500 0.25287700 0.40616200
v 0.30287400 0.25645600 0.40258800
v -0.09791500 0.27792400 0.40258800
v -0.06923700 0.25645600 0.44551500
v 0.30287400 0.27792400 0.40258800
v 0.27066500 0.24929600 0.42762100
v 0.25634600 0.26718800 0.44551500
v -0.06923700 0.26718800 0.44909900
v -0.09791500 0.24929600 0.42762100
v 0.27066500 0.24929600 0.40974100
v 0.03814000 0.27434300 0.43477900
v 0.25634600 0.26003100 0.44551500
v 0.30287400 0.25645600 0.42047700
v -0.09787200 0.27792400 0.40266200
v 0.30640900 0.30297300 0.79978900
v -0.14439100 0.30297300 0.79978900
v 0.30640900 0.30297300 0.05904500
v 0.30640900 0.28150400 0.79978900
v -0.14439100 0.30297300 0.05904500
v 0.30640900 0.28150400 0.05904500
v -0.14439100 0.28150400 0.79978900
v -0.14439100 0.28150400 0.05904500
v 0.30283400 0.27792400 0.44551400
v -0.09787200 0.27792400 0.44551400
v 0.30283400 0.27792400 0.40266200
v -0.22316100 -0.24811200 -0.00178300
v -0.22674300 0.03100900 0.06620200
v -0.24105200 0.03100900 0.06620200
v -0.22674300 -0.24811200 0.06620200
v -0.24105200 0.03100900 -0.00178300
v -0.24105200 -0.24811200 -0.00178300
v -0.22316100 0.03100900 -0.00178300
v -0.24105200 -0.24811200 0.06620200
v -0.22316100 -0.24811200 0.01611200
v -0.22674000 0.27786900 0.77831800
v -0.24105400 -0.28031800 0.06622600
v -0.24105400 0.03098800 0.05904500
v -0.24105400 0.27792400 0.77831800
v -0.22674000 0.27786900 0.05904500
v -0.22674300 -0.28031800 0.77831800
v -0.22674300 -0.28031800 0.06622600
v -0.24105400 -0.28031800 0.77831800
v -0.24105400 0.27792400 0.05904500
v -0.09787200 -0.28031800 0.40261600
v 0.30640900 -0.28389900 0.79978900
v 0.30640900 -0.30178500 0.79978900
v 0.30640900 -0.28389900 0.14492800
v -0.14439100 -0.30178500 0.14492800
v -0.14439100 -0.30178500 0.79978900
v 0.30640900 -0.30178500 0.14492800
v -0.14439100 -0.28389900 0.79978900
v -0.14439100 -0.28389900 0.14492800
v 0.30283400 -0.28031800 0.44915400
v -0.09787200 -0.28031800 0.44915400
v 0.30283400 -0.28031800 0.40261600
v -0.14802300 0.27792400 0.79978900
v -0.24104500 -0.28031800 0.77832500
v -0.22672200 -0.28031800 0.77832500
v -0.24104500 0.27792400 0.77832500
v -0.24104500 -0.28031800 0.79978900
v -0.14802300 -0.28031800 0.78190100
v -0.24104500 0.27792400 0.79978900
v -0.14802300 0.27792400 0.78190100
v -0.22672200 0.27792400 0.77832500
f 1 10 11
f 2 3 4
f 3 2 5
f 2 4 5
f 3 5 6
f 4 3 7
f 1 4 7
f 3 6 7
f 6 1 7
f 1 6 8
f 6 5 8
f 4 1 9
f 5 4 9
f 5 9 10
f 1 8 10
f 8 5 10
f 9 1 11
f 10 9 11
f 19 14 21
f 14 13 15
f 13 14 16
f 14 15 17
f 15 12 17
f 15 13 18
f 12 15 18
f 16 12 18
f 12 16 19
f 16 14 19
f 13 16 20
f 18 13 20
f 16 18 20
f 17 12 21
f 14 17 21
f 12 19 21
f 22 28 30
f 23 24 25
f 24 23 26
f 23 25 26
f 25 24 27
f 25 27 28
f 22 26 28
f 26 25 28
f 26 22 29
f 24 26 29
f 22 27 29
f 27 24 29
f 27 22 30
f 28 27 30
f 37 40 42
f 32 33 34
f 34 33 36
f 33 32 37
f 35 31 37
f 32 35 37
f 32 34 38
f 34 35 38
f 35 32 38
f 34 31 39
f 31 35 39
f 35 34 39
f 31 36 40
f 36 33 40
f 37 31 40
f 31 34 41
f 36 31 41
f 34 36 41
f 33 37 42
f 40 33 42
f 49 48 53
f 44 45 46
f 45 44 47
f 44 46 47
f 47 43 48
f 46 45 49
f 43 46 49
f 45 47 50
f 48 45 50
f 47 48 50
f 45 48 51
f 49 45 51
f 48 49 51
f 46 43 52
f 43 47 52
f 47 46 52
f 48 43 53
f 43 49 53
f 68 62 70
f 56 55 57
f 57 55 59
f 60 54 61
f 54 62 63
f 62 58 63
f 56 57 64
f 60 61 64
f 61 56 64
f 55 56 65
f 59 55 65
f 58 59 65
f 56 63 65
f 63 58 65
f 59 58 66
f 58 62 66
f 62 59 66
f 56 61 67
f 61 54 67
f 63 56 67
f 54 63 67
f 57 59 68
f 59 62 68
f 64 57 69
f 60 64 69
f 57 68 69
f 68 60 69
f 54 60 70
f 62 54 70
f 60 68 70
f 80 78 82
f 72 73 13
f 74 72 15
f 72 13 15
f 13 74 15
f 74 13 75
f 74 75 4
f 73 72 4
f 72 74 4
f 75 13 76
f 73 4 77
f 4 75 78
f 75 76 78
f 71 77 78
f 77 4 78
f 73 77 79
f 77 76 79
f 77 71 80
f 71 78 80
f 13 73 81
f 76 13 81
f 73 79 81
f 79 76 81
f 76 77 82
f 78 76 82
f 77 80 82
f 89 87 93
f 85 84 86
f 84 85 87
f 85 86 14
f 86 83 14
f 87 85 88
f 85 14 88
f 86 84 89
f 83 86 89
f 83 87 90
f 88 83 90
f 87 88 90
f 14 83 91
f 83 88 91
f 88 14 91
f 84 87 92
f 89 84 92
f 87 89 92
f 87 83 93
f 83 89 93
f 102 107 108
f 96 95 97
f 95 96 98
f 97 95 98
f 97 98 100
f 102 94 103
f 98 96 104
f 101 99 104
f 103 98 104
f 99 103 104
f 96 97 105
f 97 101 105
f 104 96 105
f 101 104 105
f 100 98 106
f 94 102 106
f 102 100 106
f 103 94 106
f 98 103 106
f 99 101 107
f 103 99 107
f 102 103 107
f 97 100 108
f 101 97 108
f 100 102 108
f 107 101 108
f 115 118 120
f 111 110 112
f 110 111 113
f 112 110 113
f 111 112 114
f 114 112 115
f 112 113 115
f 113 111 116
f 111 114 116
f 116 114 117
f 114 115 117
f 115 109 117
f 109 116 117
f 115 113 118
f 113 116 118
f 118 116 119
f 116 109 119
f 109 118 119
f 109 115 120
f 118 109 120
f 121 127 129
f 122 123 124
f 123 122 125
f 123 125 126
f 121 124 126
f 125 121 126
f 121 125 127
f 125 122 127
f 124 123 128
f 123 126 128
f 126 124 128
f 122 124 129
f 124 121 129
f 127 122 129
f 134 132 138
f 132 131 133
f 133 130 134
f 130 133 135
f 134 130 135
f 134 135 136
f 131 132 136
f 132 134 136
f 135 131 136
f 133 131 137
f 131 135 137
f 135 133 137
f 132 133 138
f 133 134 138
f 139 148 150
f 140 141 142
f 143 141 144
f 141 140 144
f 142 141 145
f 143 142 145
f 141 143 145
f 143 144 146
f 144 140 146
f 139 142 147
f 142 143 147
f 146 139 147
f 143 146 147
f 140 142 148
f 146 140 148
f 146 148 149
f 139 146 149
f 148 139 149
f 142 139 150
f 148 142 150
f 154 158 159
f 153 152 154
f 152 153 155
f 154 152 155
f 155 153 156
f 151 154 157
f 155 151 157
f 154 155 157
f 154 151 158
f 156 153 158
f 151 156 158
f 151 155 33
f 156 151 33
f 155 156 33
f 153 154 159
f 158 153 159

