# https://github.com/mikedh/trimesh

o convex_0
v 0.20029900 -0.28013800 -0.45501800
v -0.35214000 -0.30179900 -0.52005300
v -0.35214000 -0.30179900 -0.16261700
v 0.20753100 -0.30179900 -0.52005300
v -0.34129300 -0.28013800 -0.52005300
v 0.20753100 -0.28374700 -0.11571100
v -0.34129300 -0.28013800 -0.16261700
v 0.20753100 -0.30179900 -0.11571100
v 0.20753100 -0.28013800 -0.52005300
v -0.23298600 -0.28374700 -0.11571100
v -0.23298600 -0.30179900 -0.11571100
v -0.35214000 -0.28374900 -0.16261700
v -0.35214000 -0.28374900 -0.52005300
v 0.20391500 0.27955200 -0.47309600
v -0.35215300 0.28316100 -0.52005400
v -0.35215300 0.30120600 -0.52005400
v -0.24378800 0.28315800 -0.11928200
v 0.20753100 0.30121100 -0.11928200
v 0.20753100 0.30120600 -0.52005400
v -0.35215300 0.30120600 -0.17714600
v 0.20753100 0.28315800 -0.11928200
v -0.34130500 0.27955200 -0.17714600
v -0.34130500 0.27955200 -0.52005400
v 0.20753100 0.27955200 -0.52005400
v -0.24378800 0.30121100 -0.11928200
v -0.35215300 0.28316100 -0.17714600
v 0.20029900 0.27955200 -0.45505000
v -0.34132000 -0.00204700 -0.52005400
v -0.32688000 -0.00204700 -0.16264800
v -0.32326600 0.27954800 -0.50196500
v -0.32326900 -0.28013600 -0.52001900
v -0.34131800 -0.28013600 -0.16264800
v -0.34132000 0.27954800 -0.17713300
v -0.34132000 0.27954800 -0.52005400
v -0.34131800 -0.28013600 -0.52001900
v -0.32688000 -0.28013600 -0.16264800
v -0.32688000 0.27954800 -0.17713300
v -0.32326600 0.27954800 -0.52005400
v -0.34131800 -0.00204700 -0.16264800
v -0.32326900 -0.28013600 -0.50196500
v -0.35215300 -0.28374900 -0.16261300
v -0.23299400 -0.28374900 0.28152300
v -0.24744600 -0.28013600 0.28152300
v -0.35215300 -0.30179900 0.28152300
v -0.23299400 -0.30179900 -0.16261300
v -0.23299400 -0.28374900 -0.16261300
v -0.23299400 -0.30179900 0.28152300
v -0.35215300 -0.30179900 -0.16261300
v -0.34130500 -0.28013600 0.28152300
v -0.32686500 -0.28013600 -0.16261300
v -0.35215300 -0.28374900 0.28152300
v 0.20753100 0.27955200 0.28152300
v -0.24382700 0.28316100 0.25985800
v -0.24382700 0.30120800 0.25985800
v 0.20753100 0.28316100 0.25985800
v -0.24382700 0.30120800 0.28152300
v 0.20753100 0.30120800 0.28152300
v 0.20753100 0.30120800 0.25985800
v -0.24382700 0.28316100 0.28152300
v 0.12446900 0.27955200 0.26347000
v -0.34130800 0.27955200 -0.17705600
v -0.24382800 0.30120800 0.28152300
v -0.35214300 0.30120800 0.28152300
v -0.35214300 0.30120800 -0.17705600
v -0.24382800 0.30120800 -0.17705600
v -0.24744400 0.27955200 0.28152300
v -0.35214300 0.28316100 0.28152300
v -0.24382800 0.28316100 -0.17705600
v -0.34130800 0.27955200 0.28152300
v -0.35214300 0.28316100 -0.17705600
v -0.24382800 0.28316100 0.28152300
v 0.17500500 -0.25847500 -0.46954200
v -0.32326600 -0.28013300 -0.52008800
v -0.32326600 -0.28013300 -0.50202700
v -0.32326600 -0.24764100 -0.52008800
v 0.20753100 -0.28013300 -0.52008800
v -0.26907400 -0.26929900 -0.45871500
v 0.20753100 -0.24764100 -0.52008800
v -0.29796300 -0.25125500 -0.47676300
v 0.17500500 -0.27290900 -0.47315200
v 0.20753100 -0.24764100 -0.50202700
v 0.15697600 -0.25847500 -0.46232000
v 0.20389300 -0.28013300 -0.49841600
v -0.13544000 -0.27651900 -0.47315200
v -0.26907400 -0.25847500 -0.45871500
v 0.17142000 -0.25125500 -0.47676300
v -0.32326600 -0.24764100 -0.50202700
v -0.09216000 -0.26929900 -0.45871500
v -0.32326600 -0.00212200 -0.52008800
v 0.20753100 0.24705000 -0.50203500
v 0.20753100 0.24705000 -0.52008800
v 0.20753100 -0.24761400 -0.50203500
v -0.32321400 0.24705000 -0.50203500
v 0.20753100 -0.24761400 -0.52008800
v -0.32326600 -0.24761400 -0.50203500
v -0.32321400 0.24705000 -0.52008800
v -0.32326600 -0.24761400 -0.52008800
v -0.34131900 -0.28013600 -0.16260100
v -0.32687800 0.27954800 0.25985800
v -0.32687800 0.27954800 -0.17705600
v -0.34131900 0.27954800 0.25985800
v -0.32687800 -0.28013600 0.25985800
v -0.34131900 0.27954800 -0.17705600
v -0.34131900 -0.28013600 0.25985800
v -0.32687800 -0.28013600 -0.16260100
v -0.32687800 -0.00204700 -0.17705600
v -0.34131900 -0.00204700 -0.17705600
v -0.24744700 0.27954800 0.28152300
v -0.34132000 -0.28013600 0.25985800
v -0.32686600 -0.28013600 0.25985800
v -0.34132000 -0.28013600 0.28152300
v -0.34132000 0.27954800 0.25985800
v -0.24744700 -0.28013600 0.26347000
v -0.34132000 0.27954800 0.28152300
v -0.24744700 0.27954800 0.26347000
v -0.24744700 -0.28013600 0.28152300
v -0.32686600 0.27954800 0.25985800
v 0.20753100 -0.28374700 0.25985800
v -0.23299400 -0.30180100 -0.06873000
v -0.23299400 -0.30180100 0.25985800
v 0.20753100 -0.30180100 -0.06873000
v -0.23299400 -0.28374700 -0.06873000
v 0.20753100 -0.28374700 -0.06873000
v 0.20753100 -0.30180100 0.25985800
v -0.23299400 -0.28374700 0.25985800
v 0.20753100 -0.28013600 0.26347000
v -0.23299400 -0.30179900 0.25985800
v 0.20753100 -0.30179900 0.25985800
v 0.20753100 -0.30179900 0.28152300
v -0.23299400 -0.28374900 0.25985800
v 0.20753100 -0.28013600 0.28152300
v 0.20753100 -0.28374900 0.25985800
v 0.20753100 0.27954800 0.28152300
v 0.12448100 -0.28013600 0.26346900
v 0.20753100 -0.28013600 0.26346900
v 0.12448100 -0.28013600 0.28152300
v 0.12448100 0.27954800 0.26346900
v 0.20753100 0.27954800 0.26346900
v 0.12448100 0.27954800 0.28152300
v 0.19308500 -0.30180100 -0.11567100
v 0.17139500 -0.25124900 -0.09040000
v 0.17139500 -0.25124900 -0.10844800
v -0.19685900 -0.25486100 -0.11567100
v 0.20753100 -0.30179600 -0.06873000
v -0.16796800 -0.25847300 -0.06873000
v -0.23299400 -0.30180100 -0.11567100
v 0.15332700 -0.25847300 -0.07234200
v 0.20028600 -0.25486100 -0.11567100
v -0.19685900 -0.25124900 -0.09040000
v 0.20753100 -0.28374000 -0.06873000
v -0.23299400 -0.28374000 -0.06873000
v 0.20753100 -0.30179600 -0.11567100
v -0.23299400 -0.28374000 -0.11567100
v 0.17500500 0.26871300 -0.46954200
v -0.32326600 0.24705000 -0.52008800
v -0.32326600 0.24705000 -0.50202700
v -0.32326600 0.27954800 -0.52008800
v -0.26907400 0.25788400 -0.45871500
v 0.20753100 0.27954800 -0.52008800
v 0.17142000 0.25066700 -0.47676300
v -0.13544000 0.27593100 -0.47315200
v -0.26907400 0.26871300 -0.45871500
v 0.20389300 0.27954800 -0.49841600
v 0.15697600 0.25788400 -0.46232000
v -0.32326600 0.27954800 -0.50202700
v 0.20753100 0.24705000 -0.50202700
v -0.29796300 0.25066700 -0.47676300
v -0.09216000 0.26871300 -0.45871500
v 0.17500500 0.27232000 -0.47315200
v -0.19686200 0.25066100 -0.10844500
v 0.20753100 0.30121300 -0.06873000
v 0.20753100 0.28315100 -0.06873000
v 0.20753100 0.30121300 -0.11928200
v -0.24382700 0.30121300 -0.06873000
v -0.24382700 0.30121300 -0.11928200
v 0.20028500 0.25427300 -0.11567000
v -0.16796700 0.25788500 -0.06873000
v 0.17134600 0.25066100 -0.09039900
v -0.24382700 0.28315100 -0.11928200
v 0.15332000 0.25788500 -0.07234200
v -0.24382700 0.28315100 -0.06873000
v -0.19686200 0.25427300 -0.11567000
v -0.19686200 0.25066100 -0.09039900
v 0.20753100 0.28315100 -0.11928200
v 0.20753100 0.30121300 0.25985800
v -0.24381200 0.28315800 -0.06873000
v -0.24381200 0.28315800 0.25985800
v -0.24381200 0.30121300 -0.06873000
v 0.20753100 0.28315800 -0.06873000
v 0.20753100 0.28315800 0.25985800
v -0.24381200 0.30121300 0.25985800
f 12 5 13
f 3 2 4
f 4 2 5
f 1 5 7
f 6 1 7
f 3 4 8
f 4 6 8
f 5 1 9
f 4 5 9
f 6 4 9
f 1 6 9
f 6 7 10
f 8 6 10
f 8 10 11
f 3 8 11
f 10 3 11
f 2 3 12
f 7 5 12
f 3 10 12
f 10 7 12
f 5 2 13
f 2 12 13
f 21 22 27
f 16 18 19
f 15 16 19
f 16 15 20
f 18 17 21
f 19 18 21
f 21 17 22
f 15 19 23
f 22 15 23
f 14 22 23
f 21 14 24
f 19 21 24
f 23 19 24
f 14 23 24
f 17 18 25
f 18 16 25
f 16 20 25
f 20 17 25
f 20 15 26
f 17 20 26
f 15 22 26
f 22 17 26
f 14 21 27
f 22 14 27
f 36 31 40
f 28 32 33
f 33 30 34
f 28 33 34
f 28 31 35
f 32 28 35
f 31 32 35
f 30 29 36
f 32 31 36
f 29 32 36
f 29 30 37
f 33 29 37
f 30 33 37
f 30 31 38
f 31 28 38
f 34 30 38
f 28 34 38
f 32 29 39
f 29 33 39
f 33 32 39
f 31 30 40
f 30 36 40
f 44 49 51
f 42 43 44
f 42 45 46
f 43 42 46
f 45 41 46
f 42 44 47
f 44 45 47
f 45 42 47
f 44 41 48
f 41 45 48
f 45 44 48
f 44 43 49
f 46 41 50
f 43 46 50
f 41 49 50
f 49 43 50
f 41 44 51
f 49 41 51
f 52 59 60
f 53 54 55
f 54 53 56
f 54 56 57
f 52 55 57
f 56 52 57
f 55 54 58
f 54 57 58
f 57 55 58
f 52 56 59
f 56 53 59
f 53 55 60
f 55 52 60
f 59 53 60
f 66 68 71
f 63 62 64
f 61 64 65
f 64 62 65
f 62 63 66
f 66 63 67
f 63 64 67
f 61 65 68
f 65 62 68
f 66 61 68
f 61 66 69
f 66 67 69
f 67 61 69
f 64 61 70
f 67 64 70
f 61 67 70
f 62 66 71
f 68 62 71
f 82 85 88
f 73 74 75
f 74 73 76
f 73 75 76
f 76 75 78
f 74 77 79
f 78 75 81
f 76 78 81
f 80 72 82
f 74 76 83
f 72 80 83
f 76 81 83
f 81 72 83
f 77 74 84
f 74 83 84
f 83 80 84
f 79 77 85
f 85 82 86
f 81 79 86
f 72 81 86
f 82 72 86
f 79 85 86
f 75 74 87
f 74 79 87
f 81 75 87
f 79 81 87
f 80 82 88
f 77 84 88
f 84 80 88
f 85 77 88
f 95 89 97
f 91 90 92
f 90 91 93
f 92 90 93
f 89 91 94
f 91 92 94
f 94 92 95
f 93 89 95
f 92 93 95
f 91 89 96
f 89 93 96
f 93 91 96
f 89 94 97
f 94 95 97
f 103 106 107
f 99 100 101
f 100 99 102
f 99 101 102
f 101 100 103
f 98 101 103
f 101 98 104
f 98 102 104
f 102 101 104
f 102 98 105
f 100 102 105
f 103 100 106
f 105 98 106
f 100 105 106
f 98 103 107
f 106 98 107
f 115 110 117
f 109 110 111
f 110 109 112
f 109 111 112
f 111 110 113
f 111 108 114
f 108 112 114
f 112 111 114
f 112 108 115
f 113 110 115
f 108 113 115
f 108 111 116
f 111 113 116
f 113 108 116
f 110 112 117
f 112 115 117
f 122 120 125
f 120 119 121
f 119 120 122
f 121 119 122
f 118 121 123
f 122 118 123
f 121 122 123
f 118 120 124
f 120 121 124
f 121 118 124
f 120 118 125
f 118 122 125
f 128 130 132
f 47 127 128
f 128 126 129
f 47 128 129
f 47 129 42
f 127 47 42
f 42 126 130
f 128 127 130
f 127 42 130
f 129 126 131
f 42 129 131
f 126 42 131
f 126 128 132
f 130 126 132
f 137 136 139
f 134 135 136
f 135 134 137
f 134 136 137
f 135 133 131
f 136 135 131
f 133 136 131
f 133 135 138
f 137 133 138
f 135 137 138
f 136 133 139
f 133 137 139
f 151 149 153
f 119 140 144
f 119 144 145
f 140 119 146
f 143 140 146
f 141 145 147
f 142 141 148
f 140 143 148
f 143 142 148
f 141 142 149
f 142 143 149
f 145 141 149
f 145 144 150
f 141 147 150
f 147 145 150
f 148 141 150
f 119 145 151
f 146 119 151
f 145 149 151
f 144 140 152
f 140 148 152
f 150 144 152
f 148 150 152
f 143 146 153
f 149 143 153
f 146 151 153
f 161 168 169
f 155 156 157
f 156 155 91
f 155 157 91
f 91 157 159
f 159 157 163
f 158 160 164
f 157 156 165
f 162 161 165
f 163 157 165
f 161 163 165
f 156 91 166
f 91 159 166
f 160 156 166
f 163 154 166
f 159 163 166
f 154 164 166
f 164 160 166
f 156 160 167
f 160 158 167
f 158 162 167
f 165 156 167
f 162 165 167
f 162 158 168
f 161 162 168
f 164 154 168
f 158 164 168
f 154 163 169
f 163 161 169
f 168 154 169
f 176 179 184
f 171 172 173
f 172 171 174
f 171 173 174
f 174 173 175
f 172 174 177
f 170 176 178
f 176 172 178
f 175 173 179
f 174 175 179
f 172 177 180
f 178 172 180
f 177 178 180
f 177 174 181
f 179 170 181
f 174 179 181
f 176 170 182
f 170 179 182
f 179 176 182
f 170 178 183
f 178 177 183
f 181 170 183
f 177 181 183
f 173 172 184
f 172 176 184
f 179 173 184
f 185 188 191
f 186 187 188
f 187 186 189
f 186 188 189
f 188 185 171
f 185 189 171
f 189 188 171
f 185 187 190
f 189 185 190
f 187 189 190
f 187 185 191
f 188 187 191

