# https://github.com/mikedh/trimesh

o convex_0
v -0.19126300 0.20089300 0.06670800
v 0.19790900 0.21339300 0.06670800
v 0.19969400 0.21160500 0.06849600
v 0.17474300 0.20089300 0.05778100
v -0.18408400 0.21339300 0.06135400
v 0.20330300 0.20089300 0.06849600
v -0.18586900 0.21160500 0.06849600
v -0.16091800 0.20089300 0.05778100
v 0.19790900 0.21339300 0.06135400
v -0.18947800 0.20089300 0.06849600
v 0.17474300 0.20268000 0.05778100
v -0.18408400 0.21339300 0.06670800
v 0.20508800 0.20089300 0.06135400
v -0.17880200 -0.21339300 0.06670800
v -0.19130200 -0.20621500 0.06135400
v -0.19130200 -0.20621500 0.06670800
v -0.17880200 0.20089300 0.06135400
v -0.18951400 0.20089300 0.06849600
v -0.17880200 -0.18301900 0.05778100
v -0.19130200 0.20089300 0.06135400
v -0.17880200 0.20089300 0.06849600
v -0.18059000 0.18300900 0.05778100
v -0.18594400 -0.21156800 0.06849600
v -0.17880200 -0.21156800 0.06849600
v -0.19130200 0.20089300 0.06670800
v 0.20512700 0.20089300 0.06670900
v 0.19262700 -0.21339300 0.06135500
v 0.19798500 -0.21339300 0.06135500
v 0.19262700 0.18300900 0.05599600
v 0.19262700 0.20089300 0.06849600
v 0.20333900 -0.20799900 0.06849600
v 0.20512700 -0.20799900 0.06135500
v 0.19262700 -0.21156800 0.06849600
v 0.20512700 0.20089300 0.06135500
v 0.19441400 -0.18301900 0.05599600
v 0.20333900 0.20089300 0.06849600
v 0.20512700 -0.20799900 0.06670900
v 0.19262700 -0.18301900 0.05599600
v 0.19441400 0.18300900 0.05599600
v -0.16091400 -0.20268000 0.05778100
v 0.19262700 -0.20089300 0.06849600
v 0.19262700 -0.21160500 0.06849600
v -0.17880200 -0.20089300 0.06849600
v 0.19262700 -0.21339300 0.06135400
v 0.17473900 -0.20089300 0.05778100
v -0.17880200 -0.21339300 0.06135400
v -0.17880200 -0.21160500 0.06849600
v -0.16091400 -0.20089300 0.05778100
v 0.19262700 -0.21339300 0.06670800
v -0.17344100 -0.18839300 -0.11007500
v -0.15915900 -0.19910500 0.06669600
v -0.15915900 -0.20089300 0.06669600
v -0.17880200 -0.19196600 0.06849600
v -0.17880200 -0.20089300 0.06135100
v -0.15915900 -0.20089300 -0.10293000
v -0.15915900 -0.18839300 -0.10649300
v -0.16808800 -0.18839300 0.05955200
v -0.17701600 -0.19196600 -0.10293000
v -0.16987300 -0.19910500 -0.10113100
v -0.17880200 -0.18839300 0.06669600
v -0.15915900 -0.19375100 0.05955200
v -0.15915200 -0.18839300 -0.11721900
v -0.00201600 -0.19910500 0.06671000
v -0.00201600 -0.20089300 0.06671000
v -0.00201600 -0.19196600 -0.11721900
v -0.15915200 -0.20089300 -0.10468800
v -0.15915200 -0.19375100 0.05776200
v -0.00201600 -0.19375100 0.05776200
v -0.00201600 -0.20089300 -0.10468800
v -0.15915200 -0.20089300 0.06671000
v -0.00201600 -0.18839300 -0.10827100
v -0.15915200 -0.19910500 -0.11007100
v -0.15915200 -0.18839300 -0.10827100
v -0.15915200 -0.19553500 0.06312700
v -0.00201600 -0.18839300 -0.11721900
v -0.00201600 -0.19910500 -0.11007100
v -0.15915200 -0.19196600 -0.11721900
v -0.17701600 -0.18839300 0.06671000
v -0.16987400 -0.18839300 -0.11541800
v -0.16987400 -0.18122600 -0.11721900
v -0.17880100 -0.18300800 -0.10470600
v -0.17165900 -0.00625000 0.05776200
v -0.17880100 -0.00625000 -0.10470600
v -0.16630300 -0.00625000 -0.11721900
v -0.16987400 -0.18839300 0.05956200
v -0.17880100 -0.00625000 0.06671000
v -0.16630300 -0.18839300 -0.11541800
v -0.17880100 -0.18839300 0.06669200
v -0.16630300 -0.00625000 -0.10828900
v -0.17701600 -0.00625000 -0.11005300
v -0.16630300 -0.18839300 -0.10470600
v -0.17701600 -0.18839300 -0.10648800
v -0.17344500 -0.00625000 0.06310900
v -0.17701600 -0.18300800 -0.11005300
v -0.16987400 -0.00625000 -0.11721900
v -0.17522900 -0.18300800 0.06671000
v -0.00201600 -0.00625000 -0.11900400
v -0.16630200 -0.18839300 -0.11543200
v -0.16630200 -0.18839300 -0.10650400
v -0.16630200 -0.00625000 -0.11721800
v -0.00201600 -0.18480900 -0.11900400
v -0.00201600 -0.00625000 -0.11186300
v -0.00201600 -0.18839300 -0.11007700
v -0.16630200 -0.00625000 -0.11007700
v -0.16271600 -0.18300800 -0.11900400
v -0.16271600 -0.00625000 -0.11900400
v -0.00201600 -0.18839300 -0.11721700
v -0.16450100 -0.18659200 -0.10650400
v -0.17344500 0.07591600 -0.11363600
v -0.17522900 0.18837400 0.06671000
v -0.17165900 0.18837400 0.06312700
v -0.17701600 -0.00625000 0.06669200
v -0.16630300 -0.00621200 -0.10827100
v -0.17880100 0.18658300 -0.10112300
v -0.16630300 0.18837400 -0.11540000
v -0.17880100 0.18837400 0.06671000
v -0.17165900 -0.00621200 0.05776200
v -0.16987400 0.18837400 0.05954400
v -0.17880100 -0.00625000 0.06669200
v -0.16630300 -0.00621200 -0.11721900
v -0.17701600 0.18300100 -0.11005300
v -0.16987400 0.18123000 -0.11721900
v -0.16630300 0.18837400 -0.10468800
v -0.16987400 -0.00621200 -0.11721900
v -0.17701600 -0.00621200 -0.11005300
v -0.17701600 0.18837400 -0.10648800
v -0.17344500 -0.00621200 0.06310900
v -0.00201600 0.18837400 -0.11007700
v -0.16630200 -0.00623100 -0.11721800
v -0.16630200 -0.00623100 -0.11007700
v -0.16630200 0.18837400 -0.11543200
v -0.00201600 -0.00623100 -0.11900400
v -0.00201600 0.18479300 -0.11900400
v -0.16630200 0.18837400 -0.10650400
v -0.00201600 -0.00623100 -0.11186300
v -0.16271600 0.18300200 -0.11900400
v -0.16271600 -0.00623100 -0.11900400
v -0.00201600 0.18837400 -0.11721700
v -0.16450100 0.18658300 -0.10650400
v -0.17344100 0.18839300 -0.11007500
v -0.15915900 0.20089300 0.06669600
v -0.16987300 0.20089300 0.06849600
v -0.17344100 0.18839300 0.06669600
v -0.15915900 0.18839300 -0.11721900
v -0.16094500 0.20089300 -0.10293000
v -0.17880200 0.20089300 0.06135100
v -0.17701600 0.19196600 -0.10293000
v -0.15915900 0.19375100 0.05955200
v -0.17880200 0.18839300 0.06669600
v -0.16987300 0.19910500 -0.10113100
v -0.16808800 0.18839300 0.05955200
v -0.15915900 0.19910500 -0.11007500
v 0.17298400 0.20089300 0.06671000
v -0.15915200 0.18839300 -0.11721900
v -0.15915200 0.18839300 -0.10827100
v -0.15915200 0.20089300 0.06671000
v -0.15915200 0.20089300 -0.10468800
v 0.17298400 0.19196600 -0.11721900
v 0.17298400 0.19375100 0.05776200
v 0.17298400 0.20089300 -0.10468800
v -0.15915200 0.19375100 0.05776200
v 0.17298400 0.18839300 -0.10827100
v -0.15915200 0.19910400 -0.11007100
v 0.17298400 0.19553500 0.06312700
v 0.17298400 0.18839300 -0.11721900
v 0.17298400 0.19910400 -0.11007100
v -0.15915200 0.19196600 -0.11721900
v -0.15915200 0.19910400 0.06671000
v -0.15915200 0.19553500 0.06312700
v 0.17654300 -0.00625000 -0.11900400
v -0.00201600 -0.19910700 -0.11007700
v -0.00201600 -0.19910700 -0.10829000
v 0.18012700 -0.19731400 -0.11007700
v 0.18012700 -0.00625000 -0.11007700
v -0.00201600 -0.18479800 -0.11900400
v 0.17476000 -0.18479800 -0.11900400
v 0.18012700 -0.19731400 -0.10829000
v 0.18012700 -0.19195200 -0.11543100
v -0.00201600 -0.18838400 -0.10829000
v -0.00201600 -0.19195200 -0.11721700
v 0.17297700 -0.19195200 -0.11721700
v 0.18012700 -0.00625000 -0.11721700
v 0.18012700 -0.18302300 -0.10829000
v 0.17476000 -0.19910700 -0.11007700
v 0.18012700 -0.19196700 0.05956700
v -0.00201600 -0.19910600 -0.10829000
v -0.00201600 -0.20089100 -0.10471000
v 0.18012700 -0.19910600 -0.10471000
v 0.18012700 -0.18660900 -0.10829000
v -0.00201600 -0.19910600 0.06671000
v -0.00201600 -0.19018000 -0.10649200
v 0.18012700 -0.20089100 0.06671000
v -0.00201600 -0.19375100 0.05776800
v -0.00201600 -0.20089100 0.06671000
v 0.17297700 -0.20089100 -0.10471000
v 0.17654300 -0.19910600 -0.10829000
v 0.18012700 -0.19732000 0.06671000
v 0.17832600 -0.18660900 -0.10649200
v -0.00201600 -0.19553500 0.06313000
v 0.18191400 -0.18125000 -0.11721900
v 0.18012700 -0.20089300 0.05777000
v 0.18191400 -0.20089300 0.05777000
v 0.19083900 -0.18125000 0.06669600
v 0.19083900 -0.19196400 -0.10293000
v 0.18012700 -0.19910700 -0.10293000
v 0.19262700 -0.18125000 -0.10471200
v 0.18012700 -0.19017900 0.05777000
v 0.18012700 -0.18125000 -0.10827500
v 0.18548500 -0.18125000 0.05955200
v 0.19262700 -0.18125000 0.06669600
v 0.18369900 -0.19910700 -0.10113100
v 0.18012700 -0.19731800 0.06669600
v 0.19262700 -0.00625000 0.06671000
v 0.18012700 -0.18125000 -0.11721900
v 0.18012700 -0.00625000 -0.11721900
v 0.19262700 -0.18125000 -0.10470600
v 0.18726900 -0.18125000 0.06312700
v 0.19262700 -0.00625000 -0.10470600
v 0.18726900 -0.00625000 0.06310900
v 0.19262700 -0.18125000 0.06671000
v 0.18012700 -0.00625000 -0.10827100
v 0.18369900 -0.00625000 -0.11721900
v 0.19084000 -0.18125000 -0.11005300
v 0.18012700 -0.18125000 -0.10827100
v 0.18369900 -0.18125000 -0.11721900
v 0.19084000 -0.00625000 -0.11005300
v 0.17832500 0.18837400 -0.10650400
v 0.17655000 -0.00623100 -0.11900400
v 0.18189300 -0.00623100 -0.10650400
v 0.17475700 0.18479300 -0.11900400
v 0.19084100 0.18300200 -0.11007600
v 0.19084100 -0.00623100 -0.10650400
v 0.18368600 -0.00623100 -0.11721800
v 0.18368600 0.18837400 -0.11543200
v 0.19084100 0.18837400 -0.10650400
v 0.18368600 0.18123000 -0.11721800
v 0.19084100 -0.00623100 -0.11007600
v 0.18726900 0.18300100 0.06491300
v 0.19262700 0.18839300 0.06671000
v 0.19262700 0.18839300 -0.10113000
v 0.19262700 -0.00623100 0.06671000
v 0.18369900 -0.00623100 -0.10650400
v 0.18012700 0.18835500 -0.10650400
v 0.19262700 -0.00623100 -0.10470700
v 0.18726900 -0.00623100 0.06313200
v 0.18369900 0.18835500 0.05777400
v 0.19084000 0.18835500 -0.10650400
v 0.18012700 0.18658300 -0.10470700
v 0.18369700 0.20089300 0.06849600
v 0.19262700 0.18839300 0.06669600
v 0.19084000 0.19196600 -0.10293000
v 0.17298400 0.20089300 -0.10293000
v 0.17298400 0.19375100 0.05955200
v 0.17298400 0.20089300 0.06669600
v 0.18369700 0.19910500 -0.10113100
v 0.19084000 0.18839300 -0.10649300
v 0.18191300 0.18839300 0.05777000
f 11 9 13
f 1 4 6
f 3 2 7
f 5 1 7
f 6 3 7
f 4 1 8
f 1 5 8
f 2 3 9
f 5 2 9
f 1 6 10
f 7 1 10
f 6 7 10
f 4 8 11
f 8 5 11
f 5 9 11
f 2 5 12
f 7 2 12
f 5 7 12
f 3 6 13
f 6 4 13
f 9 3 13
f 4 11 13
f 18 20 25
f 14 15 19
f 17 14 19
f 15 16 20
f 18 17 20
f 14 17 21
f 17 18 21
f 19 15 22
f 17 19 22
f 20 17 22
f 15 20 22
f 15 14 23
f 16 15 23
f 18 16 23
f 21 18 23
f 21 23 24
f 14 21 24
f 23 14 24
f 16 18 25
f 20 16 25
f 35 29 39
f 29 27 30
f 27 28 33
f 30 27 33
f 31 30 33
f 28 31 33
f 30 26 34
f 29 30 34
f 26 32 34
f 34 32 35
f 28 27 35
f 32 28 35
f 26 30 36
f 30 31 36
f 31 26 36
f 26 31 37
f 31 28 37
f 28 32 37
f 32 26 37
f 27 29 38
f 35 27 38
f 29 35 38
f 29 34 39
f 34 35 39
f 14 44 49
f 42 41 43
f 41 42 44
f 44 40 45
f 43 41 45
f 41 44 45
f 14 43 46
f 44 14 46
f 40 44 46
f 42 43 47
f 43 14 47
f 14 42 47
f 45 40 48
f 43 45 48
f 40 46 48
f 46 43 48
f 42 14 49
f 44 42 49
f 56 57 61
f 52 51 53
f 52 53 54
f 52 54 55
f 51 52 55
f 55 50 56
f 51 55 56
f 56 50 57
f 55 54 59
f 50 55 59
f 58 50 59
f 54 58 59
f 53 51 60
f 54 53 60
f 51 57 60
f 57 50 60
f 50 58 60
f 58 54 60
f 51 56 61
f 57 51 61
f 65 72 77
f 63 64 65
f 62 66 67
f 63 65 68
f 65 64 69
f 64 66 69
f 64 63 70
f 66 64 70
f 67 66 70
f 67 68 71
f 68 65 71
f 66 62 72
f 69 66 72
f 62 67 73
f 71 62 73
f 67 71 73
f 68 67 74
f 63 68 74
f 70 63 74
f 67 70 74
f 65 62 75
f 62 71 75
f 71 65 75
f 65 69 76
f 72 65 76
f 69 72 76
f 62 65 77
f 72 62 77
f 93 86 96
f 83 82 84
f 78 79 85
f 82 83 86
f 83 81 86
f 79 80 87
f 80 84 87
f 85 79 87
f 79 78 88
f 78 86 88
f 86 81 88
f 84 82 89
f 82 85 89
f 87 84 89
f 81 83 90
f 83 84 90
f 85 87 91
f 89 85 91
f 87 89 91
f 79 88 92
f 88 81 92
f 85 82 93
f 82 86 93
f 80 79 94
f 90 80 94
f 81 90 94
f 79 92 94
f 92 81 94
f 84 80 95
f 80 90 95
f 90 84 95
f 78 85 96
f 86 78 96
f 85 93 96
f 102 104 108
f 98 99 100
f 97 100 102
f 101 97 102
f 101 102 103
f 99 98 103
f 100 99 104
f 102 100 104
f 98 100 105
f 97 101 105
f 100 97 106
f 105 100 106
f 97 105 106
f 101 103 107
f 103 98 107
f 98 105 107
f 105 101 107
f 103 102 108
f 99 103 108
f 104 99 108
f 118 111 127
f 111 110 112
f 110 111 115
f 112 110 116
f 114 83 116
f 110 115 116
f 112 113 117
f 117 113 118
f 115 111 118
f 83 112 119
f 112 116 119
f 116 83 119
f 113 112 120
f 112 83 120
f 115 113 120
f 83 114 121
f 115 120 122
f 109 121 122
f 113 115 123
f 118 113 123
f 115 118 123
f 120 83 124
f 109 122 124
f 122 120 124
f 121 109 125
f 83 121 125
f 109 124 125
f 124 83 125
f 114 116 126
f 116 115 126
f 121 114 126
f 115 122 126
f 122 121 126
f 111 112 127
f 112 117 127
f 117 118 127
f 130 135 139
f 129 130 131
f 130 129 132
f 128 132 133
f 131 130 134
f 128 131 134
f 132 128 135
f 130 132 135
f 129 131 136
f 133 132 136
f 132 129 137
f 129 136 137
f 136 132 137
f 131 128 138
f 128 133 138
f 136 131 138
f 133 136 138
f 128 134 139
f 134 130 139
f 135 128 139
f 150 145 152
f 141 142 143
f 143 140 144
f 142 141 145
f 142 145 146
f 141 143 148
f 144 141 148
f 143 142 149
f 140 143 149
f 142 146 149
f 147 140 149
f 146 147 149
f 146 145 150
f 140 147 150
f 147 146 150
f 143 144 151
f 148 143 151
f 144 148 151
f 144 140 152
f 141 144 152
f 145 141 152
f 140 150 152
f 168 161 169
f 154 155 156
f 156 153 157
f 154 156 157
f 158 153 159
f 157 153 160
f 153 158 160
f 156 155 161
f 155 159 161
f 155 154 162
f 159 155 162
f 158 159 162
f 154 157 163
f 157 160 163
f 159 153 164
f 161 159 164
f 154 158 165
f 162 154 165
f 158 162 165
f 160 158 166
f 158 163 166
f 163 160 166
f 158 154 167
f 154 163 167
f 163 158 167
f 153 156 168
f 156 161 168
f 164 153 168
f 164 168 169
f 161 164 169
f 181 178 184
f 171 172 102
f 174 170 102
f 171 102 175
f 175 170 176
f 102 170 97
f 170 175 97
f 175 102 97
f 173 174 177
f 174 173 178
f 102 172 179
f 174 102 179
f 172 177 179
f 171 175 180
f 175 176 180
f 176 178 181
f 171 180 181
f 180 176 181
f 170 174 182
f 176 170 182
f 174 178 182
f 178 176 182
f 177 174 183
f 174 179 183
f 179 177 183
f 172 171 184
f 177 172 184
f 173 177 184
f 178 173 184
f 171 181 184
f 190 197 199
f 185 188 189
f 186 187 190
f 189 186 191
f 186 190 191
f 188 185 192
f 191 190 193
f 190 187 194
f 187 192 194
f 192 190 194
f 187 186 195
f 192 187 195
f 188 192 195
f 189 188 196
f 186 189 196
f 195 186 196
f 188 195 196
f 192 185 197
f 190 192 197
f 185 189 198
f 189 191 198
f 193 185 198
f 191 193 198
f 185 193 199
f 193 190 199
f 197 185 199
f 209 207 212
f 201 202 41
f 202 201 205
f 200 203 206
f 204 200 206
f 41 204 206
f 205 201 207
f 205 207 208
f 203 200 208
f 200 205 208
f 203 208 209
f 208 207 209
f 203 41 210
f 206 203 210
f 41 206 210
f 200 204 211
f 41 202 211
f 204 41 211
f 205 200 211
f 202 205 211
f 201 41 212
f 41 203 212
f 207 201 212
f 203 209 212
f 223 222 226
f 214 216 217
f 215 213 218
f 213 216 218
f 213 215 219
f 217 213 219
f 216 213 220
f 213 217 220
f 217 216 220
f 215 214 221
f 219 215 221
f 217 219 221
f 214 215 222
f 215 218 222
f 216 214 223
f 218 216 223
f 214 217 224
f 221 214 224
f 217 221 224
f 214 222 225
f 222 223 225
f 223 214 225
f 222 218 226
f 218 223 226
f 232 233 237
f 132 228 229
f 229 227 128
f 228 132 230
f 132 128 133
f 230 132 133
f 132 229 135
f 229 128 135
f 128 132 135
f 229 228 232
f 227 229 232
f 232 228 233
f 128 227 234
f 231 234 235
f 227 232 235
f 232 231 235
f 234 227 235
f 228 230 236
f 231 233 236
f 233 228 236
f 230 234 236
f 234 231 236
f 133 128 138
f 230 133 138
f 234 230 138
f 128 234 138
f 231 232 237
f 233 231 237
f 245 246 248
f 240 239 241
f 239 238 241
f 239 240 243
f 240 241 244
f 241 242 244
f 241 238 245
f 242 241 245
f 238 239 246
f 239 243 246
f 245 238 246
f 243 240 247
f 242 243 247
f 240 244 247
f 244 242 247
f 243 242 248
f 242 245 248
f 246 243 248
f 253 165 257
f 30 249 250
f 249 30 252
f 252 165 253
f 250 249 254
f 249 252 254
f 252 253 254
f 253 250 254
f 30 251 255
f 252 30 255
f 165 252 255
f 30 250 256
f 250 165 256
f 251 30 256
f 165 255 256
f 255 251 256
f 165 250 257
f 250 253 257

