# https://github.com/mikedh/trimesh

o convex_0
v -0.14190100 -0.23998800 -0.01250000
v -0.12412500 -0.22665900 0.09195700
v -0.14412700 -0.22665900 0.09195700
v -0.12856900 -0.01330500 -0.01250000
v -0.14634600 -0.01330500 0.08528100
v -0.14634600 -0.01330500 -0.01250000
v -0.12856900 -0.01330500 0.08528100
v -0.12634800 -0.23998800 -0.01250000
v -0.14634600 -0.19997800 -0.01250000
v -0.14412700 -0.24888900 0.09195700
v -0.12412500 -0.24888900 0.06972900
v -0.14634600 -0.21999400 0.08751000
v -0.12412500 -0.24888900 0.09195700
v -0.14412700 -0.24888900 0.06972900
v -0.12634800 -0.19774100 -0.01250000
v -0.12412500 -0.22665900 0.06972900
v -0.12412500 -0.22666500 0.09195700
v 0.24703500 -0.24888900 0.06751000
v 0.24703500 -0.22444200 0.06751000
v 0.30480900 -0.24888900 0.09195700
v -0.12412500 -0.24888900 0.06973300
v 0.30480900 -0.22444200 0.09195700
v -0.12412500 -0.22666500 0.06973300
v 0.30480900 -0.24888900 0.06751000
v 0.30480900 -0.22444200 0.06751000
v 0.30481800 0.24894300 -0.01472400
v 0.31814900 0.21116700 -0.06806200
v 0.30481800 0.21339000 -0.06806200
v 0.31370700 0.21116700 0.00750300
v 0.32259500 0.25561700 -0.06806200
v 0.32259500 0.25561700 0.00750300
v 0.32259500 0.21116700 0.00750300
v 0.30481800 0.25117000 -0.06806200
v 0.32259500 0.21116700 -0.06806200
v 0.30481800 0.22672600 -0.01472400
v 0.31814900 0.25561700 0.00750300
v 0.30481800 0.25338900 -0.02139600
v -0.12412500 0.24894900 0.09195700
v -0.14412700 0.24894900 0.09195700
v -0.13079200 0.24004200 -0.01250000
v -0.12857100 -0.01330500 0.08528100
v -0.12857100 -0.01330500 -0.01250000
v -0.14634600 0.20002100 -0.01250000
v -0.12634800 0.24004200 -0.01250000
v -0.14634600 0.22001800 0.08751000
v -0.14190100 0.24001600 -0.01250000
v -0.12412500 0.22669300 0.06972900
v -0.14412700 0.24894900 0.06972900
v -0.12412500 0.22669300 0.09195700
v -0.12634800 0.19781300 -0.01250000
v -0.12412500 0.24894900 0.06972900
v 0.24703700 0.22450200 0.06751000
v 0.24703700 0.24894900 0.06751000
v 0.30481100 0.22450200 0.09195700
v -0.12412500 0.22672500 0.06973300
v 0.30481100 0.24894900 0.09195700
v -0.12412500 0.22672500 0.09195700
v -0.12412500 0.24894900 0.06973300
v 0.30481100 0.22450200 0.06751000
v 0.30481100 0.24894900 0.06751000
v 0.24258700 0.22005700 -0.04806000
v 0.10252100 0.20005500 -0.09694500
v -0.12412500 0.20005500 -0.09250400
v 0.10252100 0.21783300 -0.09694500
v -0.12412500 0.22005700 -0.04806400
v 0.24258700 0.20005500 -0.07250500
v -0.12412500 0.20005500 -0.07250500
v 0.24258700 0.21116600 -0.09250400
v -0.12412500 0.22005700 -0.07472500
v 0.24258700 0.22005700 -0.07472500
v -0.12412500 0.21116600 -0.09250400
v 0.14922200 0.21783300 -0.04806000
v 0.24258700 0.20005500 -0.09250400
v -0.12412500 0.21783300 -0.04806400
v 0.12251500 0.21783300 -0.09694500
v 0.24258700 0.21783300 -0.04806000
v -0.14412200 -0.20443900 -0.09251000
v -0.12635000 0.20450000 -0.01250000
v -0.12412700 0.20450000 -0.07250700
v -0.14634500 0.20001600 -0.09251000
v -0.14634500 -0.19995600 -0.01250000
v -0.12412900 -0.20443900 -0.09251000
v -0.12635000 -0.20443900 -0.01250000
v -0.14634500 0.20001600 -0.01250000
v -0.12412700 0.20450000 -0.09251000
v -0.14634500 -0.19995600 -0.09251000
v -0.12412900 -0.20443900 -0.07250700
v -0.14412600 0.20450000 -0.09251000
v 0.10256500 -0.19997600 -0.09695400
v 0.22480700 -0.01332300 -0.07473000
v 0.22480700 -0.19997600 -0.07473000
v -0.12412500 -0.01332300 -0.07473000
v 0.22480700 -0.01332300 -0.09250800
v -0.12412500 -0.19997600 -0.09250800
v -0.12412500 -0.01332300 -0.09250800
v -0.12412500 -0.19997600 -0.07473000
v 0.22480700 -0.19997600 -0.09250800
v 0.12254600 -0.19551800 -0.09695400
v 0.30480900 -0.22667000 -0.01472200
v 0.22481500 -0.25110500 -0.07250700
v 0.22481500 -0.20666600 -0.07250700
v 0.30480900 -0.25110500 -0.07250700
v 0.22481500 -0.24888500 -0.01472200
v 0.30480900 -0.20666600 -0.07250700
v 0.30480900 -0.25332500 -0.02139100
v 0.22481500 -0.22667000 -0.01472200
v 0.24703900 -0.25332500 -0.02139100
v 0.30480900 -0.24888500 -0.01472200
v 0.30480900 -0.25332500 -0.05027200
v 0.22481500 -0.20666600 -0.07028400
v 0.31814700 -0.01330500 -0.07250700
v 0.29592900 -0.25332700 -0.09028200
v 0.31814700 -0.25555600 -0.09916900
v 0.29815300 -0.01330500 -0.09694800
v 0.29592900 -0.25109800 -0.07250700
v 0.32259500 -0.25555600 -0.07250700
v 0.32259500 -0.01330500 -0.09916900
v 0.29592900 -0.01330500 -0.07473600
v 0.29815300 -0.18221200 -0.09916900
v 0.32259500 -0.01330500 -0.07250700
v 0.32259500 -0.25555600 -0.09916900
v 0.29592900 -0.01330500 -0.09250300
v 0.30482000 -0.01330500 -0.09916900
v 0.30926300 -0.15998900 0.07639800
v 0.32037300 0.16005000 0.07862200
v 0.32037300 0.16005000 0.05862000
v 0.32037300 -0.15998900 0.07862200
v 0.30926300 0.16005000 0.05862000
v 0.32037300 -0.15998900 0.05862000
v 0.31148600 0.16005000 0.07862200
v 0.30926300 -0.15998900 0.05862000
v 0.30926300 0.16005000 0.07639800
v 0.31148600 -0.15998900 0.07862200
v 0.31815200 -0.20443900 -0.07250700
v 0.32259600 0.21116700 -0.02139000
v 0.32259600 0.21116700 -0.06805900
v 0.32259600 -0.20443900 -0.02139000
v 0.31815200 0.21116700 -0.02139000
v 0.31815200 -0.20443900 -0.02139000
v 0.32259600 -0.20443900 -0.07250700
v 0.31815200 0.21116700 -0.06805900
v 0.32259600 -0.01327500 -0.07250700
v 0.10255900 0.20005500 -0.09695400
v 0.24258500 0.20005500 -0.07473200
v 0.24258500 -0.01330500 -0.07473200
v -0.12411600 0.20005500 -0.07473000
v -0.12411600 -0.01330500 -0.09250800
v 0.24258500 -0.01330500 -0.09250600
v -0.12411600 -0.01330500 -0.07473000
v -0.12411600 0.20005500 -0.09250800
v 0.23590900 0.20005500 -0.09473100
v 0.24258500 0.20005500 -0.09250600
v 0.12255300 0.19560600 -0.09695400
v 0.30481100 0.25339400 -0.07917700
v 0.24258700 -0.01330500 -0.09250500
v 0.29814000 0.16447700 -0.09917200
v 0.30481100 -0.01330500 -0.07473400
v 0.24258700 0.25114900 -0.07250700
v 0.24258700 0.25339400 -0.09028400
v 0.24258700 -0.01330500 -0.07473400
v 0.30481100 -0.01330500 -0.09695000
v 0.30481100 0.25112300 -0.07250700
v 0.30481100 0.25339400 -0.09028400
v 0.25148000 0.20003400 -0.09472900
v 0.30481100 0.18222900 -0.09917200
v 0.24258700 0.20003400 -0.07250700
v 0.30481100 0.20003400 -0.07250700
v 0.29814000 -0.01330500 -0.09695000
v 0.30481100 0.25339400 -0.02139100
v 0.24259300 0.20672200 -0.07250700
v 0.24259300 0.20672200 -0.07028400
v 0.30481100 0.20672200 -0.07250700
v 0.24259300 0.25116500 -0.07250700
v 0.24259300 0.22672800 -0.01472200
v 0.30481100 0.25116500 -0.07250700
v 0.30481100 0.22672800 -0.01472200
v 0.24259300 0.24894500 -0.01472200
v 0.24703900 0.25339400 -0.05027200
v 0.30481100 0.24894500 -0.01472200
v 0.24703900 0.25339400 -0.02139100
v 0.30481800 -0.01330500 -0.07473500
v 0.32259500 0.25561700 -0.06806500
v 0.32259500 0.25561700 -0.09917400
v 0.32259500 -0.01330500 -0.06806500
v 0.30481800 0.25116800 -0.06806500
v 0.30481800 -0.01330500 -0.09917400
v 0.32259500 -0.01330500 -0.09917400
v 0.30481800 0.18225300 -0.09917400
v 0.30481800 0.25335300 -0.09028400
v 0.31814900 -0.01330500 -0.06806500
v 0.30703900 -0.01330500 -0.01916700
v 0.32259700 0.21116700 0.00750300
v 0.32259700 0.21116700 -0.02139000
v 0.32259700 -0.01330500 -0.02139000
v 0.30703900 0.19783000 -0.01249800
v 0.30703900 0.16225600 0.00750300
v 0.32259700 -0.01330500 -0.01027200
v 0.30703900 -0.01330500 -0.01027200
v 0.30703900 0.18669000 -0.01916700
v 0.32259700 0.16225600 0.00750300
v 0.31370800 0.21116700 0.00750300
v 0.31815100 0.21116700 -0.02139000
v -0.12635000 -0.23999500 -0.01250000
v -0.14412000 -0.25333400 -0.09028500
v -0.14412000 -0.21111100 -0.09251000
v -0.12412700 -0.25333400 -0.09028500
v -0.12412700 -0.20443900 -0.09251000
v -0.15301700 -0.21111100 -0.04806400
v -0.14412000 -0.24888300 -0.01472400
v -0.15301700 -0.25110800 -0.07472300
v -0.12412700 -0.25110800 -0.01917200
v -0.14412000 -0.20443900 -0.09251000
v -0.14412000 -0.22222400 -0.01472400
v -0.15301700 -0.25110800 -0.04807200
v -0.15301700 -0.21111100 -0.07472300
v -0.12412700 -0.22667100 -0.01472400
v 0.30926300 0.16005000 0.05861800
v 0.31370700 0.25561700 0.09640200
v 0.32259300 0.25561700 0.09417500
v 0.31815000 0.25561700 0.00750300
v 0.32259700 0.16227600 0.00750300
v 0.32259300 0.16227600 0.09417500
v 0.30704100 0.16672900 0.00750300
v 0.30482000 0.24894700 0.09194700
v 0.30704100 0.16227600 0.09640200
v 0.32259700 0.25561700 0.00750300
v 0.30482000 0.24894700 0.06751200
v 0.30704100 0.25561700 0.09640200
v 0.30482000 0.22449400 0.06751200
v 0.30704100 0.16227600 0.00750300
v 0.22480700 -0.22444400 -0.02139400
v -0.12412500 -0.25333400 -0.09028700
v -0.12412500 -0.25333400 -0.07916200
v -0.12412500 -0.21999700 -0.03917600
v 0.22480700 -0.21999700 -0.07471700
v 0.22480700 -0.25110800 -0.01916800
v -0.12412500 -0.24888600 -0.01472200
v 0.22480700 -0.25333400 -0.09028700
v -0.12412500 -0.21999700 -0.07471700
v -0.12412500 -0.22666700 -0.01472200
v 0.22480700 -0.22666700 -0.01472200
v -0.12412500 -0.24666400 -0.09028700
v 0.22480700 -0.21999700 -0.03917600
v -0.12412500 -0.25110800 -0.01916800
v 0.22480700 -0.24666400 -0.09028700
v 0.22480700 -0.24888600 -0.01472200
v 0.22480700 -0.25333400 -0.07916200
v 0.22480700 -0.19999400 -0.07250500
v 0.10253100 -0.21777100 -0.09694500
v -0.12412500 -0.21999500 -0.07472500
v 0.22480700 -0.21999500 -0.04806000
v -0.12412500 -0.19999400 -0.07250500
v -0.12412500 -0.19999400 -0.09250400
v -0.12412500 -0.21777100 -0.04806400
v 0.22480700 -0.19999400 -0.09250400
v 0.22480700 -0.21999500 -0.07472500
v -0.12412500 -0.21110400 -0.09250400
v 0.12254600 -0.19999400 -0.09694500
v 0.22480700 -0.21110400 -0.09250400
v -0.12412500 -0.21999500 -0.04806400
v 0.22480700 -0.21777100 -0.04806000
v 0.12254600 -0.21777100 -0.09694500
v 0.29592000 -0.01330500 -0.07473300
v 0.22480700 -0.25333400 -0.09028500
v 0.22480700 -0.25333400 -0.07917500
v 0.29592000 -0.25333400 -0.09028500
v 0.22480700 -0.01330500 -0.09250600
v 0.29592000 -0.01330500 -0.09250600
v 0.22480700 -0.01330500 -0.07473300
v 0.29592000 -0.25110200 -0.07250700
v 0.22925500 -0.19997600 -0.09473200
v 0.22480700 -0.25110200 -0.07250700
v 0.26702900 -0.18886300 -0.09473200
v 0.22480700 -0.19997600 -0.07250700
v 0.29592000 -0.21106600 -0.09250600
v 0.29592000 -0.19997600 -0.07250700
v 0.31148400 -0.20443900 -0.01249900
v 0.32259700 -0.16217500 -0.00138700
v 0.32259700 -0.01330500 -0.01027800
v 0.32259700 -0.20443900 -0.02139000
v 0.30703900 -0.01330500 -0.01916500
v 0.30703900 -0.16217500 -0.00138700
v 0.30703900 -0.18664700 -0.01916500
v 0.30703900 -0.01330500 -0.01027800
v 0.32259700 -0.20443900 -0.00138700
v 0.31370700 -0.20443900 -0.01250500
v 0.31814900 -0.25555600 -0.07250700
v 0.31814900 -0.25555600 -0.00138700
v 0.30481800 -0.25110800 -0.07250700
v 0.32259500 -0.20443900 -0.07250700
v 0.32259500 -0.20443900 -0.00138700
v 0.30481800 -0.20667100 -0.07250700
v 0.30481800 -0.24888700 -0.01472600
v 0.32259500 -0.25555600 -0.00138700
v 0.31370700 -0.20443900 -0.00138700
v 0.30481800 -0.22666500 -0.01472600
v 0.30481800 -0.25333000 -0.02139500
v 0.30926300 -0.15998900 0.07639600
v 0.31815000 -0.25555600 -0.00137800
v 0.31370700 -0.22665100 -0.00137800
v 0.30482000 -0.24888700 0.09195100
v 0.32259300 -0.16221600 0.09417200
v 0.32259300 -0.25555600 0.09417200
v 0.32259700 -0.16221600 -0.00137800
v 0.30704100 -0.16221600 -0.00137800
v 0.30704100 -0.16221600 0.09640200
v 0.32259700 -0.25555600 -0.00137800
v 0.30482000 -0.24888700 0.06751300
v 0.30704100 -0.25555600 0.09640200
v 0.30482000 -0.22443300 0.09195100
v 0.24258700 0.24894700 -0.01472200
v -0.12412500 0.24672100 -0.09028700
v -0.12412500 0.22005700 -0.07471700
v 0.24258700 0.24672100 -0.09028700
v -0.12412500 0.25116900 -0.01916800
v 0.24258700 0.22450500 -0.02139400
v -0.12412500 0.22673000 -0.01472200
v 0.24258700 0.22005700 -0.07471700
v 0.24258700 0.25339400 -0.09028700
v -0.12412500 0.25339400 -0.09028700
v -0.12412500 0.22005700 -0.03917600
v 0.24258700 0.22005700 -0.03917600
v 0.24258700 0.22673000 -0.01472200
v 0.24258700 0.25116900 -0.01916800
v -0.12412500 0.24894700 -0.01472200
v -0.12412500 0.25339400 -0.07916200
v 0.24258700 0.25339400 -0.07916200
v -0.12412700 0.25116400 -0.01917200
v -0.14412000 0.20450600 -0.09251000
v -0.12412700 0.20450600 -0.09251000
v -0.12857600 0.20450600 -0.01250000
v -0.15301700 0.25116400 -0.07472300
v -0.12412700 0.25339000 -0.09028500
v -0.14412000 0.22228100 -0.01472400
v -0.15301700 0.21117300 -0.04806400
v -0.14412000 0.24894400 -0.01472400
v -0.14412000 0.25339000 -0.09028500
v -0.15301700 0.25116400 -0.04807200
v -0.12412700 0.22673200 -0.01472400
v -0.15301700 0.21117300 -0.07472300
f 15 4 16
f 3 2 5
f 4 1 6
f 5 4 6
f 2 4 7
f 4 5 7
f 5 2 7
f 1 4 8
f 6 1 9
f 5 6 9
f 2 3 10
f 1 8 11
f 3 5 12
f 5 9 12
f 10 3 12
f 2 10 13
f 11 2 13
f 10 11 13
f 9 1 14
f 1 11 14
f 11 10 14
f 12 9 14
f 10 12 14
f 8 4 15
f 11 8 15
f 11 15 16
f 4 2 16
f 2 11 16
f 24 19 25
f 19 18 21
f 18 20 21
f 19 17 22
f 17 20 22
f 20 17 13
f 17 21 13
f 21 20 13
f 17 19 23
f 21 17 23
f 19 21 23
f 18 19 24
f 20 18 24
f 22 20 24
f 22 24 25
f 19 22 25
f 36 30 37
f 28 27 29
f 27 28 30
f 29 27 32
f 30 31 32
f 31 29 32
f 28 26 33
f 30 28 33
f 27 30 34
f 32 27 34
f 30 32 34
f 26 28 35
f 28 29 35
f 29 26 35
f 26 29 36
f 31 30 36
f 29 31 36
f 33 26 37
f 30 33 37
f 26 36 37
f 44 48 51
f 6 40 42
f 41 6 42
f 6 41 5
f 40 6 43
f 6 5 43
f 42 40 44
f 5 39 45
f 43 5 45
f 40 43 46
f 41 42 47
f 39 38 48
f 44 40 48
f 45 39 48
f 43 45 48
f 40 46 48
f 46 43 48
f 38 39 49
f 39 5 49
f 5 41 49
f 47 38 49
f 41 47 49
f 42 44 50
f 47 42 50
f 44 47 50
f 38 47 51
f 47 44 51
f 48 38 51
f 59 53 60
f 53 52 55
f 53 38 56
f 38 54 56
f 52 54 57
f 54 38 57
f 38 55 57
f 55 52 57
f 38 53 58
f 55 38 58
f 53 55 58
f 52 53 59
f 54 52 59
f 56 54 59
f 56 59 60
f 53 56 60
f 72 66 76
f 62 63 64
f 63 62 66
f 65 63 67
f 63 66 67
f 61 66 68
f 65 61 69
f 63 65 69
f 61 68 70
f 64 69 70
f 69 61 70
f 64 63 71
f 63 69 71
f 69 64 71
f 61 65 72
f 67 66 72
f 66 62 73
f 68 66 73
f 65 67 74
f 72 65 74
f 67 72 74
f 62 64 75
f 64 70 75
f 70 68 75
f 73 62 75
f 68 73 75
f 66 61 76
f 61 72 76
f 85 80 88
f 77 80 82
f 77 82 83
f 79 78 83
f 81 77 83
f 78 81 83
f 80 81 84
f 81 78 84
f 78 79 85
f 79 82 85
f 82 80 85
f 80 77 86
f 77 81 86
f 81 80 86
f 82 79 87
f 83 82 87
f 79 83 87
f 84 78 88
f 80 84 88
f 78 85 88
f 97 89 98
f 91 90 92
f 90 91 93
f 92 90 93
f 89 91 94
f 92 93 95
f 89 94 95
f 94 92 95
f 91 92 96
f 94 91 96
f 92 94 96
f 91 89 97
f 93 91 97
f 93 97 98
f 89 95 98
f 95 93 98
f 101 106 110
f 100 101 102
f 101 100 103
f 102 101 104
f 99 102 104
f 102 99 105
f 103 99 106
f 101 103 106
f 103 100 107
f 105 103 107
f 99 103 108
f 105 99 108
f 103 105 108
f 100 102 109
f 102 105 109
f 107 100 109
f 105 107 109
f 99 104 110
f 104 101 110
f 106 99 110
f 117 119 123
f 115 112 116
f 112 113 116
f 111 115 116
f 114 111 117
f 111 114 118
f 115 111 118
f 112 115 118
f 113 112 119
f 117 113 119
f 111 116 120
f 116 117 120
f 117 111 120
f 116 113 121
f 113 117 121
f 117 116 121
f 112 118 122
f 118 114 122
f 119 112 122
f 114 119 122
f 114 117 123
f 119 114 123
f 130 124 133
f 126 125 127
f 125 126 128
f 126 127 129
f 127 124 129
f 128 126 129
f 127 125 130
f 125 128 130
f 124 128 131
f 129 124 131
f 128 129 131
f 128 124 132
f 124 130 132
f 130 128 132
f 124 127 133
f 127 130 133
f 141 136 142
f 136 135 137
f 135 136 138
f 137 135 138
f 134 137 139
f 138 134 139
f 137 138 139
f 136 137 140
f 137 134 140
f 134 138 141
f 138 136 141
f 140 134 142
f 136 140 142
f 134 141 142
f 151 148 153
f 145 144 146
f 144 143 146
f 145 147 148
f 144 145 148
f 145 146 149
f 146 147 149
f 147 145 149
f 146 143 150
f 143 147 150
f 147 146 150
f 143 144 151
f 148 151 152
f 144 148 152
f 151 144 152
f 147 143 153
f 148 147 153
f 143 151 153
f 161 155 168
f 155 158 159
f 158 154 159
f 155 157 160
f 158 155 160
f 157 155 161
f 154 157 161
f 157 154 162
f 154 158 162
f 159 154 163
f 154 161 163
f 156 155 164
f 155 159 164
f 164 159 165
f 161 156 165
f 159 163 165
f 163 161 165
f 156 164 165
f 160 157 166
f 158 160 166
f 162 158 166
f 162 166 167
f 157 162 167
f 166 157 167
f 155 156 168
f 156 161 168
f 169 178 180
f 171 170 172
f 170 171 173
f 172 170 173
f 173 171 174
f 169 172 175
f 172 173 175
f 171 172 176
f 172 169 176
f 174 171 176
f 174 176 177
f 173 174 177
f 169 175 178
f 175 173 178
f 176 169 179
f 177 176 179
f 169 177 179
f 177 169 180
f 173 177 180
f 178 173 180
f 184 185 190
f 183 182 184
f 184 182 185
f 184 181 186
f 181 185 186
f 183 184 187
f 186 183 187
f 184 186 187
f 183 186 188
f 186 185 188
f 182 183 189
f 185 182 189
f 183 188 189
f 188 185 189
f 181 184 190
f 185 181 190
f 195 201 202
f 193 192 194
f 195 191 196
f 194 192 197
f 191 194 197
f 196 191 198
f 191 197 198
f 197 196 198
f 191 195 199
f 192 196 200
f 196 197 200
f 197 192 200
f 192 193 201
f 196 192 201
f 195 196 201
f 193 194 202
f 194 191 202
f 191 199 202
f 199 195 202
f 201 193 202
f 203 211 216
f 204 205 206
f 206 205 207
f 203 83 209
f 205 204 210
f 204 206 211
f 206 207 211
f 203 209 211
f 207 205 212
f 208 83 212
f 83 207 212
f 205 210 212
f 83 208 213
f 208 209 213
f 209 83 213
f 209 208 214
f 210 204 214
f 208 210 214
f 204 211 214
f 211 209 214
f 210 208 215
f 208 212 215
f 212 210 215
f 83 203 216
f 207 83 216
f 211 207 216
f 225 229 230
f 218 219 220
f 221 219 222
f 219 218 222
f 217 221 222
f 220 221 223
f 222 218 225
f 217 222 225
f 220 219 226
f 221 220 226
f 219 221 226
f 220 223 227
f 218 220 228
f 224 225 228
f 225 218 228
f 220 227 228
f 227 224 228
f 225 224 229
f 227 223 229
f 224 227 229
f 221 217 230
f 223 221 230
f 217 225 230
f 229 223 230
f 238 236 247
f 232 233 234
f 235 231 236
f 234 233 237
f 233 232 238
f 235 236 238
f 232 234 239
f 234 235 239
f 231 234 240
f 234 237 240
f 240 237 241
f 236 231 241
f 231 240 241
f 238 232 242
f 232 239 242
f 239 235 242
f 234 231 243
f 231 235 243
f 235 234 243
f 233 236 244
f 236 237 244
f 237 233 244
f 235 238 245
f 238 242 245
f 242 235 245
f 237 236 246
f 241 237 246
f 236 241 246
f 236 233 247
f 233 238 247
f 259 256 262
f 250 252 253
f 252 248 253
f 252 250 254
f 248 251 255
f 253 248 255
f 250 249 256
f 251 250 256
f 255 251 256
f 249 250 257
f 250 253 257
f 253 249 257
f 249 253 258
f 253 255 258
f 258 255 259
f 255 256 259
f 250 251 260
f 254 250 260
f 251 254 260
f 251 248 261
f 248 252 261
f 254 251 261
f 252 254 261
f 256 249 262
f 249 258 262
f 258 259 262
f 274 270 276
f 265 264 266
f 264 265 267
f 263 266 268
f 267 263 268
f 263 267 269
f 267 265 269
f 265 266 270
f 266 263 270
f 266 264 271
f 264 267 271
f 269 265 272
f 265 270 272
f 267 268 273
f 266 271 273
f 271 267 273
f 263 269 274
f 269 272 274
f 272 270 274
f 268 266 275
f 266 273 275
f 273 268 275
f 270 263 276
f 263 274 276
f 282 277 285
f 279 278 280
f 278 279 282
f 277 282 283
f 280 277 283
f 281 280 283
f 282 281 283
f 279 280 194
f 280 281 194
f 281 279 194
f 279 281 284
f 282 279 284
f 281 282 284
f 280 278 285
f 277 280 285
f 278 282 285
f 293 289 297
f 287 116 288
f 116 287 289
f 116 289 290
f 116 290 291
f 290 286 291
f 286 290 292
f 290 289 292
f 292 289 293
f 288 116 294
f 116 291 294
f 291 288 294
f 288 291 295
f 291 286 295
f 286 292 295
f 293 288 295
f 293 295 296
f 292 293 296
f 295 292 296
f 287 288 297
f 289 287 297
f 288 293 297
f 305 308 310
f 299 300 304
f 298 302 304
f 302 303 304
f 298 304 305
f 304 300 305
f 302 298 306
f 303 302 306
f 298 305 306
f 303 299 307
f 299 304 307
f 304 303 307
f 300 299 308
f 305 300 308
f 299 303 309
f 303 306 309
f 306 301 309
f 308 299 309
f 301 308 309
f 301 306 310
f 306 305 310
f 308 301 310
f 319 326 327
f 313 312 314
f 312 313 315
f 314 311 316
f 315 313 317
f 313 314 318
f 314 316 318
f 314 312 319
f 311 314 319
f 312 315 320
f 319 312 320
f 317 313 321
f 316 317 321
f 313 318 321
f 321 318 322
f 318 316 322
f 316 321 322
f 316 311 323
f 311 317 323
f 317 316 323
f 315 311 324
f 311 319 324
f 311 315 325
f 317 311 325
f 315 317 325
f 320 315 326
f 319 320 326
f 315 324 326
f 326 324 327
f 324 319 327
f 329 335 340
f 329 330 331
f 328 330 333
f 330 329 333
f 329 331 335
f 331 334 335
f 334 331 336
f 335 334 336
f 329 332 337
f 333 329 337
f 328 333 337
f 332 335 338
f 336 328 338
f 335 336 338
f 337 332 338
f 328 337 338
f 330 328 339
f 331 330 339
f 328 336 339
f 336 331 339
f 332 329 340
f 335 332 340

