# https://github.com/mikedh/trimesh

o convex_0
v -0.17058600 -0.27694700 -0.10772700
v -0.19544000 -0.30177300 -0.46594000
v -0.19544000 -0.30177300 -0.10772700
v 0.36138700 -0.30177300 -0.46594000
v -0.18475700 -0.27694700 -0.46594000
v 0.36138700 -0.28049700 -0.10772700
v 0.36138700 -0.27694700 -0.46594000
v 0.36138700 -0.30177300 -0.10772700
v -0.19544000 -0.28049700 -0.10772700
v -0.19544000 -0.28049700 -0.46594000
v 0.36138700 -0.27694700 -0.44465600
v 0.36138700 0.28342900 -0.10421500
v -0.19544000 0.28342900 -0.46594000
v -0.19544000 0.30116000 -0.46594000
v -0.19544000 0.28342900 -0.10421500
v 0.36138700 0.27988000 -0.46594000
v 0.36138700 0.30116000 -0.10421500
v 0.36138700 0.30116000 -0.46594000
v -0.19544000 0.30116000 -0.10421500
v -0.18475700 0.27988000 -0.10421500
v -0.18475700 0.27988000 -0.46594000
v 0.36138700 0.27988000 -0.44462500
v -0.18480000 -0.27694700 -0.46594000
v 0.36138700 -0.02868000 -0.44466400
v 0.36138700 -0.27694700 -0.44466400
v -0.18480000 -0.02868000 -0.44111300
v 0.36138700 -0.02868000 -0.46593800
v -0.18480000 -0.27694700 -0.44111300
v -0.18480000 -0.02868000 -0.46594000
v 0.36138700 -0.27694700 -0.46593800
v -0.18480000 0.27274000 -0.10406100
v -0.18479700 -0.27694700 -0.44111100
v -0.18480000 -0.02867500 -0.44466000
v -0.17061300 0.27988000 -0.44466000
v -0.17061300 -0.27694700 0.31078000
v -0.18479600 0.27988000 0.31078000
v -0.17061300 0.27988000 0.31078000
v -0.17061300 -0.27694700 -0.44111100
v -0.18480000 -0.27694700 0.31078000
v -0.18479600 0.27988000 -0.44466000
v -0.08194700 -0.28049700 0.33560700
v -0.09259000 -0.27694700 0.33560700
v -0.19544000 -0.30177300 0.33560700
v -0.08194700 -0.30177300 -0.10772700
v -0.08194700 -0.28049700 -0.10772700
v -0.08194700 -0.30177300 0.33560700
v -0.18479700 -0.27694700 0.33560700
v -0.17060000 -0.27694700 -0.10772700
v -0.19544000 -0.28049700 0.33560700
v 0.36138700 -0.28049500 0.31078000
v -0.08194700 -0.30177100 -0.10772700
v -0.08194700 -0.30177100 0.31078000
v -0.08194700 -0.28049500 -0.10772700
v 0.36138700 -0.30177100 -0.10772700
v -0.08194700 -0.28049500 0.31078000
v 0.36138700 -0.30177100 0.31078000
v 0.36138700 -0.28049500 -0.10772700
v -0.18480000 -0.02868000 -0.46593800
v 0.36138700 0.27988000 -0.44466200
v 0.36138700 -0.02868000 -0.44466200
v 0.36138700 0.27988000 -0.46593800
v -0.18480000 0.27988000 -0.44466200
v -0.18480000 0.27988000 -0.46593800
v -0.18480000 -0.02868000 -0.44466200
v -0.09259600 0.27988000 0.33560700
v -0.18479100 -0.27694700 0.31078000
v -0.17059500 -0.27694700 0.31078000
v -0.09259600 -0.27694700 0.33560700
v -0.18479100 -0.27694700 0.33560700
v -0.18479100 0.27988000 0.31078000
v -0.09259600 0.27988000 0.31432800
v -0.18479100 0.27988000 0.33560700
v -0.09259600 -0.27694700 0.31432800
v -0.17059500 0.27988000 0.31078000
v -0.18479200 0.27988000 -0.10418000
v -0.06421700 0.30116000 0.33560700
v -0.19544000 0.30116000 0.33560700
v -0.06421700 0.30116000 -0.10418000
v -0.09259100 0.27988000 0.33560700
v -0.19544000 0.30116000 -0.10418000
v -0.06421700 0.28342900 -0.10418000
v -0.19544000 0.28342900 0.33560700
v -0.06421700 0.28342900 0.33560700
v -0.18479200 0.27988000 0.33560700
v -0.19544000 0.28342900 -0.10418000
v 0.36138700 0.27988000 0.33560700
v 0.27982100 -0.27694700 0.31432700
v 0.36138700 -0.27694700 0.31432700
v 0.27982100 -0.27694700 0.33560700
v 0.27982100 0.27988000 0.31432700
v 0.36138700 -0.27694700 0.33560700
v 0.36138700 0.27988000 0.31432700
v 0.27982100 0.27988000 0.33560700
v 0.27622600 0.28342700 -0.10418000
v 0.36137800 0.30116000 0.33560700
v -0.06421300 0.30116000 0.33560700
v 0.36137800 0.27988000 0.33560700
v 0.36137800 0.30116000 -0.10418000
v -0.06421300 0.28342700 -0.10418000
v -0.06421300 0.30116000 -0.10418000
v -0.06421300 0.28342700 0.33560700
v 0.36137800 0.28342900 -0.10418000
v 0.27980900 0.27988000 0.31429700
v 0.36138700 -0.27694700 0.31432800
v -0.08194700 -0.30177300 0.31078000
v 0.36138700 -0.30177300 0.31078000
v 0.36138700 -0.30177300 0.33560700
v -0.08194700 -0.28049700 0.31078000
v 0.36138700 -0.28049700 0.31078000
f 6 7 11
f 3 2 4
f 4 2 5
f 1 3 6
f 5 1 7
f 4 5 7
f 6 4 7
f 3 4 8
f 6 3 8
f 4 6 8
f 3 1 9
f 2 3 9
f 1 5 9
f 9 5 10
f 5 2 10
f 2 9 10
f 1 6 11
f 7 1 11
f 20 16 22
f 14 13 15
f 13 14 16
f 15 12 17
f 12 16 17
f 17 16 18
f 16 14 18
f 14 17 18
f 14 15 19
f 17 14 19
f 15 17 19
f 15 13 20
f 12 15 20
f 16 20 21
f 13 16 21
f 20 13 21
f 16 12 22
f 12 20 22
f 27 25 30
f 25 24 26
f 24 25 27
f 26 24 27
f 23 25 28
f 25 26 28
f 26 23 28
f 23 26 29
f 27 23 29
f 26 27 29
f 25 23 30
f 23 27 30
f 36 34 40
f 34 36 37
f 35 34 37
f 36 35 37
f 32 33 38
f 33 34 38
f 34 35 38
f 35 32 38
f 31 33 39
f 33 32 39
f 32 35 39
f 35 36 39
f 36 31 39
f 33 31 40
f 34 33 40
f 31 36 40
f 43 47 49
f 41 42 43
f 41 44 45
f 42 41 45
f 44 9 45
f 41 43 46
f 43 44 46
f 44 41 46
f 43 9 3
f 9 44 3
f 44 43 3
f 43 42 47
f 45 9 48
f 42 45 48
f 9 47 48
f 47 42 48
f 9 43 49
f 47 9 49
f 54 53 57
f 51 52 53
f 52 51 54
f 51 53 54
f 52 50 55
f 53 52 55
f 50 53 55
f 50 52 56
f 54 50 56
f 52 54 56
f 53 50 57
f 50 54 57
f 58 61 27
f 59 60 61
f 60 59 62
f 59 61 62
f 61 58 63
f 58 62 63
f 62 61 63
f 58 60 64
f 62 58 64
f 60 62 64
f 60 58 27
f 61 60 27
f 70 71 74
f 66 67 68
f 68 65 69
f 66 68 69
f 66 69 70
f 67 66 70
f 65 68 71
f 70 65 71
f 69 65 72
f 70 69 72
f 65 70 72
f 68 67 73
f 67 71 73
f 71 68 73
f 67 70 74
f 71 67 74
f 82 80 85
f 77 76 78
f 76 77 79
f 77 78 80
f 78 75 80
f 78 76 81
f 75 78 81
f 79 75 81
f 79 77 82
f 77 80 82
f 76 79 83
f 81 76 83
f 79 81 83
f 75 79 84
f 82 75 84
f 79 82 84
f 80 75 85
f 75 82 85
f 90 89 93
f 87 88 89
f 88 87 90
f 87 89 90
f 88 86 91
f 89 88 91
f 86 89 91
f 86 88 92
f 90 86 92
f 88 90 92
f 89 86 93
f 86 90 93
f 102 97 103
f 95 96 97
f 96 95 98
f 95 97 98
f 98 94 99
f 98 99 100
f 96 98 100
f 99 96 100
f 97 96 101
f 96 99 101
f 94 98 102
f 98 97 102
f 99 94 103
f 97 101 103
f 101 99 103
f 94 102 103
f 106 108 109
f 46 105 106
f 106 104 107
f 46 106 107
f 46 107 41
f 105 46 41
f 41 104 108
f 106 105 108
f 105 41 108
f 107 104 91
f 41 107 91
f 104 41 91
f 104 106 109
f 108 104 109

