# https://github.com/mikedh/trimesh

o convex_0
v 0.00731000 -0.49979700 -0.13097400
v 0.02893100 0.49960500 0.15005200
v 0.02893100 0.49960500 -0.13097400
v 0.02893100 -0.49979700 0.15005200
v 0.00731000 0.49960500 0.15005200
v 0.00731000 -0.49979700 0.15005200
v 0.02893100 -0.49979700 -0.13097400
v 0.00731000 0.49960500 -0.13097400
v 0.00490700 -0.45169000 0.15008000
v 0.02893100 -0.00730300 0.19812800
v 0.02893100 -0.00730300 0.15008000
v 0.02893100 -0.49974900 0.19812800
v 0.00731300 -0.00730300 0.19812800
v 0.02893100 -0.49974900 0.15008000
v 0.00731300 -0.49974900 0.19812800
v 0.00731300 -0.00730300 0.15008000
v 0.00731300 -0.49974900 0.15008000
v 0.00490700 -0.38439800 0.17650300
v 0.00490700 -0.38439800 0.15008000
v 0.00490700 -0.45169000 0.17650300
v 0.00490700 0.38421400 0.15008000
v 0.02893100 0.49955600 0.19812800
v 0.02893100 0.49955600 0.15008000
v 0.02893100 -0.00720400 0.19812800
v 0.00731300 0.49955600 0.19812800
v 0.00731300 -0.00720400 0.15008000
v 0.00731300 -0.00720400 0.19812800
v 0.02893100 -0.00720400 0.15008000
v 0.00731300 0.49955600 0.15008000
v 0.00490700 0.45148400 0.17650300
v 0.00490700 0.38421400 0.17650300
v 0.00490700 0.45148400 0.15008000
v 0.00731000 -0.38688400 -0.20066500
v 0.02893100 0.38669200 -0.13100200
v 0.02893100 0.38669200 -0.20066500
v 0.00731000 0.38669200 -0.13100200
v 0.02893100 -0.38688400 -0.13100200
v 0.00731000 0.38669200 -0.20066500
v 0.02893100 -0.38688400 -0.20066500
v 0.00731000 -0.38688400 -0.13100200
v -0.01190200 0.41072000 -0.17664200
v 0.02892300 0.49960500 -0.13100200
v 0.02892300 0.49960500 -0.20066500
v 0.02892300 0.38669200 -0.20066500
v 0.02892300 0.38669200 -0.13100200
v 0.00731200 0.49960500 -0.13100200
v 0.00731200 0.49960500 -0.20066500
v -0.00710100 0.40833300 -0.13341600
v 0.00731200 0.38669200 -0.20066500
v -0.01190200 0.42754200 -0.19585800
v 0.00731200 0.38669200 -0.13100200
v -0.00950300 0.42754200 -0.14062400
v -0.00710100 0.40833300 -0.20066500
v -0.01190200 0.40833300 -0.19345700
v -0.01190200 0.42754200 -0.17664200
v -0.00950300 0.40833300 -0.14542400
v -0.00229700 0.42754200 -0.13100200
v -0.05274500 -0.40850600 0.18371100
v -0.01672000 -0.42291600 0.15969500
v -0.01672000 -0.41331400 0.15969500
v -0.00710900 -0.42531900 0.18611100
v -0.05995800 -0.42772100 0.16930000
v -0.00230000 -0.40850600 0.17890600
v -0.05755400 -0.40850600 0.16449700
v -0.00230000 -0.42772100 0.15969500
v -0.05034600 -0.42772100 0.18611100
v -0.00230000 -0.40850600 0.15969500
v -0.01431600 -0.43012700 0.18130800
v -0.04794200 -0.42772100 0.16209500
v -0.00951300 -0.41091200 0.18611100
v 0.00010300 -0.45174200 0.16929700
v 0.00490700 -0.40851300 0.17890600
v 0.00490700 -0.38448100 0.17650400
v 0.00490700 -0.45174200 0.15488700
v -0.00230000 -0.40851300 0.15969300
v 0.00490700 -0.38448100 0.15488700
v -0.00230000 -0.40851300 0.17890600
v 0.00490700 -0.45174200 0.17650400
v 0.00010300 -0.38448100 0.16929700
v -0.05034600 0.42752900 0.18611100
v -0.01672000 0.41312100 0.15969500
v -0.01672000 0.42272600 0.15969500
v -0.00710900 0.42512800 0.18611100
v -0.05755400 0.40831600 0.17890600
v -0.05755400 0.42752900 0.16449700
v -0.00951300 0.41072000 0.18611100
v -0.00230000 0.42752900 0.15969500
v -0.00230000 0.40831600 0.15969500
v -0.05755400 0.40831600 0.16449700
v -0.01431600 0.42993300 0.18130800
v -0.00230000 0.40831600 0.17890600
v -0.05034600 0.41072000 0.18611100
v -0.05995800 0.42752900 0.17410300
v 0.00010300 0.38429000 0.16929700
v 0.00490700 0.42752300 0.17890600
v 0.00490700 0.45155700 0.17650400
v 0.00490700 0.38429000 0.15488700
v -0.00230000 0.42752300 0.15969300
v 0.00490700 0.45155700 0.15488700
v -0.00230000 0.42752300 0.17890600
v 0.00490700 0.38429000 0.17650400
v 0.00010300 0.45155700 0.16929700
v 0.02172400 -0.43011800 -0.24151000
v 0.00970900 -0.40851500 -0.20067200
v 0.02172400 -0.40851500 -0.20788800
v 0.00490700 -0.38928600 -0.24631800
v 0.00490700 -0.44934100 -0.22709200
v -0.00470200 -0.42772000 -0.20067200
v 0.00490700 -0.44693600 -0.24631800
v 0.02172400 -0.43492700 -0.21509500
v 0.01932100 -0.39169600 -0.23910200
v 0.00490700 -0.38928600 -0.22469200
v -0.00470200 -0.40851500 -0.20308000
v 0.01932100 -0.44693600 -0.23670700
v 0.00970900 -0.42772000 -0.20067200
v 0.02172400 -0.41091300 -0.24390900
v 0.02172400 -0.40130800 -0.21509500
v -0.01190200 -0.42052800 -0.17423500
v 0.02892300 -0.38688400 -0.13100200
v 0.02892300 -0.38688400 -0.20066500
v 0.02892300 -0.49979700 -0.20066500
v 0.00731200 -0.49979700 -0.13100200
v 0.00731200 -0.49979700 -0.20066500
v 0.02892300 -0.49979700 -0.13100200
v -0.00710100 -0.40852500 -0.13341600
v 0.00731200 -0.38688400 -0.20066500
v -0.01190200 -0.41091200 -0.19585800
v 0.00731200 -0.38688400 -0.13100200
v -0.01190200 -0.42773400 -0.19585800
v -0.00950300 -0.42773400 -0.14062400
v -0.00710100 -0.40852500 -0.20066500
v -0.01190200 -0.40852500 -0.17904200
v -0.01190200 -0.42773400 -0.17664200
v -0.00229700 -0.42773400 -0.13100200
v 0.02172400 0.42512100 -0.24390900
v 0.00970900 0.42753100 -0.20067200
v -0.00470200 0.42753100 -0.20067200
v 0.00970900 0.38909400 -0.22469200
v 0.00490700 0.44674400 -0.24631800
v 0.00490700 0.38909400 -0.24631800
v 0.02172400 0.42753100 -0.20788800
v 0.01932100 0.39150500 -0.23910200
v 0.01932100 0.44674400 -0.23189500
v -0.00470200 0.40832500 -0.20067200
v 0.02172400 0.40832500 -0.20788800
v 0.00490700 0.44915500 -0.22709200
v 0.00970900 0.40832500 -0.20067200
v 0.02172400 0.40111100 -0.21509500
f 5 3 8
f 3 2 4
f 2 3 5
f 4 2 5
f 1 4 6
f 5 1 6
f 4 5 6
f 1 3 7
f 3 4 7
f 4 1 7
f 3 1 8
f 1 5 8
f 15 18 20
f 11 10 12
f 10 11 13
f 12 10 13
f 9 11 14
f 11 12 14
f 14 12 15
f 12 13 15
f 11 9 16
f 13 11 16
f 9 14 17
f 14 15 17
f 15 9 17
f 15 13 18
f 13 16 18
f 18 16 19
f 16 9 19
f 9 18 19
f 9 15 20
f 18 9 20
f 21 30 32
f 23 22 24
f 22 23 25
f 24 22 25
f 21 23 26
f 24 25 27
f 21 26 27
f 26 24 27
f 23 24 28
f 26 23 28
f 24 26 28
f 23 21 29
f 25 23 29
f 25 29 30
f 27 25 30
f 27 30 31
f 21 27 31
f 30 21 31
f 29 21 32
f 30 29 32
f 37 36 40
f 34 35 36
f 35 34 37
f 34 36 37
f 35 33 38
f 36 35 38
f 33 36 38
f 33 35 39
f 37 33 39
f 35 37 39
f 36 33 40
f 33 37 40
f 48 51 57
f 43 42 44
f 44 42 45
f 45 42 46
f 42 43 46
f 46 43 47
f 43 44 47
f 44 45 49
f 47 44 49
f 46 47 50
f 45 46 51
f 49 45 51
f 48 46 52
f 47 49 53
f 50 47 53
f 50 53 54
f 41 50 54
f 49 51 54
f 53 49 54
f 46 50 55
f 50 41 55
f 41 52 55
f 52 46 55
f 51 48 56
f 52 41 56
f 48 52 56
f 41 54 56
f 54 51 56
f 46 48 57
f 51 46 57
f 66 61 70
f 62 58 64
f 58 63 64
f 59 60 65
f 63 61 65
f 58 62 66
f 60 64 67
f 64 63 67
f 65 60 67
f 63 65 67
f 65 61 68
f 61 66 68
f 66 62 68
f 60 59 69
f 64 60 69
f 62 64 69
f 59 65 69
f 65 68 69
f 68 62 69
f 63 58 70
f 61 63 70
f 58 66 70
f 75 77 79
f 73 72 74
f 74 71 75
f 73 74 76
f 74 75 76
f 72 73 77
f 75 71 77
f 74 72 78
f 71 74 78
f 72 77 78
f 77 71 78
f 73 76 79
f 76 75 79
f 77 73 79
f 90 85 93
f 82 81 85
f 83 80 86
f 81 82 87
f 82 85 87
f 81 87 88
f 85 81 89
f 81 88 89
f 88 84 89
f 80 83 90
f 83 87 90
f 87 85 90
f 83 86 91
f 86 84 91
f 87 83 91
f 84 88 91
f 88 87 91
f 80 84 92
f 86 80 92
f 84 86 92
f 84 80 93
f 85 89 93
f 89 84 93
f 80 90 93
f 98 100 102
f 96 95 97
f 97 94 98
f 96 97 99
f 97 98 99
f 95 96 100
f 98 94 100
f 97 95 101
f 94 97 101
f 95 100 101
f 100 94 101
f 96 99 102
f 99 98 102
f 100 96 102
f 105 116 117
f 107 108 109
f 103 105 110
f 111 106 112
f 108 104 113
f 109 108 113
f 106 109 113
f 112 106 113
f 104 112 113
f 107 109 114
f 109 103 114
f 103 110 114
f 110 107 114
f 105 104 115
f 104 108 115
f 108 107 115
f 110 105 115
f 107 110 115
f 105 103 116
f 103 109 116
f 109 106 116
f 106 111 116
f 116 111 117
f 104 105 117
f 111 112 117
f 112 104 117
f 128 125 134
f 120 119 121
f 120 121 123
f 121 122 123
f 121 119 124
f 122 121 124
f 119 122 124
f 119 120 126
f 120 123 126
f 122 119 128
f 119 126 128
f 123 122 129
f 118 127 129
f 122 125 130
f 126 123 131
f 127 126 131
f 123 129 131
f 129 127 131
f 126 127 132
f 127 118 132
f 125 128 132
f 128 126 132
f 118 130 132
f 130 125 132
f 118 129 133
f 129 122 133
f 130 118 133
f 122 130 133
f 125 122 134
f 122 128 134
f 147 138 148
f 137 139 140
f 139 135 140
f 138 140 142
f 140 135 142
f 135 139 143
f 136 141 143
f 141 135 143
f 136 137 144
f 137 140 144
f 140 138 144
f 141 136 145
f 135 141 145
f 137 136 146
f 139 137 146
f 136 143 146
f 143 139 146
f 136 144 147
f 144 138 147
f 145 136 147
f 145 147 148
f 138 142 148
f 142 135 148
f 135 145 148

