# https://github.com/mikedh/trimesh

o convex_0
v -0.24909400 -0.47698800 -0.31346300
v -0.27422800 -0.50209100 -0.38459200
v -0.27422800 -0.50209100 -0.31346300
v 0.08142000 -0.50209100 -0.38459200
v -0.26166100 -0.47698800 -0.38459200
v 0.08142000 -0.48117500 -0.31346300
v 0.08142000 -0.47698800 -0.38459200
v 0.08142000 -0.50209100 -0.31346300
v -0.27422800 -0.48117500 -0.31346300
v 0.08142000 -0.47698800 -0.36366300
v 0.08142000 0.48117100 -0.32601500
v -0.27422800 0.48117100 -0.38459200
v -0.27422800 0.50209100 -0.38459200
v 0.08142000 0.47698600 -0.38459200
v -0.26166100 0.47698600 -0.32601500
v 0.08142000 0.50209100 -0.32601500
v -0.27422800 0.50209100 -0.32601500
v 0.08142000 0.50209100 -0.38459200
v -0.26166100 0.47698600 -0.38459200
v 0.08142000 0.47698600 -0.36366900
v -0.24494000 -0.47698800 -0.38459200
v -0.24912400 0.00410800 -0.31346300
v -0.26167600 0.00410800 -0.31346300
v -0.24494000 0.47698600 -0.38459200
v -0.26167600 0.47698600 -0.38459200
v -0.26167600 -0.47698800 -0.38459200
v -0.26167600 -0.47698800 -0.31346300
v -0.24912400 0.47698600 -0.32601600
v -0.24912400 -0.47698800 -0.31346300
v -0.26167600 0.47698600 -0.32601600
v -0.24494000 0.47698600 -0.36366300
v -0.24494000 -0.47698800 -0.36365600
v 0.08142000 0.47698600 -0.36367200
v -0.24492600 -0.47698800 -0.38458600
v 0.08142000 -0.47698800 -0.38458600
v -0.24492600 -0.47698800 -0.36367200
v -0.24492600 0.47698600 -0.38458600
v -0.24492600 0.47698600 -0.36367200
v 0.08142000 0.47698600 -0.38458600
v 0.08142000 -0.47698800 -0.36367200
v -0.26167100 -0.45607200 0.41875500
v -0.27422800 -0.50208400 -0.31346300
v -0.24494000 -0.50208400 -0.31346300
v -0.27422800 -0.50208400 0.41875500
v -0.24494000 -0.50208400 0.41875500
v -0.24912600 -0.45607200 -0.31346300
v -0.24494000 -0.45607200 0.41875500
v -0.27422800 -0.48117000 -0.31346300
v -0.26167100 -0.45607200 -0.31346300
v -0.27422800 -0.48117000 0.41875500
v -0.24494000 -0.45607200 -0.08740400
v 0.08138600 0.00418300 0.41875300
v -0.26164300 -0.45606800 0.39365000
v -0.24911600 -0.45606800 0.39365000
v -0.26164300 -0.45606800 0.41875500
v -0.26164300 0.00418300 0.39365000
v 0.08138600 -0.45606800 0.39783800
v -0.26164300 0.00418300 0.41875500
v 0.08138600 0.00418300 0.39783800
v 0.08138600 -0.45606800 0.41875300
v 0.07723500 0.46444000 0.01289700
v -0.24494000 0.48117100 -0.09170500
v -0.24494000 0.50209100 -0.09170500
v 0.08142000 0.50209100 -0.09170500
v -0.24494000 0.50209100 0.01289700
v -0.24494000 0.46025000 -0.08751700
v 0.07723500 0.46444000 -0.09170500
v 0.08142000 0.50209100 0.01289700
v -0.24494000 0.48117100 0.01289700
v 0.07723500 0.46025000 -0.07496400
v -0.24494000 0.46025000 -0.06659900
v 0.05631100 0.46025000 0.13429200
v 0.08142000 0.50209100 0.34762500
v -0.24494000 0.50209100 0.34762500
v -0.19887400 0.46025000 0.26394300
v 0.08142000 0.48117100 0.34762500
v -0.24494000 0.46025000 0.13429200
v -0.24494000 0.48117100 0.34762500
v 0.04372400 0.46025000 0.27646000
v 0.07305000 0.46025000 0.22623100
v 0.06049500 0.46444000 0.01289700
v 0.08142000 0.48117100 0.01289700
v -0.26167500 0.46025000 0.41875500
v -0.25749000 0.00418300 -0.32601500
v -0.26167600 0.00422800 -0.32601500
v -0.24912400 0.46025000 -0.32601500
v -0.24494000 0.00418300 0.41875500
v -0.26167600 0.00422800 0.41875500
v -0.24494000 0.46025000 0.41875500
v -0.26167500 0.46025000 -0.32601500
v -0.24494000 0.00418300 -0.08747900
v -0.24494000 0.46025000 -0.08747900
v -0.24912600 0.00418300 -0.32601500
v -0.27422800 0.50209100 0.41875500
v -0.26167100 0.46025000 -0.32601500
v -0.24912600 0.46025000 -0.32601500
v -0.26167100 0.46025000 0.41875500
v -0.24494000 0.50209100 -0.32601500
v -0.24494000 0.50209100 0.41875500
v -0.27422800 0.48117100 0.41875500
v -0.27422800 0.48117100 -0.32601500
v 0.08142000 -0.45607200 0.41875500
v -0.24494000 -0.50208400 0.33507300
v -0.24494000 -0.48117000 0.33507300
v 0.08142000 -0.50208400 0.33507300
v 0.08142000 -0.50208400 0.41875500
v 0.08142000 -0.48117000 0.33507300
v -0.24494000 -0.45607200 0.39783400
v 0.08142000 -0.45607200 0.39783400
v -0.24912400 0.00418300 0.39358100
v -0.25749000 -0.45606800 -0.31339300
v -0.26167600 -0.45602300 -0.31339300
v -0.25749000 -0.45606800 0.39358100
v -0.26167500 0.00418300 0.39358100
v -0.24912400 0.00418300 -0.31339300
v -0.24494000 -0.45606800 -0.08744700
v -0.26167500 0.00418300 -0.31339300
v -0.24912600 -0.45606800 0.39358100
v -0.24494000 0.00418300 0.15510900
v -0.26167600 -0.45602300 0.39358100
v -0.24912600 -0.45606800 -0.31339300
v -0.24494000 -0.45606800 0.15510900
v -0.24494000 0.00418300 -0.08744700
v 0.08142000 0.46025000 0.41875300
v -0.24494000 0.00418300 0.39783700
v 0.08142000 0.00418300 0.39783700
v -0.24494000 0.00418300 0.41875300
v -0.24494000 0.46025000 0.39783700
v -0.24494000 0.46025000 0.41875300
v 0.08142000 0.46025000 0.39783700
v 0.08142000 0.00418300 0.41875300
v 0.08142000 0.46025000 0.41875500
v 0.08142000 0.50209100 0.41875500
v 0.08142000 0.46025000 0.39782500
v -0.24494000 0.46025000 0.39782500
v 0.07723500 -0.46025200 -0.13773900
v -0.24487900 -0.50209300 -0.31346300
v -0.24487900 -0.50209300 -0.09588900
v 0.08138800 -0.50209300 -0.31346300
v 0.08138800 -0.50209300 -0.09588900
v -0.24487900 -0.48117300 -0.31346300
v -0.24487900 -0.48117300 -0.09588900
v 0.08138800 -0.46025200 -0.23393800
v 0.08138800 -0.48117300 -0.31346300
v 0.07723500 -0.46444200 -0.09588900
v 0.05212800 -0.46025200 -0.13356400
v 0.05212800 -0.46025200 -0.18376200
v 0.05631500 0.46025000 -0.06660100
v -0.24494000 -0.45606800 -0.08752100
v 0.05631500 -0.45606800 -0.08752100
v -0.24494000 -0.45606800 -0.06660100
v -0.24494000 0.46025000 -0.08752100
v 0.05631500 -0.45606800 -0.06660100
v 0.05631500 0.46025000 -0.08752100
v -0.24494000 0.46025000 -0.06660100
v 0.05631500 0.45188200 0.15515700
v -0.24494000 -0.45606800 0.13423600
v 0.05631500 -0.45606800 0.13423600
v -0.24494000 0.45188200 0.13423600
v -0.24494000 -0.45606800 0.15515700
v -0.24494000 0.45188200 0.15515700
v 0.05631500 0.45188200 0.13423600
v 0.05631500 -0.45606800 0.15515700
v 0.07723500 -0.46444000 0.03800200
v -0.24494000 -0.50209300 -0.05404800
v -0.24494000 -0.50209300 0.03800200
v 0.08142000 -0.50209300 -0.05404800
v -0.24494000 -0.48117700 -0.05404800
v 0.08142000 -0.50209300 0.03800200
v 0.07723500 -0.46444000 -0.05404800
v -0.24494000 -0.48117700 0.03800200
v 0.05631100 -0.46444000 -0.02475600
v 0.07720300 0.46025000 -0.13776000
v -0.24494000 0.48117100 -0.32601500
v 0.08142000 0.46025000 -0.23392900
v 0.07720300 0.46444000 -0.09170500
v 0.05212600 0.46025000 -0.13356300
v 0.05212600 0.46025000 -0.18379100
v 0.07305000 -0.45607200 0.20951000
v -0.24494000 -0.50208400 0.03800200
v 0.08142000 -0.50208400 0.03800200
v -0.24494000 -0.45607200 0.13428200
v 0.07720300 -0.46444100 0.03800200
v -0.19887400 -0.45607200 0.26388800
v -0.24494000 -0.48117000 0.03800200
v 0.04375600 -0.45607200 0.27647900
v 0.05631100 -0.45607200 0.13428200
v 0.08142000 -0.50208400 -0.09588900
v 0.05631100 -0.45607200 -0.06660100
v 0.05631100 -0.45607200 -0.08751800
v -0.24494000 -0.50208400 -0.05404800
v -0.24494000 -0.45607200 -0.08751800
v 0.08142000 -0.50208400 -0.05404800
v -0.24494000 -0.50208400 -0.09588900
v -0.24494000 -0.48117000 -0.05404800
v 0.07723500 -0.46444100 -0.09588900
v 0.07723500 -0.46444100 -0.05404800
v -0.24494000 -0.45607200 -0.06660100
v -0.24494000 -0.48117000 -0.09588900
v 0.06885000 0.46025000 0.23882800
v -0.24494000 0.45188200 0.15518000
v -0.24494000 0.46025000 0.13423600
v 0.05630600 0.45188200 0.13423600
v -0.19890300 0.45606600 0.26392100
v 0.05630600 0.46025000 0.13423600
v 0.04376100 0.45606600 0.27649600
v -0.19890300 0.46025000 0.26392100
v 0.04376100 0.46025000 0.27649600
v 0.05630600 0.45188200 0.15518000
f 6 7 10
f 3 2 4
f 4 2 5
f 1 3 6
f 5 1 7
f 4 5 7
f 6 4 7
f 3 4 8
f 6 3 8
f 4 6 8
f 3 1 9
f 2 3 9
f 1 5 9
f 5 2 9
f 1 6 10
f 7 1 10
f 15 14 20
f 12 13 14
f 11 14 16
f 15 11 16
f 15 16 17
f 13 12 17
f 12 15 17
f 16 13 17
f 14 13 18
f 13 16 18
f 16 14 18
f 12 14 19
f 14 15 19
f 15 12 19
f 14 11 20
f 11 15 20
f 31 22 32
f 24 21 25
f 23 25 26
f 25 21 26
f 26 21 27
f 22 23 27
f 23 26 27
f 23 22 28
f 24 25 28
f 27 21 29
f 22 27 29
f 25 23 30
f 23 28 30
f 28 25 30
f 21 24 31
f 28 22 31
f 24 28 31
f 22 29 32
f 29 21 32
f 21 31 32
f 33 36 40
f 34 35 36
f 35 34 37
f 34 36 37
f 36 33 38
f 33 37 38
f 37 36 38
f 33 35 39
f 37 33 39
f 35 37 39
f 35 33 40
f 36 35 40
f 47 43 51
f 42 43 44
f 41 44 45
f 44 43 45
f 43 42 46
f 46 41 47
f 41 45 47
f 45 43 47
f 42 44 48
f 46 42 48
f 46 48 49
f 41 46 49
f 48 41 49
f 44 41 50
f 48 44 50
f 41 48 50
f 43 46 51
f 46 47 51
f 57 52 60
f 53 54 55
f 54 53 56
f 53 55 56
f 55 54 57
f 55 52 58
f 52 56 58
f 56 55 58
f 56 52 59
f 54 56 59
f 57 54 59
f 52 57 59
f 52 55 60
f 55 57 60
f 66 70 71
f 62 63 64
f 63 62 65
f 64 63 65
f 65 62 66
f 62 64 67
f 66 62 67
f 65 61 68
f 64 65 68
f 61 65 69
f 65 66 69
f 67 64 70
f 66 67 70
f 68 61 70
f 64 68 70
f 61 69 71
f 69 66 71
f 70 61 71
f 76 61 82
f 74 73 68
f 74 68 65
f 68 69 65
f 69 74 65
f 69 68 61
f 73 74 76
f 68 73 76
f 74 69 77
f 72 75 77
f 61 72 77
f 76 74 78
f 74 77 78
f 77 75 78
f 75 72 79
f 76 78 79
f 78 75 79
f 72 61 80
f 61 76 80
f 79 72 80
f 76 79 80
f 69 61 81
f 77 69 81
f 61 77 81
f 61 68 82
f 68 76 82
f 86 91 93
f 84 85 86
f 84 87 88
f 83 85 88
f 85 84 88
f 87 83 88
f 86 83 89
f 83 87 89
f 85 83 90
f 86 85 90
f 83 86 90
f 87 84 91
f 89 87 91
f 89 91 92
f 86 89 92
f 91 86 92
f 84 86 93
f 91 84 93
f 98 89 92
f 95 96 97
f 96 95 98
f 94 97 99
f 98 94 99
f 94 98 17
f 98 95 17
f 97 96 89
f 98 99 89
f 99 97 89
f 95 97 100
f 97 94 100
f 94 17 100
f 100 17 101
f 17 95 101
f 95 100 101
f 96 98 92
f 89 96 92
f 108 102 109
f 103 104 105
f 104 103 45
f 103 105 45
f 105 102 106
f 102 45 106
f 45 105 106
f 45 102 47
f 104 45 47
f 105 104 107
f 102 105 107
f 47 102 108
f 104 47 108
f 107 104 108
f 107 108 109
f 102 107 109
f 115 119 123
f 112 111 113
f 113 110 114
f 111 112 115
f 114 110 115
f 113 111 116
f 112 114 117
f 115 112 117
f 114 115 117
f 110 113 118
f 113 116 118
f 115 110 119
f 112 113 120
f 113 114 120
f 114 112 120
f 111 115 121
f 115 116 121
f 116 111 121
f 110 118 122
f 118 116 122
f 116 119 122
f 119 110 122
f 116 115 123
f 119 116 123
f 124 127 131
f 125 126 127
f 126 125 128
f 125 127 128
f 127 124 129
f 124 128 129
f 128 127 129
f 124 126 130
f 128 124 130
f 126 128 130
f 126 124 131
f 127 126 131
f 78 134 135
f 78 74 76
f 74 78 99
f 74 99 133
f 132 76 133
f 99 132 133
f 132 99 89
f 99 78 89
f 76 74 73
f 74 133 73
f 133 76 73
f 78 76 134
f 76 132 134
f 132 89 134
f 134 89 135
f 89 78 135
f 146 143 147
f 138 137 139
f 138 139 140
f 137 138 141
f 139 137 141
f 138 140 142
f 141 138 142
f 140 139 143
f 141 143 144
f 139 141 144
f 143 139 144
f 142 140 145
f 143 136 145
f 140 143 145
f 141 142 146
f 136 143 146
f 145 136 146
f 142 145 146
f 143 141 147
f 141 146 147
f 152 151 155
f 149 150 151
f 150 149 152
f 149 151 152
f 150 148 153
f 151 150 153
f 148 151 153
f 148 150 154
f 152 148 154
f 150 152 154
f 151 148 155
f 148 152 155
f 160 158 163
f 158 157 159
f 157 158 160
f 159 157 160
f 156 159 161
f 160 156 161
f 159 160 161
f 156 158 162
f 158 159 162
f 159 156 162
f 158 156 163
f 156 160 163
f 171 164 172
f 166 165 167
f 165 166 168
f 167 165 168
f 164 166 169
f 166 167 169
f 167 164 169
f 164 167 170
f 167 168 170
f 166 164 171
f 168 166 171
f 168 171 172
f 164 170 172
f 170 168 172
f 175 177 178
f 62 64 63
f 174 62 63
f 64 16 63
f 63 16 98
f 16 174 98
f 174 63 98
f 16 64 175
f 174 16 11
f 175 174 11
f 16 175 11
f 64 62 176
f 173 175 176
f 175 64 176
f 62 174 177
f 175 173 177
f 173 176 177
f 176 62 177
f 174 175 178
f 177 174 178
f 183 182 187
f 103 180 181
f 180 103 182
f 103 181 105
f 181 180 183
f 179 182 184
f 103 105 107
f 105 181 107
f 181 183 107
f 183 179 107
f 182 103 104
f 184 182 104
f 103 107 104
f 180 182 185
f 183 180 185
f 182 183 185
f 179 184 186
f 107 179 186
f 184 104 186
f 104 107 186
f 182 179 187
f 179 183 187
f 196 194 199
f 189 190 192
f 191 188 193
f 188 191 194
f 191 192 194
f 192 191 195
f 191 193 195
f 190 189 196
f 192 190 196
f 193 188 196
f 188 194 196
f 195 193 197
f 196 189 197
f 193 196 197
f 189 192 198
f 192 195 198
f 197 189 198
f 195 197 198
f 194 192 199
f 192 196 199
f 206 201 209
f 159 201 202
f 201 159 203
f 159 202 203
f 202 200 205
f 200 203 205
f 203 202 205
f 204 201 206
f 204 206 207
f 202 201 207
f 200 202 207
f 201 204 207
f 200 207 208
f 206 200 208
f 207 206 208
f 203 200 209
f 201 203 209
f 200 206 209

