# https://github.com/mikedh/trimesh

o convex_0
v 0.45335800 1.54073500 0.02481400
v -0.45080400 -1.60391300 -0.00842700
v 0.34697600 -0.97227500 -0.02172400
v -0.45080400 1.54073500 -0.00842700
v -0.45080400 -1.60391300 0.02481400
v 0.45335800 -1.60391300 0.02481400
v -0.45080400 1.54073500 0.02481400
v 0.45335800 1.54073500 -0.00842700
v 0.45335800 -1.60391300 -0.00842700
v 0.43335600 -0.39388800 -0.02172400
v 0.34697600 -0.39388800 -0.02172400
v 0.43335600 -0.97227500 -0.02172400
f 10 9 12
f 3 2 4
f 4 2 5
f 5 2 6
f 1 5 6
f 1 4 7
f 5 1 7
f 4 5 7
f 4 1 8
f 1 6 8
f 8 6 9
f 2 3 9
f 6 2 9
f 4 8 10
f 8 9 10
f 3 4 11
f 10 3 11
f 4 10 11
f 9 3 12
f 3 10 12

