# https://github.com/mikedh/trimesh

o convex_0
v 0.22031500 0.26693500 0.00602700
v -0.26529900 -0.29784800 -0.00086100
v 0.22720900 -0.29784800 -0.00086100
v -0.26529900 0.27387400 -0.00086100
v -0.25840500 -0.29090800 0.00602700
v 0.22720900 0.27387400 -0.00086100
v 0.22031500 -0.29090800 0.00602700
v -0.25840500 0.26693500 0.00602700
v -0.26529900 0.27387400 0.00258300
v -0.26356300 -0.29611300 0.00430500
v 0.22547300 -0.29784800 0.00258300
v 0.22547300 0.27387400 0.00258300
v -0.26356300 0.27214000 0.00430500
v -0.26529900 -0.29784800 0.00258300
v 0.22373800 -0.29611300 0.00430500
v 0.22720900 -0.29784800 0.00086100
v 0.10663700 0.27214000 0.00430500
v 0.22720900 0.27387400 0.00086100
v 0.22373800 0.27040500 0.00430500
f 12 17 19
f 3 2 4
f 3 4 6
f 1 5 7
f 5 1 8
f 4 2 9
f 6 4 9
f 7 5 10
f 5 8 10
f 2 3 11
f 6 9 12
f 8 1 13
f 10 8 13
f 9 10 13
f 12 9 13
f 9 2 14
f 10 9 14
f 2 11 14
f 11 10 14
f 1 7 15
f 7 10 15
f 10 11 15
f 11 12 15
f 3 6 16
f 11 3 16
f 12 11 16
f 13 1 17
f 12 13 17
f 6 12 18
f 16 6 18
f 12 16 18
f 1 15 19
f 15 12 19
f 17 1 19

