# https://github.com/mikedh/trimesh

o convex_0
v 0.22259100 -0.28004600 -0.32841800
v -0.32873600 -0.30180600 -0.39009900
v -0.32873600 -0.30180600 -0.02374400
v 0.22986400 -0.30180600 -0.39009900
v -0.31780100 -0.28004600 -0.39009900
v 0.22986400 -0.28367600 -0.02374400
v -0.31780100 -0.28004600 -0.02374400
v 0.22986400 -0.30180600 -0.02374400
v 0.22986400 -0.28004600 -0.39009900
v -0.32873600 -0.28367600 -0.02374400
v -0.32873600 -0.28367600 -0.39009900
v 0.22620000 0.27855400 -0.33924800
v -0.32873600 0.28218600 -0.39009900
v -0.32873600 0.30031700 -0.39009900
v -0.21626200 0.28218200 0.00890100
v 0.22986400 0.30031700 0.00890100
v 0.22986400 0.30031700 -0.39009900
v -0.32873600 0.30031700 -0.02375000
v 0.22986400 0.28218200 0.00890100
v -0.31780100 0.27855400 -0.02375000
v -0.31780100 0.27855400 -0.39009900
v 0.22986400 0.27855400 -0.39009900
v -0.21626200 0.30031700 0.00890100
v -0.32873600 0.28218600 -0.02375000
v -0.31785300 -0.27999200 -0.39009900
v -0.30334700 0.27849900 -0.02374400
v -0.31785500 0.27849900 -0.02374400
v -0.31785500 0.27849900 -0.39009900
v -0.29971900 -0.00435500 -0.39006300
v -0.30334900 -0.27999200 -0.02374400
v -0.31785300 -0.27999200 -0.02374400
v -0.29972200 0.27849900 -0.39009900
v -0.29972200 -0.27999200 -0.39009900
v -0.29971900 -0.04066200 -0.37195300
v -0.27431700 0.25679500 0.27369200
v -0.21629800 0.26766600 0.32084700
v -0.22355300 0.27855400 0.41152800
v -0.22355300 0.24590800 0.41152800
v -0.29245600 0.27855400 0.41152800
v -0.29245600 0.24590800 0.41152800
v -0.27431700 0.27855400 0.27369200
v -0.21629800 0.24953800 0.28095100
v -0.21629800 0.27855400 0.27369200
v -0.27431700 0.24953800 0.28095100
v -0.29245600 0.24590800 0.39338100
v 0.19720500 -0.25828800 -0.33931800
v -0.29971800 -0.28004600 -0.39009900
v -0.29971800 -0.28004600 -0.37196100
v -0.29971800 -0.24740100 -0.39009900
v -0.24528800 -0.26915900 -0.32843500
v 0.22986400 -0.24740100 -0.39009900
v -0.27431700 -0.25103400 -0.34657400
v 0.19720500 -0.27278600 -0.34295200
v 0.22986400 -0.24740100 -0.37196100
v 0.17906200 -0.25828800 -0.33206300
v 0.22623500 -0.28004600 -0.36833300
v -0.11107800 -0.27641300 -0.34295200
v -0.24528800 -0.25828800 -0.32843500
v 0.19357700 -0.25103400 -0.34657400
v -0.29971800 -0.24740100 -0.37196100
v -0.07111100 -0.26915900 -0.32843500
v -0.29971800 -0.24740100 -0.39009700
v 0.22986400 0.24590800 -0.37196300
v 0.22986400 0.24590800 -0.39009700
v -0.29971800 0.24590800 -0.37196300
v 0.22986400 -0.24740100 -0.37196300
v 0.22986400 -0.24740100 -0.39009700
v -0.29971800 0.24590800 -0.39009700
v -0.29971800 -0.24740100 -0.37196300
v -0.31785100 -0.24740600 0.41152800
v -0.32873600 -0.30181000 -0.02374400
v -0.28883600 -0.30181000 -0.02374400
v -0.32873600 -0.30181000 0.41152800
v -0.31785100 -0.24740600 -0.02374400
v -0.28883600 -0.24740600 0.41152800
v -0.28883600 -0.30181000 0.41152800
v -0.30335000 -0.24740600 -0.02374400
v -0.32873600 -0.28366700 -0.02374400
v -0.28883600 -0.28366700 -0.02374400
v -0.32873600 -0.28366700 0.41152800
v -0.30334500 -0.24740100 -0.02374400
v -0.30697600 0.24590800 0.38976500
v -0.31785500 0.24590800 0.38976500
v -0.30334500 0.24590800 -0.02374400
v -0.31785500 0.24590800 -0.02374400
v -0.31785500 -0.24740100 0.38976500
v -0.30334500 -0.24740100 0.38976500
v -0.31785500 -0.24740100 -0.02374400
v -0.30334500 0.24590800 0.38968400
v -0.22355500 0.24590800 0.41152800
v -0.30332600 -0.24740100 0.38976500
v -0.22355500 -0.24740100 0.41152800
v -0.31785500 -0.24740100 0.41152800
v -0.22355500 0.24590800 0.39339700
v -0.31785500 0.24590800 0.41152800
v -0.22355500 -0.24740100 0.39339700
v 0.22986400 -0.28004600 0.41152800
v -0.19452700 -0.30180800 0.32084600
v -0.19452700 -0.30180800 0.38976300
v 0.22986400 -0.30180800 0.38976300
v 0.22986400 -0.28367400 0.32084600
v -0.19452700 -0.28367400 0.32084600
v -0.19452700 -0.28367600 0.41152800
v 0.22986400 -0.30180800 0.32084600
v 0.22986400 -0.30180400 0.41152800
v -0.19452700 -0.30180400 0.41152800
v 0.14640600 -0.28004600 0.39339400
v 0.22986400 0.27849900 0.41152800
v 0.14643600 -0.27999200 0.39339200
v 0.22986400 -0.27999200 0.39339200
v 0.14643600 -0.27999200 0.41152800
v 0.14643600 0.27849900 0.39339200
v 0.22986400 -0.27999200 0.41152800
v 0.22986400 0.27849900 0.39339200
v 0.14643600 0.27849900 0.41152800
v -0.21629100 0.24953500 0.28094800
v 0.22986400 0.30031700 0.32084600
v 0.22986400 0.28217400 0.32084600
v 0.22986400 0.30031700 0.27369200
v -0.21629100 0.30031700 0.32084600
v -0.21629100 0.30031700 0.27369200
v 0.22619500 0.25679800 0.27369200
v -0.21629100 0.25679800 0.32084600
v 0.19357200 0.24953500 0.30270200
v -0.21629100 0.25679800 0.27369200
v 0.17907300 0.26042600 0.31721800
v -0.21629100 0.24953500 0.30270200
v 0.19357200 0.24953500 0.28094800
v 0.19720500 0.26766600 -0.33931800
v -0.29971800 0.24590800 -0.39009900
v -0.29971800 0.24590800 -0.37196100
v -0.29971800 0.27855400 -0.39009900
v 0.22986400 0.24590800 -0.39009900
v -0.24528800 0.25679500 -0.32843500
v 0.19357700 0.24953800 -0.34657400
v -0.11107800 0.27492000 -0.34295200
v -0.24528800 0.26766600 -0.32843500
v 0.22623500 0.27855400 -0.36833300
v 0.17906200 0.26042200 -0.33206300
v -0.29971800 0.27855400 -0.37196100
v -0.27431700 0.24953800 -0.34657400
v 0.22986400 0.24590800 -0.37196100
v -0.07111100 0.26766600 -0.32843500
v 0.19720500 0.27129300 -0.34295200
v -0.21629100 0.24953500 0.01616200
v 0.22986400 0.30031700 0.05605600
v 0.22986400 0.28217900 0.05605600
v -0.21629100 0.30031700 0.05605600
v -0.21629100 0.30031700 0.00890100
v 0.22619500 0.25679800 0.00890100
v -0.21629100 0.25679800 0.05242300
v 0.19357200 0.24953500 0.03428300
v -0.21629100 0.25679800 0.00890100
v 0.17902900 0.26042600 0.05242300
v -0.21629100 0.26042600 0.05605600
v 0.19357200 0.24953500 0.01616200
v -0.21629100 0.24953500 0.03428300
v -0.28883600 -0.30181000 0.38251000
v -0.22355100 -0.24740600 0.41152800
v -0.19452700 -0.28366700 0.41152800
v -0.19452700 -0.30181000 0.38251000
v -0.28883600 -0.24740600 0.39339500
v -0.19452700 -0.28366700 0.38251000
v -0.19452700 -0.30181000 0.41152800
v -0.22355100 -0.24740600 0.39339500
v -0.32873600 0.30031700 0.41152800
v -0.31785000 0.24590800 -0.02374400
v -0.30335000 0.24590800 -0.02374400
v -0.31785000 0.24590800 0.41152800
v -0.29246400 0.30031700 -0.02374400
v -0.29246400 0.24590800 0.41152800
v -0.32873600 0.30031700 -0.02374400
v -0.29246400 0.30031700 0.41152800
v -0.32873600 0.28217700 0.41152800
v -0.32873600 0.28217700 -0.02374400
v -0.29246400 0.28217700 -0.02374400
v -0.27431700 0.27855400 0.27371500
v -0.21629800 0.30031700 0.41152800
v -0.29245600 0.30031700 0.41152800
v -0.21629800 0.30031700 0.16487400
v -0.29245600 0.30031700 0.16487400
v -0.21629800 0.28218400 0.16487400
v -0.29245600 0.28218400 0.16487400
v -0.21629800 0.27855400 0.27371500
v 0.22986400 0.27855400 0.41152800
v -0.21629100 0.28218200 0.32084600
v 0.22986400 0.28218200 0.32084600
v 0.22986400 0.30031700 0.41152800
v -0.21629100 0.30031700 0.41152800
v -0.21629100 0.28218600 0.41152800
v 0.14640600 0.27855400 0.39339400
v 0.19350100 -0.25103300 0.03428500
v -0.28883600 -0.30181000 0.05968300
v 0.22985400 -0.30181000 -0.02374400
v -0.27431600 -0.25103300 0.01616400
v 0.22985400 -0.30181000 0.05604900
v -0.24527400 -0.25829000 0.05604900
v 0.22985400 -0.28366300 -0.02374400
v 0.22619800 -0.25466200 0.00891300
v -0.28883600 -0.28366300 -0.02374400
v 0.17903100 -0.25829000 0.05242300
v 0.22985400 -0.28366300 0.05604900
v -0.27431600 -0.25103300 0.03426900
v -0.28883600 -0.28366300 0.05968300
v -0.27431600 -0.25466200 0.00891300
v -0.07112500 -0.25829000 0.05604900
v 0.19350100 -0.25103300 0.01615600
v -0.19450000 -0.28367400 0.25918300
v -0.19450000 -0.30180800 0.05605600
v -0.28883600 -0.30180800 0.05971400
v 0.22986400 -0.30180800 0.25918300
v 0.22986400 -0.28367400 0.05605600
v -0.28883600 -0.28367400 0.05971400
v -0.28883600 -0.30180800 0.20474200
v 0.22986400 -0.30180800 0.05605600
v 0.22986400 -0.28367400 0.25918300
v -0.19450000 -0.30180800 0.25918300
v -0.28883600 -0.28367400 0.20474200
v -0.19450000 -0.28367400 0.05605600
v 0.19721200 -0.25466200 0.30633600
v -0.19452700 -0.30181000 0.25918300
v -0.19452700 -0.30181000 0.32084600
v 0.22986400 -0.30181000 0.25918300
v -0.19452700 -0.25103300 0.28095500
v 0.22986400 -0.30181000 0.32084600
v -0.19452700 -0.25829000 0.32084600
v 0.22620800 -0.25829000 0.27369300
v -0.19452700 -0.28366800 0.25918300
v 0.17905800 -0.25829000 0.31721900
v 0.22986400 -0.28366800 0.25918300
v 0.19355600 -0.25103300 0.30270800
v 0.22986400 -0.28366800 0.32084600
v -0.19452700 -0.25103300 0.30270800
v 0.19355600 -0.25103300 0.28095500
v -0.19452700 -0.25829000 0.27369300
v 0.22620800 -0.25466200 0.29545300
v -0.27432400 -0.25103300 0.28095900
v -0.19452700 -0.28366800 0.38251000
v -0.19452700 -0.30181000 0.20477400
v -0.28883600 -0.30181000 0.20477400
v -0.19452700 -0.25103300 0.28095900
v -0.28883600 -0.28366800 0.20477400
v -0.28883600 -0.28366800 0.38251000
v -0.19452700 -0.28366800 0.20477400
v -0.27432400 -0.25103300 0.30270600
v -0.19452700 -0.25103300 0.30270600
v -0.27431700 0.24953500 0.01617300
v -0.21629800 0.30031700 -0.02374400
v -0.29245600 0.30031700 -0.02374400
v -0.21629800 0.24953500 0.03432200
v -0.29245600 0.28217400 0.16487400
v -0.21629800 0.28217400 0.16487400
v -0.29245600 0.28217400 -0.02374400
v -0.21629800 0.28217400 -0.02374400
v -0.27431700 0.24953500 0.03432200
v -0.21629800 0.24953500 0.01617300
v -0.21629100 0.28218100 0.05605600
v 0.22986400 0.28218100 0.05605600
v -0.21629100 0.28218100 0.27369200
v 0.22986400 0.28218100 0.27369200
f 10 5 11
f 3 2 4
f 4 2 5
f 1 5 7
f 3 6 7
f 6 1 7
f 3 4 8
f 6 3 8
f 4 6 8
f 5 1 9
f 4 5 9
f 6 4 9
f 1 6 9
f 2 3 10
f 7 5 10
f 3 7 10
f 5 2 11
f 2 10 11
f 20 15 24
f 14 16 17
f 13 14 17
f 14 13 18
f 16 14 18
f 16 15 19
f 17 16 19
f 12 19 20
f 19 15 20
f 13 17 21
f 20 13 21
f 12 20 21
f 19 12 22
f 17 19 22
f 21 17 22
f 12 21 22
f 15 16 23
f 18 15 23
f 16 18 23
f 18 13 24
f 15 18 24
f 13 20 24
f 30 33 34
f 27 26 28
f 25 27 28
f 26 27 30
f 30 27 31
f 27 25 31
f 25 30 31
f 28 26 32
f 25 28 32
f 32 29 33
f 30 25 33
f 25 32 33
f 26 30 34
f 32 26 34
f 29 32 34
f 33 29 34
f 35 44 45
f 36 37 38
f 38 37 39
f 38 39 40
f 39 37 41
f 36 38 42
f 37 36 43
f 35 41 43
f 41 37 43
f 36 42 43
f 42 35 43
f 35 42 44
f 44 42 45
f 38 40 45
f 40 39 45
f 41 35 45
f 39 41 45
f 42 38 45
f 55 58 61
f 47 48 49
f 48 47 9
f 47 49 9
f 9 49 51
f 48 50 52
f 51 49 54
f 9 51 54
f 53 46 55
f 48 9 56
f 46 53 56
f 9 54 56
f 54 46 56
f 50 48 57
f 48 56 57
f 56 53 57
f 52 50 58
f 58 55 59
f 54 52 59
f 46 54 59
f 55 46 59
f 52 58 59
f 49 48 60
f 48 52 60
f 54 49 60
f 52 54 60
f 53 55 61
f 50 57 61
f 57 53 61
f 58 50 61
f 66 65 69
f 63 64 65
f 64 63 66
f 63 65 66
f 62 64 67
f 66 62 67
f 64 66 67
f 64 62 68
f 65 64 68
f 62 65 68
f 65 62 69
f 62 66 69
f 70 78 80
f 71 72 73
f 72 71 74
f 70 73 75
f 74 70 75
f 73 72 76
f 72 75 76
f 75 73 76
f 72 74 77
f 74 75 77
f 71 73 78
f 70 74 78
f 74 71 78
f 75 72 79
f 72 77 79
f 77 75 79
f 73 70 80
f 78 73 80
f 87 84 89
f 83 82 84
f 84 81 85
f 83 84 85
f 83 85 86
f 82 83 86
f 86 81 87
f 81 84 87
f 82 86 87
f 85 81 88
f 86 85 88
f 81 86 88
f 84 82 89
f 82 87 89
f 94 92 96
f 86 91 92
f 92 90 93
f 86 92 93
f 86 93 83
f 91 86 83
f 91 83 94
f 90 92 94
f 83 90 94
f 93 90 95
f 83 93 95
f 90 83 95
f 92 91 96
f 91 94 96
f 103 97 107
f 99 98 100
f 97 100 101
f 101 98 102
f 98 99 102
f 102 99 103
f 100 98 104
f 101 100 104
f 98 101 104
f 99 100 105
f 100 97 105
f 97 103 105
f 105 103 106
f 103 99 106
f 99 105 106
f 97 101 107
f 101 102 107
f 102 103 107
f 112 111 115
f 109 110 111
f 110 109 112
f 109 111 112
f 110 108 113
f 111 110 113
f 108 111 113
f 108 110 114
f 112 108 114
f 110 112 114
f 111 108 115
f 108 112 115
f 122 124 128
f 117 118 119
f 118 117 120
f 117 119 120
f 116 120 121
f 120 119 121
f 119 118 122
f 121 119 122
f 120 116 123
f 118 120 123
f 122 118 124
f 116 121 125
f 122 116 125
f 121 122 125
f 118 123 126
f 124 118 126
f 123 124 126
f 123 116 127
f 116 124 127
f 124 123 127
f 116 122 128
f 124 116 128
f 136 143 144
f 130 131 132
f 131 130 133
f 130 132 133
f 133 132 22
f 22 132 138
f 135 129 139
f 134 135 139
f 132 131 140
f 137 136 140
f 138 132 140
f 136 138 140
f 131 135 141
f 135 134 141
f 134 137 141
f 140 131 141
f 137 140 141
f 131 133 142
f 133 22 142
f 129 135 142
f 135 131 142
f 138 129 142
f 22 138 142
f 137 134 143
f 136 137 143
f 139 129 143
f 134 139 143
f 129 138 144
f 138 136 144
f 143 129 144
f 152 151 157
f 146 147 16
f 147 146 148
f 146 16 148
f 145 148 149
f 148 16 149
f 16 147 150
f 149 16 150
f 148 145 151
f 150 147 152
f 145 149 153
f 150 145 153
f 149 150 153
f 152 147 154
f 151 152 154
f 147 148 155
f 148 151 155
f 154 147 155
f 151 154 155
f 145 150 156
f 152 145 156
f 150 152 156
f 151 145 157
f 145 152 157
f 163 162 165
f 160 159 76
f 76 158 161
f 158 76 162
f 159 160 163
f 161 158 163
f 160 161 163
f 158 162 163
f 76 159 75
f 159 162 75
f 162 76 75
f 160 76 164
f 76 161 164
f 161 160 164
f 162 159 165
f 159 163 165
f 170 171 176
f 167 168 169
f 168 167 170
f 169 168 171
f 166 169 171
f 166 170 172
f 170 167 172
f 170 166 173
f 171 170 173
f 166 171 173
f 167 169 174
f 169 166 174
f 166 172 174
f 174 172 175
f 172 167 175
f 167 174 175
f 168 170 176
f 171 168 176
f 177 182 184
f 179 178 180
f 178 179 37
f 179 180 181
f 181 180 182
f 180 178 182
f 177 37 39
f 37 179 39
f 179 181 39
f 39 181 183
f 181 182 183
f 182 177 183
f 177 39 183
f 37 177 184
f 178 37 184
f 182 178 184
f 185 190 191
f 186 120 187
f 185 187 188
f 188 120 189
f 120 186 189
f 185 188 189
f 187 120 117
f 188 187 117
f 120 188 117
f 189 186 190
f 185 189 190
f 186 187 191
f 187 185 191
f 190 186 191
f 199 205 207
f 193 72 194
f 193 194 196
f 194 72 198
f 196 194 198
f 72 193 200
f 198 72 200
f 199 198 200
f 193 196 202
f 196 198 202
f 198 199 202
f 199 192 202
f 192 201 202
f 192 195 203
f 197 192 203
f 195 200 203
f 203 200 204
f 200 193 204
f 193 202 204
f 197 203 204
f 200 195 205
f 199 200 205
f 192 197 206
f 201 192 206
f 202 201 206
f 197 204 206
f 204 202 206
f 195 192 207
f 192 199 207
f 205 195 207
f 213 212 219
f 210 209 211
f 209 210 213
f 208 212 213
f 213 210 214
f 210 211 214
f 211 209 215
f 212 211 215
f 209 212 215
f 208 211 216
f 212 208 216
f 211 212 216
f 211 208 217
f 214 211 217
f 208 214 217
f 208 213 218
f 213 214 218
f 214 208 218
f 212 209 219
f 209 213 219
f 234 231 236
f 222 221 223
f 221 222 224
f 222 223 225
f 224 222 226
f 222 225 226
f 223 221 228
f 221 224 228
f 225 223 230
f 223 228 230
f 228 227 230
f 229 220 231
f 226 229 231
f 226 225 232
f 229 226 232
f 225 230 232
f 224 226 233
f 231 224 233
f 226 231 233
f 227 224 234
f 224 231 234
f 224 227 235
f 228 224 235
f 227 228 235
f 220 229 236
f 230 227 236
f 231 220 236
f 229 232 236
f 232 230 236
f 227 234 236
f 241 245 246
f 238 161 239
f 161 238 158
f 239 161 158
f 239 158 240
f 238 239 241
f 239 240 242
f 240 158 242
f 237 241 242
f 158 238 243
f 237 242 243
f 242 158 243
f 241 239 244
f 239 242 244
f 242 241 244
f 241 237 245
f 243 238 245
f 237 243 245
f 238 241 246
f 245 238 246
f 254 250 256
f 181 180 248
f 181 248 249
f 248 180 250
f 180 181 251
f 181 249 251
f 251 250 252
f 250 180 252
f 180 251 252
f 249 248 253
f 247 251 253
f 251 249 253
f 248 250 254
f 247 253 254
f 253 248 254
f 247 250 255
f 251 247 255
f 250 251 255
f 250 247 256
f 247 254 256
f 148 259 121
f 257 148 258
f 148 257 259
f 257 258 259
f 258 119 260
f 119 259 260
f 259 258 260
f 148 119 146
f 258 148 146
f 119 258 146
f 119 148 121
f 259 119 121

