# https://github.com/mikedh/trimesh

o convex_0
v 0.18812600 -0.24968300 -0.08100600
v 0.21179600 0.29988000 0.29503400
v 0.21179600 0.29988000 -0.10471900
v 0.21179600 -0.29975000 0.29503400
v 0.19075800 0.29988000 0.29503400
v 0.21179600 -0.29975000 -0.10471900
v 0.19075800 -0.29975000 0.29503400
v 0.19075800 0.29988000 -0.10471900
v 0.18812600 0.27875000 0.12931800
v 0.19075800 -0.29975000 -0.10471900
v 0.18812600 -0.27867900 0.12931800
v 0.18812600 0.27875000 -0.07838500
v 0.18812600 0.17356800 -0.08625000
v 0.18812600 -0.28126100 -0.03369800
v -0.30104300 -0.08146400 0.01099900
v -0.27737600 0.27621000 0.12934700
v -0.27737600 0.27621000 0.10303800
v -0.30367100 0.24200400 0.01099900
v -0.30367100 0.23675300 0.12144600
v -0.28263800 -0.08146400 0.12144600
v -0.28263800 -0.08146400 0.01099900
v -0.28000700 0.27092400 0.01099900
v -0.30104300 -0.08146400 0.12144600
v -0.29841200 0.27621000 0.12934700
v -0.29578100 0.27092400 0.01099900
v -0.27737600 0.26038500 0.12934700
v 0.18812600 -0.25767300 0.12934700
v 0.11444600 -0.27870800 0.10041700
v -0.27737600 -0.27607900 0.10304800
v 0.11444600 -0.27870800 0.12934700
v -0.27737600 -0.26030500 0.12934700
v 0.11444600 -0.25767300 0.10304800
v -0.27737600 -0.26030500 0.10304800
v -0.27737600 -0.27607900 0.12934700
v 0.18812600 -0.27870800 0.10041700
v 0.18812600 -0.26030500 0.10041700
v 0.18812600 -0.27870800 0.12934700
v 0.18812600 0.25780100 0.12934700
v 0.11444600 0.26043300 0.10041700
v 0.11444600 0.27884000 0.10041700
v -0.27737600 0.27620800 0.12934700
v -0.27737600 0.26043300 0.10304800
v 0.18812600 0.27884000 0.12934700
v -0.27737600 0.26043300 0.12934700
v -0.27737600 0.27620800 0.10304800
v 0.18812600 0.25780100 0.10304800
v 0.18812600 0.27884000 0.10041700
v 0.11444600 0.25780100 0.10304800
v -0.28264000 -0.23401300 0.12143800
v -0.29840800 -0.27869500 -0.07841400
v -0.29840800 -0.24979100 -0.08105000
v -0.27737600 -0.27869500 -0.07841400
v -0.29841100 -0.27608000 0.12934700
v -0.27737600 -0.22611100 -0.07841400
v -0.30367200 -0.23663800 0.12143800
v -0.27737900 -0.27608000 0.12934700
v -0.30893600 -0.24979100 -0.06261700
v -0.30104600 -0.22611100 -0.07841400
v -0.30893600 -0.27869500 -0.03108700
v -0.30104600 -0.22611100 0.01100900
v -0.27737900 -0.26029700 0.12934700
v -0.28264300 -0.22611100 0.01100900
v -0.30893600 -0.27869500 -0.06261700
v -0.30104600 -0.22606700 -0.07842000
v -0.28263800 0.22619700 0.01099900
v -0.27737600 0.22619700 -0.06000400
v -0.27737600 -0.22606700 -0.06000400
v -0.30104600 -0.22606700 0.01099900
v -0.30104600 0.22619700 -0.07842000
v -0.30104600 0.22619700 0.01099900
v -0.28263800 -0.22606700 0.01099900
v -0.27737600 0.22619700 -0.07842000
v -0.27737600 -0.22606700 -0.07842000
v -0.03806400 -0.24189100 -0.08630400
v 0.18812600 0.00269500 -0.06001000
v 0.18812600 -0.24189100 -0.06001000
v -0.27737600 0.00269500 -0.06001000
v 0.18812600 0.00269500 -0.07841700
v -0.27737600 -0.24189100 -0.06001000
v -0.27737600 0.00269500 -0.07841700
v 0.18812600 -0.17349000 -0.08630400
v -0.27737600 -0.24189100 -0.08104600
v 0.18812600 -0.24189100 -0.08104600
v 0.18019800 -0.12086700 -0.08630400
v 0.13814000 -0.24189100 -0.08367900
v -0.26944800 0.26306600 0.00836900
v -0.27737600 0.27357800 -0.07841500
v -0.27737600 0.25780200 -0.06000600
v 0.18812600 0.27357800 -0.07841500
v 0.18812600 0.25254100 -0.03896500
v 0.18812600 0.27883700 0.00572700
v -0.27737600 0.27883700 0.00572700
v 0.18812600 0.27883900 -0.07841500
v 0.18812600 0.26043300 0.00572700
v -0.27737600 0.25254100 -0.03896500
v 0.16967200 0.25780200 -0.06788900
v -0.27737600 0.27883900 -0.07841500
v 0.11449100 0.28147000 -0.01268100
v -0.27737600 0.25780800 -0.00479000
v -0.27737600 0.25254100 -0.05211500
v 0.18812600 0.28147000 -0.03370600
v 0.18812600 0.27620900 0.00836900
v 0.18812600 0.25254100 -0.05211500
v -0.27737600 0.27620900 0.00836900
v 0.18812600 0.25780200 -0.00479000
v 0.18812600 0.26569400 0.00836900
v -0.27737600 0.26043300 0.00572700
v -0.27737600 0.27620900 0.00836800
v -0.30104600 0.22624100 -0.07841900
v -0.30893600 0.24992000 -0.06262400
v -0.27737600 0.27884000 -0.07841900
v -0.28264000 0.22624100 0.01099900
v -0.30893600 0.27884000 -0.03108800
v -0.27737600 0.22624100 -0.07841900
v -0.30367200 0.23677000 0.01099900
v -0.29841100 0.27884000 -0.07841900
v -0.29841100 0.27884000 0.00573700
v -0.30104600 0.22624100 0.01099900
v -0.30893600 0.27884000 -0.06262400
v -0.03805900 0.23935100 -0.08630400
v 0.18812600 0.24199700 -0.06001000
v 0.18812600 0.00274200 -0.06001000
v -0.27736600 0.24199700 -0.06001000
v -0.27736600 0.00274200 -0.07841700
v 0.18812600 0.12104600 -0.08630400
v -0.27736600 0.00274200 -0.06001000
v -0.27736600 0.24199700 -0.08104600
v 0.18812600 0.00274200 -0.07841700
v 0.18812600 0.24199700 -0.08104600
v 0.18812600 0.17362900 -0.08630400
v 0.13814100 0.24199700 -0.08367900
v 0.18812600 0.24991100 -0.05212000
v -0.03806400 0.24202100 -0.08630600
v -0.03806400 0.25516900 -0.08630600
v -0.27737600 0.24991100 -0.05212000
v -0.27737600 0.25780100 -0.06001400
v -0.27737600 0.24202100 -0.08104600
v 0.18812600 0.24202100 -0.05738400
v 0.15919200 0.25780100 -0.07315500
v 0.18812600 0.24202100 -0.08104600
v 0.18812600 0.25780100 -0.05212000
v -0.27737600 0.24202100 -0.05738400
v -0.27737600 0.24991100 -0.08104600
v -0.27737600 0.25780100 -0.05212000
v 0.18812600 0.24991100 -0.08104600
v -0.30104600 -0.23397100 0.01101000
v -0.28263600 -0.08147900 0.12144600
v -0.30104600 -0.08147900 0.12144600
v -0.28263600 -0.23397100 0.12144600
v -0.28263600 -0.08147900 0.01101000
v -0.30104600 -0.08147900 0.01101000
v -0.30104600 -0.23397100 0.12144600
v -0.28263600 -0.23397100 0.01101000
v 0.18812600 -0.26030300 0.00573500
v -0.27737600 -0.27870800 -0.07842000
v -0.27737600 -0.27870800 0.00573500
v 0.18812600 -0.28134000 -0.03371700
v -0.27737600 -0.25767300 -0.06000200
v 0.16967200 -0.25767100 -0.06789400
v -0.27737600 -0.25767300 -0.00478200
v 0.18812600 -0.27870800 -0.07842000
v 0.18812600 -0.27870800 0.00573500
v -0.27209000 -0.26293500 0.00836900
v 0.18812600 -0.25767100 -0.00478200
v -0.27737600 -0.27344900 -0.07842000
v 0.11444600 -0.28134000 -0.01267400
v 0.18812600 -0.27607900 0.00836900
v 0.18812600 -0.27344700 -0.07842000
v -0.27737600 -0.27607900 0.00836900
v 0.18812600 -0.25767100 -0.06000200
v 0.18812600 -0.26556500 0.00836900
v -0.27737600 -0.26030300 0.00573500
v 0.18812600 -0.24189100 -0.05737400
v -0.03810900 -0.25504000 -0.08631000
v -0.27737600 -0.25767100 -0.06000600
v 0.18812600 -0.25767100 -0.02056100
v -0.27737600 -0.24189100 -0.05737400
v -0.27737600 -0.25504000 -0.02056100
v -0.27737600 -0.24189100 -0.08104500
v 0.18812600 -0.24978100 -0.08104500
v 0.15919200 -0.25767100 -0.07315500
v 0.18812600 -0.24189100 -0.08104500
v -0.27737600 -0.25767100 -0.02056100
v 0.18812600 -0.25504000 -0.02056100
v -0.27737600 -0.24978100 -0.08104500
v -0.01705800 -0.24189100 -0.08631000
f 7 11 14
f 3 2 4
f 2 3 5
f 4 2 5
f 3 4 6
f 6 4 7
f 4 5 7
f 5 3 8
f 3 6 8
f 7 5 9
f 5 8 9
f 6 7 10
f 8 6 10
f 9 1 11
f 7 9 11
f 1 9 12
f 9 8 12
f 10 1 13
f 8 10 13
f 1 12 13
f 12 8 13
f 10 7 14
f 1 10 14
f 11 1 14
f 24 23 26
f 18 15 19
f 15 18 21
f 20 15 21
f 17 21 22
f 21 18 22
f 19 15 23
f 15 20 23
f 16 17 24
f 18 19 24
f 19 23 24
f 17 22 25
f 22 18 25
f 24 17 25
f 18 24 25
f 17 16 26
f 21 17 26
f 20 21 26
f 23 20 26
f 16 24 26
f 35 27 37
f 29 28 30
f 30 27 31
f 31 27 32
f 28 29 33
f 29 31 33
f 31 32 33
f 29 30 34
f 30 31 34
f 31 29 34
f 30 28 35
f 32 27 36
f 28 33 36
f 33 32 36
f 35 28 36
f 27 35 36
f 27 30 37
f 30 35 37
f 46 38 48
f 40 39 42
f 40 41 43
f 41 38 43
f 38 41 44
f 41 42 44
f 41 40 45
f 42 41 45
f 40 42 45
f 43 38 46
f 43 46 47
f 39 40 47
f 40 43 47
f 46 39 47
f 42 39 48
f 38 44 48
f 44 42 48
f 39 46 48
f 59 57 63
f 50 51 52
f 52 51 54
f 52 54 56
f 54 51 58
f 50 52 59
f 53 55 59
f 56 53 59
f 52 56 59
f 55 57 59
f 55 49 60
f 57 55 60
f 58 57 60
f 54 58 60
f 54 49 61
f 49 55 61
f 55 53 61
f 53 56 61
f 56 54 61
f 49 54 62
f 60 49 62
f 54 60 62
f 51 50 63
f 57 58 63
f 58 51 63
f 50 59 63
f 64 72 73
f 66 65 67
f 64 67 68
f 65 66 69
f 64 68 69
f 68 65 70
f 65 69 70
f 69 68 70
f 67 65 71
f 68 67 71
f 65 68 71
f 66 67 72
f 64 69 72
f 69 66 72
f 67 64 73
f 72 67 73
f 81 83 85
f 76 75 77
f 75 76 78
f 77 75 78
f 74 76 79
f 76 77 79
f 79 77 80
f 77 78 80
f 78 76 81
f 74 79 82
f 79 80 82
f 80 74 82
f 76 74 83
f 81 76 83
f 74 80 84
f 80 78 84
f 78 81 84
f 81 74 84
f 74 81 85
f 83 74 85
f 99 105 107
f 90 89 91
f 87 88 92
f 89 87 93
f 91 89 93
f 90 91 94
f 92 88 95
f 88 87 96
f 87 89 96
f 87 92 97
f 93 87 97
f 92 91 98
f 97 92 98
f 92 95 99
f 95 88 100
f 90 95 100
f 88 96 100
f 91 93 101
f 93 97 101
f 97 98 101
f 98 91 101
f 91 92 102
f 94 91 102
f 89 90 103
f 96 89 103
f 90 100 103
f 100 96 103
f 92 99 104
f 86 102 104
f 102 92 104
f 90 94 105
f 95 90 105
f 99 95 105
f 86 94 106
f 102 86 106
f 94 102 106
f 94 86 107
f 86 104 107
f 104 99 107
f 105 94 107
f 113 116 119
f 109 111 114
f 111 108 114
f 108 112 114
f 112 109 114
f 112 108 115
f 113 110 115
f 111 109 116
f 113 111 116
f 108 111 117
f 111 113 117
f 115 108 117
f 113 115 117
f 110 109 118
f 109 112 118
f 115 110 118
f 112 115 118
f 109 110 119
f 110 113 119
f 116 109 119
f 130 120 131
f 122 121 123
f 121 122 125
f 124 120 125
f 122 123 126
f 123 124 126
f 124 122 126
f 123 121 127
f 120 124 127
f 124 123 127
f 122 124 128
f 125 122 128
f 124 125 128
f 121 125 129
f 127 121 129
f 125 120 130
f 129 125 130
f 129 130 131
f 120 127 131
f 127 129 131
f 141 140 145
f 134 133 137
f 135 136 137
f 132 135 138
f 137 133 138
f 134 136 139
f 133 134 140
f 132 138 140
f 138 133 140
f 135 132 141
f 139 136 141
f 132 140 141
f 135 137 142
f 138 135 142
f 137 138 142
f 136 134 143
f 134 137 143
f 137 136 143
f 136 135 144
f 135 141 144
f 141 136 144
f 134 139 145
f 140 134 145
f 139 141 145
f 150 149 153
f 147 148 149
f 148 147 150
f 147 149 150
f 146 148 151
f 150 146 151
f 148 150 151
f 148 146 152
f 149 148 152
f 146 149 152
f 149 146 153
f 146 150 153
f 169 163 172
f 155 156 158
f 158 156 160
f 159 158 160
f 157 155 161
f 154 157 161
f 157 154 162
f 159 160 164
f 154 161 164
f 155 158 165
f 158 159 165
f 161 155 165
f 156 155 166
f 155 157 166
f 162 156 166
f 157 162 166
f 162 154 167
f 156 162 167
f 164 161 168
f 165 159 168
f 161 165 168
f 160 156 169
f 156 167 169
f 167 163 169
f 159 164 170
f 168 159 170
f 164 168 170
f 154 163 171
f 167 154 171
f 163 167 171
f 163 154 172
f 154 164 172
f 164 160 172
f 160 169 172
f 182 180 186
f 177 175 178
f 173 177 178
f 177 173 179
f 175 177 179
f 173 176 180
f 175 174 181
f 176 175 181
f 174 180 181
f 180 176 181
f 179 173 182
f 173 180 182
f 175 176 183
f 178 175 183
f 176 178 183
f 176 173 184
f 178 176 184
f 173 178 184
f 174 175 185
f 179 174 185
f 175 179 185
f 174 179 186
f 180 174 186
f 179 182 186

