# https://github.com/mikedh/trimesh

o convex_0
v -0.30341400 0.02363700 -0.02505700
v -0.32846100 -0.20176200 -0.39006100
v -0.32846100 -0.18386900 -0.39006100
v -0.29983600 -0.20176200 -0.39006100
v -0.32846100 -0.20176200 -0.02505700
v -0.31772500 0.02363700 -0.39006100
v -0.29983600 -0.20176200 -0.02505700
v -0.29983600 0.02363700 -0.39006100
v -0.31772500 0.02363700 -0.02505700
v -0.32846100 -0.18386900 -0.02505700
v -0.29983600 -0.18386900 -0.02505700
v -0.29983600 0.18111100 -0.00716500
v -0.31772500 0.02365900 -0.39002400
v -0.32846100 0.18111100 -0.39002400
v -0.29983600 0.20258300 -0.39002400
v -0.32846100 0.20258300 -0.00716500
v -0.30341400 0.02365900 -0.00716500
v -0.29983600 0.02365900 -0.39002400
v -0.31772500 0.02365900 -0.00716500
v -0.32846100 0.20258300 -0.39002400
v -0.29983600 0.20258300 -0.00716500
v -0.32846100 0.18111100 -0.00716500
v 0.22977900 -0.18389200 0.01072800
v -0.29982000 -0.20178300 -0.32564900
v -0.29982000 -0.20178300 -0.02506300
v -0.29982000 -0.18389200 -0.32564900
v 0.22977900 -0.20178300 -0.32564900
v 0.22977900 -0.20178300 0.01072800
v 0.22977900 -0.18389200 -0.32564900
v -0.21034400 -0.18389200 0.01072800
v -0.29982000 -0.18389200 -0.02506300
v -0.21034400 -0.20178300 0.01072800
v 0.22977900 0.20258300 -0.00716500
v -0.29983600 0.18111200 -0.32922700
v -0.29983600 0.18111200 -0.00716500
v -0.29983600 0.20258300 -0.32922700
v 0.22977900 0.18111200 -0.32922700
v 0.22977900 0.18111200 -0.00716500
v 0.22977900 0.20258300 -0.32922700
v 0.19753300 -0.15527300 -0.34354700
v -0.29983600 -0.20177900 -0.39005500
v -0.29983600 -0.20177900 -0.32565500
v -0.29983600 -0.14811300 -0.39005500
v 0.22977900 -0.20177900 -0.39005500
v 0.22977900 -0.20177900 -0.32565500
v -0.24612800 -0.15885100 -0.32923600
v 0.22977900 -0.14811300 -0.39005500
v -0.26401300 -0.14811300 -0.35070300
v 0.22257300 -0.18030700 -0.32565500
v 0.19395600 -0.14811300 -0.35070300
v 0.17964800 -0.15885100 -0.33281700
v -0.29983600 -0.18388500 -0.32565500
v 0.22615000 -0.15527300 -0.35428400
v -0.29983600 -0.14811300 -0.37216300
v -0.07079900 -0.15885100 -0.32923600
v -0.29983600 0.02367300 -0.39006100
v 0.22977900 0.14888200 -0.37217100
v 0.22977900 0.14888200 -0.39006100
v 0.22977900 -0.14810700 -0.37217100
v -0.29983600 0.14888200 -0.37217100
v -0.29978400 -0.14810700 -0.39006100
v -0.29978400 -0.14810700 -0.37217100
v 0.22977900 -0.14810700 -0.39006100
v -0.29983600 0.14888200 -0.39006100
v -0.31772400 -0.14453500 0.41151700
v -0.32846100 -0.20177900 -0.02505700
v -0.29983600 -0.20177900 -0.02505700
v -0.32846100 -0.20177900 0.41151700
v -0.29983600 -0.20177900 0.41151700
v -0.30341700 -0.14453500 -0.02505700
v -0.29983600 -0.14453500 0.41151700
v -0.31772400 -0.14453500 -0.02505700
v -0.32846100 -0.18388600 0.41151700
v -0.32846100 -0.18388600 -0.02505700
v -0.29983600 -0.18388600 -0.02505700
v -0.29983800 0.14532800 0.41151700
v -0.31772800 -0.14452900 -0.02505700
v -0.31772800 0.02363700 -0.02505700
v -0.31772800 -0.14452900 0.41151700
v -0.30341700 -0.14452900 -0.02505700
v -0.29983800 -0.14452900 0.41151700
v -0.31772800 0.14532800 0.41151700
v -0.30341700 0.14532800 -0.00715100
v -0.31772800 0.14532800 -0.00715100
v -0.30341700 0.02363700 -0.02505700
v -0.29983800 0.14532800 0.39356900
v -0.29983800 -0.14452900 0.39361100
v -0.22470700 -0.14452800 0.41151700
v -0.29982100 -0.14452800 0.39362800
v -0.29981200 -0.20177900 0.39004600
v -0.22469800 0.14532800 0.39362800
v -0.29982100 0.14532800 0.41151500
v -0.21038300 -0.20177900 0.39004600
v -0.29981200 -0.20177900 0.41151700
v -0.29982100 0.14532800 0.39362800
v -0.22469800 0.14532800 0.41151500
v -0.21038300 -0.20177900 0.41151700
v -0.21038300 -0.18387300 0.39004600
v 0.14377800 -0.18389700 0.41149300
v -0.29981000 -0.20178200 0.05724800
v -0.29981000 -0.20178500 0.20038800
v 0.22977900 -0.20178200 0.05728300
v -0.29981000 -0.18389500 0.05724800
v 0.22977900 -0.18389500 0.05728300
v 0.22972700 -0.20178500 0.39002800
v -0.29981000 -0.18389700 0.39002800
v -0.21033500 -0.20178200 0.41149300
v 0.22609800 -0.18031400 0.32199500
v -0.27471900 -0.18031400 0.27549500
v -0.29981000 -0.20178500 0.39002800
v -0.21033500 -0.18389700 0.41149300
v 0.14377800 -0.20178200 0.41149300
v 0.22972700 -0.18389700 0.39002800
v -0.27114300 -0.18031400 0.32199500
v 0.22609800 -0.18031400 0.27553000
v 0.22977900 0.20258300 0.41151700
v 0.14389500 -0.20176200 0.39004600
v 0.22977900 -0.20176200 0.39004600
v 0.14389500 -0.20176200 0.41151700
v 0.14389500 0.20258300 0.39004600
v 0.22977900 -0.20176200 0.41151700
v 0.22977900 0.20258300 0.39004600
v 0.14389500 0.20258300 0.41151700
v -0.21753100 0.14890600 0.28269800
v 0.22977900 0.20258300 0.32205500
v 0.22977900 0.18110400 0.32205500
v 0.22977900 0.20258300 0.27553500
v -0.21753100 0.20258300 0.32205500
v -0.21753100 0.20258300 0.27553500
v 0.22618800 0.15606800 0.27553500
v -0.21753100 0.15607300 0.31847600
v 0.19396200 0.14890600 0.30057600
v -0.21753100 0.15607300 0.27553500
v -0.07076300 0.15964600 0.32205500
v 0.17964500 0.15964600 0.31847600
v -0.21753100 0.14890600 0.30057600
v 0.19396200 0.14890600 0.28269800
v -0.21753100 0.15964600 0.32205500
v 0.19753300 0.15607300 -0.33997000
v -0.29983600 0.14890600 -0.39006100
v -0.29983600 0.14890600 -0.37216100
v 0.22977900 0.20258300 -0.39006100
v -0.29983600 0.20258300 -0.39006100
v 0.22977900 0.14890600 -0.39006100
v -0.24612800 0.15607300 -0.32922700
v 0.19395600 0.14890600 -0.34712700
v 0.22977900 0.18110400 -0.32922700
v -0.27474400 0.14890600 -0.34712700
v 0.17964800 0.15964600 -0.33281200
v -0.29983600 0.18110400 -0.32922700
v -0.07079900 0.15607300 -0.32922700
v 0.22615000 0.15607300 -0.35428500
v -0.28552200 0.14532800 0.39362600
v -0.21753100 0.20258300 0.41151700
v -0.21753100 0.18110700 0.41151700
v -0.21753100 0.20258300 0.37931100
v -0.28552200 0.20258300 0.41151700
v -0.28552200 0.20258300 0.37931100
v -0.22469900 0.14532800 0.41151700
v -0.21753100 0.18110700 0.37931100
v -0.28552200 0.14532800 0.41151700
v -0.22469900 0.14532800 0.39362600
v -0.28552200 0.18110700 0.37931100
v -0.27478000 0.14890600 0.28270200
v -0.21753100 0.20258300 0.22543600
v -0.28552200 0.20258300 0.22543600
v -0.21753100 0.14890600 0.30061100
v -0.28552200 0.18110400 0.37931100
v -0.21753100 0.18110400 0.22543600
v -0.28552200 0.18110400 0.22543600
v -0.21753100 0.18110400 0.37931100
v -0.27478000 0.14890600 0.30061100
v -0.21753100 0.14890600 0.28270200
v -0.32845900 0.20258300 0.41151700
v -0.31772500 0.14532800 -0.00716500
v -0.30341800 0.14532800 -0.00716500
v -0.28553000 0.14532800 0.41151700
v -0.28553000 0.20258300 -0.00716500
v -0.28553000 0.20258300 0.41151700
v -0.32845900 0.20258300 -0.00716500
v -0.31772500 0.14532800 0.41151700
v -0.32845900 0.18110700 0.41151700
v -0.28553000 0.18110700 -0.00716500
v -0.32845900 0.18110700 -0.00716500
v 0.22977900 0.20258300 0.39004500
v -0.21753100 0.18111200 0.32205500
v -0.21753100 0.18111200 0.41151700
v 0.22977900 0.18111200 0.32205500
v 0.14387200 0.18111200 0.41151700
v 0.14387200 0.20258300 0.41151700
v 0.22977900 0.18111200 0.39004500
v -0.21037400 -0.20177900 0.01072800
v 0.19397500 -0.14811300 0.03577300
v 0.22258300 -0.18030700 0.05724800
v -0.21037400 -0.15885100 0.05366900
v -0.21037400 -0.20177900 0.05724800
v 0.22977900 -0.20177900 0.01072800
v -0.21037400 -0.15527300 0.01072800
v 0.22615900 -0.15527300 0.01072800
v 0.22977900 -0.20177900 0.05724800
v -0.21037400 -0.14811300 0.01788600
v 0.17967100 -0.15885100 0.05008500
v -0.21037400 -0.14811300 0.03577300
v 0.19397500 -0.14811300 0.01788600
v -0.21037400 -0.18030700 0.05724800
v 0.22615900 -0.15527300 0.02862800
v -0.21037400 -0.14811300 0.03218400
v -0.29981800 -0.20177900 -0.02504900
v -0.29981800 -0.20177900 0.05724000
v -0.21037400 -0.20177900 0.05724000
v -0.21037400 -0.20177900 -0.02504900
v -0.27477600 -0.15169600 0.01430700
v -0.24616900 -0.15885100 0.05366300
v -0.21037400 -0.18388500 -0.02504900
v -0.29981800 -0.18388500 -0.02504900
v -0.29981800 -0.18388500 0.05724000
v -0.27477600 -0.15169600 0.03576100
v -0.21037400 -0.14811300 0.01788400
v -0.21037400 -0.15885100 0.05366300
v -0.07078300 -0.15885200 0.32205500
v -0.27473700 -0.18031100 0.27553500
v -0.27473700 -0.18031100 0.27911400
v 0.22615100 -0.18031100 0.27553500
v -0.26399800 -0.14811400 0.28269800
v 0.19393200 -0.14811400 0.28269800
v 0.17961300 -0.16599500 0.31847600
v -0.24609800 -0.16956900 0.31847600
v 0.22615100 -0.15527200 0.27553500
v 0.19393200 -0.14811400 0.30057600
v -0.09584200 -0.17672400 0.30773800
v -0.26399800 -0.14811400 0.30057600
v -0.27473700 -0.15527200 0.27553500
v -0.24609800 -0.15885200 0.32205500
v 0.17961300 -0.15884900 0.31847600
v 0.22615100 -0.15527200 0.29343500
v 0.19756100 -0.17314900 0.30415900
v -0.27473700 -0.16599500 0.30057600
v -0.07078300 -0.16599500 0.32205500
v 0.19391500 0.14890600 0.03576700
v -0.28552200 0.18110400 -0.00716500
v -0.27477800 0.14890600 0.01431000
v -0.28552200 0.20258300 0.05724800
v 0.22977900 0.20258300 0.05366700
v -0.24612800 0.15607300 0.05366000
v 0.22614700 0.15607300 0.01073600
v -0.28552200 0.20258300 -0.00716500
v 0.22977900 0.18110400 0.05366700
v 0.22977900 0.18110400 -0.00716500
v -0.27477800 0.14890600 0.03577300
v 0.17964100 0.15964600 0.05007900
v -0.28552200 0.18110400 0.05724800
v 0.19391500 0.14890600 0.01789200
v -0.07074600 0.15607300 0.05366700
v -0.21752800 0.20258300 0.27553500
v -0.21752800 0.18111200 0.05367000
v -0.28552200 0.18111200 0.05727500
v 0.22977900 0.18111200 0.27553500
v 0.22977900 0.20258300 0.05367000
v -0.28552200 0.20258300 0.05727500
v 0.22977900 0.18111200 0.05367000
v -0.28552200 0.18111200 0.22541100
v -0.21752800 0.18111200 0.27553500
v -0.28552200 0.20258300 0.22541100
v -0.21752800 0.20258300 0.05367000
f 7 8 11
f 2 3 4
f 3 2 5
f 2 4 5
f 4 3 6
f 1 5 7
f 5 4 7
f 4 6 8
f 6 1 8
f 7 4 8
f 5 1 9
f 6 3 9
f 1 6 9
f 3 5 10
f 5 9 10
f 9 3 10
f 1 7 11
f 8 1 11
f 19 16 22
f 13 14 15
f 12 16 17
f 13 15 18
f 15 12 18
f 17 13 18
f 12 17 18
f 14 13 19
f 13 17 19
f 17 16 19
f 15 14 20
f 16 15 20
f 14 16 20
f 12 15 21
f 16 12 21
f 15 16 21
f 16 14 22
f 14 19 22
f 28 30 32
f 24 25 26
f 25 24 27
f 24 26 27
f 27 23 28
f 25 27 28
f 26 23 29
f 23 27 29
f 27 26 29
f 23 26 30
f 28 23 30
f 26 25 31
f 25 30 31
f 30 26 31
f 25 28 32
f 30 25 32
f 37 36 39
f 34 35 36
f 35 34 37
f 34 36 37
f 35 33 21
f 36 35 21
f 33 36 21
f 33 35 38
f 37 33 38
f 35 37 38
f 36 33 39
f 33 37 39
f 51 50 55
f 41 42 43
f 42 41 44
f 41 43 44
f 42 44 45
f 44 43 47
f 45 44 47
f 47 43 48
f 42 45 49
f 48 46 50
f 47 48 50
f 40 50 51
f 43 42 52
f 46 48 52
f 42 49 52
f 49 46 52
f 45 47 53
f 49 45 53
f 47 50 53
f 50 40 53
f 51 49 53
f 40 51 53
f 48 43 54
f 43 52 54
f 52 48 54
f 46 49 55
f 50 46 55
f 49 51 55
f 60 58 64
f 58 57 59
f 57 58 60
f 59 57 60
f 56 58 61
f 60 56 62
f 59 60 62
f 56 61 62
f 61 59 62
f 58 59 63
f 61 58 63
f 59 61 63
f 58 56 64
f 56 60 64
f 71 67 75
f 66 67 68
f 65 68 69
f 68 67 69
f 67 66 70
f 70 65 71
f 65 69 71
f 69 67 71
f 70 66 72
f 65 70 72
f 66 68 73
f 68 65 73
f 65 72 73
f 73 72 74
f 72 66 74
f 66 73 74
f 67 70 75
f 70 71 75
f 86 81 87
f 78 77 79
f 77 78 80
f 79 77 80
f 76 79 81
f 79 80 81
f 78 79 82
f 79 76 82
f 82 76 83
f 82 83 84
f 78 82 84
f 83 78 84
f 80 78 85
f 78 83 85
f 85 83 86
f 76 81 86
f 83 76 86
f 80 85 86
f 80 86 87
f 81 80 87
f 96 97 98
f 89 90 94
f 88 92 94
f 92 89 94
f 90 93 94
f 90 89 95
f 92 91 95
f 89 92 95
f 92 88 96
f 91 92 96
f 88 94 97
f 94 93 97
f 96 88 97
f 93 90 98
f 90 95 98
f 95 91 98
f 91 96 98
f 97 93 98
f 104 109 115
f 101 100 102
f 100 101 103
f 102 100 103
f 102 103 104
f 101 102 105
f 102 104 105
f 103 101 106
f 104 103 109
f 103 106 109
f 101 105 110
f 106 101 110
f 105 107 110
f 107 106 110
f 107 99 111
f 106 107 111
f 99 108 111
f 105 99 112
f 99 107 112
f 107 105 112
f 99 105 113
f 105 104 113
f 104 108 113
f 108 99 113
f 109 106 114
f 108 109 114
f 106 111 114
f 111 108 114
f 108 104 115
f 109 108 115
f 120 119 123
f 117 118 119
f 118 117 120
f 117 119 120
f 118 116 121
f 119 118 121
f 116 119 121
f 116 118 122
f 120 116 122
f 118 120 122
f 119 116 123
f 116 120 123
f 131 134 138
f 125 126 127
f 126 125 128
f 125 127 128
f 124 128 129
f 128 127 129
f 127 126 130
f 129 127 130
f 128 124 131
f 130 126 132
f 124 129 133
f 130 124 133
f 129 130 133
f 126 128 134
f 132 126 135
f 131 132 135
f 126 134 135
f 134 131 135
f 131 124 136
f 124 132 136
f 132 131 136
f 124 130 137
f 132 124 137
f 130 132 137
f 128 131 138
f 134 128 138
f 147 139 152
f 140 141 36
f 142 140 143
f 140 36 143
f 36 142 143
f 142 36 39
f 142 39 144
f 141 140 144
f 140 142 144
f 39 36 145
f 141 144 146
f 144 39 147
f 39 145 147
f 141 146 148
f 146 145 148
f 146 139 149
f 139 147 149
f 36 141 150
f 145 36 150
f 141 148 150
f 148 145 150
f 145 146 151
f 147 145 151
f 146 149 151
f 149 147 151
f 139 146 152
f 146 144 152
f 144 147 152
f 158 160 163
f 154 155 156
f 155 154 157
f 154 156 157
f 153 157 158
f 157 156 158
f 155 157 159
f 156 155 160
f 158 156 160
f 155 159 160
f 157 153 161
f 153 159 161
f 159 157 161
f 159 153 162
f 153 160 162
f 160 159 162
f 153 158 163
f 160 153 163
f 169 167 173
f 158 156 165
f 158 165 166
f 165 156 167
f 156 158 168
f 158 166 168
f 166 165 169
f 165 167 169
f 164 168 170
f 168 166 170
f 169 164 170
f 166 169 170
f 167 156 171
f 156 168 171
f 168 167 171
f 164 167 172
f 168 164 172
f 167 168 172
f 167 164 173
f 164 169 173
f 182 180 184
f 175 176 177
f 176 175 178
f 174 177 179
f 178 174 179
f 177 178 179
f 174 178 180
f 178 175 180
f 175 177 181
f 177 174 181
f 174 180 182
f 175 181 182
f 181 174 182
f 177 176 183
f 178 177 183
f 176 178 183
f 180 175 184
f 175 182 184
f 189 188 191
f 128 186 187
f 186 128 188
f 187 186 188
f 185 128 154
f 128 187 154
f 154 187 189
f 187 188 189
f 128 185 125
f 185 188 125
f 188 128 125
f 185 154 190
f 154 189 190
f 189 185 190
f 188 185 191
f 185 189 191
f 200 199 206
f 195 192 196
f 196 192 197
f 197 192 198
f 192 195 198
f 197 198 199
f 194 196 200
f 196 197 200
f 197 199 200
f 198 195 201
f 199 198 201
f 194 193 202
f 195 194 202
f 193 195 202
f 195 193 203
f 193 201 203
f 201 195 203
f 193 199 204
f 201 193 204
f 199 201 204
f 194 195 205
f 195 196 205
f 196 194 205
f 193 194 206
f 199 193 206
f 194 200 206
f 213 216 219
f 209 208 210
f 207 210 211
f 210 208 211
f 207 211 214
f 211 208 214
f 208 209 215
f 214 208 215
f 209 210 216
f 212 215 216
f 215 209 216
f 207 212 217
f 213 207 217
f 212 216 217
f 216 213 217
f 212 207 218
f 207 214 218
f 215 212 218
f 214 215 218
f 210 207 219
f 207 213 219
f 216 210 219
f 220 233 238
f 222 221 223
f 223 221 228
f 224 225 228
f 225 224 229
f 228 225 229
f 222 223 230
f 227 222 230
f 220 229 231
f 229 224 231
f 221 222 232
f 228 221 232
f 224 228 232
f 231 224 232
f 220 231 233
f 220 226 234
f 229 220 234
f 229 234 235
f 223 228 235
f 228 229 235
f 234 226 235
f 230 223 236
f 226 230 236
f 223 235 236
f 235 226 236
f 222 227 237
f 232 222 237
f 231 232 237
f 227 233 237
f 233 231 237
f 226 220 238
f 230 226 238
f 227 230 238
f 233 227 238
f 251 244 253
f 33 242 243
f 240 242 246
f 242 33 246
f 33 240 246
f 243 242 247
f 33 243 247
f 239 245 247
f 247 245 248
f 241 240 248
f 240 33 248
f 245 241 248
f 33 247 248
f 241 239 249
f 240 241 249
f 239 247 250
f 242 240 251
f 247 242 251
f 240 249 251
f 249 244 251
f 239 241 252
f 245 239 252
f 241 245 252
f 249 239 253
f 244 249 253
f 239 250 253
f 250 247 253
f 247 251 253
f 259 258 264
f 256 255 257
f 255 256 259
f 254 258 259
f 254 257 127
f 258 254 127
f 257 258 127
f 257 255 260
f 258 257 260
f 255 258 260
f 256 257 261
f 259 256 261
f 257 254 262
f 261 257 262
f 254 261 262
f 254 259 263
f 261 254 263
f 259 261 263
f 258 255 264
f 255 259 264

