# https://github.com/mikedh/trimesh

o convex_0
v 0.19459500 -0.14889300 -0.04003700
v 0.21680900 0.20043000 0.08314500
v 0.21680900 0.20043000 -0.04811900
v 0.21680900 -0.19942200 0.08314500
v 0.19661500 0.20043000 0.08314500
v 0.21680900 -0.19942200 -0.04811900
v 0.19661500 -0.19942200 0.08314500
v 0.19661500 0.20043000 -0.04811900
v 0.19661500 -0.19942200 -0.04811900
v 0.19459500 0.17616300 0.04881300
v 0.19459500 -0.17719100 0.04881300
v 0.19459500 0.18023400 -0.03800700
v 0.19459500 0.02469200 -0.04407200
v 0.19459500 -0.17918700 -0.03800700
v -0.29411100 -0.14892100 -0.04004100
v -0.27593900 -0.17114200 0.04881500
v -0.29411100 -0.17114200 0.04881500
v -0.27795900 0.02473700 0.04677900
v -0.27593900 -0.17922800 -0.03801500
v -0.29613100 0.02473700 -0.04004100
v -0.27593900 0.02473700 -0.04004100
v -0.29613100 0.02473700 0.04677900
v -0.30420800 -0.17922800 -0.01984500
v -0.30420800 -0.15091700 0.00841400
v -0.29815100 -0.14287100 0.04677900
v -0.30420800 -0.17922800 0.01043200
v -0.27593900 -0.17719100 0.04881500
v -0.29411100 -0.17922800 -0.03801500
v -0.29613100 -0.14083500 -0.04004100
v -0.27593900 0.02473700 -0.02186300
v -0.30420800 -0.15091700 -0.01984500
v -0.27593900 -0.14892100 -0.04004100
v -0.29411100 -0.17719100 0.04881500
v -0.27593900 -0.17922800 0.03062800
v -0.27593900 -0.13883800 0.04677900
v -0.05578000 -0.13479600 -0.04407600
v 0.19454600 0.02473700 -0.02186600
v 0.19454600 -0.14085800 -0.02186600
v -0.27589200 0.02473700 -0.02186800
v 0.19454600 0.02473700 -0.04407600
v -0.27589200 -0.14085800 -0.02186800
v -0.27589200 0.02473700 -0.04003800
v 0.19454600 -0.14085800 -0.04003800
v -0.27589200 -0.14085800 -0.04003800
v 0.14006000 -0.14085800 -0.04407600
v 0.14609300 0.02271100 -0.04407600
v 0.19454600 -0.02575500 -0.04407600
v -0.05578000 -0.14085800 -0.04407600
v -0.29612800 0.02473700 0.04679500
v -0.27594100 0.16408000 0.04679500
v -0.27594100 0.16408000 -0.01983700
v -0.27593900 0.02473700 -0.02185100
v -0.29612800 0.14184700 -0.04004100
v -0.29411200 0.16408000 0.04679500
v -0.29612800 0.02473700 -0.04004100
v -0.27796300 0.02473700 0.04679500
v -0.27594100 0.14993500 -0.04004100
v -0.29815300 0.14184700 0.04679500
v -0.29411200 0.16408000 -0.01983700
v -0.29815300 0.12164700 -0.02185100
v -0.29815300 0.14184700 -0.02185100
v -0.27593900 0.13984200 0.04679500
v -0.29411200 0.14993500 -0.04004100
v -0.29815300 0.12164700 0.04679500
v -0.05581900 0.13377300 -0.04407600
v 0.19459500 0.14184300 -0.02186600
v 0.19459500 0.02474900 -0.02186600
v -0.27592700 0.14184300 -0.02186800
v -0.27592700 0.02474900 -0.04003800
v 0.19459500 0.02474900 -0.04003800
v -0.27592700 0.02474900 -0.02186800
v 0.19459500 0.14184300 -0.04003800
v -0.27592700 0.14184300 -0.04003800
v 0.14006300 0.14184300 -0.04407600
v 0.14006300 0.13377300 -0.04407600
v -0.05581900 0.14184300 -0.04407600
v 0.19459500 -0.15903600 0.04073100
v -0.27593900 -0.17922800 -0.03802200
v -0.27593900 -0.17922800 0.03063300
v -0.27593900 -0.15701400 -0.01984000
v 0.19459500 -0.17922800 -0.03802200
v 0.19459500 -0.17720600 0.04881500
v -0.27593900 -0.16105600 0.04679200
v 0.17437500 -0.15701400 -0.02590100
v -0.27593900 -0.17720600 0.04881500
v -0.27593900 -0.15701400 0.02659600
v 0.19459500 -0.17922800 0.03871700
v 0.19459500 -0.15701400 0.02659600
v -0.27593900 -0.17518600 -0.03802200
v 0.19459500 -0.16105600 0.04679200
v 0.19459500 -0.17518600 -0.03802200
v 0.19459500 -0.15701400 -0.01984000
v 0.19459500 -0.17115000 0.04881500
v -0.27593900 -0.15903600 0.04073100
v -0.27593900 -0.17115000 0.04881500
v -0.30421000 0.14994300 -0.01984700
v -0.29411500 0.17821300 0.01044500
v -0.29411500 0.18023500 -0.01176700
v -0.30421000 0.17821300 0.01044500
v -0.29411500 0.14994300 0.00842300
v -0.30421000 0.18023500 -0.01984700
v -0.29411500 0.14994300 -0.01984700
v -0.30421000 0.14994300 0.00842300
v -0.29411500 0.18023500 -0.01984700
v 0.19459400 0.17619500 0.04881500
v -0.29411400 0.17417500 -0.03802200
v -0.27593500 0.15802100 -0.01984000
v 0.19459400 0.17417500 -0.03802200
v -0.29411400 0.17821100 0.04679200
v 0.19459400 0.15802100 0.03265600
v -0.27593500 0.16004100 0.04476900
v 0.19459400 0.18023500 -0.03802200
v 0.17435800 0.15802100 -0.02590100
v -0.29411400 0.18023500 -0.03802200
v 0.19459400 0.18023500 0.03871700
v 0.19459400 0.16206100 0.04679200
v -0.29411400 0.17013700 0.04881500
v -0.27593500 0.15802100 0.03265600
v -0.29411400 0.18023500 -0.01176500
v -0.29411400 0.16408100 -0.01984000
v 0.19459400 0.15802100 -0.01984000
v -0.29411400 0.16408100 0.04679200
v 0.19459400 0.16004100 0.04476900
v 0.11982400 0.18023500 0.03871700
v 0.19459400 0.17013700 0.04881500
v -0.29411400 0.17619300 0.04881500
v 0.19459400 0.17821500 0.04679200
v -0.27593500 0.16206100 0.04679200
v 0.19459500 -0.14086000 -0.01985100
v -0.03362500 -0.15499300 -0.04610000
v -0.27593900 -0.15701200 -0.01984800
v -0.27593900 -0.14086000 -0.04004000
v 0.19459500 -0.15701200 -0.00974900
v -0.27593900 -0.15095400 -0.00974900
v 0.19459500 -0.14086000 -0.04004000
v -0.27593900 -0.14086000 -0.01984800
v 0.16226200 -0.15701200 -0.03196000
v -0.27593900 -0.14893700 -0.04004000
v 0.19459500 -0.15095400 -0.00974900
v -0.27593900 -0.15701200 -0.00974900
v -0.03362500 -0.14086000 -0.04407900
v 0.19459500 -0.14893700 -0.04004000
v -0.01142500 -0.14691900 -0.04610000
v -0.01142500 -0.15499300 -0.04610000
v 0.19459500 -0.15701200 -0.01985100
v 0.19459500 -0.15499400 0.01448400
v -0.27593900 -0.15701400 -0.00974900
v -0.27593900 -0.15297500 -0.00974900
v 0.19459500 -0.15701400 -0.00974900
v -0.27593900 -0.15701400 0.01448400
v 0.19459500 -0.15297500 -0.00974900
v -0.27593900 -0.15297500 0.00034900
v 0.19459500 -0.15701400 0.01448400
v -0.27593900 -0.15499400 0.01448400
v 0.19459500 -0.15297500 0.00034900
v 0.19459500 0.15600100 0.01852300
v -0.03362500 0.15196300 -0.04610000
v -0.03362500 0.15600100 -0.04610000
v -0.27593900 0.15600100 0.01852300
v -0.27593900 0.15196300 -0.00572300
v -0.27593900 0.15802100 -0.01983600
v 0.19459500 0.15196300 -0.00572300
v 0.17437500 0.15802100 -0.02590200
v 0.19459500 0.15802100 0.01852300
v -0.27593900 0.15802100 0.01852300
v 0.16226200 0.15196300 -0.03196200
v -0.27593900 0.15196300 -0.01983600
v 0.19459500 0.15802100 -0.01983600
v 0.16226200 0.15600100 -0.03196200
v -0.01142500 0.15600100 -0.04610000
v 0.19459500 0.15196300 -0.01983600
v 0.19459500 0.14994200 -0.01176900
v -0.03367100 0.14590500 -0.04610000
v -0.03367100 0.15196200 -0.04610000
v -0.27593900 0.14994200 -0.01176900
v -0.27593900 0.14186700 -0.01984800
v 0.19459500 0.14186700 -0.04004100
v -0.27593900 0.14186700 -0.04004100
v 0.19459500 0.14186700 -0.01984800
v -0.27593900 0.14994200 -0.04004100
v 0.16226200 0.15196200 -0.03196200
v -0.27593900 0.15196200 -0.01176900
v 0.19459500 0.14994200 -0.04004100
v 0.19459500 0.15196200 -0.01176900
v -0.01142500 0.14186700 -0.04408000
v -0.27593900 0.15196200 -0.01984800
v -0.01142500 0.15196200 -0.04610000
f 11 1 14
f 3 2 4
f 2 3 5
f 4 2 5
f 3 4 6
f 6 4 7
f 4 5 7
f 5 3 8
f 3 6 8
f 8 6 9
f 6 7 9
f 7 5 10
f 10 1 11
f 7 10 11
f 5 8 12
f 1 10 12
f 10 5 12
f 8 9 13
f 9 1 13
f 1 12 13
f 12 8 13
f 9 7 14
f 1 9 14
f 7 11 14
f 30 18 35
f 17 16 18
f 16 19 21
f 15 20 21
f 20 18 21
f 17 18 22
f 18 20 22
f 22 20 24
f 17 22 25
f 22 24 25
f 25 24 26
f 23 19 26
f 24 23 26
f 16 17 27
f 19 16 27
f 15 19 28
f 19 23 28
f 28 23 29
f 20 15 29
f 23 20 29
f 15 28 29
f 16 21 30
f 21 18 30
f 20 23 31
f 24 20 31
f 23 24 31
f 19 15 32
f 15 21 32
f 21 19 32
f 17 25 33
f 25 26 33
f 27 17 33
f 27 33 34
f 26 19 34
f 19 27 34
f 33 26 34
f 18 16 35
f 16 30 35
f 45 44 48
f 38 37 39
f 37 38 40
f 39 37 40
f 38 39 41
f 41 39 42
f 39 40 42
f 40 38 43
f 38 41 43
f 43 41 44
f 41 42 44
f 42 36 44
f 36 40 45
f 43 44 45
f 40 36 46
f 36 42 46
f 42 40 46
f 40 43 47
f 45 40 47
f 43 45 47
f 44 36 48
f 36 45 48
f 58 60 64
f 49 50 54
f 50 51 54
f 52 49 55
f 50 49 56
f 49 52 56
f 55 53 57
f 49 54 58
f 52 55 21
f 55 57 21
f 54 51 59
f 51 57 59
f 58 54 59
f 55 49 60
f 53 55 60
f 60 58 61
f 59 53 61
f 58 59 61
f 53 60 61
f 51 50 62
f 50 56 62
f 56 52 62
f 57 51 62
f 52 21 62
f 21 57 62
f 57 53 63
f 59 57 63
f 53 59 63
f 49 58 64
f 60 49 64
f 74 65 76
f 67 66 68
f 67 69 70
f 66 67 70
f 69 65 70
f 67 68 71
f 68 69 71
f 69 67 71
f 68 66 72
f 66 70 72
f 65 69 73
f 69 68 73
f 68 72 73
f 73 72 74
f 72 70 74
f 74 70 75
f 70 65 75
f 65 74 75
f 65 73 76
f 73 74 76
f 93 83 95
f 78 79 80
f 79 78 81
f 81 77 82
f 80 79 83
f 83 79 85
f 80 83 86
f 84 80 86
f 79 81 87
f 81 82 87
f 85 79 87
f 82 85 87
f 77 81 88
f 86 77 88
f 84 86 88
f 78 80 89
f 81 78 89
f 80 84 89
f 82 77 90
f 77 83 90
f 88 81 91
f 81 89 91
f 89 84 91
f 84 88 92
f 88 91 92
f 91 84 92
f 85 82 93
f 82 90 93
f 90 83 93
f 83 77 94
f 86 83 94
f 77 86 94
f 83 85 95
f 85 93 95
f 102 101 104
f 97 98 99
f 98 97 100
f 97 99 100
f 99 98 101
f 96 99 101
f 100 96 102
f 98 100 102
f 96 101 102
f 99 96 103
f 96 100 103
f 100 99 103
f 101 98 104
f 98 102 104
f 117 122 128
f 108 105 110
f 108 106 112
f 105 108 112
f 107 106 113
f 106 108 113
f 110 107 113
f 106 109 114
f 112 106 114
f 112 114 115
f 105 112 115
f 110 105 116
f 109 106 117
f 107 110 118
f 110 111 118
f 114 109 119
f 115 114 119
f 106 107 120
f 117 106 120
f 107 118 120
f 108 110 121
f 113 108 121
f 110 113 121
f 118 111 122
f 117 120 122
f 120 118 122
f 111 110 123
f 110 116 123
f 116 111 123
f 119 109 124
f 115 119 124
f 116 105 125
f 117 116 125
f 105 117 125
f 117 105 126
f 109 117 126
f 105 115 127
f 124 109 127
f 115 124 127
f 126 105 127
f 109 126 127
f 111 116 128
f 116 117 128
f 122 111 128
f 137 142 145
f 132 131 134
f 132 129 135
f 129 133 135
f 129 132 136
f 132 134 136
f 131 130 137
f 133 131 137
f 130 131 138
f 131 132 138
f 132 130 138
f 133 129 139
f 134 133 139
f 129 136 139
f 136 134 139
f 131 133 140
f 134 131 140
f 133 134 140
f 132 135 141
f 135 133 142
f 130 132 143
f 132 141 143
f 141 135 143
f 135 142 143
f 143 142 144
f 137 130 144
f 142 137 144
f 130 143 144
f 133 137 145
f 142 133 145
f 151 152 155
f 147 148 149
f 148 147 150
f 147 149 150
f 149 148 151
f 146 149 151
f 148 150 152
f 151 148 152
f 149 146 153
f 146 150 153
f 150 149 153
f 150 146 154
f 146 152 154
f 152 150 154
f 146 151 155
f 152 146 155
f 166 168 171
f 156 159 160
f 158 157 161
f 160 159 161
f 156 160 162
f 160 157 162
f 158 161 163
f 159 156 164
f 156 162 164
f 163 161 164
f 164 161 165
f 161 159 165
f 159 164 165
f 162 157 166
f 157 160 167
f 161 157 167
f 160 161 167
f 164 162 168
f 163 164 168
f 168 166 169
f 163 168 169
f 163 169 170
f 157 158 170
f 158 163 170
f 166 157 170
f 169 166 170
f 162 166 171
f 168 162 171
f 181 183 187
f 172 175 176
f 177 176 178
f 174 173 178
f 176 175 178
f 172 176 179
f 177 172 179
f 176 177 179
f 174 178 180
f 178 175 180
f 175 172 182
f 180 175 182
f 181 174 182
f 172 177 183
f 183 181 184
f 182 172 184
f 181 182 184
f 172 183 184
f 173 177 185
f 177 178 185
f 178 173 185
f 174 180 186
f 182 174 186
f 180 182 186
f 173 174 187
f 177 173 187
f 174 181 187
f 183 177 187

