# https://github.com/mikedh/trimesh

o convex_0
v 0.19677400 -0.14880800 -0.08633600
v 0.21984100 0.19946500 0.28963200
v 0.21984100 0.19946500 -0.10942200
v 0.21984100 -0.19958800 0.28963200
v 0.19908200 0.19946500 0.28963200
v 0.21984100 -0.19958800 -0.10942200
v 0.19908200 -0.19954900 0.28963200
v 0.19908200 0.19946500 -0.10942200
v 0.19908200 -0.19954900 -0.10942200
v 0.19677400 0.17868400 0.12354200
v 0.19677400 -0.17876800 0.12354200
v 0.19677400 0.17868400 -0.08172700
v 0.19677400 -0.18107300 -0.03790000
v 0.19677400 0.02642200 -0.09094600
v -0.29454600 -0.14189600 0.05204500
v -0.27148300 -0.16034700 0.12355100
v -0.27148300 -0.16034700 0.09816400
v -0.27609600 0.01721900 0.11662900
v -0.29223600 -0.17650300 0.12355100
v -0.29454600 0.01721900 0.05204500
v -0.27609600 0.01721900 0.05204500
v -0.29454600 0.01721900 0.11662900
v -0.27378900 -0.17187600 0.05204500
v -0.28992900 -0.17187600 0.05204500
v -0.29454600 -0.15573900 0.11662900
v -0.27148300 -0.17650300 0.12355100
v -0.29223600 -0.17650300 0.09816400
v -0.29454600 0.01723800 0.05204500
v -0.27148300 0.17639800 0.12355100
v -0.29223600 0.17639800 0.12355100
v -0.27378900 0.17177100 0.05204500
v -0.27609600 0.01723800 0.11662900
v -0.27609600 0.01723800 0.05204500
v -0.29454600 0.01723800 0.11662900
v -0.29454600 0.14178100 0.05204500
v -0.28992900 0.17177100 0.05204500
v -0.29454600 0.15561500 0.11662900
v -0.27148300 0.16022700 0.09816400
v -0.29223600 0.17639800 0.09816400
v -0.27148300 0.16022700 0.12355100
v 0.19677400 -0.15806800 0.12355100
v 0.12293400 -0.17651800 0.09587100
v 0.12293400 -0.16037900 0.09587100
v -0.27147900 -0.16037900 0.12355100
v 0.19677400 -0.17882800 0.12355100
v -0.27147900 -0.17651800 0.09818000
v -0.27147900 -0.17651800 0.12355100
v -0.27147900 -0.16037900 0.09818000
v 0.19677400 -0.17882800 0.09818000
v 0.19677400 -0.15806800 0.09818000
v 0.12293400 -0.15806800 0.09818000
v 0.12293400 -0.17882800 0.09818000
v 0.19677400 -0.16037900 0.09587100
v 0.19677400 0.17870100 0.12355100
v 0.12293400 0.16025500 0.09587100
v -0.27147900 0.16025500 0.09818000
v 0.19677400 0.16025500 0.12355100
v -0.27147900 0.17639500 0.12355100
v 0.19677400 0.17870100 0.09818000
v -0.27147900 0.17639500 0.09818000
v -0.27147900 0.16025500 0.12355100
v 0.19677400 0.16025500 0.09587100
v 0.12293400 0.17639500 0.09587100
v 0.12293400 0.17870100 0.09818000
v -0.29223700 -0.17421400 -0.08174200
v -0.27147900 -0.16729300 0.00359000
v -0.27147900 -0.17652100 0.00359000
v -0.28992700 -0.17190700 0.05204500
v -0.30146600 -0.15114900 -0.06559500
v -0.27147900 -0.14884200 -0.06559500
v -0.27378900 -0.14884200 0.05204500
v -0.30146600 -0.17882800 -0.03560500
v -0.27147900 -0.17882800 -0.08174200
v -0.30146600 -0.15114900 -0.03560500
v -0.27378900 -0.17190700 0.05204500
v -0.30146600 -0.17882800 -0.06559500
v -0.27147900 -0.17882800 -0.00333700
v -0.29223700 -0.14884200 -0.06559500
v -0.28992700 -0.16729300 0.05204500
v -0.29454600 -0.14191000 -0.08403900
v -0.27378700 0.14869600 0.05204500
v -0.27148000 0.14869600 -0.06098100
v -0.29454300 0.14176500 0.05204500
v -0.27148400 -0.14884200 -0.08635500
v -0.29454300 0.14176500 -0.08403900
v -0.29454600 -0.14191000 0.05204500
v -0.27148000 0.14869600 -0.08635500
v -0.29223800 0.14869600 -0.08635500
v -0.29223600 -0.14884200 -0.08635500
v -0.27148400 -0.14884200 -0.06098100
v 0.19677400 -0.15576200 -0.02407900
v -0.27147900 -0.15806800 -0.06559500
v 0.19677400 -0.15806800 -0.06559500
v -0.27147900 -0.15806800 -0.02407900
v 0.19677400 -0.14884200 -0.06559500
v -0.27147900 -0.14884200 -0.05867000
v 0.19677400 -0.15806800 -0.02407900
v -0.27147900 -0.15576200 -0.02407900
v 0.19677400 -0.14884200 -0.05867000
v -0.27147900 0.17639800 0.00359400
v -0.29223700 0.14871800 -0.08404900
v -0.29223700 0.15102500 -0.08404900
v -0.28992700 0.16716900 0.05204500
v -0.30146600 0.17870500 -0.06558500
v -0.27147900 0.14871800 -0.08404900
v -0.27378900 0.14871800 0.05204500
v -0.27147900 0.17870500 -0.08173100
v -0.30146600 0.15102500 -0.03559800
v -0.27378900 0.17178100 0.05204500
v -0.30146600 0.17870500 -0.03559800
v -0.29223700 0.17870500 -0.00101500
v -0.29223700 0.17870500 -0.08173100
v -0.30146600 0.15102500 -0.06558500
v -0.27147900 -0.14884200 -0.08635500
v 0.19677400 -0.07502800 -0.06559900
v 0.19677400 -0.14422500 -0.06098200
v -0.27147900 -0.07502800 -0.06559900
v 0.19677400 -0.07502800 -0.08404500
v -0.27147900 -0.14884200 -0.06098500
v 0.19677400 -0.14884200 -0.08635200
v -0.27147900 -0.07502800 -0.08404800
v -0.00852200 -0.13960800 -0.09096300
v 0.19677400 -0.14884200 -0.06098200
v -0.03162300 -0.14884200 -0.09096300
v 0.14369700 -0.13499100 -0.08866200
v -0.27147900 -0.12806900 -0.08635500
v -0.27147900 -0.14422500 -0.06098500
v -0.03161900 0.13948500 -0.09096900
v 0.19677400 0.14179800 -0.06559500
v 0.19677400 -0.07502800 -0.06559500
v -0.27147000 0.14179800 -0.06559500
v -0.27147000 -0.07502800 -0.08404700
v 0.19677400 -0.02657300 -0.09096900
v -0.27147000 -0.07502800 -0.06559500
v -0.27147000 0.14179800 -0.08635400
v 0.19677400 0.14179800 -0.08635100
v 0.19677400 -0.07502800 -0.08404700
v 0.19677400 0.02646600 -0.09096900
v 0.14369800 0.14179800 -0.08866100
v -0.00856400 0.14179800 -0.09096900
v 0.18980800 -0.02657300 -0.09096900
v -0.27147000 0.12791800 -0.08635400
v 0.19677000 -0.16037800 0.00129100
v -0.27147900 -0.17421300 -0.08174200
v -0.27147900 -0.16729800 0.00360500
v 0.19677000 -0.18113000 -0.02408100
v 0.17600700 -0.15806800 -0.07251000
v -0.27147900 -0.15806800 -0.06559300
v 0.19677000 -0.17882500 -0.08174200
v -0.27147900 -0.17882800 -0.00332100
v -0.27147900 -0.15806800 -0.01023800
v 0.19677000 -0.17651800 0.00360500
v 0.19677000 -0.15806800 -0.01023800
v -0.27147900 -0.16037800 0.00129100
v -0.27147900 -0.17651800 0.00360500
v 0.12293000 -0.18113000 -0.03792400
v 0.19677000 -0.17421300 -0.08174200
v 0.19677000 -0.15806800 -0.06559300
v 0.19677000 -0.17882500 -0.00332100
v 0.19677000 -0.16729800 0.00360500
v 0.19677400 0.15794500 -0.06558500
v -0.03160900 0.14179800 -0.09096900
v -0.27145100 0.14179800 -0.08635300
v 0.19677400 0.15563600 -0.02638200
v -0.27145100 0.15794500 -0.02638200
v -0.03160900 0.15563600 -0.09096900
v 0.19677400 0.14179800 -0.06328400
v -0.27145100 0.14179800 -0.06328400
v -0.27145100 0.15794500 -0.06559200
v 0.19677400 0.14179800 -0.08635300
v 0.16675400 0.15794500 -0.07712300
v 0.19677400 0.15794500 -0.02638200
v -0.27145100 0.15563600 -0.02638200
v -0.27145100 0.15102200 -0.08404000
v 0.19677400 0.14872100 -0.08635300
v 0.19677000 0.16717500 0.00360500
v -0.27147900 0.17408900 -0.08174200
v -0.27147900 0.17870400 -0.08174200
v 0.19677000 0.17409100 -0.08174200
v -0.27147900 0.15794500 -0.06559300
v -0.27147900 0.17870400 -0.00101500
v 0.19677000 0.18101200 -0.01023800
v 0.17600700 0.15794500 -0.07251000
v -0.27147900 0.16025500 0.00129100
v 0.19677000 0.15794500 -0.01023800
v 0.19677000 0.17870200 -0.08174200
v 0.19677000 0.17639700 0.00360500
v -0.27147900 0.15794500 -0.01023800
v -0.27147900 0.17639700 0.00360500
v 0.12293000 0.18101200 -0.03792400
v 0.19677000 0.16025500 0.00129100
v 0.19677000 0.15794500 -0.06559300
v -0.27147900 0.16717300 0.00360500
v 0.16676800 -0.14884200 -0.07482500
v -0.03158600 -0.15576200 -0.09096900
v -0.03158600 -0.14884200 -0.09096900
v -0.03158600 -0.14884200 -0.06559500
v 0.17601400 -0.15806800 -0.06559500
v -0.03158600 -0.15345500 -0.06559500
v 0.16676800 -0.15576200 -0.07712900
f 12 8 14
f 3 2 4
f 2 3 5
f 4 2 5
f 3 4 6
f 6 4 7
f 4 5 7
f 5 3 8
f 3 6 8
f 8 6 9
f 6 7 9
f 7 5 10
f 5 8 10
f 10 1 11
f 7 10 11
f 1 10 12
f 10 8 12
f 9 7 13
f 1 9 13
f 7 11 13
f 11 1 13
f 8 9 14
f 9 1 14
f 1 12 14
f 26 19 27
f 16 17 18
f 18 17 21
f 15 20 21
f 20 18 21
f 16 18 22
f 19 16 22
f 20 15 22
f 18 20 22
f 15 21 23
f 21 17 23
f 15 23 24
f 22 15 25
f 19 22 25
f 17 16 26
f 16 19 26
f 23 17 26
f 23 26 27
f 15 24 27
f 24 23 27
f 25 15 27
f 19 25 27
f 32 38 40
f 28 31 33
f 32 28 33
f 28 32 34
f 31 28 35
f 28 34 35
f 31 35 36
f 34 30 37
f 35 34 37
f 31 29 38
f 32 33 38
f 33 31 38
f 30 29 39
f 29 31 39
f 31 36 39
f 36 35 39
f 37 30 39
f 35 37 39
f 29 30 40
f 30 34 40
f 34 32 40
f 38 29 40
f 50 49 53
f 41 44 45
f 43 42 46
f 44 46 47
f 45 44 47
f 43 46 48
f 46 44 48
f 41 45 49
f 41 49 50
f 44 41 51
f 43 48 51
f 48 44 51
f 41 50 51
f 50 43 51
f 46 42 52
f 47 46 52
f 45 47 52
f 42 49 52
f 49 45 52
f 42 43 53
f 49 42 53
f 43 50 53
f 59 63 64
f 56 55 57
f 57 54 58
f 54 57 59
f 55 56 60
f 56 58 60
f 56 57 61
f 57 58 61
f 58 56 61
f 57 55 62
f 59 57 62
f 59 62 63
f 55 60 63
f 62 55 63
f 63 60 64
f 58 54 64
f 54 59 64
f 60 58 64
f 74 68 79
f 66 67 70
f 67 66 71
f 66 70 71
f 65 70 73
f 70 67 73
f 72 68 74
f 69 72 74
f 67 71 75
f 71 68 75
f 69 65 76
f 72 69 76
f 65 73 76
f 73 72 76
f 68 72 77
f 73 67 77
f 72 73 77
f 67 75 77
f 75 68 77
f 65 69 78
f 70 65 78
f 71 70 78
f 69 74 78
f 74 71 78
f 68 71 79
f 71 74 79
f 71 84 90
f 82 81 71
f 71 81 83
f 80 83 85
f 83 80 86
f 71 83 86
f 81 82 87
f 82 84 87
f 83 81 88
f 80 85 88
f 85 83 88
f 81 87 88
f 87 84 88
f 84 71 89
f 86 80 89
f 71 86 89
f 80 88 89
f 88 84 89
f 82 71 90
f 84 82 90
f 95 96 99
f 92 70 93
f 70 92 94
f 92 93 94
f 93 70 95
f 91 93 95
f 70 94 96
f 95 70 96
f 93 91 97
f 91 94 97
f 94 93 97
f 94 91 98
f 91 96 98
f 96 94 98
f 91 95 99
f 96 91 99
f 101 108 113
f 102 101 104
f 101 102 105
f 101 105 106
f 105 100 106
f 105 102 107
f 100 105 107
f 101 106 108
f 106 103 108
f 103 106 109
f 106 100 109
f 107 104 110
f 108 103 110
f 104 108 110
f 100 107 111
f 109 100 111
f 103 109 111
f 107 110 111
f 110 103 111
f 102 104 112
f 104 107 112
f 107 102 112
f 104 101 113
f 108 104 113
f 117 119 127
f 116 115 117
f 115 116 118
f 117 115 118
f 117 114 119
f 118 116 120
f 119 114 120
f 114 117 121
f 117 118 121
f 121 118 122
f 116 119 123
f 120 116 123
f 119 120 123
f 120 114 124
f 124 122 125
f 118 120 125
f 122 118 125
f 120 124 125
f 114 121 126
f 121 122 126
f 124 114 126
f 122 124 126
f 116 117 127
f 119 116 127
f 132 135 142
f 130 129 131
f 129 130 133
f 130 131 134
f 131 132 134
f 132 130 134
f 131 129 135
f 132 131 135
f 129 133 136
f 135 129 136
f 130 132 137
f 133 130 137
f 132 133 137
f 133 128 138
f 136 133 138
f 136 138 139
f 135 136 139
f 135 139 140
f 128 135 140
f 138 128 140
f 139 138 140
f 132 128 141
f 133 132 141
f 128 133 141
f 128 132 142
f 135 128 142
f 145 152 160
f 144 73 145
f 144 145 148
f 147 144 148
f 73 144 149
f 143 146 149
f 145 73 150
f 147 148 151
f 148 145 151
f 146 143 152
f 143 149 153
f 151 143 153
f 147 151 153
f 145 143 154
f 143 151 154
f 151 145 154
f 145 150 155
f 152 145 155
f 150 152 155
f 73 149 156
f 149 146 156
f 150 73 156
f 146 150 156
f 144 147 157
f 149 144 157
f 153 149 157
f 153 157 158
f 147 153 158
f 157 147 158
f 150 146 159
f 146 152 159
f 152 150 159
f 143 145 160
f 152 143 160
f 166 171 175
f 162 163 166
f 163 162 167
f 161 164 167
f 165 163 168
f 163 167 168
f 167 164 168
f 165 161 169
f 163 165 169
f 162 166 170
f 167 162 170
f 161 167 170
f 169 161 171
f 166 169 171
f 164 161 172
f 161 165 172
f 165 164 172
f 164 165 173
f 168 164 173
f 165 168 173
f 166 163 174
f 163 169 174
f 169 166 174
f 170 166 175
f 161 170 175
f 171 161 175
f 184 191 193
f 177 178 179
f 178 177 180
f 178 180 181
f 176 179 182
f 177 179 183
f 180 177 183
f 181 180 184
f 179 176 185
f 180 183 185
f 179 178 186
f 182 179 186
f 176 182 187
f 182 181 187
f 184 180 188
f 180 185 188
f 185 184 188
f 181 184 189
f 176 187 189
f 187 181 189
f 178 181 190
f 181 182 190
f 186 178 190
f 182 186 190
f 185 176 191
f 184 185 191
f 183 179 192
f 179 185 192
f 185 183 192
f 176 189 193
f 189 184 193
f 191 176 193
f 198 195 200
f 196 195 197
f 194 196 197
f 194 197 198
f 195 198 199
f 197 195 199
f 198 197 199
f 196 194 200
f 195 196 200
f 194 198 200

