# https://github.com/mikedh/trimesh

o convex_0
v 0.19210000 -0.15049000 -0.08430700
v 0.21883000 0.19916800 0.17183700
v 0.21883000 0.19916800 -0.09323200
v 0.21883000 -0.19954900 0.17183700
v 0.19210000 0.17684300 0.12502900
v 0.21883000 -0.19954900 -0.09323200
v 0.19655600 -0.19954900 0.17183700
v 0.19655600 0.19916800 -0.09323200
v 0.19655600 0.19916800 0.17183700
v 0.19655600 -0.19954900 -0.09323200
v 0.19210000 -0.17722500 0.12502900
v 0.19210000 0.17910700 -0.08207500
v 0.19210000 -0.17948800 -0.08207500
v 0.19210000 0.02541200 -0.09097500
v 0.19210000 0.18133200 -0.03308800
v -0.29348500 -0.07926600 0.00700400
v -0.27121400 0.17689300 0.12283200
v -0.29348500 0.17689300 0.12283200
v -0.27344200 0.17019800 0.00700400
v -0.27567000 -0.07926600 0.11614300
v -0.29571500 0.14344400 0.00700400
v -0.29348500 -0.07926600 0.11614300
v -0.27567000 -0.07926600 0.00700400
v -0.29571500 0.12120300 0.11614300
v -0.28903100 0.17017300 0.00700400
v -0.27121400 0.16127200 0.09830800
v -0.29348500 0.17689300 0.09830800
v -0.27344200 0.13900600 0.00700400
v -0.27121400 0.16127200 0.12283200
v -0.29571500 0.14344400 0.11614300
v -0.29571500 0.12120300 0.00700400
v 0.12080700 -0.15945600 0.12506000
v 0.12080700 -0.17727400 0.09610300
v -0.27121300 -0.17727400 0.09833100
v 0.19210000 -0.17727400 0.12506000
v 0.19210000 -0.15945600 0.09610300
v -0.27121300 -0.15945600 0.12283200
v -0.27121300 -0.17727400 0.12283200
v -0.27121300 -0.15945600 0.09833100
v 0.19210000 -0.17727400 0.09610300
v 0.19210000 -0.15945600 0.12506000
v 0.19210000 0.17689300 0.12506000
v 0.12080700 0.15907300 0.09610300
v -0.27121300 0.16130300 0.09833100
v 0.12080700 0.15907300 0.12506000
v -0.27121300 0.17689300 0.09833100
v -0.27121300 0.17689300 0.12283200
v 0.19210000 0.17689300 0.09610300
v -0.27121300 0.16130300 0.12283200
v 0.19210000 0.15907300 0.09610300
v 0.19210000 0.15907300 0.12506000
v -0.28902800 -0.16835900 0.00699500
v -0.29348400 -0.17950200 -0.08207900
v -0.29348400 -0.15054800 -0.08431300
v -0.27121300 -0.17950200 -0.08207900
v -0.27344200 -0.14609000 0.00699500
v -0.27121300 -0.14609000 -0.08431300
v -0.30239800 -0.15054800 -0.03532500
v -0.27121300 -0.17727100 0.00253500
v -0.30239800 -0.17950200 -0.03532500
v -0.30239800 -0.15054800 -0.06649100
v -0.29348400 -0.14609000 -0.08431300
v -0.29348400 -0.15723300 0.00253500
v -0.29348400 -0.17727100 0.00253500
v -0.30239800 -0.17950200 -0.06649100
v -0.27121300 -0.17950200 -0.01527800
v -0.29348500 -0.14609000 -0.08207900
v -0.27567100 -0.05030900 0.00699500
v -0.29348500 -0.05030900 0.00699500
v -0.29348500 -0.05030900 -0.08431300
v -0.27121800 -0.14609000 -0.08431300
v -0.27344300 -0.14609000 0.00699500
v -0.27121800 -0.05030900 -0.08431300
v -0.29571500 -0.14161800 0.00699500
v -0.29571500 -0.12158200 -0.06871700
v -0.27121800 -0.05030900 -0.06649100
v -0.29348500 -0.14609000 -0.08431300
v -0.27121800 -0.14609000 -0.06204000
v -0.03289000 -0.14162600 -0.09100200
v 0.19210000 -0.05031800 -0.06650500
v 0.10965100 -0.05700300 -0.06650300
v 0.19210000 -0.14162600 -0.06650500
v -0.27121300 -0.14162600 -0.06650300
v -0.27121300 -0.05031800 -0.08432100
v 0.19210000 -0.05031800 -0.08431900
v -0.27121300 -0.05031800 -0.06650300
v -0.27121300 -0.14162600 -0.08432100
v 0.19210000 -0.14162600 -0.08431900
v 0.14307500 -0.14162600 -0.08877700
v -0.01062200 -0.13939100 -0.09100200
v -0.27344200 0.06551000 -0.08432200
v -0.27567000 0.11894600 0.00699500
v -0.27121500 0.11897900 -0.06649900
v -0.29348800 0.11894600 -0.08430400
v -0.29348800 -0.05029200 0.00699500
v -0.27121300 -0.05029200 -0.08430400
v -0.29348800 -0.05029200 -0.08430400
v -0.27567000 -0.05029200 0.00699500
v -0.29348800 0.11894600 0.00699500
v -0.27121500 0.11897900 -0.08432200
v -0.27121300 -0.05029200 -0.06649000
v -0.27344200 0.17020200 0.00699500
v -0.29348400 0.11897900 -0.08431300
v -0.29571000 0.12121600 -0.06871700
v -0.30239800 0.17912100 -0.06649100
v -0.27121300 0.17912100 -0.08207900
v -0.27567000 0.11897900 0.00699500
v -0.29571000 0.12121600 0.00699500
v -0.27121300 0.11897900 -0.08431300
v -0.29348400 0.17688400 0.00253500
v -0.27121300 0.17912100 -0.00414200
v -0.30239800 0.15015700 -0.03532500
v -0.29348400 0.17912100 -0.08207900
v -0.30239800 0.17912100 -0.03532500
v -0.27121300 0.16130100 0.00253500
v -0.30239800 0.15015700 -0.06649100
v -0.29571000 0.14349200 0.00699500
v 0.14529700 -0.02132300 -0.08877700
v 0.19210000 0.13455300 -0.06650500
v 0.19210000 -0.05029100 -0.06650500
v -0.27121300 0.13455300 -0.06650300
v -0.27121300 -0.05029100 -0.08432100
v -0.27121300 0.13455300 -0.08432100
v -0.27121300 -0.05029100 -0.06650300
v 0.19210000 0.13455300 -0.08432100
v 0.19210000 -0.05029100 -0.08432100
v 0.19210000 0.02543100 -0.08877700
v 0.19210000 -0.02579200 -0.08877700
v 0.14529700 0.02098000 -0.08877700
v -0.27566900 -0.07927500 0.11613200
v -0.29348700 -0.17727400 0.09830800
v -0.29571500 -0.14163400 0.00700400
v -0.27344400 -0.17057800 0.00700400
v -0.27121600 -0.17727400 0.12283200
v -0.29348500 -0.07927500 0.00700400
v -0.29348500 -0.07927500 0.11613200
v -0.27566900 -0.07927500 0.00700400
v -0.29348700 -0.17727400 0.12283200
v -0.28903100 -0.17057800 0.00700400
v -0.29571500 -0.12159300 0.11613200
v -0.27121600 -0.15944900 0.12283200
v -0.27344100 -0.13939900 0.00700400
v -0.27121600 -0.17727400 0.09830800
v -0.29571500 -0.12159300 0.00700400
v -0.29571500 -0.14163400 0.11613200
v 0.19210000 0.15907300 -0.05759500
v -0.27121300 0.17466200 -0.08209500
v -0.27121300 0.17912100 -0.08209500
v -0.27121300 0.15907300 -0.05759500
v -0.27121300 0.17912100 -0.05759500
v 0.19210000 0.17912100 -0.08209500
v 0.19210000 0.17912100 -0.05759500
v 0.17649900 0.15907300 -0.07095500
v -0.27121300 0.15907300 -0.06650400
v 0.19210000 0.17466200 -0.08209500
v 0.19210000 -0.15945500 0.00031200
v -0.27121300 -0.17950200 -0.08208700
v -0.27121300 -0.15722700 -0.06649600
v 0.19210000 -0.17950200 -0.08208700
v 0.17649900 -0.15722700 -0.07094500
v 0.19210000 -0.17950200 -0.00637300
v -0.27121300 -0.15945500 0.00031200
v -0.27121300 -0.17727300 0.00254100
v 0.19210000 -0.15722700 -0.01527800
v 0.19210000 -0.17727300 0.00254100
v -0.27121300 -0.17504300 -0.08208700
v -0.27121300 -0.15722700 -0.01527800
v -0.27121300 -0.16168600 0.00254100
v 0.19210000 -0.17504300 -0.08208700
v 0.19210000 -0.16168600 0.00254100
v 0.19210000 -0.15722700 -0.06649600
v 0.19210000 -0.15499900 -0.02863600
v -0.03289000 -0.15499900 -0.09100500
v -0.03289000 -0.14163500 -0.09100500
v -0.27121300 -0.15499900 -0.02863600
v -0.27121300 -0.14163500 -0.06427100
v 0.19210000 -0.14163500 -0.06427100
v 0.16534300 -0.15722700 -0.07763500
v -0.27121300 -0.15722700 -0.06649900
v -0.27121300 -0.14163500 -0.08432000
v 0.19210000 -0.14163500 -0.08432000
v 0.19210000 -0.15722700 -0.02863600
v -0.27121300 -0.15722700 -0.02863600
v -0.27121300 -0.15054200 -0.08432000
v 0.19210000 -0.15054200 -0.08432000
v 0.19210000 -0.15722700 -0.06649300
v -0.01062200 -0.15499900 -0.09100500
v 0.19210000 0.16130500 0.00254900
v -0.27121300 0.15239100 -0.05759300
v -0.27121300 0.15239100 -0.04644900
v -0.27121300 0.17912000 -0.05759300
v 0.19210000 0.15239100 -0.05759300
v 0.19210000 0.17911700 -0.05759300
v -0.27121300 0.17688900 0.00254900
v 0.19210000 0.17911700 -0.00413900
v -0.27121300 0.16130300 0.00254900
v 0.12080700 0.18134800 -0.03308500
v -0.27121300 0.17912000 -0.00413900
v 0.19210000 0.15684700 -0.01750800
v 0.19210000 0.17689200 0.00254900
v -0.27121300 0.15907500 -0.00413900
v 0.19210000 0.15239100 -0.04644900
v 0.19210000 0.18134800 -0.03753600
v 0.19210000 0.15907500 -0.00413900
v 0.19210000 0.15016100 -0.05759300
v -0.03293500 0.14125800 -0.09100500
v -0.03293500 0.15461700 -0.09100500
v -0.27121300 0.15907300 -0.05759300
v -0.27121300 0.13457100 -0.06650500
v 0.19210000 0.13457100 -0.08432000
v 0.17649900 0.15907300 -0.07096300
v -0.27121300 0.13457100 -0.08432000
v 0.19210000 0.13457100 -0.06650500
v -0.27121300 0.15016100 -0.08432000
v 0.19210000 0.15907300 -0.05759300
v 0.19210000 0.15016100 -0.08432000
v -0.27121300 0.15016100 -0.05759300
v -0.27121300 0.15907300 -0.06650500
v 0.14307500 0.13457100 -0.08877400
v -0.01062200 0.15461700 -0.09100500
v -0.05515700 0.13457100 -0.08877400
f 8 12 15
f 3 2 4
f 3 4 6
f 6 4 7
f 4 2 7
f 2 3 8
f 3 6 8
f 7 2 9
f 5 7 9
f 2 8 9
f 6 7 10
f 8 6 10
f 5 1 11
f 7 5 11
f 1 5 12
f 10 7 13
f 1 10 13
f 11 1 13
f 7 11 13
f 10 1 14
f 8 10 14
f 1 12 14
f 12 8 14
f 5 9 15
f 9 8 15
f 12 5 15
f 24 21 31
f 19 16 21
f 16 20 22
f 16 19 23
f 20 16 23
f 16 22 24
f 22 18 24
f 19 21 25
f 19 17 26
f 20 23 26
f 18 17 27
f 17 19 27
f 21 18 27
f 19 25 27
f 25 21 27
f 23 19 28
f 19 26 28
f 26 23 28
f 17 18 29
f 22 20 29
f 18 22 29
f 26 17 29
f 20 26 29
f 18 21 30
f 21 24 30
f 24 18 30
f 21 16 31
f 16 24 31
f 35 36 41
f 34 33 35
f 32 36 37
f 34 35 38
f 35 32 38
f 37 34 38
f 32 37 38
f 33 34 39
f 36 33 39
f 34 37 39
f 37 36 39
f 35 33 40
f 36 35 40
f 33 36 40
f 32 35 41
f 36 32 41
f 50 42 51
f 44 43 45
f 43 44 46
f 46 44 47
f 45 42 47
f 42 46 47
f 46 42 48
f 43 46 48
f 44 45 49
f 47 44 49
f 45 47 49
f 45 43 50
f 43 48 50
f 48 42 50
f 42 45 51
f 45 50 51
f 59 64 66
f 53 54 55
f 55 54 57
f 56 52 59
f 57 56 59
f 55 57 59
f 53 55 60
f 60 58 61
f 57 54 62
f 56 57 62
f 58 56 62
f 54 61 62
f 61 58 62
f 52 56 63
f 56 58 63
f 58 60 63
f 63 60 64
f 59 52 64
f 52 63 64
f 54 53 65
f 53 60 65
f 61 54 65
f 60 61 65
f 55 59 66
f 60 55 66
f 64 60 66
f 71 76 78
f 69 68 70
f 68 69 72
f 67 71 72
f 70 68 73
f 71 70 73
f 67 72 74
f 72 69 74
f 69 70 75
f 74 69 75
f 68 72 76
f 73 68 76
f 71 73 76
f 71 67 77
f 70 71 77
f 67 74 77
f 75 70 77
f 74 75 77
f 72 71 78
f 76 72 78
f 85 89 90
f 80 81 82
f 79 82 83
f 82 81 83
f 80 82 85
f 84 80 85
f 81 80 86
f 83 81 86
f 84 83 86
f 80 84 86
f 79 83 87
f 83 84 87
f 84 79 87
f 82 79 88
f 85 82 88
f 85 88 89
f 88 79 89
f 89 79 90
f 79 84 90
f 84 85 90
f 98 96 101
f 94 91 97
f 95 94 97
f 96 95 97
f 91 96 97
f 92 95 98
f 95 96 98
f 92 93 99
f 93 94 99
f 94 95 99
f 95 92 99
f 94 93 100
f 91 94 100
f 96 91 100
f 93 96 100
f 93 92 101
f 96 93 101
f 92 98 101
f 110 114 117
f 107 102 108
f 104 103 108
f 103 107 108
f 103 106 109
f 107 103 109
f 106 105 111
f 109 106 111
f 110 102 111
f 104 108 112
f 103 105 113
f 105 106 113
f 106 103 113
f 111 105 114
f 110 111 114
f 105 112 114
f 112 108 114
f 102 107 115
f 107 109 115
f 111 102 115
f 109 111 115
f 103 104 116
f 105 103 116
f 104 112 116
f 112 105 116
f 108 102 117
f 102 110 117
f 114 108 117
f 123 127 129
f 120 119 121
f 121 119 123
f 118 122 123
f 122 121 123
f 120 121 124
f 121 122 124
f 122 120 124
f 119 120 125
f 123 119 125
f 120 122 126
f 125 120 126
f 125 126 127
f 123 125 127
f 122 118 128
f 126 122 128
f 127 126 128
f 118 127 128
f 118 123 129
f 127 118 129
f 138 140 145
f 133 132 135
f 130 135 136
f 135 130 137
f 133 135 137
f 132 131 138
f 131 134 138
f 131 132 139
f 132 133 139
f 133 131 139
f 136 135 140
f 138 136 140
f 130 136 141
f 137 130 141
f 138 134 141
f 136 138 141
f 133 137 142
f 137 141 142
f 142 141 143
f 131 133 143
f 134 131 143
f 141 134 143
f 133 142 143
f 135 132 144
f 132 140 144
f 140 135 144
f 132 138 145
f 140 132 145
f 146 153 155
f 148 147 149
f 149 146 150
f 148 149 150
f 148 150 151
f 147 148 151
f 146 151 152
f 150 146 152
f 151 150 152
f 146 149 153
f 149 147 154
f 147 153 154
f 153 149 154
f 147 151 155
f 151 146 155
f 153 147 155
f 169 160 171
f 157 66 158
f 66 157 159
f 159 156 161
f 66 159 161
f 158 66 162
f 66 161 163
f 162 66 163
f 156 159 164
f 160 158 164
f 162 156 164
f 161 156 165
f 163 161 165
f 157 158 166
f 159 157 166
f 158 160 166
f 158 162 167
f 164 158 167
f 162 164 167
f 156 162 168
f 162 163 168
f 163 165 168
f 164 159 169
f 159 166 169
f 166 160 169
f 165 156 170
f 156 168 170
f 168 165 170
f 160 164 171
f 164 169 171
f 181 185 187
f 175 172 176
f 176 172 177
f 174 176 177
f 175 176 179
f 173 178 179
f 174 173 180
f 176 174 180
f 179 176 180
f 177 172 181
f 174 177 181
f 172 175 182
f 179 178 182
f 181 172 182
f 179 182 183
f 175 179 183
f 182 175 183
f 173 179 184
f 180 173 184
f 179 180 184
f 181 182 185
f 185 182 186
f 182 178 186
f 178 185 186
f 173 174 187
f 178 173 187
f 174 181 187
f 185 178 187
f 201 199 204
f 189 190 191
f 190 189 192
f 189 191 192
f 188 192 193
f 192 191 193
f 191 190 194
f 188 193 195
f 188 194 196
f 194 190 196
f 195 197 198
f 191 194 198
f 197 191 198
f 192 188 199
f 194 188 200
f 188 195 200
f 195 198 200
f 198 194 200
f 196 190 201
f 190 199 201
f 190 192 202
f 192 199 202
f 199 190 202
f 193 191 203
f 195 193 203
f 191 197 203
f 197 195 203
f 188 196 204
f 199 188 204
f 196 201 204
f 219 212 221
f 207 206 212
f 209 208 212
f 210 209 212
f 205 209 213
f 210 205 213
f 209 210 213
f 207 212 214
f 212 208 214
f 208 205 215
f 205 210 215
f 211 208 215
f 211 215 216
f 215 210 216
f 205 208 217
f 209 205 217
f 208 209 217
f 211 207 218
f 208 211 218
f 207 214 218
f 214 208 218
f 210 212 219
f 216 210 219
f 216 219 220
f 206 207 220
f 207 211 220
f 211 216 220
f 219 206 220
f 212 206 221
f 206 219 221

