# https://github.com/mikedh/trimesh

o Object-1_Mesh-1.006
v 0.00311000 -0.01727100 0.00003200
v 0.00311000 -0.01727100 0.00003200
v 0.00311000 -0.01727100 0.00003200
v 0.00311000 -0.01727100 0.00003200
v -0.00637100 -0.01590800 0.00003200
v -0.00637100 -0.01590800 0.00003200
v -0.00637100 -0.01590800 0.00003200
v -0.00637100 -0.01590800 0.00003200
v 0.01182400 -0.01329200 0.00003200
v 0.01182400 -0.01329200 0.00003200
v 0.01182400 -0.01329200 0.00003200
v 0.01182400 -0.01329200 0.00003200
v -0.01361000 -0.00963500 0.00003200
v -0.01361000 -0.00963500 0.00003200
v -0.01361000 -0.00963500 0.00003200
v -0.01361000 -0.00963500 0.00003200
v 0.01700200 -0.00523400 0.00003200
v 0.01700200 -0.00523400 0.00003200
v 0.01700200 -0.00523400 0.00003200
v 0.01700200 -0.00523400 0.00003200
v -0.01630900 -0.00044400 0.00003200
v -0.01630900 -0.00044400 0.00003200
v -0.01630900 -0.00044400 0.00003200
v -0.01630900 -0.00044400 0.00003200
v 0.01700200 0.00434500 0.00003200
v 0.01700200 0.00434500 0.00003200
v 0.01700200 0.00434500 0.00003200
v 0.01700200 0.00434500 0.00003200
v -0.01361000 0.00874700 0.00003200
v -0.01361000 0.00874700 0.00003200
v -0.01361000 0.00874700 0.00003200
v -0.01361000 0.00874700 0.00003200
v 0.01182400 0.01240400 0.00003200
v 0.01182400 0.01240400 0.00003200
v 0.01182400 0.01240400 0.00003200
v 0.01182400 0.01240400 0.00003200
v -0.00637100 0.01502000 0.00003200
v -0.00637100 0.01502000 0.00003200
v -0.00637100 0.01502000 0.00003200
v -0.00637100 0.01502000 0.00003200
v 0.00311000 0.01638300 0.00003200
v 0.00311000 0.01638300 0.00003200
v 0.00311000 0.01638300 0.00003200
v 0.00311000 0.01638300 0.00003200
v -0.00176400 -0.01751900 -0.00003500
v -0.00176400 -0.01751900 -0.00003500
v -0.00176400 -0.01751900 -0.00003500
v -0.00176400 -0.01751900 -0.00003500
v -0.00176400 -0.01751900 -0.00003500
v 0.00785700 -0.01613500 -0.00003500
v 0.00785700 -0.01613500 -0.00003500
v 0.00785700 -0.01613500 -0.00003500
v 0.00785700 -0.01613500 -0.00003500
v 0.00785700 -0.01613500 -0.00003500
v -0.01060500 -0.01348100 -0.00003500
v -0.01060500 -0.01348100 -0.00003500
v -0.01060500 -0.01348100 -0.00003500
v -0.01060500 -0.01348100 -0.00003500
v -0.01060500 -0.01348100 -0.00003500
v 0.01520300 -0.00977000 -0.00003500
v 0.01520300 -0.00977000 -0.00003500
v 0.01520300 -0.00977000 -0.00003500
v 0.01520300 -0.00977000 -0.00003500
v 0.01520300 -0.00977000 -0.00003500
v -0.01586000 -0.00530400 -0.00003500
v -0.01586000 -0.00530400 -0.00003500
v -0.01586000 -0.00530400 -0.00003500
v -0.01586000 -0.00530400 -0.00003500
v -0.01586000 -0.00530400 -0.00003500
v 0.01794100 -0.00044400 -0.00003500
v 0.01794100 -0.00044400 -0.00003500
v 0.01794100 -0.00044400 -0.00003500
v 0.01794100 -0.00044400 -0.00003500
v 0.01794100 -0.00044400 -0.00003500
v -0.01586000 0.00441600 -0.00003500
v -0.01586000 0.00441600 -0.00003500
v -0.01586000 0.00441600 -0.00003500
v -0.01586000 0.00441600 -0.00003500
v -0.01586000 0.00441600 -0.00003500
v 0.01520300 0.00888200 -0.00003500
v 0.01520300 0.00888200 -0.00003500
v 0.01520300 0.00888200 -0.00003500
v 0.01520300 0.00888200 -0.00003500
v 0.01520300 0.00888200 -0.00003500
v -0.01060500 0.01259300 -0.00003500
v -0.01060500 0.01259300 -0.00003500
v -0.01060500 0.01259300 -0.00003500
v -0.01060500 0.01259300 -0.00003500
v -0.01060500 0.01259300 -0.00003500
v 0.00785700 0.01524700 -0.00003500
v 0.00785700 0.01524700 -0.00003500
v 0.00785700 0.01524700 -0.00003500
v 0.00785700 0.01524700 -0.00003500
v 0.00785700 0.01524700 -0.00003500
v -0.00176400 0.01663000 -0.00003500
v -0.00176400 0.01663000 -0.00003500
v -0.00176400 0.01663000 -0.00003500
v -0.00176400 0.01663000 -0.00003500
v -0.00176400 0.01663000 -0.00003500
v -0.00179000 -0.01770000 -0.00021800
v -0.00179000 -0.01770000 -0.00021800
v -0.00179000 -0.01770000 -0.00021800
v -0.00179000 -0.01770000 -0.00021800
v -0.00179000 -0.01770000 -0.00021800
v 0.00793300 -0.01630200 -0.00021800
v 0.00793300 -0.01630200 -0.00021800
v 0.00793300 -0.01630200 -0.00021800
v 0.00793300 -0.01630200 -0.00021800
v 0.00793300 -0.01630200 -0.00021800
v -0.01072500 -0.01361900 -0.00021800
v -0.01072500 -0.01361900 -0.00021800
v -0.01072500 -0.01361900 -0.00021800
v -0.01072500 -0.01361900 -0.00021800
v -0.01072500 -0.01361900 -0.00021800
v 0.01535700 -0.00986900 -0.00021800
v 0.01535700 -0.00986900 -0.00021800
v 0.01535700 -0.00986900 -0.00021800
v 0.01535700 -0.00986900 -0.00021800
v 0.01535700 -0.00986900 -0.00021800
v -0.01603600 -0.00535600 -0.00021800
v -0.01603600 -0.00535600 -0.00021800
v -0.01603600 -0.00535600 -0.00021800
v -0.01603600 -0.00535600 -0.00021800
v -0.01603600 -0.00535600 -0.00021800
v 0.01812400 -0.00044400 -0.00021800
v 0.01812400 -0.00044400 -0.00021800
v 0.01812400 -0.00044400 -0.00021800
v 0.01812400 -0.00044400 -0.00021800
v 0.01812400 -0.00044400 -0.00021800
v -0.01603600 0.00446700 -0.00021800
v -0.01603600 0.00446700 -0.00021800
v -0.01603600 0.00446700 -0.00021800
v -0.01603600 0.00446700 -0.00021800
v -0.01603600 0.00446700 -0.00021800
v 0.01535700 0.00898100 -0.00021800
v 0.01535700 0.00898100 -0.00021800
v 0.01535700 0.00898100 -0.00021800
v 0.01535700 0.00898100 -0.00021800
v 0.01535700 0.00898100 -0.00021800
v -0.01072500 0.01273100 -0.00021800
v -0.01072500 0.01273100 -0.00021800
v -0.01072500 0.01273100 -0.00021800
v -0.01072500 0.01273100 -0.00021800
v -0.01072500 0.01273100 -0.00021800
v 0.00793300 0.01541400 -0.00021800
v 0.00793300 0.01541400 -0.00021800
v 0.00793300 0.01541400 -0.00021800
v 0.00793300 0.01541400 -0.00021800
v 0.00793300 0.01541400 -0.00021800
v -0.00179000 0.01681100 -0.00021800
v -0.00179000 0.01681100 -0.00021800
v -0.00179000 0.01681100 -0.00021800
v -0.00179000 0.01681100 -0.00021800
v -0.00179000 0.01681100 -0.00021800
v 0.00318200 -0.01776600 -0.00046800
v 0.00318200 -0.01776600 -0.00046800
v 0.00318200 -0.01776600 -0.00046800
v 0.00318200 -0.01776600 -0.00046800
v 0.00318200 -0.01776600 -0.00046800
v -0.00657900 -0.01636300 -0.00046800
v -0.00657900 -0.01636300 -0.00046800
v -0.00657900 -0.01636300 -0.00046800
v -0.00657900 -0.01636300 -0.00046800
v -0.00657900 -0.01636300 -0.00046800
v 0.01215100 -0.01367000 -0.00046800
v 0.01215100 -0.01367000 -0.00046800
v 0.01215100 -0.01367000 -0.00046800
v 0.01215100 -0.01367000 -0.00046800
v 0.01215100 -0.01367000 -0.00046800
v -0.01403100 -0.00990500 -0.00046800
v -0.01403100 -0.00990500 -0.00046800
v -0.01403100 -0.00990500 -0.00046800
v -0.01403100 -0.00990500 -0.00046800
v -0.01403100 -0.00990500 -0.00046800
v 0.01748200 -0.00537400 -0.00046800
v 0.01748200 -0.00537400 -0.00046800
v 0.01748200 -0.00537400 -0.00046800
v 0.01748200 -0.00537400 -0.00046800
v 0.01748200 -0.00537400 -0.00046800
v -0.01680900 -0.00044400 -0.00046800
v -0.01680900 -0.00044400 -0.00046800
v -0.01680900 -0.00044400 -0.00046800
v -0.01680900 -0.00044400 -0.00046800
v -0.01680900 -0.00044400 -0.00046800
v 0.01748200 0.00448600 -0.00046800
v 0.01748200 0.00448600 -0.00046800
v 0.01748200 0.00448600 -0.00046800
v 0.01748200 0.00448600 -0.00046800
v 0.01748200 0.00448600 -0.00046800
v -0.01403100 0.00901700 -0.00046800
v -0.01403100 0.00901700 -0.00046800
v -0.01403100 0.00901700 -0.00046800
v -0.01403100 0.00901700 -0.00046800
v -0.01403100 0.00901700 -0.00046800
v -0.01403100 0.00901700 -0.00046800
v -0.01403100 0.00901700 -0.00046800
v 0.01215100 0.01278200 -0.00046800
v 0.01215100 0.01278200 -0.00046800
v 0.01215100 0.01278200 -0.00046800
v 0.01215100 0.01278200 -0.00046800
v 0.01215100 0.01278200 -0.00046800
v -0.00657900 0.01547400 -0.00046800
v -0.00657900 0.01547400 -0.00046800
v -0.00657900 0.01547400 -0.00046800
v -0.00657900 0.01547400 -0.00046800
v -0.00657900 0.01547400 -0.00046800
v -0.00657900 0.01547400 -0.00046800
v -0.00657900 0.01547400 -0.00046800
v -0.00657900 0.01547400 -0.00046800
v -0.00657900 0.01547400 -0.00046800
v -0.00657900 0.01547400 -0.00046800
v -0.00657900 0.01547400 -0.00046800
v 0.00318200 0.01687800 -0.00046800
v 0.00318200 0.01687800 -0.00046800
v 0.00318200 0.01687800 -0.00046800
v 0.00318200 0.01687800 -0.00046800
v 0.00318200 0.01687800 -0.00046800
v 0.00318200 0.01687800 -0.00046800
v -0.02193400 0.03874400 -0.00503500
v -0.02193400 0.03874400 -0.00503500
v -0.02193400 0.03874400 -0.00503500
v -0.02193400 0.03874400 -0.00503500
v -0.02193400 0.03874400 -0.00503500
v -0.02281100 0.03852600 -0.00504400
v -0.02281100 0.03852600 -0.00504400
v -0.02281100 0.03852600 -0.00504400
v -0.02281100 0.03852600 -0.00504400
v -0.02281100 0.03852600 -0.00504400
v -0.02281100 0.03852600 -0.00504400
v -0.03330700 0.06017900 -0.00504400
v -0.03330700 0.06017900 -0.00504400
v -0.03330700 0.06017900 -0.00504400
v -0.03330700 0.06017900 -0.00504400
v -0.03330700 0.06017900 -0.00504400
v -0.03330700 0.06017900 -0.00504400
v -0.02184200 0.03858500 -0.00521800
v -0.02184200 0.03858500 -0.00521800
v -0.02184200 0.03858500 -0.00521800
v -0.02184200 0.03858500 -0.00521800
v -0.02184200 0.03858500 -0.00521800
v -0.03564500 0.05911800 -0.00533300
v -0.03564500 0.05911800 -0.00533300
v -0.03564500 0.05911800 -0.00533300
v -0.03564500 0.05911800 -0.00533300
v -0.03564500 0.05911800 -0.00533300
v -0.03272300 0.06080500 -0.00533300
v -0.03272300 0.06080500 -0.00533300
v -0.03272300 0.06080500 -0.00533300
v -0.03272300 0.06080500 -0.00533300
v -0.03272300 0.06080500 -0.00533300
v -0.03272300 0.06080500 -0.00533300
v -0.03568200 0.05930700 -0.00550500
v -0.03568200 0.05930700 -0.00550500
v -0.03568200 0.05930700 -0.00550500
v -0.03568200 0.05930700 -0.00550500
v -0.03568200 0.05930700 -0.00550500
v -0.03286900 0.06093200 -0.00550500
v -0.03286900 0.06093200 -0.00550500
v -0.03286900 0.06093200 -0.00550500
v -0.03286900 0.06093200 -0.00550500
v -0.03286900 0.06093200 -0.00550500
v -0.02248600 0.03813600 -0.00553700
v -0.02248600 0.03813600 -0.00553700
v -0.02248600 0.03813600 -0.00553700
v -0.02248600 0.03813600 -0.00553700
v -0.03363200 0.06056800 -0.00553700
v -0.03363200 0.06056800 -0.00553700
v -0.03363200 0.06056800 -0.00553700
v -0.03363200 0.06056800 -0.00553700
v -0.01989400 0.04021000 -0.00563800
v -0.01989400 0.04021000 -0.00563800
v -0.01989400 0.04021000 -0.00563800
v -0.01989400 0.04021000 -0.00563800
v -0.01989400 0.04021000 -0.00563800
v -0.01989400 0.04021000 -0.00563800
v -0.03622400 0.05849500 -0.00563800
v -0.03622400 0.05849500 -0.00563800
v -0.03622400 0.05849500 -0.00563800
v -0.03622400 0.05849500 -0.00563800
v -0.03622400 0.05849500 -0.00563800
v -0.03622400 0.05849500 -0.00563800
v -0.01986000 0.03965200 -0.00607100
v -0.01986000 0.03965200 -0.00607100
v -0.01986000 0.03965200 -0.00607100
v -0.01986000 0.03965200 -0.00607100
v -0.03625800 0.05905300 -0.00607100
v -0.03625800 0.05905300 -0.00607100
v -0.03625800 0.05905300 -0.00607100
v -0.03625800 0.05905300 -0.00607100
v -0.02468000 0.03715800 -0.00618900
v -0.02468000 0.03715800 -0.00618900
v -0.02468000 0.03715800 -0.00618900
v -0.02468000 0.03715800 -0.00618900
v -0.02468000 0.03715800 -0.00618900
v -0.01918800 0.04032900 -0.00618900
v -0.01918800 0.04032900 -0.00618900
v -0.01918800 0.04032900 -0.00618900
v -0.01918800 0.04032900 -0.00618900
v -0.01918800 0.04032900 -0.00618900
v -0.02448700 0.03705800 -0.00632900
v -0.02448700 0.03705800 -0.00632900
v -0.02448700 0.03705800 -0.00632900
v -0.02448700 0.03705800 -0.00632900
v -0.02448700 0.03705800 -0.00632900
v -0.01919800 0.04011200 -0.00632900
v -0.01919800 0.04011200 -0.00632900
v -0.01919800 0.04011200 -0.00632900
v -0.01919800 0.04011200 -0.00632900
v -0.01919800 0.04011200 -0.00632900
v -0.00805800 0.01471200 -0.00646800
v -0.00805800 0.01471200 -0.00646800
v -0.00805800 0.01471200 -0.00646800
v -0.00805800 0.01471200 -0.00646800
v -0.00805800 0.01471200 -0.00646800
v -0.02233500 0.03822300 -0.00652100
v -0.02233500 0.03822300 -0.00652100
v -0.02233500 0.03822300 -0.00652100
v -0.02233500 0.03822300 -0.00652100
v -0.00772700 0.01493800 -0.00667700
v -0.00772700 0.01493800 -0.00667700
v -0.00772700 0.01493800 -0.00667700
v -0.00772700 0.01493800 -0.00667700
v -0.00772700 0.01493800 -0.00667700
v -0.02177500 0.03846900 -0.00671800
v -0.02177500 0.03846900 -0.00671800
v -0.02177500 0.03846900 -0.00671800
v -0.02177500 0.03846900 -0.00671800
v -0.02177500 0.03846900 -0.00671800
v -0.00917600 0.01400900 -0.00674200
v -0.00917600 0.01400900 -0.00674200
v -0.00917600 0.01400900 -0.00674200
v -0.00917600 0.01400900 -0.00674200
v -0.00917600 0.01400900 -0.00674200
v -0.00689000 0.01532900 -0.00674300
v -0.00689000 0.01532900 -0.00674300
v -0.00689000 0.01532900 -0.00674300
v -0.00689000 0.01532900 -0.00674300
v -0.00689000 0.01532900 -0.00674300
v -0.00872800 0.01434600 -0.00674500
v -0.00872800 0.01434600 -0.00674500
v -0.00872800 0.01434600 -0.00674500
v -0.00872800 0.01434600 -0.00674500
v -0.00872800 0.01434600 -0.00674500
v -0.00872800 0.01434600 -0.00674500
v -0.02537600 0.03704500 -0.00675400
v -0.02537600 0.03704500 -0.00675400
v -0.02537600 0.03704500 -0.00675400
v -0.02537600 0.03704500 -0.00675400
v -0.02537600 0.03704500 -0.00675400
v -0.02537600 0.03704500 -0.00675400
v -0.03074200 0.06166000 -0.00675400
v -0.03074200 0.06166000 -0.00675400
v -0.03074200 0.06166000 -0.00675400
v -0.03074200 0.06166000 -0.00675400
v -0.03074200 0.06166000 -0.00675400
v -0.03074200 0.06166000 -0.00675400
v -0.00779800 0.01502600 -0.00684500
v -0.00779800 0.01502600 -0.00684500
v -0.00779800 0.01502600 -0.00684500
v -0.00779800 0.01502600 -0.00684500
v -0.00779800 0.01502600 -0.00684500
v -0.02168400 0.03831000 -0.00690100
v -0.02168400 0.03831000 -0.00690100
v -0.02168400 0.03831000 -0.00690100
v -0.02168400 0.03831000 -0.00690100
v -0.02168400 0.03831000 -0.00690100
v -0.00875400 0.01446000 -0.00690900
v -0.00875400 0.01446000 -0.00690900
v -0.00875400 0.01446000 -0.00690900
v -0.00875400 0.01446000 -0.00690900
v -0.00875400 0.01446000 -0.00690900
v -0.02029300 0.03940200 -0.00693700
v -0.02029300 0.03940200 -0.00693700
v -0.02029300 0.03940200 -0.00693700
v -0.02029300 0.03940200 -0.00693700
v -0.00789100 0.01516700 -0.00695600
v -0.00789100 0.01516700 -0.00695600
v -0.00789100 0.01516700 -0.00695600
v -0.00789100 0.01516700 -0.00695600
v -0.00789100 0.01516700 -0.00695600
v -0.00789100 0.01516700 -0.00695600
v -0.00830800 0.01514500 -0.00696800
v -0.00830800 0.01514500 -0.00696800
v -0.00830800 0.01514500 -0.00696800
v -0.00830800 0.01514500 -0.00696800
v -0.00830800 0.01514500 -0.00696800
v -0.00830800 0.01514500 -0.00696800
v -0.02201000 0.03783400 -0.00701400
v -0.02201000 0.03783400 -0.00701400
v -0.02201000 0.03783400 -0.00701400
v -0.02201000 0.03783400 -0.00701400
v -0.02201000 0.03783400 -0.00701400
v -0.02201000 0.03783400 -0.00701400
v -0.00882200 0.01461500 -0.00701700
v -0.00882200 0.01461500 -0.00701700
v -0.00882200 0.01461500 -0.00701700
v -0.00882200 0.01461500 -0.00701700
v -0.00882200 0.01461500 -0.00701700
v -0.00673200 0.01544100 -0.00703500
v -0.00673200 0.01544100 -0.00703500
v -0.00673200 0.01544100 -0.00703500
v -0.00673200 0.01544100 -0.00703500
v -0.00673200 0.01544100 -0.00703500
v -0.00673200 0.01544100 -0.00703500
v -0.02479400 0.03680300 -0.00707600
v -0.02479400 0.03680300 -0.00707600
v -0.02479400 0.03680300 -0.00707600
v -0.02479400 0.03680300 -0.00707600
v -0.03132400 0.06190100 -0.00707600
v -0.03132400 0.06190100 -0.00707600
v -0.03132400 0.06190100 -0.00707600
v -0.03132400 0.06190100 -0.00707600
v -0.00684700 0.01550400 -0.00718200
v -0.00684700 0.01550400 -0.00718200
v -0.00684700 0.01550400 -0.00718200
v -0.00684700 0.01550400 -0.00718200
v -0.00684700 0.01550400 -0.00718200
v -0.00928000 0.01452600 -0.00719700
v -0.00928000 0.01452600 -0.00719700
v -0.00928000 0.01452600 -0.00719700
v -0.00928000 0.01452600 -0.00719700
v -0.00928000 0.01452600 -0.00719700
v -0.00928000 0.01452600 -0.00719700
v -0.00728700 0.01567700 -0.00719800
v -0.00728700 0.01567700 -0.00719800
v -0.00728700 0.01567700 -0.00719800
v -0.00728700 0.01567700 -0.00719800
v -0.00728700 0.01567700 -0.00719800
v -0.00961200 0.01374200 -0.00722900
v -0.00961200 0.01374200 -0.00722900
v -0.00961200 0.01374200 -0.00722900
v -0.00961200 0.01374200 -0.00722900
v -0.00961200 0.01374200 -0.00722900
v -0.00961200 0.01374200 -0.00722900
v -0.00696200 0.01562900 -0.00728100
v -0.00696200 0.01562900 -0.00728100
v -0.00696200 0.01562900 -0.00728100
v -0.00696200 0.01562900 -0.00728100
v -0.00696200 0.01562900 -0.00728100
v -0.00696200 0.01562900 -0.00728100
v -0.00959800 0.01388000 -0.00736500
v -0.00959800 0.01388000 -0.00736500
v -0.00959800 0.01388000 -0.00736500
v -0.00959800 0.01388000 -0.00736500
v -0.00959800 0.01388000 -0.00736500
v -0.00959800 0.01388000 -0.00736500
v -0.02026000 0.03884400 -0.00737000
v -0.02026000 0.03884400 -0.00737000
v -0.02026000 0.03884400 -0.00737000
v -0.02026000 0.03884400 -0.00737000
v -0.02026000 0.03884400 -0.00737000
v -0.02026000 0.03884400 -0.00737000
v -0.02026000 0.03884400 -0.00737000
v -0.00964000 0.01404500 -0.00745900
v -0.00964000 0.01404500 -0.00745900
v -0.00964000 0.01404500 -0.00745900
v -0.00964000 0.01404500 -0.00745900
v -0.00964000 0.01404500 -0.00745900
v -0.00964000 0.01404500 -0.00745900
v -0.02358500 0.03742400 -0.00747900
v -0.02358500 0.03742400 -0.00747900
v -0.02358500 0.03742400 -0.00747900
v -0.02358500 0.03742400 -0.00747900
v -0.02358500 0.03742400 -0.00747900
v -0.01996600 0.03951400 -0.00747900
v -0.01996600 0.03951400 -0.00747900
v -0.01996600 0.03951400 -0.00747900
v -0.01996600 0.03951400 -0.00747900
v -0.01996600 0.03951400 -0.00747900
v -0.03788400 0.05782500 -0.00750200
v -0.03788400 0.05782500 -0.00750200
v -0.03788400 0.05782500 -0.00750200
v -0.03788400 0.05782500 -0.00750200
v -0.03788400 0.05782500 -0.00750200
v -0.03048400 0.06209700 -0.00750200
v -0.03048400 0.06209700 -0.00750200
v -0.03048400 0.06209700 -0.00750200
v -0.03048400 0.06209700 -0.00750200
v -0.03048400 0.06209700 -0.00750200
v -0.01007200 0.01335500 -0.00750900
v -0.01007200 0.01335500 -0.00750900
v -0.01007200 0.01335500 -0.00750900
v -0.01007200 0.01335500 -0.00750900
v -0.01007200 0.01335500 -0.00750900
v -0.00587600 0.01577700 -0.00751100
v -0.00587600 0.01577700 -0.00751100
v -0.00587600 0.01577700 -0.00751100
v -0.00587600 0.01577700 -0.00751100
v -0.00587600 0.01577700 -0.00751100
v -0.03783800 0.05806300 -0.00759300
v -0.03783800 0.05806300 -0.00759300
v -0.03783800 0.05806300 -0.00759300
v -0.03783800 0.05806300 -0.00759300
v -0.03783800 0.05806300 -0.00759300
v -0.03071300 0.06217700 -0.00759300
v -0.03071300 0.06217700 -0.00759300
v -0.03071300 0.06217700 -0.00759300
v -0.03071300 0.06217700 -0.00759300
v -0.03071300 0.06217700 -0.00759300
v -0.03071300 0.06217700 -0.00759300
v -0.02339100 0.03732500 -0.00761900
v -0.02339100 0.03732500 -0.00761900
v -0.02339100 0.03732500 -0.00761900
v -0.02339100 0.03732500 -0.00761900
v -0.02339100 0.03732500 -0.00761900
v -0.01997700 0.03929600 -0.00761900
v -0.01997700 0.03929600 -0.00761900
v -0.01997700 0.03929600 -0.00761900
v -0.01997700 0.03929600 -0.00761900
v -0.01997700 0.03929600 -0.00761900
v -0.02413100 0.03718600 -0.00771800
v -0.02413100 0.03718600 -0.00771800
v -0.02413100 0.03718600 -0.00771800
v -0.02413100 0.03718600 -0.00771800
v -0.00588400 0.01580800 -0.00777100
v -0.00588400 0.01580800 -0.00777100
v -0.00588400 0.01580800 -0.00777100
v -0.00588400 0.01580800 -0.00777100
v -0.00588400 0.01580800 -0.00777100
v -0.01006000 0.01393600 -0.00784600
v -0.01006000 0.01393600 -0.00784600
v -0.01006000 0.01393600 -0.00784600
v -0.01006000 0.01393600 -0.00784600
v -0.01006000 0.01393600 -0.00784600
v -0.00638600 0.01605700 -0.00784700
v -0.00638600 0.01605700 -0.00784700
v -0.00638600 0.01605700 -0.00784700
v -0.00638600 0.01605700 -0.00784700
v -0.00638600 0.01605700 -0.00784700
v -0.00638600 0.01605700 -0.00784700
v -0.00603100 0.01585300 -0.00787800
v -0.00603100 0.01585300 -0.00787800
v -0.00603100 0.01585300 -0.00787800
v -0.00603100 0.01585300 -0.00787800
v -0.00603100 0.01585300 -0.00787800
v -0.00603100 0.01585300 -0.00787800
v -0.00616500 0.01596100 -0.00795400
v -0.00616500 0.01596100 -0.00795400
v -0.00616500 0.01596100 -0.00795400
v -0.00616500 0.01596100 -0.00795400
v -0.00616500 0.01596100 -0.00795400
v -0.00616500 0.01596100 -0.00795400
v -0.02354900 0.03694500 -0.00804000
v -0.02354900 0.03694500 -0.00804000
v -0.02354900 0.03694500 -0.00804000
v -0.02354900 0.03694500 -0.00804000
v -0.02354900 0.03694500 -0.00804000
v -0.02354900 0.03694500 -0.00804000
v -0.02354900 0.03694500 -0.00804000
v -0.01027700 0.01323100 -0.00806800
v -0.01027700 0.01323100 -0.00806800
v -0.01027700 0.01323100 -0.00806800
v -0.01027700 0.01323100 -0.00806800
v -0.01027700 0.01323100 -0.00806800
v -0.01027700 0.01323100 -0.00806800
v -0.01023600 0.01338600 -0.00816000
v -0.01023600 0.01338600 -0.00816000
v -0.01023600 0.01338600 -0.00816000
v -0.01023600 0.01338600 -0.00816000
v -0.01023600 0.01338600 -0.00816000
v -0.01025500 0.01355800 -0.00822600
v -0.01025500 0.01355800 -0.00822600
v -0.01025500 0.01355800 -0.00822600
v -0.01025500 0.01355800 -0.00822600
v -0.01025500 0.01355800 -0.00822600
v -0.01025500 0.01355800 -0.00822600
v -0.01799000 0.04130900 -0.00825800
v -0.01799000 0.04130900 -0.00825800
v -0.01799000 0.04130900 -0.00825800
v -0.01799000 0.04130900 -0.00825800
v -0.01799000 0.04130900 -0.00825800
v -0.01799000 0.04130900 -0.00825800
v -0.03812800 0.05739600 -0.00825800
v -0.03812800 0.05739600 -0.00825800
v -0.03812800 0.05739600 -0.00825800
v -0.03812800 0.05739600 -0.00825800
v -0.03812800 0.05739600 -0.00825800
v -0.03812800 0.05739600 -0.00825800
v -0.01814700 0.04064100 -0.00842900
v -0.01814700 0.04064100 -0.00842900
v -0.01814700 0.04064100 -0.00842900
v -0.01814700 0.04064100 -0.00842900
v -0.03797100 0.05806300 -0.00842900
v -0.03797100 0.05806300 -0.00842900
v -0.03797100 0.05806300 -0.00842900
v -0.03797100 0.05806300 -0.00842900
v -0.01064300 0.01289000 -0.00863900
v -0.01064300 0.01289000 -0.00863900
v -0.01064300 0.01289000 -0.00863900
v -0.01064300 0.01289000 -0.00863900
v -0.01064300 0.01289000 -0.00863900
v -0.01064300 0.01289000 -0.00863900
v -0.00518900 0.01603900 -0.00864200
v -0.00518900 0.01603900 -0.00864200
v -0.00518900 0.01603900 -0.00864200
v -0.00518900 0.01603900 -0.00864200
v -0.00518900 0.01603900 -0.00864200
v -0.01896100 0.04017100 -0.00877100
v -0.01896100 0.04017100 -0.00877100
v -0.01896100 0.04017100 -0.00877100
v -0.01896100 0.04017100 -0.00877100
v -0.00531000 0.01602600 -0.00879600
v -0.00531000 0.01602600 -0.00879600
v -0.00531000 0.01602600 -0.00879600
v -0.00531000 0.01602600 -0.00879600
v -0.00531000 0.01602600 -0.00879600
v -0.00531000 0.01602600 -0.00879600
v -0.01056100 0.01350600 -0.00881500
v -0.01056100 0.01350600 -0.00881500
v -0.01056100 0.01350600 -0.00881500
v -0.01056100 0.01350600 -0.00881500
v -0.01056100 0.01350600 -0.00881500
v -0.01056100 0.01350600 -0.00881500
v -0.00576300 0.01627600 -0.00881700
v -0.00576300 0.01627600 -0.00881700
v -0.00576300 0.01627600 -0.00881700
v -0.00576300 0.01627600 -0.00881700
v -0.00576300 0.01627600 -0.00881700
v -0.00547700 0.01606100 -0.00885200
v -0.00547700 0.01606100 -0.00885200
v -0.00547700 0.01606100 -0.00885200
v -0.00547700 0.01606100 -0.00885200
v -0.00547700 0.01606100 -0.00885200
v -0.00562400 0.01615600 -0.00889300
v -0.00562400 0.01615600 -0.00889300
v -0.00562400 0.01615600 -0.00889300
v -0.00562400 0.01615600 -0.00889300
v -0.00562400 0.01615600 -0.00889300
v -0.01911800 0.03950400 -0.00894200
v -0.01911800 0.03950400 -0.00894200
v -0.01911800 0.03950400 -0.00894200
v -0.01911800 0.03950400 -0.00894200
v -0.01911800 0.03950400 -0.00894200
v -0.01911800 0.03950400 -0.00894200
v -0.01911800 0.03950400 -0.00894200
v -0.02614100 0.03631400 -0.00911200
v -0.02614100 0.03631400 -0.00911200
v -0.02614100 0.03631400 -0.00911200
v -0.02614100 0.03631400 -0.00911200
v -0.02614100 0.03631400 -0.00911200
v -0.01772700 0.04117300 -0.00911200
v -0.01772700 0.04117300 -0.00911200
v -0.01772700 0.04117300 -0.00911200
v -0.01772700 0.04117300 -0.00911200
v -0.01772700 0.04117300 -0.00911200
v -0.02589400 0.03624600 -0.00914300
v -0.02589400 0.03624600 -0.00914300
v -0.02589400 0.03624600 -0.00914300
v -0.02589400 0.03624600 -0.00914300
v -0.02589400 0.03624600 -0.00914300
v -0.01779100 0.04092400 -0.00914300
v -0.01779100 0.04092400 -0.00914300
v -0.01779100 0.04092400 -0.00914300
v -0.01779100 0.04092400 -0.00914300
v -0.01779100 0.04092400 -0.00914300
v -0.01065800 0.01291400 -0.00916000
v -0.01065800 0.01291400 -0.00916000
v -0.01065800 0.01291400 -0.00916000
v -0.01065800 0.01291400 -0.00916000
v -0.01065800 0.01291400 -0.00916000
v -0.01060200 0.01307900 -0.00919800
v -0.01060200 0.01307900 -0.00919800
v -0.01060200 0.01307900 -0.00919800
v -0.01060200 0.01307900 -0.00919800
v -0.01060200 0.01307900 -0.00919800
v -0.01060700 0.01325400 -0.00922600
v -0.01060700 0.01325400 -0.00922600
v -0.01060700 0.01325400 -0.00922600
v -0.01060700 0.01325400 -0.00922600
v -0.01060700 0.01325400 -0.00922600
v -0.02454700 0.03686900 -0.00940400
v -0.02454700 0.03686900 -0.00940400
v -0.02454700 0.03686900 -0.00940400
v -0.02454700 0.03686900 -0.00940400
v -0.02454700 0.03686900 -0.00940400
v -0.01900400 0.04006900 -0.00940400
v -0.01900400 0.04006900 -0.00940400
v -0.01900400 0.04006900 -0.00940400
v -0.01900400 0.04006900 -0.00940400
v -0.01900400 0.04006900 -0.00940400
v -0.02430000 0.03680000 -0.00943600
v -0.02430000 0.03680000 -0.00943600
v -0.02430000 0.03680000 -0.00943600
v -0.02430000 0.03680000 -0.00943600
v -0.02430000 0.03680000 -0.00943600
v -0.01906800 0.03982100 -0.00943600
v -0.01906800 0.03982100 -0.00943600
v -0.01906800 0.03982100 -0.00943600
v -0.01906800 0.03982100 -0.00943600
v -0.01906800 0.03982100 -0.00943600
v -0.00553900 0.01634700 -0.00996600
v -0.00553900 0.01634700 -0.00996600
v -0.00553900 0.01634700 -0.00996600
v -0.00553900 0.01634700 -0.00996600
v -0.00553900 0.01634700 -0.00996600
v -0.00553900 0.01634700 -0.00996600
v -0.00553900 0.01634700 -0.00996600
v -0.00494500 0.01612300 -0.00996600
v -0.00494500 0.01612300 -0.00996600
v -0.00494500 0.01612300 -0.00996600
v -0.00494500 0.01612300 -0.00996600
v -0.00494500 0.01612300 -0.00996600
v -0.00494500 0.01612300 -0.00996600
v -0.01083900 0.01272100 -0.00996800
v -0.01083900 0.01272100 -0.00996800
v -0.01083900 0.01272100 -0.00996800
v -0.01083900 0.01272100 -0.00996800
v -0.01083900 0.01272100 -0.00996800
v -0.01083900 0.01272100 -0.00996800
v -0.01083900 0.01272100 -0.00996800
v -0.01067500 0.01301500 -0.00996800
v -0.01067500 0.01301500 -0.00996800
v -0.01067500 0.01301500 -0.00996800
v -0.01067500 0.01301500 -0.00996800
v -0.01067500 0.01301500 -0.00996800
v -0.01067500 0.01301500 -0.00996800
v -0.01067500 0.01301500 -0.00996800
v -0.01067500 0.01301500 -0.00996800
v -0.01073500 0.01334700 -0.00996800
v -0.01073500 0.01334700 -0.00996800
v -0.01073500 0.01334700 -0.00996800
v -0.01073500 0.01334700 -0.00996800
v -0.01073500 0.01334700 -0.00996800
v -0.01073500 0.01334700 -0.00996800
v -0.02570600 0.03627700 -0.00996800
v -0.02570600 0.03627700 -0.00996800
v -0.02570600 0.03627700 -0.00996800
v -0.02570600 0.03627700 -0.00996800
v -0.02638900 0.03646000 -0.00996800
v -0.02638900 0.03646000 -0.00996800
v -0.02638900 0.03646000 -0.00996800
v -0.02638900 0.03646000 -0.00996800
v -0.02638900 0.03646000 -0.00996800
v -0.02638900 0.03646000 -0.00996800
v -0.02415700 0.03659400 -0.00996800
v -0.02415700 0.03659400 -0.00996800
v -0.02415700 0.03659400 -0.00996800
v -0.02415700 0.03659400 -0.00996800
v -0.02415700 0.03659400 -0.00996800
v -0.02415700 0.03659400 -0.00996800
v -0.02415700 0.03659400 -0.00996800
v -0.02484000 0.03677700 -0.00996800
v -0.02484000 0.03677700 -0.00996800
v -0.02484000 0.03677700 -0.00996800
v -0.02484000 0.03677700 -0.00996800
v -0.02972900 0.06224500 -0.00996800
v -0.02972900 0.06224500 -0.00996800
v -0.02972900 0.06224500 -0.00996800
v -0.02972900 0.06224500 -0.00996800
v -0.02972900 0.06224500 -0.00996800
v -0.02972900 0.06224500 -0.00996800
v -0.03041200 0.06242800 -0.00996800
v -0.03041200 0.06242800 -0.00996800
v -0.03041200 0.06242800 -0.00996800
v -0.03041200 0.06242800 -0.00996800
v -0.00543300 0.01621900 -0.00998000
v -0.00543300 0.01621900 -0.00998000
v -0.00543300 0.01621900 -0.00998000
v -0.00543300 0.01621900 -0.00998000
v -0.00528200 0.01612900 -0.00998000
v -0.00528200 0.01612900 -0.00998000
v -0.00528200 0.01612900 -0.00998000
v -0.00528200 0.01612900 -0.00998000
v -0.00510900 0.01609700 -0.00998100
v -0.00510900 0.01609700 -0.00998100
v -0.00510900 0.01609700 -0.00998100
v -0.00510900 0.01609700 -0.00998100
v -0.01067400 0.01319400 -0.01012000
v -0.01067400 0.01319400 -0.01012000
v -0.01067400 0.01319400 -0.01012000
v -0.01067400 0.01319400 -0.01012000
v -0.01067400 0.01319400 -0.01012000
v -0.01067200 0.01301800 -0.01012600
v -0.01067200 0.01301800 -0.01012600
v -0.01067200 0.01301800 -0.01012600
v -0.01067200 0.01301800 -0.01012600
v -0.01073100 0.01285200 -0.01013400
v -0.01073100 0.01285200 -0.01013400
v -0.01073100 0.01285200 -0.01013400
v -0.01073100 0.01285200 -0.01013400
v -0.01073100 0.01285200 -0.01013400
v -0.03832700 0.05778100 -0.01079300
v -0.03832700 0.05778100 -0.01079300
v -0.03832700 0.05778100 -0.01079300
v -0.03832700 0.05778100 -0.01079300
v -0.03832700 0.05778100 -0.01079300
v -0.03022400 0.06245900 -0.01079300
v -0.03022400 0.06245900 -0.01079300
v -0.03022400 0.06245900 -0.01079300
v -0.03022400 0.06245900 -0.01079300
v -0.03022400 0.06245900 -0.01079300
v -0.03839100 0.05753200 -0.01082500
v -0.03839100 0.05753200 -0.01082500
v -0.03839100 0.05753200 -0.01082500
v -0.03839100 0.05753200 -0.01082500
v -0.03839100 0.05753200 -0.01082500
v -0.02997700 0.06239000 -0.01082500
v -0.02997700 0.06239000 -0.01082500
v -0.02997700 0.06239000 -0.01082500
v -0.02997700 0.06239000 -0.01082500
v -0.02997700 0.06239000 -0.01082500
v -0.02997700 0.06239000 -0.01082500
v -0.01911800 0.03950400 -0.01099400
v -0.01911800 0.03950400 -0.01099400
v -0.01911800 0.03950400 -0.01099400
v -0.01911800 0.03950400 -0.01099400
v -0.01911800 0.03950400 -0.01099400
v -0.01911800 0.03950400 -0.01099400
v -0.01911800 0.03950400 -0.01099400
v -0.00563300 0.01615300 -0.01106800
v -0.00563300 0.01615300 -0.01106800
v -0.00563300 0.01615300 -0.01106800
v -0.00563300 0.01615300 -0.01106800
v -0.00563300 0.01615300 -0.01106800
v -0.00563300 0.01615300 -0.01106800
v -0.00548600 0.01605800 -0.01111000
v -0.00548600 0.01605800 -0.01111000
v -0.00548600 0.01605800 -0.01111000
v -0.00548600 0.01605800 -0.01111000
v -0.00548600 0.01605800 -0.01111000
v -0.01056200 0.01350600 -0.01112000
v -0.01056200 0.01350600 -0.01112000
v -0.01056200 0.01350600 -0.01112000
v -0.01056200 0.01350600 -0.01112000
v -0.01056200 0.01350600 -0.01112000
v -0.01056200 0.01350600 -0.01112000
v -0.00576400 0.01627600 -0.01112000
v -0.00576400 0.01627600 -0.01112000
v -0.00576400 0.01627600 -0.01112000
v -0.00576400 0.01627600 -0.01112000
v -0.00576400 0.01627600 -0.01112000
v -0.01896100 0.04017100 -0.01116500
v -0.01896100 0.04017100 -0.01116500
v -0.01896100 0.04017100 -0.01116500
v -0.01896100 0.04017100 -0.01116500
v -0.00532000 0.01602200 -0.01116700
v -0.00532000 0.01602200 -0.01116700
v -0.00532000 0.01602200 -0.01116700
v -0.00532000 0.01602200 -0.01116700
v -0.01064300 0.01289000 -0.01129500
v -0.01064300 0.01289000 -0.01129500
v -0.01064300 0.01289000 -0.01129500
v -0.01064300 0.01289000 -0.01129500
v -0.01064300 0.01289000 -0.01129500
v -0.01064300 0.01289000 -0.01129500
v -0.00518900 0.01603800 -0.01129500
v -0.00518900 0.01603800 -0.01129500
v -0.00518900 0.01603800 -0.01129500
v -0.00518900 0.01603800 -0.01129500
v -0.00518900 0.01603800 -0.01129500
v -0.01043300 0.01340700 -0.01132300
v -0.01043300 0.01340700 -0.01132300
v -0.01043300 0.01340700 -0.01132300
v -0.01043300 0.01340700 -0.01132300
v -0.01043300 0.01340700 -0.01132300
v -0.01042100 0.01323300 -0.01137500
v -0.01042100 0.01323300 -0.01137500
v -0.01042100 0.01323300 -0.01137500
v -0.01042100 0.01323300 -0.01137500
v -0.01042100 0.01323300 -0.01137500
v -0.01047000 0.01307300 -0.01144500
v -0.01047000 0.01307300 -0.01144500
v -0.01047000 0.01307300 -0.01144500
v -0.01047000 0.01307300 -0.01144500
v -0.01047000 0.01307300 -0.01144500
v -0.01047000 0.01307300 -0.01144500
v -0.02398400 0.03698200 -0.01150200
v -0.02398400 0.03698200 -0.01150200
v -0.02398400 0.03698200 -0.01150200
v -0.02398400 0.03698200 -0.01150200
v -0.02398400 0.03698200 -0.01150200
v -0.01938400 0.03963900 -0.01150200
v -0.01938400 0.03963900 -0.01150200
v -0.01938400 0.03963900 -0.01150200
v -0.01938400 0.03963900 -0.01150200
v -0.01938400 0.03963900 -0.01150200
v -0.01814700 0.04064100 -0.01150700
v -0.01814700 0.04064100 -0.01150700
v -0.01814700 0.04064100 -0.01150700
v -0.01814700 0.04064100 -0.01150700
v -0.03797100 0.05806300 -0.01150700
v -0.03797100 0.05806300 -0.01150700
v -0.03797100 0.05806300 -0.01150700
v -0.03797100 0.05806300 -0.01150700
v -0.02421300 0.03706200 -0.01159300
v -0.02421300 0.03706200 -0.01159300
v -0.02421300 0.03706200 -0.01159300
v -0.02421300 0.03706200 -0.01159300
v -0.02421300 0.03706200 -0.01159300
v -0.01933800 0.03987600 -0.01159300
v -0.01933800 0.03987600 -0.01159300
v -0.01933800 0.03987600 -0.01159300
v -0.01933800 0.03987600 -0.01159300
v -0.01933800 0.03987600 -0.01159300
v -0.01799000 0.04130900 -0.01167800
v -0.01799000 0.04130900 -0.01167800
v -0.01799000 0.04130900 -0.01167800
v -0.01799000 0.04130900 -0.01167800
v -0.01799000 0.04130900 -0.01167800
v -0.01799000 0.04130900 -0.01167800
v -0.03812800 0.05739600 -0.01167800
v -0.03812800 0.05739600 -0.01167800
v -0.03812800 0.05739600 -0.01167800
v -0.03812800 0.05739600 -0.01167800
v -0.03812800 0.05739600 -0.01167800
v -0.03812800 0.05739600 -0.01167800
v -0.02354900 0.03694500 -0.01189700
v -0.02354900 0.03694500 -0.01189700
v -0.02354900 0.03694500 -0.01189700
v -0.02354900 0.03694500 -0.01189700
v -0.02354900 0.03694500 -0.01189700
v -0.02354900 0.03694500 -0.01189700
v -0.02354900 0.03694500 -0.01189700
v -0.00618300 0.01595400 -0.01200300
v -0.00618300 0.01595400 -0.01200300
v -0.00618300 0.01595400 -0.01200300
v -0.00618300 0.01595400 -0.01200300
v -0.00618300 0.01595400 -0.01200300
v -0.00618300 0.01595400 -0.01200300
v -0.00604900 0.01584600 -0.01207900
v -0.00604900 0.01584600 -0.01207900
v -0.00604900 0.01584600 -0.01207900
v -0.00604900 0.01584600 -0.01207900
v -0.00604900 0.01584600 -0.01207900
v -0.00604900 0.01584600 -0.01207900
v -0.00638700 0.01605700 -0.01209000
v -0.00638700 0.01605700 -0.01209000
v -0.00638700 0.01605700 -0.01209000
v -0.00638700 0.01605700 -0.01209000
v -0.00638700 0.01605700 -0.01209000
v -0.00638700 0.01605700 -0.01209000
v -0.01005900 0.01393700 -0.01209100
v -0.01005900 0.01393700 -0.01209100
v -0.01005900 0.01393700 -0.01209100
v -0.01005900 0.01393700 -0.01209100
v -0.01005900 0.01393700 -0.01209100
v -0.00590200 0.01580000 -0.01218700
v -0.00590200 0.01580000 -0.01218700
v -0.00590200 0.01580000 -0.01218700
v -0.00590200 0.01580000 -0.01218700
v -0.00590200 0.01580000 -0.01218700
v -0.00590200 0.01580000 -0.01218700
v -0.02413100 0.03718600 -0.01221800
v -0.02413100 0.03718600 -0.01221800
v -0.02413100 0.03718600 -0.01221800
v -0.02413100 0.03718600 -0.01221800
v -0.00983600 0.01389600 -0.01229300
v -0.00983600 0.01389600 -0.01229300
v -0.00983600 0.01389600 -0.01229300
v -0.00983600 0.01389600 -0.01229300
v -0.00983600 0.01389600 -0.01229300
v -0.00983600 0.01389600 -0.01229300
v -0.02540500 0.03652800 -0.01234300
v -0.02540500 0.03652800 -0.01234300
v -0.02540500 0.03652800 -0.01234300
v -0.02540500 0.03652800 -0.01234300
v -0.02540500 0.03652800 -0.01234300
v -0.01828000 0.04064200 -0.01234300
v -0.01828000 0.04064200 -0.01234300
v -0.01828000 0.04064200 -0.01234300
v -0.01828000 0.04064200 -0.01234300
v -0.01828000 0.04064200 -0.01234300
v -0.00980100 0.01372900 -0.01237900
v -0.00980100 0.01372900 -0.01237900
v -0.00980100 0.01372900 -0.01237900
v -0.00980100 0.01372900 -0.01237900
v -0.00980100 0.01372900 -0.01237900
v -0.00980100 0.01372900 -0.01237900
v -0.00587800 0.01577600 -0.01242700
v -0.00587800 0.01577600 -0.01242700
v -0.00587800 0.01577600 -0.01242700
v -0.00587800 0.01577600 -0.01242700
v -0.00587800 0.01577600 -0.01242700
v -0.01007100 0.01335500 -0.01242800
v -0.01007100 0.01335500 -0.01242800
v -0.01007100 0.01335500 -0.01242800
v -0.01007100 0.01335500 -0.01242800
v -0.01007100 0.01335500 -0.01242800
v -0.02563400 0.03660800 -0.01243500
v -0.02563400 0.03660800 -0.01243500
v -0.02563400 0.03660800 -0.01243500
v -0.02563400 0.03660800 -0.01243500
v -0.02563400 0.03660800 -0.01243500
v -0.01823400 0.04088000 -0.01243500
v -0.01823400 0.04088000 -0.01243500
v -0.01823400 0.04088000 -0.01243500
v -0.01823400 0.04088000 -0.01243500
v -0.01823400 0.04088000 -0.01243500
v -0.00982300 0.01358500 -0.01250500
v -0.00982300 0.01358500 -0.01250500
v -0.00982300 0.01358500 -0.01250500
v -0.00982300 0.01358500 -0.01250500
v -0.00982300 0.01358500 -0.01250500
v -0.00982300 0.01358500 -0.01250500
v -0.02026000 0.03884400 -0.01256600
v -0.02026000 0.03884400 -0.01256600
v -0.02026000 0.03884400 -0.01256600
v -0.02026000 0.03884400 -0.01256600
v -0.02026000 0.03884400 -0.01256600
v -0.02026000 0.03884400 -0.01256600
v -0.02026000 0.03884400 -0.01256600
v -0.00698500 0.01561800 -0.01266800
v -0.00698500 0.01561800 -0.01266800
v -0.00698500 0.01561800 -0.01266800
v -0.00698500 0.01561800 -0.01266800
v -0.00698500 0.01561800 -0.01266800
v -0.00698500 0.01561800 -0.01266800
v -0.00728800 0.01567600 -0.01273900
v -0.00728800 0.01567600 -0.01273900
v -0.00728800 0.01567600 -0.01273900
v -0.00728800 0.01567600 -0.01273900
v -0.00728800 0.01567600 -0.01273900
v -0.00927900 0.01452700 -0.01274000
v -0.00927900 0.01452700 -0.01274000
v -0.00927900 0.01452700 -0.01274000
v -0.00927900 0.01452700 -0.01274000
v -0.00927900 0.01452700 -0.01274000
v -0.00927900 0.01452700 -0.01274000
v -0.00687000 0.01549300 -0.01276800
v -0.00687000 0.01549300 -0.01276800
v -0.00687000 0.01549300 -0.01276800
v -0.00687000 0.01549300 -0.01276800
v -0.00687000 0.01549300 -0.01276800
v -0.02259200 0.03778600 -0.01285000
v -0.02259200 0.03778600 -0.01285000
v -0.02259200 0.03778600 -0.01285000
v -0.02259200 0.03778600 -0.01285000
v -0.02259200 0.03778600 -0.01285000
v -0.02077600 0.03883500 -0.01285000
v -0.02077600 0.03883500 -0.01285000
v -0.02077600 0.03883500 -0.01285000
v -0.02077600 0.03883500 -0.01285000
v -0.02077600 0.03883500 -0.01285000
v -0.02479400 0.03680300 -0.01286100
v -0.02479400 0.03680300 -0.01286100
v -0.02479400 0.03680300 -0.01286100
v -0.02479400 0.03680300 -0.01286100
v -0.03132400 0.06190100 -0.01286100
v -0.03132400 0.06190100 -0.01286100
v -0.03132400 0.06190100 -0.01286100
v -0.03132400 0.06190100 -0.01286100
v -0.00895800 0.01452600 -0.01287500
v -0.00895800 0.01452600 -0.01287500
v -0.00895800 0.01452600 -0.01287500
v -0.00895800 0.01452600 -0.01287500
v -0.00895800 0.01452600 -0.01287500
v -0.00895800 0.01452600 -0.01287500
v -0.00675700 0.01542900 -0.01291600
v -0.00675700 0.01542900 -0.01291600
v -0.00675700 0.01542900 -0.01291600
v -0.00675700 0.01542900 -0.01291600
v -0.00675700 0.01542900 -0.01291600
v -0.00675700 0.01542900 -0.01291600
v -0.02201000 0.03783400 -0.01292300
v -0.02201000 0.03783400 -0.01292300
v -0.02201000 0.03783400 -0.01292300
v -0.02201000 0.03783400 -0.01292300
v -0.02201000 0.03783400 -0.01292300
v -0.02201000 0.03783400 -0.01292300
v -0.00830800 0.01514500 -0.01296800
v -0.00830800 0.01514500 -0.01296800
v -0.00830800 0.01514500 -0.01296800
v -0.00830800 0.01514500 -0.01296800
v -0.00830800 0.01514500 -0.01296800
v -0.00830800 0.01514500 -0.01296800
v -0.00889400 0.01436900 -0.01298200
v -0.00889400 0.01436900 -0.01298200
v -0.00889400 0.01436900 -0.01298200
v -0.00889400 0.01436900 -0.01298200
v -0.00889400 0.01436900 -0.01298200
v -0.00889400 0.01436900 -0.01298200
v -0.00791700 0.01515400 -0.01298400
v -0.00791700 0.01515400 -0.01298400
v -0.00791700 0.01515400 -0.01298400
v -0.00791700 0.01515400 -0.01298400
v -0.00791700 0.01515400 -0.01298400
v -0.00791700 0.01515400 -0.01298400
v -0.02029300 0.03940200 -0.01299900
v -0.02029300 0.03940200 -0.01299900
v -0.02029300 0.03940200 -0.01299900
v -0.02029300 0.03940200 -0.01299900
v -0.02273800 0.03791300 -0.01302200
v -0.02273800 0.03791300 -0.01302200
v -0.02273800 0.03791300 -0.01302200
v -0.02273800 0.03791300 -0.01302200
v -0.02273800 0.03791300 -0.01302200
v -0.02081300 0.03902500 -0.01302200
v -0.02081300 0.03902500 -0.01302200
v -0.02081300 0.03902500 -0.01302200
v -0.02081300 0.03902500 -0.01302200
v -0.02081300 0.03902500 -0.01302200
v -0.00782400 0.01501100 -0.01309400
v -0.00782400 0.01501100 -0.01309400
v -0.00782400 0.01501100 -0.01309400
v -0.00782400 0.01501100 -0.01309400
v -0.00782400 0.01501100 -0.01309400
v -0.00782400 0.01501100 -0.01309400
v -0.00887500 0.01425100 -0.01314300
v -0.00887500 0.01425100 -0.01314300
v -0.00887500 0.01425100 -0.01314300
v -0.00887500 0.01425100 -0.01314300
v -0.00887500 0.01425100 -0.01314300
v -0.00887500 0.01425100 -0.01314300
v -0.02537600 0.03704500 -0.01318200
v -0.02537600 0.03704500 -0.01318200
v -0.02537600 0.03704500 -0.01318200
v -0.02537600 0.03704500 -0.01318200
v -0.02537600 0.03704500 -0.01318200
v -0.02537600 0.03704500 -0.01318200
v -0.03074200 0.06166000 -0.01318200
v -0.03074200 0.06166000 -0.01318200
v -0.03074200 0.06166000 -0.01318200
v -0.03074200 0.06166000 -0.01318200
v -0.03074200 0.06166000 -0.01318200
v -0.03074200 0.06166000 -0.01318200
v -0.00689200 0.01532800 -0.01319500
v -0.00689200 0.01532800 -0.01319500
v -0.00689200 0.01532800 -0.01319500
v -0.00689200 0.01532800 -0.01319500
v -0.00689200 0.01532800 -0.01319500
v -0.00917500 0.01400900 -0.01319500
v -0.00917500 0.01400900 -0.01319500
v -0.00917500 0.01400900 -0.01319500
v -0.00917500 0.01400900 -0.01319500
v -0.00917500 0.01400900 -0.01319500
v -0.00775400 0.01492300 -0.01326300
v -0.00775400 0.01492300 -0.01326300
v -0.00775400 0.01492300 -0.01326300
v -0.00775400 0.01492300 -0.01326300
v -0.00775400 0.01492300 -0.01326300
v -0.02233500 0.03822300 -0.01341500
v -0.02233500 0.03822300 -0.01341500
v -0.02233500 0.03822300 -0.01341500
v -0.02233500 0.03822300 -0.01341500
v -0.00805800 0.01471200 -0.01346800
v -0.00805800 0.01471200 -0.01346800
v -0.00805800 0.01471200 -0.01346800
v -0.00805800 0.01471200 -0.01346800
v -0.00805800 0.01471200 -0.01346800
v -0.03692000 0.05859300 -0.01360700
v -0.03692000 0.05859300 -0.01360700
v -0.03692000 0.05859300 -0.01360700
v -0.03692000 0.05859300 -0.01360700
v -0.03692000 0.05859300 -0.01360700
v -0.03692000 0.05859300 -0.01360700
v -0.03163100 0.06164600 -0.01360700
v -0.03163100 0.06164600 -0.01360700
v -0.03163100 0.06164600 -0.01360700
v -0.03163100 0.06164600 -0.01360700
v -0.03163100 0.06164600 -0.01360700
v -0.03163100 0.06164600 -0.01360700
v -0.03693000 0.05837600 -0.01374700
v -0.03693000 0.05837600 -0.01374700
v -0.03693000 0.05837600 -0.01374700
v -0.03693000 0.05837600 -0.01374700
v -0.03693000 0.05837600 -0.01374700
v -0.03143800 0.06154700 -0.01374700
v -0.03143800 0.06154700 -0.01374700
v -0.03143800 0.06154700 -0.01374700
v -0.03143800 0.06154700 -0.01374700
v -0.03143800 0.06154700 -0.01374700
v -0.03143800 0.06154700 -0.01374700
v -0.01986000 0.03965200 -0.01386500
v -0.01986000 0.03965200 -0.01386500
v -0.01986000 0.03965200 -0.01386500
v -0.01986000 0.03965200 -0.01386500
v -0.03625800 0.05905300 -0.01386500
v -0.03625800 0.05905300 -0.01386500
v -0.03625800 0.05905300 -0.01386500
v -0.03625800 0.05905300 -0.01386500
v -0.01989400 0.04021000 -0.01429800
v -0.01989400 0.04021000 -0.01429800
v -0.01989400 0.04021000 -0.01429800
v -0.01989400 0.04021000 -0.01429800
v -0.01989400 0.04021000 -0.01429800
v -0.01989400 0.04021000 -0.01429800
v -0.03622400 0.05849500 -0.01429800
v -0.03622400 0.05849500 -0.01429800
v -0.03622400 0.05849500 -0.01429800
v -0.03622400 0.05849500 -0.01429800
v -0.03622400 0.05849500 -0.01429800
v -0.03622400 0.05849500 -0.01429800
v -0.02248600 0.03813600 -0.01440000
v -0.02248600 0.03813600 -0.01440000
v -0.02248600 0.03813600 -0.01440000
v -0.02248600 0.03813600 -0.01440000
v -0.03363200 0.06056800 -0.01440000
v -0.03363200 0.06056800 -0.01440000
v -0.03363200 0.06056800 -0.01440000
v -0.03363200 0.06056800 -0.01440000
v -0.02324900 0.03777300 -0.01443200
v -0.02324900 0.03777300 -0.01443200
v -0.02324900 0.03777300 -0.01443200
v -0.02324900 0.03777300 -0.01443200
v -0.02324900 0.03777300 -0.01443200
v -0.02043600 0.03939700 -0.01443200
v -0.02043600 0.03939700 -0.01443200
v -0.02043600 0.03939700 -0.01443200
v -0.02043600 0.03939700 -0.01443200
v -0.02043600 0.03939700 -0.01443200
v -0.02339500 0.03790000 -0.01460400
v -0.02339500 0.03790000 -0.01460400
v -0.02339500 0.03790000 -0.01460400
v -0.02339500 0.03790000 -0.01460400
v -0.02339500 0.03790000 -0.01460400
v -0.02047300 0.03958700 -0.01460400
v -0.02047300 0.03958700 -0.01460400
v -0.02047300 0.03958700 -0.01460400
v -0.02047300 0.03958700 -0.01460400
v -0.02047300 0.03958700 -0.01460400
v -0.03427500 0.06012000 -0.01471800
v -0.03427500 0.06012000 -0.01471800
v -0.03427500 0.06012000 -0.01471800
v -0.03427500 0.06012000 -0.01471800
v -0.03427500 0.06012000 -0.01471800
v -0.03427500 0.06012000 -0.01471800
v -0.02281100 0.03852600 -0.01489200
v -0.02281100 0.03852600 -0.01489200
v -0.02281100 0.03852600 -0.01489200
v -0.02281100 0.03852600 -0.01489200
v -0.02281100 0.03852600 -0.01489200
v -0.02281100 0.03852600 -0.01489200
v -0.03330700 0.06017900 -0.01489200
v -0.03330700 0.06017900 -0.01489200
v -0.03330700 0.06017900 -0.01489200
v -0.03330700 0.06017900 -0.01489200
v -0.03330700 0.06017900 -0.01489200
v -0.03330700 0.06017900 -0.01489200
v -0.03418400 0.05996100 -0.01490100
v -0.03418400 0.05996100 -0.01490100
v -0.03418400 0.05996100 -0.01490100
v -0.03418400 0.05996100 -0.01490100
v -0.03418400 0.05996100 -0.01490100
v -0.03418400 0.05996100 -0.01490100
v 0.00318200 -0.01776600 -0.01946800
v 0.00318200 -0.01776600 -0.01946800
v 0.00318200 -0.01776600 -0.01946800
v 0.00318200 -0.01776600 -0.01946800
v 0.00318200 -0.01776600 -0.01946800
v -0.00657900 -0.01636300 -0.01946800
v -0.00657900 -0.01636300 -0.01946800
v -0.00657900 -0.01636300 -0.01946800
v -0.00657900 -0.01636300 -0.01946800
v -0.00657900 -0.01636300 -0.01946800
v 0.01215100 -0.01367000 -0.01946800
v 0.01215100 -0.01367000 -0.01946800
v 0.01215100 -0.01367000 -0.01946800
v 0.01215100 -0.01367000 -0.01946800
v 0.01215100 -0.01367000 -0.01946800
v -0.01403100 -0.00990500 -0.01946800
v -0.01403100 -0.00990500 -0.01946800
v -0.01403100 -0.00990500 -0.01946800
v -0.01403100 -0.00990500 -0.01946800
v -0.01403100 -0.00990500 -0.01946800
v 0.01748200 -0.00537400 -0.01946800
v 0.01748200 -0.00537400 -0.01946800
v 0.01748200 -0.00537400 -0.01946800
v 0.01748200 -0.00537400 -0.01946800
v 0.01748200 -0.00537400 -0.01946800
v -0.01680900 -0.00044400 -0.01946800
v -0.01680900 -0.00044400 -0.01946800
v -0.01680900 -0.00044400 -0.01946800
v -0.01680900 -0.00044400 -0.01946800
v -0.01680900 -0.00044400 -0.01946800
v 0.01748200 0.00448600 -0.01946800
v 0.01748200 0.00448600 -0.01946800
v 0.01748200 0.00448600 -0.01946800
v 0.01748200 0.00448600 -0.01946800
v 0.01748200 0.00448600 -0.01946800
v -0.01403100 0.00901700 -0.01946800
v -0.01403100 0.00901700 -0.01946800
v -0.01403100 0.00901700 -0.01946800
v -0.01403100 0.00901700 -0.01946800
v -0.01403100 0.00901700 -0.01946800
v -0.01403100 0.00901700 -0.01946800
v -0.01403100 0.00901700 -0.01946800
v 0.01215100 0.01278200 -0.01946800
v 0.01215100 0.01278200 -0.01946800
v 0.01215100 0.01278200 -0.01946800
v 0.01215100 0.01278200 -0.01946800
v 0.01215100 0.01278200 -0.01946800
v -0.00657900 0.01547400 -0.01946800
v -0.00657900 0.01547400 -0.01946800
v -0.00657900 0.01547400 -0.01946800
v -0.00657900 0.01547400 -0.01946800
v -0.00657900 0.01547400 -0.01946800
v -0.00657900 0.01547400 -0.01946800
v -0.00657900 0.01547400 -0.01946800
v -0.00657900 0.01547400 -0.01946800
v -0.00657900 0.01547400 -0.01946800
v -0.00657900 0.01547400 -0.01946800
v -0.00657900 0.01547400 -0.01946800
v 0.00318200 0.01687800 -0.01946800
v 0.00318200 0.01687800 -0.01946800
v 0.00318200 0.01687800 -0.01946800
v 0.00318200 0.01687800 -0.01946800
v 0.00318200 0.01687800 -0.01946800
v 0.00318200 0.01687800 -0.01946800
v -0.00179000 -0.01770000 -0.01971800
v -0.00179000 -0.01770000 -0.01971800
v -0.00179000 -0.01770000 -0.01971800
v -0.00179000 -0.01770000 -0.01971800
v -0.00179000 -0.01770000 -0.01971800
v 0.00793300 -0.01630200 -0.01971800
v 0.00793300 -0.01630200 -0.01971800
v 0.00793300 -0.01630200 -0.01971800
v 0.00793300 -0.01630200 -0.01971800
v 0.00793300 -0.01630200 -0.01971800
v -0.01072500 -0.01361900 -0.01971800
v -0.01072500 -0.01361900 -0.01971800
v -0.01072500 -0.01361900 -0.01971800
v -0.01072500 -0.01361900 -0.01971800
v -0.01072500 -0.01361900 -0.01971800
v 0.01535700 -0.00986900 -0.01971800
v 0.01535700 -0.00986900 -0.01971800
v 0.01535700 -0.00986900 -0.01971800
v 0.01535700 -0.00986900 -0.01971800
v 0.01535700 -0.00986900 -0.01971800
v -0.01603600 -0.00535600 -0.01971800
v -0.01603600 -0.00535600 -0.01971800
v -0.01603600 -0.00535600 -0.01971800
v -0.01603600 -0.00535600 -0.01971800
v -0.01603600 -0.00535600 -0.01971800
v 0.01812400 -0.00044400 -0.01971800
v 0.01812400 -0.00044400 -0.01971800
v 0.01812400 -0.00044400 -0.01971800
v 0.01812400 -0.00044400 -0.01971800
v 0.01812400 -0.00044400 -0.01971800
v -0.01603600 0.00446700 -0.01971800
v -0.01603600 0.00446700 -0.01971800
v -0.01603600 0.00446700 -0.01971800
v -0.01603600 0.00446700 -0.01971800
v -0.01603600 0.00446700 -0.01971800
v 0.01535700 0.00898100 -0.01971800
v 0.01535700 0.00898100 -0.01971800
v 0.01535700 0.00898100 -0.01971800
v 0.01535700 0.00898100 -0.01971800
v 0.01535700 0.00898100 -0.01971800
v -0.01072500 0.01273100 -0.01971800
v -0.01072500 0.01273100 -0.01971800
v -0.01072500 0.01273100 -0.01971800
v -0.01072500 0.01273100 -0.01971800
v -0.01072500 0.01273100 -0.01971800
v 0.00793300 0.01541400 -0.01971800
v 0.00793300 0.01541400 -0.01971800
v 0.00793300 0.01541400 -0.01971800
v 0.00793300 0.01541400 -0.01971800
v 0.00793300 0.01541400 -0.01971800
v -0.00179000 0.01681100 -0.01971800
v -0.00179000 0.01681100 -0.01971800
v -0.00179000 0.01681100 -0.01971800
v -0.00179000 0.01681100 -0.01971800
v -0.00179000 0.01681100 -0.01971800
v -0.00176400 -0.01751900 -0.01990100
v -0.00176400 -0.01751900 -0.01990100
v -0.00176400 -0.01751900 -0.01990100
v -0.00176400 -0.01751900 -0.01990100
v -0.00176400 -0.01751900 -0.01990100
v 0.00785700 -0.01613500 -0.01990100
v 0.00785700 -0.01613500 -0.01990100
v 0.00785700 -0.01613500 -0.01990100
v 0.00785700 -0.01613500 -0.01990100
v 0.00785700 -0.01613500 -0.01990100
v -0.01060500 -0.01348100 -0.01990100
v -0.01060500 -0.01348100 -0.01990100
v -0.01060500 -0.01348100 -0.01990100
v -0.01060500 -0.01348100 -0.01990100
v -0.01060500 -0.01348100 -0.01990100
v 0.01520300 -0.00977000 -0.01990100
v 0.01520300 -0.00977000 -0.01990100
v 0.01520300 -0.00977000 -0.01990100
v 0.01520300 -0.00977000 -0.01990100
v 0.01520300 -0.00977000 -0.01990100
v -0.01586000 -0.00530400 -0.01990100
v -0.01586000 -0.00530400 -0.01990100
v -0.01586000 -0.00530400 -0.01990100
v -0.01586000 -0.00530400 -0.01990100
v -0.01586000 -0.00530400 -0.01990100
v 0.01794100 -0.00044400 -0.01990100
v 0.01794100 -0.00044400 -0.01990100
v 0.01794100 -0.00044400 -0.01990100
v 0.01794100 -0.00044400 -0.01990100
v 0.01794100 -0.00044400 -0.01990100
v -0.01586000 0.00441600 -0.01990100
v -0.01586000 0.00441600 -0.01990100
v -0.01586000 0.00441600 -0.01990100
v -0.01586000 0.00441600 -0.01990100
v -0.01586000 0.00441600 -0.01990100
v 0.01520300 0.00888200 -0.01990100
v 0.01520300 0.00888200 -0.01990100
v 0.01520300 0.00888200 -0.01990100
v 0.01520300 0.00888200 -0.01990100
v 0.01520300 0.00888200 -0.01990100
v -0.01060500 0.01259300 -0.01990100
v -0.01060500 0.01259300 -0.01990100
v -0.01060500 0.01259300 -0.01990100
v -0.01060500 0.01259300 -0.01990100
v -0.01060500 0.01259300 -0.01990100
v 0.00785700 0.01524700 -0.01990100
v 0.00785700 0.01524700 -0.01990100
v 0.00785700 0.01524700 -0.01990100
v 0.00785700 0.01524700 -0.01990100
v 0.00785700 0.01524700 -0.01990100
v -0.00176400 0.01663000 -0.01990100
v -0.00176400 0.01663000 -0.01990100
v -0.00176400 0.01663000 -0.01990100
v -0.00176400 0.01663000 -0.01990100
v -0.00176400 0.01663000 -0.01990100
v 0.00311000 -0.01727100 -0.01996800
v 0.00311000 -0.01727100 -0.01996800
v 0.00311000 -0.01727100 -0.01996800
v 0.00311000 -0.01727100 -0.01996800
v -0.00637100 -0.01590800 -0.01996800
v -0.00637100 -0.01590800 -0.01996800
v -0.00637100 -0.01590800 -0.01996800
v -0.00637100 -0.01590800 -0.01996800
v 0.01182400 -0.01329200 -0.01996800
v 0.01182400 -0.01329200 -0.01996800
v 0.01182400 -0.01329200 -0.01996800
v 0.01182400 -0.01329200 -0.01996800
v -0.01361000 -0.00963500 -0.01996800
v -0.01361000 -0.00963500 -0.01996800
v -0.01361000 -0.00963500 -0.01996800
v -0.01361000 -0.00963500 -0.01996800
v 0.01700200 -0.00523400 -0.01996800
v 0.01700200 -0.00523400 -0.01996800
v 0.01700200 -0.00523400 -0.01996800
v 0.01700200 -0.00523400 -0.01996800
v -0.01630900 -0.00044400 -0.01996800
v -0.01630900 -0.00044400 -0.01996800
v -0.01630900 -0.00044400 -0.01996800
v -0.01630900 -0.00044400 -0.01996800
v 0.01700200 0.00434500 -0.01996800
v 0.01700200 0.00434500 -0.01996800
v 0.01700200 0.00434500 -0.01996800
v 0.01700200 0.00434500 -0.01996800
v -0.01361000 0.00874700 -0.01996800
v -0.01361000 0.00874700 -0.01996800
v -0.01361000 0.00874700 -0.01996800
v -0.01361000 0.00874700 -0.01996800
v 0.01182400 0.01240400 -0.01996800
v 0.01182400 0.01240400 -0.01996800
v 0.01182400 0.01240400 -0.01996800
v 0.01182400 0.01240400 -0.01996800
v -0.00637100 0.01502000 -0.01996800
v -0.00637100 0.01502000 -0.01996800
v -0.00637100 0.01502000 -0.01996800
v -0.00637100 0.01502000 -0.01996800
v 0.00311000 0.01638300 -0.01996800
v 0.00311000 0.01638300 -0.01996800
v 0.00311000 0.01638300 -0.01996800
v 0.00311000 0.01638300 -0.01996800
f 192 1273 180
f 180 1273 1263
f 181 1262 170
f 170 1262 1254
f 172 1250 162
f 162 1250 1244
f 163 1243 159
f 159 1243 1235
f 158 1238 167
f 167 1238 1246
f 166 1245 179
f 179 1245 1257
f 175 1256 189
f 189 1256 1265
f 186 1266 197
f 197 1266 1280
f 201 1281 218
f 218 1281 1295
f 215 1297 702
f 703 1296 848
f 848 1296 1284
f 846 1291 970
f 972 1292 1120
f 1118 1287 1136
f 1139 1288 1121
f 1125 1282 974
f 978 1286 840
f 841 1285 1271
f 842 1272 708
f 709 1275 195
f 705 196 592
f 587 194 212
f 588 203 484
f 481 210 329
f 332 209 313
f 312 202 335
f 334 204 488
f 489 211 593
f 596 206 217
f 596 217 701
f 1431 1438 1423
f 1423 1438 1448
f 1423 1448 1413
f 1413 1448 1451
f 1413 1451 1411
f 1411 1451 1444
f 1411 1444 1417
f 1417 1444 1434
f 1417 1434 1426
f 24 16 31
f 31 16 40
f 40 16 6
f 40 6 44
f 44 6 3
f 44 3 33
f 33 3 9
f 33 9 28
f 28 9 19
f 908 825 736
f 735 823 723
f 740 722 608
f 1055 1017 907
f 912 1016 935
f 913 932 822
f 1018 1058 1064
f 1062 1059 999
f 1065 997 1008
f 1011 998 929
f 928 1000 808
f 931 809 831
f 830 806 696
f 695 807 629
f 694 631 618
f 614 633 528
f 527 632 452
f 530 449 427
f 426 450 384
f 382 453 389
f 387 393 423
f 421 388 547
f 418 548 520
f 524 546 609
f 610 549 739
f 754 1040 411
f 411 1040 268
f 268 1040 1189
f 268 1189 289
f 289 1189 1169
f 289 1169 584
f 584 1169 883
f 345 577 730
f 729 578 904
f 732 902 1105
f 1106 903 1177
f 1104 1179 1219
f 1220 1180 1226
f 1217 1224 1173
f 1171 1223 1114
f 1172 1112 896
f 900 1115 750
f 899 748 571
f 570 751 353
f 572 352 272
f 270 351 231
f 271 232 224
f 226 235 279
f 227 276 350
f 349 281 574
f 405 728 744
f 744 728 1035
f 744 1035 945
f 945 1035 1185
f 945 1185 1132
f 1132 1185 1078
f 1078 1185 1166
f 1078 1166 833
f 833 1166 877
f 833 877 579
f 833 579 598
f 598 579 282
f 598 282 372
f 372 282 262
f 372 262 317
f 317 262 512
f 512 262 405
f 512 405 744
f 946 887 742
f 743 886 674
f 745 675 513
f 511 671 460
f 514 461 315
f 316 464 328
f 318 324 375
f 374 327 465
f 373 467 599
f 600 468 677
f 601 678 832
f 834 676 894
f 835 892 1080
f 1081 893 1089
f 1079 1088 1133
f 1134 1090 1082
f 1131 1085 943
f 944 1086 888
f 545 684 741
f 737 682 868
f 738 871 910
f 909 867 1027
f 911 1025 1057
f 1054 1028 1031
f 1056 1033 995
f 996 1030 876
f 1001 873 805
f 803 875 690
f 804 687 635
f 630 689 510
f 634 509 451
f 447 508 364
f 448 362 391
f 392 365 502
f 390 504 544
f 543 503 681
f 326 363 466
f 466 363 507
f 469 506 679
f 679 506 688
f 680 686 890
f 890 686 874
f 891 872 1087
f 1087 872 1032
f 1091 1029 1083
f 1083 1029 1026
f 1084 1024 885
f 885 1024 869
f 889 870 672
f 672 870 685
f 673 683 463
f 463 683 505
f 462 501 325
f 325 501 366
f 1107 981 734
f 731 983 639
f 733 637 346
f 348 640 293
f 347 292 229
f 225 294 219
f 228 220 274
f 273 222 297
f 275 299 567
f 568 298 641
f 569 644 895
f 897 645 987
f 898 984 1176
f 1174 988 1209
f 1175 1208 1222
f 1221 1210 1205
f 1218 1203 1109
f 1108 1204 979
f 408 649 727
f 725 648 953
f 726 955 1036
f 1037 954 1195
f 1034 1193 1184
f 1186 1192 1199
f 1183 1197 1164
f 1163 1196 959
f 1165 962 879
f 878 961 654
f 880 652 580
f 582 655 306
f 581 307 285
f 283 305 237
f 284 239 263
f 265 240 303
f 264 304 407
f 406 302 646
f 223 236 296
f 296 236 309
f 295 308 643
f 643 308 653
f 642 651 985
f 985 651 960
f 986 958 1206
f 1206 958 1198
f 1207 1200 1201
f 1201 1200 1194
f 1202 1191 980
f 980 1191 957
f 982 956 638
f 638 956 650
f 636 647 291
f 291 647 301
f 290 300 221
f 221 300 238
f 412 495 755
f 753 500 791
f 752 789 1038
f 1041 790 1148
f 1039 1149 1190
f 1188 1146 1212
f 1187 1211 1167
f 1170 1216 1141
f 1168 1142 882
f 884 1144 782
f 881 786 583
f 586 785 491
f 585 493 286
f 287 494 256
f 288 255 267
f 269 253 261
f 266 257 410
f 409 260 497
f 1111 800 749
f 747 799 478
f 746 477 354
f 356 475 251
f 355 249 230
f 234 250 245
f 233 241 280
f 277 244 474
f 278 473 575
f 573 472 795
f 576 794 906
f 905 792 1156
f 901 1155 1181
f 1178 1153 1232
f 1182 1234 1227
f 1228 1230 1157
f 1225 1162 1110
f 1113 1158 797
f 1215 1229 1145
f 1143 1233 1152
f 1140 1154 784
f 784 1154 793
f 783 796 492
f 492 796 470
f 490 471 254
f 254 471 242
f 252 243 259
f 259 243 247
f 258 246 499
f 496 248 479
f 498 476 787
f 787 476 802
f 788 801 1150
f 1147 798 1161
f 1151 1160 1213
f 1214 1159 1231
f 32 78 21
f 22 79 69
f 23 65 14
f 15 68 57
f 13 59 7
f 5 58 48
f 8 47 1
f 4 46 53
f 2 52 11
f 12 50 60
f 10 61 18
f 20 62 74
f 17 73 26
f 25 70 83
f 27 84 35
f 36 80 90
f 34 94 43
f 41 93 97
f 42 95 37
f 38 96 89
f 39 85 29
f 30 88 77
f 171 121 184
f 183 122 131
f 182 130 193
f 191 134 144
f 190 142 208
f 205 140 150
f 207 154 213
f 214 151 147
f 216 148 199
f 198 149 137
f 200 136 185
f 188 139 129
f 187 125 178
f 176 127 119
f 177 116 169
f 165 115 106
f 168 105 157
f 155 107 100
f 156 102 160
f 164 103 111
f 161 113 173
f 174 110 120
f 72 128 82
f 82 128 138
f 81 135 91
f 91 135 145
f 92 146 98
f 98 146 153
f 99 152 86
f 86 152 143
f 87 141 76
f 76 141 133
f 75 132 66
f 66 132 124
f 67 123 55
f 55 123 112
f 56 114 45
f 45 114 104
f 49 101 51
f 51 101 109
f 54 108 64
f 64 108 118
f 63 117 71
f 71 117 126
f 1276 1329 1264
f 1261 1331 1323
f 1260 1322 1251
f 1252 1320 1310
f 1253 1309 1240
f 1242 1311 1300
f 1241 1303 1236
f 1237 1302 1304
f 1239 1306 1247
f 1248 1305 1318
f 1249 1317 1259
f 1258 1314 1324
f 1255 1328 1269
f 1268 1326 1338
f 1267 1334 1279
f 1278 1335 1344
f 1277 1347 1293
f 1298 1345 1350
f 1294 1352 1289
f 1290 1353 1340
f 1283 1341 1270
f 1274 1343 1332
f 1422 1376 1430
f 1432 1375 1388
f 1429 1384 1440
f 1437 1387 1396
f 1439 1395 1445
f 1447 1397 1405
f 1446 1406 1449
f 1450 1404 1400
f 1452 1402 1442
f 1441 1399 1391
f 1443 1393 1433
f 1435 1392 1380
f 1436 1382 1428
f 1425 1381 1369
f 1427 1370 1420
f 1419 1371 1362
f 1418 1363 1412
f 1410 1359 1358
f 1409 1355 1414
f 1415 1356 1367
f 1416 1368 1421
f 1424 1366 1374
f 1325 1383 1336
f 1336 1383 1390
f 1337 1389 1348
f 1348 1389 1403
f 1346 1401 1351
f 1351 1401 1408
f 1349 1407 1342
f 1342 1407 1398
f 1339 1394 1330
f 1330 1394 1386
f 1333 1385 1319
f 1319 1385 1378
f 1321 1377 1312
f 1312 1377 1364
f 1313 1365 1301
f 1301 1365 1357
f 1299 1354 1308
f 1308 1354 1360
f 1307 1361 1315
f 1315 1361 1372
f 1316 1373 1327
f 1327 1373 1379
f 712 710 658
f 660 704 589
f 656 591 553
f 554 590 480
f 555 482 433
f 431 483 330
f 434 333 339
f 341 331 310
f 343 311 320
f 319 314 336
f 323 337 402
f 399 338 486
f 401 487 519
f 518 485 595
f 517 597 602
f 606 594 699
f 605 698 767
f 764 700 837
f 765 839 760
f 760 839 818
f 763 816 758
f 758 816 812
f 756 814 693
f 691 813 829
f 827 811 918
f 828 914 927
f 930 915 1003
f 926 1006 1009
f 1010 1007 1075
f 1012 1076 1063
f 1061 1074 1045
f 1060 1047 1013
f 1014 1046 948
f 1015 950 936
f 934 951 855
f 933 854 826
f 821 853 770
f 824 771 720
f 719 772 715
f 713 769 775
f 716 773 781
f 780 776 857
f 780 857 865
f 864 858 966
f 866 968 991
f 990 963 1069
f 989 1066 1101
f 1102 1067 1094
f 1103 1097 1129
f 1126 1092 1023
f 1126 1023 1052
f 1048 1021 921
f 1053 922 940
f 937 923 819
f 941 820 836
f 700 847 837
f 838 850 938
f 849 969 939
f 942 971 1051
f 973 1119 1049
f 1050 1116 1128
f 1117 1135 1127
f 1130 1138 1098
f 1137 1124 1099
f 1100 1123 994
f 1122 975 993
f 992 976 863
f 977 844 861
f 862 845 777
f 843 706 779
f 778 707 717
f 757 697 627
f 628 692 617
f 626 615 538
f 541 616 526
f 539 525 438
f 439 529 425
f 440 428 376
f 380 424 383
f 379 386 396
f 395 385 422
f 397 419 454
f 458 420 521
f 459 523 561
f 562 522 612
f 564 613 666
f 667 611 724
f 669 721 714
f 668 711 663
f 662 718 657
f 661 659 550
f 670 664 556
f 557 665 551
f 558 552 432
f 563 670 556
f 603 766 619
f 619 766 762
f 623 761 624
f 624 761 759
f 515 604 532
f 536 607 621
f 531 622 542
f 537 620 625
f 404 516 413
f 413 516 533
f 414 534 436
f 437 535 540
f 322 403 359
f 360 400 415
f 357 417 381
f 377 416 435
f 340 321 368
f 368 321 361
f 371 358 394
f 394 358 378
f 429 342 441
f 445 344 369
f 444 367 456
f 455 370 398
f 859 774 851
f 851 774 768
f 964 856 947
f 949 860 852
f 1068 965 1044
f 1043 967 952
f 1093 1071 1072
f 1073 1070 1042
f 1022 1095 1004
f 1005 1096 1077
f 924 1019 917
f 919 1020 1002
f 817 920 810
f 815 925 916
f 457 565 443
f 446 566 559
f 442 560 430

