# https://github.com/mikedh/trimesh

o convex_0
v 0.02833300 0.00785300 -0.07214700
v -0.00718400 -0.00768300 -0.08768500
v -0.00718400 -0.00768300 -0.07177600
v -0.00718400 0.00785300 -0.08768500
v 0.02833300 -0.00768300 -0.08768500
v -0.00718400 0.00785300 -0.07177600
v 0.02833300 0.00785300 -0.08768500
v 0.02833300 -0.00768300 -0.07214700
v 0.00835700 -0.00768300 -0.07177600
v 0.00835700 0.00785300 -0.07177600
v 0.00835300 0.00785400 0.07177600
v -0.00718300 -0.00768400 -0.07177600
v -0.00681200 -0.00768400 -0.07177600
v 0.00798200 0.00785400 -0.07177600
v -0.00718300 0.00785100 0.07177600
v 0.00835300 -0.00768200 0.07177600
v 0.00835300 -0.00768200 -0.07177600
v -0.00718300 -0.00768200 0.07177600
v -0.00718300 0.00785100 -0.07177600
v 0.00835300 0.00785400 -0.07177600
v 0.02833300 0.00785300 0.07214700
v -0.00718400 -0.00768300 0.07177600
v -0.00718400 -0.00768300 0.08768500
v -0.00718400 0.00785300 0.07177600
v -0.00718400 0.00785300 0.08768500
v 0.02833300 -0.00768300 0.08768500
v 0.02833300 -0.00768300 0.07214700
v 0.02833300 0.00785300 0.08768500
v 0.00835700 -0.00768300 0.07177600
v 0.00835700 0.00785300 0.07177600
f 6 9 10
f 2 3 4
f 3 2 5
f 2 4 5
f 4 3 6
f 1 4 6
f 4 1 7
f 1 5 7
f 5 4 7
f 5 1 8
f 3 5 8
f 6 3 9
f 8 1 9
f 3 8 9
f 1 6 10
f 9 1 10
f 17 14 20
f 13 12 14
f 11 14 15
f 12 13 16
f 11 15 16
f 11 16 17
f 13 14 17
f 16 13 17
f 15 12 18
f 12 16 18
f 16 15 18
f 14 12 19
f 15 14 19
f 12 15 19
f 14 11 20
f 11 17 20
f 21 29 30
f 22 23 24
f 21 24 25
f 24 23 25
f 25 23 26
f 23 22 26
f 21 26 27
f 26 22 27
f 21 25 28
f 25 26 28
f 26 21 28
f 22 24 29
f 21 27 29
f 27 22 29
f 24 21 30
f 29 24 30

