# https://github.com/mikedh/trimesh

o convex_0
v 0.17873000 -0.14813200 -0.08398000
v 0.20179700 0.20014100 0.29191200
v 0.20179700 0.20014100 -0.10702400
v 0.20179700 -0.19887300 -0.10702400
v 0.18103800 -0.19891200 0.29191200
v 0.18103800 0.20014100 0.29191200
v 0.20179700 -0.19887300 0.29191200
v 0.18103800 0.20014100 -0.10702400
v 0.18103800 -0.19891200 -0.10702400
v 0.17873000 0.17936100 0.12583800
v 0.17873000 -0.17809200 0.12583800
v 0.17873000 0.17936100 -0.07937100
v 0.17873000 -0.18039700 -0.03554800
v 0.17873000 0.02709800 -0.08858900
v -0.31258800 -0.14122500 -0.03098200
v -0.28952600 -0.15967900 0.12587100
v -0.31028000 -0.15967900 0.12587100
v -0.31258600 0.01558900 0.11893100
v -0.29413800 0.00405700 -0.03098200
v -0.28952600 -0.17813300 -0.03098200
v -0.29414300 0.01558900 0.11893100
v -0.31258800 0.00405700 -0.03098200
v -0.31028000 -0.17813300 -0.00098100
v -0.28952600 -0.17583800 0.12587100
v -0.31258600 -0.15507000 0.11893100
v -0.31028000 -0.17583800 0.12587100
v -0.28952600 -0.15505100 -0.03098200
v -0.31028000 -0.17813300 -0.03098200
v -0.29414300 0.01558900 0.08433900
v -0.31258600 0.01558900 0.08433900
v 0.17873000 -0.15739200 0.12587100
v 0.10488900 -0.17584400 0.09819100
v 0.10488900 -0.15970100 0.09819100
v -0.28952300 -0.17584400 0.12587100
v -0.28952300 -0.15970100 0.10050000
v 0.17873000 -0.17815200 0.12587100
v -0.28952300 -0.15970100 0.12587100
v -0.28952300 -0.17584400 0.10050000
v 0.17873000 -0.17815200 0.10050000
v 0.17873000 -0.15739200 0.10050000
v 0.10488900 -0.17815200 0.10050000
v 0.10488900 -0.15739200 0.10050000
v 0.17873000 -0.15970100 0.09819100
v -0.31258800 0.00409200 -0.03098200
v -0.28952600 0.17706500 0.12587100
v -0.28952600 0.17938100 0.00132200
v -0.31028000 0.17706500 0.12587100
v -0.29414300 0.01562200 0.11893100
v -0.31028000 0.17934700 -0.03098200
v -0.29414000 0.00409200 -0.03098200
v -0.31258600 0.01562200 0.11893100
v -0.28952600 0.15628600 -0.03098200
v -0.31258600 0.15860300 0.11662800
v -0.29414000 0.00409200 0.08433900
v -0.31258800 0.14245700 -0.03098200
v -0.31258800 0.00409200 0.08433900
v -0.28952600 0.16091900 0.12587100
v -0.28952600 0.17938100 -0.03098200
v 0.17873000 0.17938100 0.12587100
v 0.10488900 0.16092800 0.09819100
v -0.28952300 0.16092800 0.10050000
v 0.17873000 0.16092800 0.12587100
v -0.28952300 0.16092800 0.12587100
v -0.28952300 0.17707500 0.10050000
v 0.17873000 0.17938100 0.10050000
v -0.28952300 0.17707500 0.12587100
v 0.17873000 0.16092800 0.09819100
v 0.10488900 0.17707500 0.09819100
v 0.10488900 0.17938100 0.10050000
v -0.31951000 -0.17815200 -0.06326800
v -0.29414000 0.02483500 -0.03098200
v -0.28952600 0.02483500 -0.06326800
v -0.28952600 -0.17815200 -0.03098200
v -0.28952600 -0.17815200 -0.07941400
v -0.31258600 0.02483500 -0.08172500
v -0.31258600 0.02483500 -0.03098200
v -0.31951000 -0.17815200 -0.03329300
v -0.28952600 0.02483500 -0.08172500
v -0.31028000 -0.14812900 -0.08403500
v -0.28952600 -0.12740500 -0.08403500
v -0.31951000 -0.15043400 -0.03329300
v -0.31028000 -0.17815200 -0.07941400
v -0.31028000 -0.17815200 -0.03098200
v -0.30336800 0.13092700 -0.08403500
v -0.31028000 0.17938100 -0.03098200
v -0.28952600 0.17938100 -0.07941400
v -0.31951000 0.17938100 -0.03329300
v -0.31951000 0.17938100 -0.06326800
v -0.31028000 0.14938300 -0.08403500
v -0.31951000 0.15169700 -0.03329300
v -0.28952600 0.14938300 -0.08403500
v -0.31028000 0.17938100 -0.07941400
v 0.14872400 -0.14816600 -0.07250200
v -0.04963000 -0.15508500 -0.08864900
v -0.04963000 -0.14816600 -0.08864900
v -0.04963000 -0.14816600 -0.06327500
v 0.15797000 -0.15739200 -0.06327500
v -0.04963000 -0.15277900 -0.06327500
v 0.14872400 -0.15508500 -0.07481000
v 0.17873000 -0.15508500 -0.02175500
v -0.28952300 -0.15739200 -0.06327500
v -0.28952300 -0.14816600 -0.06327500
v 0.17873000 -0.15739200 -0.06327500
v -0.28952300 -0.15739200 -0.02175500
v 0.17873000 -0.14816600 -0.06327500
v -0.28952300 -0.14816600 -0.05635000
v 0.17873000 -0.15739200 -0.02175500
v -0.28952300 -0.15508500 -0.02175500
v 0.17873000 -0.14816600 -0.05635000
v -0.04965800 -0.14816500 -0.08864600
v 0.17873000 -0.07435900 -0.06327900
v 0.17873000 -0.14354200 -0.05866500
v -0.28950400 -0.14354200 -0.05866500
v -0.28950400 -0.07435900 -0.08172800
v 0.17873000 -0.07435900 -0.08172500
v -0.28950400 -0.07435900 -0.06327900
v -0.28950400 -0.14816500 -0.08403200
v 0.17873000 -0.14816500 -0.08403200
v 0.17873000 -0.14816500 -0.05866500
v -0.28950400 -0.14816500 -0.05866500
v -0.02655800 -0.13893200 -0.08864600
v 0.12565500 -0.13431600 -0.08634200
v -0.28950400 -0.12739500 -0.08403200
v -0.04966700 0.14016100 -0.08864900
v 0.17873000 0.14247500 -0.06327500
v 0.17873000 -0.07435200 -0.06327500
v -0.28952300 0.14247500 -0.06327500
v -0.28952300 -0.07435200 -0.08172700
v 0.17873000 -0.02587600 -0.08864900
v -0.28952300 -0.07435200 -0.06327500
v -0.28952300 0.14247500 -0.08403400
v 0.17873000 0.14247500 -0.08403200
v 0.17873000 -0.07435200 -0.08172400
v 0.17873000 0.02716300 -0.08864900
v 0.12565300 0.14247500 -0.08633900
v -0.02661200 0.14247500 -0.08864900
v 0.17176300 -0.02587600 -0.08864900
v -0.28952300 0.12861500 -0.08403400
v 0.17873000 -0.15970200 0.00361000
v -0.28952300 -0.17815100 -0.07942200
v -0.28952300 -0.17353600 -0.07942200
v -0.28952300 -0.17584400 0.00592500
v 0.17873000 -0.18045900 -0.03560400
v 0.15792100 -0.15739400 -0.07018200
v -0.28952300 -0.15739200 -0.00791800
v 0.17873000 -0.17814900 -0.07942200
v -0.28952300 -0.15739200 -0.06327300
v 0.17873000 -0.17584400 0.00592500
v -0.28952300 -0.17815100 -0.00100100
v -0.28952300 -0.15970200 0.00361000
v 0.17873000 -0.15739400 -0.00791800
v 0.10488900 -0.18045900 -0.02177000
v 0.17873000 -0.17353600 -0.07942200
v -0.28952300 -0.16662000 0.00592500
v 0.17873000 -0.17814900 -0.00100100
v 0.17873000 -0.15739400 -0.06327300
v 0.17873000 -0.16662200 0.00592500
v 0.17873000 0.15862100 -0.06326600
v -0.04966700 0.14247500 -0.08864900
v 0.17873000 0.15631400 -0.02406200
v -0.28952300 0.15862100 -0.02406200
v -0.04966700 0.15631400 -0.08864900
v 0.17873000 0.14247500 -0.06096400
v -0.28952300 0.14247500 -0.06096400
v -0.28952300 0.15862100 -0.06327200
v 0.17873000 0.14247500 -0.08403400
v 0.14870800 0.15862100 -0.07480300
v 0.17873000 0.15862100 -0.02406200
v -0.28952300 0.15631400 -0.02406200
v -0.28952300 0.15169900 -0.08172600
v 0.17873000 0.14939700 -0.08403400
v 0.17873000 0.17707100 0.00592500
v -0.28952300 0.17476500 -0.07942200
v -0.28952300 0.15862100 -0.06327300
v 0.15792100 0.15862100 -0.07018200
v -0.28952300 0.16093100 0.00361000
v 0.17873000 0.17937800 -0.07942200
v -0.28952300 0.17938000 0.00130500
v 0.17873000 0.15862100 -0.00791800
v -0.28952300 0.17938000 -0.07942200
v 0.17873000 0.18168800 -0.00791800
v 0.17873000 0.16093100 0.00361000
v -0.28952300 0.15862100 -0.00791800
v 0.10488900 0.18168800 -0.03560400
v -0.28952300 0.16784900 0.00592500
v 0.17873000 0.17476500 -0.07942200
v -0.28952300 0.17707300 0.00592500
v 0.17873000 0.15862100 -0.06327300
v 0.17873000 0.16785200 0.00592500
f 12 8 14
f 3 2 4
f 5 2 6
f 2 3 6
f 4 2 7
f 5 4 7
f 2 5 7
f 3 4 8
f 6 3 8
f 4 5 9
f 8 4 9
f 5 6 10
f 6 8 10
f 10 1 11
f 5 10 11
f 1 10 12
f 10 8 12
f 1 9 13
f 9 5 13
f 11 1 13
f 5 11 13
f 9 1 14
f 8 9 14
f 1 12 14
f 29 22 30
f 17 16 18
f 15 19 20
f 18 16 21
f 15 18 22
f 19 15 22
f 23 20 24
f 16 17 24
f 20 16 24
f 17 18 25
f 18 15 25
f 25 23 26
f 23 24 26
f 24 17 26
f 17 25 26
f 16 20 27
f 20 19 27
f 21 16 27
f 15 20 28
f 20 23 28
f 25 15 28
f 23 25 28
f 18 21 29
f 19 22 29
f 27 19 29
f 21 27 29
f 22 18 30
f 18 29 30
f 40 39 43
f 33 32 35
f 31 34 36
f 34 31 37
f 35 34 37
f 34 35 38
f 35 32 38
f 31 36 39
f 31 39 40
f 36 34 41
f 34 38 41
f 38 32 41
f 39 36 41
f 32 39 41
f 33 35 42
f 37 31 42
f 35 37 42
f 31 40 42
f 40 33 42
f 32 33 43
f 39 32 43
f 33 40 43
f 52 49 58
f 45 46 47
f 47 46 49
f 44 49 50
f 46 45 52
f 50 49 52
f 47 49 53
f 51 47 53
f 44 50 54
f 48 51 54
f 50 52 54
f 49 44 55
f 53 49 55
f 53 55 56
f 51 53 56
f 44 54 56
f 54 51 56
f 55 44 56
f 45 47 57
f 51 48 57
f 47 51 57
f 52 45 57
f 48 54 57
f 54 52 57
f 49 46 58
f 46 52 58
f 65 68 69
f 61 60 62
f 62 59 63
f 61 62 63
f 61 63 64
f 60 61 64
f 59 62 65
f 63 59 66
f 64 63 66
f 62 60 67
f 65 62 67
f 65 67 68
f 60 64 68
f 67 60 68
f 68 64 69
f 59 65 69
f 66 59 69
f 64 66 69
f 76 77 83
f 72 71 73
f 73 70 74
f 72 73 74
f 71 72 75
f 73 71 76
f 71 75 76
f 70 73 77
f 72 74 78
f 75 72 78
f 70 75 79
f 74 79 80
f 78 74 80
f 75 78 80
f 79 75 80
f 75 70 81
f 76 75 81
f 77 76 81
f 70 77 81
f 74 70 82
f 70 79 82
f 79 74 82
f 73 76 83
f 77 73 83
f 89 88 92
f 58 85 71
f 75 84 78
f 71 75 78
f 85 58 86
f 58 78 86
f 85 86 87
f 71 85 76
f 75 71 76
f 85 87 76
f 87 86 88
f 84 75 89
f 75 88 89
f 75 76 90
f 76 87 90
f 88 75 90
f 87 88 90
f 58 71 72
f 78 58 72
f 71 78 72
f 78 84 91
f 86 78 91
f 84 89 91
f 89 86 91
f 88 86 92
f 86 89 92
f 97 94 99
f 95 94 96
f 93 95 96
f 93 96 97
f 94 97 98
f 96 94 98
f 97 96 98
f 95 93 99
f 94 95 99
f 93 97 99
f 105 106 109
f 101 102 103
f 102 101 104
f 101 103 104
f 103 102 105
f 100 103 105
f 102 104 106
f 105 102 106
f 103 100 107
f 100 104 107
f 104 103 107
f 104 100 108
f 100 106 108
f 106 104 108
f 100 105 109
f 106 100 109
f 114 121 123
f 112 111 113
f 114 111 115
f 111 112 115
f 113 111 116
f 114 113 116
f 111 114 116
f 113 114 117
f 115 112 118
f 117 110 118
f 117 118 119
f 112 113 119
f 118 112 119
f 119 113 120
f 113 117 120
f 117 119 120
f 114 115 121
f 118 110 122
f 115 118 122
f 110 121 122
f 121 115 122
f 110 117 123
f 117 114 123
f 121 110 123
f 128 131 138
f 126 125 127
f 125 126 129
f 126 127 130
f 127 128 130
f 128 126 130
f 127 125 131
f 128 127 131
f 125 129 132
f 131 125 132
f 126 128 133
f 129 126 133
f 128 129 133
f 129 124 134
f 132 129 134
f 132 134 135
f 131 132 135
f 131 135 136
f 124 131 136
f 134 124 136
f 135 134 136
f 128 124 137
f 129 128 137
f 124 129 137
f 124 128 138
f 131 124 138
f 154 148 157
f 141 140 142
f 141 142 145
f 140 141 146
f 139 143 146
f 143 140 146
f 144 141 147
f 141 145 147
f 143 139 148
f 142 140 149
f 148 142 149
f 139 145 150
f 145 142 150
f 145 139 151
f 139 146 151
f 147 145 151
f 140 143 152
f 149 140 152
f 141 144 153
f 146 141 153
f 151 146 153
f 142 148 154
f 139 150 154
f 150 142 154
f 143 148 155
f 148 149 155
f 152 143 155
f 149 152 155
f 144 147 156
f 147 151 156
f 153 144 156
f 151 153 156
f 148 139 157
f 139 154 157
f 162 167 171
f 159 131 162
f 131 159 163
f 158 160 163
f 161 131 164
f 131 163 164
f 163 160 164
f 161 158 165
f 131 161 165
f 159 162 166
f 163 159 166
f 158 163 166
f 165 158 167
f 162 165 167
f 160 158 168
f 158 161 168
f 161 160 168
f 160 161 169
f 164 160 169
f 161 164 169
f 162 131 170
f 131 165 170
f 165 162 170
f 166 162 171
f 158 166 171
f 167 158 171
f 185 182 189
f 174 173 175
f 173 174 176
f 173 176 178
f 174 175 179
f 177 172 179
f 177 173 180
f 173 178 180
f 172 177 181
f 178 172 181
f 179 172 182
f 176 179 182
f 176 174 183
f 174 179 183
f 179 176 183
f 177 180 184
f 180 178 184
f 178 181 184
f 181 177 184
f 178 176 185
f 176 182 185
f 175 173 186
f 173 177 186
f 177 179 186
f 172 178 187
f 185 172 187
f 178 185 187
f 179 175 188
f 175 186 188
f 186 179 188
f 182 172 189
f 172 185 189

