# https://github.com/mikedh/trimesh

o convex_0
v 0.19361500 -0.13576300 -0.04188700
v 0.21582900 0.21356000 0.08129600
v 0.21582900 0.21356000 -0.04996900
v 0.21582900 -0.18625300 0.08129600
v 0.19563500 0.21352100 0.08129600
v 0.21582900 -0.18625300 -0.04996900
v 0.19563500 -0.18629200 0.08129600
v 0.19563500 0.21352100 -0.04996900
v 0.19563500 -0.18629200 -0.04996900
v 0.19361500 0.18929300 0.04696400
v 0.19361500 -0.16406100 0.04696400
v 0.19361500 0.19336400 -0.03986900
v 0.19361500 0.03782200 -0.04592100
v 0.19361500 -0.16605700 -0.03986900
v -0.29509000 -0.13577100 -0.04189100
v -0.27691900 -0.15801200 0.04696500
v -0.29509000 -0.15801200 0.04696500
v -0.27893900 0.03786700 0.04493900
v -0.27691900 -0.16609800 -0.03986400
v -0.29711000 0.03786700 -0.04189100
v -0.27691900 0.03786700 -0.04189100
v -0.29711000 0.03786700 0.04493900
v -0.30518800 -0.16609800 -0.02169500
v -0.30518800 -0.13778700 0.00656400
v -0.29913000 -0.12974100 0.04493900
v -0.30518800 -0.16609800 0.00858200
v -0.27691900 -0.16406100 0.04696500
v -0.29509000 -0.16609800 -0.03986400
v -0.29711000 -0.12772500 -0.04189100
v -0.27691900 0.03786700 -0.02371200
v -0.30518800 -0.13778700 -0.02169500
v -0.27691900 -0.13577100 -0.04189100
v -0.29509000 -0.16406100 0.04696500
v -0.27691900 -0.16609800 0.02877800
v -0.27691900 -0.12570800 0.04493900
v -0.05675500 -0.12772800 -0.04592500
v 0.19361300 0.03786700 -0.02371800
v 0.19361300 -0.12772800 -0.02371800
v -0.27691000 0.03786700 -0.02371800
v 0.19361300 0.03786700 -0.04592500
v -0.27691000 -0.12772800 -0.02371800
v -0.27691000 0.03786700 -0.04189000
v 0.19361300 -0.12772800 -0.04188800
v -0.27691000 -0.12772800 -0.04189000
v 0.13908100 -0.12772800 -0.04592500
v 0.14511400 0.03584100 -0.04592500
v 0.19361300 -0.01264100 -0.04592500
v -0.05675500 -0.12166600 -0.04592500
v -0.29913200 0.13477600 -0.02370100
v -0.27691800 0.17719400 0.04494600
v -0.27691800 0.17719400 -0.02167800
v -0.27691800 0.03788100 -0.02370100
v -0.29711000 0.03788100 0.04494600
v -0.29508800 0.17719400 0.04494600
v -0.29711000 0.03788100 -0.04189100
v -0.27894100 0.03788100 0.04494600
v -0.29508800 0.16306400 -0.04189100
v -0.27691800 0.03788100 -0.04189100
v -0.27691800 0.16306400 -0.04189100
v -0.29913200 0.15497600 0.04494600
v -0.29508800 0.17719400 -0.02167800
v -0.29913200 0.15497600 -0.02370100
v -0.29711000 0.15497600 -0.04189100
v -0.27691800 0.15297100 0.04494600
v -0.29913200 0.13477600 0.04494600
v -0.05680500 0.14690300 -0.04592500
v 0.19361500 0.15497300 -0.02371800
v 0.19361500 0.03787900 -0.02371800
v -0.27691800 0.15497300 -0.02371800
v -0.27691800 0.03787900 -0.04189000
v 0.19361500 0.03787900 -0.04188800
v -0.27691800 0.03787900 -0.02371800
v 0.19361500 0.15497300 -0.04188800
v -0.27691800 0.15497300 -0.04189000
v 0.13908200 0.15497300 -0.04592500
v 0.13908200 0.14690300 -0.04592500
v -0.05680500 0.15497300 -0.04592500
v 0.19361400 -0.14590400 0.03888200
v -0.27690300 -0.16609800 -0.03987100
v -0.27690300 -0.16609800 0.02878400
v -0.27690300 -0.14388400 0.02474600
v 0.19361400 -0.16609800 -0.03987100
v 0.17339500 -0.14388400 -0.02774200
v 0.19361400 -0.16407800 0.04696500
v -0.27690300 -0.14388400 -0.02168100
v -0.27690300 -0.14792600 0.04494200
v -0.27690300 -0.16407800 0.04696500
v 0.19361400 -0.16609800 0.03685900
v 0.19361400 -0.14388400 0.02474600
v -0.27690300 -0.16205600 -0.03987100
v 0.19361400 -0.14792600 0.04494200
v 0.19361400 -0.16205600 -0.03987100
v 0.19361400 -0.14388400 -0.02168100
v -0.27690300 -0.15801800 0.04696500
v -0.27690300 -0.14590400 0.03888200
v 0.19361400 -0.15801800 0.04696500
v -0.30519000 0.16307300 -0.02169600
v -0.29509400 0.19134000 0.00859600
v -0.29509400 0.19336500 -0.01361600
v -0.30519000 0.19134000 0.00859600
v -0.29509400 0.16307300 0.00657300
v -0.30519000 0.19336500 -0.02169600
v -0.29509400 0.16307300 -0.02169600
v -0.30519000 0.16307300 0.00657300
v -0.29509400 0.19336500 -0.02169600
v 0.19361500 0.19134500 0.04494200
v -0.29509000 0.18730500 -0.03987100
v -0.29509000 0.17721100 -0.02168100
v 0.17338000 0.17115100 -0.02773300
v -0.27686400 0.17317100 0.04291900
v 0.19361500 0.19336500 -0.03987100
v -0.29509000 0.19134300 0.04494200
v 0.19361500 0.17317100 0.04291900
v -0.29509000 0.19336300 -0.03987100
v -0.27686400 0.17115100 -0.02168100
v 0.11884500 0.19336500 0.03685900
v 0.19361500 0.17115100 0.03080700
v -0.29509000 0.18326900 0.04696500
v -0.27686400 0.17115100 0.03080700
v 0.19361500 0.18730300 -0.03987100
v 0.19361500 0.18326700 0.04696500
v -0.29509000 0.19336300 -0.01360600
v 0.19361500 0.17115100 -0.02168100
v -0.29509000 0.17721100 0.04494200
v -0.29509000 0.18932300 0.04696500
v 0.19361500 0.19336500 0.03685900
v 0.19361500 0.17519300 0.04494200
v 0.19361500 0.18932300 0.04696500
v -0.27686400 0.17519300 0.04494200
v 0.19361500 -0.12773000 -0.02170100
v -0.03460500 -0.14186300 -0.04794900
v -0.27691800 -0.14388200 -0.02169700
v -0.27691800 -0.12773000 -0.04189000
v 0.19361500 -0.14388200 -0.01159900
v -0.27691800 -0.13782500 -0.01159900
v 0.19361500 -0.12773000 -0.04189000
v -0.27691800 -0.12773000 -0.02169700
v 0.16128200 -0.14388200 -0.03380900
v -0.27691800 -0.13580600 -0.04189000
v 0.19361500 -0.13782500 -0.01159900
v -0.27691800 -0.14388200 -0.01159900
v -0.03460500 -0.12773000 -0.04592800
v 0.19361500 -0.13580600 -0.04189000
v -0.01240500 -0.13378900 -0.04794900
v -0.01240500 -0.14186300 -0.04794900
v 0.19361500 -0.14388200 -0.02170100
v 0.19361500 -0.14186400 0.01263500
v -0.27691800 -0.14388300 -0.01159900
v -0.27691800 -0.13984500 -0.01159900
v 0.19361500 -0.14388300 -0.01159900
v -0.27691800 -0.14388300 0.01263500
v 0.19361500 -0.13984500 -0.01159900
v -0.27691800 -0.13984500 -0.00149800
v 0.19361500 -0.14388300 0.01263500
v -0.27691800 -0.14186400 0.01263500
v 0.19361500 -0.13984500 -0.00149800
v 0.19361500 0.16913100 0.01667300
v -0.03465100 0.16509300 -0.04794900
v -0.03465100 0.16913100 -0.04794900
v -0.27691800 0.17115100 0.01667300
v -0.27691800 0.16509300 -0.00756000
v 0.17339500 0.17115100 -0.02774500
v 0.19361500 0.16509300 -0.00756000
v -0.27691800 0.17115100 -0.02168500
v 0.19361500 0.17115100 0.01667300
v 0.16123600 0.16509300 -0.03381100
v -0.27691800 0.16913100 0.01667300
v -0.27691800 0.16509300 -0.02168500
v 0.19361500 0.17115100 -0.02168500
v 0.16123600 0.16913100 -0.03381100
v -0.01245100 0.16913100 -0.04794900
v 0.19361500 0.16509300 -0.02168500
v 0.19361500 0.16509300 -0.01362200
v -0.03465100 0.15903600 -0.04794900
v -0.27691800 0.16307200 -0.01361800
v 0.19361500 0.15499600 -0.02169700
v -0.27691800 0.15499600 -0.04188700
v 0.19361500 0.15499600 -0.04189000
v -0.27691800 0.15499600 -0.02169700
v -0.27691800 0.16509300 -0.02169700
v 0.19361500 0.16307200 -0.04189000
v -0.27691800 0.16307200 -0.04188700
v -0.27691800 0.16509300 -0.01361800
v 0.19361500 0.16307200 -0.01362200
v -0.03465100 0.15499600 -0.04592600
v 0.16128200 0.16509300 -0.03381200
v -0.01240500 0.16509300 -0.04794900
f 11 1 14
f 3 2 4
f 2 3 5
f 4 2 5
f 3 4 6
f 6 4 7
f 4 5 7
f 5 3 8
f 3 6 8
f 8 6 9
f 6 7 9
f 7 5 10
f 10 1 11
f 7 10 11
f 5 8 12
f 1 10 12
f 10 5 12
f 8 9 13
f 9 1 13
f 1 12 13
f 12 8 13
f 9 7 14
f 1 9 14
f 7 11 14
f 30 18 35
f 17 16 18
f 16 19 21
f 15 20 21
f 20 18 21
f 17 18 22
f 18 20 22
f 22 20 24
f 17 22 25
f 22 24 25
f 25 24 26
f 23 19 26
f 24 23 26
f 16 17 27
f 19 16 27
f 15 19 28
f 19 23 28
f 28 23 29
f 20 15 29
f 23 20 29
f 15 28 29
f 16 21 30
f 21 18 30
f 20 23 31
f 24 20 31
f 23 24 31
f 19 15 32
f 15 21 32
f 21 19 32
f 17 25 33
f 25 26 33
f 27 17 33
f 27 33 34
f 26 19 34
f 19 27 34
f 33 26 34
f 18 16 35
f 16 30 35
f 42 46 48
f 38 37 39
f 37 38 40
f 39 37 40
f 36 38 41
f 38 39 41
f 41 39 42
f 39 40 42
f 38 36 43
f 40 38 43
f 36 41 44
f 41 42 44
f 42 36 44
f 36 40 45
f 43 36 45
f 40 36 46
f 42 40 46
f 40 43 47
f 45 40 47
f 43 45 47
f 36 42 48
f 46 36 48
f 53 60 65
f 51 50 52
f 53 50 54
f 50 51 54
f 53 49 55
f 52 53 55
f 53 52 56
f 50 53 56
f 55 57 58
f 51 52 58
f 52 55 58
f 57 51 59
f 58 57 59
f 51 58 59
f 53 54 60
f 54 51 61
f 51 57 61
f 60 54 61
f 60 61 62
f 55 49 62
f 49 60 62
f 57 55 63
f 61 57 63
f 62 61 63
f 55 62 63
f 52 50 64
f 50 56 64
f 56 52 64
f 49 53 65
f 60 49 65
f 75 66 77
f 68 67 69
f 68 70 71
f 67 68 71
f 68 69 72
f 69 70 72
f 70 68 72
f 69 67 73
f 67 71 73
f 66 70 74
f 70 69 74
f 69 73 74
f 74 73 75
f 73 71 75
f 75 71 76
f 70 66 76
f 71 70 76
f 66 75 76
f 66 74 77
f 74 75 77
f 91 94 96
f 79 80 81
f 80 79 82
f 82 78 84
f 79 81 85
f 81 83 85
f 81 80 86
f 86 80 87
f 87 80 88
f 80 82 88
f 82 84 88
f 84 87 88
f 81 78 89
f 78 82 89
f 83 81 89
f 82 79 90
f 79 85 90
f 85 83 90
f 84 78 91
f 78 86 91
f 89 82 92
f 82 90 92
f 90 83 92
f 83 89 93
f 89 92 93
f 92 83 93
f 87 84 94
f 86 87 94
f 91 86 94
f 78 81 95
f 81 86 95
f 86 78 95
f 84 91 96
f 94 84 96
f 103 102 105
f 98 99 100
f 99 98 101
f 98 100 101
f 100 99 102
f 97 100 102
f 101 97 103
f 99 101 103
f 97 102 103
f 100 97 104
f 97 101 104
f 101 100 104
f 102 99 105
f 99 103 105
f 127 121 129
f 107 108 112
f 111 106 113
f 111 107 114
f 107 112 114
f 108 107 115
f 107 109 115
f 112 106 116
f 111 114 116
f 113 110 117
f 111 113 117
f 115 109 117
f 112 108 118
f 108 115 119
f 117 110 119
f 115 117 119
f 109 107 120
f 107 111 120
f 111 117 120
f 113 106 121
f 114 112 122
f 112 116 122
f 116 114 122
f 117 109 123
f 109 120 123
f 120 117 123
f 118 108 124
f 108 119 124
f 119 110 124
f 106 112 125
f 112 118 125
f 118 121 125
f 106 111 126
f 116 106 126
f 111 116 126
f 110 113 127
f 113 121 127
f 121 106 128
f 106 125 128
f 125 121 128
f 121 118 129
f 124 110 129
f 118 124 129
f 110 127 129
f 138 143 146
f 133 132 135
f 133 130 136
f 130 134 136
f 130 133 137
f 133 135 137
f 132 131 138
f 134 132 138
f 131 132 139
f 132 133 139
f 133 131 139
f 134 130 140
f 135 134 140
f 130 137 140
f 137 135 140
f 132 134 141
f 135 132 141
f 134 135 141
f 133 136 142
f 136 134 143
f 131 133 144
f 133 142 144
f 142 136 144
f 136 143 144
f 144 143 145
f 138 131 145
f 143 138 145
f 131 144 145
f 134 138 146
f 143 134 146
f 152 153 156
f 148 149 150
f 149 148 151
f 148 150 151
f 150 149 152
f 147 150 152
f 149 151 153
f 152 149 153
f 150 147 154
f 147 151 154
f 151 150 154
f 151 147 155
f 147 153 155
f 153 151 155
f 147 152 156
f 153 147 156
f 166 169 172
f 157 161 163
f 161 158 163
f 159 158 164
f 161 160 164
f 162 159 164
f 160 162 164
f 160 157 165
f 162 160 165
f 157 163 165
f 163 158 166
f 157 160 167
f 161 157 167
f 160 161 167
f 158 161 168
f 164 158 168
f 161 164 168
f 162 165 169
f 165 163 169
f 169 166 170
f 162 169 170
f 162 170 171
f 158 159 171
f 159 162 171
f 166 158 171
f 170 166 171
f 163 166 172
f 169 163 172
f 158 186 187
f 158 174 177
f 173 176 178
f 176 177 178
f 176 175 179
f 177 176 179
f 175 177 179
f 173 158 180
f 177 175 180
f 173 178 181
f 158 177 182
f 180 158 182
f 177 180 182
f 175 173 183
f 173 180 183
f 180 175 183
f 173 175 184
f 176 173 184
f 175 176 184
f 177 174 185
f 174 178 185
f 178 177 185
f 158 173 186
f 173 181 186
f 186 181 187
f 174 158 187
f 178 174 187
f 181 178 187

